<svg width="45" height="26" viewBox="0 0 45 26" fill="none" xmlns="http://www.w3.org/2000/svg">
<path d="M24.7498 10.2314H22.0498V25.9296H24.7498V10.2314Z" fill="#221715"/>
<path d="M32.6426 25.9296V19.1717H29.8734V25.9296H27.1733V7.62685C27.1733 6.71171 27.7272 5.86697 28.2118 5.3742C28.558 5.02223 29.5964 4.38867 30.5657 4.38867H32.0888C33.058 4.38867 33.8195 4.81104 34.3042 5.3742C34.9272 5.93737 35.4119 6.71171 35.4119 7.76764V25.9296H32.6426ZM32.6426 6.28934H29.8734V17.3414H32.6426V6.28934Z" fill="#221715"/>
<path d="M41.4348 2.34722C42.4732 4.52947 34.2347 11.0058 22.95 16.7782C11.6653 22.621 1.69601 25.5072 0.588309 23.325C-0.45016 21.1427 7.78836 14.6664 19.0731 8.89397C30.3578 3.05117 40.3963 0.164967 41.4348 2.34722ZM22.1192 7.20448C10.8345 13.0473 2.52678 19.4532 3.56525 21.7059C4.60372 23.8881 14.6423 21.0019 25.8577 15.2295C37.2117 9.45713 45.4502 2.98077 44.4117 0.728128C43.3732 -1.45412 33.4039 1.43208 22.1192 7.20448Z" fill="#00579C"/>
<path d="M14.2961 20.9315V26H11.5961V21.9875C11.5269 21.9875 13.7423 21.1427 14.2961 20.9315ZM11.5269 21.3539V7.62685C11.5269 6.71171 12.0807 5.86697 12.5653 5.3742C12.9115 5.02223 13.9499 4.38867 14.9192 4.38867H16.4423C17.4115 4.38867 18.1731 4.81104 18.6577 5.3742C19.2808 5.93737 19.7654 6.71171 19.7654 7.76764V16.0039C19.7654 16.9894 19.2115 17.8342 18.7269 18.2565C18.3808 18.6085 17.4115 19.2421 16.373 19.2421H14.2269V20.4388C13.8115 20.65 11.5269 21.3539 11.5269 21.3539ZM16.9961 6.28934H14.2269V17.3414H16.9961V6.28934Z" fill="#221715"/>
<path d="M25.7191 6.50061C25.7191 7.69733 24.7499 8.68286 23.5729 8.68286C22.396 8.68286 21.4268 7.69733 21.4268 6.50061C21.4268 5.30389 22.396 4.31836 23.5729 4.31836C24.7499 4.31836 25.7191 5.30389 25.7191 6.50061Z" fill="url(#paint0_radial_2676_793)"/>
<defs>
<radialGradient id="paint0_radial_2676_793" cx="0" cy="0" r="1" gradientUnits="userSpaceOnUse" gradientTransform="translate(23.452 6.49443) scale(2.15054 2.1867)">
<stop stop-color="white"/>
<stop offset="0.1526" stop-color="#D2CFCF"/>
<stop offset="0.3801" stop-color="#948E8E"/>
<stop offset="0.587" stop-color="#635B5A"/>
<stop offset="0.7657" stop-color="#403634"/>
<stop offset="0.9094" stop-color="#2A1F1D"/>
<stop offset="1" stop-color="#221715"/>
</radialGradient>
</defs>
</svg>
