<svg width="62" height="36" viewBox="0 0 62 36" fill="none" xmlns="http://www.w3.org/2000/svg"><path d="M34.1708 14.1667h-3.8046v21.7359h3.8046V14.1667zM45.2917 35.9026v-9.3572h-3.9022v9.3572H37.585V10.5603c0-1.26712.7804-2.43676 1.4633-3.11906.4877-.48735 1.951-1.36458 3.3168-1.36458h2.1461c1.3658 0 2.4389.58482 3.1217 1.36458.878.77977 1.5609 1.85194 1.5609 3.31396v25.1474h-3.9021zm0-27.19424h-3.9022V24.0112h3.9022V8.70836z" fill="#fff"/><path d="M57.6808 3.24999C59.1441 6.27157 47.5353 15.2388 31.6341 23.2314 15.7329 31.3214 1.68529 35.3177.124436 32.2961-1.33886 29.2745 10.27 20.3073 26.1711 12.3147 42.0723 4.2247 56.2175.228416 57.6808 3.24999zM30.4635 9.97544C14.5623 18.0655 2.85592 26.9353 4.31922 30.0543c1.4633 3.0216 15.60848-.9747 31.41208-8.9673C51.73 13.0945 63.3389 4.12723 61.8756 1.00818c-1.4633-3.02158-15.511.9747-31.4121 8.96726z" fill="#DBDCDC"/><path d="M19.4402 28.9822V36h-3.8046v-5.5558c-.0975 0 3.0242-1.1696 3.8046-1.462zm-3.9021.5848V10.5603c0-1.26712.7804-2.43676 1.4633-3.11906.4877-.48735 1.951-1.36458 3.3168-1.36458h2.1462c1.3657 0 2.4388.58482 3.1217 1.36458.8779.77977 1.5608 1.85194 1.5608 3.31396v11.4041c0 1.3645-.7804 2.5342-1.4633 3.119-.4878.4874-1.8535 1.3646-3.3168 1.3646h-3.0241v1.657c-.5854.2924-3.8046 1.2671-3.8046 1.2671zm7.7067-20.85864h-3.9021V24.0112h3.9021V8.70836zM35.5366 9.00076c0 1.65704-1.3658 3.02154-3.0242 3.02154s-3.0241-1.3645-3.0241-3.02154c0-1.65699 1.3657-3.02157 3.0241-3.02157 1.6584 0 3.0242 1.36458 3.0242 3.02157z" fill="#fff"/></svg>