<?xml version="1.0" encoding="UTF-8"?>
<svg xmlns="http://www.w3.org/2000/svg" version="1.1" viewBox="0 0 475 240">
  <defs>
    <style>
      .cls-1 {
        fill: #fff;
      }

      .cls-2 {
        fill: #ccc;
      }
    </style>
  </defs>
  <!-- Generator: Adobe Illustrator 28.7.1, SVG Export Plug-In . SVG Version: 1.2.0 Build 142)  -->
  <g>
    <g id="_レイヤー_1" data-name="レイヤー_1">
      <g id="_レイヤー_1-2" data-name="_レイヤー_1">
        <rect class="cls-2" width="475" height="240"/>
        <g>
          <path class="cls-1" d="M200.5,170.9l-5.7-8.7v8.7h-1.9v-12.4h1.7l5.7,8.7v-8.7h1.9v12.4h-1.7Z"/>
          <path class="cls-1" d="M214.5,169.7c-.8.8-1.9,1.3-3.3,1.3s-2.4-.5-3.2-1.3c-1.2-1.2-1.2-2.6-1.2-5s0-3.8,1.2-5,1.9-1.3,3.2-1.3,2.4.5,3.3,1.3c1.2,1.2,1.2,2.6,1.2,5s0,3.8-1.2,5ZM213.1,160.9c-.4-.5-1.1-.8-1.9-.8s-1.4.3-1.9.8c-.6.7-.7,1.4-.7,3.8s.1,3.2.7,3.8c.4.5,1.1.8,1.9.8s1.4-.3,1.9-.8c.6-.7.7-1.4.7-3.8s-.1-3.2-.7-3.8Z"/>
          <path class="cls-1" d="M226.1,170.9v-12.4h1.9v12.4h-1.9Z"/>
          <path class="cls-1" d="M242.1,170.9v-8.3l-2.9,6.1h-1.4l-2.9-6.1v8.3h-1.9v-12.4h1.9l3.6,7.7,3.5-7.7h1.9v12.4h-1.8Z"/>
          <path class="cls-1" d="M256,170.9l-.8-2.5h-4.9l-.8,2.5h-2l4.6-12.4h1.5l4.6,12.4h-2ZM252.7,161.3l-1.9,5.5h3.8l-1.9-5.5h0Z"/>
          <path class="cls-1" d="M268.7,169.6c-1,1-2.1,1.4-3.4,1.4s-2.4-.5-3.2-1.3c-1.2-1.2-1.2-2.6-1.2-5s0-3.8,1.2-5,1.9-1.3,3.2-1.3c2.6,0,4.1,1.7,4.5,3.8h-1.9c-.3-1.4-1.2-2.2-2.6-2.2s-1.4.3-1.8.8c-.6.7-.7,1.4-.7,3.8s.1,3.2.7,3.8c.4.5,1.1.7,1.8.7s1.6-.3,2-.9c.5-.5.6-1.1.6-1.9v-.7h-2.5v-1.6h4.5v1.9c0,1.7-.3,2.7-1.1,3.6h0Z"/>
          <path class="cls-1" d="M274.3,170.9v-12.4h7.9v1.7h-6.1v3.6h5.2v1.7h-5.2v3.7h6.1v1.7h-7.9Z"/>
          <path class="cls-1" d="M199.9,146.6c-.4,0-.8-.1-1.1-.4-.6-.6-.6-1.6,0-2.1l72-72c.6-.6,1.6-.6,2.1,0,.6.6.6,1.6,0,2.1l-72,72c-.3.3-.7.4-1.1.4h0Z"/>
          <path class="cls-1" d="M207.1,138.6c-5.1,0-9.2-4.1-9.2-9.2v-39.1c0-5.1,4.1-9.2,9.2-9.2h55.3c.8,0,1.5.7,1.5,1.5s-.7,1.5-1.5,1.5h-55.3c-3.4,0-6.2,2.8-6.2,6.2v39.1c0,3.4,2.8,6.2,6.2,6.2s1.5.7,1.5,1.5-.7,1.5-1.5,1.5Z"/>
          <path class="cls-1" d="M269.7,138.5h-53.1c-.8,0-1.5-.7-1.5-1.5s.7-1.5,1.5-1.5h53.1c3.4,0,6.2-2.8,6.2-6.2v-39.1c0-3.4-2.8-6.2-6.2-6.2s-1.5-.7-1.5-1.5.7-1.5,1.5-1.5c5.1,0,9.2,4.1,9.2,9.2v39.1c0,5.1-4.1,9.2-9.2,9.2Z"/>
          <path class="cls-1" d="M258,83c-.5,0-.9-.2-1.2-.6l-6.1-8.2c-.8-1.3-2.5-2.5-4.4-2.5h-15.1c-1.9,0-3.5,1.3-4.3,2.5,0,0,0,.1-.1.2l-7.4,8.2c-.5.6-1.5.7-2.1.1-.6-.5-.7-1.5-.1-2.1l7.3-8.2c1.6-2.3,4.1-3.7,6.8-3.7h15.1c2.6,0,5.2,1.4,6.8,3.8l6.1,8.2c.5.7.4,1.6-.3,2.1-.2.2-.6.3-.9.3h0Z"/>
          <circle class="cls-1" cx="265.5" cy="94.2" r="3"/>
          <path class="cls-1" d="M238.6,128.9c-3.8,0-7.6-1.2-10.7-3.5-.7-.5-.8-1.4-.3-2.1.5-.7,1.4-.8,2.1-.3,2.7,2,6.1,3,9.4,2.9,8.5-.3,15.2-7.4,15-15.8-.1-2.8-1-5.5-2.5-7.9-.4-.7-.2-1.6.5-2.1.7-.4,1.6-.2,2.1.5,1.8,2.8,2.8,6.1,2.9,9.4.2,10.1-7.7,18.7-17.9,19h-.7Z"/>
          <path class="cls-1" d="M224.5,122c-.5,0-.9-.2-1.2-.6-2.3-3.2-3.6-7-3.6-11,0-10.1,8.3-18.4,18.4-18.4s7,1,9.9,2.9c.7.4.9,1.4.5,2.1s-1.4.9-2.1.5c-2.5-1.6-5.3-2.4-8.3-2.4-8.5,0-15.4,6.9-15.4,15.4s1,6.5,3,9.2c.5.7.4,1.6-.3,2.1-.2.2-.6.3-.9.3h0Z"/>
        </g>
      </g>
    </g>
  </g>
</svg>