<svg width="144" height="50" viewBox="0 0 144 50" fill="none" xmlns="http://www.w3.org/2000/svg">
<path d="M83.316 15.9757C83.2092 16.4373 83.1024 17.0054 83.0134 17.4493C82.8354 18.2482 82.6219 19.3489 82.4261 20.2544C81.8388 22.7577 80.415 27.8175 78.5462 30.8179L76.2147 29.8947C78.3326 27.0541 79.6675 22.3671 80.1658 20.1301C80.5039 18.5323 80.6997 17.0232 80.6819 15.6916L83.316 15.9757ZM89.4562 17.7511C90.5419 19.2957 92.0369 22.5979 92.5886 24.2845L90.3283 25.332C89.8655 23.3613 88.6019 20.2366 87.3205 18.6565L89.4562 17.7511ZM76.1079 19.6152C76.7486 19.6507 77.3537 19.633 78.0123 19.6152C79.4361 19.5797 82.8176 19.1891 84.1347 19.1891C86.0212 19.1891 87.3561 20.0236 87.3561 22.5979C87.3561 24.6928 87.0891 27.569 86.3416 29.0958C85.7543 30.3386 84.7576 30.7292 83.4228 30.7292C82.7287 30.7292 81.8922 30.6226 81.287 30.4806L80.8955 28.1371C81.5896 28.3324 82.6041 28.5099 83.0668 28.5099C83.6719 28.5099 84.1347 28.3324 84.4016 27.7465C84.9 26.7523 85.1313 24.5863 85.1313 22.8464C85.1313 21.4261 84.5262 21.2131 83.405 21.2131C82.3549 21.2131 79.2759 21.6037 78.297 21.728C77.7809 21.799 76.8554 21.9232 76.3215 22.012L76.1079 19.6152ZM89.1358 15.3011C89.5808 15.9402 90.2037 17.0764 90.5419 17.7333L89.118 18.337C88.7443 17.6091 88.1926 16.5616 87.712 15.8692L89.1358 15.3011ZM91.236 14.4844C91.6987 15.159 92.3572 16.2953 92.6776 16.9167L91.2538 17.5203C90.8978 16.7746 90.3105 15.7449 89.8299 15.0703L91.236 14.4844Z" fill="black"/>
<path d="M120.154 36.8571C119.976 37.0879 119.638 37.514 119.478 37.7626C118.641 39.1474 116.951 41.4021 115.189 42.6449L113.338 41.1713C114.779 40.3014 116.167 38.739 116.63 37.8691C115.545 37.8691 108.461 37.8691 107.34 37.8691C106.61 37.8691 106.005 37.9046 105.168 37.9934V35.5078C105.863 35.6143 106.61 35.7031 107.34 35.7031C108.461 35.7031 116.007 35.7031 116.933 35.7031C117.431 35.7031 118.41 35.6321 118.748 35.5433L120.154 36.8571ZM112.91 39.2361C112.91 43.6391 112.804 47.2609 107.963 49.8707L105.88 48.1841C106.468 47.9888 107.108 47.687 107.767 47.1899C110.009 45.6275 110.437 43.7634 110.437 40.8517C110.437 40.2836 110.419 39.822 110.33 39.2361H112.91Z" fill="black"/>
<path d="M89.8452 43.3777C92.1767 42.8628 94.8108 41.6733 96.2168 40.8211C97.961 39.7736 99.7407 38.1936 100.666 37.0396L102.428 38.7617C101.36 39.9157 99.2068 41.5845 97.2669 42.7208C95.6651 43.6617 92.9242 44.8513 90.8953 45.4549L89.8452 43.3777ZM96.021 42.2237L98.4415 41.7621V48.0647C98.4415 48.7038 98.4593 49.6448 98.5661 49.9999H95.9142C95.9676 49.6448 96.021 48.7038 96.021 48.0647V42.2237Z" fill="black"/>
<path d="M74.7406 35.0332C75.3101 35.1042 76.0576 35.1575 76.6449 35.1575C77.7662 35.1575 81.4325 35.1575 82.4826 35.1575C83.0877 35.1575 83.7818 35.1042 84.3869 35.0332V37.3235C83.7818 37.288 83.0877 37.2525 82.4826 37.2525C81.4325 37.2525 77.7662 37.2525 76.6627 37.2525C76.0398 37.2525 75.2923 37.288 74.7406 37.3235V35.0332ZM72.6938 39.5605C73.21 39.6315 73.8329 39.6847 74.3846 39.6847C75.5059 39.6847 84.9921 39.6847 86.0421 39.6847C86.4159 39.6847 87.199 39.6492 87.6795 39.5605V41.8862C87.2346 41.8507 86.5405 41.8329 86.0421 41.8329C84.9921 41.8329 75.5059 41.8329 74.3846 41.8329C73.8685 41.8329 73.1744 41.8507 72.6938 41.8862V39.5605ZM81.7885 40.8032C81.7885 43.129 81.3791 44.9044 80.6316 46.3957C80.0087 47.6207 78.6383 49.0055 77.0543 49.8044L74.9542 48.2954C76.2178 47.7982 77.4814 46.7863 78.1933 45.7388C79.0832 44.4073 79.3146 42.7206 79.3146 40.821L81.7885 40.8032ZM85.4548 33.8082C85.8997 34.4473 86.5405 35.5836 86.8608 36.2405L85.437 36.8441C85.0811 36.1162 84.5293 35.0687 84.0488 34.3763L85.4548 33.8082ZM87.5549 33.0093C88.0177 33.6662 88.6762 34.8024 88.9965 35.4238L87.5905 36.0274C87.2168 35.2818 86.6473 34.252 86.1489 33.5774L87.5549 33.0093Z" fill="black"/>
<path d="M68.6182 35.3703C68.369 35.7786 68.0309 36.5598 67.8707 36.9859C67.1944 38.7435 66.1087 41.087 64.6315 43.0045C62.9763 45.1349 60.7872 47.4252 57.3344 49.3248L55.3589 47.5139C58.5981 45.9693 60.8228 43.9987 62.7093 41.5486C64.1154 39.7022 64.9163 37.8736 65.5392 36.0982C65.6994 35.6366 65.8773 34.9087 65.9663 34.4648L68.6182 35.3703ZM58.8294 37.0924C60.5914 38.1932 63.0297 39.8798 64.5247 41.0515C66.4291 42.5251 68.2978 44.194 69.7394 45.7208L67.9063 47.7625C66.3579 45.9516 64.7917 44.4958 62.9051 42.9334C61.6237 41.8682 59.5414 40.2704 57.2988 38.9033L58.8294 37.0924Z" fill="black"/>
<path d="M39.7326 34.9091C40.2309 34.9623 40.8361 34.9978 41.3344 34.9978C42.2955 34.9978 46.0864 34.9091 47.1009 34.8203C47.8484 34.767 48.2577 34.696 48.4713 34.625L49.6103 36.2228C49.201 36.4892 48.7738 36.7377 48.3823 37.0395C47.4212 37.7142 45.5524 39.2765 44.4134 40.1642C45.0185 40.0044 45.5524 39.9689 46.1042 39.9689C49.1298 39.9689 51.4257 41.8508 51.4257 44.4251C51.4257 47.2302 49.29 49.4495 44.9829 49.4495C42.509 49.4495 40.6403 48.331 40.6403 46.5378C40.6403 45.0998 41.9573 43.786 43.8439 43.786C46.2822 43.786 47.6348 45.4193 47.6882 47.3723L45.6058 47.6386C45.5702 46.3603 44.8939 45.4726 43.8439 45.4726C43.1854 45.4726 42.7404 45.8809 42.7404 46.3425C42.7404 46.9994 43.4701 47.4433 44.5558 47.4433C47.5636 47.4433 49.0942 46.307 49.0942 44.4074C49.0942 42.7918 47.4924 41.7088 45.4101 41.7088C42.6692 41.7088 40.9072 43.1646 39.0029 45.3128L37.3833 43.644C38.6469 42.6497 40.8005 40.8389 41.8327 39.9689C42.8294 39.1522 44.6982 37.6609 45.5702 36.8797C44.6626 36.9152 42.2065 37.004 41.2454 37.075C40.7649 37.1105 40.2131 37.146 39.8038 37.2171L39.7326 34.9091Z" fill="#1B48AA"/>
<path d="M26.2237 34.4115C26.1169 34.8731 26.0101 35.4412 25.9033 35.8851C25.7432 36.684 25.5118 37.7847 25.3338 38.6902C24.7465 41.1935 23.3049 46.2533 21.4539 49.2537L19.1224 48.3305C21.2403 45.4899 22.5752 40.8029 23.0735 38.5659C23.4117 36.9681 23.6074 35.459 23.5896 34.1274L26.2237 34.4115ZM32.3639 36.0626C33.4496 37.6072 34.9446 40.9804 35.4963 42.6848L33.236 43.7323C32.7733 41.7438 31.5096 38.5482 30.2282 36.9681L32.3639 36.0626ZM19.0156 38.051C19.6563 38.0866 20.2615 38.0688 20.92 38.051C22.3438 38.0155 25.7076 37.625 27.0424 37.625C28.9112 37.625 30.246 38.4594 30.246 41.0337C30.246 43.1287 29.9968 46.0048 29.2493 47.5316C28.6442 48.7744 27.6653 49.165 26.3305 49.165C25.6364 49.165 24.7999 49.0584 24.177 48.9164L23.8032 46.5729C24.4973 46.7682 25.5118 46.9457 25.9745 46.9457C26.5797 46.9457 27.0246 46.7682 27.3094 46.1823C27.8077 45.1881 28.0391 43.0221 28.0391 41.2822C28.0391 39.8619 27.4161 39.6489 26.3127 39.6489C25.2448 39.6489 22.1836 40.0395 21.2047 40.1638C20.6886 40.2348 19.7631 40.359 19.2292 40.4478L19.0156 38.051Z" fill="#1B48AA"/>
<path d="M9.3161 46.7686C12.4307 46.2892 14.6732 45.0287 14.6732 42.2591C14.6732 40.8743 13.552 39.596 11.7722 39.596C9.49407 39.596 7.58972 40.8921 5.84554 42.7207L5.86334 40.2174C7.98127 38.2112 10.2416 37.5188 12.1459 37.5188C14.869 37.5188 17.0403 39.454 17.0403 42.2946C17.0403 45.8986 14.78 48.0291 10.3662 48.899L9.3161 46.7686ZM5.27602 39.0457C4.47512 39.1344 2.78434 39.3652 1.60969 39.525L1.37832 37.2348C1.87665 37.2525 2.286 37.2525 2.92672 37.217C4.04797 37.1637 6.32608 36.8264 7.12698 36.5601L7.83889 37.4833C7.53632 37.8917 6.9846 38.7616 6.68203 39.2232L5.64977 42.5609C4.86667 43.6972 3.28267 46.0762 2.33939 47.3722L0.951172 45.4193C2.07243 44.0345 4.20815 41.2116 5.09804 39.8268L5.13363 39.3652L5.27602 39.0457ZM5.06244 35.6192C5.06244 35.122 5.08024 34.5894 4.97345 34.0391L7.57192 34.1101C7.26936 35.5304 6.68203 40.1819 6.68203 43.3598C6.68203 44.7979 6.68203 46.307 6.78882 47.9581C6.80662 48.2777 6.87781 48.9346 6.91341 49.3251H4.47512C4.51071 48.9523 4.52851 48.2954 4.52851 48.0114C4.54631 46.2892 4.56411 45.0997 4.6175 42.8805C4.67089 41.3004 5.06244 36.3293 5.06244 35.6192Z" fill="#1B48AA"/>
<path d="M0 27.8999L3.06091 24.2724C5.40177 26.2838 8.06638 27.5053 11.1985 27.5053C13.8631 27.5053 15.2313 26.2838 15.2313 24.7394C15.2313 22.9792 13.7912 22.4405 10.0102 21.5781C4.78917 20.3928 1.08008 18.9201 1.08008 14.1427C1.08008 9.36535 4.82476 6.45605 10.2265 6.45605C14.2594 6.45605 17.3921 7.71304 19.913 9.86856L17.1403 13.6757C14.9438 11.9155 12.4592 10.946 10.0828 10.946C7.70635 10.946 6.44626 12.1313 6.44626 13.604C6.44626 15.3997 7.92265 15.9746 11.7392 16.837C17.0684 18.0223 20.5975 19.6029 20.5975 24.1645C20.5975 28.7261 17.0328 31.9952 10.9836 31.9952C6.69884 31.9952 2.8816 30.5587 0.00139545 27.9006L0 27.8999Z" fill="#3B3C3D"/>
<path d="M29.7428 11.6641V16.5848H42.1657V21.3622H29.7428V26.7862H43.4621V31.5635H24.4136V6.88672H43.4621V11.6641H29.7428Z" fill="#3B3C3D"/>
<path d="M46.5229 19.2075C46.5229 12.2753 52.5722 6.45605 59.666 6.45605C66.7597 6.45605 72.809 12.2753 72.809 19.2075C72.809 26.1398 66.8316 31.9952 59.666 31.9952C52.5003 31.9952 46.5229 26.1404 46.5229 19.2075ZM67.3716 19.2075C67.3716 14.9334 63.8425 11.2696 59.666 11.2696C55.4894 11.2696 51.9959 14.9334 51.9959 19.2075C51.9959 23.4817 55.525 27.1817 59.666 27.1817C63.8069 27.1817 67.3716 23.5179 67.3716 19.2075Z" fill="#3B3C3D"/>
<path d="M127.167 19.8276L143.039 35.6609C144.331 36.9498 144.325 39.0544 142.992 40.3003C142.374 40.8773 141.584 41.1648 140.796 41.1648C140.008 41.1648 139.151 40.8519 138.521 40.226L122.62 24.3634L127.167 19.8276Z" fill="#465A65"/>
<path d="M137.015 38.7258L138.519 40.2259C139.146 40.8518 139.97 41.1648 140.794 41.1648C141.617 41.1648 142.372 40.8753 142.99 40.3003C144.323 39.0543 144.329 36.9498 143.037 35.6608L141.562 34.1899L137.015 38.7258Z" fill="#33444D"/>
<path d="M118.292 31.0249C126.88 31.0249 133.843 24.0798 133.843 15.5125C133.843 6.94517 126.88 0 118.292 0C109.704 0 102.741 6.94517 102.741 15.5125C102.741 24.0798 109.704 31.0249 118.292 31.0249Z" fill="#33444D"/>
<path d="M118.292 26.9978C124.651 26.9978 129.805 21.8557 129.805 15.5126C129.805 9.16945 124.651 4.02734 118.292 4.02734C111.933 4.02734 106.778 9.16945 106.778 15.5126C106.778 21.8557 111.933 26.9978 118.292 26.9978Z" fill="#BBECFF"/>
</svg>
