<svg width="200" height="150" fill="none" xmlns="http://www.w3.org/2000/svg"><path fill-rule="evenodd" clip-rule="evenodd" d="m11.12 84.994 85.85-50.67.33-.17.35-.15.37-.12.4-.09.41-.07.42-.05.44-.02.44.01.44.03.44.05.44.08.43.11.42.12.4.15.39.18.37.2 84.99 50.16.63.44.47.49.31.51.14.53-.03.51-.19.49-.37.46-.53.4-85.85 50.67-.33.17-.35.15-.37.12-.4.09-.41.07-.42.05-.44.02-.44-.01-.44-.03-.44-.05-.44-.08-.43-.1-.42-.13-.4-.15-.39-.18-.37-.2-84.98-50.16-.64-.44-.47-.49-.31-.51-.14-.52.03-.52.19-.49.37-.46.53-.4Z" fill="#E5E8E5"/><path fill-rule="evenodd" clip-rule="evenodd" d="M185.66 84.834v-3.97l-.18.47-.35.43-.51.38-81.73 48.24-.32.16-.33.14-.36.12-.38.09-.39.07-.4.04-.41.02-.42-.01-.42-.03-.42-.05-.42-.07-.41-.1-.4-.12-.38-.15-.38-.16-.35-.19-80.9-47.76-.61-.42-.45-.47-.29-.48-.13-.5v3.97l.13.49.29.49.45.47.61.42 80.9 47.76.35.19.38.16.38.15.4.12.41.1.42.07.42.05.42.03.42.01.41-.02.4-.05.39-.06.38-.09.36-.12.33-.14.32-.16 81.73-48.24.51-.38.35-.44.18-.46Z" fill="#C9E3F6"/><path fill-rule="evenodd" clip-rule="evenodd" d="m15.38 78.744 81.73-48.25.32-.16.33-.14.36-.11.37-.09.4-.07.4-.04.41-.02h.42l.42.03.42.05.42.08.41.1.4.12.38.14.37.17.36.19 80.9 47.75.61.43.45.46.29.49.13.5-.02.49-.18.47-.35.43-.51.38-81.73 48.24-.32.16-.33.14-.36.12-.38.09-.39.07-.4.04-.41.02-.42-.01-.42-.03-.42-.05-.42-.07-.41-.1-.4-.12-.38-.15-.38-.16-.35-.19-80.9-47.76-.61-.42-.45-.47-.29-.48-.13-.5.02-.49.18-.47.35-.43.51-.38Z" fill="#E3F3FC"/><path fill-rule="evenodd" clip-rule="evenodd" d="m19.34 80.734-.02-.01-.02-.02h-.01l-.01-.02h-.01l-.01-.03-.02-.02v-.02h-.01v-.04h-.01v-.04c0-.02 0-.05-.01-.07v-.03s0-.05.01-.07v-.04l.01-.03V80.234h.01l.02-.03.01-.01h.02l.34-.22a.344.344 0 0 1 .47.47l.13.08c.16.1.22.31.12.47-.1.16-.31.22-.47.12l-.59-.35.05-.03Zm2.46-1.24c-.16.1-.37.04-.47-.12-.1-.16-.04-.37.12-.47l.59-.35c.16-.1.37-.04.47.12.1.16.04.37-.12.47l-.59.35Zm2.36-1.4c-.16.1-.37.04-.47-.12-.1-.16-.04-.37.12-.47l.59-.35c.16-.1.37-.04.47.12.1.16.04.37-.12.47l-.59.35Zm2.36-1.39c-.16.1-.37.04-.47-.12-.1-.16-.04-.37.12-.47l.59-.35c.16-.1.37-.04.47.12.1.16.04.37-.12.47l-.59.35Zm2.36-1.4c-.16.1-.37.04-.47-.12-.1-.16-.04-.37.12-.47l.59-.35c.16-.1.37-.04.47.12.1.16.04.37-.12.47l-.59.35Zm2.36-1.39c-.16.1-.37.04-.47-.12-.1-.16-.04-.37.12-.47l.59-.35c.16-.1.37-.04.47.12.1.16.04.37-.12.47l-.59.35Zm2.36-1.39c-.16.1-.37.04-.47-.12-.1-.16-.04-.37.12-.47l.59-.35c.16-.1.37-.04.47.12.1.16.04.37-.12.47l-.59.35Zm2.36-1.4c-.16.1-.37.04-.47-.12-.1-.16-.04-.37.12-.47l.59-.35c.16-.1.37-.04.47.12.1.16.04.37-.12.47l-.59.35Zm2.36-1.39c-.16.1-.37.04-.47-.12-.1-.16-.04-.37.12-.47l.59-.35c.16-.1.37-.04.47.12.1.16.04.37-.12.47l-.59.35Zm2.36-1.39c-.16.1-.37.04-.47-.12-.1-.16-.04-.37.12-.47l.59-.35c.16-.1.37-.04.47.12.1.16.04.37-.12.47l-.59.35Zm2.36-1.4c-.16.1-.37.04-.47-.12-.1-.16-.04-.37.12-.47l.59-.35c.16-.1.37-.04.47.12.1.16.04.37-.12.47l-.59.35Zm2.36-1.39c-.16.1-.37.04-.47-.12-.1-.16-.04-.37.12-.47l.59-.35c.16-.1.37-.04.47.12.1.16.04.37-.12.47l-.59.35Zm2.36-1.39c-.16.1-.37.04-.47-.12-.1-.16-.04-.37.12-.47l.59-.35c.16-.1.37-.04.47.12.1.16.04.37-.12.47l-.59.35Zm2.36-1.4c-.16.1-.37.04-.47-.12-.1-.16-.04-.37.12-.47l.59-.35c.16-.1.37-.04.47.12.1.16.04.37-.12.47l-.59.35Zm2.37-1.39c-.16.1-.37.04-.47-.12-.1-.16-.04-.37.12-.47l.59-.35c.16-.1.37-.04.47.12.1.16.04.37-.12.47l-.59.35Zm2.36-1.39c-.16.1-.37.04-.47-.12-.1-.16-.04-.37.12-.47l.59-.35c.16-.1.37-.04.47.12.1.16.04.37-.12.47l-.59.35Zm2.36-1.4c-.16.1-.37.04-.47-.12-.1-.16-.04-.37.12-.47l.59-.35c.16-.1.37-.04.47.12.1.16.04.37-.12.47l-.59.35Zm2.36-1.39c-.16.1-.37.04-.47-.12-.1-.16-.04-.37.12-.47l.59-.35c.16-.1.37-.04.47.12.1.16.04.37-.12.47l-.59.35Zm2.36-1.39c-.16.1-.37.04-.47-.12-.1-.16-.04-.37.12-.47l.59-.35c.16-.1.37-.04.47.12.1.16.04.37-.12.47l-.59.35Zm2.36-1.4c-.16.1-.37.04-.47-.12-.1-.16-.04-.37.12-.47l.59-.35c.16-.1.37-.04.47.12.1.16.04.37-.12.47l-.59.35Zm2.36-1.39c-.16.1-.37.04-.47-.12-.1-.16-.04-.37.12-.47l.59-.35c.16-.1.37-.04.47.12.1.16.04.37-.12.47l-.59.35Zm2.36-1.39c-.16.1-.37.04-.47-.12-.1-.16-.04-.37.12-.47l.59-.35c.16-.1.37-.04.47.12.1.16.04.37-.12.47l-.59.35Zm2.36-1.4c-.16.1-.37.04-.47-.12-.1-.16-.04-.37.12-.47l.59-.35c.16-.1.37-.04.47.12.1.16.04.37-.12.47l-.59.35Zm2.36-1.39c-.16.1-.37.04-.47-.12-.1-.16-.04-.37.12-.47l.59-.35c.16-.1.37-.04.47.12.1.16.04.37-.12.47l-.59.35Zm2.36-1.39c-.16.1-.37.04-.47-.12-.1-.16-.04-.37.12-.47l.59-.35c.16-.1.37-.04.47.12.1.16.04.37-.12.47l-.59.35Zm2.36-1.4c-.16.1-.37.04-.47-.12-.1-.16-.04-.37.12-.47l.59-.35c.16-.1.37-.04.47.12.1.16.04.37-.12.47l-.59.35Zm2.36-1.39c-.16.1-.37.04-.47-.12-.1-.16-.04-.37.12-.47l.59-.35c.16-.1.37-.04.47.12.1.16.04.37-.12.47l-.59.35Zm2.36-1.39c-.16.1-.37.04-.47-.12-.1-.16-.04-.37.12-.47l.59-.35c.16-.1.37-.04.47.12.1.16.04.37-.12.47l-.59.35Zm2.36-1.39c-.16.1-.37.04-.47-.12-.1-.16-.04-.37.12-.47l.59-.35c.16-.1.37-.04.47.12.1.16.04.37-.12.47l-.59.35Zm2.36-1.4c-.16.1-.37.04-.47-.12-.1-.16-.04-.37.12-.47l.59-.35c.16-.1.37-.04.47.12.1.16.04.37-.12.47l-.59.35Zm2.36-1.39c-.16.1-.37.04-.47-.12-.1-.16-.04-.37.12-.47l.59-.35c.16-.1.37-.04.47.12.1.16.04.37-.12.47l-.59.35Zm2.36-1.39c-.16.1-.37.04-.47-.12-.1-.16-.04-.37.12-.47l.59-.35c.16-.1.37-.04.47.12.1.16.04.37-.12.47l-.59.35Zm2.36-1.4c-.16.1-.37.04-.47-.12-.1-.16-.04-.37.12-.47l.59-.35c.16-.1.37-.04.47.12.1.16.04.37-.12.47l-.59.35Zm2.36-1.39c-.16.1-.37.04-.47-.12-.1-.16-.04-.37.12-.47l.59-.35c.16-.1.37-.04.47.12.1.16.04.37-.12.47l-.59.35Zm2.29-1.13c-.19 0-.35-.14-.36-.33 0-.19.14-.35.33-.36H100l.22.02h.02l.08.01c.19.02.32.19.3.38a.34.34 0 0 1-.38.3h-.07l-.2-.02h-.35Zm.61-.67-.04.68.05-.68h-.01Zm1.77 1.41a.344.344 0 0 1-.12-.47c.1-.16.31-.22.47-.12l.59.35c.16.1.22.31.12.47-.1.16-.31.22-.47.12l-.59-.35Zm2.36 1.39a.344.344 0 0 1-.12-.47c.1-.16.31-.22.47-.12l.59.35c.16.1.22.31.12.47-.1.16-.31.22-.47.12l-.59-.35Zm2.36 1.39a.344.344 0 0 1-.12-.47c.1-.16.31-.22.47-.12l.59.35c.16.1.22.31.12.47-.1.16-.31.22-.47.12l-.59-.35Zm2.36 1.4a.344.344 0 0 1-.12-.47c.1-.16.31-.22.47-.12l.59.35c.16.1.22.31.12.47-.1.16-.31.22-.47.12l-.59-.35Zm2.36 1.39a.344.344 0 0 1-.12-.47c.1-.16.31-.22.47-.12l.59.35c.16.1.22.31.12.47-.1.16-.31.22-.47.12l-.59-.35Zm2.36 1.4a.344.344 0 0 1-.12-.47c.1-.16.31-.22.47-.12l.59.35c.16.1.22.31.12.47-.1.16-.31.22-.47.12l-.59-.35Zm2.36 1.39a.344.344 0 0 1-.12-.47c.1-.16.31-.22.47-.12l.59.35c.16.1.22.31.12.47-.1.16-.31.22-.47.12l-.59-.35Zm2.36 1.39a.344.344 0 0 1-.12-.47c.1-.16.31-.22.47-.12l.59.35c.16.1.22.31.12.47-.1.16-.31.22-.47.12l-.59-.35Zm2.36 1.4a.344.344 0 0 1-.12-.47c.1-.16.31-.22.47-.12l.59.35c.16.1.22.31.12.47-.1.16-.31.22-.47.12l-.59-.35Zm2.36 1.39a.344.344 0 0 1-.12-.47c.1-.16.31-.22.47-.12l.59.35c.16.1.22.31.12.47-.1.16-.31.22-.47.12l-.59-.35Zm2.37 1.39a.344.344 0 0 1-.12-.47c.1-.16.31-.22.47-.12l.59.35c.16.1.22.31.12.47-.1.16-.31.22-.47.12l-.59-.35Zm2.36 1.4a.344.344 0 0 1-.12-.47c.1-.16.31-.22.47-.12l.59.35c.16.1.22.31.12.47-.1.16-.31.22-.47.12l-.59-.35Zm2.36 1.39a.344.344 0 0 1-.12-.47c.1-.16.31-.22.47-.12l.59.35c.16.1.22.31.12.47-.1.16-.31.22-.47.12l-.59-.35Zm2.36 1.39a.344.344 0 0 1-.12-.47c.1-.16.31-.22.47-.12l.59.35c.16.1.22.31.12.47-.1.16-.31.22-.47.12l-.59-.35Zm2.36 1.4a.344.344 0 0 1-.12-.47c.1-.16.31-.22.47-.12l.59.35c.16.1.22.31.12.47-.1.16-.31.22-.47.12l-.59-.35Zm2.36 1.39a.344.344 0 0 1-.12-.47c.1-.16.31-.22.47-.12l.59.35c.16.1.22.31.12.47-.1.16-.31.22-.47.12l-.59-.35Zm2.36 1.39a.344.344 0 0 1-.12-.47c.1-.16.31-.22.47-.12l.59.35c.16.1.22.31.12.47-.1.16-.31.22-.47.12l-.59-.35Zm2.36 1.4a.344.344 0 0 1-.12-.47c.1-.16.31-.22.47-.12l.59.35c.16.1.22.31.12.47-.1.16-.31.22-.47.12l-.59-.35Zm2.36 1.39a.344.344 0 0 1-.12-.47c.1-.16.31-.22.47-.12l.59.35c.16.1.22.31.12.47-.1.16-.31.22-.47.12l-.59-.35Zm2.36 1.39a.344.344 0 0 1-.12-.47c.1-.16.31-.22.47-.12l.59.35c.16.1.22.31.12.47-.1.16-.31.22-.47.12l-.59-.35Zm2.36 1.4a.344.344 0 0 1-.12-.47c.1-.16.31-.22.47-.12l.59.35c.16.1.22.31.12.47-.1.16-.31.22-.47.12l-.59-.35Zm2.36 1.39a.344.344 0 0 1-.12-.47c.1-.16.31-.22.47-.12l.59.35c.16.1.22.31.12.47-.1.16-.31.22-.47.12l-.59-.35Zm2.36 1.39a.344.344 0 0 1-.12-.47c.1-.16.31-.22.47-.12l.59.35c.16.1.22.31.12.47-.1.16-.31.22-.47.12l-.59-.35Zm2.36 1.4a.344.344 0 0 1-.12-.47c.1-.16.31-.22.47-.12l.59.35c.16.1.22.31.12.47-.1.16-.31.22-.47.12l-.59-.35Zm2.36 1.39a.344.344 0 0 1-.12-.47c.1-.16.31-.22.47-.12l.59.35c.16.1.22.31.12.47-.1.16-.31.22-.47.12l-.59-.35Zm2.36 1.39a.344.344 0 0 1-.12-.47c.1-.16.31-.22.47-.12l.59.35c.16.1.22.31.12.47-.1.16-.31.22-.47.12l-.59-.35Zm2.36 1.39a.344.344 0 0 1-.12-.47c.1-.16.31-.22.47-.12l.59.35c.16.1.22.31.12.47-.1.16-.31.22-.47.12l-.59-.35Zm2.36 1.4a.344.344 0 0 1-.12-.47c.1-.16.31-.22.47-.12l.59.35c.16.1.22.31.12.47-.1.16-.31.22-.47.12l-.59-.35Zm2.36 1.39a.344.344 0 0 1-.12-.47c.1-.16.31-.22.47-.12l.59.35c.16.1.22.31.12.47-.1.16-.31.22-.47.12l-.59-.35Zm2.36 1.39a.344.344 0 0 1-.12-.47c.1-.16.31-.22.47-.12l.59.35c.16.1.22.31.12.47-.1.16-.31.22-.47.12l-.59-.35Zm2.36 1.4a.344.344 0 0 1-.12-.47c.1-.16.31-.22.47-.12l.59.35c.16.1.22.31.12.47-.1.16-.31.22-.47.12l-.59-.35Zm2.36 1.39a.344.344 0 0 1-.12-.47c.1-.16.31-.22.47-.12l.59.35c.16.1.22.31.12.47-.1.16-.31.22-.47.12l-.59-.35Zm2.36 1.39a.344.344 0 0 1-.12-.47c.1-.16.31-.22.47-.12l.59.35c.16.1.22.31.12.47-.1.16-.31.22-.47.12l-.59-.35Zm2.37 1.4a.344.344 0 0 1-.12-.47c.1-.16.31-.22.47-.12l.42.25s.09.07.12.12c.1.16.04.37-.12.47l-.17.1c-.16.1-.37.04-.47-.12a.407.407 0 0 1-.05-.18l-.08-.05Zm-1.53.8c.16-.1.37-.04.47.12.1.16.04.37-.12.47l-.59.35c-.16.1-.37.04-.47-.12-.1-.16-.04-.37.12-.47l.59-.35Zm-2.36 1.39c.16-.1.37-.04.47.12.1.16.04.37-.12.47l-.59.35c-.16.1-.37.04-.47-.12-.1-.16-.04-.37.12-.47l.59-.35Zm-2.36 1.4c.16-.1.37-.04.47.12.1.16.04.37-.12.47l-.59.35c-.16.1-.37.04-.47-.12-.1-.16-.04-.37.12-.47l.59-.35Zm-2.36 1.39c.16-.1.37-.04.47.12.1.16.04.37-.12.47l-.59.35c-.16.1-.37.04-.47-.12-.1-.16-.04-.37.12-.47l.59-.35Zm-2.36 1.39c.16-.1.37-.04.47.12.1.16.04.37-.12.47l-.59.35c-.16.1-.37.04-.47-.12-.1-.16-.04-.37.12-.47l.59-.35Zm-2.36 1.4c.16-.1.37-.04.47.12.1.16.04.37-.12.47l-.59.35c-.16.1-.37.04-.47-.12-.1-.16-.04-.37.12-.47l.59-.35Zm-2.36 1.39c.16-.1.37-.04.47.12.1.16.04.37-.12.47l-.59.35c-.16.1-.37.04-.47-.12-.1-.16-.04-.37.12-.47l.59-.35Zm-2.36 1.4c.16-.1.37-.04.47.12.1.16.04.37-.12.47l-.59.35c-.16.1-.37.04-.47-.12-.1-.16-.04-.37.12-.47l.59-.35Zm-2.36 1.39c.16-.1.37-.04.47.12.1.16.04.37-.12.47l-.59.35c-.16.1-.37.04-.47-.12-.1-.16-.04-.37.12-.47l.59-.35Zm-2.36 1.39c.16-.1.37-.04.47.12.1.16.04.37-.12.47l-.59.35c-.16.1-.37.04-.47-.12-.1-.16-.04-.37.12-.47l.59-.35Zm-2.36 1.4c.16-.1.37-.04.47.12.1.16.04.37-.12.47l-.59.35c-.16.1-.37.04-.47-.12-.1-.16-.04-.37.12-.47l.59-.35Zm-2.37 1.39c.16-.1.37-.04.47.12.1.16.04.37-.12.47l-.59.35c-.16.1-.37.04-.47-.12-.1-.16-.04-.37.12-.47l.59-.35Zm-2.36 1.39c.16-.1.37-.04.47.12.1.16.04.37-.12.47l-.59.35c-.16.1-.37.04-.47-.12-.1-.16-.04-.37.12-.47l.59-.35Zm-2.36 1.4c.16-.1.37-.04.47.12.1.16.04.37-.12.47l-.59.35c-.16.1-.37.04-.47-.12-.1-.16-.04-.37.12-.47l.59-.35Zm-2.36 1.39c.16-.1.37-.04.47.12.1.16.04.37-.12.47l-.59.35c-.16.1-.37.04-.47-.12-.1-.16-.04-.37.12-.47l.59-.35Zm-2.36 1.39c.16-.1.37-.04.47.12.1.16.04.37-.12.47l-.59.35c-.16.1-.37.04-.47-.12-.1-.16-.04-.37.12-.47l.59-.35Zm-2.36 1.4c.16-.1.37-.04.47.12.1.16.04.37-.12.47l-.59.35c-.16.1-.37.04-.47-.12-.1-.16-.04-.37.12-.47l.59-.35Zm-2.36 1.39c.16-.1.37-.04.47.12.1.16.04.37-.12.47l-.59.35c-.16.1-.37.04-.47-.12-.1-.16-.04-.37.12-.47l.59-.35Zm-2.36 1.39c.16-.1.37-.04.47.12.1.16.04.37-.12.47l-.59.35c-.16.1-.37.04-.47-.12-.1-.16-.04-.37.12-.47l.59-.35Zm-2.36 1.39c.16-.1.37-.04.47.12.1.16.04.37-.12.47l-.59.35c-.16.1-.37.04-.47-.12-.1-.16-.04-.37.12-.47l.59-.35Zm-2.36 1.4c.16-.1.37-.04.47.12.1.16.04.37-.12.47l-.59.35c-.16.1-.37.04-.47-.12-.1-.16-.04-.37.12-.47l.59-.35Zm-2.36 1.39c.16-.1.37-.04.47.12.1.16.04.37-.12.47l-.59.35c-.16.1-.37.04-.47-.12-.1-.16-.04-.37.12-.47l.59-.35Zm-2.36 1.39c.16-.1.37-.04.47.12.1.16.04.37-.12.47l-.59.35c-.16.1-.37.04-.47-.12-.1-.16-.04-.37.12-.47l.59-.35Zm-2.36 1.4c.16-.1.37-.04.47.12.1.16.04.37-.12.47l-.59.35c-.16.1-.37.04-.47-.12-.1-.16-.04-.37.12-.47l.59-.35Zm-2.36 1.39c.16-.1.37-.04.47.12.1.16.04.37-.12.47l-.59.35c-.16.1-.37.04-.47-.12-.1-.16-.04-.37.12-.47l.59-.35Zm-2.36 1.39c.16-.1.37-.04.47.12.1.16.04.37-.12.47l-.59.35c-.16.1-.37.04-.47-.12-.1-.16-.04-.37.12-.47l.59-.35Zm-2.36 1.4c.16-.1.37-.04.47.12.1.16.04.37-.12.47l-.59.35c-.16.1-.37.04-.47-.12-.1-.16-.04-.37.12-.47l.59-.35Zm-2.36 1.39c.16-.1.37-.04.47.12.1.16.04.37-.12.47l-.59.35c-.16.1-.37.04-.47-.12-.1-.16-.04-.37.12-.47l.59-.35Zm-2.36 1.39c.16-.1.37-.04.47.12.1.16.04.37-.12.47l-.59.35c-.16.1-.37.04-.47-.12-.1-.16-.04-.37.12-.47l.59-.35Zm-2.36 1.4c.16-.1.37-.04.47.12.1.16.04.37-.12.47l-.59.35c-.16.1-.37.04-.47-.12-.1-.16-.04-.37.12-.47l.59-.35Zm-2.36 1.39c.16-.1.37-.04.47.12.1.16.04.37-.12.47l-.59.35c-.16.1-.37.04-.47-.12-.1-.16-.04-.37.12-.47l.59-.35Zm-2.36 1.39c.16-.1.37-.04.47.12.1.16.04.37-.12.47l-.59.35c-.16.1-.37.04-.47-.12-.1-.16-.04-.37.12-.47l.59-.35Zm-2.36 1.39c.16-.1.37-.04.47.12.1.16.04.37-.12.47l-.59.35c-.16.1-.37.04-.47-.12-.1-.16-.04-.37.12-.47l.59-.35Zm-2.28 1.22a.347.347 0 0 1 .08.69l-.15.02H100.28v.01h-.37a.353.353 0 0 1-.32-.37c.01-.19.18-.33.36-.32H100.43l.15-.02-.02-.01Zm-2.39-.62c.16.1.22.31.12.47-.1.16-.31.22-.47.12l-.59-.35a.344.344 0 0 1-.12-.47c.1-.16.31-.22.47-.12l.59.35Zm-2.36-1.39c.16.1.22.31.12.47-.1.16-.31.22-.47.12l-.59-.35a.344.344 0 0 1-.12-.47c.1-.16.31-.22.47-.12l.59.35Zm-2.36-1.4c.16.1.22.31.12.47-.1.16-.31.22-.47.12l-.59-.35a.344.344 0 0 1-.12-.47c.1-.16.31-.22.47-.12l.59.35Zm-2.36-1.39c.16.1.22.31.12.47-.1.16-.31.22-.47.12l-.59-.35a.344.344 0 0 1-.12-.47c.1-.16.31-.22.47-.12l.59.35Zm-2.36-1.4c.16.1.22.31.12.47-.1.16-.31.22-.47.12l-.59-.35a.344.344 0 0 1-.12-.47c.1-.16.31-.22.47-.12l.59.35Zm-2.36-1.39c.16.1.22.31.12.47-.1.16-.31.22-.47.12l-.59-.35a.344.344 0 0 1-.12-.47c.1-.16.31-.22.47-.12l.59.35Zm-2.36-1.39c.16.1.22.31.12.47-.1.16-.31.22-.47.12l-.59-.35a.344.344 0 0 1-.12-.47c.1-.16.31-.22.47-.12l.59.35Zm-2.36-1.4c.16.1.22.31.12.47-.1.16-.31.22-.47.12l-.59-.35a.344.344 0 0 1-.12-.47c.1-.16.31-.22.47-.12l.59.35Zm-2.36-1.39c.16.1.22.31.12.47-.1.16-.31.22-.47.12l-.59-.35a.344.344 0 0 1-.12-.47c.1-.16.31-.22.47-.12l.59.35Zm-2.37-1.4c.16.1.22.31.12.47-.1.16-.31.22-.47.12l-.59-.35a.344.344 0 0 1-.12-.47c.1-.16.31-.22.47-.12l.59.35Zm-2.36-1.39c.16.1.22.31.12.47-.1.16-.31.22-.47.12l-.59-.35a.344.344 0 0 1-.12-.47c.1-.16.31-.22.47-.12l.59.35Zm-2.36-1.39c.16.1.22.31.12.47-.1.16-.31.22-.47.12l-.59-.35a.344.344 0 0 1-.12-.47c.1-.16.31-.22.47-.12l.59.35Zm-2.36-1.39c.16.1.22.31.12.47-.1.16-.31.22-.47.12l-.59-.35a.344.344 0 0 1-.12-.47c.1-.16.31-.22.47-.12l.59.35Zm-2.36-1.4c.16.1.22.31.12.47-.1.16-.31.22-.47.12l-.59-.35a.344.344 0 0 1-.12-.47c.1-.16.31-.22.47-.12l.59.35Zm-2.36-1.39c.16.1.22.31.12.47-.1.16-.31.22-.47.12l-.59-.35a.344.344 0 0 1-.12-.47c.1-.16.31-.22.47-.12l.59.35Zm-2.36-1.39c.16.1.22.31.12.47-.1.16-.31.22-.47.12l-.59-.35a.344.344 0 0 1-.12-.47c.1-.16.31-.22.47-.12l.59.35Zm-2.36-1.4c.16.1.22.31.12.47-.1.16-.31.22-.47.12l-.59-.35a.344.344 0 0 1-.12-.47c.1-.16.31-.22.47-.12l.59.35Zm-2.36-1.39c.16.1.22.31.12.47-.1.16-.31.22-.47.12l-.59-.35a.344.344 0 0 1-.12-.47c.1-.16.31-.22.47-.12l.59.35Zm-2.36-1.39c.16.1.22.31.12.47-.1.16-.31.22-.47.12l-.59-.35a.344.344 0 0 1-.12-.47c.1-.16.31-.22.47-.12l.59.35Zm-2.36-1.4c.16.1.22.31.12.47-.1.16-.31.22-.47.12l-.59-.35a.344.344 0 0 1-.12-.47c.1-.16.31-.22.47-.12l.59.35Zm-2.36-1.39c.16.1.22.31.12.47-.1.16-.31.22-.47.12l-.59-.35a.344.344 0 0 1-.12-.47c.1-.16.31-.22.47-.12l.59.35Zm-2.36-1.39c.16.1.22.31.12.47-.1.16-.31.22-.47.12l-.59-.35a.344.344 0 0 1-.12-.47c.1-.16.31-.22.47-.12l.59.35Zm-2.36-1.4c.16.1.22.31.12.47-.1.16-.31.22-.47.12l-.59-.35a.344.344 0 0 1-.12-.47c.1-.16.31-.22.47-.12l.59.35Zm-2.36-1.39c.16.1.22.31.12.47-.1.16-.31.22-.47.12l-.59-.35a.344.344 0 0 1-.12-.47c.1-.16.31-.22.47-.12l.59.35Zm-2.36-1.39c.16.1.22.31.12.47-.1.16-.31.22-.47.12l-.59-.35a.344.344 0 0 1-.12-.47c.1-.16.31-.22.47-.12l.59.35Zm-2.36-1.4c.16.1.22.31.12.47-.1.16-.31.22-.47.12l-.59-.35a.344.344 0 0 1-.12-.47c.1-.16.31-.22.47-.12l.59.35Zm-2.36-1.39c.16.1.22.31.12.47-.1.16-.31.22-.47.12l-.59-.35a.344.344 0 0 1-.12-.47c.1-.16.31-.22.47-.12l.59.35Zm-2.36-1.39c.16.1.22.31.12.47-.1.16-.31.22-.47.12l-.59-.35a.344.344 0 0 1-.12-.47c.1-.16.31-.22.47-.12l.59.35Zm-2.36-1.4c.16.1.22.31.12.47-.1.16-.31.22-.47.12l-.59-.35a.344.344 0 0 1-.12-.47c.1-.16.31-.22.47-.12l.59.35Zm-2.36-1.39c.16.1.22.31.12.47-.1.16-.31.22-.47.12l-.59-.35a.344.344 0 0 1-.12-.47c.1-.16.31-.22.47-.12l.59.35Zm-2.36-1.39c.16.1.22.31.12.47-.1.16-.31.22-.47.12l-.59-.35a.344.344 0 0 1-.12-.47c.1-.16.31-.22.47-.12l.59.35ZM25 83.284c.16.1.22.31.12.47-.1.16-.31.22-.47.12l-.59-.35a.344.344 0 0 1-.12-.47c.1-.16.31-.22.47-.12l.59.35Zm-2.37-1.4c.16.1.22.31.12.47-.1.16-.31.22-.47.12l-.59-.35a.344.344 0 0 1-.12-.47c.1-.16.31-.22.47-.12l.59.35Z" fill="#fff"/><path fill-rule="evenodd" clip-rule="evenodd" d="m184.62 82.144-81.73 48.24-.32.16-.33.14-.36.12-.38.09-.39.07-.4.04-.41.02-.3-.01v3.97l.3.01.41-.02.4-.05.39-.06.38-.09.36-.12.33-.14.32-.16 81.73-48.24.51-.38.35-.44.18-.46v-3.97l-.18.47-.35.43-.51.38Z" fill="#B7D9F2"/><path fill-rule="evenodd" clip-rule="evenodd" d="M50.16 90.894c-3.42 0-6.83-.75-9.44-2.26-5.21-3.01-5.21-7.89 0-10.9 2.61-1.51 6.02-2.26 9.44-2.26s6.83.75 9.44 2.26c5.21 3.01 5.21 7.89 0 10.9-2.61 1.5-6.02 2.26-9.44 2.26ZM132.51 103.164c-1.99 0-3.98-.44-5.49-1.31-3.03-1.75-3.03-4.59 0-6.34 1.52-.88 3.51-1.31 5.49-1.31 1.98 0 3.98.44 5.49 1.31 3.03 1.75 3.04 4.59 0 6.34-1.52.88-3.5 1.31-5.49 1.31ZM107.67 68.064c-3.37 0-6.74-.74-9.32-2.23-5.14-2.97-5.14-7.79 0-10.76 2.57-1.49 5.95-2.23 9.32-2.23s6.74.74 9.32 2.23c5.14 2.97 5.15 7.79 0 10.76-2.57 1.49-5.94 2.23-9.32 2.23Z" fill="#C9E3F6"/><path fill-rule="evenodd" clip-rule="evenodd" d="M111.48 25.554c5.21 4.07 5.41 9.42 5.41 9.42l-.73-.08s-.05-4.5-5.35-8.98c-.39-.25-.14-.72.67-.35v-.01Z" fill="#4B6CB2"/><path fill-rule="evenodd" clip-rule="evenodd" d="M110.47 23.034c.07.96.37 1.23.37 1.23l-.51 1.67-1.44 1.32-2.33-.72-.57-1.66 2.61-1.96s2.14-.87 1.86.12h.01Z" fill="#F09172"/><path fill-rule="evenodd" clip-rule="evenodd" d="m93.18 44.614 13.31-7.69c.23-.13.43-.13.57-.02l3.98 2.3-3.81 4.9v2.34c0 .47-.33 1.04-.74 1.28l-3.75 2.17-6.11 7.86-3.93-2.27c-.16-.07-.26-.24-.26-.5v-9.1c0-.47.33-1.04.74-1.28v.01Z" fill="#789FD3"/><path fill-rule="evenodd" clip-rule="evenodd" d="m94.85 45.574 13.31-7.68c.23-.13.43-.13.57-.02l.16.09c-.13-.06-.3-.05-.5.06l-13.31 7.68c-.41.24-.74.81-.74 1.28v9.1c0 .23.08.4.21.47l-.18-.11c-.16-.07-.26-.24-.26-.5v-9.1c0-.47.33-1.04.74-1.28v.01Z" fill="#5479BB"/><path fill-rule="evenodd" clip-rule="evenodd" d="M96.43 57.284c0 .47.33.66.74.43l13.31-7.68c.41-.24.74-.81.74-1.28v-9.09c0-.47-.33-.66-.74-.43l-13.31 7.69c-.41.23-.74.81-.74 1.28v9.09-.01Z" fill="#8EB6E1"/><path fill-rule="evenodd" clip-rule="evenodd" d="m103.15 39.574-.32-.19.32-.19.32.19-.32.19Z" fill="#fff"/><path fill-rule="evenodd" clip-rule="evenodd" d="m103.15 41.144-.32-.18v-1.58l.32.19v1.57Z" fill="#8EB6E1"/><path fill-rule="evenodd" clip-rule="evenodd" d="m103.15 41.144.32-.18v-1.58l-.32.19v1.57Z" fill="#B7D9F2"/><path fill-rule="evenodd" clip-rule="evenodd" d="M100.4 41.804h-.02l-.17-.05a.844.844 0 0 1-.37-.65l.04-.16v-.03l2.76-1.59h.26c.2.13.37.43.37.67l-.1.24-2.76 1.58-.01-.01Z" fill="#8EB6E1"/><path fill-rule="evenodd" clip-rule="evenodd" d="M100.52 41.574c0-.24-.17-.52-.38-.64s-.37-.02-.37.21c0 .25.16.53.37.64.21.12.38.02.38-.21Z" fill="#5D84C2"/><path fill-rule="evenodd" clip-rule="evenodd" d="m99.95 41.424-.32-.2.32-.19.32.19-.32.2Z" fill="#fff"/><path fill-rule="evenodd" clip-rule="evenodd" d="m99.95 42.984-.32-.17v-1.59l.32.2v1.56Z" fill="#8EB6E1"/><path fill-rule="evenodd" clip-rule="evenodd" d="m99.95 42.984.32-.17v-1.59l-.32.2v1.56Z" fill="#B7D9F2"/><path fill-rule="evenodd" clip-rule="evenodd" d="m99.29 56.494 1.1-.64v-10.8l-1.1.64v10.8Z" fill="#5479BB"/><path fill-rule="evenodd" clip-rule="evenodd" d="m95.32 43.384 1.11-.64 3.96 2.31-1.1.64-3.97-2.31Z" fill="#5D84C2"/><path fill-rule="evenodd" clip-rule="evenodd" d="M98.59 43.994v-.31l-1.91.18.01.3.79.47 1.11-.64Z" fill="#B7D9F2"/><path fill-rule="evenodd" clip-rule="evenodd" d="m98.59 43.684-.81-.46-1.1.64.81.45 1.1-.63Z" fill="#fff"/><path fill-rule="evenodd" clip-rule="evenodd" d="m107.25 51.884 1.11-.64v-10.8l-1.11.64v10.8Z" fill="#5479BB"/><path fill-rule="evenodd" clip-rule="evenodd" d="m103.29 38.784 1.11-.64 3.96 2.3-1.11.64-3.96-2.3Z" fill="#5D84C2"/><path fill-rule="evenodd" clip-rule="evenodd" d="M106.56 39.394v-.32l-1.91.18.01.31.79.47 1.11-.64Z" fill="#B75E20"/><path fill-rule="evenodd" clip-rule="evenodd" d="m106.56 39.074-.81-.45-1.1.63.81.46 1.1-.64Z" fill="#EE7E00"/><path fill-rule="evenodd" clip-rule="evenodd" d="M101.07 41.424s-.04-.62.08-.79c.12-.17.76-.37 1.28-.26.15.03.21.21.2.51-.02.29-.92 1.04-1.72.96-.3-.03-.29-.15-.29-.15l.45-.27Z" fill="#F3A87D"/><path fill-rule="evenodd" clip-rule="evenodd" d="M102.73 38.624c.04.7-.3 1.41-.3 1.41s.39.02.4.23c.01.21-.31.87-.68.88-.6.01-.81-1.07-.81-1.07l-.95.55c-.09-.94.86-1.7 1.35-2.64.49-.94 1.18-5.2 1.83-6.67v-.73l2.12.86s-.59 2.95-.88 3.63c-.49 1.13-1.62 2.44-2.07 3.54l-.01.01Z" fill="#F4AE92"/><path fill-rule="evenodd" clip-rule="evenodd" d="M105.98 23.194c-1.5 3.51 1.32 3.87 1.32 3.87s-.62 2.45-.82 3.55c-.89 1.37-2.96.35-3.33-.11.29-1.51.49-4.36.49-4.36s-.02-3.03 2.35-2.96l-.01.01Z" fill="#2F73B7"/><path fill-rule="evenodd" clip-rule="evenodd" d="M101.23 60.004c-.87.84-3.17 1.63-3.35 1.83-.17.2-.22.72 0 .89 1.54.52 3.61-.4 3.61-.4s1.62.3 2.02.05c.4-.25.49-1.52.49-1.52s-2.35-1.39-2.77-.87v.02Z" fill="#101E3B"/><path fill-rule="evenodd" clip-rule="evenodd" d="M104.4 36.884c-1.75 3.97-2.74 13.68-2.74 13.68s.13 5.88-.79 9.22c.76 1.68 4.16 1.42 4.23.86.06-.4.99-6.18.18-9.32.84-2.01 3.31-8.95 3.31-8.95s-3.79-6.27-4.19-5.48v-.01Z" fill="#072B5D"/><path fill-rule="evenodd" clip-rule="evenodd" d="M115.93 57.304c-.06 1.21-1 2.65-1.06 3-.07.35.03.95.3 1.15.27.2 2.32.16 2.85-.92.38-.77.48-2.26.67-2.77.48-1.21.01-2.14-.34-2.41-.36-.28-2.35 1.26-2.4 1.96l-.02-.01Z" fill="#101E3B"/><path fill-rule="evenodd" clip-rule="evenodd" d="M112.62 37.604c1.3 2.23 1.88 11 1.85 11.66 2.94 2.15 3.07 4.23 4.03 5.67.1 2.98-2.41 2.72-3.1 2.62-.3-1.69-2.21-4.42-3.72-6.38-1.5-2.81-2.72-6.28-3.41-8.38-3.72-2.9-3.87-5.93-3.87-5.93s7.82.13 8.23.72l-.01.02Z" fill="#103E7D"/><path fill-rule="evenodd" clip-rule="evenodd" d="m112.19 36.484.43 1.12s-1.88 3.57-8.23-.72c.06-.24.26-1.16.26-1.16l7.53.76h.01Z" fill="#101E3B"/><path fill-rule="evenodd" clip-rule="evenodd" d="M112.79 33.084s-.53 1.35-.59 3.4c-2.05 3.11-7.1-.19-7.53-.76-.36-3.87-.96-6.47-.83-8 .23-2.68 1.95-3.8 1.95-3.8l.89.33s.13 1.68.63 2.08c1.22.63 3.53-2.08 3.53-2.08l2.55 2.3-.6 6.52v.01Z" fill="#4385C6"/><path fill-rule="evenodd" clip-rule="evenodd" d="m107.69 38.144 7.25-4.19h.31l2.17 1.24-2.08 1.53v.53c0 .25-.18.57-.4.69l-2.04 1.18-3.33 4.29-2.14-1.24c-.09-.03-.14-.13-.14-.27v-3.07c0-.25.18-.57.4-.7v.01Z" fill="#8EB6E1"/><path fill-rule="evenodd" clip-rule="evenodd" d="M108.32 39.434v.78l-.12-.07v-.78c0-.25.18-.57.4-.7l7.25-4.19h.31l.08.04-.27.03-7.25 4.19c-.22.13-.4.44-.4.7Z" fill="#4B6CB2"/><path fill-rule="evenodd" clip-rule="evenodd" d="M109.46 43.164c0 .26.18.36.4.23l7.25-4.19c.22-.13.4-.44.4-.7v-3.07c0-.26-.18-.36-.4-.23l-7.25 4.19c-.22.13-.4.44-.4.7v3.07Z" fill="#B7D9F2"/><path fill-rule="evenodd" clip-rule="evenodd" d="m111.02 42.724.6-.35v-3.99l-.6.34v4Z" fill="#4B6CB2"/><path fill-rule="evenodd" clip-rule="evenodd" d="m108.85 37.474.61-.35 2.16 1.26-.6.34-2.17-1.25Z" fill="#4B6CB2"/><path fill-rule="evenodd" clip-rule="evenodd" d="M110.63 37.804v-.17l-1.04.1.01.16.43.26.6-.35Z" fill="#B7D9F2"/><path fill-rule="evenodd" clip-rule="evenodd" d="m110.63 37.634-.43-.25-.61.35.44.24.6-.34Z" fill="#fff"/><path fill-rule="evenodd" clip-rule="evenodd" d="m115.35 40.214.61-.35v-4l-.61.35v4Z" fill="#000001"/><path fill-rule="evenodd" clip-rule="evenodd" d="m113.2 34.964.6-.35 2.16 1.25-.61.35-2.15-1.25Z" fill="#4B6CB2"/><path fill-rule="evenodd" clip-rule="evenodd" d="M114.97 35.294v-.17l-1.04.1.01.17.43.25.6-.35Z" fill="#8E9195"/><path fill-rule="evenodd" clip-rule="evenodd" d="m114.97 35.124-.43-.25-.61.35.44.25.6-.35Z" fill="#BABCBD"/><path fill-rule="evenodd" clip-rule="evenodd" d="M106.33 23.704c-.95 8.82 2.26 16.92 2.26 16.92l-.65-.42s-3.58-7.26-2.09-16.76c.09-.17.57-.16.47.25l.01.01Z" fill="#072B5D"/><path fill-rule="evenodd" clip-rule="evenodd" d="m107.8 40.404.79.46v-.37l-.79-.46v.37Z" fill="#072B5D"/><path fill-rule="evenodd" clip-rule="evenodd" d="M105.21 20.244c-.05.37-.03 1.03 0 1.16.03.13.22.37.22.37s-.16.26-.18.63c-.03.58.5 2.54.66 2.77.17.22.75.58 1 .52 2.22-.58 2.71-2.38 2.71-2.38s.49.12.78-.22c.3-.34.47-.77.47-.77l.2-1.7-1.45-1.82h-1.97l-2.02.61s-.36.45-.42.83Z" fill="#F4AE92"/><path fill-rule="evenodd" clip-rule="evenodd" d="M110.46 21.624c-.38-.18-1.02.58-1 .91-.28-1.05-1.01-.52-1.41-1.98-.18.06-1.9.5-2.87-.12-.2-.14-.42-1.16.83-2.13 3.01-2.25 4.13-.07 4.13-.07s1.34.17 1.44 1.98c.1 1.65-1.19 2.9-1.19 2.9s.61-1.24.07-1.48v-.01Z" fill="#101E3B"/><path fill-rule="evenodd" clip-rule="evenodd" d="M108.28 20.244s1.22-1.83 1.6-1.83h.04c.33.14-1.64 1.82-1.64 1.82v.01Z" fill="#101E3B"/><path fill-rule="evenodd" clip-rule="evenodd" d="m106.3 49.184 13.31-7.68c.23-.13.43-.13.57-.02l3.98 2.3-3.81 4.9v2.34c0 .47-.33 1.05-.74 1.28l-3.75 2.16-6.1 7.87-3.94-2.28c-.16-.07-.26-.24-.26-.49v-9.1c0-.47.33-1.05.74-1.28Z" fill="#789FD3"/><path fill-rule="evenodd" clip-rule="evenodd" d="m107.96 50.143 13.31-7.68c.23-.13.44-.13.57-.02l.15.09c-.13-.06-.3-.05-.49.06l-13.31 7.69c-.41.23-.74.81-.74 1.28v9.1c0 .23.08.4.21.48l-.18-.11c-.16-.06-.26-.24-.26-.49v-9.1c0-.47.33-1.04.74-1.28v-.02Z" fill="#5479BB"/><path fill-rule="evenodd" clip-rule="evenodd" d="M109.54 61.864c0 .47.33.66.74.43l13.31-7.69c.41-.23.74-.81.74-1.28v-9.09c0-.47-.33-.66-.74-.43l-13.31 7.68c-.41.24-.74.81-.74 1.28v9.1Z" fill="#8EB6E1"/><path fill-rule="evenodd" clip-rule="evenodd" d="m116.27 44.154-.32-.2.32-.19.32.19-.32.2Z" fill="#fff"/><path fill-rule="evenodd" clip-rule="evenodd" d="m116.27 45.714-.32-.17v-1.59l.32.2v1.56Z" fill="#8EB6E1"/><path fill-rule="evenodd" clip-rule="evenodd" d="m116.27 45.714.32-.17v-1.59l-.32.2v1.56Z" fill="#B7D9F2"/><path fill-rule="evenodd" clip-rule="evenodd" d="M113.52 46.384h-.03l-.17-.05a.843.843 0 0 1-.37-.65l.04-.16v-.03l2.76-1.59h.26c.2.13.37.42.37.66l-.1.24-2.76 1.58Z" fill="#8EB6E1"/><path fill-rule="evenodd" clip-rule="evenodd" d="M113.63 46.154c0-.24-.17-.53-.38-.64-.21-.12-.37-.02-.37.21 0 .25.16.53.37.64.21.12.38.02.38-.21Z" fill="#5D84C2"/><path fill-rule="evenodd" clip-rule="evenodd" d="m113.07 46.004-.32-.21.32-.18.32.18-.32.21Z" fill="#fff"/><path fill-rule="evenodd" clip-rule="evenodd" d="m113.07 47.564-.32-.18v-1.59l.32.21v1.56Z" fill="#8EB6E1"/><path fill-rule="evenodd" clip-rule="evenodd" d="m113.07 47.564.32-.18v-1.59l-.32.21v1.56Z" fill="#B7D9F2"/><path fill-rule="evenodd" clip-rule="evenodd" d="m112.4 61.064 1.11-.64v-10.8l-1.11.64v10.8Z" fill="#5479BB"/><path fill-rule="evenodd" clip-rule="evenodd" d="m108.44 47.954 1.1-.63 3.97 2.3-1.11.64-3.96-2.31Z" fill="#5D84C2"/><path fill-rule="evenodd" clip-rule="evenodd" d="M111.7 48.574v-.32l-1.91.18.02.31.79.47 1.1-.64Z" fill="#B7D9F2"/><path fill-rule="evenodd" clip-rule="evenodd" d="m111.7 48.254-.8-.46-1.11.64.82.46 1.09-.64Z" fill="#fff"/><path fill-rule="evenodd" clip-rule="evenodd" d="m120.37 56.453 1.11-.63v-10.8l-1.11.64v10.79Z" fill="#5479BB"/><path fill-rule="evenodd" clip-rule="evenodd" d="m116.41 43.354 1.1-.64 3.97 2.31-1.11.64-3.96-2.31Z" fill="#5D84C2"/><path fill-rule="evenodd" clip-rule="evenodd" d="M119.67 43.964v-.31l-1.91.18.01.31.8.46 1.1-.64Z" fill="#B7D9F2"/><path fill-rule="evenodd" clip-rule="evenodd" d="m119.67 43.654-.8-.46-1.11.64.81.45 1.1-.63Z" fill="#fff"/><path fill-rule="evenodd" clip-rule="evenodd" d="m113.5 45.194.62-.35s.44.07.48.52c.05.44-.42.65-.42.65l-.56.32s.42.52 1.03.56c.62.05 1.2-.79 1.28-.94.27-.52.57-2.35.44-3.16-.2-1.77.62-5.37.1-7.43-.21-.41-.54-2.06-.54-2.06l-2.7 1.2s.47 1.09.83 1.51c.29 3.36.64 4.55.79 7.1-.12.1-.97.81-1.16 1.16-.19.34-.2.93-.2.93l.01-.01Z" fill="#F4AE92"/><path fill-rule="evenodd" clip-rule="evenodd" d="M112.49 26.674c2.18-.93 2.81 2.97 2.81 2.97s.45 2.49.73 3.57c-.23 1.62-2.54 1.55-3.08 1.29-.36-1.49-1.37-4.16-1.37-4.16s-1.28-2.74.91-3.67Z" fill="#2F73B7"/><path fill-rule="evenodd" clip-rule="evenodd" d="M105 20.164c-.28-.12-.53-.27-.72-.45.14.06.35.06.5-.01-.22-.05-.73-.17-.86-.47.87-.04 1.56-.59 2.33-1.07.65-.41 1.01-.51.45.44.71.34.72 1.42.46 2.03-.73.31-1.9-.03-2.57-.48.12.04.28.04.41 0v.01Z" fill="#101E3B"/><path fill-rule="evenodd" clip-rule="evenodd" d="m163.61 66.773.84 13.29h9.35l.84-13.29h-11.03Z" fill="#80A8D8"/><path fill-rule="evenodd" clip-rule="evenodd" d="M173.8 80.064c0 1.45-2.09 2.63-4.67 2.63s-4.67-1.18-4.67-2.63 2.09-2.63 4.67-2.63 4.67 1.18 4.67 2.63Z" fill="#80A8D8"/><path fill-rule="evenodd" clip-rule="evenodd" d="M174.64 66.774c0 1.72-2.47 3.11-5.52 3.11-3.05 0-5.52-1.39-5.52-3.11s2.47-3.11 5.52-3.11c3.05 0 5.52 1.39 5.52 3.11Z" fill="#A0C6E9"/><path fill-rule="evenodd" clip-rule="evenodd" d="M173.8 66.644c0 1.45-2.09 2.63-4.67 2.63s-4.67-1.18-4.67-2.63 2.09-2.63 4.67-2.63 4.67 1.18 4.67 2.63Z" fill="#80A8D8"/><path fill-rule="evenodd" clip-rule="evenodd" d="M172.69 57.854s-1.04 6.63-1.12 8.07c-.09 1.44 0 2.04 0 2.04l.24-.1s.23-3.99.46-5.54c.22-1.55.63-4.48.63-4.48h-.2l-.01.01Z" fill="#A0C6E9"/><path fill-rule="evenodd" clip-rule="evenodd" d="M161.55 55.714c.89 1.4 2.56 3.56 3.71 5.13 1.15 1.57 2.18 8.25 2.18 8.25s.69.16.97.15c-.09-.85-.62-5.49-1.48-7.66s-4.15-4.94-5.38-5.87ZM174.13 47.244s-2.64 6.31-3.65 10.89c-1.01 4.58-.89 11.12-.89 11.12s1.03-.06 1.14-.14c.11-.08.96-7.89 1.65-11.66.69-3.77 1.75-10.21 1.75-10.21Z" fill="#789FD3"/><path fill-rule="evenodd" clip-rule="evenodd" d="M161.39 49.404s1.39 7.58 1.95 10.66c.56 3.07 2.18 8.26 2.18 8.26s.4.3 1.03.52c-.06-2.33-1.05-6.76-1.89-10.81-.83-4.05-3.28-8.63-3.28-8.63h.01ZM165.43 45.834s1.26 9.99 1.81 12.83c.54 2.84 1.57 10.61 1.57 10.61s.75 0 1.43-.06c.28-2.48-.75-8.62-1.46-12.09-.7-3.47-3.35-11.29-3.35-11.29Z" fill="#8EB6E1"/><path fill-rule="evenodd" clip-rule="evenodd" d="M168.17 48.424s1.19 9.08 1.28 12.57c.1 3.49.14 8.26.14 8.26l.34-.02s-.05-6.86-.35-11.38c-.3-4.52-1.06-9.32-1.06-9.32l-.36-.11h.01ZM164.72 52.584s2.07 9.03 2.32 11.09c.26 2.06.61 5.47.61 5.47l.36.06s-.42-4.07-.76-6.46c-.34-2.39-2.16-10.25-2.16-10.25l-.37.09ZM172.37 50.164s-1.55 7.77-1.93 12.16c-.38 4.4 0 6.87 0 6.87l.29-.08s-.07-5.19.1-7c.3-3.27 1.82-12.04 1.82-12.04l-.28.09ZM167.94 58.843s.45 2.24.59 3.73c.14 1.49.4 6.7.4 6.7h.28s-.15-4.71-.39-6.84c-.22-1.95-.71-3.83-.71-3.83l-.17.24Z" fill="#A0C6E9"/><path fill-rule="evenodd" clip-rule="evenodd" d="M170.85 58.014c.13-.13.23-.3.28-.46.15-.48-.06-.92-.41-1.25-.35-.33-.82-.41-1.26-.19-.17.08-.34.22-.49.39.06-.42.03-.85-.19-1.14-.41-.53-1.29-.47-1.86-.29-.64.2-1.07.52-.95 1.24.06.41.27.83.54 1.19a.97.97 0 0 0-.56-.03c-.4.1-.86.43-1.06.8-.2.37-.15.88.04 1.25.17.31.51.42.84.51a.72.72 0 0 0-.26.42c-.08.44.31.9.63 1.14.54.4 1.3.14 1.89-.27.33.17.74.23 1.01.12.37-.16.67-.61.77-1.05.32.24.64.47 1.07.3.38-.15.57-.55.65-.92.14-.6-.08-1.55-.69-1.76h.01Z" fill="#B7D9F2"/><path fill-rule="evenodd" clip-rule="evenodd" d="M166.23 58.004s-.98-.2-.94.77c.04.97 1.08 1.04 1.08 1.04s-.41.9.21 1.24c.62.34 1.19-.27 1.19-.27s.63.21 1.06.12c.43-.09.44-.92.44-.92s1.15.62 1.44-.25c.28-.87-.47-1.58-.47-1.58s.65-.8.22-1.34c-.43-.53-1.18 0-1.18 0l-.89-1.19c-.22-.28-1.15-.27-1.62 0-.47.28-.23 1.42-.23 1.42l-.3.95-.01.01Z" fill="#fff"/><path fill-rule="evenodd" clip-rule="evenodd" d="M169.75 57.264c.19-.43.06-.96-.44-1.16-.31-.12-.68-.02-.93.21-.04-.1-.1-.19-.16-.27-.23-.26-.53-.25-.82-.1-.26.13-.5.32-.57.61-.01.05-.01.11-.01.16-.06-.03-.11-.06-.18-.09a.936.936 0 0 0-.96.18c-.25.22-.32.56-.18.87.11.25.32.4.55.49-.05.03-.1.07-.14.1-.22.22-.27.55-.15.83.17.4.63.58 1.02.49-.01.47.45.95.93.96.26 0 .52-.09.67-.28.08.04.16.06.24.08.4.08.8-.08 1.05-.4.23-.31.3-.71.17-1.07.19-.09.37-.22.46-.36.38-.59-.06-1.03-.57-1.26l.02.01Z" fill="#C9E3F6"/><path fill-rule="evenodd" clip-rule="evenodd" d="M169.39 57.644c.15-.34.05-.8-.26-1.04a.908.908 0 0 0-.84-.14c-.08.03-.14.07-.18.11-.19-.17-.44-.24-.69-.11-.15.08-.26.19-.31.34-.18-.16-.37-.19-.6 0-.2.16-.38.41-.32.68.03.13.11.23.21.31-.19.16-.28.53-.24.79.04.24.2.46.45.51.07.01.13.01.18 0 0 .28.2.51.39.68.21.18.46.24.67.03.04-.04.09-.1.14-.16.13.19.39.3.65.22.24-.07.47-.3.55-.54.02-.06.02-.11.02-.17.29.02.49-.3.63-.51.27-.4-.04-.84-.44-.99l-.01-.01Z" fill="#fff"/><path fill-rule="evenodd" clip-rule="evenodd" d="M168.91 57.614s.08-.1.1-.16c.12-.3-.08-.56-.34-.69-.28-.13-.63-.15-.88.06-.1.09-.17.21-.2.35a.758.758 0 0 0-.26-.2c-.18-.09-.37 0-.51.13-.15.14-.21.36-.07.54.05.07.14.12.23.16l-.06.04c-.13.15-.1.45-.04.63.06.18.19.35.4.35.1 0 .21-.03.32-.08.02.32.35.63.68.51.26-.09.41-.28.45-.55v-.13c.09.01.18.01.26 0 .24-.05.39-.22.39-.47 0-.27-.22-.42-.48-.47l.01-.02Z" fill="#DAEDF9"/><path fill-rule="evenodd" clip-rule="evenodd" d="M168.86 57.994a.517.517 0 0 0-.23-.27c.04-.04.07-.09.09-.15.07-.19.02-.45-.17-.54-.17-.09-.6-.14-.73.28-.16-.09-.36-.11-.48-.03-.12.09-.17.25-.12.39.04.13.16.19.27.26l-.09.07c-.14.13-.17.27-.06.44.09.15.24.25.42.2.08-.02.17-.07.24-.13.22.18.54.25.74.06.14-.13.2-.41.13-.58h-.01Z" fill="#fff"/><path fill-rule="evenodd" clip-rule="evenodd" d="M168.1 57.584c.31.03.26.51-.05.48-.31-.03-.26-.51.05-.48Z" fill="#DAEDF9"/><path fill-rule="evenodd" clip-rule="evenodd" d="M176.43 57.214c.17-.06.34-.17.46-.29.35-.36.36-.85.19-1.3-.17-.45-.55-.73-1.04-.73-.19 0-.41.05-.61.13.24-.35.41-.75.34-1.1-.13-.65-.95-1-1.53-1.09-.66-.11-1.19-.01-1.41.68-.12.39-.13.87-.05 1.31-.14-.13-.3-.23-.49-.28-.41-.09-.96 0-1.3.24-.35.24-.53.72-.52 1.14 0 .35.26.6.52.83a.69.69 0 0 0-.42.26c-.27.36-.13.94.05 1.3.3.6 1.1.71 1.81.6.22.3.56.54.85.56.41.02.87-.25 1.16-.6.18.36.36.71.83.75.4.04.76-.24 1-.53.39-.48.62-1.42.17-1.88h-.01Z" fill="#B7D9F2"/><path fill-rule="evenodd" clip-rule="evenodd" d="M172.31 55.144s-.79-.62-1.19.27c-.4.88.5 1.41.5 1.41s-.76.62-.36 1.2 1.19.29 1.19.29.47.46.89.58c.42.11.81-.62.81-.62s.75 1.07 1.4.41c.64-.65.29-1.62.29-1.62s.94-.43.79-1.1c-.15-.67-1.06-.53-1.06-.53s-.2-1.11-.27-1.46c-.07-.35-.9-.76-1.45-.72-.54.04-.85 1.17-.85 1.17l-.69.72Z" fill="#fff"/><path fill-rule="evenodd" clip-rule="evenodd" d="M175.78 56.054c.36-.3.48-.84.13-1.23-.23-.25-.6-.32-.92-.23 0-.11 0-.21-.03-.31-.09-.33-.36-.46-.69-.45-.29 0-.59.06-.78.29-.04.04-.06.09-.08.14-.04-.05-.07-.11-.12-.16a.966.966 0 0 0-.94-.27c-.32.09-.54.36-.55.69-.01.27.11.49.27.69-.06 0-.12.02-.17.03-.29.1-.48.37-.5.68-.03.43.31.8.7.89-.22.41-.02 1.05.4 1.28.23.12.5.15.73.05a1.059 1.059 0 0 0 1.3.29c.35-.17.59-.5.63-.88.21 0 .43-.04.57-.12.6-.36.41-.95.05-1.38Z" fill="#C9E3F6"/><path fill-rule="evenodd" clip-rule="evenodd" d="M175.3 56.234c.28-.24.4-.69.23-1.04a.9.9 0 0 0-.69-.5c-.08-.01-.15 0-.22.02-.09-.23-.29-.41-.57-.41-.17 0-.32.05-.43.16-.09-.23-.24-.33-.53-.27-.25.06-.52.19-.59.46-.04.13-.01.26.05.37-.24.06-.49.35-.56.6-.07.23-.03.5.17.66.05.04.11.07.16.08-.13.24-.05.54.05.78.1.26.3.42.59.32.06-.02.13-.05.19-.08.04.23.21.44.48.49.25.04.55-.05.73-.23a.42.42 0 0 0 .09-.14c.25.14.58-.05.79-.17.42-.24.34-.77.06-1.08v-.02Z" fill="#fff"/><path fill-rule="evenodd" clip-rule="evenodd" d="M174.87 55.994c.06-.02.11-.06.16-.1.24-.21.18-.54 0-.77-.19-.24-.5-.42-.81-.34-.13.03-.24.12-.33.22a.931.931 0 0 0-.14-.3c-.12-.16-.33-.16-.52-.11-.2.06-.35.23-.3.45.02.09.07.17.13.25h-.07c-.19.08-.29.36-.31.55-.02.19.02.4.2.49.09.05.21.07.32.08-.12.29.03.72.38.76.27.03.49-.07.65-.29.03-.04.04-.08.06-.12.07.05.15.09.23.11.24.06.45-.02.56-.24.12-.23 0-.48-.22-.64h.01Z" fill="#DAEDF9"/><path fill-rule="evenodd" clip-rule="evenodd" d="M174.67 56.304a.473.473 0 0 0-.09-.34c.05-.02.1-.05.15-.1.14-.14.22-.39.09-.57-.11-.15-.48-.39-.78-.08-.1-.15-.27-.26-.42-.24a.33.33 0 0 0-.28.29c-.02.14.05.24.12.36a.36.36 0 0 0-.11.02c-.19.05-.27.17-.25.36.02.18.1.33.29.37.08.02.18.01.27 0 .12.26.37.47.64.38.18-.06.36-.28.37-.46v.01Z" fill="#fff"/><path fill-rule="evenodd" clip-rule="evenodd" d="M174.16 55.604c.26.16 0 .57-.26.41-.26-.16 0-.57.26-.41Z" fill="#DAEDF9"/><path fill-rule="evenodd" clip-rule="evenodd" d="M170.39 48.454c.17-.06.34-.17.45-.29.35-.36.36-.85.19-1.3-.17-.45-.55-.73-1.04-.73-.19 0-.41.05-.61.13.24-.35.41-.75.34-1.1-.13-.65-.95-1-1.53-1.09-.66-.11-1.18-.01-1.41.68-.12.39-.13.87-.05 1.31-.14-.13-.3-.23-.49-.28-.41-.09-.96 0-1.3.24-.35.24-.53.72-.52 1.14 0 .35.26.6.52.83a.69.69 0 0 0-.42.26c-.27.36-.13.94.05 1.3.3.6 1.1.71 1.81.6.22.3.56.54.85.56.41.02.87-.25 1.16-.59.18.36.36.7.83.75.4.04.76-.24 1-.53.39-.48.62-1.42.17-1.88v-.01Z" fill="#B7D9F2"/><path fill-rule="evenodd" clip-rule="evenodd" d="M166.26 46.394s-.79-.61-1.19.27c-.4.88.5 1.41.5 1.41s-.77.62-.36 1.2c.4.58 1.19.29 1.19.29s.47.46.89.58c.42.11.81-.62.81-.62s.75 1.07 1.4.41c.64-.65.29-1.63.29-1.63s.94-.43.79-1.1c-.15-.67-1.06-.53-1.06-.53s-.2-1.11-.27-1.46c-.07-.35-.9-.76-1.45-.72-.54.04-.84 1.17-.84 1.17l-.69.72-.01.01Z" fill="#fff"/><path fill-rule="evenodd" clip-rule="evenodd" d="M169.73 47.294c.36-.3.48-.84.13-1.23-.23-.25-.6-.32-.92-.23 0-.11 0-.21-.03-.31-.09-.33-.36-.46-.69-.45-.29 0-.59.06-.78.29-.04.04-.06.09-.08.14-.04-.05-.07-.11-.12-.16a.966.966 0 0 0-.94-.27c-.32.09-.54.36-.55.69-.01.27.11.5.27.69-.06 0-.12.02-.17.03-.29.1-.48.37-.5.68-.03.43.31.8.7.89-.22.41-.02 1.05.4 1.28.23.12.5.15.73.05a1.059 1.059 0 0 0 1.3.29c.35-.17.59-.5.63-.88.22 0 .43-.04.57-.12.6-.36.41-.95.05-1.38Z" fill="#C9E3F6"/><path fill-rule="evenodd" clip-rule="evenodd" d="M169.25 47.474c.28-.24.4-.69.23-1.04a.917.917 0 0 0-.69-.5c-.08-.01-.15 0-.22.02-.09-.23-.29-.42-.57-.41-.17 0-.32.05-.43.16-.09-.23-.24-.33-.53-.27-.25.06-.52.2-.59.46-.04.13 0 .26.05.37-.24.06-.49.35-.56.6-.07.23-.03.5.17.66.05.04.11.07.16.08-.13.24-.05.54.05.78.11.26.3.42.59.32.06-.02.13-.05.19-.08.04.23.21.44.48.49.25.04.55-.05.73-.24a.42.42 0 0 0 .09-.14c.25.14.58-.05.79-.17.42-.24.34-.77.06-1.08v-.01Z" fill="#fff"/><path fill-rule="evenodd" clip-rule="evenodd" d="M168.82 47.234c.06-.02.11-.06.16-.1.24-.21.18-.54 0-.77-.19-.24-.5-.42-.81-.34-.13.03-.24.12-.33.22a.931.931 0 0 0-.14-.3c-.12-.16-.33-.16-.52-.11-.2.06-.35.23-.3.45.02.09.07.17.13.25h-.07c-.19.08-.29.36-.31.55-.02.19.02.4.2.49.09.05.2.07.32.08-.12.29.03.72.38.76.27.03.49-.07.65-.28.03-.04.04-.08.06-.12.07.05.15.09.23.11.24.06.45-.02.56-.24.12-.24 0-.48-.22-.64l.01-.01Z" fill="#DAEDF9"/><path fill-rule="evenodd" clip-rule="evenodd" d="M168.62 47.554a.473.473 0 0 0-.09-.34c.05-.02.1-.05.15-.1.14-.14.22-.39.09-.57-.11-.15-.48-.39-.78-.08-.1-.15-.27-.26-.42-.24a.33.33 0 0 0-.28.29c-.02.14.05.24.12.36-.04 0-.08.01-.11.03-.19.05-.27.17-.25.36.02.18.1.33.29.37.08.02.18.01.27 0 .12.26.37.47.64.38.18-.06.36-.28.38-.46h-.01Z" fill="#fff"/><path fill-rule="evenodd" clip-rule="evenodd" d="M168.12 46.844c.26.16 0 .57-.26.41-.26-.16 0-.57.26-.41Z" fill="#DAEDF9"/><path fill-rule="evenodd" clip-rule="evenodd" d="M161.73 53.444c-.17-.06-.34-.17-.46-.29-.35-.36-.36-.85-.19-1.3.17-.45.55-.73 1.04-.73.19 0 .41.05.61.13-.24-.35-.4-.75-.33-1.1.13-.65.95-.99 1.53-1.09.66-.11 1.18-.01 1.41.69.12.39.13.87.05 1.31.14-.13.3-.23.49-.28.41-.09.96 0 1.3.24.35.25.53.72.52 1.14 0 .35-.26.6-.53.83.17.04.32.12.42.26.27.36.13.94-.06 1.3-.31.6-1.1.7-1.81.6-.22.3-.56.54-.85.55-.41.02-.87-.25-1.16-.6-.18.35-.36.7-.83.75-.4.04-.75-.24-.99-.54-.39-.48-.61-1.42-.17-1.88l.01.01Z" fill="#B7D9F2"/><path fill-rule="evenodd" clip-rule="evenodd" d="M165.86 51.394s.79-.61 1.19.27c.4.89-.5 1.41-.5 1.41s.76.63.36 1.2-1.19.29-1.19.29-.47.46-.89.57c-.42.11-.81-.62-.81-.62s-.76 1.07-1.4.41c-.64-.66-.29-1.63-.29-1.63s-.94-.43-.79-1.1c.15-.67 1.06-.53 1.06-.53s.2-1.11.27-1.46c.07-.35.9-.75 1.45-.71.54.04.84 1.17.84 1.17l.69.72.01.01Z" fill="#fff"/><path fill-rule="evenodd" clip-rule="evenodd" d="M162.39 52.284c-.36-.3-.48-.84-.12-1.23.23-.25.61-.32.92-.23 0-.11 0-.21.03-.31.09-.33.36-.46.69-.45.29 0 .59.06.78.29.04.04.06.09.08.14.04-.05.07-.1.12-.16.24-.25.6-.36.94-.26.32.09.54.36.55.69.01.27-.11.49-.27.69.06 0 .12.02.17.03.29.1.48.38.5.68.03.43-.31.8-.7.89.22.41.02 1.05-.41 1.28-.23.12-.5.15-.73.05a1.059 1.059 0 0 1-1.3.29c-.35-.17-.59-.5-.62-.88-.22 0-.43-.04-.57-.12-.6-.36-.41-.95-.05-1.38l-.01-.01Z" fill="#C9E3F6"/><path fill-rule="evenodd" clip-rule="evenodd" d="M162.87 52.464c-.28-.24-.4-.69-.23-1.04.13-.27.4-.46.69-.5.08-.01.15 0 .22.02.09-.23.29-.41.57-.41.17 0 .32.05.43.16.09-.23.24-.33.53-.27.25.06.52.2.59.46.04.13 0 .26-.05.37.24.06.49.35.56.6.07.23.03.5-.17.66-.05.04-.11.06-.16.08.13.24.05.54-.05.78-.11.26-.3.42-.59.32-.06-.02-.13-.05-.19-.08-.04.23-.21.44-.48.49a.864.864 0 0 1-.73-.24.42.42 0 0 1-.09-.14c-.25.14-.57-.05-.79-.18-.42-.24-.34-.77-.05-1.08h-.01Z" fill="#fff"/><path fill-rule="evenodd" clip-rule="evenodd" d="M163.3 52.224c-.06-.02-.11-.06-.16-.1-.24-.21-.18-.54 0-.77.19-.24.5-.42.82-.34.13.03.24.12.33.22.03-.11.09-.23.14-.3.12-.16.33-.16.52-.11.2.06.35.23.3.45-.02.09-.07.17-.13.25h.07c.19.08.29.37.31.55.02.19-.02.4-.2.49-.09.05-.2.07-.32.07.12.29-.03.72-.38.76a.67.67 0 0 1-.65-.29c-.03-.04-.04-.08-.06-.12-.07.05-.15.09-.23.11-.24.06-.45-.02-.56-.24-.12-.24 0-.48.22-.64l-.02.01Z" fill="#DAEDF9"/><path fill-rule="evenodd" clip-rule="evenodd" d="M163.5 52.544c-.01-.14.02-.25.09-.34a.437.437 0 0 1-.15-.1c-.14-.14-.22-.39-.09-.57.11-.15.48-.39.78-.08.1-.15.28-.26.42-.24.15.02.26.14.28.29.02.14-.05.25-.12.36.04 0 .08.02.11.03.19.05.27.17.25.37-.02.18-.11.33-.29.37-.08.02-.18.01-.27 0-.12.26-.37.47-.64.38-.18-.06-.36-.28-.37-.46v-.01Z" fill="#fff"/><path fill-rule="evenodd" clip-rule="evenodd" d="M164.01 51.844c-.26.16 0 .57.25.41.26-.16 0-.57-.25-.41Z" fill="#DAEDF9"/><path fill-rule="evenodd" clip-rule="evenodd" d="M170.02 50.494c-.17-.06-.34-.17-.46-.29-.35-.36-.36-.85-.19-1.3.17-.45.55-.73 1.04-.73.19 0 .41.05.61.13-.24-.35-.4-.75-.33-1.1.13-.65.95-.99 1.53-1.09.66-.11 1.18 0 1.4.69.12.39.13.87.05 1.31.14-.13.3-.23.49-.27.41-.09.96 0 1.3.24.35.24.53.72.52 1.14-.01.35-.27.6-.53.83.17.04.32.12.42.26.27.36.13.94-.06 1.3-.31.6-1.1.7-1.81.6-.22.3-.56.54-.85.55-.41.02-.87-.25-1.16-.6-.18.36-.36.7-.83.74-.4.04-.76-.24-1-.54-.39-.48-.61-1.42-.17-1.88l.03.01Z" fill="#B7D9F2"/><path fill-rule="evenodd" clip-rule="evenodd" d="M174.15 48.434s.79-.61 1.19.27c.4.89-.5 1.41-.5 1.41s.76.63.36 1.2c-.4.58-1.19.29-1.19.29s-.47.46-.89.57c-.42.11-.81-.62-.81-.62s-.76 1.07-1.4.41c-.64-.66-.28-1.63-.28-1.63s-.94-.43-.79-1.1c.15-.67 1.06-.53 1.06-.53s.2-1.11.27-1.46c.07-.35.9-.75 1.45-.71.54.04.84 1.17.84 1.17l.69.72v.01Z" fill="#fff"/><path fill-rule="evenodd" clip-rule="evenodd" d="M170.67 49.334c-.36-.3-.48-.84-.12-1.23.23-.25.6-.32.92-.23 0-.11 0-.21.03-.31.1-.33.36-.46.69-.45.29 0 .59.06.78.29.04.04.06.09.08.14.04-.05.07-.1.12-.16.24-.25.6-.36.94-.26.32.09.54.36.55.69.01.27-.11.49-.27.68.06 0 .12.02.17.03.29.1.48.38.5.68.03.43-.31.8-.7.89.22.41.02 1.05-.41 1.28-.23.12-.5.15-.73.05a1.057 1.057 0 0 1-1.3.29c-.35-.17-.59-.5-.62-.88-.21 0-.43-.04-.57-.12-.6-.36-.41-.95-.05-1.38h-.01Z" fill="#C9E3F6"/><path fill-rule="evenodd" clip-rule="evenodd" d="M171.16 49.514c-.28-.24-.4-.69-.23-1.04.13-.27.4-.46.69-.5.08-.01.15 0 .22.02.09-.23.29-.41.57-.41.17 0 .32.05.43.16.09-.23.25-.33.53-.27.25.06.52.2.59.46.04.13 0 .26-.05.37.24.06.49.35.56.6.07.23.03.5-.17.66-.05.04-.11.07-.16.08.13.24.05.54-.05.78-.11.26-.3.42-.59.32-.06-.02-.13-.05-.19-.08-.04.23-.21.44-.48.49a.864.864 0 0 1-.73-.24.42.42 0 0 1-.09-.14c-.25.14-.57-.05-.79-.18-.42-.24-.34-.77-.05-1.08h-.01Z" fill="#fff"/><path fill-rule="evenodd" clip-rule="evenodd" d="M171.58 49.274a.537.537 0 0 1-.16-.1c-.24-.22-.18-.54 0-.77.19-.24.5-.42.81-.34.13.03.24.12.33.22.03-.11.09-.23.14-.3.12-.16.33-.16.52-.11.2.06.35.23.3.45-.02.09-.07.17-.13.25h.07c.19.08.29.37.31.55.02.19-.02.4-.2.49-.09.05-.21.07-.32.07.12.29-.03.72-.38.76a.67.67 0 0 1-.65-.29c-.03-.04-.04-.08-.06-.12-.07.05-.15.09-.23.11-.24.06-.45-.02-.56-.24-.12-.24.01-.48.22-.64l-.01.01Z" fill="#DAEDF9"/><path fill-rule="evenodd" clip-rule="evenodd" d="M171.78 49.594c-.01-.14.02-.25.09-.34a.437.437 0 0 1-.15-.1c-.14-.14-.22-.39-.09-.57.11-.15.48-.39.78-.08.1-.15.27-.26.42-.24.15.02.26.14.28.29.02.14-.05.24-.12.36.04 0 .08.01.11.02.19.05.27.17.25.37-.02.18-.11.33-.29.37-.08.02-.18.01-.27 0-.12.26-.37.47-.64.38-.18-.06-.36-.28-.37-.46Z" fill="#fff"/><path fill-rule="evenodd" clip-rule="evenodd" d="M172.29 48.894c-.26.16-.01.57.25.41.26-.16 0-.57-.25-.41Z" fill="#DAEDF9"/><path fill-rule="evenodd" clip-rule="evenodd" d="M176.95 53.454s-3.82 6.12-4.71 8.73c-.89 2.61-1.11 6.84-1.11 6.84s.72-.21 1.04-.38c.36-2.18 1.2-5.44 1.87-6.98.67-1.54 2.91-6.78 2.91-8.21Z" fill="#8EB6E1"/><path fill-rule="evenodd" clip-rule="evenodd" d="M160.61 57.554s2.13 3.85 3 5.52c.87 1.67 2.55 5.6 2.55 5.6s.4.17.97.34c-.26-1.81-1.26-3.94-2.41-6.28-1.15-2.34-4.11-5.19-4.11-5.19v.01ZM177.85 57.654s-3.93 4.21-4.7 5.79c-.78 1.59-1.17 5.28-1.17 5.28s.84-.44 1.06-.64c.23-.79.65-3.65 1.1-4.42.45-.77 3.02-3.8 3.71-6.01Z" fill="#789FD3"/><path fill-rule="evenodd" clip-rule="evenodd" d="M65.91 31.934c-.71.41-1.28 1.4-1.28 2.22 0 .27.07.48.18.64-.66.86-1.14 2.05-1.27 3.2l4.76-2.75c-.14-1-.62-1.63-1.28-1.73.11-.29.18-.58.18-.85 0-.82-.58-1.14-1.29-.73Z" fill="#FBFCFD"/><path fill-rule="evenodd" clip-rule="evenodd" d="M60.52 36.294v-.21l.02-.21.03-.21.03-.22.03-.21.05-.22.05-.22.06-.23.05-.18.01-.05.07-.22.08-.22.08-.21.08-.21.07-.16.02-.04.09-.21.11-.22.13-.25.15-.27.03-.05.03-.06c.1-.17.21-.34.32-.51.09-.13.18-.26.27-.38l.19-.25.17-.2.17-.19.17-.18.03-.03.02-.02.13-.13.18-.18.19-.17.19-.17.09-.07.02-.02.07-.06.19-.14.18-.13.18-.12.18-.11.04-.02.13-.08.18-.09.11-.05h.02l.03-.03.17-.07.17-.06h.03l.02-.02.12-.04.17-.05.09-.02h.04l.05-.02.19-.03h.11l.04-.02h.04l.2-.01h.23l.24.04.06.02.23.06h.02l.33.16 1.14.66-.33-.15-.25-.07-.06-.02-.32-.04h-.43l-.36.06h-.04l-.37.11h-.03c-.13.05-.27.11-.4.17h-.03c-.14.08-.28.15-.42.23-.29.17-.57.37-.85.59l-.02.02c-.27.22-.53.47-.78.73l-.02.02c-.5.53-.95 1.15-1.33 1.81l-.03.05c-.19.32-.35.66-.5.99-.15.36-.28.71-.39 1.06-.11.36-.19.72-.25 1.07-.06.35-.09.7-.09 1.04 0 .16.01.32.02.47v.04l.06.4v.04l.1.35.02.07.11.29.02.04.17.3c.09.14.19.26.3.37l.08.08c.11.1.23.2.36.27l-1.14-.66c-.13-.08-.25-.17-.36-.27l-.08-.08c-.11-.11-.21-.23-.3-.36l-.16-.3-.01-.04-.08-.2-.04-.11-.02-.06-.02-.06-.06-.22-.02-.08v-.05l-.02-.08-.03-.2v-.12l-.02-.04v-.05l-.02-.2V36.284l.03.01Z" fill="#A0C6E9"/><path fill-rule="evenodd" clip-rule="evenodd" d="m68.3 35.244-4.76 2.75c.13-1.16.61-2.34 1.27-3.2-.12-.16-.18-.37-.18-.64 0-.82.57-1.8 1.28-2.22.71-.41 1.29-.08 1.29.73 0 .27-.07.56-.18.85.66.1 1.15.72 1.28 1.73Zm-2.4-5.45c-2.35 1.36-4.25 4.65-4.24 7.35 0 2.7 1.92 3.79 4.27 2.44 2.35-1.36 4.25-4.65 4.24-7.35 0-2.71-1.92-3.79-4.27-2.44Z" fill="#C9E3F6"/><path fill-rule="evenodd" clip-rule="evenodd" d="M79.85 26.674c3.68-2.6 12.17-3.24 11.47-5.84l1.21-5.3c0-.44-1.47-1.21-1.82-1.38-.31-.16-.7-.17-1.04.03l-16.41 9.57c-.97.56-1.57 1.6-1.57 2.72v9.61c0 .42.22.75.53.94.32.19.65.47.72.44l6.89-10.79h.02Z" fill="#A0C6E9"/><path fill-rule="evenodd" clip-rule="evenodd" d="m74.75 26.504 17.69-10.53.1-.43c0-.44-1.47-1.21-1.82-1.38-.3-.15-.66-.16-1 .01l-16.51 9.63c-.46.28-.83.67-1.09 1.12l2.63 1.58Z" fill="#A0C6E9"/><path fill-rule="evenodd" clip-rule="evenodd" d="M92.7 21.294v-5.34c0-.84-.91-1.37-1.64-.94l-16.41 9.57c-.97.56-1.57 1.6-1.57 2.72v1.77l-.12 8.39 3.41-3.33 15.35-9.32c1.15-.67.98-2.43.98-3.51v-.01Z" fill="#C9E3F6"/><path fill-rule="evenodd" clip-rule="evenodd" d="m75.37 29.304.01-.04.04-.27.01-.1.01-.06.03-.27-.71-.38.45-.33.03-.02.01-.01.33-.25.02-.01.14-.1.18-.52.07-.22.03-.08.03-.09.07-.2.04-.11.01-.05.05.08.12.2.2.36.07.12.08-.03.25-.1.13-.06.52-.21-.22.38-.06.1-.11.18-.05.08-.04.08-.11.19-.11.19.09.6.01.03.07.39h-.19l-.05-.01-.64-.01-.29.34-.03.04-.07.08-.16.19-.03.03-.08.1-.21.25.04-.34.02-.14ZM78.85 27.224v-.04l.04-.27.01-.11.01-.06.04-.26-.71-.38.45-.34.02-.02h.01l.33-.25h.01l.02-.02.13-.1.18-.51.07-.22.03-.08.03-.09.07-.21.04-.11.02-.05.05.09.11.2.21.36.07.12.08-.03.24-.11.14-.05.51-.21-.22.38-.06.1-.1.18-.05.08-.05.07-.11.19-.11.2.1.59v.04l.07.39-.15-.01h-.09l-.64-.02-.28.34-.04.05-.06.07-.17.2-.03.03-.08.1-.21.24.05-.33.02-.14ZM82.32 25.144v-.04l.04-.27v-.1l.02-.06.04-.26-.71-.38.45-.34.02-.02.33-.25.02-.02.14-.1.18-.52.07-.22.03-.08.03-.09.07-.2.04-.11.02-.05.05.09.12.2.21.36.07.12.08-.03.24-.1.14-.06.51-.21-.22.38-.06.1-.11.18-.05.09-.04.07-.11.19-.11.19.1.6v.03l.07.39h-.24l-.64-.02-.29.34-.04.04-.06.07-.16.2-.03.03-.08.1-.21.24.04-.33.02-.14.01-.01Zm-6.9 7.94 14.94-9.15c.18-.11.33-.41.33-.66v-.27c0-.25-.15-.37-.33-.25l-14.94 9.15c-.18.11-.33.41-.33.66v.27c0 .25.15.37.33.25ZM85.8 23.054v-.04l.04-.27.01-.1.01-.06.04-.27-.71-.38.45-.34.02-.01.01-.01.33-.25h.01l.02-.01.13-.11.18-.51.07-.22.03-.08.03-.09.07-.2.04-.12.02-.04.04.08.12.2.21.36.07.12.08-.03.24-.1.14-.06.51-.21-.22.38-.06.1-.1.18-.05.08-.05.07-.11.2-.11.19.1.6v.03l.07.39h-.15l-.03-.01h-.06l-.64-.01-.28.34-.04.04-.06.07-.17.2-.03.03-.08.1-.21.25.05-.34.02-.14ZM89.27 20.974l.01-.05.03-.26.02-.11v-.06l.04-.26-.71-.38.45-.34.03-.02h.01l.33-.25.02-.02.14-.1.17-.51.08-.22.03-.08.03-.1.07-.2.03-.11.02-.05.05.09.11.2.21.36.07.12.08-.04.24-.1.14-.05.52-.21-.23.37-.05.1-.11.18-.05.09-.04.07-.12.19-.11.19.1.6.01.03v.01l.06.38h-.24l-.63-.02-.29.34-.04.05-.06.07-.16.2-.03.03-.09.1-.2.24.04-.33.02-.14Z" fill="#fff"/><path fill-rule="evenodd" clip-rule="evenodd" d="M76.91 100.244c0 1.84 5.91 5.24 7.93 6.47.21-.06 2.62-3.71 2.25-3.92-2.02-1.14-10.18-4.75-10.18-2.55Z" fill="#C9E3F6"/><path fill-rule="evenodd" clip-rule="evenodd" d="M76.91 100.244c0 1.84 8.71 5.46 8.74 5.4.38-.57.81-1.26 1.11-1.83.28-.54-9.86-5.78-9.86-3.58l.01.01Z" fill="#A0C6E9"/><path fill-rule="evenodd" clip-rule="evenodd" d="M85.94 102.884c-.87.51-1.58 1.76-1.58 2.78 0 1.02.71 1.44 1.58.93.87-.51 1.58-1.76 1.58-2.78 0-1.02-.71-1.44-1.58-.93Z" fill="#A0C6E9"/><path fill-rule="evenodd" clip-rule="evenodd" d="M86.56 103.104c.22.14.35.42.35.81 0 .81-.56 1.79-1.24 2.19-.21.12-.4.18-.57.17.22.14.54.12.88-.08.69-.4 1.24-1.39 1.24-2.19 0-.56-.27-.89-.67-.9h.01Z" fill="#5479BB"/><path fill-rule="evenodd" clip-rule="evenodd" d="M86.56 103.104c-.17 0-.37.05-.58.17-.68.4-1.24 1.38-1.24 2.19 0 .4.14.68.36.81.17 0 .36-.05.57-.17.68-.41 1.24-1.39 1.24-2.19 0-.4-.13-.68-.35-.81Z" fill="#6E96CE"/><path fill-rule="evenodd" clip-rule="evenodd" d="M85.69 103.974c-.26.15-.47.52-.47.83 0 .21.1.34.25.34.06 0 .14-.02.21-.06.26-.16.47-.52.47-.83 0-.15-.05-.26-.13-.31-.09-.05-.2-.05-.34.03h.01Z" fill="#A0C6E9"/><path fill-rule="evenodd" clip-rule="evenodd" d="M84.54 106.424c-.6-2.05 1.33-3.71 2.14-3.75-2.07.15-2.67 3.2-2.14 3.75Z" fill="#fff"/><path fill-rule="evenodd" clip-rule="evenodd" d="M85.83 104.064s0 .1.06.14c.06.04.12.04.15 0 .02-.04 0-.1-.06-.14-.06-.04-.13-.04-.15 0Z" fill="#fff"/><path fill-rule="evenodd" clip-rule="evenodd" d="M84.73 98.274c0 1.84 5.91 5.24 7.94 6.48.21-.06 2.63-3.71 2.25-3.93-2.02-1.14-10.18-4.75-10.18-2.55h-.01Z" fill="#C9E3F6"/><path fill-rule="evenodd" clip-rule="evenodd" d="M84.73 98.274c0 1.84 8.71 5.46 8.75 5.4.38-.57.81-1.27 1.11-1.83.29-.54-9.86-5.78-9.86-3.57Z" fill="#A0C6E9"/><path fill-rule="evenodd" clip-rule="evenodd" d="M93.76 100.914c-.87.51-1.58 1.76-1.58 2.78 0 1.02.71 1.44 1.58.93.87-.51 1.58-1.76 1.58-2.78 0-1.02-.71-1.44-1.58-.93Z" fill="#A0C6E9"/><path fill-rule="evenodd" clip-rule="evenodd" d="M94.38 101.144c.22.14.35.42.35.81 0 .81-.55 1.79-1.24 2.19-.21.12-.4.18-.57.17.22.14.54.12.89-.08.68-.41 1.24-1.39 1.24-2.19 0-.56-.27-.89-.67-.9Z" fill="#5479BB"/><path fill-rule="evenodd" clip-rule="evenodd" d="M94.38 101.144c-.17 0-.37.05-.57.17-.69.4-1.24 1.38-1.24 2.19 0 .4.13.68.35.81.17 0 .37-.05.57-.17.69-.4 1.24-1.38 1.24-2.19 0-.4-.13-.68-.35-.81Z" fill="#6E96CE"/><path fill-rule="evenodd" clip-rule="evenodd" d="M93.51 102.014c-.26.15-.47.52-.47.83 0 .21.1.34.25.34.07 0 .14-.02.22-.07.26-.15.47-.52.47-.83 0-.15-.05-.26-.14-.31-.09-.05-.2-.05-.34.03l.01.01Z" fill="#A0C6E9"/><path fill-rule="evenodd" clip-rule="evenodd" d="M92.36 104.454c-.6-2.04 1.34-3.7 2.14-3.75-2.07.15-2.67 3.2-2.14 3.75Z" fill="#fff"/><path fill-rule="evenodd" clip-rule="evenodd" d="M93.65 102.084s0 .11.06.15c.06.04.13.04.15 0 .03-.04 0-.1-.06-.15-.06-.04-.13-.04-.15 0Z" fill="#fff"/><path fill-rule="evenodd" clip-rule="evenodd" d="M102.22 87.074c0 1.84 5.91 5.24 7.93 6.47.21-.06 2.63-3.71 2.25-3.92-2.02-1.14-10.18-4.75-10.18-2.55Z" fill="#C9E3F6"/><path fill-rule="evenodd" clip-rule="evenodd" d="M102.22 87.074c0 1.84 8.71 5.46 8.74 5.41.38-.57.81-1.27 1.11-1.83.29-.54-9.85-5.78-9.85-3.58Z" fill="#A0C6E9"/><path fill-rule="evenodd" clip-rule="evenodd" d="M111.25 89.714c-.87.52-1.58 1.76-1.58 2.78 0 1.02.71 1.44 1.58.93.87-.51 1.58-1.76 1.58-2.78 0-1.02-.71-1.44-1.58-.93Z" fill="#A0C6E9"/><path fill-rule="evenodd" clip-rule="evenodd" d="M111.87 89.944c.22.13.36.41.36.81 0 .81-.56 1.79-1.24 2.19-.21.12-.4.18-.57.17.23.14.54.12.88-.08.69-.4 1.24-1.38 1.24-2.19 0-.56-.27-.89-.67-.9Z" fill="#5479BB"/><path fill-rule="evenodd" clip-rule="evenodd" d="M111.87 89.944c-.17 0-.36.05-.57.17-.69.4-1.24 1.38-1.24 2.19 0 .4.14.68.36.81.17 0 .37-.05.57-.17.68-.4 1.24-1.38 1.24-2.19 0-.4-.14-.68-.36-.81Z" fill="#6E96CE"/><path fill-rule="evenodd" clip-rule="evenodd" d="M111.01 90.814c-.26.15-.47.53-.47.83 0 .21.11.34.25.34.06 0 .14-.02.22-.07.26-.15.47-.52.47-.83 0-.15-.05-.26-.14-.31-.09-.05-.2-.05-.34.03l.01.01Z" fill="#A0C6E9"/><path fill-rule="evenodd" clip-rule="evenodd" d="M109.86 93.254c-.6-2.05 1.34-3.71 2.14-3.76-2.07.16-2.67 3.21-2.14 3.76Z" fill="#fff"/><path fill-rule="evenodd" clip-rule="evenodd" d="M111.15 90.894s0 .1.06.15c.06.04.13.04.16 0 .02-.04 0-.1-.06-.15-.06-.04-.13-.04-.15 0h-.01Z" fill="#fff"/><path fill-rule="evenodd" clip-rule="evenodd" d="M105.37 81.674c0 1.85 5.91 5.24 7.93 6.47.21-.06 2.63-3.71 2.25-3.92-2.02-1.14-10.18-4.75-10.18-2.55Z" fill="#C9E3F6"/><path fill-rule="evenodd" clip-rule="evenodd" d="M105.37 81.674c0 1.85 8.71 5.46 8.74 5.41.38-.57.81-1.27 1.11-1.83.29-.54-9.85-5.77-9.85-3.58Z" fill="#A0C6E9"/><path fill-rule="evenodd" clip-rule="evenodd" d="M114.4 84.324c-.87.51-1.57 1.76-1.57 2.78 0 1.02.7 1.44 1.57.93.87-.51 1.58-1.76 1.58-2.78 0-1.02-.71-1.44-1.58-.93Z" fill="#A0C6E9"/><path fill-rule="evenodd" clip-rule="evenodd" d="M115.02 84.544c.22.14.36.42.36.81 0 .81-.55 1.79-1.24 2.19-.21.12-.4.18-.57.17.23.14.54.12.89-.08.69-.4 1.24-1.38 1.24-2.19 0-.56-.27-.89-.67-.9h-.01Z" fill="#5479BB"/><path fill-rule="evenodd" clip-rule="evenodd" d="M115.02 84.544c-.17 0-.36.05-.57.17-.69.4-1.24 1.38-1.24 2.19 0 .4.13.68.35.81.17 0 .37-.05.57-.17.69-.4 1.24-1.38 1.24-2.19 0-.4-.13-.68-.36-.81h.01Z" fill="#6E96CE"/><path fill-rule="evenodd" clip-rule="evenodd" d="M114.15 85.414c-.26.15-.47.53-.47.83 0 .21.1.34.25.34.07 0 .14-.02.22-.06.26-.15.47-.53.47-.83 0-.15-.05-.26-.14-.31-.08-.05-.2-.05-.34.03h.01Z" fill="#A0C6E9"/><path fill-rule="evenodd" clip-rule="evenodd" d="M113 87.854c-.6-2.04 1.33-3.71 2.14-3.76-2.08.15-2.67 3.21-2.14 3.76Z" fill="#fff"/><path fill-rule="evenodd" clip-rule="evenodd" d="M114.29 85.494s0 .1.06.14c.06.04.13.04.15 0 .03-.04 0-.1-.06-.14-.06-.04-.13-.04-.15 0Z" fill="#fff"/><path fill-rule="evenodd" clip-rule="evenodd" d="M77.78 77.873v.34l4.65 2.37 5.13-6.85.05-.11v-.35l-5.46 6.09-4.37-1.49Z" fill="#6E96CE"/><path fill-rule="evenodd" clip-rule="evenodd" d="m87.46 73.074-1.34-.79c-.2-.12-.5-.12-.65 0l-7.69 5.6 4.65 2.37 5.14-6.85c.1-.1.05-.23-.1-.32l-.01-.01Z" fill="#A0C6E9"/><path fill-rule="evenodd" clip-rule="evenodd" d="M84.51 74.174c-.1-.06-.26-.06-.33 0l-5.15 3.82 2.74 1.61 3.48-4.86s.03-.12-.05-.17l-.69-.4Z" fill="#C9E3F6"/><path fill-rule="evenodd" clip-rule="evenodd" d="M94.6 88.324v.78l10.62 5.4 11.73-15.64a.4.4 0 0 0 .11-.26v-.78l-12.89 14.93-9.57-4.44v.01Z" fill="#6E96CE"/><path fill-rule="evenodd" clip-rule="evenodd" d="m116.71 77.354-3.06-1.8c-.46-.27-1.15-.28-1.5-.02L94.6 88.324l10.62 5.41 11.73-15.64c.21-.23.11-.53-.24-.74Z" fill="#A0C6E9"/><path fill-rule="evenodd" clip-rule="evenodd" d="m111.54 80.804-1.56-.92c-.23-.14-.59-.14-.76 0l-11.75 8.71 6.25 3.67 7.95-11.08c.11-.11.06-.27-.12-.38h-.01Z" fill="#C9E3F6"/><path fill-rule="evenodd" clip-rule="evenodd" d="M116.32 98.294c-3.78-4.02-40.05-23.63-41.53-22.54-1.8 1.33 10.82 14.98 16.44 19.4 10.18 7.19 22.52 13.57 30.3 14.28 1.56.19 2.62-1.57 1.74-2.9-2.33-3.53-6.95-8.25-6.95-8.25v.01Z" fill="#C9E3F6"/><path fill-rule="evenodd" clip-rule="evenodd" d="M120.9 109.044c1.56.19-27.12-7.16-44.97-30.78 10.18 15.8 31.53 28.18 44.97 30.78ZM85.27 80.694c22.71 13.82 33.22 20.69 30.23 17.54-4.11-3.09-25.15-15.49-30.23-17.54Z" fill="#A0C6E9"/><path fill-rule="evenodd" clip-rule="evenodd" d="M102.63 97.974a.56.56 0 0 1-.25-.44v-.78c-.09 0-.15.06-.15.18v.73c0 .16.11.36.25.45l.26.16c.13.07.23.02.25-.11l-.1-.03-.26-.15v-.01Z" fill="#5479BB"/><path fill-rule="evenodd" clip-rule="evenodd" d="m102.74 96.934-.26-.16-.1-.03v.78c0 .16.11.36.25.44l.26.15.1.03v-.77a.59.59 0 0 0-.25-.45v.01Z" fill="#6E96CE"/><path fill-rule="evenodd" clip-rule="evenodd" d="M104.28 98.944a.573.573 0 0 1-.26-.45v-.78c-.09 0-.15.06-.15.19v.73c0 .16.12.36.25.44l.26.16c.12.07.22.02.25-.1l-.1-.03-.26-.15.01-.01Z" fill="#5479BB"/><path fill-rule="evenodd" clip-rule="evenodd" d="m104.39 97.904-.26-.16-.1-.03v.77c0 .17.11.37.26.45l.26.15.1.03v-.78c0-.17-.11-.37-.25-.45l-.01.02Z" fill="#6E96CE"/><path fill-rule="evenodd" clip-rule="evenodd" d="M105.93 99.914a.57.57 0 0 1-.26-.44v-.73l.01-.04c-.09-.02-.16.05-.16.18v.72c0 .17.12.37.26.45l.26.15c.13.08.23.03.25-.1l-.1-.03-.26-.16Z" fill="#5479BB"/><path fill-rule="evenodd" clip-rule="evenodd" d="m106.04 98.874-.26-.15-.09-.03v.04l-.01.73c0 .17.11.37.26.45l.26.16.1.03v-.77a.56.56 0 0 0-.25-.44l-.01-.02Z" fill="#6E96CE"/><path fill-rule="evenodd" clip-rule="evenodd" d="M100.97 97.003a.578.578 0 0 1-.25-.45v-.78c-.09 0-.15.06-.15.18v.73c0 .16.11.37.25.45l.26.16c.13.07.23.03.25-.1l-.1-.03-.27-.16h.01Z" fill="#5479BB"/><path fill-rule="evenodd" clip-rule="evenodd" d="m101.09 95.964-.26-.15-.1-.03v.78c0 .17.11.36.25.45l.27.16.1.03v-.78c0-.16-.12-.36-.25-.45l-.01-.01Z" fill="#6E96CE"/><path fill-rule="evenodd" clip-rule="evenodd" d="M99.32 96.034a.563.563 0 0 1-.25-.45v-.78c-.08 0-.15.06-.15.19v.72c0 .17.11.37.26.45l.26.16c.12.07.22.03.25-.1l-.1-.04-.27-.16v.01Z" fill="#5479BB"/><path fill-rule="evenodd" clip-rule="evenodd" d="m99.44 94.994-.26-.15-.1-.04v.78c0 .16.12.37.25.45l.27.16.1.04v-.78c0-.16-.12-.36-.25-.45l-.01-.01Z" fill="#6E96CE"/><path fill-rule="evenodd" clip-rule="evenodd" d="M97.67 95.064a.563.563 0 0 1-.25-.45v-.77c-.09-.01-.15.05-.15.18v.73c0 .16.11.36.25.44l.27.15c.13.08.23.03.25-.1l-.1-.03-.27-.15Z" fill="#5479BB"/><path fill-rule="evenodd" clip-rule="evenodd" d="m97.79 94.024-.27-.15-.1-.03v.77c0 .17.11.37.25.45l.27.15.1.03v-.77c0-.16-.11-.37-.25-.45Z" fill="#6E96CE"/><path fill-rule="evenodd" clip-rule="evenodd" d="M96.02 94.084a.56.56 0 0 1-.25-.44v-.78c-.08 0-.15.06-.15.18v.73c0 .16.11.36.26.45l.26.15c.13.07.23.03.26-.1l-.1-.03-.27-.15-.01-.01Z" fill="#5479BB"/><path fill-rule="evenodd" clip-rule="evenodd" d="m96.13 93.054-.26-.15-.1-.03v.78c0 .16.12.36.25.44l.27.15.1.03v-.77c0-.17-.11-.37-.26-.45Z" fill="#6E96CE"/><path fill-rule="evenodd" clip-rule="evenodd" d="M94.38 93.124a.605.605 0 0 1-.26-.45v-.78c-.09-.01-.15.06-.15.18v.73c0 .17.11.36.25.45l.26.15c.13.08.24.02.25-.11l-.09-.03-.26-.15v.01Z" fill="#5479BB"/><path fill-rule="evenodd" clip-rule="evenodd" d="m94.48 92.084-.26-.16-.1-.03v.78c0 .16.11.36.26.45l.26.15.09.03v-.77c0-.17-.11-.36-.25-.45Z" fill="#6E96CE"/><path fill-rule="evenodd" clip-rule="evenodd" d="M92.73 92.154a.589.589 0 0 1-.26-.45v-.78c-.09 0-.16.06-.16.18v.73c0 .17.11.37.25.45l.26.16c.13.08.23.03.25-.1l-.09-.03-.26-.15.01-.01Z" fill="#5479BB"/><path fill-rule="evenodd" clip-rule="evenodd" d="m92.83 91.114-.26-.15-.09-.04v.78c0 .17.11.36.26.45l.26.15.09.03v-.78c0-.16-.11-.36-.25-.45l-.01.01Z" fill="#6E96CE"/><path fill-rule="evenodd" clip-rule="evenodd" d="M91.07 91.174c-.15-.08-.25-.28-.25-.45v-.78c-.09-.01-.15.06-.15.19v.72c0 .17.12.37.25.45l.26.15c.13.07.23.03.25-.1l-.09-.04-.26-.16-.01.02Z" fill="#5479BB"/><path fill-rule="evenodd" clip-rule="evenodd" d="m91.18 90.144-.26-.15-.09-.04v.78c0 .17.11.37.25.45l.26.15.09.04v-.78a.56.56 0 0 0-.25-.44v-.01Z" fill="#6E96CE"/><path fill-rule="evenodd" clip-rule="evenodd" d="M89.42 90.204a.563.563 0 0 1-.25-.45v-.77c-.09-.02-.16.05-.16.18v.73c0 .16.12.36.25.44l.26.15c.13.08.23.03.25-.1l-.1-.03-.26-.15h.01Z" fill="#5479BB"/><path fill-rule="evenodd" clip-rule="evenodd" d="m89.53 89.174-.26-.16-.09-.03v.77c0 .17.11.37.25.45l.26.15.1.03v-.76c0-.17-.11-.37-.25-.45h-.01Z" fill="#6E96CE"/><path fill-rule="evenodd" clip-rule="evenodd" d="M87.77 89.234a.57.57 0 0 1-.26-.44v-.78c-.08 0-.15.06-.15.18v.73c0 .16.11.36.25.45l.26.15c.12.07.23.03.25-.1l-.1-.03-.26-.15.01-.01Z" fill="#5479BB"/><path fill-rule="evenodd" clip-rule="evenodd" d="m87.88 88.204-.26-.15-.1-.04v.78c0 .16.11.36.26.44l.26.15.1.03v-.77c0-.17-.11-.37-.26-.45v.01ZM117.06 100.734l2.85 3.02c.39-.49.5-.96.5-.96s-1.62-1.94-2.78-3.13c0 0 .03.48-.57 1.07ZM114.43 102.044l.31 2.17c2.77 1.15 4.23.51 4.97-.24l-2.82-3.09c-.46.39-1.22.82-2.45 1.16h-.01ZM111.71 102.544c1.02.68 1.92 1.17 2.72 1.53l-.3-1.96c-.67.17-1.47.32-2.42.43Z" fill="#6E96CE"/><path fill-rule="evenodd" clip-rule="evenodd" d="m78.81 69.963-1.09-.64c-.24-.14-.45-.14-.6-.04l-.84.49.81.92.11-.27 5.47 9.81-3.16-9.38c-.15-.38-.42-.72-.71-.89h.01Z" fill="#C9E3F6"/><path fill-rule="evenodd" clip-rule="evenodd" d="m77.94 70.464-1.09-.64c-.45-.27-.81-.05-.81.48v6.12l6.63 3.8-4.02-8.87c-.14-.38-.42-.72-.71-.89Z" fill="#A0C6E9"/><path fill-rule="evenodd" clip-rule="evenodd" d="M76.04 72.494v1.34l5.08 2.98-.9-2-4.18-2.32Z" fill="#8EB6E1"/><path fill-rule="evenodd" clip-rule="evenodd" d="m80.22 74.814.9 2 .32-.24-.69-2.06-.53.3ZM67.31 102.644c-.17.08-.28-.37-.32-.25v.66c0 .16.12.33.35.46l3.06 1.8c.35.21.87.27 1.25.14l28-7.24v-.54l-27.85 6.06-4.5-1.11.01.02Z" fill="#6E96CE"/><path fill-rule="evenodd" clip-rule="evenodd" d="M67.31 102.004c-.43.2-.42.61.03.88l3.06 1.8c.35.21.87.27 1.25.14l28-7.13-10.41-6.12-21.94 10.43h.01Z" fill="#A0C6E9"/><path fill-rule="evenodd" clip-rule="evenodd" d="M74.95 100.114c-.22.11-.22.31.02.45l1.56.92c.18.11.44.13.64.07l18.85-4.68-6.25-3.67-14.83 6.91h.01Z" fill="#C9E3F6"/><path fill-rule="evenodd" clip-rule="evenodd" d="M66.55 83.474c-.08.03-.13-.16-.14-.11v.29c0 .07.05.14.15.2l1.34.79c.16.09.38.12.55.07l10.52-2.73v-.24l-10.64 2.43-1.78-.69v-.01Z" fill="#6E96CE"/><path fill-rule="evenodd" clip-rule="evenodd" d="M66.55 83.194c-.19.09-.19.27.01.39l1.34.79c.16.09.38.12.55.06l10.52-2.69-2.81-3.12-9.61 4.57Z" fill="#A0C6E9"/><path fill-rule="evenodd" clip-rule="evenodd" d="M69.9 82.364c-.1.04-.09.14 0 .2l.68.4c.08.05.19.06.28.03l7.16-1.72-1.64-1.94-6.5 3.03h.02ZM77.17 39.954l-9.95 5.74 9.95 5.74 9.95-5.74-9.95-5.74Z" fill="#C9E3F6"/><path fill-rule="evenodd" clip-rule="evenodd" d="M67.22 45.694v11.01l9.95 5.74v-11.01l-9.95-5.74Z" fill="#A0C6E9"/><path fill-rule="evenodd" clip-rule="evenodd" d="m77.17 62.444 9.95-5.74v-11.01l-9.95 5.74v11.01Z" fill="#B7D9F2"/><path fill-rule="evenodd" clip-rule="evenodd" d="m71.49 43.234 1.42-.82 9.94 5.74v3.28l-1.42.82v-3.28l-9.94-5.74Z" fill="#fff"/><path fill-rule="evenodd" clip-rule="evenodd" d="M75.75 60.374v.67c0 .05.03.11.08.13l.58.33c.06.03.14 0 .14-.08v-.67c0-.06-.03-.11-.08-.13l-.58-.33c-.06-.04-.14 0-.14.08ZM74.83 59.834v.67c0 .05.03.11.08.13l.58.33c.06.03.14 0 .14-.08v-.67c0-.06-.03-.11-.08-.13l-.58-.33c-.06-.04-.14 0-.14.08Z" fill="#80A8D8"/><path fill-rule="evenodd" clip-rule="evenodd" d="m85.46 53.434 5.13 2.96-5.13 2.96-5.13-2.96 5.13-2.96Z" fill="#C9E3F6"/><path fill-rule="evenodd" clip-rule="evenodd" d="M90.59 56.394v5.08l-5.13 2.96v-5.08l5.13-2.96Z" fill="#B7D9F2"/><path fill-rule="evenodd" clip-rule="evenodd" d="m85.46 64.434-5.13-2.96v-5.08l5.13 2.96v5.08Z" fill="#A0C6E9"/><path fill-rule="evenodd" clip-rule="evenodd" d="m88.39 55.124-.73-.42-5.13 2.96v1.69l.73.43v-1.7l5.13-2.96Z" fill="#fff"/><path fill-rule="evenodd" clip-rule="evenodd" d="M86.2 63.364v.34s-.02.05-.04.07l-.3.17s-.07 0-.07-.04v-.34s.01-.05.04-.07l.3-.17s.07 0 .07.04ZM86.67 63.094v.34s-.02.05-.04.07l-.3.17s-.07 0-.07-.04v-.34s.01-.05.04-.07l.3-.17s.07 0 .07.04Z" fill="#80A8D8"/><path fill-rule="evenodd" clip-rule="evenodd" d="m145.18 47.854-.13 12.42.52.31-.1 10.01-1.22-.72.23-22.43.7.41Z" fill="#248A8F"/><path fill-rule="evenodd" clip-rule="evenodd" d="m135.12 15.084 1.62 2.87-.31 42.72c-.02 2.17 1.28 4.73 2.9 5.68l13.21 7.81 1.77 3.14 2.7-1.52c.61-.37 1-1.19 1.01-2.35l.33-44.73c.02-2.17-1.29-4.73-2.9-5.68l-15.71-9.28c-.77-.46-1.48-.46-2.01-.12l-2.6 1.46h-.01Z" fill="#8EB6E1"/><path fill-rule="evenodd" clip-rule="evenodd" d="M134.15 17.414c.02-2.17 1.36-3.16 2.98-2.21l15.71 9.28c1.62.95 2.92 3.51 2.9 5.68l-.33 44.73c-.02 2.17-1.36 3.16-2.98 2.21l-15.71-9.29c-1.62-.95-2.92-3.51-2.9-5.68l.33-44.73v.01Z" fill="#fff"/><path fill-rule="evenodd" clip-rule="evenodd" d="M152.84 25.084c1.38.82 2.48 2.98 2.46 4.83l-.33 44.73c-.02 1.85-1.16 2.69-2.53 1.87l-15.71-9.29c-1.38-.81-2.48-2.98-2.46-4.83l.33-44.73c.02-1.85 1.15-2.69 2.53-1.88l15.71 9.28v.02Z" fill="#B7D9F2"/><path fill-rule="evenodd" clip-rule="evenodd" d="m135.4 22.364 19.02 11.24-.25 36.23-19.01-11.24.24-36.23Z" fill="#80A8D8"/><path fill-rule="evenodd" clip-rule="evenodd" d="m148.34 35.254-14.83-8.56-.05 19.35 14.83 8.57.05-19.36Z" fill="#C9E3F6"/><path fill-rule="evenodd" clip-rule="evenodd" d="M138.78 34.094c-.81-.47-1.47-.09-1.47.84 0 .93.65 2.06 1.46 2.53.81.47 1.47.09 1.47-.84 0-.93-.65-2.06-1.46-2.53ZM142.97 39.544l-4.16 1.61-1.95-2.91-2.12 1.65v.97l12.2 7.05.01-1.17-3.98-7.2Z" fill="#fff"/><path fill-rule="evenodd" clip-rule="evenodd" d="M138.77 37.464c-.81-.47-1.46-1.6-1.46-2.53 0-.93.66-1.31 1.47-.84.81.47 1.46 1.6 1.46 2.53 0 .93-.66 1.31-1.47.84Zm8.21-1.31-12.2-7.05-.03 10.78 2.11-1.64 1.95 2.9 4.17-1.61 3.98 7.2.03-10.59-.01.01ZM148.34 35.254l2.95-1.72-14.83-8.56-2.95 1.72 14.83 8.56Z" fill="#A0C6E9"/><path fill-rule="evenodd" clip-rule="evenodd" d="m148.29 54.614 2.95-1.72.05-19.36-2.95 1.72-.05 19.36Z" fill="#8EB6E1"/><path fill-rule="evenodd" clip-rule="evenodd" d="M19.48 38.084v-.16c0-.05 0-.11.01-.16 0-.05.01-.11.02-.16 0-.06.02-.11.02-.17 0-.06.02-.11.03-.17 0-.06.02-.12.04-.17.01-.06.02-.12.04-.17.01-.06.03-.12.04-.18.02-.06.03-.12.05-.18.02-.06.04-.11.06-.17.02-.06.04-.11.06-.17.02-.05.04-.11.06-.16.02-.05.04-.11.06-.16.02-.05.05-.11.07-.16.02-.05.05-.11.07-.16l.09-.18c.03-.07.07-.13.1-.2.05-.1.11-.2.16-.29.08-.14.16-.27.25-.4l.21-.3c.05-.06.1-.13.15-.19l.13-.16c.04-.05.08-.1.13-.15.04-.05.09-.1.13-.14.04-.05.09-.09.14-.14.04-.05.09-.09.14-.14.05-.05.1-.09.14-.14.05-.04.1-.09.15-.13l.15-.12c.05-.04.1-.08.15-.11.05-.04.1-.07.14-.1.05-.03.09-.06.14-.09.05-.03.09-.06.14-.09.01 0 .02-.01.03-.02l23.3-13.2s.07-.04.11-.06c.05-.03.09-.05.14-.07.04-.02.09-.04.14-.06.04-.02.09-.04.13-.06.04-.02.09-.03.13-.05.04-.02.09-.03.13-.04.04-.01.09-.03.14-.04l.14-.03c.05 0 .1-.02.15-.02.05 0 .1-.01.15-.01h.33c.06 0 .13.02.19.03.08.02.16.04.23.06.09.03.18.07.27.12l3.64 2.11c-.09-.05-.17-.09-.27-.12a.977.977 0 0 0-.23-.06l-.19-.03h-.33c-.05 0-.1 0-.15.01-.05 0-.1.01-.14.02-.05 0-.09.02-.14.03-.04.01-.09.02-.14.04-.04.01-.09.03-.13.04-.04.01-.09.03-.13.05-.04.02-.09.04-.13.06-.04.02-.09.04-.14.06-.05.02-.09.05-.14.07-.03.02-.07.04-.11.06l-23.3 13.2s-.02.01-.03.02c-.05.03-.09.06-.14.09-.05.03-.09.06-.14.09-.05.03-.1.07-.14.1-.05.04-.1.07-.14.11l-.15.12c-.05.04-.1.08-.15.13-.05.04-.1.09-.15.14-.05.04-.09.09-.14.14l-.14.14c-.04.05-.09.1-.13.14-.04.05-.08.1-.13.15-.04.05-.09.1-.13.16-.05.06-.1.13-.15.19l-.21.3c-.09.13-.17.26-.25.4-.06.1-.11.19-.16.29-.04.07-.07.13-.1.2-.03.06-.06.12-.08.18-.03.05-.05.11-.07.16-.02.05-.05.1-.07.16-.02.05-.04.11-.07.16-.02.06-.04.11-.06.16-.02.06-.04.11-.06.17-.02.06-.04.11-.06.17-.02.06-.04.12-.05.18-.02.06-.03.12-.05.18-.01.06-.03.12-.04.17-.01.06-.02.12-.03.17l-.03.17c0 .06-.02.11-.02.17 0 .05-.01.11-.02.16 0 .05 0 .11-.01.16v.31l.04 24.54v.17c0 .05 0 .1.01.16 0 .05 0 .11.02.16 0 .05.01.11.02.16 0 .06.02.11.03.16.01.06.03.11.04.17.02.06.04.12.06.17.03.07.05.13.08.19.04.08.08.16.13.23.15.24.35.43.58.56l-3.64-2.11c-.23-.13-.42-.32-.58-.56-.05-.07-.09-.15-.13-.23-.03-.06-.06-.12-.08-.19-.02-.06-.04-.11-.06-.18-.02-.05-.03-.11-.05-.17l-.03-.16c0-.05-.02-.1-.02-.16 0-.05-.01-.11-.02-.16v-.32l-.04-24.54v-.15h-.01Z" fill="#A0C6E9"/><path fill-rule="evenodd" clip-rule="evenodd" d="M26.43 34.614c-1.83 1.06-3.32 3.63-3.31 5.74l.04 24.54c0 2.11 1.5 2.96 3.33 1.9l23.3-13.2c1.84-1.06 3.32-3.63 3.31-5.74l-.04-24.54c0-2.11-1.5-2.96-3.33-1.9l-23.3 13.2Z" fill="#C9E3F6"/><path fill-rule="evenodd" clip-rule="evenodd" d="M29.97 46.984c-.5-.86-.12-2.15.86-2.89.98-.74 2.18-.64 2.68.22l2.01 3.41 7.91-15.82c.54-1.09 1.76-1.71 2.72-1.4.96.32 1.29 1.45.75 2.54l-9.7 19.39c-.18.39-.47.76-.85 1.04-.98.74-2.18.64-2.68-.22l-3.7-6.27Z" fill="#fff"/><path fill-rule="evenodd" clip-rule="evenodd" d="m115.13 20.824 1.76 1.01-1.78 3.01-.94.56.96-4.58Z" fill="#A0C6E9"/><path fill-rule="evenodd" clip-rule="evenodd" d="m114.19 21.384 1.76 1.02-1.78 3 .02-4.02Z" fill="#C9E3F6"/><path fill-rule="evenodd" clip-rule="evenodd" d="m124.03 25.364.46 1.22-.94.52-.39-.76.87-.98Z" fill="#A0C6E9"/><path fill-rule="evenodd" clip-rule="evenodd" d="m114.82 21.124 9.34 5.39c.3.17.54-.01.54-.41v-8.62c0-.4-.24-.85-.54-1.03l-9.34-5.39c-.3-.17-.54.01-.54.41v8.63c0 .39.24.85.54 1.03v-.01Z" fill="#A0C6E9"/><path fill-rule="evenodd" clip-rule="evenodd" d="M115.14 11.994c-.05-.03-.69-.94-.69-.94l-.99.61.54.89 1.14-.56Z" fill="#A0C6E9"/><path fill-rule="evenodd" clip-rule="evenodd" d="m113.9 21.664 9.34 5.39c.3.17.54 0 .54-.41v-8.61c0-.4-.24-.86-.54-1.03l-9.34-5.39c-.3-.17-.54.01-.54.41v8.63c0 .4.24.86.54 1.03v-.02Z" fill="#C9E3F6"/><path fill-rule="evenodd" clip-rule="evenodd" d="M120.76 20.604c0 .59.36 1.28.81 1.54.44.26.81-.02.81-.61s-.36-1.28-.81-1.54c-.45-.26-.81.02-.81.61ZM117.76 18.874c0 .59.36 1.29.81 1.54.44.26.81-.02.81-.61 0-.6-.36-1.29-.81-1.54-.45-.26-.81.02-.81.61ZM114.77 17.134c0 .59.36 1.29.81 1.54.45.26.81-.02.81-.61s-.36-1.29-.81-1.54c-.45-.26-.81.02-.81.61Z" fill="#fff"/><path fill-rule="evenodd" clip-rule="evenodd" d="M47.6 51.004c-.67 2.89-1.39 5.75.53 7.82 1.91 2.06 4.22.13 4.22.13l1.28-4.52-.17-5.63h-4.94l-.45.86s-.16.11-.47 1.33v.01Z" fill="#101E3B"/><path fill-rule="evenodd" clip-rule="evenodd" d="M53.16 46.014c-.85.8-3.98 2.45-4.64 2.79-1.61.84-1.17 3.08-1.17 3.08s.69-2.11 1.17-2.27c.68-.22 2.57 1.48 2.57 1.48l4.64-2.29s-1.72-3.59-2.57-2.79Z" fill="#2561AD"/><path fill-rule="evenodd" clip-rule="evenodd" d="M56.05 47.664c1.2.15 2.56 1.47 3.39 1.67.84.2 1.88 2.55 1.01 2.51-1.98-.48-4.4-1.45-4.4-1.45l-1.07-2.29s-.13-.59 1.07-.44Z" fill="#2F73B7"/><path fill-rule="evenodd" clip-rule="evenodd" d="M51.99 58.454c.08.72-.43 1.17-.43 1.17l.43.95 1.28.72 2.34-.64 1.83-1.01.45-1s-.17-.67-.34-1.22c-.19-.13-.66-.43-.66-.43l-2.94.8s-1.77.46-1.97.67l.01-.01Z" fill="#F4AE92"/><path fill-rule="evenodd" clip-rule="evenodd" d="M56.3 79.254c.34.52 1.92 1.83 2.26 2.15.41.37.39 1.2-.03 1.42-.42.22-1.14-.03-1.55-.3-.41-.26-1.44-1.31-1.44-1.31s-1.02-.2-1.3-.7c-.28-.5.12-1.64.18-2.04l1.89.79-.01-.01Z" fill="#101E3B"/><path fill-rule="evenodd" clip-rule="evenodd" d="M54.41 78.464c.29-2-.21-3.84.13-4.85l2.61.47c-.47 1.38-1.14 3.74-.85 5.17 0 0 .39.81-.36.81-1.18 0-1.53-1.6-1.53-1.6Z" fill="#F4AE92"/><path fill-rule="evenodd" clip-rule="evenodd" d="M54.54 73.614c.34-1 .88-1.57.88-1.57s-1.19-5.43-1.19-6.99v-2.09s3.64-3.8 3.88-3.42c1.38 6.87-.57 13.45-.57 13.45s-.18.43-.4 1.09c0 0-.44.7-1.43.48-.99-.22-1.18-.95-1.18-.95h.01Z" fill="#072B5D"/><path fill-rule="evenodd" clip-rule="evenodd" d="M54.98 48.484v1.63l-1.42.57-1.68-.79-.33-1.88 1.36-.84 2.07 1.31Z" fill="#F09172"/><path fill-rule="evenodd" clip-rule="evenodd" d="M48.98 79.614c-.06.25-.33.73-.33 1.27s.25 1.67.91 2.49c.76 1.05 2.52.85 2.66.42.33-1.03-1.41-2.19-1.74-3.48l-1.5-.7Z" fill="#101E3B"/><path fill-rule="evenodd" clip-rule="evenodd" d="M50.48 80.314c-.09-.88.03-3.78.38-6.58l-2.71-.75c-.22 1.25.85 4.01.82 6.62 0 0 .03 1.82 1.19 1.66.53-.07.31-.96.31-.96l.01.01Z" fill="#F4AE92"/><path fill-rule="evenodd" clip-rule="evenodd" d="M50.87 73.744c.03-.25.07-.5.1-.75 2.64-4 3.57-8.32 3.57-8.32s2.29-1.17 3.57-5.13c-.09-.38-.81.08-.81.08l-3.74 1.66s-2.13-1.15-2.59-.83c-1.66 1.68-1.75 10.28-1.75 10.28s-.83 1-1.06 2.26c0 0 .28 1.06 1.28 1.23 1 .17 1.43-.48 1.43-.48Z" fill="#103E7D"/><path fill-rule="evenodd" clip-rule="evenodd" d="M51.55 59.624c1.89 2.88 6.34-.98 6.34-.98l.22.9s-4.76 4.07-7.15.91c.15-.21.5-.62.59-.83Z" fill="#101E3B"/><path fill-rule="evenodd" clip-rule="evenodd" d="M50.06 52.194s-.4 5.84.13 7.17c.22.35.93.4.65-.25-.49-1.96-.08-6.75-.08-6.75l-.7-.16v-.01Z" fill="#2561AD"/><path fill-rule="evenodd" clip-rule="evenodd" d="M50.28 55.634c.86 1.21 1.43 2.27 1.71 2.82 1.5 1.87 5.57-1.04 5.57-1.04l.34-2.26s1-.75.94-1.7c-.06-.96-2.24-3.33-3.22-5-.13-.45-1.02.16-1.02.16s.41 1.12-.25 1.53c-.95.61-2.71-1.1-2.71-1.1s-.75.77-2.03 1.96c.02.51.06 3.04.66 4.63h.01Z" fill="#4385C6"/><path fill-rule="evenodd" clip-rule="evenodd" d="M54.34 57.114c-.05 0-.09-.01-.12-.04-.28-.38 3.67-1.91 3.67-1.91s-2.89 1.95-3.55 1.95Z" fill="#2F73B7"/><path fill-rule="evenodd" clip-rule="evenodd" d="M54.76 48.764c2.33 1.92 3.14 2.9 3.14 2.9s.4-.94-2.17-3.46c-.37-.02-.8.4-.96.56h-.01Z" fill="#103E7D"/><path fill-rule="evenodd" clip-rule="evenodd" d="M55.16 48.573c2.42 5.74-2.02 11.7-2.02 11.7l.31.66s5.16-5.32 2.27-12.72c-.09-.16-.65-.02-.56.37v-.01Z" fill="#2561AD"/><path fill-rule="evenodd" clip-rule="evenodd" d="M52.66 55.474c-.8 1.95-1.69 2.12-1.69 2.12l.42.57s1.16-.77 1.83-2.53c-.05-.11-.53-.38-.55-.16h-.01Z" fill="#103E7D"/><path fill-rule="evenodd" clip-rule="evenodd" d="M50.28 50.334c3.3 2.6 2.2 5.22 2.2 5.22l.81.22s1.83-3.12-2.23-6.24c-.36.07-.67.6-.78.79v.01Z" fill="#103E7D"/><path fill-rule="evenodd" clip-rule="evenodd" d="M56.52 44.434c.13 1.8.57 2.39.54 3.17-.03.78-.82 1.32-.82 1.32s-.07-.71-.35-.78c-.28-.07-.82-2.73-.82-2.73l.89-.99s.6-.43.57 0l-.01.01Z" fill="#101E3B"/><path fill-rule="evenodd" clip-rule="evenodd" d="M56.41 44.694c.1 1.81-.07 4.08-.79 4.29-1.33.39-2.79-1.19-2.79-1.19l-.06-2.86 1.2-2.05 1.83.68.61.47s.01.37 0 .66ZM58.49 46.344c.78 1.91 1.13 3.94 1.52 4.87.39.93 1.18 1.07 1.68.93.49-.38.54-1.04.21-2.15-.33-1.11-1.62-2.96-2.44-4.55-.31-.1-.86.34-.98.9h.01Z" fill="#F4AE92"/><path fill-rule="evenodd" clip-rule="evenodd" d="M55.58 45.684s.74-.55 1.26-.66c1.16-.24 2.41.12 2.59.34.17.23.03.74-.77.95-.25.07-.63-.08-.63-.08s-.46.05-.9.11c-.45.06-1.01.13-1.36-.12-.35-.25-.19-.55-.19-.55v.01Z" fill="#F4AE92"/><path fill-rule="evenodd" clip-rule="evenodd" d="M56.41 44.694s-.27-.79-.52-.83c-.47-.07-.97.5-.97.5s-.64-.15-1.02.17-.99 2.92-.86 4.36c-.2-.14-.42-.58-.49-.96-.45 1.4.28 2.59.28 2.59s-1.27.08-1.65-.99c-.17-.03-.44.78-.44.78s-.88-1.74-.69-3.02c.19-1.29.39-4.81 1.96-5 0 0 .69-.96 1.84-.69.85.2 2.23 1.32 2.6 2.25.18.46-.04.83-.04.83v.01Z" fill="#101E3B"/><path fill-rule="evenodd" clip-rule="evenodd" d="M54.29 43.804s-2.18-1.14-1.96-1.31c.01 0 .03-.01.05-.01.35 0 1.91 1.33 1.91 1.33v-.01Z" fill="#101E3B"/><path fill-rule="evenodd" clip-rule="evenodd" d="M47.13 71.854c1.88 2.42 3.97.22 3.97.22s.22-.76-.92-1.8c-.95-2.15-1.86-2.54-1.86-2.54-.55.22-1.28.84-1.63 1.3-.58.76-.04 2.12.44 2.81v.01Z" fill="#2F73B7"/><path fill-rule="evenodd" clip-rule="evenodd" d="M47.12 71.594c.09.16.23.26.31.21.08-.04.07-.21-.02-.37-.09-.16-.23-.26-.31-.21-.08.04-.07.21.02.37ZM48.31 67.504c.05.24.44.33.44.33l-.06-1.35s-.34.15-.41.35c-.08.19-.03.43.03.67Z" fill="#E10414"/><path fill-rule="evenodd" clip-rule="evenodd" d="M48.11 67.824c-.09.27.2.83.2.83.62 1.01 1.87 1.62 1.87 1.62s.39-1.34.13-1.93c-.18-.37-1.09-.12-1.68-.88-.64-.87.23-.9.02-1.02-.71.29-.52 1.05-.55 1.39l.01-.01Z" fill="#4385C6"/><path fill-rule="evenodd" clip-rule="evenodd" d="M48.7 62.304c-.06.83-.4 1.53-.26 1.91.14.38 2.47 1.48 3.03 1.61.56.14 1.17-.19 1.68-.69.51-.49.49-4.57.49-4.57l-3.15-.56c-.08-.09-1.73 1.45-1.79 2.29v.01Z" fill="#101E3B"/><path fill-rule="evenodd" clip-rule="evenodd" d="M50.17 59.164c1.11-.23 3.46.98 3.46 1.41 0 .25-.35.22-.77.52-.87.61-.97 3.14-1.54 2.89-1.17-.72-2.04-1.17-2.88-1.58.38-1.67.54-2.99 1.72-3.24h.01Z" fill="#072B5D"/><path fill-rule="evenodd" clip-rule="evenodd" d="M49.43 58.914c-.28 3.18-1.1 4.5-1.1 6.64.1.44.97 1.03.81 2.32-.43-.21-.62-.58-.62-.58-.2.3.25 1.76-.11 2s-1.3-.51-1.49-1.33c-.19-.83.2-1.72.28-2.22.09-2.51-.5-5.03.25-7.46.52-.25 1.07-.19 1.07-.19s.94.14.91.81v.01Z" fill="#F4AE92"/><path fill-rule="evenodd" clip-rule="evenodd" d="M50.55 50.924c-1.89-.57-2.12 2.9-2.12 2.9s-.64 3.43-.97 4.47c.53.89 1.97.63 1.97.63s1.61-4.48 1.96-5.33c.34-.85.16-2.37-.84-2.67Z" fill="#2F73B7"/><path fill-rule="evenodd" clip-rule="evenodd" d="M47.06 85.433c.28-.27.58-.36.77-.25l.6.35-1.07 1.81-.6-.35-.15-.2c-.14-.36.06-.97.44-1.36h.01Z" fill="#5D84C2"/><path fill-rule="evenodd" clip-rule="evenodd" d="M47.19 87.124c.14.37.57.35.96-.03s.58-.99.45-1.36c-.14-.37-.57-.35-.96.03s-.59.99-.45 1.36Z" fill="#789FD3"/><path fill-rule="evenodd" clip-rule="evenodd" d="M47.56 86.834c.09.13.28.11.46-.07.19-.2.3-.51.23-.69l-.17-.14.02.04c.07.19-.03.5-.23.69l-.31.16v.01Z" fill="#5D84C2"/><path fill-rule="evenodd" clip-rule="evenodd" d="m47.54 86.784.03.05.31-.16c.2-.2.3-.51.23-.69l-.02-.04-.31.15c-.2.2-.3.51-.23.69h-.01Z" fill="#fff"/><path fill-rule="evenodd" clip-rule="evenodd" d="m46.74 85.244-.17-.06-3.31 1.91h-.06l-4.95-2.86 3.11-1.8.04-.05-.1-.31-.17-.06-3.31 1.91c-.42.24-.15.53.05.63l5.09 2.94s.25.17.56 0l3.3-1.9.04-.05-.1-.31-.02.01Z" fill="#789FD3"/><path fill-rule="evenodd" clip-rule="evenodd" d="m47.5 71.374-6.35-3.68c-.18-.11-.35-.12-.47-.05l-3.4 1.97 3.2 7.82v3.15c0 .42.3.94.67 1.16l1.44.83 1.99 4.85 3.39-1.95c.12-.07.2-.22.2-.43v-12.51c0-.42-.3-.94-.67-1.15v-.01Z" fill="#789FD3"/><path fill-rule="evenodd" clip-rule="evenodd" d="m46.04 72.204-6.36-3.68c-.18-.11-.35-.12-.47-.05l-.18.11c.12-.06.27-.05.45.05l6.36 3.68c.36.21.66.73.66 1.15v4.09l.2-.12v-4.09c0-.42-.3-.94-.66-1.15v.01Z" fill="#5479BB"/><path fill-rule="evenodd" clip-rule="evenodd" d="M44.79 86.984c0 .42-.3.6-.66.38l-6.35-3.68c-.37-.21-.67-.73-.67-1.15v-12.51c0-.43.3-.6.67-.39l6.35 3.68c.37.21.66.73.66 1.15v12.52Z" fill="#8EB6E1"/><path fill-rule="evenodd" clip-rule="evenodd" d="m45.38 79.284 2.26-1.31.16-.02.63.36-.56 4.96v1.12c0 .15-.11.33-.24.41l-.51.3-1.26 1.39-.65-.37-.07-.15v-6.29c0-.15.11-.33.24-.41v.01Z" fill="#fff"/><path fill-rule="evenodd" clip-rule="evenodd" d="M45.77 86.344c0 .15.11.21.24.14l2.25-1.31c.13-.07.24-.26.24-.41v-6.29c0-.15-.11-.21-.24-.14l-2.25 1.31c-.13.07-.24.26-.24.41v6.29Z" fill="#B7D9F2"/><path fill-rule="evenodd" clip-rule="evenodd" d="m46.12 81.094 2.1-1.21v-.19l-2.1 1.21v.19Z" fill="#5D84C2"/><path fill-rule="evenodd" clip-rule="evenodd" d="M44.01 74.804v2.61l-.06.15-.37.22-4.27-2.82-.97-.56a.538.538 0 0 1-.24-.41v-.59l-.33-1.93.4-.24.17.02 5.45 3.15c.13.07.24.26.24.41l-.02-.01Z" fill="#B7D9F2"/><path fill-rule="evenodd" clip-rule="evenodd" d="M37.94 71.484c-.13-.07-.24-.01-.24.14v2.61c0 .15.11.34.24.41l5.45 3.15c.13.08.23.01.23-.14v-2.61c0-.15-.11-.33-.24-.41l-5.45-3.15h.01Z" fill="#fff"/><path fill-rule="evenodd" clip-rule="evenodd" d="m43.13 75.464-5.04-2.91v-.19l5.03 2.91.01.19Z" fill="#5D84C2"/><path fill-rule="evenodd" clip-rule="evenodd" d="M44.01 79.684v6.08l-.06.15-.71.41-3.93-3.01-.97-.56a.538.538 0 0 1-.24-.41v-4.06l-.65-1.76.71-.41.17.02 5.45 3.14c.13.07.24.26.24.41h-.01Z" fill="#B7D9F2"/><path fill-rule="evenodd" clip-rule="evenodd" d="M37.62 76.544c-.13-.08-.24-.02-.24.14v6.08c0 .15.11.34.24.42l5.45 3.14c.13.07.23.01.23-.14v-6.08c0-.15-.11-.33-.24-.41l-5.44-3.14v-.01Z" fill="#fff"/><path fill-rule="evenodd" clip-rule="evenodd" d="m42.8 80.903-5.04-2.9v-.19l5.04 2.9v.19Z" fill="#5D84C2"/><path fill-rule="evenodd" clip-rule="evenodd" d="M45.83 71.294c-.14-.04-.23-.12-.23-.2v-.25l.8.02v.23l-.04.1c-.09.12-.33.17-.53.11v-.01Z" fill="#5479BB"/><path fill-rule="evenodd" clip-rule="evenodd" d="M46.36 70.943c.09-.11 0-.25-.19-.3-.2-.05-.43 0-.53.11-.09.12 0 .25.19.31.2.05.44 0 .53-.11v-.01Z" fill="#80A8D8"/><path fill-rule="evenodd" clip-rule="evenodd" d="M41.29 68.624c-.15-.03-.23-.12-.23-.2v-.25l.8.02v.23l-.03.1c-.1.12-.33.17-.53.11l-.01-.01Z" fill="#5479BB"/><path fill-rule="evenodd" clip-rule="evenodd" d="M41.81 68.294c.09-.12 0-.26-.19-.31-.2-.05-.44 0-.53.11-.09.12 0 .25.2.31.2.05.43 0 .53-.11h-.01Z" fill="#80A8D8"/><path fill-rule="evenodd" clip-rule="evenodd" d="m41.55 68.294.14-.12v-1.62l-.48.01v1.6l.02.06.32.07Z" fill="#8EB6E1"/><path fill-rule="evenodd" clip-rule="evenodd" d="m41.24 66.624.11-.18.32.06-.12.18-.31-.06Z" fill="#BABCBD"/><path fill-rule="evenodd" clip-rule="evenodd" d="m46.1 70.954.14-.12v-1.62h-.48v1.61l.02.06.32.07Z" fill="#8EB6E1"/><path fill-rule="evenodd" clip-rule="evenodd" d="m45.78 69.284.12-.19.32.07-.12.18-.32-.06Z" fill="#BABCBD"/><path fill-rule="evenodd" clip-rule="evenodd" d="M41.19 65.764c.14-.14.29-.18.39-.12l.29.17-.55.91-.26-.15-.09-.11c-.07-.19.03-.49.23-.69l-.01-.01Z" fill="#80A8D8"/><path fill-rule="evenodd" clip-rule="evenodd" d="M41.23 66.604c.07.18.29.18.48-.02.2-.19.3-.5.23-.69-.07-.19-.29-.18-.48.02-.19.19-.3.5-.23.69Z" fill="#5479BB"/><path fill-rule="evenodd" clip-rule="evenodd" d="m41.5 66.094.19-.06 4.61 2.64-.27.44-4.59-2.63-.05-.05.11-.34Z" fill="#8EB6E1"/><path fill-rule="evenodd" clip-rule="evenodd" d="m45.99 69.064.24-.01.11-.34-.24.01-.11.34Z" fill="#68696C"/><path fill-rule="evenodd" clip-rule="evenodd" d="M45.77 68.404c.14-.14.29-.18.39-.13l.29.16-.55.91-.26-.15-.09-.11c-.07-.19.03-.49.22-.69v.01Z" fill="#80A8D8"/><path fill-rule="evenodd" clip-rule="evenodd" d="M45.81 69.244c.07.19.28.18.48-.02.19-.2.29-.5.23-.69-.07-.18-.29-.18-.48.02-.19.19-.3.5-.22.69h-.01Z" fill="#5479BB"/><path fill-rule="evenodd" clip-rule="evenodd" d="M144.36 56.224c.41.24.74.81.74 1.29 0 .16-.04.28-.11.37.38.5.66 1.19.74 1.86l-2.77-1.6c.08-.58.36-.95.75-1-.06-.17-.1-.34-.1-.49 0-.47.34-.66.75-.43Z" fill="#FBFCFD"/><path fill-rule="evenodd" clip-rule="evenodd" d="M147.49 58.764v-.12l-.01-.12-.02-.12-.02-.13-.02-.12-.03-.13-.03-.13-.03-.13-.03-.11v-.03l-.04-.13-.04-.13-.05-.12-.05-.12-.04-.09v-.02l-.06-.12-.06-.13-.08-.15-.09-.16-.02-.03-.02-.03c-.06-.1-.12-.2-.18-.29-.05-.08-.1-.15-.16-.22l-.11-.14-.1-.12-.1-.11-.1-.11-.02-.02-.07-.09-.1-.1-.11-.1-.11-.1-.05-.04h-.01l-.04-.05-.11-.08-.11-.08-.11-.07-.1-.07h-.03l-.08-.06-.1-.05-.07-.03h-.01l-.02-.02-.1-.04-.1-.04h-.03l-.07-.02-.1-.03h-.05l-.02-.02h-.03l-.11-.03h-.35l-.14.02-.04.01-.14.04-.19.09-.66.39.19-.09.15-.04h.04l.18-.03h.25l.21.03h.02l.22.07h.02c.08.03.15.06.23.1h.02c.08.04.16.09.25.13.17.1.33.21.49.34h.01c.16.14.31.28.45.43.29.32.55.68.77 1.06l.02.03c.11.19.21.38.29.58.09.21.16.41.22.62.06.21.11.42.14.62.03.21.05.41.05.6 0 .09 0 .18-.01.27v.02c-.01.08-.02.16-.04.23v.03l-.06.21v.04l-.08.17v.03l-.11.18c-.05.08-.11.15-.17.21l-.05.04c-.07.06-.13.12-.21.16l.66-.38c.08-.04.14-.1.21-.16l.05-.04c.06-.06.12-.13.17-.21l.09-.17v-.02l.05-.12.02-.06v-.03l.02-.03.03-.13v-.04l.01-.03v-.04l.03-.12V59.154l.01-.12V58.804l.03-.04Z" fill="#A0C6E9"/><path fill-rule="evenodd" clip-rule="evenodd" d="m142.97 58.154 2.77 1.6c-.08-.67-.36-1.36-.74-1.86.07-.09.11-.21.11-.37 0-.47-.33-1.05-.74-1.29s-.75-.05-.75.43c0 .16.04.33.1.49-.38.06-.67.42-.75 1Zm1.39-3.17c1.36.79 2.47 2.7 2.47 4.27 0 1.57-1.12 2.2-2.48 1.41-1.36-.79-2.47-2.7-2.47-4.27 0-1.57 1.12-2.2 2.48-1.42v.01Z" fill="#C9E3F6"/><path fill-rule="evenodd" clip-rule="evenodd" d="M150.67 63.594c-2.14-1.51-1.8-1.03-1.39-2.54l-.7-3.08c0-.26.85-.7 1.05-.8.18-.09.4-.1.6.02l9.53 5.56c.56.33.91.93.91 1.58v3.99c0 .24-.13.44-.31.55-.19.11-.89.65-1.1.52l-8.59-5.8Z" fill="#A0C6E9"/><path fill-rule="evenodd" clip-rule="evenodd" d="m158.91 64.354-10.28-6.12-.06-.25c0-.26.85-.7 1.05-.8.17-.09.38-.09.58 0l9.59 5.59c.27.16.48.39.63.65l-1.53.92.02.01Z" fill="#A0C6E9"/><path fill-rule="evenodd" clip-rule="evenodd" d="M148.48 60.663v-2.44c0-.49.53-.8.95-.55l9.53 5.56c.56.33.91.93.91 1.58v3.99c0 .49-.53.79-.95.55l-8.39-5.1-2.12 1.06.07-4.66v.01Z" fill="#C9E3F6"/><path fill-rule="evenodd" clip-rule="evenodd" d="M158.54 65.984v-.03l-.02-.16-.01-.06-.01-.03-.02-.15.42-.23-.27-.19-.01-.01-.01-.01-.19-.14-.01-.01-.08-.06-.1-.3-.05-.12-.01-.05-.02-.05-.04-.12-.02-.07-.01-.02-.03.04-.07.12-.12.21-.04.07-.05-.02-.14-.06-.08-.03-.29-.12.12.22.04.05.06.11.03.05.02.04.07.11.06.11-.05.35-.01.02-.04.22h.14l.37-.01.17.2.02.03.04.04.09.11.02.02.05.06.12.14-.03-.19-.01-.08ZM156.52 64.764v-.02l-.02-.16-.01-.06v-.03l-.02-.15.41-.23-.26-.19-.02-.01v-.01l-.2-.14-.01-.01-.08-.06-.1-.3-.05-.12-.01-.05-.02-.05-.04-.12-.02-.07-.01-.03-.03.05-.07.12-.12.21-.04.07-.04-.02-.15-.06-.08-.03-.29-.12.13.22.03.05.06.11.03.05.03.04.06.11.07.11-.06.35-.01.02-.03.22H155.69l.36-.01.17.2.02.02.04.05.1.11.01.02.05.06.12.14-.03-.19-.01-.09ZM154.5 63.554v-.03l-.02-.16v-.06l-.01-.03-.02-.15.41-.22-.26-.19h-.01v-.01l-.19-.14h-.01l-.08-.06-.1-.3-.04-.13-.02-.05-.02-.05-.04-.12-.02-.07v-.03l-.04.05-.07.12-.12.21-.04.07-.05-.02-.14-.06-.08-.03-.3-.12.13.22.03.06.06.1.03.05.02.04.07.11.06.11-.06.35v.02l-.04.22h.14l.37-.01.17.2.02.03.04.04.1.11.02.02.05.06.12.14-.03-.19v-.08h-.01l-.02-.02Zm4.01 4.62-8.68-5.31c-.11-.07-.19-.24-.19-.38v-.15c0-.15.09-.21.19-.15l8.68 5.31c.11.07.19.24.19.38v.15c0 .15-.09.21-.19.15ZM152.49 62.344l-.01-.02-.02-.16-.01-.06v-.03l-.02-.16.41-.22-.26-.19-.02-.01v-.01l-.19-.14h-.01l-.01-.01-.08-.06-.1-.3-.04-.13-.02-.04-.02-.06-.04-.11-.02-.07-.01-.03-.03.05-.06.12-.12.21-.04.07-.05-.02-.14-.06-.08-.03-.3-.13.13.22.03.06.06.11.03.05.03.04.06.11.07.11-.06.35v.02l-.04.22h.14l.37-.01.16.2.03.02.03.05.1.11.02.02.04.06.12.14-.02-.2-.01-.08ZM150.47 61.134v-.02l-.03-.16v-.06l-.01-.03-.02-.16.41-.22-.26-.19-.01-.01-.01-.01-.19-.14-.02-.01-.08-.06-.1-.3-.04-.13-.02-.04-.01-.06-.04-.11-.03-.07-.01-.03-.02.05-.07.12-.12.21-.04.07-.05-.02-.14-.06-.08-.03-.3-.13.13.22.03.06.07.11.02.05.03.04.07.11.06.11-.06.35v.02l-.04.22h.14l.37-.01.17.2.02.02.04.05.09.11.02.02.05.06.12.14-.03-.2-.01-.08Z" fill="#fff"/><path fill-rule="evenodd" clip-rule="evenodd" d="M135.89 62.494c-.18-.39-.78-.78-1.65-.41-.87.37-.87 2.11-1.06 3.31-.18 1.19-1.47 3.77-1.56 4.87-.09 1.1-.83 4.41-1.29 5.06-.46.64-.87 1.88-.87 1.88l-.05 1.35s.32 1.14.41 1.14c.09 0 .21.08.28-.07l.07-.15s.15.37.32.31.16-.2.16-.2.13.14.23-.08l.1-.22s.14.02.16-.46c.02-.48-.09-1.11-.09-1.11s.28-.73.3-1.38l.02-.64s2.17-4.46 2.57-6.14c.4-1.68 2.4-6.08 1.94-7.06h.01Z" fill="#F4AE92"/><path fill-rule="evenodd" clip-rule="evenodd" d="M136.21 61.804s-1.93-.32-2.39.37c-.46.69-.92 4.37-.92 4.37s1.33 1.47 2.25.97c.92-.51 1.06-5.7 1.06-5.7v-.01Z" fill="#4385C6"/><path fill-rule="evenodd" clip-rule="evenodd" d="M127.55 98.174s-.33.25-.46.6.25.9.61.99c.36.09 1.7-.03 2.31-.64.61-.61 1.13-1.08 1.93-1.14.8-.06.78.17 1.11-.26.33-.44.2-1 .2-1l-5.7 1.46v-.01ZM134.45 98.724s-1.22 1.09-1.44 1.53c-.22.44.14.84 1.16.76 1.02-.08 1.85-.32 2.23-.76.38-.44.6-1.21.78-1.36.18-.15.74-.45.79-.67.06-.22-.01-1.09-.23-1.18-.22-.09-3.3 1.68-3.3 1.68h.01Z" fill="#101E3B"/><path fill-rule="evenodd" clip-rule="evenodd" d="M131.45 76.013c-.08.12-.9.83-1.45 3.34-.55 2.52-.41 5.72-.48 6.34-.07.62.03 1.76.24 2.21.21.45.38 2.86.66 3.93.28 1.07.65 3.17.48 3.65-.17.48-2.21 1.86-2.69 2-.48.14-.93 1-.93 1s-.03.69.34.83c.38.14.76 0 1-.24s.31.1 1.1-.28 1.31-1.1 1.76-1.1c.45 0 1.52.14 1.72-.62.21-.76-.35-1.14-.48-2.17-.14-1.03.66-4.17.55-5.24-.1-1.07-.66-2.41-.66-2.41s.59-1.9 1.93-5.62c1.34-3.72 1.45-3.83 1.45-3.83s-3.1-4-4.55-1.79h.01Z" fill="#F4AE92"/><path fill-rule="evenodd" clip-rule="evenodd" d="M134.87 77.844s.52 7.07 1 8.2c.48 1.14.9 1.83.86 3.07-.03 1.24-.35 6.48-.93 7.48-.59 1-1 1.55-1.45 2-.45.45-.83.72-1 1-.17.28-.45.79-.17.9.28.1.52-.09.52-.09s-.08.21.22.18c.3-.02.33-.18.33-.18s.14.23.3.14l.16-.09s.14.24.32.17c.18-.07.23-.22.23-.22s.04.1.22.09c.18-.01.33-.28.33-.28s.47-.02.82-.74c.34-.71.37-.86.64-1.06.28-.2.62-.38.64-.69.02-.31-.31-1.1-.18-1.75.13-.64 1.71-4.52 1.92-5.84.21-1.32-.39-2.22-.44-3.67-.05-1.45 1.46-6.94 1.31-8.95-.15-2.01-2.25-3.34-2.25-3.34s-4.17-1.19-3.4 3.65v.02Z" fill="#F4AE92"/><path fill-rule="evenodd" clip-rule="evenodd" d="M128.45 97.304s-.95.42-.48.57c2.07.69.37 1.53.79 1.55.43.02 1.01-.41 1.29-.68.28-.26-.01-1.25-1.05-1.7-.3-.13-.55.25-.55.25v.01ZM130.89 95.304s-.57.52-.49.6c.08.08.97.63.9 1.23-.07.6-.17.83-.13.84.05.01.79-.22.79-.22s.09-1.05.34-1.48c.25-.44.69-.55.69-.55l-.22-.79s-.71.65-1.06.68c-.35.02-.83-.3-.83-.3l.01-.01ZM133.74 99.124s.1-.22.91-.14c.8.08 1.16 1.17 1.45 1.23.29.06.41-.28.61-.64s-1.03-1.2-1.49-1.32c-.46-.13-.91-.12-1.47.87h-.01ZM135.64 96.424s-.26.58-.2.72c.09.19.41.52 1.19.38.76-.13.36 1.16.6 1.06.24-.1.49-.31.49-.31s.15-1 .1-1.41c-.05-.41-.07-.64-.07-.64s-.25.4-.41.39c-.16-.01-1.51.13-1.45-.42.06-.55-.26.24-.26.24l.01-.01Z" fill="#101E3B"/><path fill-rule="evenodd" clip-rule="evenodd" d="M128.52 78.604s.91 1.91 1.37 1.14c.46-.77 1.82-4.51 1.14-4.55-.68-.05-.82.41-1.32 1.18-.5.77-1.18 2.23-1.18 2.23h-.01Z" fill="#005098"/><path fill-rule="evenodd" clip-rule="evenodd" d="M130.11 77.234s-1.59.82-1.18-.5c.41-1.32.91-1.55 1.69-1.96.77-.41 1.55-.59 1.87-.27.32.32-1.87 2.69-2.37 2.73h-.01Z" fill="#005098"/><path fill-rule="evenodd" clip-rule="evenodd" d="M132.53 72.194s-.97.74-1.98 4.51c-1.01 3.77-1.33 8.55-1.33 8.55s.87 1.56 3.17.92 2.48-1.56 2.48-1.56.69-6.8.64-8.6c-.05-1.79-.6-2.99-.6-2.99l-2.39-.83h.01Z" fill="#103E7D"/><path fill-rule="evenodd" clip-rule="evenodd" d="M134.23 74.624c-.05.46 1.06 9.47 1.1 10.39.05.92.23 3.03 2.48 2.07 2.25-.97 2.9-2.53 2.9-2.53s.51-6.99-.51-8.73c-1.01-1.75-1.88-2.85-1.88-2.85l-4.09 1.65Z" fill="#005098"/><path fill-rule="evenodd" clip-rule="evenodd" d="M134.83 62.494s-1.7 3.03-2.25 3.82c-.55.78-.83.69-.74 1.79.09 1.1.51 1.61.51 1.75 0 .14-.32 3.08-.32 3.08s.51 2.02 3.31 1.98c2.8-.05 3.22-1.38 3.22-1.38s-.37-.51-.05-1.38c.32-.87 2.21-3.4 2.11-4.5-.09-1.1-.37-2.94-1.15-3.72-.78-.78-1.88-4.14-4.64-1.42v-.02Z" fill="#2F73B7"/><path fill-rule="evenodd" clip-rule="evenodd" d="M140.24 65.344s-.07-1.42-1.71-.9c-.75.24-5.37 3.23-5.83 4.51-.46 1.27-1.96 6.15-1.96 6.15l.27.09s1.28-5.33 2.05-6.42c.77-1.09 4.79-3.79 5.51-3.96 1.16-.27 1.66.54 1.66.54l.01-.01Z" fill="#005098"/><path fill-rule="evenodd" clip-rule="evenodd" d="M137.31 74.384c0 .37-.23 1.01.6 1.2.83.18 1.43.74 1.89.55.46-.18 1.14-.18 1.24-.18.1 0 .23-.07.26-.2.04-.13.04-.16.04-.16s.17.09.25-.02c.08-.11.02-.29.02-.29l-.47-.08s.29-.03.44-.26c.15-.23.03-.28-.09-.32-.13-.05-.54-.03-.54-.03s.75-.31.68-.47c-.07-.16-.22-.16-.37-.09s-1.53.21-1.53.21-1.71-.43-1.78-.45c-.07-.02-.63.24-.63.61l-.01-.02Z" fill="#EB955D"/><path fill-rule="evenodd" clip-rule="evenodd" d="M138.05 65.894s-.55 2.25.09 2.85c.64.6 1.43 1.65 1.56 2.02.14.37 2.39 2.3 2.39 2.3s-2.16.51-2.8.74c-.64.23-1.33-.32-1.61.18-.28.51-.14 1.43 1.15 1.15s5.15-.09 5.42-1.24c.28-1.15-3.95-6.62-4.37-7.13-.41-.51-1.15-1.93-1.84-.87h.01Z" fill="#F4AE92"/><path fill-rule="evenodd" clip-rule="evenodd" d="M138.65 64.834c-.23-.05-1.56.92-1.42 2.25.14 1.33 1.52 3.77 1.52 3.77s.96.69 1.7-.32.97-1.98.97-1.98-.92-1.1-1.29-2.44c-.37-1.33-1.47-1.29-1.47-1.29l-.01.01Z" fill="#4385C6"/><path fill-rule="evenodd" clip-rule="evenodd" d="m134.4 58.664.29-.93s.22-1.13 2.71-.84c2.49.29 2.08 2.52 1.9 3.37-.18.84-.34.94-.26 1.45.08.51.04 1.07-.04 1.16-.23.26-.99-.7-.99-.7s-1.12 1.58-1.38 1.3c-.26-.28-.38-.85-.36-.96.02-.1-.26-2.71-.32-2.71s-1.54-1.15-1.54-1.15l-.01.01Z" fill="#101E3B"/><path fill-rule="evenodd" clip-rule="evenodd" d="M134.81 62.504s.07 1.06.08 1.23c0 .17-.3.8 0 1.21.29.41 1.79-.14 2.48-.65s.9-1.28.72-1.66c-.17-.39-.7-.63-.71-1.12 0-.49-2.57.99-2.57.99Z" fill="#F09172"/><path fill-rule="evenodd" clip-rule="evenodd" d="M134.69 57.734c-.51.28-.96 1.75-.97 2.05 0 .3.2.55.24.72.04.17-.25.83-.33 1.07-.08.24-.14.35.07.38.21.03.23.04.23.04s-.06.12-.03.2c.03.08.1.14.1.14s-.04.13 0 .2c.05.07.1 0 .1.15s-.13.18.05.45.78.45 1.08.41c.3-.04 1.28-.52 1.58-.77.3-.25.49-.72.49-.72s0 .55.55-.06c.54-.61.7-.96.4-1.29-.3-.34-.82.18-.82.18s-.35.39-.41.04c-.07-.34.52-.8.35-1.55-.17-.75-1.54-.8-1.85-.9-.31-.09-.84-.74-.84-.74h.01Z" fill="#F4AE92"/><path fill-rule="evenodd" clip-rule="evenodd" d="M134.69 57.434s-1.97-.76-1.9.14c.07.9 2.46 2.59 4.1 3.52 1.65.92 3.34.72 3.48.59.59-.6-1.09-1.41-1.09-1.41s-1.57-.45-2.4-.93c-.83-.48-2.21-1.9-2.21-1.9l.02-.01Z" fill="#2F73B7"/><path fill-rule="evenodd" clip-rule="evenodd" d="M134.69 57.434s1.31-1.66 2.41-1.14 2.37 1.1 2.62 1.86c.17.51-.43 2.1-.43 2.1s-.12.86-2.84-.97c-2.23-1.5-1.76-1.86-1.76-1.86v.01Z" fill="#4385C6"/></svg>