<svg width="200" height="150" fill="none" xmlns="http://www.w3.org/2000/svg"><path d="M99 3 9.03 47.99l3.48 1.77L99 57.35V3Z" fill="#F5F5F5"/><path d="m9.03 47.99-.03.02v54.37l90-45.01v-.02l-86.49-7.59-3.48-1.77Z" fill="#BEC9D1"/><path d="m189 102.38-90 45-90-45 90-45 90 45Z" fill="#F0BF97"/><path d="M185.49 100.62 99 143.87l-86.49-43.25L99 57.38l86.49 43.24Z" fill="#FFDBBD"/><path d="m99 57.37-86.49 43.25V49.76L99 6.51v50.86Z" fill="#E6E6E6"/><path d="m99 3 89.97 44.99-3.48 1.77L99 57.35V3Z" fill="#F5F5F5"/><path d="m188.97 47.99.03.02v54.37L99 57.37v-.02l86.49-7.59 3.48-1.77Z" fill="#BEC9D1"/><path d="m99 57.37 86.49 43.25V49.76L99 6.51v50.86Z" fill="#fff"/><path d="m179.87 97.75-13.39-6.7V56.82l13.39 6.7v34.23Z" fill="#EBEBEB"/><path d="m166.48 91.05 13.39 6.69v-13.4l-13.39 6.69v.02Z" fill="#FFDBBD"/><path d="m112.48 70.63 5.98-2.99-8.14-4.07-5.98 2.99 8.14 4.07Z" fill="#D6D6D6"/><path d="M112.47 70.63v.38l-8.14-4.07v-.38l8.14 4.07Z" fill="#DBDBDB"/><path d="M118.45 67.63v.39l-5.98 2.99v-.38l5.98-3Z" fill="#A8A8A8"/><path d="m105.07 68.88.74-.37v-4.49l-.74.37v4.49Z" fill="#9C9C9C"/><path d="m104.34 68.51.73.37v-4.49l-.73-.37v4.49Z" fill="#A8A8A8"/><path d="m112.47 72.54.74-.37v-4.49l-.74.37v4.49Z" fill="#9C9C9C"/><path d="m111.74 72.17.73.37v-4.49l-.73-.37v4.49Z" fill="#A8A8A8"/><path d="m117.72 69.93.74-.37v-4.49l-.74.37v4.49Z" fill="#9C9C9C"/><path d="m116.98 69.56.74.37v-4.49l-.74-.37v4.49Z" fill="#A8A8A8"/><path d="m112.47 64.59 5.99-2.99-8.14-4.07-5.98 3 8.13 4.06Z" fill="#F5F5F5"/><path d="M112.47 68.07v-3.48l-8.13-4.06v3.48l8.13 4.06Z" fill="#E0E0E0"/><path d="M118.46 61.6v3.48l-5.99 2.99v-3.48l5.99-2.99Z" fill="#CCC"/><path d="m111.07 56.71 7.08 4.03c.29.17.28.59-.02.75l-4.81 2.45-8.09-4.75 4.92-2.5c.29-.15.63-.14.92.02Z" fill="#E0AB77"/><path d="m105.58 60.15 7.47 3.74c.26.13.47.02.47-.23 0-.27-.21-.58-.47-.71l-7.47-3.74c-.26-.13-.47-.02-.47.23 0 .27.21.58.47.71Z" fill="#E09348"/><path d="m111.07 55.6 7.08 4.03c.29.17.28.59-.02.75l-4.81 2.45-8.09-4.75 4.92-2.5c.29-.15.63-.14.92.02Z" fill="#9180CF"/><path d="m105.58 59.04 7.47 3.74c.26.13.47.02.47-.23 0-.27-.21-.58-.47-.71l-7.47-3.74c-.26-.13-.47-.02-.47.23 0 .27.21.58.47.71Z" fill="#7961CF"/><path d="m111.07 54.5 7.08 4.03c.29.17.28.59-.02.75l-4.81 2.45-8.09-4.75 4.92-2.5c.29-.15.63-.14.92.02Z" fill="#F2A2C2"/><path d="m105.58 57.94 7.47 3.74c.26.13.47.02.47-.23 0-.27-.21-.58-.47-.71L105.58 57c-.26-.13-.47-.02-.47.23 0 .27.21.58.47.71Z" fill="#F2689F"/><path d="M121.94 73.73c-1.66.83-1.43 2.36.23 3.19 1.66.83 4.36.83 6.03 0s1.81-2.47.14-3.3c-1.67-.83-4.74-.73-6.4.11Z" fill="#A39090"/><path d="M122.17 73.55c-1.67.83-1.67 2.18 0 3.01 1.66.83 4.36.83 6.03 0s1.67-2.18 0-3.01c-1.66-.83-4.36-.83-6.03 0Z" fill="#CCB5B5"/><path d="M124.45 74.69c-.41.2-.41.53 0 .74.41.2 1.07.2 1.47 0 .41-.2.41-.53 0-.74-.41-.2-1.07-.2-1.47 0Z" fill="#E8CCCC"/><path d="M124.15 75.06h2.08v-7.34h-2.08v7.34Z" fill="#E8CCCC"/><path d="M121.1 65.43c-2.09 1.05-1.8 2.91.29 3.96 2.09 1.05 5.48 1.05 7.57 0s2.28-2.86.19-3.91c-2.09-1.05-5.96-1.1-8.06-.05h.01Z" fill="#963636"/><path d="M121.4 64.93c-2.09 1.05-2.09 2.74 0 3.79 2.09 1.05 5.48 1.05 7.57 0s2.09-2.74 0-3.79c-2.09-1.05-5.48-1.05-7.57 0Z" fill="#F25858"/><path d="M130.57 67.61s1.61-4.47-3.38-6.82c-3.96-1.87-3.3 3.37-3.3 3.37s2.49-.96 6.27 3.63c.05.06.36-.25.41-.19v.01Z" fill="#963636"/><path d="M130.21 67.85s1.61-4.47-3.38-6.82c-3.96-1.87-3.46 3.27-3.46 3.27.04.09 3.01-1.19 6.84 3.55Z" fill="#FC7676"/><path d="m123.6 60.05.74 2.75s-1.09 1.1-1.78 1.68c-.25.15-.72.43-1.06.56-.48.19-.9 1.06-.9 1.06s-.25.37.09.49c.29.1 1.75-.9 2.21-1.22l.69-.52c.58-.49 1.39-1.21 1.64-1.61.41-.65-.66-3.52-.66-3.52l-.49-.97-.48 1.29v.01Z" fill="#FFE1B8"/><path d="m122.73 57.89 1.37.59c.34-.98.65-1.99.8-2.47.07-.24.06-.47-.04-.65-.06-.12-.16-.23-.29-.26-.15-.04-.38.05-.58.15-.24.12-.61.33-.7.61l-.57 2.03h.01Z" fill="#E6D696"/><path d="m121.92 76.82.03 1.92-.2.15-.08-.96-.57 1.1s-1.81.96-1.96.67c-.15-.28.97-1.33 1.29-1.64.32-.31.31-1.24.31-1.24l1.19-.02-.01.02Z" fill="#79AEC7"/><path d="m119.76 75.67.03 1.92-.2.15-.08-.96-.57 1.1s-1.81.96-1.96.67c-.15-.28.97-1.33 1.29-1.64.32-.31.31-1.24.31-1.24l1.19-.02-.01.02Z" fill="#6E9EB5"/><path d="M118.37 75.37c-.13-.88-.77-5.25-.59-6.99.02-.22.15-.41.33-.52 1.3-.73 6.13-3.22 7.9-4.13.33-.17.69.03.74.4l.19 1.68a.68.68 0 0 1-.42.69l-5.92 2.16c-.24.09-.42.34-.42.61l-.05 6.09v.09c.02.16.08.73-.06.83-.67.45-1.21.28-1.54.07-.21-.13-.28-.41-.19-.67.04-.11.05-.21.03-.32v.01Z" fill="#31858F"/><path d="M119.72 73.53c-.09-.63-.27-1.47-.49-2.46 0 0-.42-1.46-.14-1.96.17-.31.5-.48.9-.65 1.81-.75 7.63-3.8 7.63-3.8l.16 2.06c.05.62-.33 1.23-.89 1.45l-5.51 2.09.77 6.68s-.5.55-.86.61c-.36.06-1.23-.28-1.32-.35-.09-.06.17-.51.24-.64.07-.13-.2-1.05-.48-3.03h-.01Z" fill="#41B2BF"/><path d="M124.38 55.18s1.48-.11 2.3.18c.82.29 1.75.97 1.81 1.36.03.21-.84 3-1.02 5.2-.14 1.67.9 3.15.87 3.56 0 .08-.04.15-.1.21-.05.05-.14.11-.24.19-.67.49-1.88.29-2.36.28-.26 0-2.53-.71-2.33-.78a.385.385 0 0 1-.23-.31c-.03-.78.16-3.16.2-3.9.02-.42-.78-1.23-.8-2.62 0-.49.61-1.29.84-1.8.47-1.02.79-1.64 1.07-1.57h-.01Z" fill="#E5F0A1"/><path d="M125.42 55.49c.02-.92.19-1.63.6-1.88 1.53-.92-1.91-1.2-1.91-1.2v.12c-.02 1.1-.37 2.46-.34 3.66.55-.24 1.09-.47 1.64-.71l.01.01Z" fill="#382B00"/><path d="M125.26 54.89s-.24 1.1.12 1.38c.36.28.8.14 1.02-.03.22-.17.71-.88.71-.88l-.06-1.74-.3-.41-1.49 1.68Z" fill="#DEBD90"/><path d="M123.87 51.53s-.04 1.41.02 1.68.29 1.53.81 1.65c.52.12 1.74-.43 1.78-.68.04-.25.15-.76.15-.76l.15-.37s.3-.69 0-.76c-.3-.07-.52.23-.52.23l-.35-.03s-.1-.53-.62-.69c-.51-.16-1.19-.44-1.41-.25l-.01-.02Z" fill="#FFE1B8"/><path d="M123.97 52.68s-.23-1.17.18-1.15c.41.03 1.23 1 1.23 1l.57.55c.01.21 0 .35-.01.42.02-.07.05-.2.09-.34l.06.05s-.01-.05-.03-.13c.08-.24.17-.5.26-.56.18-.13.58-.14.57.03-.01.17-.3 1.16-.3 1.16.07-.04-.25.94-.6 2.18.49.42.97.85 1.45 1.27.67-1.74 1.34-4.48.11-6.62-.28-.48-1.28-1.63-2.4-.99 0 0-1.4.49-1.5 1.27-.1.78 0 1.02 0 1.02l.31.84h.01Z" fill="#523F00"/><path d="M126.16 66.99s.28-.95.73-1.21c.31-.18.72-.51.95-.71.6-.67 1.54-1.93 1.54-1.93l-1.12-2.62.29-1.34.62.9s1.46 2.69 1.15 3.39c-.19.44-.9 1.27-1.41 1.84l.04.02-.5.49-.01.01c-.04.04-.06.07-.06.07-.35.34-1.73 1.65-2.04 1.58-.36-.08-.17-.49-.17-.49h-.01Z" fill="#FFE1B8"/><path d="m128.09 60.55 1.69-.22c-.25-1.08-.55-2.18-.69-2.71-.07-.26-.33-.75-.53-.86-.13-.07-.68.46-.81.66-.16.25-.4.64-.32.95l.66 2.18Z" fill="#E5F0A1"/><path d="M131.01 77.57h2.29V43.09h-2.29v34.48Z" fill="#CFCFCF"/><path d="M131.35 77.16c-.45.22-.45.59 0 .81.45.22 1.17.22 1.62 0 .45-.22.45-.59 0-.81-.45-.22-1.17-.22-1.62 0Z" fill="#CFCFCF"/><path d="M131.35 42.68c-.45.22-.45.59 0 .81.45.22 1.17.22 1.62 0 .45-.22.45-.59 0-.81-.45-.22-1.17-.22-1.62 0Z" fill="#F6F6F6"/><path d="M131.86 43.95c0 .46.37.65.84.42.46-.23.84-.79.84-1.25 0-.46-.37-.65-.84-.42-.46.23-.84.79-.84 1.25ZM138.26 47.26c0 .46.37.65.84.42.47-.23.84-.79.84-1.25 0-.46-.37-.65-.84-.42-.47.23-.84.79-.84 1.25Z" fill="#F6F6F6"/><path d="m133.25 42.63 6.49 3.36-1.17 1.79-6.36-3.31 1.04-1.84Z" fill="#F6F6F6"/><path opacity=".33" d="M123.38 48.5c-1.93.96-1.38 5.1.55 6.06s5.06.96 6.99 0c1.93-.96 2.7-4.86.77-5.83-1.93-.96-6.38-1.2-8.31-.24v.01Z" fill="#8CC1F6"/><path d="M123.86 47.98c-2.02 1.01-2.02 2.64 0 3.65 2.02 1.01 5.29 1.01 7.31 0 2.02-1.01 2.02-2.64 0-3.65-2.02-1.01-5.29-1.01-7.31 0Z" fill="#F0F0F0"/><path d="m131.85 43.81.83 6.19-10.34-.35.82-6.06 8.69.22Z" fill="#F0F0F0"/><path d="M124.44 42.35c-1.7.85-1.7 2.22 0 3.07 1.7.85 4.45.85 6.14 0 1.7-.85 1.7-2.22 0-3.07-1.7-.85-4.45-.85-6.14 0Z" fill="#F7F7F7"/><path d="M140.85 47.19c0 .33-.27.46-.6.3-.33-.17-.6-.57-.6-.9 0-.33.27-.46.6-.3.33.17.6.57.6.9Z" fill="#CFCFCF"/><path d="m139.85 46.25-4.64 2.4.83 1.28 4.55-2.37-.74-1.31Z" fill="#CFCFCF"/><path d="M130.94 47.34c0 .33.27.46.6.3.33-.17.6-.57.6-.9 0-.33-.27-.46-.6-.3-.33.17-.6.57-.6.9ZM135.52 49.71c0 .33.27.46.6.3.33-.17.6-.57.6-.9 0-.33-.27-.46-.6-.3-.33.17-.6.57-.6.9Z" fill="#F6F6F6"/><path d="m131.94 46.39 4.64 2.4-.84 1.29-4.55-2.37.75-1.32Z" fill="#F6F6F6"/><path d="M73.77 53.6 39.56 71.28l-.62-.26V52.65l34.83-17.42.62.27-.62 18.1Z" fill="#51B3C2"/><path d="M74.39 53.86 39.56 71.28V52.92L74.39 35.5v18.36Z" fill="#82EBFA"/><mask id="a" style="mask-type:luminance" maskUnits="userSpaceOnUse" x="39" y="35" width="36" height="37"><path d="M74.39 53.86 39.56 71.28V52.92L74.39 35.5v18.36Z" fill="#fff"/></mask><g opacity=".47" fill="#F7F7F7" mask="url(#a)"><path d="M84.22 17.97 39.78 80.49l-.47-.29 44.44-62.51.47.28ZM76.14 13.1 31.7 75.61l-.35-.21 44.44-62.51.35.21ZM85.92 19 41.48 81.51l-.74-.45 44.44-62.51.74.45ZM87.26 19.8 42.82 82.32l-.74-.45 44.45-62.51.73.44Z"/></g><path d="M71.47 66.43c-2.28 1.14-2.28 2.98 0 4.12 2.28 1.14 5.97 1.14 8.24 0 2.28-1.14 2.28-2.98 0-4.12-2.28-1.14-5.97-1.14-8.24 0Z" fill="#F25858"/><path d="m73.31 59.23-7.05 3.53-2.56-1.28v-.24l7.06-3.28 2.55 1.03v.24Z" fill="#CFCFCF"/><path d="m73.31 58.99-7.05 3.53-2.56-1.28 7.06-3.53 2.55 1.28Z" fill="#fff"/><path d="m73.31 63.28-7.05 3.53-2.56-1.28v-.24L70.76 62l2.55 1.04v.24Z" fill="#CFCFCF"/><path d="m73.31 63.04-7.05 3.53-2.56-1.28 7.06-3.53 2.55 1.28Z" fill="#fff"/><path d="m73.31 67.41-7.05 3.53-2.56-1.28v-.24l7.06-3.29 2.55 1.04v.24Z" fill="#CFCFCF"/><path d="m73.31 67.17-7.05 3.53-2.56-1.28 7.06-3.53 2.55 1.28Z" fill="#fff"/><path d="m66.75 68.49-1.24-.62 1.24-.62 1.23.62-1.23.62Z" fill="#fff"/><path d="m67.98 69.53-1.23.62v-1.66l1.23-.62v1.66Z" fill="#8AC7E0"/><path d="m67.79 68.49-.85.42v-.1l.85-.42v.1ZM67.79 68.71l-.85.42v-.1l.85-.42v.1Z" fill="#70A3B7"/><path d="m66.75 70.15-1.24-.62v-1.66l1.24.62v1.66Z" fill="#94D6F0"/><path d="m66.56 68.89-.85-.42v-.1l.85.42v.1ZM66.56 69.08l-.85-.42v-.1l.85.42v.1ZM66.56 69.27l-.85-.42v-.1l.85.42v.1Z" fill="#E6E6E6"/><path d="m69.28 67.37-1.23-.62 1.23-.62 1.24.62-1.24.62Z" fill="#fff"/><path d="m70.52 68.42-1.24.62v-1.67l1.24-.62v1.67Z" fill="#8AD8E0"/><path d="m70.32 67.38-.84.42v-.1l.84-.42v.1ZM70.32 67.6l-.84.42v-.1l.84-.42v.1Z" fill="#70B1B7"/><path d="m69.28 69.04-1.23-.62v-1.67l1.23.62v1.67Z" fill="#94E8F0"/><path d="m69.09 67.78-.84-.42v-.1l.84.42v.1ZM69.09 67.97l-.84-.42v-.1l.84.42v.1ZM69.09 68.16l-.84-.43v-.1l.84.43v.1Z" fill="#E6E6E6"/><path d="m66.38 64.73-1.24-.62 1.24-.62 1.23.62-1.23.62Z" fill="#fff"/><path d="m67.61 65.77-1.23.62v-1.66l1.23-.62v1.66Z" fill="#8AD8E0"/><path d="m67.42 64.73-.85.43v-.1l.85-.43v.1ZM67.42 64.96l-.85.42v-.1l.85-.42v.1Z" fill="#70B1B7"/><path d="m66.38 66.39-1.24-.62v-1.66l1.24.62v1.66Z" fill="#94E8F0"/><path d="m66.19 65.14-.85-.42v-.1l.85.42v.1ZM66.19 65.33l-.85-.43v-.1l.85.43v.1ZM66.19 65.51l-.85-.42v-.1l.85.42v.1Z" fill="#E6E6E6"/><path d="m70.95 62.44-1.24-.62 1.24-.62 1.24.62-1.24.62Z" fill="#fff"/><path d="m72.19 63.49-1.24.62v-1.67l1.24-.62v1.67Z" fill="#8AC7E0"/><path d="m71.99 62.45-.84.42v-.1l.84-.42v.1ZM71.99 62.67l-.84.42v-.1l.84-.42v.1Z" fill="#70A3B7"/><path d="m70.95 64.11-1.24-.62v-1.67l1.24.62v1.67Z" fill="#94D6F0"/><path d="m70.76 62.85-.84-.42v-.1l.84.42v.1ZM70.76 63.04l-.84-.42v-.1l.84.42v.1ZM70.76 63.23l-.84-.43v-.1l.84.43v.1Z" fill="#E6E6E6"/><path d="m69.15 63.71-.75-.37.75-.38.75.38-.75.37Z" fill="#fff"/><path d="m69.9 64.35-.75.37v-1.01l.75-.37v1.01Z" fill="#8AD8E0"/><path d="m69.78 63.71-.51.26v-.06l.51-.26v.06ZM69.78 63.85l-.51.25v-.06l.51-.25v.06Z" fill="#70B1B7"/><path d="m69.15 64.72-.75-.37v-1.01l.75.37v1.01Z" fill="#94E8F0"/><path d="m69.04 63.96-.51-.26v-.06l.51.26v.06ZM69.04 64.07l-.51-.25v-.06l.51.25v.06ZM69.04 64.19l-.51-.26v-.06l.51.26v.06Z" fill="#E6E6E6"/><path d="M67.03 60.96c.39.2.39.51 0 .71-.39.2-1.02.2-1.41 0-.39-.2-.39-.51 0-.71.39-.2 1.02-.2 1.41 0Z" fill="#CFCFCF"/><path d="M67.33 58.93h-2v2.39h2v-2.39Z" fill="#CFCFCF"/><path d="M67.03 58.58c.39.2.39.51 0 .71-.39.2-1.02.2-1.41 0-.39-.2-.39-.51 0-.71.2-.1.45-.15.71-.15.26 0 .51.05.71.15h-.01Z" fill="#FCFCFC"/><path d="M66.99 58.54c.37.18-.18.3 0 .67.11.24.04.3-1.33 0-.4-.09-.37-.48 0-.67.18-.09.42-.14.67-.14.25 0 .48.05.67.14h-.01Z" fill="#FCFCFC"/><path d="M65.98 58.44v.42s.04.09.11.13c.14.07.38.07.52 0 .07-.04.11-.08.11-.13v-.42h-.74Z" fill="#FCD7C6"/><path d="M66.61 58.31c.14.07.14.19 0 .26a.67.67 0 0 1-.52 0c-.14-.07-.14-.19 0-.26a.55.55 0 0 1 .26-.05c.09 0 .19.02.26.05Z" fill="#FCF7F5"/><path d="m66.67 57.96-.25.14v.49l.25-.14v-.49Z" fill="#C9AD9F"/><path d="m67.17 58.47-1.11-.55.28-.15 1.03.61-.2.09Z" fill="#FCF7F5"/><path d="M67.37 58.38v.17l-.2.1v-.18l.2-.09Z" fill="#C9AD9F"/><path d="m66.42 58.59-.36-.18v-.49l1.11.55v.18l-.75-.33v.27Z" fill="#FCD7C6"/><path d="M69.57 59.82c.39.2.39.51 0 .71-.39.2-1.02.2-1.41 0-.39-.2-.39-.51 0-.71.39-.2 1.02-.2 1.41 0Z" fill="#CFCFCF"/><path d="M69.86 57.79h-2v2.39h2v-2.39Z" fill="#CFCFCF"/><path d="M69.57 57.43c.39.2.39.51 0 .71-.39.2-1.02.2-1.41 0-.39-.2-.39-.51 0-.71.2-.1.45-.15.71-.15.26 0 .51.05.71.15h-.01Z" fill="#FCFCFC"/><path d="M69.53 57.39c.37.18.37.48 0 .67-.37.18-.96.18-1.33 0-.37-.18-.37-.48 0-.67.18-.09.42-.14.67-.14.25 0 .48.05.67.14h-.01Z" fill="#FCFCFC"/><path d="M68.52 57.3v.42s.04.09.11.13c.14.07.38.07.52 0 .07-.04.11-.08.11-.13v-.42h-.74Z" fill="#FCD7C6"/><path d="M69.14 57.17c.14.07.14.19 0 .26a.67.67 0 0 1-.52 0c-.14-.07-.14-.19 0-.26a.55.55 0 0 1 .26-.05c.09 0 .19.02.26.05Z" fill="#FCF7F5"/><path d="m69.21 56.82-.26.13v.49l.26-.13v-.49Z" fill="#C9AD9F"/><path d="m69.7 57.33-1.11-.56.29-.14 1.02.61-.2.09Z" fill="#FCF7F5"/><path d="M69.9 57.24v.17l-.2.09v-.17l.2-.09Z" fill="#C9AD9F"/><path d="m68.96 57.44-.37-.18v-.49l1.11.56v.17l-.74-.33v.27Z" fill="#FCD7C6"/><path d="M71.13 58.92c.28.14.28.37 0 .51s-.73.14-1.01 0-.28-.37 0-.51.73-.14 1.01 0Z" fill="#CFCFCF"/><path d="M71.33 57.46H69.9v1.71h1.43v-1.71Z" fill="#CFCFCF"/><path d="M71.13 57.21c.28.14.28.37 0 .51s-.73.14-1.01 0-.28-.37 0-.51c.14-.07.32-.11.51-.11s.37.04.51.11h-.01Z" fill="#FCFCFC"/><path d="M71.1 57.18c.26.13.26.35 0 .48s-.69.13-.95 0-.26-.35 0-.48c.13-.07.3-.1.48-.1s.35.03.48.1h-.01Z" fill="#FCFCFC"/><path d="M70.37 57.11v.3s.03.07.08.09c.1.05.27.05.37 0 .05-.03.08-.06.08-.09v-.3h-.53Z" fill="#FCD7C6"/><path d="M70.82 57.01c.1.05.1.13 0 .19s-.27.05-.37 0c-.1-.05-.1-.13 0-.19a.38.38 0 0 1 .19-.04c.07 0 .13.01.19.04h-.01Z" fill="#FCF7F5"/><path d="m70.87 56.76-.18.1v.35l.18-.09v-.36Z" fill="#C9AD9F"/><path d="m71.22 57.13-.79-.4.2-.1.74.43-.15.07Z" fill="#FCF7F5"/><path d="M71.37 57.06v.13l-.15.07v-.13l.15-.07Z" fill="#C9AD9F"/><path d="m70.69 57.21-.26-.13v-.35l.79.4v.13l-.53-.24v.19Z" fill="#FCD7C6"/><path d="m110.56 44 7.05 3.53 2.56-1.27v-.25l-7.06-3.28-2.55 1.03V44Z" fill="#CFCFCF"/><path d="m110.56 43.76 7.05 3.53 2.56-1.28-7.06-3.52-2.55 1.27Z" fill="#fff"/><path d="m110.56 48.05 7.05 3.53 2.56-1.28v-.24l-7.06-3.29-2.55 1.04v.24Z" fill="#CFCFCF"/><path d="m110.56 47.81 7.05 3.53 2.56-1.28-7.06-3.53-2.55 1.28Z" fill="#fff"/><path d="m110.56 52.18 7.05 3.53 2.56-1.27v-.25l-7.06-3.28-2.55 1.03v.24Z" fill="#CFCFCF"/><path d="m110.56 51.94 7.05 3.53 2.56-1.28-7.06-3.52-2.55 1.27Z" fill="#fff"/><path d="m117.13 53.26 1.23-.62-1.23-.62-1.24.62 1.24.62Z" fill="#fff"/><path d="m115.89 54.3 1.24.62v-1.66l-1.24-.62v1.66Z" fill="#8AC7E0"/><path d="m116.08 53.26.85.43v-.1l-.85-.43v.1ZM116.08 53.49l.85.42v-.1l-.85-.43v.11Z" fill="#70A3B7"/><path d="m117.13 54.92 1.23-.62v-1.66l-1.23.62v1.66Z" fill="#94D6F0"/><path d="m117.31 53.67.85-.43v-.1l-.85.43v.1ZM117.31 53.86l.85-.43v-.1l-.85.43v.1ZM117.31 54.04l.85-.42v-.1l-.85.42v.1Z" fill="#E6E6E6"/><path d="m114.59 52.14 1.24-.61-1.24-.62-1.24.62 1.24.61Z" fill="#fff"/><path d="m113.35 53.19 1.24.62v-1.66l-1.24-.62v1.66Z" fill="#8AD8E0"/><path d="m113.55 52.15.84.42v-.1l-.84-.42v.1ZM113.55 52.37l.84.42v-.1l-.84-.42v.1Z" fill="#70B1B7"/><path d="m114.59 53.81 1.24-.62v-1.66l-1.24.62v1.66Z" fill="#94E8F0"/><path d="m114.78 52.55.84-.42v-.1l-.84.42v.1ZM114.78 52.74l.84-.42v-.1l-.84.42v.1ZM114.78 52.93l.84-.42v-.1l-.84.42v.1Z" fill="#E6E6E6"/><path d="m117.5 49.5 1.23-.62-1.23-.62-1.24.62 1.24.62Z" fill="#fff"/><path d="m116.26 50.55 1.24.62V49.5l-1.24-.62v1.67Z" fill="#8AD8E0"/><path d="m116.45 49.51.85.42v-.1l-.85-.42v.1ZM116.45 49.73l.85.42v-.1l-.85-.42v.1Z" fill="#70B1B7"/><path d="m117.5 51.17 1.23-.62v-1.67l-1.23.62v1.67Z" fill="#94E8F0"/><path d="m117.68 49.91.85-.42v-.1l-.85.42v.1ZM117.68 50.1l.85-.42v-.1l-.85.42v.1ZM117.68 50.29l.85-.43v-.1l-.85.43v.1Z" fill="#E6E6E6"/><path d="m112.92 47.21 1.24-.61-1.24-.62-1.24.62 1.24.61Z" fill="#fff"/><path d="m111.68 48.26 1.24.62v-1.67l-1.24-.61v1.66Z" fill="#8AC7E0"/><path d="m111.88 47.22.84.42v-.1l-.84-.42v.1ZM111.88 47.44l.84.42v-.1l-.84-.42v.1Z" fill="#70A3B7"/><path d="m112.92 48.88 1.24-.62V46.6l-1.24.61v1.67Z" fill="#94D6F0"/><path d="m113.11 47.62.84-.42v-.1l-.84.42v.1ZM113.11 47.81l.84-.42v-.1l-.84.42v.1ZM113.11 48l.84-.42v-.1l-.84.42v.1Z" fill="#E6E6E6"/><path d="m114.72 48.48.75-.37-.75-.38-.75.38.75.37Z" fill="#fff"/><path d="m113.97 49.12.75.37v-1.01l-.75-.37v1.01Z" fill="#8AD8E0"/><path d="m114.09 48.49.51.25v-.06l-.51-.25v.06ZM114.09 48.62l.51.26v-.06l-.51-.26v.06Z" fill="#70B1B7"/><path d="m114.72 49.49.75-.37v-1.01l-.75.37v1.01Z" fill="#94E8F0"/><path d="m114.83 48.73.52-.25v-.06l-.52.25v.06ZM114.83 48.85l.52-.26v-.06l-.52.26v.06ZM114.83 48.96l.52-.26v-.06l-.52.26v.06Z" fill="#E6E6E6"/><path d="M116.84 45.74c-.39.2-.39.51 0 .71.39.2 1.02.2 1.41 0 .39-.2.39-.51 0-.71-.39-.2-1.02-.2-1.41 0Z" fill="#CFCFCF"/><path d="M118.55 43.71h-2v2.39h2v-2.39Z" fill="#CFCFCF"/><path d="M116.84 43.35c-.39.2-.39.51 0 .71.39.2 1.02.2 1.41 0 .39-.2.39-.51 0-.71-.2-.1-.45-.15-.71-.15-.26 0-.51.05-.71.15h.01Z" fill="#FCFCFC"/><path d="M116.88 43.31c-.37.18.18.3 0 .67-.11.24-.04.3 1.33 0 .4-.09.37-.48 0-.67a1.54 1.54 0 0 0-.67-.14c-.25 0-.48.05-.67.14h.01Z" fill="#FCFCFC"/><path d="M117.89 43.21v.42s-.04.09-.11.13a.67.67 0 0 1-.52 0c-.07-.04-.11-.08-.11-.13v-.42h.74Z" fill="#FCD7C6"/><path d="M117.26 43.08c-.14.07-.14.19 0 .26s.38.07.52 0 .14-.19 0-.26a.55.55 0 0 0-.26-.05c-.09 0-.19.02-.26.05Z" fill="#FCF7F5"/><path d="m117.2 42.73.25.14v.49l-.25-.13v-.5Z" fill="#C9AD9F"/><path d="m116.7 43.24 1.11-.55-.28-.14-1.02.6.19.09Z" fill="#FCF7F5"/><path d="M116.51 43.15v.18l.19.09v-.18l-.19-.09Z" fill="#C9AD9F"/><path d="m117.45 43.36.36-.18v-.49l-1.11.55v.18l.75-.33v.27Z" fill="#FCD7C6"/><path d="M114.3 44.59c-.39.2-.39.51 0 .71.39.2 1.02.2 1.41 0 .39-.2.39-.51 0-.71-.39-.2-1.02-.2-1.41 0Z" fill="#CFCFCF"/><path d="M116.01 42.56h-2v2.39h2v-2.39Z" fill="#CFCFCF"/><path d="M114.3 42.21c-.39.2-.39.51 0 .71.39.2 1.02.2 1.41 0 .39-.2.39-.51 0-.71-.2-.1-.45-.15-.71-.15-.26 0-.51.05-.71.15h.01Z" fill="#FCFCFC"/><path d="M114.34 42.17c-.37.18-.37.48 0 .67.37.18.96.18 1.33 0 .37-.18.37-.48 0-.67a1.54 1.54 0 0 0-.67-.14c-.25 0-.48.05-.67.14h.01Z" fill="#FCFCFC"/><path d="M115.35 42.07v.42s-.04.09-.11.13a.67.67 0 0 1-.52 0c-.07-.04-.11-.08-.11-.13v-.42h.74Z" fill="#FCD7C6"/><path d="M114.73 41.94c-.14.07-.14.19 0 .26s.38.07.52 0 .14-.19 0-.26a.55.55 0 0 0-.26-.05c-.09 0-.19.02-.26.05Z" fill="#FCF7F5"/><path d="m114.66 41.59.26.14v.49l-.26-.14v-.49Z" fill="#C9AD9F"/><path d="m114.17 42.1 1.11-.56-.29-.14-1.02.61.2.09Z" fill="#FCF7F5"/><path d="M113.97 42.01v.17l.2.1v-.18l-.2-.09Z" fill="#C9AD9F"/><path d="m114.92 42.22.36-.18v-.5l-1.11.56v.18l.75-.33v.27Z" fill="#FCD7C6"/><path d="M112.75 43.69c-.28.14-.28.37 0 .51s.73.14 1.01 0 .28-.37 0-.51-.73-.14-1.01 0Z" fill="#CFCFCF"/><path d="M113.97 42.23h-1.43v1.71h1.43v-1.71Z" fill="#CFCFCF"/><path d="M112.75 41.98c-.28.14-.28.37 0 .51s.73.14 1.01 0 .28-.37 0-.51c-.14-.07-.32-.11-.51-.11s-.37.04-.51.11h.01Z" fill="#FCFCFC"/><path d="M112.78 41.95c-.26.13-.26.35 0 .48s.69.13.95 0 .26-.35 0-.48c-.13-.07-.3-.1-.48-.1s-.35.03-.48.1h.01Z" fill="#FCFCFC"/><path d="M113.5 41.88v.3s-.03.07-.08.09c-.1.05-.27.05-.37 0-.05-.03-.08-.06-.08-.09v-.3h.53Z" fill="#FCD7C6"/><path d="M113.05 41.79c-.1.05-.1.13 0 .19.1.05.27.05.37 0 .1-.05.1-.13 0-.19a.38.38 0 0 0-.19-.04c-.07 0-.13.01-.19.04h.01Z" fill="#FCF7F5"/><path d="m113 41.54.19.09v.36l-.19-.1v-.35Z" fill="#C9AD9F"/><path d="m112.65 41.9.79-.4-.2-.1-.73.44.14.06Z" fill="#FCF7F5"/><path d="M112.51 41.84v.12l.14.07v-.13l-.14-.06Z" fill="#C9AD9F"/><path d="m113.19 41.99.25-.13v-.36l-.79.4v.13l.54-.24v.2Z" fill="#FCD7C6"/><path d="m77.52 52.24.45.42 20.06-10.68.45-16.79-.45-.3-20.51 10.26v17.09Z" fill="#C8CDCF"/><path d="m77.97 52.54 20.51-10.26V25.19L77.97 35.45v17.09Z" fill="#F2F9FA"/><path d="m88.92 45.66 8.44-4.22V26.65l-8.44 4.22v14.79ZM79.15 50.55l8.44-4.22V31.42l-8.44 4.22v14.91Z" fill="#ACECF2"/><mask id="b" style="mask-type:luminance" maskUnits="userSpaceOnUse" x="88" y="26" width="10" height="17"><path d="m88.92 42.37 8.44-4.22v-11.5l-8.44 4.22v11.5Z" fill="#fff"/></mask><g opacity=".47" fill="#fff" mask="url(#b)"><path d="m85.9 38.85 14.21-11.36-.73-2.08-14.21 11.36.73 2.08ZM87.07 40.38l13.38-10.69-.23-.65-13.37 10.69.22.65ZM87.74 42.26l13.37-10.69-.41-1.17-13.37 10.69.41 1.17Z"/></g><mask id="c" style="mask-type:luminance" maskUnits="userSpaceOnUse" x="79" y="31" width="9" height="17"><path d="m79.15 47.37 8.44-4.22V31.42l-8.44 4.22v11.73Z" fill="#fff"/></mask><g opacity=".43" fill="#fff" mask="url(#c)"><path d="m76.57 41.19 13.33-9.91-.25-.89-13.33 9.91.25.89ZM76.88 42.56l13.33-9.91-.25-.89-13.33 9.91.25.89Z"/></g><path d="M130.33 98.24s-1.11-.12-.74 1.35c.38 1.47 1.19 3.31.96 3.57-.17.2-2.55 2.08-3.82 2.93.39.17.65.41.81.72 1.44-.82 4.04-2.31 4.19-2.66.18-.44-.52-5.37-1.41-5.92l.01.01Z" fill="#C1DBE8"/><path d="M126.74 106.09c-.37.25-.65.41-.75.42-.44.04-1.06 1.79-.86 1.79.2 0 .86-.57 1.6-1.01.15-.09.45-.26.82-.47-.16-.31-.42-.55-.81-.72v-.01Z" fill="#E9BAAD"/><path d="m131.8 120.59-1.09.33s-.62 1.21-.89 1.63c-.27.42-.71 1.25-.56 1.42.15.17 1.51.07 1.79-.27.28-.33.36-1.28.64-1.36.27-.08.44.92.5 1.05s.32-.01.32-.01l-.3-1.17s-.04-.74-.11-.98c-.05-.17-.31-.64-.31-.64h.01Z" fill="#1A0B0A"/><path d="M133.61 121.79h-1.48s-.59 1-.96 1.33c-.37.33-1.03 1.01-.93 1.21.1.2 1.43.48 1.8.24.37-.24.71-1.13.99-1.13s.19.88.21 1.02c.02.14.31.08.31.08l.02-1.08s.17-.72.17-.97c0-.18-.12-.7-.12-.7h-.01Z" fill="#3E1B18"/><path d="M131.79 111.95s.22 3.7.33 4.45c.11.75.03 5.14.03 5.55 0 .41-1.13 1.42-1.13 1.42s.97.26 1.3-.07c.33-.33 1.19-1.08 1.27-1.52.08-.44.15-1.84.43-3.38.26-1.4-.07-1.79-.1-2.53-.04-1.13.39-3.18.36-3.92h-2.49Z" fill="#E9BAAD"/><path d="M131.7 111.24s-1.55 2.46-1.44 2.98c.11.52.77.94 1.05 1.85.28.91.39 4.25.39 4.25l.14.52s-1.24 3.37-1.77 1.77l.64-1.68c-.44-1.46-2.46-5.83-2.68-6.3-.22-.47.61-3.56 1.05-4.06l2.62.66v.01Z" fill="#DAAC9F"/><path d="M131.34 98.2c-.13-.17-.26-.35-.38-.54-.44-.72-.77-1.41-1.16-2.05.08-1.33.36-2.66.36-2.66s1.26-.52 1.88-.35c.62.18-.17 3.41-.17 3.41l.44 2.21s-.46 0-.96-.03l-.01.01Z" fill="#9E6060"/><path d="m134.01 98.29-.28-.15-.69-.17v-1.85s2.8-2.54.98-3.28c-1.82-.74-3.36-.81-3.53 0-.17.81-.06 3.53.34 3.87.4.34.59.26.59.26l.15.77-.54.23-.71 2.65.55 1.22s1.62-.18 1.79-.29c.16-.11.82-2.14.82-2.14l.54-1.11-.01-.01Z" fill="#E9CDC6"/><path d="M130.46 104c.97.57 2.27 1.09 3.42.64-.02-.11-.03-.19-.03-.25 0-.4.96-4.31 1.2-5.28a.31.31 0 0 0-.14-.33l-1.17-.64a.283.283 0 0 0-.39.11c-.42.75-2 1.42-2 1.42s-.3-1.74-.06-1.81c.24-.07-1.15.14-1.15.14s-.96 2.36-.85 3.06c.11.7 1.19 2.43 1.2 2.8 0 .02 0 .07-.02.14h-.01Z" fill="#3D7EFF"/><path d="M134.09 105.45c-.09-.31-.17-.61-.21-.82-1.15.46-2.45-.07-3.42-.64-.03.14-.08.37-.15.67 1.16.79 2.55 1.28 3.78.79Z" fill="#0A0A0A"/><path d="M136.51 117.58c-.12-.88-1.82-10.12-1.89-10.38-.04-.18-.32-1.02-.54-1.75-1.23.49-2.62 0-3.78-.79-.67 2.79-3.06 11.85-3.28 12.6-.26.87 5.17 1.72 5.62 1.43.36-.24 3.38-.6 3.73-.84.09-.06.14-.16.12-.27h.02Z" fill="#51526E"/><path d="M129.89 110.79c.1-.24.39-.48.64-.54.25-.06.37.08.27.32-.1.24-.39.48-.64.54-.25.06-.37-.08-.27-.32Z" fill="#BF6992"/><path d="m130.83 110.38-.68-1.64-1.58.44 1.29 1.83.97-.63Z" fill="#BF6992"/><path d="M127.24 109.38c.17.2.4.15.52-.12s.08-.65-.09-.86c-.17-.2-.4-.15-.52.12s-.08.65.09.86Z" fill="#E37CAE"/><path d="m127.33 108.3.14 1.2 2.22.03-.14-2.21-2.22.98Z" fill="#E37CAE"/><path d="M129.22 109.31c-.31-.37-.38-1.06-.17-1.55.1-.24.26-.38.42-.43.17-.05.36.02.52.21.31.37.38 1.06.17 1.55s-.64.59-.94.22Z" fill="#EB80B3"/><path d="M129.38 108.941c-.17-.21-.22-.61-.09-.89.12-.28.36-.34.54-.13.17.21.22.61.09.89-.12.28-.36.34-.54.13Z" fill="#CA6E9A"/><path d="M133.36 97.78c-.23.25-.44.5-.66.73-.69-.5-.15-2.88.07-3.74-.84-.74-2.07-1.79-2.24-1.8-.29-.03-.07 1.22-.14 1.15-.3-.31-.54-1.75.45-2.47.99-.72 4.06-.68 4.03 1.82-.01 1.08.13 1.84.24 2.44-.54.65-1.17 1.22-1.75 1.86v.01Z" fill="#9E6060"/><path d="M130.71 108.79s-1.16 1.1-.91 1.79c.25.68 1.59-1.2 1.76-1.53.06-.11.36-.53.75-1.07-.29-.11-.61-.18-.97-.26l-.63 1.07Z" fill="#DAAC9F"/><path d="M135.59 99.74s-.61-1.31-1.09-.62l-1.4 5.51-1.84 3.16c.35.08.68.16.97.26.73-1 1.79-2.42 2.22-3.05.2-.3 1.32-4.89 1.15-5.27l-.01.01Z" fill="#C1DBE8"/><path d="m133.01 101.56-1.15-.19-.2-.64 1.16.2.19.63Z" fill="#E8E8E8"/><path d="m126.45 104.73.69.47v-1.53l-.69-.47v1.53Z" fill="#9BD1F6"/><path d="M125.68 102.59c0 .51.5 1.26 1 1.51.51.25 1.08-.24 1.08-.75s-.41-1.12-.92-1.38c-.51-.25-1.17.11-1.17.62h.01Z" fill="#9BD1F6"/><path d="M125.68 102.69c0 .51.41 1.12.92 1.38.51.25.92.05.92-.46s-.41-1.12-.92-1.38c-.51-.25-.92-.05-.92.46Z" fill="#C7E3F6"/><path d="M125.88 102.79c0 .4.32.88.72 1.08.4.2.72.04.72-.36 0-.4-.32-.88-.72-1.08-.4-.2-.72-.04-.72.36Z" fill="#B3CDDE"/><path d="M123.31 126.07h5.15V109.8h-5.15v16.27Z" fill="#6298AB"/><path d="M125.88 127.36c1.425 0 2.58-.577 2.58-1.29 0-.712-1.155-1.29-2.58-1.29s-2.58.578-2.58 1.29c0 .713 1.155 1.29 2.58 1.29Z" fill="#6298AB"/><path d="M123.16 109.53c-1.01.5-1.01 1.32 0 1.82s2.64.5 3.65 0c1.01-.5 1.01-1.32 0-1.82s-2.64-.5-3.65 0Z" fill="#F6F6F6"/><path d="M133.16 110.43c-.69 1.88-4.5 3.4-8.48 1.94-3.98-1.46-6.62-5.33-5.93-7.21.69-1.88 4.47-1.49 8.45-.03 3.98 1.46 6.65 3.42 5.96 5.3Z" fill="#CCC"/><path d="M133.158 110.439c.689-1.883-1.978-4.588-5.956-6.044-3.978-1.455-7.762-1.108-8.45.775-.689 1.883 1.978 4.589 5.956 6.044 3.978 1.455 7.762 1.108 8.45-.775Z" fill="#E3F5FC"/><path d="M132.38 110.65c-.65 1.78-4.22 2.1-7.97.73s-6.27-3.92-5.62-5.7c.65-1.78 4.22-2.1 7.97-.73s6.27 3.92 5.62 5.7Z" fill="#CAE6F0"/><path d="M131.54 110.72c-.58 1.59-3.77 1.88-7.13.65s-5.61-3.51-5.03-5.1c.58-1.59 3.77-1.88 7.13-.65s5.61 3.51 5.03 5.1Z" fill="#BFD9E3"/><path d="m128.2 104.84.4.21v.78l-.4-.21v-.78Z" fill="#9E9E9E"/><path d="m126.98 105.86 2.19-1.1-.45-.22-2.05 1.17.31.15Z" fill="#E0E0E0"/><path d="M126.67 105.71v.27l.31.16v-.28l-.31-.15Z" fill="#A3A3A3"/><path d="m128.6 105.83.57-.29v-.78l-2.19 1.1v.28l1.62-.74v.43Z" fill="#BFBFBF"/><path d="M125.14 111.2s-3.79-1.75-5.05-3.65c-.82-1.23-.58.29-.49.66.39 1.54 1 2.25 1.91 2.79.76.46 1.87.74 3.38.8 2.05.08.25-.6.25-.6Z" fill="#838E91"/><path d="M115.58 126.94c-1.79.9-1.54 2.54.25 3.44 1.79.9 4.7.9 6.49 0s1.94-2.66.15-3.55c-1.79-.89-5.1-.78-6.89.12v-.01Z" fill="#A39090"/><path d="M119.07 130.65c2.535 0 4.59-1.025 4.59-2.29 0-1.264-2.055-2.29-4.59-2.29-2.535 0-4.59 1.026-4.59 2.29 0 1.265 2.055 2.29 4.59 2.29Z" fill="#CCB5B5"/><path d="M119.07 128.92c.619 0 1.12-.251 1.12-.56 0-.309-.501-.56-1.12-.56-.618 0-1.12.251-1.12.56 0 .309.502.56 1.12.56Z" fill="#E8CCCC"/><path d="M117.96 128.37h2.24v-7.89h-2.24v7.89Z" fill="#E8CCCC"/><path d="M114.68 118c-2.25 1.12-1.93 3.14.32 4.26 2.25 1.12 5.9 1.12 8.15 0s2.46-3.08.21-4.2-6.42-1.18-8.67-.06h-.01Z" fill="#963636"/><path d="M119.07 122.38c3.181 0 5.76-1.289 5.76-2.88 0-1.59-2.579-2.88-5.76-2.88-3.182 0-5.76 1.29-5.76 2.88 0 1.591 2.578 2.88 5.76 2.88Z" fill="#F25858"/><path d="M124.87 120.35s1.74-4.81-3.63-7.33c-4.26-2.01-3.55 3.63-3.55 3.63s2.68-1.03 6.74 3.9c.05.07.38-.27.44-.2Z" fill="#963636"/><path d="M124.48 120.61s1.74-4.81-3.63-7.33c-4.26-2.01-3.72 3.51-3.72 3.51.05.1 3.24-1.29 7.35 3.82Z" fill="#FC7676"/><path d="M119.17 109.17s-1.23.2-1.09 1.77c.14 1.57.84 3.4.57 3.63-.21.18-2.96 1.71-4.41 2.37.37.24.59.53.71.88 1.61-.6 4.54-1.7 4.75-2.03.26-.42.3-5.9-.52-6.61l-.01-.01Z" fill="#CF644F"/><path d="M114.23 116.939c-.42.19-.73.31-.84.31-.46-.04-1.39 1.66-1.18 1.69.21.03.98-.44 1.81-.77.17-.07.5-.19.92-.35-.11-.34-.34-.63-.71-.88Z" fill="#DEBE95"/><path d="M113.36 129.17h-1.18s-.96.92-1.34 1.22c-.38.3-1.06.94-.95 1.13.11.19 1.49.49 1.87.26.38-.23.72-1.06 1.01-1.06.29 0 .19.96.21 1.09.02.13.33.08.33.08l.02-1.15s.17-.68.16-.92c0-.17-.13-.66-.13-.66v.01Z" fill="#54140D"/><path d="m114.87 130.6-1.52-.25s-.76.84-1.19 1.09c-.43.25-1.21.77-1.14.98.07.21 1.4.69 1.81.53.41-.17.9-.94 1.19-.89.29.05.06.5.06.63s.31.13.31.13l.18-.66s.28-.65.32-.88c.03-.17-.02-.67-.02-.67v-.01Z" fill="#801E14"/><path d="M114.49 121.1s-.33 3.49-.33 4.21c0 .72-.75 4.8-.81 5.19-.06.39-1.38 1.14-1.38 1.14s.95.41 1.34.15c.39-.25 1.38-.81 1.53-1.21.15-.4.43-1.7.96-3.08.48-1.27.2-1.68.28-2.38.13-1.07.88-2.9.96-3.6l-2.55-.41v-.01Z" fill="#FFDAAB"/><path d="M115.86 120.66s-2.23 1.79-2.26 2.3c-.04.51.25 1.22.27 2.12.02.9-.53 3.82-.53 3.82v.51s-2.19 2.71-2.27 1.11l1.1-1.35c-.04-1.45-.84-5.97-.93-6.46-.09-.49 2.09-2.79 2.67-3.11l1.94 1.07.01-.01Z" fill="#DEBE95"/><path d="m122.8 109.35-1.59 1.45s-.99-1.64-.89-1.9c.41-1.14 4.15-2.47 4.15-2.47s1.05.77 1.21 1.37c.16.6-2.87 1.55-2.87 1.55h-.01Z" fill="#AD7D3E"/><path d="m122.4 118.36-5.13-1.84c-4.29 2.47-5.87 2.96-6.59 4.4-.25.49 3.24 2.33 4.65 2.87.77.29 1.39.75 1.39.75.13-.23 5.78-4.69 5.68-6.18Z" fill="#595757"/><path d="m122.44 108.79-.39.86.68.29.27.21-.74 1.05s-1.01 1.97-1.2 2.06c-.19.09-1.88 0-1.88 0l-.36-1.34 1.17-2.6.6-.14 1.47-1.05c.66 0-.1 1.12.39.67l-.01-.01Z" fill="#FFDAAB"/><path d="m121.64 109.17-.52-.09s-.64-.71-.56-1.24c.08-.54 2.51-1.62 3.32-1.91.81-.28 1.57 1.12 1.9 3.14.28 1.74-.44-.79-1.19-.99.01 0-2.03 1.93-2.02 1.93h-.04c-.12-.03-.19-.05-.19-.05l-.06.04c-.67-.08-.21-.33-.64-.84v.01Z" fill="#FFDAAB"/><path d="M120.21 109.22s-.37 1.53.07 1.77c.23.13 1-.72 1.61-1 1.75-.81-2.24 2.66-2.24 2.66l-.55-.97 1.11-2.47v.01Z" fill="#fff"/><path d="m123.851 110.63-1.12-.74c-.13-.09-.32-.08-.42.03-.53.57-2.7 1.78-2.7 1.78s.39-2.43.65-2.45c.26-.02-1.2-.07-1.2-.07s-1.31 1.86-1.29 2.47c.02.62-.36 4.07-.4 4.39-.04.32-5.25 3.08-6.01 3.49-.71.38 2.83 3.02 4.45 3.49 1.17.34 1.85.77 2.22.56 1.87-1.06 4.37-3.03 4.36-4.78 0-.27-.78-1.92-.72-2.31.05-.34 1.89-4.77 2.28-5.56.05-.1 0-.23-.1-.3Z" fill="#FF7C61"/><path d="M119.62 111.69s.54-.26.88-.26c.18 0 .22.21.26.28l1.92-1.69-.27-.1-2.79 1.77Z" fill="#FFB98C"/><path d="m120.21 109.219-.59-.03s-.44 1.94-.48 1.95c-.02 0 .31-.07.44.03.11.08.03.31.04.52.04.75.59-2.48.59-2.48v.01Z" fill="#FFB98C"/><path d="M119.73 120.95s-1.28 1.34-.95 2.11c.32.78 1.77-1.48 1.94-1.86.06-.13.39-.64.81-1.28-.34-.11-.72-.18-1.13-.25l-.67 1.27v.01Z" fill="#FFDAAB"/><path d="M124.34 111.33c0-.15-.05-.3-.16-.4-.26-.27-.87-.77-1.26-.14l-1.3 6.37a.88.88 0 0 1-.05.15l-1.56 2.99c-.17.33.01.74.38.83h.01c.23.06.48-.04.61-.24.77-1.16 1.75-2.62 2.17-3.3.2-.32 1.15-5.05 1.17-6.26h-.01Z" fill="#FF9580"/><path d="M124.94 105.56c1.08.46 1.31 1.48 1.66 3.84.02.12 3.97 1.99 2.74 1.92-1.23-.07-2.14.21-3.25.23-.33 0 .49-.38.49-.38s-.31.05-.17-.04c1.13-.71-5.22-1.17-3.91-1.9.52-.72 1.01-1.45 1.01-1.45s-.75.71-.49.41.63-1.39.63-1.39c.06-.45.16-.66.13-.73-.12-.25-1.68.7-1.66.62.11-.4 1.75-1.6 2.83-1.15l-.01.02Z" fill="#D4A568"/><path d="M122.82 109.94a.254.254 0 0 0-.17-.04c-.47.06-2.56.26-2.33-.83.25-1.23-2.67 1.43-2.67 1.43s-.33 4.9-1.78 5.31c-1.44.41-.41 2.26-.41 2.26s2.67.85 2.67 1.43 3.02.36 3.02.36 1.11 1.1 1.18.61c.07-.49 1.68.94 1.86.05.19-.89.97-8.85.31-9.37-.55-.44-1.42-1.03-1.69-1.21h.01Z" fill="#E0E0E0"/><path d="M122 112.95s.04 2.96-.19 3.86c-.23.9-1.09 3.07-1.09 3.07l-.86.02s2.56-6.28 2.14-6.95Z" fill="#C9C9C9"/><path d="m101.89 90.97.7.48v-1.53l-.7-.48v1.53Z" fill="#9BD1F6"/><path d="M101.13 88.84c0 .51.5 1.26 1 1.51.51.25 1.08-.24 1.08-.75s-.41-1.12-.92-1.38c-.51-.25-1.17.11-1.17.62h.01Z" fill="#9BD1F6"/><path d="M101.13 88.93c0 .51.41 1.12.92 1.38.51.26.92.05.92-.46s-.41-1.12-.92-1.38c-.51-.26-.92-.05-.92.46Z" fill="#C7E3F6"/><path d="M101.33 89.03c0 .4.32.88.72 1.08.4.2.72.04.72-.36 0-.4-.32-.88-.72-1.08-.4-.2-.72-.04-.72.36Z" fill="#B3CDDE"/><path d="M98.75 112.32h5.15V96.05h-5.15v16.27Z" fill="#6298AB"/><path d="M101.33 113.61c1.425 0 2.58-.577 2.58-1.29 0-.712-1.155-1.29-2.58-1.29s-2.58.578-2.58 1.29c0 .713 1.155 1.29 2.58 1.29Z" fill="#6298AB"/><path d="M100.43 97.98c1.425 0 2.58-.577 2.58-1.29 0-.712-1.155-1.29-2.58-1.29s-2.58.578-2.58 1.29c0 .713 1.155 1.29 2.58 1.29Z" fill="#F6F6F6"/><path d="M108.61 96.68c-.69 1.88-4.5 3.4-8.48 1.94-3.98-1.46-6.62-5.33-5.93-7.21.69-1.88 4.47-1.49 8.45-.03 3.98 1.46 6.65 3.42 5.96 5.3Z" fill="#CCC"/><path d="M108.61 96.68c-.69 1.88-4.47 2.23-8.45.77-3.98-1.46-6.65-4.16-5.96-6.04.69-1.88 4.47-2.23 8.45-.77 3.98 1.46 6.65 4.16 5.96 6.04Z" fill="#E3F5FC"/><path d="M107.83 96.9c-.65 1.78-4.22 2.1-7.97.73s-6.27-3.92-5.62-5.7c.65-1.78 4.22-2.1 7.97-.73s6.27 3.92 5.62 5.7Z" fill="#CAE6F0"/><path d="M106.99 96.97c-.58 1.59-3.77 1.88-7.13.65s-5.61-3.51-5.03-5.1c.58-1.59 3.77-1.88 7.13-.65s5.61 3.51 5.03 5.1Z" fill="#BFD9E3"/><path d="m103.65 91.09.4.21v.78l-.4-.21v-.78Z" fill="#9E9E9E"/><path d="m102.43 92.11 2.19-1.1-.45-.22-2.05 1.17.31.15Z" fill="#E0E0E0"/><path d="M102.12 91.96v.27l.31.15v-.27l-.31-.15Z" fill="#A3A3A3"/><path d="m104.05 92.08.57-.29v-.78l-2.19 1.1v.27l1.62-.73v.43Z" fill="#BFBFBF"/><path d="M100.59 97.44s-3.79-1.75-5.05-3.65c-.82-1.23-.58.29-.49.66.39 1.54 1 2.25 1.91 2.79.76.46 1.87.74 3.38.8 2.05.08.25-.6.25-.6Z" fill="#838E91"/><path d="M91.03 113.18c-1.79.9-1.54 2.54.25 3.44 1.79.9 4.7.9 6.49 0s1.94-2.66.15-3.55c-1.79-.9-5.1-.78-6.89.12v-.01Z" fill="#A39090"/><path d="M94.52 116.9c2.535 0 4.59-1.025 4.59-2.29 0-1.264-2.055-2.29-4.59-2.29-2.535 0-4.59 1.026-4.59 2.29 0 1.265 2.055 2.29 4.59 2.29Z" fill="#CCB5B5"/><path d="M93.73 114.21c-.44.22-.44.57 0 .79.44.22 1.15.22 1.59 0 .44-.22.44-.57 0-.79-.44-.22-1.15-.22-1.59 0Z" fill="#E8CCCC"/><path d="M93.41 114.61h2.24v-7.89h-2.24v7.89Z" fill="#E8CCCC"/><path d="M90.13 104.25c-2.25 1.12-1.93 3.14.32 4.26 2.25 1.12 5.9 1.12 8.15 0s2.46-3.08.21-4.2-6.42-1.18-8.67-.06h-.01Z" fill="#963636"/><path d="M94.52 108.63c3.18 0 5.76-1.289 5.76-2.88 0-1.59-2.58-2.88-5.76-2.88-3.181 0-5.76 1.29-5.76 2.88 0 1.591 2.579 2.88 5.76 2.88Z" fill="#F25858"/><path d="M100.32 106.6s1.74-4.81-3.63-7.33c-4.26-2.01-3.55 3.63-3.55 3.63s2.68-1.03 6.74 3.9c.05.07.38-.27.44-.2Z" fill="#963636"/><path d="M99.93 106.86s1.74-4.81-3.63-7.33c-4.26-2.01-3.72 3.51-3.72 3.51.05.1 3.24-1.29 7.35 3.82Z" fill="#FC7676"/><path d="M94.62 95.42s-1.23.2-1.09 1.77c.14 1.57.84 3.4.57 3.63-.21.18-2.96 1.71-4.41 2.37.37.24.59.53.71.88 1.61-.6 4.54-1.7 4.75-2.03.26-.42.3-5.9-.52-6.61l-.01-.01Z" fill="#CF644F"/><path d="M89.68 103.189c-.42.19-.73.31-.84.31-.46-.04-1.39 1.66-1.18 1.69.21.03.98-.44 1.81-.77.17-.07.5-.19.92-.35-.11-.34-.34-.63-.71-.88Z" fill="#D6A15E"/><path d="M88.81 115.42h-1.18s-.96.92-1.34 1.22c-.38.31-1.06.94-.95 1.13.11.19 1.49.49 1.87.26.38-.23.72-1.06 1.01-1.06.29 0 .19.96.21 1.09.02.13.33.08.33.08l.02-1.15s.17-.68.16-.92c0-.17-.13-.66-.13-.66v.01Z" fill="#54140D"/><path d="m90.32 116.85-1.52-.25s-.76.84-1.19 1.09c-.43.25-1.21.77-1.14.98.07.21 1.4.69 1.81.53.41-.16.9-.94 1.19-.89.29.05.06.5.06.63 0 .14.31.13.31.13l.18-.66s.28-.65.32-.88c.03-.17-.02-.67-.02-.67v-.01Z" fill="#801E14"/><path d="M89.94 107.35s-.33 3.49-.33 4.21c0 .72-.75 4.8-.81 5.19-.06.39-1.38 1.14-1.38 1.14s.95.41 1.34.15c.39-.26 1.38-.81 1.53-1.21.15-.4.43-1.7.96-3.08.48-1.27.2-1.68.28-2.38.13-1.07.88-2.9.96-3.6l-2.55-.41v-.01Z" fill="#FFC070"/><path d="M91.31 106.91s-2.23 1.79-2.26 2.3c-.04.51.25 1.22.27 2.12.02.9-.53 3.82-.53 3.82v.51s-2.19 2.71-2.27 1.11l1.1-1.35c-.04-1.45-.84-5.97-.93-6.46-.09-.49 2.09-2.79 2.67-3.11l1.94 1.07.01-.01Z" fill="#D6A15E"/><path d="m98.25 95.6-1.59 1.45s-.99-1.64-.89-1.9c.41-1.14 4.15-2.47 4.15-2.47s1.05.77 1.21 1.37c.16.59-2.87 1.55-2.87 1.55h-.01Z" fill="#AD7D3E"/><path d="m97.85 104.6-5.13-1.84c-4.29 2.47-5.87 2.96-6.59 4.4-.25.49 3.24 2.33 4.65 2.87.77.29 1.39.75 1.39.75.13-.23 5.78-4.69 5.68-6.18Z" fill="#595757"/><path d="m97.89 95.04-.39.86.68.29.27.21-.74 1.05s-1.01 1.97-1.2 2.06c-.19.09-1.88 0-1.88 0l-.36-1.34 1.17-2.6.6-.14 1.47-1.05c.66 0-.1 1.12.39.67l-.01-.01Z" fill="#FFC070"/><path d="m97.09 95.42-.52-.09s-.64-.71-.56-1.24c.08-.54 2.51-1.62 3.32-1.91.81-.28 1.57 1.12 1.9 3.14.28 1.74-.44-.79-1.19-.99.01 0-2.03 1.93-2.02 1.93h-.04c-.12-.03-.19-.05-.19-.05l-.06.04c-.67-.08-.21-.33-.64-.84v.01Z" fill="#FFC070"/><path d="M95.66 95.46s-.37 1.53.07 1.77c.23.13 1-.72 1.61-1 1.75-.81-2.24 2.66-2.24 2.66l-.55-.97 1.11-2.47v.01Z" fill="#fff"/><path d="m99.3 96.87-1.12-.74c-.13-.09-.32-.08-.42.03-.53.57-2.7 1.78-2.7 1.78s.39-2.43.65-2.45c.26-.02-1.2-.07-1.2-.07s-1.31 1.86-1.29 2.47c.02.62-.36 4.07-.4 4.39-.04.32-5.25 3.08-6.01 3.49-.71.38 2.83 3.02 4.45 3.49 1.17.34 1.85.77 2.22.56 1.87-1.06 4.37-3.03 4.36-4.78 0-.27-.78-1.92-.72-2.31.05-.34 1.89-4.77 2.28-5.56.05-.1 0-.23-.1-.3Z" fill="#595757"/><path d="M95.07 97.94s.54-.26.88-.26c.18 0 .22.21.26.28l1.92-1.69-.27-.1-2.79 1.77Z" fill="#FFB98C"/><path d="m95.66 95.46-.59-.03s-.44 1.94-.48 1.95c-.02 0 .31-.07.44.03.11.08.03.31.04.52.04.75.59-2.48.59-2.48v.01Z" fill="#FFB98C"/><path d="M95.18 107.2s-1.28 1.34-.95 2.11c.33.77 1.77-1.48 1.94-1.86.06-.13.39-.64.81-1.28-.34-.11-.72-.18-1.13-.25l-.67 1.27v.01Z" fill="#FFC070"/><path d="M99.79 97.57c0-.15-.05-.3-.16-.4-.26-.27-.87-.77-1.26-.14l-1.3 6.37c-.01.05-.03.1-.05.15l-1.56 2.99c-.17.33.01.74.38.83h.01c.23.06.48-.04.61-.24.77-1.16 1.75-2.62 2.17-3.3.2-.32 1.15-5.05 1.17-6.26h-.01Z" fill="#FF9580"/><path d="M100.391 91.81c1.08.46 1.32 1.48 1.66 3.84.02.12 3.97 1.99 2.74 1.92-1.24-.07-2.14.21-3.25.23-.33 0 .49-.38.49-.38s-.32.05-.17-.04c1.13-.71-5.22-1.17-3.91-1.9.52-.72 1.01-1.45 1.01-1.45s-.75.71-.49.41.63-1.39.63-1.39c.06-.45.16-.66.13-.73-.12-.25-1.68.7-1.66.62.11-.4 1.75-1.6 2.83-1.15l-.01.02Z" fill="#40321F"/><path d="M98.27 96.19a.254.254 0 0 0-.17-.04c-.47.06-2.56.26-2.33-.83.25-1.23-2.67 1.43-2.67 1.43s-.33 4.9-1.78 5.31c-1.44.41-.41 2.26-.41 2.26s2.67.85 2.67 1.43 3.02.36 3.02.36 1.11 1.1 1.18.61c.07-.49 1.68.94 1.86.05.19-.89.97-8.85.31-9.37-.55-.44-1.42-1.03-1.69-1.21h.01Z" fill="#E0E0E0"/><path d="M97.44 99.2s.04 2.96-.19 3.86c-.23.9-1.09 3.07-1.09 3.07l-.86.02s2.56-6.28 2.14-6.95Z" fill="#C9C9C9"/><path d="m52.7 69.48-6.16 3.29-2.23-1.19v-.22l6.16-3.07 2.23.97v.22Z" fill="#CFCFCF"/><path d="m52.7 69.26-6.16 3.29-2.23-1.19 6.16-3.29 2.23 1.19Z" fill="#fff"/><path d="m52.7 73.26-6.16 3.29-2.23-1.19v-.23l6.16-3.06 2.23.96v.23Z" fill="#CFCFCF"/><path d="m52.7 73.03-6.16 3.29-2.23-1.19 6.16-3.29 2.23 1.19Z" fill="#fff"/><path d="m52.7 77.11-6.16 3.29-2.23-1.19v-.23l6.16-3.06 2.23.97v.22Z" fill="#CFCFCF"/><path d="m52.7 76.89-6.16 3.29-2.23-1.2 6.16-3.28 2.23 1.19Z" fill="#fff"/><path d="m46.96 78.11-1.08-.57 1.08-.58 1.09.58-1.09.57Z" fill="#fff"/><path d="m48.05 79.09-1.09.57v-1.55l1.09-.57v1.55Z" fill="#8AC7E0"/><path d="m47.87 78.12-.73.39v-.09l.73-.4v.1ZM47.87 78.32l-.73.4v-.1l.73-.39v.09Z" fill="#70A3B7"/><path d="m46.96 79.66-1.08-.57v-1.55l1.08.57v1.55Z" fill="#94D6F0"/><path d="m46.8 78.49-.74-.39v-.09l.74.39v.09ZM46.8 78.67l-.74-.4v-.09l.74.4v.09ZM46.8 78.84l-.74-.39v-.09l.74.39v.09Z" fill="#E6E6E6"/><path d="m49.18 77.07-1.08-.57 1.08-.58 1.08.58-1.08.57Z" fill="#fff"/><path d="m50.26 78.05-1.08.58v-1.56l1.08-.57v1.55Z" fill="#8AD8E0"/><path d="m50.09 77.08-.74.39v-.09l.74-.4v.1ZM50.09 77.29l-.74.39v-.09l.74-.4v.1Z" fill="#70B1B7"/><path d="m49.18 78.63-1.08-.58V76.5l1.08.57v1.56Z" fill="#94E8F0"/><path d="m49.01 77.46-.73-.4v-.09l.73.39v.1ZM49.01 77.63l-.73-.39v-.1l.73.4v.09ZM49.01 77.81l-.73-.4v-.09l.73.39v.1Z" fill="#E6E6E6"/><path d="m46.64 74.61-1.08-.58 1.08-.57 1.08.57-1.08.58Z" fill="#fff"/><path d="m47.72 75.58-1.08.58v-1.55l1.08-.58v1.55Z" fill="#8AD8E0"/><path d="m47.55 74.61-.74.4v-.1l.74-.39v.09ZM47.55 74.82l-.74.39v-.09l.74-.39v.09Z" fill="#70B1B7"/><path d="m46.64 76.16-1.08-.58v-1.55l1.08.58v1.55Z" fill="#94E8F0"/><path d="m46.48 74.99-.74-.39v-.1l.74.4v.09ZM46.48 75.17l-.74-.4v-.09l.74.39v.1ZM46.48 75.34l-.74-.39v-.1l.74.4v.09Z" fill="#E6E6E6"/><path d="m50.64 72.48-1.08-.58 1.08-.58 1.08.58-1.08.58Z" fill="#fff"/><path d="m51.72 73.45-1.08.58v-1.55l1.08-.58v1.55Z" fill="#8AC7E0"/><path d="m51.55 72.48-.74.39v-.09l.74-.39v.09ZM51.55 72.69l-.74.39v-.09l.74-.4v.1Z" fill="#70A3B7"/><path d="m50.64 74.03-1.08-.58V71.9l1.08.58v1.55Z" fill="#94D6F0"/><path d="m50.47 72.86-.74-.4v-.09l.74.39v.1ZM50.47 73.03l-.74-.39v-.09l.74.39v.09ZM50.47 73.21l-.74-.4v-.09l.74.39v.1Z" fill="#E6E6E6"/><path d="m49.07 73.66-.66-.35.66-.35.65.35-.65.35Z" fill="#fff"/><path d="m49.72 74.25-.65.35v-.94l.65-.35v.94Z" fill="#8AD8E0"/><path d="m49.62 73.66-.45.24v-.05l.45-.24v.05ZM49.62 73.79l-.45.24v-.06l.45-.24v.06Z" fill="#70B1B7"/><path d="m49.07 74.6-.66-.35v-.94l.66.35v.94Z" fill="#94E8F0"/><path d="m48.97 73.89-.45-.24v-.05l.45.24v.05ZM48.97 74l-.45-.24v-.06l.45.24V74ZM48.97 74.1l-.45-.23v-.06l.45.24v.05Z" fill="#E6E6E6"/><path d="M47.21 71.1c.34.18.34.48 0 .66-.34.18-.89.18-1.23 0-.34-.18-.34-.48 0-.66.34-.18.89-.18 1.23 0Z" fill="#CFCFCF"/><path d="M47.47 69.2h-1.75v2.22h1.75V69.2Z" fill="#CFCFCF"/><path d="M47.21 68.87c.34.18.34.48 0 .66-.34.18-.89.18-1.23 0-.34-.18-.34-.48 0-.66.17-.09.39-.14.62-.14.23 0 .45.05.62.14h-.01Z" fill="#FCFCFC"/><path d="M47.18 68.84c.32.17-.16.28 0 .62.1.22.04.28-1.16 0-.35-.08-.32-.45 0-.62.16-.09.37-.13.58-.13.21 0 .42.04.58.13Z" fill="#FCFCFC"/><path d="M46.3 68.75v.39s.03.09.09.12c.13.07.33.07.45 0 .06-.03.09-.08.09-.12v-.39h-.64.01Z" fill="#FCD7C6"/><path d="M46.84 68.63c.13.07.13.18 0 .24-.13.07-.33.07-.45 0s-.13-.18 0-.24a.556.556 0 0 1 .46 0h-.01Z" fill="#FCF7F5"/><path d="m46.9 68.3-.22.13v.45l.22-.12v-.46Z" fill="#C9AD9F"/><path d="m47.33 68.78-.97-.52.25-.14.9.57-.18.09Z" fill="#FCF7F5"/><path d="M47.51 68.69v.16l-.18.09v-.16l.18-.09Z" fill="#C9AD9F"/><path d="m46.68 68.88-.32-.16v-.46l.97.52v.16l-.65-.31v.25Z" fill="#FCD7C6"/><path d="M49.43 70.03c.34.18.34.48 0 .66-.34.18-.89.18-1.23 0-.34-.18-.34-.48 0-.66.34-.18.89-.18 1.23 0Z" fill="#CFCFCF"/><path d="M49.69 68.14h-1.75v2.22h1.75v-2.22Z" fill="#CFCFCF"/><path d="M49.43 67.81c.34.18.34.48 0 .66-.34.18-.89.18-1.23 0-.34-.18-.34-.48 0-.66.17-.09.39-.14.62-.14.23 0 .45.05.62.14h-.01Z" fill="#FCFCFC"/><path d="M49.39 67.77c.32.17.32.45 0 .62-.32.17-.84.17-1.16 0-.32-.17-.32-.45 0-.62.16-.09.37-.13.58-.13.21 0 .42.04.58.13Z" fill="#FCFCFC"/><path d="M48.51 67.68v.39s.03.09.09.12c.13.07.33.07.45 0 .06-.03.09-.08.09-.12v-.39h-.64.01Z" fill="#FCD7C6"/><path d="M49.06 67.56c.13.07.13.18 0 .24-.13.07-.33.07-.45 0-.13-.07-.13-.18 0-.24a.556.556 0 0 1 .46 0h-.01Z" fill="#FCF7F5"/><path d="m49.11 67.23-.22.13v.46l.22-.13v-.46Z" fill="#C9AD9F"/><path d="m49.55 67.71-.97-.52.25-.13.89.56-.17.09Z" fill="#FCF7F5"/><path d="M49.72 67.62v.16l-.17.09v-.16l.17-.09Z" fill="#C9AD9F"/><path d="m48.89 67.82-.31-.17v-.46l.97.52v.16l-.66-.3v.25Z" fill="#FCD7C6"/><path d="M50.79 69.19c.24.13.24.34 0 .47-.24.13-.64.13-.89 0-.24-.13-.24-.34 0-.47.24-.13.64-.13.89 0Z" fill="#CFCFCF"/><path d="M50.97 67.83h-1.25v1.6h1.25v-1.6Z" fill="#CFCFCF"/><path d="M50.79 67.6c.24.13.24.34 0 .47-.24.13-.64.13-.89 0-.24-.13-.24-.34 0-.47.12-.07.28-.1.44-.1.16 0 .32.03.44.1h.01Z" fill="#FCFCFC"/><path d="M50.76 67.57c.23.12.23.32 0 .44s-.6.12-.83 0c-.23-.12-.23-.32 0-.44.12-.06.27-.09.42-.09.15 0 .3.03.42.09h-.01Z" fill="#FCFCFC"/><path d="M50.13 67.5v.28s.02.06.07.09c.09.05.24.05.33 0 .04-.02.07-.06.07-.09v-.28H50.13Z" fill="#FCD7C6"/><path d="M50.52 67.42c.09.05.09.13 0 .17-.09.05-.24.05-.33 0-.09-.05-.09-.13 0-.17.04-.02.1-.04.16-.04s.12.01.16.04h.01Z" fill="#FCF7F5"/><path d="m50.56 67.18-.16.09v.33l.16-.09v-.33Z" fill="#C9AD9F"/><path d="m50.87 67.52-.69-.37.18-.09.64.4-.13.06Z" fill="#FCF7F5"/><path d="M51 67.46v.12l-.13.06v-.12l.13-.06Z" fill="#C9AD9F"/><path d="m50.4 67.6-.22-.12v-.33l.69.37v.12l-.47-.22v.18Z" fill="#FCD7C6"/><path d="m39.45 58.73-6.17 3.29-2.23-1.19v-.23l6.17-3.06 2.23.96v.23Z" fill="#CFCFCF"/><path d="m39.45 58.5-6.17 3.29-2.23-1.19 6.17-3.29 2.23 1.19Z" fill="#fff"/><path d="m39.45 62.5-6.17 3.29-2.23-1.19v-.22l6.17-3.07 2.23.97v.22Z" fill="#CFCFCF"/><path d="m39.45 62.28-6.17 3.29-2.23-1.19 6.17-3.29 2.23 1.19Z" fill="#fff"/><path d="m39.45 66.36-6.17 3.29-2.23-1.19v-.23l6.17-3.06 2.23.96v.23Z" fill="#CFCFCF"/><path d="m39.45 66.13-6.17 3.29-2.23-1.19 6.17-3.29 2.23 1.19Z" fill="#fff"/><path d="m33.71 67.36-1.08-.58 1.08-.58 1.08.58-1.08.58Z" fill="#fff"/><path d="m34.79 68.33-1.08.58v-1.55l1.08-.58v1.55Z" fill="#8AC7E0"/><path d="m34.62 67.36-.74.4v-.1l.74-.39v.09ZM34.62 67.57l-.74.39v-.09l.74-.39v.09Z" fill="#70A3B7"/><path d="m33.71 68.91-1.08-.58v-1.55l1.08.58v1.55Z" fill="#94D6F0"/><path d="m33.55 67.74-.74-.39v-.1l.74.4v.09ZM33.55 67.91l-.74-.39v-.09l.74.39v.09ZM33.55 68.09l-.74-.39v-.1l.74.4v.09Z" fill="#E6E6E6"/><path d="m35.93 66.32-1.08-.58 1.08-.57 1.08.57-1.08.58Z" fill="#fff"/><path d="m37.01 67.29-1.08.58v-1.55l1.08-.58v1.55Z" fill="#8AD8E0"/><path d="m36.84 66.32-.74.4v-.1l.74-.39v.09ZM36.84 66.53l-.74.4v-.1l.74-.39v.09Z" fill="#70B1B7"/><path d="m35.93 67.87-1.08-.58v-1.55l1.08.58v1.55Z" fill="#94E8F0"/><path d="m35.76 66.7-.74-.39v-.1l.74.4v.09ZM35.76 66.88l-.74-.4v-.09l.74.39v.1ZM35.76 67.05l-.74-.39v-.1l.74.4v.09Z" fill="#E6E6E6"/><path d="m33.39 63.86-1.08-.58 1.08-.58 1.08.58-1.08.58Z" fill="#fff"/><path d="m34.47 64.83-1.08.58v-1.55l1.08-.58v1.55Z" fill="#8AD8E0"/><path d="m34.3 63.86-.74.39v-.09l.74-.39v.09ZM34.3 64.07l-.74.39v-.09l.74-.4v.1Z" fill="#70B1B7"/><path d="m33.39 65.41-1.08-.58v-1.55l1.08.58v1.55Z" fill="#94E8F0"/><path d="m33.22 64.24-.73-.4v-.09l.73.39v.1ZM33.22 64.41l-.73-.39v-.1l.73.4v.09ZM33.22 64.59l-.73-.4v-.09l.73.39v.1Z" fill="#E6E6E6"/><path d="m37.38 61.72-1.08-.58 1.08-.57 1.08.57-1.08.58Z" fill="#fff"/><path d="m38.46 62.7-1.08.57v-1.55l1.08-.58v1.56Z" fill="#8AC7E0"/><path d="m38.29 61.73-.74.39v-.09l.74-.4v.1ZM38.29 61.93l-.74.4v-.1l.74-.39v.09Z" fill="#70A3B7"/><path d="m37.38 63.27-1.08-.57v-1.56l1.08.58v1.55Z" fill="#94D6F0"/><path d="m37.22 62.1-.74-.39v-.09l.74.39v.09ZM37.22 62.28l-.74-.4v-.09l.74.4v.09ZM37.22 62.45l-.74-.39v-.09l.74.39v.09Z" fill="#E6E6E6"/><path d="m35.81 62.91-.65-.35.65-.35.66.35-.66.35Z" fill="#fff"/><path d="m36.47 63.5-.66.35v-.94l.66-.35v.94Z" fill="#8AD8E0"/><path d="m36.36 62.91-.44.24v-.06l.44-.24v.06ZM36.36 63.03l-.44.24v-.05l.44-.24v.05Z" fill="#70B1B7"/><path d="m35.81 63.85-.65-.35v-.94l.65.35v.94Z" fill="#94E8F0"/><path d="m35.71 63.14-.45-.24v-.06l.45.24v.06ZM35.71 63.24l-.45-.23v-.06l.45.24v.05ZM35.71 63.35l-.45-.24v-.06l.45.24v.06Z" fill="#E6E6E6"/><path d="M33.96 60.35c.34.18.34.48 0 .66-.34.18-.89.18-1.23 0-.34-.18-.34-.48 0-.66.34-.18.89-.18 1.23 0Z" fill="#CFCFCF"/><path d="M34.22 58.45h-1.75v2.22h1.75v-2.22Z" fill="#CFCFCF"/><path d="M33.96 58.12c.34.18.34.48 0 .66-.34.18-.89.18-1.23 0-.34-.18-.34-.48 0-.66.17-.09.39-.14.62-.14.23 0 .45.05.62.14h-.01Z" fill="#FCFCFC"/><path d="M33.92 58.08c.32.17-.16.28 0 .62.1.22.04.28-1.16 0-.35-.08-.32-.45 0-.62.16-.09.37-.13.58-.13.21 0 .42.04.58.13Z" fill="#FCFCFC"/><path d="M33.04 57.99v.39s.03.09.09.12c.13.07.33.07.45 0 .06-.03.09-.08.09-.12v-.39h-.64.01Z" fill="#FCD7C6"/><path d="M33.59 57.87c.13.07.13.18 0 .24-.13.07-.33.07-.45 0-.13-.07-.13-.18 0-.24a.556.556 0 0 1 .46 0h-.01Z" fill="#FCF7F5"/><path d="m33.65 57.55-.23.12v.46l.23-.12v-.46Z" fill="#C9AD9F"/><path d="m34.08 58.02-.97-.52.25-.13.89.57-.17.08Z" fill="#FCF7F5"/><path d="M34.25 57.94v.16l-.17.09v-.17l.17-.08Z" fill="#C9AD9F"/><path d="m33.43 58.13-.32-.17v-.46l.97.52v.17l-.65-.31v.25Z" fill="#FCD7C6"/><path d="M36.18 59.28c.34.18.34.48 0 .66-.34.18-.89.18-1.23 0-.34-.18-.34-.48 0-.66.34-.18.89-.18 1.23 0Z" fill="#CFCFCF"/><path d="M36.43 57.38h-1.75v2.22h1.75v-2.22Z" fill="#CFCFCF"/><path d="M36.18 57.05c.34.18.34.48 0 .66-.34.18-.89.18-1.23 0-.34-.18-.34-.48 0-.66.17-.09.39-.14.62-.14.23 0 .45.05.62.14h-.01Z" fill="#FCFCFC"/><path d="M36.14 57.02c.32.17.32.45 0 .62-.32.17-.84.17-1.16 0-.32-.17-.32-.45 0-.62.16-.09.37-.13.58-.13.21 0 .42.04.58.13Z" fill="#FCFCFC"/><path d="M35.26 56.93v.39s.03.09.09.12c.13.07.33.07.45 0 .06-.03.09-.08.09-.12v-.39h-.64.01Z" fill="#FCD7C6"/><path d="M35.8 56.8c.13.07.13.18 0 .24-.13.07-.33.07-.45 0-.13-.07-.13-.18 0-.24a.556.556 0 0 1 .46 0h-.01Z" fill="#FCF7F5"/><path d="m35.86 56.48-.22.12v.46l.22-.12v-.46Z" fill="#C9AD9F"/><path d="m36.29 56.95-.97-.51.25-.14.9.57-.18.08Z" fill="#FCF7F5"/><path d="M36.47 56.87v.16l-.18.09v-.17l.18-.08Z" fill="#C9AD9F"/><path d="m35.64 57.06-.32-.16v-.46l.97.51v.17l-.65-.31v.25Z" fill="#FCD7C6"/><path d="M37.54 58.44c.24.13.24.34 0 .47-.24.13-.64.13-.89 0-.24-.13-.24-.34 0-.47.24-.13.64-.13.89 0Z" fill="#CFCFCF"/><path d="M37.72 57.08h-1.25v1.6h1.25v-1.6Z" fill="#CFCFCF"/><path d="M37.54 56.84c.24.13.24.34 0 .47-.24.13-.64.13-.89 0-.24-.13-.24-.34 0-.47.12-.07.28-.1.44-.1.16 0 .32.03.44.1h.01Z" fill="#FCFCFC"/><path d="M37.51 56.81c.23.12.23.32 0 .44s-.6.12-.83 0c-.23-.12-.23-.32 0-.44.12-.06.27-.09.42-.09.15 0 .3.03.42.09h-.01Z" fill="#FCFCFC"/><path d="M36.88 56.75v.28s.02.06.07.09c.09.05.24.05.33 0 .04-.02.07-.06.07-.09v-.28H36.88Z" fill="#FCD7C6"/><path d="M37.27 56.66c.09.05.09.13 0 .17-.09.05-.24.05-.33 0-.09-.05-.09-.13 0-.17.04-.02.1-.04.16-.04s.12.01.16.04h.01Z" fill="#FCF7F5"/><path d="m37.31 56.43-.16.09v.33l.16-.09v-.33Z" fill="#C9AD9F"/><path d="m37.62 56.77-.69-.37.17-.1.64.41-.12.06Z" fill="#FCF7F5"/><path d="M37.74 56.71v.11l-.12.07v-.12l.12-.06Z" fill="#C9AD9F"/><path d="m37.15 56.85-.22-.12v-.33l.69.37v.12l-.47-.22v.18Z" fill="#FCD7C6"/><path d="m39.49 70.17-6.16 3.29-2.23-1.19v-.23l6.16-3.06 2.23.96v.23Z" fill="#CFCFCF"/><path d="m39.49 69.94-6.16 3.29-2.23-1.19 6.16-3.29 2.23 1.19Z" fill="#fff"/><path d="m39.49 73.94-6.16 3.29-2.23-1.19v-.22l6.16-3.07 2.23.97v.22Z" fill="#CFCFCF"/><path d="m39.49 73.72-6.16 3.29-2.23-1.19 6.16-3.29 2.23 1.19Z" fill="#fff"/><path d="m39.49 77.8-6.16 3.28-2.23-1.19v-.22l6.16-3.07 2.23.97v.23Z" fill="#CFCFCF"/><path d="m39.49 77.57-6.16 3.29-2.23-1.19 6.16-3.29 2.23 1.19Z" fill="#fff"/><path d="m33.76 78.8-1.08-.58 1.08-.58 1.08.58-1.08.58Z" fill="#fff"/><path d="m34.84 79.77-1.08.58V78.8l1.08-.58v1.55Z" fill="#8AC7E0"/><path d="m34.67 78.8-.74.39v-.09l.74-.39v.09ZM34.67 79.01l-.74.39v-.09l.74-.4v.1Z" fill="#70A3B7"/><path d="m33.76 80.35-1.08-.58v-1.55l1.08.58v1.55Z" fill="#94D6F0"/><path d="m33.59 79.18-.74-.4v-.09l.74.39v.1ZM33.59 79.35l-.74-.39v-.09l.74.39v.09ZM33.59 79.53l-.74-.4v-.09l.74.39v.1Z" fill="#E6E6E6"/><path d="m35.97 77.76-1.08-.58 1.08-.58 1.08.58-1.08.58Z" fill="#fff"/><path d="m37.05 78.73-1.08.58v-1.55l1.08-.58v1.55Z" fill="#8AD8E0"/><path d="m36.88 77.76-.74.4v-.1l.74-.39v.09ZM36.88 77.97l-.74.39v-.09l.74-.39v.09Z" fill="#70B1B7"/><path d="m35.97 79.31-1.08-.58v-1.55l1.08.58v1.55Z" fill="#94E8F0"/><path d="m35.81 78.14-.74-.39v-.1l.74.4v.09ZM35.81 78.31l-.74-.39v-.09l.74.39v.09ZM35.81 78.49l-.74-.39V78l.74.4v.09Z" fill="#E6E6E6"/><path d="m33.43 75.29-1.08-.57 1.08-.58 1.08.58-1.08.57Z" fill="#fff"/><path d="m34.51 76.27-1.08.58v-1.56l1.08-.57v1.55Z" fill="#8AD8E0"/><path d="m34.34 75.3-.73.39v-.09l.73-.4v.1ZM34.34 75.51l-.73.39v-.09l.73-.4v.1Z" fill="#70B1B7"/><path d="m33.43 76.85-1.08-.58v-1.55l1.08.57v1.56Z" fill="#94E8F0"/><path d="m33.27 75.68-.74-.4v-.09l.74.39v.1ZM33.27 75.85l-.74-.39v-.1l.74.4v.09ZM33.27 76.03l-.74-.4v-.09l.74.39v.1Z" fill="#E6E6E6"/><path d="m37.43 73.16-1.08-.58 1.08-.57 1.08.57-1.08.58Z" fill="#fff"/><path d="m38.51 74.14-1.08.57v-1.55l1.08-.58v1.56Z" fill="#8AC7E0"/><path d="m38.34 73.16-.74.4v-.09l.74-.4v.09ZM38.34 73.37l-.74.4v-.1l.74-.39v.09Z" fill="#70A3B7"/><path d="m37.43 74.71-1.08-.57v-1.56l1.08.58v1.55Z" fill="#94D6F0"/><path d="m37.27 73.54-.74-.39v-.1l.74.4v.09ZM37.27 73.72l-.74-.4v-.09l.74.39v.1ZM37.27 73.89l-.74-.39v-.1l.74.4v.09Z" fill="#E6E6E6"/><path d="M35.86 74.35 35.2 74l.66-.35.65.35-.65.35Z" fill="#fff"/><path d="m36.51 74.94-.65.35v-.94l.65-.35v.94Z" fill="#8AD8E0"/><path d="m36.41 74.35-.45.24v-.06l.45-.24v.06ZM36.41 74.47l-.45.24v-.05l.45-.24v.05Z" fill="#70B1B7"/><path d="m35.86 75.29-.66-.35V74l.66.35v.94Z" fill="#94E8F0"/><path d="m35.76 74.58-.45-.24v-.06l.45.24v.06ZM35.76 74.68l-.45-.24v-.05l.45.24v.05ZM35.76 74.79l-.45-.24v-.06l.45.24v.06Z" fill="#E6E6E6"/><path d="M34.01 71.78c.34.18.34.48 0 .66-.34.18-.89.18-1.23 0-.34-.18-.34-.48 0-.66.34-.18.89-.18 1.23 0Z" fill="#CFCFCF"/><path d="M34.27 69.89h-1.75v2.22h1.75v-2.22Z" fill="#CFCFCF"/><path d="M34.01 69.56c.34.18.34.48 0 .66-.34.18-.89.18-1.23 0-.34-.18-.34-.48 0-.66.17-.09.39-.14.62-.14.23 0 .45.05.62.14h-.01Z" fill="#FCFCFC"/><path d="M33.97 69.52c.32.17-.16.28 0 .62.1.22.04.28-1.16 0-.35-.08-.32-.45 0-.62.16-.09.37-.13.58-.13.21 0 .42.04.58.13Z" fill="#FCFCFC"/><path d="M33.09 69.43v.39s.03.09.09.12c.13.07.33.07.45 0 .06-.03.09-.08.09-.12v-.39h-.64.01Z" fill="#FCD7C6"/><path d="M33.64 69.31c.13.07.13.18 0 .24-.13.07-.33.07-.45 0-.13-.07-.13-.18 0-.24a.556.556 0 0 1 .46 0h-.01Z" fill="#FCF7F5"/><path d="m33.69 68.98-.22.13v.46l.22-.13v-.46Z" fill="#C9AD9F"/><path d="m34.12 69.46-.96-.52.25-.13.89.56-.18.09Z" fill="#FCF7F5"/><path d="M34.3 69.37v.16l-.18.09v-.16l.18-.09Z" fill="#C9AD9F"/><path d="m33.47 69.57-.31-.17v-.46l.96.52v.16l-.65-.3v.25Z" fill="#FCD7C6"/><path d="M36.22 70.72c.34.18.34.48 0 .66-.34.18-.89.18-1.23 0-.34-.18-.34-.48 0-.66.34-.18.89-.18 1.23 0Z" fill="#CFCFCF"/><path d="M36.48 68.82h-1.75v2.22h1.75v-2.22Z" fill="#CFCFCF"/><path d="M36.22 68.49c.34.18.34.48 0 .66-.34.18-.89.18-1.23 0-.34-.18-.34-.48 0-.66.17-.09.39-.14.62-.14.23 0 .45.05.62.14h-.01Z" fill="#FCFCFC"/><path d="M36.18 68.45c.32.17.32.45 0 .62-.32.17-.84.17-1.16 0-.32-.17-.32-.45 0-.62.16-.09.37-.13.58-.13.21 0 .42.04.58.13Z" fill="#FCFCFC"/><path d="M35.3 68.36v.39s.03.09.09.12c.13.07.33.07.45 0 .06-.03.09-.08.09-.12v-.39h-.64.01Z" fill="#FCD7C6"/><path d="M35.85 68.24c.13.07.13.18 0 .24-.13.07-.33.07-.45 0-.13-.07-.13-.18 0-.24a.556.556 0 0 1 .46 0h-.01Z" fill="#FCF7F5"/><path d="m35.91 67.92-.23.12v.46l.23-.12v-.46Z" fill="#C9AD9F"/><path d="m36.34 68.39-.97-.52.25-.13.89.57-.17.08Z" fill="#FCF7F5"/><path d="M36.51 68.31v.16l-.17.09v-.17l.17-.08Z" fill="#C9AD9F"/><path d="m35.69 68.5-.32-.17v-.46l.97.52v.17l-.65-.31v.25Z" fill="#FCD7C6"/><path d="M37.58 69.88c.24.13.24.34 0 .47-.24.13-.64.13-.89 0-.24-.13-.24-.34 0-.47.24-.13.64-.13.89 0Z" fill="#CFCFCF"/><path d="M37.76 68.52h-1.25v1.6h1.25v-1.6Z" fill="#CFCFCF"/><path d="M37.58 68.28c.24.13.24.34 0 .47-.24.13-.64.13-.89 0-.24-.13-.24-.34 0-.47.12-.07.28-.1.44-.1.16 0 .32.03.44.1h.01Z" fill="#FCFCFC"/><path d="M37.56 68.25c.23.12.23.32 0 .44s-.6.12-.83 0c-.23-.12-.23-.32 0-.44.12-.06.27-.09.42-.09.15 0 .3.03.42.09h-.01Z" fill="#FCFCFC"/><path d="M36.92 68.19v.28s.02.06.07.09c.09.05.24.05.33 0 .04-.02.07-.06.07-.09v-.28H36.92Z" fill="#FCD7C6"/><path d="M37.32 68.1c.09.05.09.13 0 .17-.09.05-.24.05-.33 0-.09-.05-.09-.13 0-.17.04-.02.1-.04.16-.04s.12.01.16.04h.01Z" fill="#FCF7F5"/><path d="m37.36 67.87-.16.09v.33l.16-.09v-.33Z" fill="#C9AD9F"/><path d="m37.67 68.21-.7-.37.18-.1.64.41-.12.06Z" fill="#FCF7F5"/><path d="M37.79 68.15v.11l-.12.07v-.12l.12-.06Z" fill="#C9AD9F"/><path d="m37.2 68.29-.23-.12v-.33l.7.37v.12l-.47-.22v.18Z" fill="#FCD7C6"/><path d="M84.71 59.37s-1.04-.11-.69 1.26c.35 1.37 1.11 3.09.9 3.33-.16.19-2.38 1.94-3.57 2.74.36.16.6.39.75.67 1.34-.76 3.78-2.16 3.91-2.48.17-.41-.49-5.01-1.31-5.53l.01.01Z" fill="#C1DBE8"/><path d="M81.35 66.7c-.35.23-.6.38-.7.39-.41.03-.99 1.67-.8 1.67.19 0 .8-.53 1.49-.95.14-.08.42-.24.76-.44-.15-.29-.39-.51-.75-.67Z" fill="#E9BAAD"/><path d="m86.08 80.24-1.02.31s-.58 1.13-.83 1.52c-.25.39-.66 1.17-.52 1.33.14.15 1.41.06 1.67-.25s.34-1.2.59-1.27c.25-.07.41.86.47.98.05.12.3-.01.3-.01l-.28-1.1s-.04-.69-.1-.91c-.05-.16-.29-.59-.29-.59l.01-.01Z" fill="#1A0B0A"/><path d="M87.77 81.36h-1.39s-.55.94-.9 1.25c-.35.31-.96.94-.87 1.13.09.19 1.34.45 1.68.23.34-.23.66-1.06.92-1.06s.18.82.2.95c.02.13.29.07.29.07l.02-1.01s.16-.68.16-.91c0-.17-.11-.65-.11-.65Z" fill="#3E1B18"/><path d="M86.07 72.18s.21 3.45.31 4.15c.1.7.03 4.8.03 5.18 0 .38-1.06 1.33-1.06 1.33s.9.24 1.21-.06c.31-.3 1.11-1.01 1.19-1.42.08-.41.14-1.72.4-3.15.24-1.31-.07-1.67-.09-2.36-.04-1.06.36-2.96.34-3.66h-2.32l-.01-.01Z" fill="#E9BAAD"/><path d="M85.99 71.51s-1.44 2.29-1.34 2.78c.1.49.72.88.98 1.73s.36 3.97.36 3.97l.13.49s-1.16 3.15-1.65 1.65l.59-1.57c-.41-1.37-2.29-5.44-2.5-5.88-.21-.44.57-3.33.98-3.79l2.45.62Z" fill="#DAAC9F"/><path d="m86.14 57.3.41 2.06s-1.87 0-2.04-.21c-.74-.92.03-4.71.03-4.71s1.18-.49 1.75-.32c.57.17-.15 3.18-.15 3.18Z" fill="#131111"/><path d="m88.14 59.42-.26-.14-.65-.16V57.4s2.61-2.37.91-3.06c-1.7-.69-3.13-.76-3.29 0-.16.76-.06 3.3.32 3.61.38.31.55.24.55.24l.14.72-.51.21-.66 2.47.52 1.13s1.51-.17 1.67-.28c.16-.11.77-1.99.77-1.99l.5-1.03h-.01Z" fill="#E9CDC6"/><path d="M84.82 64.75c.91.53 2.12 1.02 3.19.59-.02-.1-.03-.18-.03-.24 0-.37.89-4.02 1.12-4.93a.276.276 0 0 0-.13-.3l-1.09-.59a.276.276 0 0 0-.37.1c-.39.7-1.87 1.33-1.87 1.33s-.28-1.62-.05-1.69c.23-.07-1.08.13-1.08.13s-.89 2.2-.79 2.85c.1.65 1.11 2.27 1.12 2.61 0 .02 0 .06-.02.13v.01Z" fill="#3D7EFF"/><path d="M88.21 66.1c-.08-.29-.16-.56-.2-.76-1.07.43-2.29-.07-3.19-.59-.03.13-.07.34-.14.62 1.08.73 2.38 1.2 3.53.74v-.01Z" fill="#0A0A0A"/><path d="M90.47 77.42c-.11-.82-1.7-9.45-1.76-9.69-.04-.17-.3-.95-.5-1.63-1.15.46-2.45 0-3.53-.74-.62 2.61-2.85 11.07-3.06 11.77-.24.81 4.83 1.61 5.25 1.33.34-.22 3.15-.56 3.49-.79.09-.06.13-.15.12-.26l-.01.01Z" fill="#292929"/><path d="M84.29 71.09c.1-.22.37-.45.6-.5.23-.06.35.08.25.3-.1.22-.37.45-.6.5-.23.06-.35-.08-.25-.3Z" fill="#BF6992"/><path d="m85.18 70.71-.64-1.53-1.47.41 1.2 1.7.91-.58Z" fill="#BF6992"/><path d="M81.82 69.77c.16.19.38.14.49-.11.11-.25.07-.61-.09-.8-.16-.19-.38-.14-.49.11-.11.25-.07.61.09.8Z" fill="#E37CAE"/><path d="m81.9 68.77.14 1.12 2.07.02-.13-2.06-2.08.92Z" fill="#E37CAE"/><path d="M83.67 69.71c-.29-.34-.35-.99-.15-1.45.1-.22.24-.36.39-.4.16-.04.34.02.48.19.29.34.35.99.15 1.45-.2.46-.59.55-.88.21h.01Z" fill="#EB80B3"/><path d="M83.82 69.36c-.16-.2-.2-.57-.09-.83.11-.26.34-.31.5-.12.16.2.2.57.09.83-.11.26-.34.31-.5.12Z" fill="#CA6E9A"/><path d="M87.07 55.84s.97.96.67.95c0 0-2.6-2.32-2.85-2.34-.27-.02-.07 1.14-.13 1.08-.28-.29-.51-1.63.42-2.3.93-.67 3.79-.63 3.76 1.7-.03 2.33.72 3.09.04 4.08-.68 1-.57.34-1.53.66-1.66.55-.39-3.82-.39-3.82l.01-.01Z" fill="#171717"/><path d="M85.06 69.23s-1.08 1.03-.85 1.67c.23.64 1.48-1.12 1.64-1.43.05-.11.33-.5.7-1-.27-.1-.57-.17-.9-.24l-.59 1Z" fill="#DAAC9F"/><path d="M89.61 60.77s-.57-1.22-1.02-.58l-1.31 5.15-1.72 2.95c.33.07.63.15.9.24.69-.94 1.67-2.26 2.07-2.84.19-.28 1.23-4.56 1.07-4.92h.01Z" fill="#C1DBE8"/><path d="m87.21 62.48-1.08-.19-.18-.59 1.08.18.18.6Z" fill="#E8E8E8"/><path d="M69.33 73.51c0-.2.05-.35.12-.48.42.46.9.88 1.34 1.26h-.07s.55.79.73 1.21c.51 1.24.03 5.17.03 5.17l-2.27 1.46 1.13-1.76s-1.03-6.26-1-6.86h-.01Z" fill="#BF874E"/><path d="M80.05 66.25s0 .59-.67.62c-.66.03-.88-.52-.88-.52v-.55s-.84.03-1.01-.35c-.17-.38-.32-2.87-.32-2.87l1.69-.64 1.06 2.98.12 1.34.01-.01Z" fill="#F5BE76"/><path d="M72.72 84.58c-1.81.91-1.56 2.57.25 3.48 1.81.91 4.75.91 6.56 0 1.81-.91 1.97-2.69.15-3.59-1.81-.91-5.16-.79-6.97.12l.01-.01Z" fill="#A39090"/><path d="M72.97 84.38c-1.81.91-1.81 2.38 0 3.28 1.81.91 4.75.91 6.56 0 1.81-.91 1.81-2.38 0-3.28-1.81-.91-4.75-.91-6.56 0Z" fill="#CCB5B5"/><path d="M76.26 86.59c.624 0 1.13-.255 1.13-.57 0-.315-.506-.57-1.13-.57-.624 0-1.13.255-1.13.57 0 .315.506.57 1.13.57Z" fill="#E8CCCC"/><path d="M75.12 86.02h2.27v-7.99h-2.27v7.99Z" fill="#E8CCCC"/><path d="M71.52 80.65s.17.15.2.6c.06.82-.2.25-.76 1.87-.06.16.34-1.13-.26-1.16-.27-.01-.1 1.11-1.33 1.04-.42-.03-.72-.15-.92-.33-.26-.23.6-.7.88-.9.32-.23.46-.89.76-1.06 0 0-.43.52 0 .55.46.03 1.42-.6 1.42-.6l.01-.01Z" fill="#7D2525"/><path d="M71.81 75.54c-2.28 1.14-1.96 3.17.32 4.31 2.28 1.14 5.97 1.14 8.24 0 2.27-1.14 2.49-3.11.21-4.25-2.28-1.14-6.49-1.2-8.77-.06Z" fill="#963636"/><path d="M69.45 73.03c.14-.24.41-.36.84-.45.72-.14 5.49 1.3 5.49 1.3l-4.99.41c-.45-.38-.92-.8-1.34-1.26Z" fill="#BF874E"/><path d="M74.8 75.32s-4.71-1.64-5.43-1.53c-.66.1-.95.29-1 .88-.05.59.7 6.89.7 6.89l-1.2 1.71 2.27-1.07s.72-4.18.26-5.45c-.16-.43-.67-1.23-.67-1.23l5.07-.2Z" fill="#F5BE76"/><path d="M80.94 66.86c-.3-.33-.86-.78-2.26-.5s-3.18 2.09-3.27 3.06c-.09.97 0 4.21 0 4.21l-2.68-.59c-.72-.39-4.58 2.35-3.53 3.3.15.14 4.31 1.69 6.08 2.29.45.15.93.14 1.37-.02.81-.31 1.98-1 2.27-2.47.45-2.31.03-2.75.3-3.36.27-.61 1.48-2.75 1.72-3.81s0-2.09 0-2.09v-.02Z" fill="#873C3C"/><path d="M77.99 67.66s-1.08-.39-1.29.59c-.27 1.28-1.19 4.68-1.19 4.68s-.8.3-1.4.42c-.43.09-.64.07-3.65.88-.36.1-1.05 1.26-1.05 1.26.57.41 1.69-.39 2.21-.64.64-.31 3.38-.19 4.19-.11.8.08 1.31-.36 1.45-.67.15-.31.53-3 .71-3.45.18-.45.8-2.82.01-2.96h.01Z" fill="#F5BE76"/><path d="M70.29 81.86s.17.16.18.61c.02.82-.21.24-.84 1.84-.06.16.39-1.11-.21-1.17-.27-.03-.14 1.11-1.37.98-.42-.04-.71-.18-.91-.37-.25-.24.63-.67.92-.86.33-.22.49-.87.81-1.02 0 0-.45.5-.02.55.45.05 1.44-.54 1.44-.54v-.02Z" fill="#AB3232"/><path d="M81.74 62.62s-.81 2.48-2.15 2.43c-1.34-.05-1.18-.39-1.37-.77-.07-.14-.29-1.02-.29-1.02l-.77-.12s-.22-1.69 1.03-2.28c1.25-.6 3.98 0 3.55 1.76Z" fill="#452C07"/><path d="M78.17 62.21s.13.06.32.18c.45.28-.9-1.06-.77-.22.19 1.19-.07 9.05-.07 9.05l.68-2.68s-.25 2.57-.42 3.14c-.17.58 4.77-4.82 4.17-7.33-.1-.43-.2-2.72-.58-2.89-1.44-.64-2.1-.63-3.34-.14-.17.07-.29.18-.39.26-1.09.79.4.63.4.63Z" fill="#452C07"/><path d="M73.6 79.71s-1.76-4.86 3.68-7.42c4.31-2.03 4.95 3.97 4.95 3.97s-4.08-1.33-8.19 3.65c-.05.07-.39-.27-.44-.2Z" fill="#963636"/><path d="M74.02 79.85s-1.79-4.74 3.65-7.3c2.35-1.11 3.92.33 4.41 2.16.41 1.52.21 3.44-1.51 4.4-1.51.85-3.15 1.01-6.55.73v.01Z" fill="#FC7676"/><path d="M53.52 79.82c0-.2.05-.35.12-.48.42.46.9.88 1.34 1.26h-.07s.55.79.73 1.21c.51 1.24.03 5.17.03 5.17l-2.27 1.46 1.13-1.76s-1.03-6.26-1-6.86h-.01Z" fill="#BF874E"/><path d="M64.22 72.52s0 .59-.67.62c-.66.03-.88-.52-.88-.52v-.55s-.84.03-1.01-.35c-.17-.38-.32-2.87-.32-2.87l1.69-.64 1.06 2.98.12 1.34.01-.01Z" fill="#F5BE76"/><path d="M56.89 90.85c-1.81.91-1.56 2.57.25 3.48 1.81.91 4.75.91 6.56 0 1.81-.91 1.97-2.69.15-3.59-1.81-.91-5.16-.79-6.97.12l.01-.01Z" fill="#A39090"/><path d="M57.14 90.66c-1.81.91-1.81 2.38 0 3.28 1.81.91 4.75.91 6.56 0 1.81-.91 1.81-2.38 0-3.28-1.81-.91-4.75-.91-6.56 0Z" fill="#CCB5B5"/><path d="M59.62 91.9c-.44.22-.44.58 0 .8.44.22 1.16.22 1.6 0 .44-.22.44-.58 0-.8-.44-.22-1.16-.22-1.6 0Z" fill="#E8CCCC"/><path d="M59.29 92.3h2.27v-7.99h-2.27v7.99Z" fill="#E8CCCC"/><path d="M55.69 86.93s.17.15.2.6c.06.82-.2.25-.76 1.87-.06.16.34-1.13-.26-1.16-.27-.01-.1 1.11-1.33 1.04-.42-.03-.72-.15-.92-.33-.26-.23.6-.7.88-.9.32-.23.46-.89.76-1.06 0 0-.43.52 0 .55.46.03 1.42-.6 1.42-.6l.01-.01Z" fill="#234E4F"/><path d="M55.98 81.81c-2.28 1.14-1.96 3.17.32 4.31 2.28 1.14 5.97 1.14 8.24 0 2.28-1.14 2.49-3.11.21-4.25-2.28-1.14-6.49-1.2-8.77-.06Z" fill="#963636"/><path d="M53.62 79.3c.14-.24.41-.36.84-.45.72-.14 5.49 1.3 5.49 1.3l-4.99.41c-.45-.38-.92-.8-1.34-1.26Z" fill="#BF874E"/><path d="M58.97 81.59s-4.71-1.64-5.43-1.53c-.66.1-.95.29-1 .88-.05.59.7 6.89.7 6.89l-1.2 1.71 2.27-1.07s.72-4.18.26-5.45c-.16-.43-.67-1.23-.67-1.23l5.07-.2Z" fill="#F5BE76"/><path d="M65.11 73.14c-.3-.33-.86-.78-2.26-.5s-3.18 2.09-3.27 3.06c-.09.97 0 4.21 0 4.21l-2.8-.62c-.72-.39-4.46 2.38-3.41 3.33.15.14 4.31 1.69 6.08 2.29.45.15.93.14 1.37-.02.81-.31 1.98-1 2.27-2.47.45-2.31.03-2.75.3-3.36.27-.61 1.48-2.75 1.72-3.81s0-2.09 0-2.09v-.02Z" fill="#3C8687"/><path d="M62.16 73.93s-1.08-.39-1.29.59c-.27 1.28-1.19 4.68-1.19 4.68s-.8.3-1.4.42c-.43.09-.64.07-3.65.88-.36.1-1.05 1.26-1.05 1.26.57.41 1.69-.39 2.2-.64.64-.31 3.38-.19 4.19-.11.8.08 1.31-.36 1.45-.67.15-.31.53-3 .71-3.45.18-.44.8-2.82.01-2.96h.02Z" fill="#F5BE76"/><path d="M54.46 88.13s.17.16.18.61c.02.82-.21.24-.84 1.84-.06.16.39-1.11-.21-1.17-.27-.03-.14 1.11-1.37.98-.42-.04-.71-.18-.91-.37-.25-.24.63-.67.92-.86.33-.22.49-.87.81-1.02 0 0-.45.5-.02.55.45.05 1.44-.54 1.44-.54v-.02Z" fill="#3C8687"/><path d="M65.91 68.89s-.81 2.48-2.15 2.43c-1.34-.05-1.18-.39-1.37-.77-.07-.14-.29-1.02-.29-1.02l-.77-.12s-.22-1.69 1.03-2.28c1.25-.59 3.98 0 3.55 1.76Z" fill="#BD5113"/><path d="M62.67 68.66c-.19-.12-.32-.18-.32-.18s-.23.02-.44 0v-.05c-.13-.84 1.21.5.77.22l-.01.01Z" fill="#BD5113"/><path d="M61.9 68.49c.21.02.44 0 .44 0s.13.06.32.18c.45.28-.9-1.06-.77-.22v.05c-.33-.03-.62-.16.04-.64.1-.08.22-.19.39-.26 1.23-.5 1.89-.5 3.34.14.38.17.48 2.46.58 2.89.1.43.04.95-.13 1.5-1.27.67-2.87.82-4.18.43.03-1.78.03-3.5-.04-4.06l.01-.01Z" fill="#BD5113"/><path d="M57.77 85.98s-1.76-4.86 3.68-7.42c4.31-2.03 4.95 3.97 4.95 3.97s-4.08-1.33-8.19 3.65c-.05.07-.39-.27-.44-.2Z" fill="#963636"/><path d="M58.19 86.13s-1.79-4.74 3.65-7.3c2.35-1.11 3.92.33 4.41 2.16.41 1.52.21 3.44-1.51 4.4-1.51.85-3.15 1.01-6.55.73v.01Z" fill="#FC7676"/><path d="M51.27 95.78c-.08-.21-.15-.51-.21-.86h-1.03c.03.18.04.34.01.47-.1.51-.14 1.41-.14 1.41s2.21.01 2.32-.22c.11-.23-.84-.5-.96-.8h.01Z" fill="#FFD5C9"/><path d="M52.64 96.45c-.23.09-.42.36-.7.42-.38.08-.71.09-1.09-.03a.694.694 0 0 1-.13-.05h-.86c-.18 1.11.43 1.08.76.96.64-.25.8-.06 1.6-.38.8-.31 1.01-.65.93-.86-.04-.1-.07-.16-.12-.2-.13.05-.27.1-.4.15l.01-.01Z" fill="#544845"/><path d="M49.85 96.58s2.08.23 2.19-.12c.02-.06-.64-.21-.54-.19 1.58.37 1.49-.26 1.65.25.07.21-.16.53-.98.79s-.96.06-1.62.27c-.33.1-.95.09-.7-1.01v.01Z" fill="#4F4948"/><path d="M53.17 97.26c-.2-.47-.38-1.38-.47-2.34h-1.33c.22.88.52 1.53.45 1.98-.09.56-.09 1.54-.09 1.54s2.4-.1 2.51-.36c.11-.26-.94-.5-1.08-.82h.01Z" fill="#FFD5C9"/><path d="M54.51 97.95c-.25.04-.47.28-.75.28-.39 0-.72-.05-1.07-.24-.04-.02-.08-.05-.12-.07-.45-.08-.84-.17-.84-.17-.36 1.06.25 1.15.59 1.09.67-.12.8.09 1.64-.07.84-.16 1.1-.45 1.06-.67-.02-.11-.04-.17-.08-.22-.14.02-.28.05-.42.07h-.01Z" fill="#705F5C"/><path d="M51.74 97.55s2.01.62 2.18.3c.03-.06-.78-.54-.68-.5 1.5.66 1.69.24 1.76.77.03.22-.25.49-1.1.6-.85.1-.96-.12-1.64-.04-.35.04-.95-.09-.52-1.12v-.01Z" fill="#4F4948"/><path d="M52.73 72.88v1.47l-1.87.43-.23-.95s.68-1.53.59-1.53l1.51.58Z" fill="#FFE5DB"/><path d="M49.72 85.03v10.52s-.29.76 1.71.11 1.1-10.87 1.1-10.87l-2.81.24Z" fill="#24749E"/><path d="M50.16 85.03s1.42 10.92 1.34 11.93c-.08 1.01 1.65-.21 1.65-.21l.53-11.71h-3.52v-.01Z" fill="#32A1DB"/><path d="M50.57 73.72s2.32.13 2.51.89c.19.76 1.28 4.27 1.28 4.27l.25 7.12s-2.37 1.42-5.12.76c-.79-.19-.23-3.69-.23-3.69l.91-2.14s-.82-4.28-.25-6.23c.11-.39.66-.98.66-.98h-.01Z" fill="#3D7EFF"/><path d="M54.02 69.8s.01 3-.42 3.23c-.44.27-2.16-.33-2.16-.33l.31-2.35 2.27-.55Z" fill="#FFE5DB"/><path d="M50.59 68.41s-2.2 1.75.1 4.32c.36.4 2.19.14 2.38-.35.4-1.02.34-1.55.34-1.55l.6-1.03s.21-1.18-.79-1.83c-1-.65-1.59-.34-2.64.44h.01Z" fill="#59361C"/><path d="M51.13 71.44c0 .57-.43 1.03-.97 1.03a.96.96 0 0 1-.61-.23c-.08-.07-.03.32-.09.23-.05-.08-.21-.64-.23-.73-.03-.1-.18.33-.18.22 0-.57.57-1.56 1.11-1.56.54 0 .97.46.97 1.03v.01Z" fill="#694521"/><path d="M52.82 82.16s.97 1.96 1.57 2.25c.59.28-.36.65-.53.66-.57.05-1.49-1.4-1.46-2.25.03-.86.42-.65.42-.65v-.01Z" fill="#FFEFD4"/><path d="M52.98 76.15c.23-.61-.17-1.42-.75-1.43-.74-.02-1.69.64-2.23 3.65-.23 1.28 0 1.83 0 1.83l2.54 3.91 1.14-.94-2.25-3.27s.92-2.11 1.55-3.74v-.01Z" fill="#C1DBE8"/><path d="M139.59 81.8c-1.71.85-1.47 2.42.24 3.27 1.71.85 4.47.85 6.18 0s1.85-2.53.15-3.38c-1.71-.85-4.86-.74-6.56.11h-.01Z" fill="#A39090"/><path d="M142.92 85.34c2.413 0 4.37-.976 4.37-2.18 0-1.203-1.957-2.18-4.37-2.18-2.414 0-4.37.977-4.37 2.18 0 1.204 1.956 2.18 4.37 2.18Z" fill="#CCB5B5"/><path d="M142.17 82.78c-.42.21-.42.55 0 .76.42.21 1.09.21 1.51 0 .42-.21.42-.55 0-.76-.42-.21-1.09-.21-1.51 0Z" fill="#E8CCCC"/><path d="M141.86 83.16H144v-7.52h-2.14v7.52Z" fill="#E8CCCC"/><path d="M138.74 73.29c-2.14 1.07-1.84 2.99.3 4.06 2.14 1.07 5.62 1.07 7.76 0 2.14-1.07 2.34-2.93.2-4-2.14-1.07-6.11-1.13-8.25-.05l-.01-.01Z" fill="#963636"/><path d="M139.04 72.78c-2.14 1.07-2.14 2.81 0 3.88 2.14 1.07 5.62 1.07 7.76 0 2.14-1.07 2.14-2.81 0-3.88-2.14-1.07-5.62-1.07-7.76 0Z" fill="#F25858"/><path d="M148.44 75.53s1.65-4.58-3.46-6.98c-4.06-1.91-3.38 3.46-3.38 3.46s2.55-.98 6.42 3.72c.05.06.36-.25.42-.19v-.01Z" fill="#963636"/><path d="M148.07 75.77s1.65-4.58-3.46-6.98c-4.06-1.91-3.54 3.35-3.54 3.35.04.09 3.09-1.22 7 3.64v-.01Z" fill="#FC7676"/><path d="M141.24 63.87s-1.21.4-.81 1.96c.4 1.56 1.4 3.28 1.16 3.55-.18.21-2.7 2.2-4.05 3.11.41.18.69.44.86.77 1.52-.87 4.29-2.45 4.44-2.82.2-.47-.67-5.98-1.6-6.57Z" fill="#CF644F"/><path d="M137.54 72.49c-.39.26-.68.44-.79.44-.47.04-1.12 1.89-.91 1.89.21 0 .91-.61 1.69-1.07.16-.1.47-.27.87-.5-.17-.33-.44-.58-.86-.77v.01Z" fill="#DEBE95"/><path d="m138.66 84.94-1.19.19s-.81 1.08-1.15 1.45c-.34.37-.91 1.12-.77 1.29.14.18 1.58.24 1.92-.04.34-.28.55-1.18.85-1.23.3-.04.35.93.39 1.06.04.13.34.03.34.03l-.17-1.16s.06-.72.01-.95c-.03-.17-.24-.65-.24-.65l.01.01Z" fill="#54140D"/><path d="M140.42 86.13h-1.57s-.62.97-1.02 1.29c-.4.32-1.09.97-.98 1.17.11.19 1.52.47 1.9.23.39-.23.75-1.09 1.05-1.09.3 0 .2.85.22.98.02.14.33.08.33.08l.02-1.05s.18-.7.18-.94c0-.17-.13-.67-.13-.67Z" fill="#801E14"/><path d="M138.48 76.64s.23 3.57.35 4.29c.12.72.03 4.96.03 5.36 0 .4-1.2 1.37-1.2 1.37s1.02.25 1.38-.07c.35-.32 1.26-1.04 1.35-1.47.09-.43.16-1.78.46-3.26.27-1.35-.08-1.72-.11-2.44-.04-1.09.41-3.06.38-3.78H138.48Z" fill="#FFDAAB"/><path d="M139.79 75.97s-1.95 2.17-1.9 2.68c.05.51.45 1.18.62 2.09.17.91.09 3.93.09 3.93l.08.52s-1.75 3.08-2.09 1.48l.89-1.54c-.27-1.45-1.82-5.87-1.99-6.35-.17-.48 1.65-3.15 2.18-3.57l2.13.75-.01.01Z" fill="#DEBE95"/><path d="m142.98 61.81.46 2.34s-2.12 0-2.31-.24c-.84-1.05.04-5.35.04-5.35s1.34-.56 1.99-.37c.65.19-.18 3.61-.18 3.61v.01Z" fill="#AD7D3E"/><path d="m145.99 72.58-5.46-1.01c-3.91 3.19-5.42 3.94-5.91 5.5-.17.54 3.64 1.82 5.14 2.12.83.17 1.52.53 1.52.53.1-.25 5.05-5.66 4.71-7.14Z" fill="#595757"/><path d="m145.25 64.22-.3-.16-.73-.18v-1.96s2.97-2.69 1.03-3.47c-1.94-.78-3.56-.86-3.74 0-.18.86-.25 3.4.18 3.75.43.35.81.62.81.62l.16.82-.58.24-.75 2.81.59 1.29s1.72-.2 1.89-.31c.17-.12.87-2.26.87-2.26l.57-1.17v-.02Z" fill="#FFDAAB"/><path d="M142.29 63.75s-.12 1.6.36 1.77c.26.09.89-.89 1.46-1.27 1.63-1.1-1.82 3.04-1.82 3.04l-.71-.88.71-2.66Z" fill="#fff"/><path d="m146.19 64.57-1.24-.56c-.15-.07-.33-.02-.41.1-.44.66-2.43 2.23-2.43 2.23s0-2.51.25-2.57c.26-.07-1.22.12-1.22.12s-1.01 2.08-.9 2.7c.11.62.3 4.15.32 4.48.01.33-4.78 3.96-5.47 4.5-.65.5 3.34 2.57 5.05 2.78 1.23.15 1.99.47 2.33.2 1.71-1.37 3.9-3.77 3.61-5.52-.04-.27-1.1-1.8-1.1-2.2 0-.35 1.13-5.1 1.38-5.96.03-.11-.03-.23-.15-.29l-.02-.01Z" fill="#FF7C61"/><path d="M142.11 66.33s.5-.35.84-.4c.19-.03.26.17.31.24l1.66-2.01-.29-.06-2.52 2.23Z" fill="#FFB98C"/><path d="m142.29 63.75-.59.07s-.12 2.02-.17 2.04c-.01 0 .3-.12.45-.04.12.06.08.3.12.52.16.75.19-2.59.19-2.59Z" fill="#FFB98C"/><path d="M143.73 75.63s-1.07 1.55-.61 2.28c.45.73 1.54-1.77 1.65-2.19.04-.14.28-.7.61-1.42-.36-.05-.75-.06-1.18-.07l-.46 1.39-.01.01Z" fill="#FFDAAB"/><path d="M146.8 65.19a.549.549 0 0 0-.23-.38c-.31-.23-1-.64-1.29.06l-.27 6.61c0 .06-.01.11-.03.16l-1.08 3.27c-.12.37.14.75.52.77h.01c.25.02.47-.12.57-.34.59-1.29 1.34-2.92 1.64-3.67.15-.36.33-5.27.15-6.49l.01.01Z" fill="#FF9580"/><path d="M141.9 57.18c1.05-.76 4.3-.72 4.27 1.93-.03 2.65.5 3.63-.27 4.76-.78 1.13-1.2 3.04-1.82 4.1-.18.31-.08-.68-.08-.68s-.13.33-.13.14c-.03-1.48.05-4.16.12-5.82-.39-.9-.79-1.79-.79-1.79s.25 1.12.11.7c-.14-.41-.95-1.4-.95-1.4h.01c-.4-.32-.71-.55-.79-.56-.31-.03-.14 2.01-.2 1.94-.31-.33-.52-2.58.53-3.34l-.01.02Z" fill="#D4A568"/><path d="M148.5 85.08h2.34V49.74h-2.34v35.34Z" fill="#CFCFCF"/><path d="M148.84 84.67c-.46.23-.46.6 0 .83.46.23 1.2.23 1.66 0 .46-.23.46-.6 0-.83-.46-.23-1.2-.23-1.66 0Z" fill="#CFCFCF"/><path d="M148.84 49.33c-.46.23-.46.6 0 .83.46.23 1.2.23 1.66 0 .46-.23.46-.6 0-.83-.46-.23-1.2-.23-1.66 0Z" fill="#F6F6F6"/><path d="M149.36 50.64c0 .47.38.66.86.43.47-.24.86-.81.86-1.28s-.38-.66-.86-.43c-.47.24-.86.81-.86 1.28ZM155.92 54.03c0 .47.38.66.86.43.47-.24.86-.81.86-1.28s-.38-.66-.86-.43c-.47.24-.86.81-.86 1.28Z" fill="#F6F6F6"/><path d="m150.79 49.29 6.64 3.43-1.19 1.84-6.52-3.39 1.07-1.88Z" fill="#F6F6F6"/><path opacity=".33" d="M140.68 55.3c-1.98.99-1.41 5.22.57 6.21 1.98.99 5.18.99 7.16 0 1.98-.99 2.77-4.98.79-5.97-1.98-.99-6.54-1.23-8.52-.24Z" fill="#8CC1F6"/><path d="M144.9 59.29c2.922 0 5.29-1.186 5.29-2.65 0-1.463-2.368-2.65-5.29-2.65-2.921 0-5.29 1.187-5.29 2.65 0 1.464 2.369 2.65 5.29 2.65Z" fill="#F0F0F0"/><path d="m149.35 50.49.85 6.34-10.59-.35.84-6.21 8.9.22Z" fill="#F0F0F0"/><path d="M141.75 48.99c-1.74.87-1.74 2.28 0 3.15 1.74.87 4.56.87 6.3 0 1.74-.87 1.74-2.28 0-3.15-1.74-.87-4.56-.87-6.3 0Z" fill="#F7F7F7"/><path d="M158.57 53.96c0 .34-.27.48-.61.31-.34-.17-.61-.58-.61-.92 0-.34.27-.48.61-.31.34.17.61.58.61.92Z" fill="#CFCFCF"/><path d="m157.55 52.99-4.76 2.46.86 1.32 4.66-2.43-.76-1.35Z" fill="#CFCFCF"/><path d="M148.42 54.11c0 .34.27.48.61.31.34-.17.61-.58.61-.92 0-.34-.27-.48-.61-.31-.34.17-.61.58-.61.92ZM153.12 56.53c0 .34.27.48.61.31.34-.17.61-.58.61-.92 0-.34-.27-.48-.61-.31-.34.17-.61.58-.61.92Z" fill="#F6F6F6"/><path d="m149.44 53.14 4.76 2.46-.86 1.31-4.66-2.42.76-1.35Z" fill="#F6F6F6"/><path d="m154.23 65.17 7.06 3.53 2.55-1.28v-.24l-7.06-3.28-2.55 1.03v.24Z" fill="#CFCFCF"/><path d="m154.23 64.93 7.06 3.53 2.55-1.28-7.06-3.53-2.55 1.28Z" fill="#fff"/><path d="m154.23 69.22 7.06 3.53 2.55-1.28v-.24l-7.06-3.29-2.55 1.04v.24Z" fill="#CFCFCF"/><path d="m154.23 68.98 7.06 3.53 2.55-1.28-7.06-3.53-2.55 1.28Z" fill="#fff"/><path d="m154.23 73.35 7.06 3.53 2.55-1.28v-.24l-7.06-3.29-2.55 1.04v.24Z" fill="#CFCFCF"/><path d="m154.23 73.11 7.06 3.53 2.55-1.28-7.06-3.53-2.55 1.28Z" fill="#fff"/><path d="m160.8 74.43 1.24-.62-1.24-.62-1.24.62 1.24.62Z" fill="#fff"/><path d="m159.56 75.47 1.24.62v-1.66l-1.24-.62v1.66Z" fill="#8AC7E0"/><path d="m159.76 74.43.84.42v-.1l-.84-.42v.1ZM159.76 74.65l.84.42v-.1l-.84-.42v.1Z" fill="#70A3B7"/><path d="m160.8 76.09 1.24-.62v-1.66l-1.24.62v1.66Z" fill="#94D6F0"/><path d="m160.99 74.83.84-.42v-.1l-.84.42v.1ZM160.99 75.02l.84-.42v-.1l-.84.42v.1ZM160.99 75.21l.84-.42v-.1l-.84.42v.1Z" fill="#E6E6E6"/><path d="m158.26 73.31 1.24-.62-1.24-.62-1.24.62 1.24.62Z" fill="#fff"/><path d="m157.02 74.36 1.24.62v-1.67l-1.24-.62v1.67Z" fill="#8AD8E0"/><path d="m157.22 73.32.85.42v-.1l-.85-.42v.1ZM157.22 73.54l.85.42v-.1l-.85-.42v.1Z" fill="#70B1B7"/><path d="m158.26 74.98 1.24-.62v-1.67l-1.24.62v1.67Z" fill="#94E8F0"/><path d="m158.45 73.72.85-.42v-.1l-.85.42v.1ZM158.45 73.91l.85-.42v-.1l-.85.42v.1ZM158.45 74.1l.85-.43v-.1l-.85.43v.1Z" fill="#E6E6E6"/><path d="m161.17 70.67 1.24-.62-1.24-.62-1.24.62 1.24.62Z" fill="#fff"/><path d="m159.93 71.71 1.24.62v-1.66l-1.24-.62v1.66Z" fill="#8AD8E0"/><path d="m160.13 70.67.84.43V71l-.84-.43v.1ZM160.13 70.9l.84.42v-.1l-.84-.42v.1Z" fill="#70B1B7"/><path d="m161.17 72.33 1.24-.62v-1.66l-1.24.62v1.66Z" fill="#94E8F0"/><path d="m161.36 71.08.84-.42v-.1l-.84.42v.1ZM161.36 71.27l.84-.43v-.1l-.84.43v.1ZM161.36 71.45l.84-.42v-.1l-.84.42v.1Z" fill="#E6E6E6"/><path d="m156.59 68.38 1.24-.62-1.24-.62-1.24.62 1.24.62Z" fill="#fff"/><path d="m155.35 69.43 1.24.62v-1.67l-1.24-.62v1.67Z" fill="#8AC7E0"/><path d="m155.55 68.39.85.42v-.1l-.85-.42v.1ZM155.55 68.61l.85.42v-.1l-.85-.42v.1Z" fill="#70A3B7"/><path d="m156.59 70.05 1.24-.62v-1.67l-1.24.62v1.67Z" fill="#94D6F0"/><path d="m156.78 68.79.85-.42v-.1l-.85.42v.1ZM156.78 68.98l.85-.42v-.1l-.85.42v.1ZM156.78 69.17l.85-.43v-.1l-.85.43v.1Z" fill="#E6E6E6"/><path d="m158.39 69.65.75-.37-.75-.38-.75.38.75.37Z" fill="#fff"/><path d="m157.64 70.29.75.37v-1.01l-.75-.37v1.01Z" fill="#8AD8E0"/><path d="m157.76 69.65.51.26v-.06l-.51-.26v.06ZM157.76 69.79l.51.25v-.06l-.51-.25v.06Z" fill="#70B1B7"/><path d="m158.39 70.66.75-.37v-1.01l-.75.37v1.01Z" fill="#94E8F0"/><path d="m158.51 69.9.51-.26v-.06l-.51.26v.06ZM158.51 70.01l.51-.25v-.06l-.51.25v.06ZM158.51 70.13l.51-.26v-.06l-.51.26v.06Z" fill="#E6E6E6"/><path d="M160.51 66.9c-.39.2-.39.51 0 .71.39.2 1.02.2 1.41 0 .39-.2.39-.51 0-.71-.39-.2-1.02-.2-1.41 0Z" fill="#CFCFCF"/><path d="M162.22 64.87h-2v2.39h2v-2.39Z" fill="#CFCFCF"/><path d="M160.51 64.52c-.39.2-.39.51 0 .71.39.2 1.02.2 1.41 0 .39-.2.39-.51 0-.71-.2-.1-.45-.15-.71-.15-.26 0-.51.05-.71.15h.01Z" fill="#FCFCFC"/><path d="M160.55 64.48c-.37.18.18.3 0 .67-.11.24-.04.3 1.33 0 .4-.09.37-.48 0-.67a1.54 1.54 0 0 0-.67-.14c-.25 0-.48.05-.67.14h.01Z" fill="#FCFCFC"/><path d="M161.56 64.38v.42s-.04.09-.11.13a.67.67 0 0 1-.52 0c-.07-.04-.11-.08-.11-.13v-.42h.74Z" fill="#FCD7C6"/><path d="M160.94 64.25c-.14.07-.14.19 0 .26s.38.07.52 0 .14-.19 0-.26a.55.55 0 0 0-.26-.05c-.09 0-.19.02-.26.05Z" fill="#FCF7F5"/><path d="m160.87 63.9.26.14v.49l-.26-.14v-.49Z" fill="#C9AD9F"/><path d="m160.38 64.41 1.11-.55-.29-.15-1.02.61.2.09Z" fill="#FCF7F5"/><path d="M160.18 64.32v.17l.2.1v-.18l-.2-.09Z" fill="#C9AD9F"/><path d="m161.13 64.53.36-.18v-.49l-1.11.55v.18l.75-.33v.27Z" fill="#FCD7C6"/><path d="M157.98 65.76c-.39.2-.39.51 0 .71.39.2 1.02.2 1.41 0 .39-.2.39-.51 0-.71-.39-.2-1.02-.2-1.41 0Z" fill="#CFCFCF"/><path d="M159.68 63.73h-2v2.39h2v-2.39Z" fill="#CFCFCF"/><path d="M157.98 63.37c-.39.2-.39.51 0 .71.39.2 1.02.2 1.41 0 .39-.2.39-.51 0-.71-.2-.1-.45-.15-.71-.15-.26 0-.51.05-.71.15h.01Z" fill="#FCFCFC"/><path d="M158.02 63.33c-.37.18-.37.48 0 .67.37.18.96.18 1.33 0 .37-.18.37-.48 0-.67a1.54 1.54 0 0 0-.67-.14c-.25 0-.48.05-.67.14h.01Z" fill="#FCFCFC"/><path d="M159.03 63.24v.42s-.04.09-.11.13a.67.67 0 0 1-.52 0c-.07-.04-.11-.08-.11-.13v-.42h.74Z" fill="#FCD7C6"/><path d="M158.4 63.11c-.14.07-.14.19 0 .26s.38.07.52 0 .14-.19 0-.26a.55.55 0 0 0-.26-.05c-.09 0-.19.02-.26.05Z" fill="#FCF7F5"/><path d="m158.34 62.76.25.13v.49l-.25-.13v-.49Z" fill="#C9AD9F"/><path d="m157.84 63.27 1.11-.56-.28-.14-1.03.61.2.09Z" fill="#FCF7F5"/><path d="M157.64 63.18v.17l.2.09v-.17l-.2-.09Z" fill="#C9AD9F"/><path d="m158.59 63.38.36-.18v-.49l-1.11.56v.17l.75-.33v.27Z" fill="#FCD7C6"/><path d="M156.42 64.86c-.28.14-.28.37 0 .51s.73.14 1.01 0 .28-.37 0-.51-.73-.14-1.01 0Z" fill="#CFCFCF"/><path d="M157.64 63.4h-1.43v1.71h1.43V63.4Z" fill="#CFCFCF"/><path d="M156.42 63.15c-.28.14-.28.37 0 .51s.73.14 1.01 0 .28-.37 0-.51c-.14-.07-.32-.11-.51-.11s-.37.04-.51.11h.01Z" fill="#FCFCFC"/><path d="M156.45 63.12c-.26.13-.26.35 0 .48s.69.13.95 0 .26-.35 0-.48c-.13-.07-.3-.1-.48-.1s-.35.03-.48.1h.01Z" fill="#FCFCFC"/><path d="M157.17 63.05v.3s-.03.07-.08.09c-.1.05-.27.05-.37 0-.05-.03-.08-.06-.08-.09v-.3h.53Z" fill="#FCD7C6"/><path d="M156.72 62.95c-.1.05-.1.13 0 .19.1.05.27.05.37 0 .1-.05.1-.13 0-.19a.38.38 0 0 0-.19-.04c-.07 0-.13.01-.19.04h.01Z" fill="#FCF7F5"/><path d="m156.68 62.7.18.1v.35l-.18-.09v-.36Z" fill="#C9AD9F"/><path d="m156.32 63.07.8-.4-.21-.1-.73.43.14.07Z" fill="#FCF7F5"/><path d="M156.18 63v.13l.14.07v-.13l-.14-.07Z" fill="#C9AD9F"/><path d="m156.86 63.15.26-.13v-.35l-.8.4v.13l.54-.24v.19Z" fill="#FCD7C6"/><path d="m156.15 91.8 5.98-2.99-8.13-4.07-5.99 2.99 8.14 4.07Z" fill="#D6D6D6"/><path d="M156.14 91.79v.39l-8.13-4.07v-.39l8.13 4.07Z" fill="#DBDBDB"/><path d="M162.13 88.8v.39l-5.99 2.99v-.39l5.99-2.99Z" fill="#A8A8A8"/><path d="m148.75 90.04.73-.37v-4.48l-.73.37v4.48Z" fill="#9C9C9C"/><path d="m148.01 89.67.74.37v-4.48l-.74-.37v4.48Z" fill="#A8A8A8"/><path d="m156.15 93.71.73-.37v-4.49l-.73.37v4.49Z" fill="#9C9C9C"/><path d="m155.41 93.34.74.37v-4.49l-.74-.37v4.49Z" fill="#A8A8A8"/><path d="m161.39 91.1.74-.37v-4.49l-.74.37v4.49Z" fill="#9C9C9C"/><path d="m160.66 90.73.73.37v-4.49l-.73-.37v4.49Z" fill="#A8A8A8"/><path d="m156.15 85.76 5.98-2.99-8.14-4.07-5.98 2.99 8.14 4.07Z" fill="#F5F5F5"/><path d="M156.15 89.24v-3.48l-8.14-4.07v3.48l8.14 4.07Z" fill="#E0E0E0"/><path d="M162.13 82.77v3.48l-5.98 2.99v-3.48l5.98-2.99Z" fill="#CCC"/><path d="m154.74 77.88 7.08 4.03c.29.17.28.59-.02.75l-4.81 2.45-8.09-4.75 4.92-2.5c.29-.15.63-.14.92.02Z" fill="#E0AB77"/><path d="m149.26 81.32 7.47 3.74c.26.13.47.02.47-.23 0-.27-.21-.58-.47-.71l-7.47-3.74c-.26-.13-.47-.02-.47.23 0 .27.21.58.47.71Z" fill="#E09348"/><path d="m154.74 76.77 7.08 4.03c.29.17.28.59-.02.75L156.99 84l-8.09-4.75 4.92-2.5c.29-.15.63-.14.92.02Z" fill="#9180CF"/><path d="m149.26 80.2 7.47 3.74c.26.13.47.02.47-.23 0-.27-.21-.58-.47-.71l-7.47-3.74c-.26-.13-.47-.02-.47.23 0 .27.21.58.47.71Z" fill="#7961CF"/><path d="m154.74 75.67 7.08 4.03c.29.17.28.59-.02.75l-4.81 2.45-8.09-4.75 4.92-2.5c.29-.15.63-.14.92.02Z" fill="#F2A2C2"/><path d="m149.26 79.1 7.47 3.74c.26.13.47.02.47-.23 0-.27-.21-.58-.47-.71l-7.47-3.74c-.26-.13-.47-.02-.47.23 0 .27.21.58.47.71Z" fill="#F2689F"/><path d="m91.62 135.54 5.99-2.99-8.14-4.07-5.98 2.99 8.13 4.07Z" fill="#D6D6D6"/><path d="M91.62 135.53v.39l-8.14-4.07v-.38l8.14 4.06Z" fill="#DBDBDB"/><path d="M97.6 132.54v.39l-5.98 2.99v-.39l5.98-2.99Z" fill="#A8A8A8"/><path d="m84.22 133.78.74-.36v-4.49l-.74.37v4.48Z" fill="#9C9C9C"/><path d="m83.48 133.42.74.36v-4.48l-.74-.37v4.49Z" fill="#A8A8A8"/><path d="m91.62 137.45.74-.37v-4.49l-.74.37v4.49Z" fill="#9C9C9C"/><path d="m90.88 137.08.74.37v-4.49l-.74-.37v4.49Z" fill="#A8A8A8"/><path d="m96.87 134.84.73-.37v-4.49l-.73.37v4.49Z" fill="#9C9C9C"/><path d="m96.13 134.47.74.37v-4.49l-.74-.37v4.49Z" fill="#A8A8A8"/><path d="m91.62 129.499 5.98-2.99-8.13-4.07-5.99 2.99 8.14 4.07Z" fill="#F5F5F5"/><path d="M91.62 132.98v-3.48l-8.14-4.07v3.48l8.14 4.07Z" fill="#E0E0E0"/><path d="M97.6 126.51v3.48l-5.98 2.99v-3.48l5.98-2.99Z" fill="#CCC"/><path d="m90.22 121.62 7.08 4.03c.29.17.28.59-.02.75l-4.81 2.45-8.09-4.75 4.92-2.5c.29-.15.63-.14.92.02Z" fill="#E0AB77"/><path d="m84.73 125.06 7.47 3.74c.26.13.47.02.47-.23 0-.27-.21-.58-.47-.71l-7.47-3.74c-.26-.13-.47-.02-.47.23 0 .27.21.58.47.71Z" fill="#E09348"/><path d="m90.22 120.51 7.08 4.03c.29.17.28.59-.02.75l-4.81 2.45-8.09-4.75 4.92-2.5c.29-.15.63-.14.92.02Z" fill="#9180CF"/><path d="m84.73 123.94 7.47 3.74c.26.13.47.02.47-.23 0-.27-.21-.58-.47-.71L84.73 123c-.26-.13-.47-.02-.47.23 0 .27.21.58.47.71Z" fill="#7961CF"/><path d="m90.22 119.41 7.08 4.03c.29.17.28.59-.02.75l-4.81 2.45-8.09-4.75 4.92-2.5c.29-.15.63-.14.92.02Z" fill="#F2A2C2"/><path d="m84.73 122.85 7.47 3.74c.26.13.47.02.47-.23 0-.27-.21-.58-.47-.71l-7.47-3.74c-.26-.13-.47-.02-.47.23 0 .27.21.58.47.71Z" fill="#F2689F"/></svg>