<svg width="480" height="232" viewBox="0 0 480 232" fill="none" xmlns="http://www.w3.org/2000/svg">
<path d="M277.703 102.661C275.734 95.3361 276.899 69.2153 276.899 69.2153L238.172 94.4391V110.883C238.172 113.896 214.326 123.383 214.326 123.383L236.703 149.256L249.375 151.763L286.65 136.21L293.76 120.192C293.76 120.192 280.417 112.786 277.703 102.667V102.661Z" fill="white"/>
<path d="M249.375 153.431C248.726 153.431 248.106 153.045 247.842 152.407C247.492 151.556 247.888 150.585 248.738 150.228L285.404 134.928L291.648 120.865C288.09 118.645 278.477 111.941 276.101 103.098C274.494 97.107 274.879 79.651 275.12 72.3661L239.836 95.3476V110.889C239.836 112.441 238.849 114.293 226.947 119.784C223.187 121.514 219.394 123.113 217.104 124.056L237.96 148.17C238.562 148.865 238.488 149.918 237.793 150.521C237.099 151.125 236.049 151.05 235.446 150.355L213.07 124.481C212.719 124.073 212.582 123.521 212.714 122.998C212.84 122.474 213.213 122.043 213.712 121.848C223.664 117.892 235.027 112.551 236.508 110.63V94.4506C236.508 93.8871 236.795 93.3639 237.265 93.0534L275.992 67.8296C276.515 67.4904 277.18 67.4674 277.726 67.7779C278.265 68.0884 278.586 68.6748 278.563 69.2958C278.552 69.5545 277.433 95.2441 279.31 102.236C281.812 111.544 294.443 118.668 294.57 118.737C295.321 119.157 295.631 120.083 295.281 120.87L288.171 136.889C287.998 137.28 287.683 137.585 287.293 137.751L250.017 153.304C249.811 153.39 249.593 153.431 249.38 153.431H249.375Z" fill="#202933"/>
<path d="M221.385 125.781C221.385 125.781 230.292 134.043 241.082 135.187C259.521 137.142 279.373 127.799 279.373 127.799L238.367 215.188H219.865L211.778 148.302L221.385 125.786V125.781Z" fill="white"/>
<path d="M246.385 137.125C244.56 137.125 242.729 137.038 240.898 136.843C238.677 136.607 236.376 136.072 234.057 135.245C233.191 134.934 232.737 133.985 233.047 133.117C233.357 132.249 234.304 131.8 235.171 132.105C237.248 132.841 239.291 133.324 241.248 133.531C258.999 135.411 278.46 126.379 278.655 126.287C279.487 125.896 280.475 126.252 280.865 127.086C281.255 127.919 280.899 128.908 280.067 129.299C279.321 129.65 263.24 137.119 246.379 137.119L246.385 137.125Z" fill="#202933"/>
<path d="M303.201 119.433C301.99 118.858 300.9 118.415 300.01 118.087C298.449 117.432 296.934 116.782 295.499 116.098L289.359 112.631L288.945 110.86L280.124 104.564C280.124 104.564 265.788 129.627 255.28 151.763C244.772 173.894 234.826 201.308 234.826 201.308C234.826 201.308 221.862 145.421 232.749 116.345C232.927 115.862 238.132 111.286 238.132 111.286L238.195 106.427L228.318 110.256L222.659 114.942L214.539 117.869C214.539 117.869 206.728 120.658 204.782 121.48C200.558 123.268 195.198 127.517 192.466 137.027C189.901 145.95 168.305 213.325 184.145 222.76C192.507 227.739 203.227 222.984 203.812 222.708H288.423C296.687 222.708 299.281 220.449 299.281 220.449C300.584 218.885 302.323 219.23 302.989 217.89C304.309 215.251 310.788 197.559 316.992 179.143C322.811 161.86 327.001 146.037 322.794 136.067C318.869 126.758 310.874 122.71 303.201 119.433Z" fill="#17A089"/>
<path d="M193.017 226.693C189.867 226.693 186.452 226.066 183.301 224.192C176.305 220.023 174.905 206.713 179.014 183.49C182.171 165.677 187.703 147.192 190.067 139.298C190.418 138.119 190.699 137.194 190.877 136.567C193.849 126.212 199.732 121.813 204.14 119.95C206.108 119.117 213.666 116.42 213.988 116.305L221.827 113.476L227.262 108.974C227.4 108.859 227.555 108.767 227.721 108.704L237.598 104.875C238.115 104.673 238.694 104.742 239.148 105.059C239.601 105.375 239.871 105.892 239.859 106.45L239.796 111.309C239.791 111.78 239.584 112.228 239.234 112.539C237.196 114.327 234.815 116.506 234.229 117.15C225.764 140.126 232.404 180.558 235.285 195.328C238.735 186.192 246.149 167.138 253.782 151.05C264.193 129.115 278.54 103.989 278.684 103.742C278.919 103.334 279.31 103.046 279.769 102.943C280.228 102.839 280.704 102.943 281.089 103.213L289.91 109.509C290.242 109.745 290.472 110.09 290.564 110.486L290.811 111.544L296.263 114.626C297.68 115.299 299.195 115.943 300.624 116.547C301.715 116.955 302.811 117.415 303.884 117.921C311.597 121.221 320.166 125.568 324.327 135.423C328.55 145.433 325.078 160.353 318.57 179.684C312.309 198.267 305.853 215.889 304.475 218.643C303.867 219.88 302.776 220.322 301.984 220.644C301.399 220.88 300.94 221.07 300.561 221.524C300.504 221.593 300.441 221.656 300.378 221.714C300.062 221.99 297.066 224.382 288.429 224.382C287.511 224.382 286.765 223.634 286.765 222.714C286.765 221.794 287.511 221.047 288.429 221.047C295.052 221.047 297.692 219.523 298.151 219.218C299.029 218.247 300.004 217.85 300.733 217.551C301.083 217.407 301.445 217.258 301.502 217.148C302.805 214.538 309.307 196.766 315.42 178.608C320.843 162.504 325.302 146.284 321.262 136.711C317.577 127.983 309.996 124.148 302.553 120.962C302.535 120.956 302.512 120.945 302.495 120.939C301.491 120.462 300.458 120.031 299.442 119.651C299.419 119.646 299.396 119.634 299.373 119.623C297.881 118.996 296.291 118.317 294.788 117.604C294.753 117.587 294.719 117.57 294.684 117.553L288.544 114.086C288.136 113.856 287.849 113.465 287.74 113.01L287.47 111.855L280.658 106.996C277.347 112.867 265.628 133.842 256.778 152.482C246.431 174.285 236.485 201.607 236.387 201.877C236.135 202.573 235.452 203.01 234.723 202.97C233.988 202.924 233.369 202.401 233.202 201.682C233.168 201.544 229.914 187.405 228.048 169.903C225.523 146.278 226.579 128.057 231.188 115.759C231.337 115.362 231.503 114.919 236.473 110.521L236.496 108.865L229.162 111.705L223.715 116.219C223.566 116.34 223.4 116.437 223.216 116.501L215.095 119.427C215.015 119.456 207.302 122.21 205.425 123.003C201.683 124.59 196.667 128.385 194.062 137.475C193.878 138.113 193.597 139.051 193.241 140.247C174.233 203.74 179.915 218.293 184.988 221.323C192.719 225.928 203.003 221.242 203.107 221.19C203.939 220.805 204.926 221.167 205.316 222.001C205.701 222.835 205.339 223.824 204.507 224.215C204.186 224.364 199.083 226.687 193.006 226.687L193.017 226.693Z" fill="#202933"/>
<path d="M215.009 153.057C214.321 153.057 213.672 152.626 213.437 151.936L208.978 138.941C208.76 138.315 208.938 137.619 209.425 137.171L215.388 131.708L211.704 128.489C211.015 127.891 210.94 126.844 211.532 126.148L220.002 116.23C220.599 115.529 221.65 115.448 222.344 116.046C223.038 116.644 223.124 117.696 222.528 118.392L215.13 127.057L218.975 130.415C219.331 130.725 219.538 131.174 219.543 131.651C219.543 132.128 219.354 132.582 219.004 132.899L212.467 138.878L216.576 150.843C216.875 151.712 216.415 152.66 215.543 152.959C215.365 153.022 215.182 153.051 215.004 153.051L215.009 153.057Z" fill="#202933"/>
<path d="M260.474 174.273C260.13 174.273 259.785 174.17 259.493 173.951C258.752 173.405 258.597 172.364 259.137 171.623L279.964 143.265L273.525 136.216C273.146 135.802 273.002 135.221 273.14 134.675C273.284 134.129 273.685 133.692 274.219 133.514L286.334 129.432L286.753 121.986C286.805 121.066 287.585 120.37 288.503 120.416C289.422 120.468 290.122 121.256 290.07 122.17L289.588 130.737C289.548 131.415 289.1 132.007 288.458 132.22L277.697 135.842L283.333 142.012C283.866 142.598 283.912 143.484 283.447 144.122L261.811 173.578C261.484 174.02 260.979 174.256 260.468 174.256L260.474 174.273Z" fill="#202933"/>
<path d="M276.452 10.5572C264.055 -3.54094 252.095 3.35866 252.095 3.35866C252.095 3.35866 248.399 1.23703 241.07 3.06543C236.169 4.28435 227.073 8.27462 219.578 16.8991C213.678 23.6837 211.026 31.6298 209.896 38.3856C207.968 49.9367 213.402 58.4635 213.402 58.4635L273.921 65.8863C273.921 67.2375 276.4 76.9429 274.391 83.8023C273.209 87.8328 270.787 89.2242 270.787 89.2242C270.787 89.2242 274.741 91.9093 282.34 90.4891C288.802 89.2817 299.947 79.8235 300.022 61.5855C300.091 44.348 287.884 23.5457 276.457 10.5515L276.452 10.5572Z" fill="#FF7B22"/>
<path d="M278.064 92.5705C272.819 92.5705 270.001 90.7076 269.852 90.6099C269.375 90.2879 269.1 89.7417 269.123 89.1725C269.146 88.5975 269.461 88.0743 269.955 87.7926C270.012 87.7581 271.837 86.6024 272.79 83.3423C274.265 78.2999 273.106 71.3715 272.543 68.0424C272.503 67.801 272.469 67.5825 272.434 67.387L213.196 60.1194C212.702 60.0619 212.266 59.7802 211.996 59.3605C211.761 58.9925 206.24 50.1552 208.255 38.1097C209.729 29.3012 213.115 21.7979 218.321 15.8067C225.512 7.53294 234.579 2.96771 240.663 1.4498C246.591 -0.0278691 250.431 0.920826 252.049 1.52454C253.323 0.955324 256.049 -0.0336188 259.636 0.000879176C264.118 0.0353772 270.885 1.70853 277.697 9.45333C288.808 22.0854 301.755 43.3246 301.68 61.5971C301.634 72.2397 297.967 79.3463 294.903 83.4286C291.448 88.0283 286.747 91.3631 282.644 92.1278C280.957 92.444 279.424 92.5705 278.064 92.5705ZM273.766 88.6953C275.47 89.184 278.225 89.5692 282.036 88.8562C287.12 87.9076 298.289 79.72 298.363 61.5856C298.426 45.36 286.782 24.8164 275.212 11.6612C263.923 -1.1778 253.369 4.56037 252.927 4.8076C252.416 5.09509 251.785 5.09509 251.28 4.8076C251.269 4.80185 247.951 3.0712 241.484 4.68686C239.55 5.16983 229.472 8.07341 220.846 17.9973C216.048 23.517 212.92 30.4684 211.549 38.6616C210.045 47.6426 213.311 54.778 214.447 56.9168L274.133 64.2419C274.965 64.3454 275.591 65.0526 275.591 65.8921C275.596 66.0818 275.723 66.8293 275.832 67.4905C276.434 71.0668 277.68 78.5069 275.992 84.2795C275.413 86.2574 274.569 87.6948 273.771 88.701L273.766 88.6953Z" fill="#202933"/>
<path d="M256.985 47.5965C256.985 47.5965 251.165 48.091 245.822 44.9631C237.351 40.0069 236.869 23.2122 236.795 18.9804C236.795 18.7677 236.783 18.4457 236.783 18.4457L234.832 17.0083C234.832 17.0083 228.915 14.6222 221.781 23.3386C213.047 34.01 211.933 52.593 212.077 54.0936C212.427 57.7217 213.052 61.7177 213.052 70.3249C213.052 87.1715 228.628 102.517 236.186 102.592C249.013 102.724 264.245 88.3214 264.245 88.3214L281.45 67.7318L271.326 56.0313C265.909 55.784 256.985 47.5907 256.985 47.5907V47.5965Z" fill="white"/>
<path d="M274.265 92.1335C274.162 92.1335 274.064 92.1335 273.961 92.1335C273.043 92.1162 272.314 91.3573 272.331 90.4373C272.348 89.5174 273.106 88.7757 274.024 88.8044C274.104 88.8044 274.185 88.8044 274.259 88.8044C280.234 88.8044 281.588 84.2449 281.64 84.0494C281.886 83.1697 282.799 82.6465 283.677 82.888C284.555 83.1295 285.083 84.0265 284.848 84.9119C284.182 87.436 281.117 92.1335 274.253 92.1335H274.265Z" fill="#202933"/>
<path d="M256.985 49.2639C256.531 49.2639 256.084 49.0799 255.757 48.7177C255.493 48.4302 249.283 41.4789 247.033 29.2033C246.867 28.3006 247.464 27.4324 248.37 27.2657C249.271 27.0989 250.138 27.6969 250.304 28.6054C252.382 39.9552 258.161 46.4178 258.219 46.4811C258.838 47.1595 258.787 48.2117 258.11 48.8327C257.794 49.1259 257.392 49.2639 256.99 49.2639H256.985Z" fill="#202933"/>
<path d="M247.67 7.14753C247.05 7.14753 246.454 6.7968 246.172 6.19884C245.776 5.37089 246.126 4.37619 246.953 3.97947L251.383 1.85784C252.21 1.46111 253.203 1.81184 253.599 2.63979C253.995 3.46775 253.645 4.46244 252.818 4.85917L248.388 6.98079C248.158 7.09004 247.911 7.14178 247.67 7.14178V7.14753Z" fill="#202933"/>
<path d="M270.374 57.3882C270.374 57.3882 270.322 57.3882 270.294 57.3882C265.06 57.1467 258.362 51.2015 256.342 49.2926C254.477 49.3214 249.593 49.1029 244.984 46.4063C235.239 40.7084 235.062 22.0967 235.125 18.4227C235.182 14.9786 233.816 14.0184 233.805 14.0127C233.041 13.5009 232.835 12.466 233.346 11.7013C233.856 10.9366 234.889 10.7296 235.653 11.2413C236.33 11.6955 238.534 13.5584 238.448 18.4802C238.321 25.926 239.911 39.5814 246.66 43.5315C251.452 46.3373 256.795 45.9463 256.847 45.9406C257.329 45.9003 257.805 46.0728 258.15 46.412C260.244 48.4762 266.529 53.8809 270.443 54.0591C271.361 54.0993 272.067 54.8813 272.027 55.8012C271.987 56.6924 271.252 57.3882 270.368 57.3882H270.374Z" fill="#202933"/>
<path d="M236.364 104.265C236.301 104.265 236.238 104.265 236.175 104.265C227.073 104.173 211.4 87.3671 211.4 70.3308C211.4 63.322 210.975 59.4007 210.636 56.2441C210.562 55.5542 210.493 54.8987 210.43 54.2548C210.257 52.4551 211.319 33.5042 220.502 22.2866C224.232 17.7271 226.826 15.6917 229.575 14.0358C230.361 13.5644 231.383 13.8173 231.853 14.605C232.324 15.3927 232.072 16.4162 231.285 16.8877C228.835 18.3653 226.499 20.211 223.067 24.3967C214.78 34.5219 213.603 52.2539 213.735 53.9443C213.793 54.571 213.862 55.2092 213.936 55.8877C214.286 59.119 214.717 63.1437 214.717 70.3308C214.717 86.0274 229.489 100.867 236.204 100.936C236.255 100.936 236.307 100.936 236.364 100.936C248.336 100.936 262.959 87.2579 263.103 87.1199C263.768 86.4874 264.824 86.5219 265.45 87.1889C266.081 87.8558 266.047 88.9138 265.381 89.5405C264.744 90.1442 249.656 104.265 236.359 104.265H236.364Z" fill="#202933"/>
<path d="M274.477 52.6104C272.515 54.5998 272.044 57.0261 272.044 57.0261L271.786 75.3676C279.183 77.2822 287.258 69.6294 287.258 61.5626C287.258 48.8961 276.979 50.0748 274.477 52.6104Z" fill="white"/>
<path d="M274.116 77.3222C273.186 77.3222 272.268 77.2072 271.372 76.9772C270.483 76.7473 269.949 75.8388 270.179 74.9476C270.408 74.0564 271.315 73.5217 272.205 73.7517C274.81 74.4244 277.783 73.6597 280.366 71.6588C283.591 69.1519 285.6 65.2824 285.6 61.5624C285.6 57.0891 284.222 54.1626 281.617 53.0874C279.155 52.0754 276.429 52.9954 275.66 53.7773C274.093 55.3642 273.68 57.3191 273.68 57.3364C273.507 58.2391 272.635 58.8255 271.734 58.653C270.833 58.4806 270.242 57.6066 270.42 56.7039C270.443 56.5832 271.011 53.7601 273.301 51.4372C275.114 49.5973 279.292 48.5279 282.885 50.0055C285.14 50.937 288.928 53.6681 288.928 61.5566C288.928 66.2886 286.432 71.1643 282.409 74.2864C279.849 76.27 276.945 77.3165 274.127 77.3165L274.116 77.3222Z" fill="#202933"/>
<path d="M276.228 75.0627C276.228 76.6956 274.902 78.0237 273.272 78.018C271.642 78.018 270.317 76.6898 270.322 75.0569C270.322 73.424 271.648 72.0958 273.278 72.1016C274.908 72.1016 276.233 73.4298 276.228 75.0627Z" fill="white"/>
<path d="M273.272 79.6855C270.724 79.6855 268.658 77.6099 268.658 75.0571C268.658 73.8209 269.14 72.6594 270.012 71.7855C270.885 70.9115 272.044 70.4343 273.272 70.4343C274.506 70.4343 275.665 70.9173 276.538 71.7912C277.41 72.6652 277.886 73.8266 277.886 75.0628C277.886 76.299 277.404 77.4604 276.532 78.3344C275.66 79.2083 274.5 79.6855 273.272 79.6855ZM273.272 73.7634C272.928 73.7634 272.601 73.8956 272.36 74.1429C272.113 74.3901 271.981 74.7121 271.981 75.0571C271.981 75.77 272.561 76.3507 273.272 76.3507C273.616 76.3507 273.944 76.2185 274.185 75.9713C274.431 75.724 274.563 75.402 274.563 75.0571C274.563 74.7121 274.431 74.3844 274.185 74.1429C273.944 73.8956 273.616 73.7634 273.272 73.7634Z" fill="#202933"/>
<path d="M232.152 74.7466C232.117 74.3383 231.676 74.1543 230.975 73.6656C230.298 73.1424 229.856 72.8434 229.5 72.9642C229.133 73.0907 228.64 74.2521 229.994 75.3043C231.4 76.276 232.192 75.1663 232.152 74.7466Z" fill="#202933"/>
<path d="M219.216 48.7292C218.78 48.7292 218.355 48.5108 218.114 48.114C217.741 47.5046 217.925 46.7111 218.533 46.3374C218.751 46.1994 223.974 43.0256 229.742 45.9579C230.379 46.2799 230.631 47.0618 230.31 47.7001C229.988 48.3383 229.208 48.5913 228.571 48.2693C224.134 46.0097 220.065 48.436 219.893 48.5395C219.681 48.666 219.451 48.7292 219.222 48.7292H219.216Z" fill="#202933"/>
<path d="M234.327 90.4259C234.092 90.4259 233.856 90.3627 233.644 90.2304C230.046 87.988 228.548 81.9624 228.485 81.7037C228.393 81.3184 228.485 80.9102 228.726 80.5997C228.972 80.2892 229.345 80.1053 229.741 80.1053L243.653 80.0938C244.043 80.0938 244.416 80.272 244.663 80.5767C244.91 80.8815 245.002 81.2839 244.915 81.6692C244.864 81.9106 243.567 87.5856 240.278 89.9717C239.699 90.3914 238.889 90.2649 238.471 89.6842C238.052 89.1035 238.178 88.2928 238.757 87.8731C240.273 86.7749 241.346 84.4118 241.931 82.6811H231.492C232.152 84.5095 233.357 86.9991 235.004 88.0283C235.612 88.4078 235.796 89.207 235.417 89.8107C235.171 90.2074 234.752 90.4202 234.321 90.4202L234.327 90.4259Z" fill="#202933"/>
<path d="M254.873 57.2043C254.362 57.2043 253.868 56.9398 253.593 56.4683C252.405 54.4214 250.741 53.8292 250.419 53.7315C247.596 52.869 246.167 54.2374 246.103 54.3007C245.547 54.8987 244.617 54.9159 244.026 54.3582C243.429 53.8005 243.412 52.8518 243.969 52.2538C244.078 52.1388 246.637 49.4825 251.28 50.9026C251.992 51.1211 254.448 52.0583 256.147 54.9849C256.554 55.6921 256.319 56.5948 255.613 57.0088C255.378 57.1468 255.125 57.21 254.873 57.21V57.2043Z" fill="#202933"/>
<path d="M229.46 56.9627C228.995 56.9627 228.542 56.7442 228.255 56.336C227.239 54.8986 226.063 54.0247 224.76 53.7314C223.417 53.4324 222.12 53.8867 220.921 55.0768C220.341 55.6518 219.405 55.6461 218.832 55.0596C218.258 54.4789 218.263 53.5417 218.849 52.9667C221.294 50.5519 223.761 50.4771 225.403 50.8393C227.446 51.2936 229.219 52.5642 230.671 54.6226C231.142 55.2896 230.987 56.2153 230.321 56.6867C230.063 56.8707 229.764 56.957 229.466 56.957L229.46 56.9627Z" fill="#202933"/>
<path d="M251.217 60.4298C252.951 60.4298 254.356 58.8569 254.356 56.9167C254.356 54.9765 252.951 53.4037 251.217 53.4037C249.483 53.4037 248.078 54.9765 248.078 56.9167C248.078 58.8569 249.483 60.4298 251.217 60.4298Z" fill="#202933"/>
<path d="M226.47 60.4298C228.103 60.4298 229.426 58.8569 229.426 56.9167C229.426 54.9765 228.103 53.4037 226.47 53.4037C224.838 53.4037 223.515 54.9765 223.515 56.9167C223.515 58.8569 224.838 60.4298 226.47 60.4298Z" fill="#202933"/>
<path d="M207.6 217.154C206.854 218.454 205.787 220.943 203.818 222.708C201.333 224.939 195.933 226.63 191.881 226.63C182.239 226.63 177.229 221.967 174.044 215.734C170.779 209.34 170.36 197.364 171.071 185.836C171.817 173.784 172.667 154.109 172.667 154.109C172.667 154.109 177.379 151.809 187.066 151.458C196.753 151.108 202.309 152.125 202.309 152.125L203.497 167.856C203.497 167.856 206.085 177.315 208.742 194.633C211.124 210.145 208.84 215.021 207.606 217.16L207.6 217.154Z" fill="#17A089"/>
<path d="M192.197 228.297C182.94 228.297 176.684 224.479 172.495 216.292C169.528 210.485 168.466 200.135 169.344 185.531C170.187 171.467 170.997 154.201 171.008 154.029C171.037 153.419 171.393 152.879 171.938 152.609C172.145 152.511 177.08 150.153 187.003 149.791C187.118 149.785 190.618 149.596 194.974 149.791C195.893 149.831 196.599 150.613 196.558 151.528C196.518 152.448 195.726 153.149 194.825 153.114C190.647 152.925 187.192 153.114 187.158 153.114C180.288 153.362 176.007 154.621 174.274 155.248C174.084 159.238 173.384 173.658 172.661 185.727C171.835 199.532 172.799 209.57 175.45 214.768C179.054 221.817 184.214 224.962 192.191 224.962C199.405 224.962 202.452 221.731 202.579 221.593C203.193 220.92 204.243 220.863 204.92 221.478C205.597 222.087 205.66 223.128 205.058 223.812C204.897 223.996 201 228.297 192.185 228.297H192.197Z" fill="#202933"/>
<path d="M301.474 217.154C301.152 218.983 303.844 215.981 302.989 217.89C298.65 227.578 292.538 230.873 283.861 230.212C276.71 229.665 262.368 223.364 252.652 217.143C242.494 210.646 225.73 200.365 225.73 200.365C225.73 200.365 226.005 195.121 230.396 186.462C234.786 177.803 238.367 173.428 238.367 173.428L252.675 180.017C252.675 180.017 301.778 215.424 301.474 217.154Z" fill="#17A089"/>
<path d="M285.737 232C284.32 232 282.833 231.891 281.267 231.666C273.37 230.545 260.669 224.203 251.59 218.419C239.722 210.864 225.041 201.78 224.892 201.688C224.376 201.366 224.071 200.791 224.106 200.181C224.117 199.951 224.456 194.483 228.95 185.612C229.001 185.508 230.528 182.346 232.812 178.626C235.096 174.9 237.001 172.422 237.082 172.313C237.552 171.697 238.39 171.49 239.09 171.818C239.154 171.847 245.512 174.774 253.197 178.373C254.029 178.764 254.391 179.753 254 180.586C253.61 181.42 252.623 181.782 251.791 181.391C246.104 178.729 241.145 176.435 238.93 175.412C238.178 176.458 236.967 178.206 235.641 180.368C233.449 183.938 231.94 187.055 231.922 187.089C228.806 193.23 227.836 197.588 227.538 199.411C230.93 201.515 243.182 209.116 253.363 215.602C263.751 222.214 275.413 227.463 281.726 228.36C291.453 229.74 297.537 226.308 301.457 217.223C301.818 216.378 302.799 215.987 303.643 216.355C304.487 216.717 304.871 217.701 304.51 218.546C300.59 227.642 294.558 231.994 285.732 231.994L285.737 232Z" fill="#202933"/>
<path d="M237.541 176.389L226.224 171.76C226.224 171.76 220.134 165.603 213.374 164.723C205.902 163.745 197.959 166.465 197.959 166.465C197.959 166.465 188.334 163.504 183.714 165.43C181.344 166.419 181.677 168.61 182.584 169.765C183.651 171.122 185.654 172.031 185.654 172.031C185.654 172.031 175.479 168.374 170.383 167.212C165.286 166.051 161.281 165.603 158.646 166.178C156.936 166.551 155.857 167.684 156.024 169.507C156.23 171.726 158.864 172.324 158.864 172.324C158.864 172.324 156.965 172.646 156.655 174.221C156.293 176.061 157.877 177.343 159.456 177.953C162.75 179.224 187.474 189.389 191.743 190.855C195.95 192.304 214.217 190.43 217.77 191.539C222.407 192.988 229.409 197.116 229.409 197.116C229.409 197.116 232.668 192.873 235.021 187.227C238.143 179.747 237.547 176.395 237.547 176.395L237.541 176.389Z" fill="white"/>
<path d="M229.403 198.773C229.116 198.773 228.823 198.698 228.559 198.543C228.49 198.502 221.661 194.495 217.265 193.121C215.865 192.684 210.682 192.827 206.102 192.948C198.619 193.149 193.54 193.224 191.192 192.419C188.288 191.419 176.311 186.56 167.571 183.013C163.295 181.276 159.92 179.908 158.847 179.494C156.018 178.402 154.549 176.251 155.014 173.882C155.128 173.296 155.364 172.801 155.668 172.393C154.991 171.72 154.468 170.818 154.359 169.645C154.124 167.075 155.622 165.114 158.285 164.533C161.028 163.935 164.988 164.263 170.738 165.574C173.315 166.16 177.086 167.345 180.265 168.403C180.196 167.857 180.225 167.305 180.357 166.787C180.696 165.499 181.654 164.464 183.06 163.878C187.611 161.98 195.669 164.062 197.924 164.712C199.864 164.114 206.831 162.182 213.575 163.061C220.1 163.912 225.868 169.116 227.142 170.335L238.161 174.842C238.689 175.061 239.067 175.527 239.171 176.09C239.24 176.481 239.762 180.144 236.542 187.854C234.132 193.632 230.849 197.933 230.711 198.117C230.384 198.543 229.897 198.767 229.391 198.767L229.403 198.773ZM212.737 189.493C215.354 189.493 217.185 189.602 218.258 189.941C221.833 191.057 226.625 193.627 228.921 194.915C230.011 193.316 231.957 190.24 233.483 186.578C235.463 181.828 235.859 178.873 235.917 177.522L225.598 173.302C225.391 173.215 225.202 173.089 225.047 172.934C224.99 172.876 219.262 167.172 213.161 166.373C206.177 165.459 198.573 168.012 198.492 168.041C198.16 168.15 197.804 168.161 197.471 168.058C194.952 167.282 187.68 165.58 184.351 166.965C183.915 167.149 183.657 167.374 183.588 167.638C183.496 167.989 183.669 168.455 183.892 168.731C184.558 169.576 185.918 170.317 186.337 170.507C187.152 170.875 187.531 171.818 187.192 172.652C186.859 173.48 185.93 173.894 185.092 173.595C184.989 173.56 174.957 169.955 170.015 168.834C164.827 167.655 161.223 167.316 159.002 167.799C157.567 168.115 157.642 168.949 157.682 169.352C157.774 170.329 159.232 170.697 159.243 170.697C160.006 170.887 160.546 171.588 160.517 172.376C160.489 173.164 159.915 173.831 159.14 173.957C159.002 173.986 158.354 174.187 158.285 174.532C158.078 175.59 159.852 176.309 160.052 176.389C161.149 176.815 164.54 178.189 168.827 179.925C177.534 183.461 189.465 188.297 192.283 189.268C194.234 189.941 200.771 189.763 206.022 189.619C208.662 189.544 210.9 189.493 212.743 189.493H212.737Z" fill="#202933"/>
<path d="M199.749 176.705C199.692 176.705 199.64 176.705 199.583 176.699L192.862 176.033C192.748 176.021 192.633 175.998 192.524 175.964L185.138 173.618C184.265 173.342 183.777 172.404 184.053 171.525C184.328 170.651 185.264 170.168 186.142 170.438L193.362 172.732L199.91 173.382C200.822 173.474 201.488 174.29 201.402 175.205C201.316 176.061 200.593 176.705 199.749 176.705Z" fill="#202933"/>
<path d="M183.697 181.926C183.502 181.926 183.307 181.891 183.112 181.817C170.83 177.194 158.56 173.957 158.434 173.922C157.544 173.687 157.016 172.778 157.246 171.887C157.481 170.996 158.388 170.467 159.272 170.697C159.398 170.731 171.829 174.009 184.277 178.695C185.138 179.017 185.574 179.977 185.247 180.839C184.994 181.506 184.363 181.92 183.691 181.92L183.697 181.926Z" fill="#202933"/>
<path d="M175.967 154.512L175.984 146.514C175.984 146.514 161.929 132.674 161.034 129.564C160.15 126.493 161.258 123.923 161.258 123.923C161.258 123.923 159.542 121.658 160.047 119.508C160.678 116.834 162.268 116.069 162.268 116.069C162.268 116.069 159.863 112.947 160.862 110.17C162.245 106.329 165.12 106.83 165.12 106.83C165.12 106.83 164.552 106.243 160.173 103.662C154.87 100.539 155.168 97.5726 156.431 96.0835C159.341 92.6452 170.205 99.8322 170.205 99.8322L192.765 109.434L203.801 106.479L205.437 111.401C205.437 111.401 207.813 114.764 206.498 121.077C205.19 127.39 199.824 142.322 199.824 142.322L199.812 153.77C199.812 153.77 196.61 156.231 187.525 156.426C178.257 156.622 175.955 154.5 175.955 154.5L175.967 154.512Z" fill="white"/>
<path d="M186.337 158.111C177.866 158.111 175.284 156.144 174.836 155.73C174.492 155.414 174.297 154.966 174.297 154.5L174.314 147.198C170.469 143.392 160.334 133.14 159.433 130.012C158.721 127.534 159.1 125.326 159.433 124.147C158.824 123.101 157.958 121.146 158.434 119.116C158.807 117.524 159.478 116.443 160.104 115.736C159.335 114.304 158.463 111.947 159.306 109.601C159.851 108.089 160.626 107.059 161.458 106.369C160.884 106.013 160.184 105.593 159.335 105.093C156.219 103.253 154.445 101.2 154.072 98.9926C153.825 97.5437 154.216 96.1235 155.168 95.0024C156.936 92.9152 160.179 92.9612 165.085 95.1461C167.903 96.3995 170.394 97.9692 170.991 98.3544L192.891 107.675L203.376 104.869C204.226 104.639 205.104 105.116 205.379 105.95L206.952 110.682C207.526 111.648 209.385 115.368 208.128 121.411C206.894 127.367 202.246 140.482 201.488 142.61L201.477 153.77C201.477 154.287 201.236 154.776 200.828 155.092C200.455 155.38 196.926 157.892 187.565 158.088C187.141 158.099 186.727 158.099 186.331 158.099L186.337 158.111ZM177.625 153.545C178.739 154.028 181.568 154.897 187.496 154.764C193.666 154.632 196.891 153.436 198.16 152.815L198.171 142.322C198.171 142.132 198.205 141.943 198.269 141.759C198.32 141.609 203.612 126.861 204.88 120.738C206.011 115.281 204.105 112.389 204.088 112.361C203.996 112.228 203.922 112.079 203.87 111.924L202.728 108.491L193.201 111.038C192.845 111.136 192.466 111.107 192.122 110.963L169.562 101.361C169.47 101.321 169.378 101.275 169.298 101.218C164.747 98.2107 158.824 95.8361 157.705 97.1527C157.487 97.4057 157.252 97.8369 157.355 98.4349C157.47 99.1076 158.095 100.493 161.028 102.218C163.978 103.955 165.854 105.179 166.325 105.662C166.836 106.191 166.991 107.008 166.624 107.652C166.262 108.29 165.579 108.623 164.867 108.468C164.552 108.439 163.249 108.474 162.44 110.728C161.883 112.28 163.088 114.373 163.599 115.051C163.915 115.465 164.07 115.983 163.932 116.483C163.794 116.978 163.49 117.357 163.025 117.553C162.87 117.65 162.067 118.237 161.676 119.881C161.412 120.991 162.273 122.48 162.595 122.911C162.951 123.388 163.025 124.027 162.79 124.573C162.79 124.584 161.94 126.672 162.635 129.092C163.128 130.765 170.555 138.821 177.155 145.318C177.476 145.634 177.654 146.059 177.654 146.508L177.637 153.545H177.625Z" fill="#202933"/>
<path d="M169.998 133.468H193.964C195.901 133.468 197.471 131.895 197.471 129.955V79.0643C197.471 77.1241 195.901 75.5513 193.964 75.5513H169.998C168.061 75.5513 166.492 77.1241 166.492 79.0643V129.955C166.492 131.895 168.061 133.468 169.998 133.468Z" fill="white"/>
<path d="M193.964 135.129H170.004C167.152 135.129 164.833 132.807 164.833 129.949V79.0586C164.833 76.201 167.152 73.8782 170.004 73.8782H193.964C196.817 73.8782 199.135 76.201 199.135 79.0586V129.949C199.135 132.807 196.817 135.129 193.964 135.129ZM170.004 77.213C168.988 77.213 168.156 78.0409 168.156 79.0644V129.955C168.156 130.972 168.982 131.806 170.004 131.806H193.964C194.98 131.806 195.812 130.978 195.812 129.955V79.0644C195.812 78.0467 194.986 77.213 193.964 77.213H170.004Z" fill="#202933"/>
<path d="M189 80.8239H174.968C173.998 80.8239 173.212 80.0361 173.212 79.0645V75.5514H190.756V79.0645C190.756 80.0361 189.97 80.8239 189 80.8239Z" fill="#17A089"/>
<path d="M189 82.4855H174.968C173.086 82.4855 171.553 80.9504 171.553 79.0645V75.5514C171.553 74.6315 172.299 73.884 173.218 73.884H190.762C191.68 73.884 192.426 74.6315 192.426 75.5514V79.0645C192.426 80.9504 190.894 82.4855 189.012 82.4855H189ZM174.876 77.2131V79.0645C174.876 79.1162 174.916 79.1565 174.968 79.1565H189C189.052 79.1565 189.092 79.1162 189.092 79.0645V77.2131H174.871H174.876Z" fill="#202933"/>
<path d="M181.987 65.1159C181.069 65.1159 180.323 64.3684 180.323 63.4485V58.705C180.323 57.7851 181.069 57.0376 181.987 57.0376C182.905 57.0376 183.651 57.7851 183.651 58.705V63.4485C183.651 64.3684 182.905 65.1159 181.987 65.1159Z" fill="#202933"/>
<path d="M189.959 66.1794C189.614 66.1794 189.27 66.0759 188.971 65.8517C188.231 65.3055 188.076 64.2648 188.621 63.5231L191.089 60.171C191.634 59.4293 192.673 59.2741 193.413 59.8203C194.154 60.3665 194.309 61.4072 193.763 62.1489L191.296 65.501C190.969 65.9437 190.469 66.1794 189.959 66.1794Z" fill="#202933"/>
<path d="M174.01 66.1794C173.499 66.1794 173 65.9437 172.672 65.501L170.205 62.1489C169.659 61.4072 169.814 60.3665 170.555 59.8203C171.295 59.2741 172.334 59.4293 172.879 60.171L175.347 63.5231C175.892 64.2648 175.737 65.3055 174.997 65.8517C174.698 66.0702 174.354 66.1794 174.01 66.1794Z" fill="#202933"/>
<path d="M205.092 97.6934C203.015 95.9685 199.129 97.6014 197.207 102.684C195.215 107.951 197.832 113.465 197.832 113.465L206.877 116.788C206.177 110.9 205.006 110.354 204.851 106.847C204.668 102.724 207.79 99.9243 205.098 97.6934H205.092Z" fill="white"/>
<path d="M206.871 118.45C206.039 118.45 205.322 117.829 205.224 116.984C204.874 114.051 204.415 112.556 204.013 111.234C203.635 109.986 203.273 108.808 203.187 106.922C203.101 104.99 203.617 103.334 204.036 102.006C204.691 99.9186 204.691 99.5219 204.036 98.9757C203.606 98.6192 203.055 98.6652 202.665 98.7687C201.483 99.0849 199.835 100.43 198.762 103.271C197.052 107.784 199.313 112.7 199.336 112.746C199.726 113.58 199.371 114.569 198.544 114.96C197.718 115.351 196.725 115 196.335 114.172C196.214 113.919 193.436 107.951 195.657 102.086C196.949 98.6709 199.25 96.2273 201.815 95.5431C203.405 95.1234 204.989 95.4339 206.154 96.3998C208.633 98.4582 207.847 100.971 207.21 102.995C206.837 104.185 206.447 105.415 206.51 106.761C206.573 108.221 206.837 109.072 207.193 110.245C207.618 111.631 208.146 113.35 208.524 116.581C208.633 117.495 207.979 118.323 207.072 118.433C207.003 118.438 206.94 118.444 206.871 118.444V118.45Z" fill="#202933"/>
<path fill-rule="evenodd" clip-rule="evenodd" d="M193.397 101.694C193.397 96.8121 188.489 92.8402 182.455 92.8402C176.421 92.8402 171.512 96.8121 171.512 101.694C171.512 106.071 175.406 109.736 180.664 110.429C181.02 110.506 181.505 110.663 181.628 110.967C181.739 111.243 181.7 111.675 181.664 111.954C181.664 111.954 181.536 112.724 181.508 112.888L181.504 112.91C181.452 113.205 181.319 113.954 182.456 113.476C183.624 112.985 188.757 109.776 191.053 107.142C192.638 105.407 193.398 103.648 193.398 101.694H193.397ZM189.756 104.513H186.683C186.567 104.513 186.473 104.42 186.473 104.305V104.302V99.5486V99.5435C186.473 99.4279 186.567 99.3349 186.683 99.3349H189.756C189.871 99.3349 189.966 99.429 189.966 99.5435V100.318C189.966 100.433 189.872 100.526 189.756 100.526H187.667V101.33H189.756C189.871 101.33 189.966 101.424 189.966 101.539V102.313C189.966 102.428 189.872 102.521 189.756 102.521H187.667V103.325H189.756C189.871 103.325 189.966 103.419 189.966 103.534V104.308C189.966 104.423 189.872 104.516 189.756 104.516V104.513ZM178.594 104.305C178.594 104.42 178.5 104.513 178.385 104.513H178.384H175.31C175.194 104.513 175.101 104.42 175.101 104.305V104.301V99.5425C175.101 99.4269 175.194 99.3338 175.31 99.3338H176.087C176.202 99.3338 176.296 99.4279 176.296 99.5425V103.322H178.385C178.5 103.322 178.594 103.416 178.594 103.531V104.305ZM180.235 99.3349H179.46C179.344 99.3349 179.251 99.4283 179.251 99.5435V104.305C179.251 104.42 179.344 104.513 179.46 104.513H180.235C180.351 104.513 180.445 104.42 180.445 104.305V99.5435C180.445 99.4283 180.351 99.3349 180.235 99.3349ZM184.742 99.3349H185.518L185.519 99.3359C185.635 99.3359 185.729 99.43 185.729 99.5445V104.306C185.729 104.421 185.634 104.514 185.519 104.514H184.748C184.73 104.514 184.711 104.511 184.694 104.507H184.691C184.686 104.506 184.682 104.505 184.676 104.503C184.675 104.503 184.673 104.502 184.672 104.501C184.671 104.501 184.671 104.501 184.67 104.501C184.67 104.501 184.669 104.501 184.668 104.501C184.666 104.5 184.662 104.499 184.66 104.497C184.658 104.496 184.657 104.495 184.655 104.495C184.653 104.494 184.651 104.493 184.65 104.492L184.644 104.489C184.642 104.488 184.641 104.487 184.639 104.486C184.636 104.485 184.633 104.483 184.63 104.481C184.63 104.48 184.628 104.479 184.628 104.479C184.608 104.465 184.589 104.448 184.574 104.426L182.386 101.48V104.308C182.386 104.423 182.293 104.516 182.177 104.516H181.4C181.285 104.516 181.191 104.422 181.191 104.308V99.5466C181.191 99.431 181.286 99.3379 181.4 99.3379H182.172H182.179H182.19C182.194 99.3379 182.197 99.339 182.202 99.339C182.205 99.34 182.208 99.34 182.211 99.34C182.212 99.3403 182.213 99.3408 182.215 99.3412C182.218 99.3421 182.22 99.3431 182.223 99.3431C182.225 99.3441 182.228 99.3451 182.23 99.3451C182.233 99.3459 182.237 99.3473 182.24 99.3484C182.241 99.3487 182.242 99.349 182.243 99.3492C182.244 99.3492 182.246 99.3498 182.247 99.3504C182.248 99.3508 182.249 99.3512 182.25 99.3512C182.254 99.3523 182.258 99.3543 182.262 99.3563L182.262 99.3563L182.268 99.3594C182.272 99.3615 182.275 99.3635 182.279 99.3655C182.28 99.3661 182.282 99.3668 182.283 99.3676C182.284 99.3684 182.285 99.3691 182.286 99.3696C182.29 99.3717 182.294 99.3737 182.297 99.3768C182.299 99.3778 182.301 99.3799 182.303 99.3809C182.305 99.3824 182.307 99.384 182.309 99.3855C182.31 99.387 182.312 99.3886 182.314 99.3901C182.315 99.3911 182.317 99.3921 182.318 99.3932C182.32 99.3948 182.322 99.3966 182.323 99.3984C182.326 99.4011 182.328 99.404 182.331 99.4065L182.332 99.4075C182.334 99.4111 182.337 99.4146 182.34 99.4182C182.343 99.4218 182.346 99.4254 182.348 99.429L184.533 102.371V99.5435C184.533 99.4279 184.626 99.3349 184.742 99.3349Z" fill="#06C755"/>
</svg>
