<svg width="200" height="150" viewBox="0 0 200 150" fill="none" xmlns="http://www.w3.org/2000/svg">
<path d="M70.3398 54.7205L80.0998 56.3405L70.3398 36.9805V54.7205Z" fill="#EBECD3"/>
<path d="M80.0996 56.3404L94.2096 67.4704L95.9196 38.9004L80.0996 56.3404Z" fill="#EBECD3"/>
<path d="M109.61 77.8703L119.76 65.5603L113.36 39.0703L109.61 77.8703Z" fill="#EBECD3"/>
<path d="M108.92 107.44L128.43 113.2L118.48 91.4697L108.92 107.44Z" fill="#EBECD3"/>
<path d="M113.36 39.0698L119.76 5.83984L105.23 13.9998L113.36 39.0698Z" fill="#EBECD3"/>
<path d="M94.21 67.4697V96.1997L109.61 77.8697L94.21 67.4697Z" fill="#EBECD3"/>
<path d="M108.92 107.439L94.3398 133.549L110.8 124.189L108.92 107.439Z" fill="#EBECD3"/>
<path d="M99.67 111.34L90 117.68L94.34 133.55L99.67 111.34Z" fill="#EBECD3"/>
<path d="M80.69 111.34L70.34 119.41L70 147L80.69 111.34Z" fill="#EBECD3"/>
<path d="M70.3398 36.98L80.0998 56.34L88.9698 25.75L70.3398 36.98Z" fill="#DBDBB8"/>
<path d="M95.92 38.9004L94.21 67.4704L113.36 39.0704L95.92 38.9004Z" fill="#DBDBB8"/>
<path d="M109.61 77.8705L118.48 91.4705L119.76 65.5605L109.61 77.8705Z" fill="#DBDBB8"/>
<path d="M118.48 91.47L128.43 95.22V66.54L118.48 91.47Z" fill="#DBDBB8"/>
<path d="M79.7998 140.3L89.9998 117.68L80.6898 111.34L79.7998 140.3Z" fill="#DBDBB8"/>
<path d="M80.6904 111.34L94.2104 96.1999L80.6904 86.1299V111.34Z" fill="#DBDBB8"/>
<path d="M70.3398 119.41L80.6898 86.13L71.4498 83.25L70.3398 119.41Z" fill="#DBDBB8"/>
<path d="M99.6699 111.34L108.92 107.44L109.61 77.8701L99.6699 111.34Z" fill="#DBDBB8"/>
<path d="M110.8 124.189L128.43 113.199L108.92 107.439L110.8 124.189Z" fill="#DBDBB8"/>
<path d="M90 117.68L99.67 111.34L94.21 96.2002L90 117.68Z" fill="#DBDBB8"/>
<path d="M130.01 2L113.36 39.07L128.43 39.74L130.01 2Z" fill="#DBDBB8"/>
<path d="M128.43 39.7402L119.76 65.5602L128.43 66.5402V39.7402Z" fill="#DBDBB8"/>
<path d="M88.9697 25.75L95.9197 38.9L105.23 14L88.9697 25.75Z" fill="#DBDBB8"/>
<path d="M70.3398 54.7197L71.4498 83.2497L80.0998 56.3397L70.3398 54.7197Z" fill="#DBDBB8"/>
<path d="M80.0996 56.3398L80.6896 86.1298L94.2096 67.4698L80.0996 56.3398Z" fill="#DBDBB8"/>
<path d="M80.0996 56.34L95.9196 38.9L88.9696 25.75L80.0996 56.34Z" fill="#FEFFE6"/>
<path d="M94.21 67.4703L109.61 77.8703L113.36 39.0703L94.21 67.4703Z" fill="#FEFFE6"/>
<path d="M128.43 113.2V95.2197L118.48 91.4697L128.43 113.2Z" fill="#FEFFE6"/>
<path d="M109.61 77.8701L108.92 107.44L118.48 91.4701L109.61 77.8701Z" fill="#FEFFE6"/>
<path d="M99.6698 111.339L94.3398 133.549L108.92 107.439L99.6698 111.339Z" fill="#FEFFE6"/>
<path d="M94.21 96.2001L99.67 111.34L109.61 77.8701L94.21 96.2001Z" fill="#FEFFE6"/>
<path d="M80.6904 86.1297L94.2104 96.1997V67.4697L80.6904 86.1297Z" fill="#FEFFE6"/>
<path d="M80.6904 111.34L90.0004 117.68L94.2104 96.2002L80.6904 111.34Z" fill="#FEFFE6"/>
<path d="M70.3398 119.41L80.6898 111.34V86.1299L70.3398 119.41Z" fill="#FEFFE6"/>
<path d="M70 147L79.8 140.3L80.69 111.34L70 147Z" fill="#FEFFE6"/>
<path d="M79.7998 140.3L94.3398 133.55L89.9998 117.68L79.7998 140.3Z" fill="#FEFFE6"/>
<path d="M113.36 39.07L105.23 14L95.9199 38.9L113.36 39.07Z" fill="#FEFFE6"/>
<path d="M119.76 65.5603L128.43 39.7403L113.36 39.0703L119.76 65.5603Z" fill="#FEFFE6"/>
<path d="M118.48 91.4705L128.43 66.5405L119.76 65.5605L118.48 91.4705Z" fill="#FEFFE6"/>
<path d="M130.01 2L119.76 5.84L113.36 39.07L130.01 2Z" fill="#FEFFE6"/>
<path d="M71.4502 83.2498L80.6902 86.1298L80.1002 56.3398L71.4502 83.2498Z" fill="#FEFFE6"/>
<path d="M87.8397 95.8996C87.7397 96.2096 87.8597 96.5496 88.0597 96.7996C88.2597 97.0496 88.5397 97.2296 88.8097 97.4096L89.7497 98.0196C89.9597 98.1596 90.1797 98.2896 90.4197 98.3396C90.8597 98.4196 91.2997 98.1796 91.5797 97.8296C91.8597 97.4896 92.0097 97.0596 92.1597 96.6396C92.2097 96.4896 92.2597 96.3296 92.2197 96.1796C92.1797 96.0496 92.0697 95.9496 91.9597 95.8596C91.5397 95.4996 91.1097 95.1396 90.6097 94.8996C89.6197 94.4196 88.2197 94.6996 87.8397 95.8896V95.8996Z" fill="#F15A24"/>
<path d="M108.73 96.04C108.74 96.39 108.89 96.72 109.03 97.04C109.31 97.67 109.58 98.29 109.86 98.92C109.93 99.09 110.01 99.26 110.14 99.39C110.59 99.82 111.36 99.47 111.71 98.97C112.07 98.47 112.23 97.83 112.66 97.39C112.74 97.31 112.84 97.22 112.86 97.11C112.88 97 112.82 96.89 112.76 96.79C112.43 96.21 112.09 95.62 111.63 95.13C110.52 93.96 108.63 94.01 108.72 96.05L108.73 96.04Z" fill="#8CC63F"/>
<path d="M87.5399 46.8199C87.2799 47.2199 86.7199 47.2499 86.2999 47.4799C85.8699 47.7199 85.5899 48.1999 85.5999 48.6899C85.5999 48.8999 85.6599 49.1099 85.8099 49.2499C86.1599 49.5699 86.7099 49.3099 87.0999 49.0499C87.7599 48.5999 88.4299 48.1599 89.0899 47.7099C89.2299 47.6199 89.3699 47.5199 89.4499 47.3699C89.6399 46.9999 89.2599 46.5399 88.8499 46.4899C88.4399 46.4399 88.0399 46.6499 87.6699 46.8499L87.5399 46.8199Z" fill="#F15A24"/>
<path d="M114.32 30.7795C113.03 30.6795 111.78 31.8795 111.84 33.1695C111.84 33.3895 111.9 33.6195 112.03 33.7895C112.23 34.0495 112.59 34.1495 112.92 34.1095C113.25 34.0695 113.55 33.9195 113.84 33.7595C114.58 33.3595 115.37 32.8395 115.57 32.0195C115.64 31.7595 115.63 31.4595 115.46 31.2495C115.36 31.1295 115.21 31.0495 115.06 30.9895C114.67 30.8495 114.23 30.8395 113.83 30.9795L114.3 30.7695L114.32 30.7795Z" fill="#3F396B"/>
<path d="M100.04 35.1603C99.8899 35.7203 99.8299 36.3803 100.22 36.8103C100.53 37.1503 101.04 37.2303 101.5 37.2703C102.4 37.3503 103.31 37.3903 104.22 37.3803C104.41 37.3803 104.6 37.3803 104.78 37.3003C105.07 37.1703 105.25 36.8603 105.3 36.5503C105.35 36.2403 105.28 35.9203 105.19 35.6103C104.92 34.6603 104.44 33.7703 103.81 33.0203C101.95 30.8203 100.56 33.2803 100.05 35.1603H100.04Z" fill="#8CC63F"/>
<path d="M112.96 114.81C112.81 115.37 112.75 116.03 113.14 116.46C113.45 116.8 113.96 116.88 114.42 116.92C115.32 117 116.23 117.04 117.14 117.03C117.33 117.03 117.52 117.03 117.7 116.95C117.99 116.82 118.17 116.51 118.22 116.2C118.27 115.89 118.2 115.57 118.11 115.26C117.84 114.31 117.36 113.42 116.73 112.67C114.87 110.47 113.48 112.93 112.97 114.81H112.96Z" fill="#8CC63F"/>
<path d="M82.0898 69.9995C82.0898 70.1895 82.0998 70.3895 82.1998 70.5495C82.3498 70.7995 82.6698 70.8995 82.9598 70.8795C83.2498 70.8695 83.5298 70.7595 83.8098 70.6995C84.3298 70.5795 84.8998 70.5695 85.3598 70.2895C85.8098 69.9995 86.0398 69.2595 85.5998 68.9395C85.1598 68.6195 84.4398 68.9795 84.0698 68.5895C83.8198 68.3295 83.9098 67.9095 83.8598 67.5595C83.7098 66.4895 83.1198 66.6095 82.6698 67.2795C82.1998 67.9795 82.0898 69.1795 82.0898 69.9995Z" fill="#FBB03B"/>
<path d="M98.4896 47.0899C98.4296 47.2699 98.3796 47.4699 98.4296 47.6599C98.4996 47.9799 98.8096 48.1999 99.1296 48.2999C99.5396 48.4299 99.9896 48.4099 100.42 48.3199C100.69 48.2599 100.95 48.1699 101.16 47.9899C101.37 47.8099 101.5 47.5299 101.43 47.2599C101.37 47.0199 101.17 46.8499 101 46.6599C100.75 46.3799 100.57 46.0499 100.3 45.7899C99.3496 44.8799 98.7596 46.2799 98.4996 47.0799L98.4896 47.0899Z" fill="#F15A24"/>
<path d="M76.9496 41.47C76.8396 42.24 77.0496 43.05 77.5196 43.68C77.7196 43.94 78.0296 44.2 78.3496 44.1C78.6196 44.02 78.7596 43.7 78.7796 43.42C78.7996 43.14 78.7496 42.85 78.8096 42.57C78.9596 41.86 79.7596 41.46 80.0196 40.78C80.2196 40.25 80.0196 39.59 79.5596 39.26C78.2196 38.32 77.0996 40.39 76.9496 41.46V41.47Z" fill="#FBB03B"/>
<path d="M99.4702 83.8195C99.2002 84.2095 98.9302 84.6095 98.8502 85.0695C98.7702 85.5295 98.9402 86.0695 99.3702 86.2695C99.8102 86.4695 100.33 86.2495 100.7 85.9495C101.16 85.5695 101.52 85.0395 101.56 84.4495C101.6 83.8595 101.26 83.2295 100.69 83.0395C100.13 82.8595 99.4102 83.2595 99.3802 83.8595L99.4702 83.8295V83.8195Z" fill="#8CC63F"/>
<path d="M118.43 44.6504C118.46 45.3904 118.73 46.1104 119 46.8004C119.19 47.2904 119.42 47.8204 119.9 48.0404C120.36 48.2504 120.91 48.0904 121.31 47.7804C121.7 47.4704 121.97 47.0204 122.22 46.5904C122.7 45.7804 123.19 44.8104 122.82 43.9404C122.57 43.3404 121.95 42.9704 121.31 42.8404C119.76 42.5204 118.35 42.7604 118.42 44.6504H118.43Z" fill="#FBB03B"/>
<path d="M111.27 14.2197C111.3 14.9597 111.57 15.6797 111.84 16.3697C112.03 16.8597 112.26 17.3897 112.74 17.6097C113.2 17.8197 113.75 17.6597 114.15 17.3497C114.54 17.0397 114.81 16.5897 115.06 16.1597C115.54 15.3497 116.03 14.3797 115.66 13.5097C115.41 12.9097 114.79 12.5397 114.15 12.4097C112.6 12.0897 111.19 12.3297 111.26 14.2197H111.27Z" fill="#FBB03B"/>
<path d="M122.19 33.9904C122.44 34.3504 122.89 34.5204 123.32 34.5604C124.05 34.6204 124.81 34.3204 125.3 33.7804C126.24 32.7504 126.12 31.1704 125.95 29.7904C125.88 29.2504 125.74 28.6204 125.24 28.4104C124.78 28.2204 124.23 28.5404 123.99 28.9804C123.75 29.4204 123.75 29.9504 123.76 30.4504C123.76 30.9504 123.78 31.4704 123.57 31.9304C123.22 32.6904 121.36 32.8004 122.19 33.9804V33.9904Z" fill="#F15A24"/>
<path d="M121.43 71.8695C121.45 72.3395 121.6 72.8795 122.03 73.0795C122.36 73.2395 122.77 73.1395 123.07 72.9195C123.37 72.7095 123.58 72.3895 123.79 72.0895C124.41 71.1795 125.25 68.9995 123.43 68.7695C121.9 68.5795 121.39 70.7595 121.44 71.8595L121.43 71.8695Z" fill="#3F396B"/>
<path d="M122.87 98.2304C123.1 98.6804 123.46 99.1104 123.95 99.2404C124.41 99.3604 124.93 99.1604 125.23 98.7904C125.53 98.4204 125.62 97.8904 125.49 97.4304C125.33 96.8504 124.87 96.3804 124.34 96.1104C122.3 95.0804 122.03 96.5904 122.87 98.2304Z" fill="#F15A24"/>
<path d="M85.3001 108.18C84.9801 108.95 85.1501 109.9 85.7101 110.51C86.0101 110.84 86.4501 111.09 86.9001 111.06C87.6801 111.01 88.1701 110.21 88.5301 109.51C88.7501 109.08 88.9701 108.64 89.0501 108.17C89.5201 105.46 85.9501 106.61 85.2901 108.17L85.3001 108.18Z" fill="#FBB03B"/>
<path d="M101.02 113.04C100.51 113.89 100.26 114.89 100.29 115.88C100.29 116.1 100.34 116.35 100.54 116.45C100.77 116.56 101.03 116.36 101.21 116.18C101.68 115.7 102.16 115.23 102.63 114.75C102.9 114.48 103.17 114.2 103.33 113.86C103.49 113.52 103.52 113.09 103.3 112.77C103.06 112.42 102.57 112.31 102.15 112.39C101.73 112.47 101.37 112.71 101.01 112.95V113.04H101.02Z" fill="#F15A24"/>
<path d="M72.7404 62.3701C72.7204 62.9201 72.7904 63.6301 73.3204 63.8001C73.7804 63.9501 74.2204 63.5701 74.5504 63.2201C75.0104 62.7301 75.4804 62.2401 75.7904 61.6401C76.0904 61.0401 76.2104 60.3101 75.9404 59.6901C75.7904 59.3401 75.5204 59.0501 75.2004 58.8301C74.6404 58.4501 73.3204 58.0801 72.8904 58.7301C72.4604 59.3801 72.7704 61.5601 72.7404 62.3601V62.3701Z" fill="#3F396B"/>
<path d="M74.3803 91.6497C74.1203 93.0097 73.8703 94.3697 73.6103 95.7297C73.5303 96.1697 73.4903 96.7297 73.8803 96.9497C74.3703 97.2297 74.9003 96.6797 75.1903 96.1997C75.7003 95.3497 76.2403 94.4397 76.2303 93.4497C76.2303 92.4597 75.4303 91.3997 74.4403 91.4997L74.3903 91.6497H74.3803Z" fill="#F15A24"/>
<path d="M75.8599 132.96C75.6799 133.47 75.5099 134 75.5299 134.54C75.5399 135.08 75.7599 135.64 76.2099 135.95C77.0199 136.5 78.2099 135.93 78.6499 135.05C79.0899 134.18 79.0099 133.14 78.9199 132.16C78.8299 131.25 78.4699 129.43 77.2099 129.94C76.6299 130.17 76.0599 132.42 75.8699 132.96H75.8599Z" fill="#3F396B"/>
<path d="M101.43 86.7702C101.26 86.7702 101.09 86.7502 100.93 86.7202C99.2098 86.3702 98.2598 84.4702 98.2598 81.3702V10.6602H98.8398V81.3702C98.8398 82.9802 99.1298 85.7502 101.05 86.1402C102.12 86.3602 103.11 85.6402 103.64 84.9702C104.29 84.1202 104.6 83.0602 104.9 82.0302L108.68 69.0702L109.25 69.2402L105.47 82.2001C105.17 83.2301 104.83 84.4002 104.11 85.3302C103.41 86.2402 102.4 86.7702 101.44 86.7702H101.43Z" fill="#754C24"/>
<g style="mix-blend-mode:multiply" opacity="0.6">
<path d="M86.8503 48.4004V60.3604L87.8003 62.6604L94.8303 66.7704L97.9403 73.1604L84.8203 81.6904L89.2403 92.0504L92.2203 95.2104L94.2003 93.9004L90.3103 85.5304L89.7103 83.2404L95.3703 81.9904H102.02L108.29 92.4004L111.82 94.3304L110.77 84.6604L109.45 74.4904L110.94 63.1504L111.82 56.3304L114.67 43.4904L114.26 32.4404L113.34 33.5904L108.77 46.6504L106.04 58.3604C106.04 58.3604 102.97 53.6704 100.87 54.0804C99.9503 54.2604 96.6003 55.8304 97.9303 61.9104L90.9203 60.3404L89.0703 47.7004L86.8303 48.3804L86.8503 48.4004Z" fill="#B3B396"/>
</g>
<path d="M113.83 60.8804L114.27 58.7704C114.27 58.7704 114.06 55.7503 113.83 54.9403C113.83 54.9403 115.52 47.8004 115.49 45.7504C115.46 43.7004 116.17 37.6603 115.72 34.4203L114.85 33.6104L113.83 34.3204C113.83 34.3204 112.3 40.0003 112.56 43.1903C112.56 43.1903 110.61 46.2104 109.44 52.7404C108.27 59.2704 109 58.1104 109 58.1104L113.82 60.8904L113.83 60.8804Z" fill="#FFB08D"/>
<path d="M113.53 71.0397C113.58 72.0397 112.15 80.2397 101.46 74.4997C101.32 74.4297 101.4 74.0797 101.54 73.6797C101.79 72.9797 102.27 72.0897 102.27 72.0897C102.27 72.0897 100.63 67.0597 100.13 65.0097C100.04 64.6297 100 64.2197 100.01 63.8097C100.03 62.3397 100.61 60.8197 101.3 60.5897C102.19 60.2997 104.34 59.8097 104.34 59.8097C104.34 59.8097 108.48 58.9797 109.02 58.1097C109.56 57.2297 109.02 56.0597 109.02 56.0597C109.02 56.0597 113.5 56.0097 114.09 57.9597C114.67 59.9097 113.78 65.4097 113.54 67.0697C113.31 68.7297 113.54 71.0497 113.54 71.0497L113.53 71.0397Z" fill="#F15A24"/>
<g style="mix-blend-mode:multiply" opacity="0.5">
<path d="M104.06 73.6805C103.81 73.5405 102.63 73.5905 101.54 73.6805C101.79 72.9805 102.27 72.0905 102.27 72.0905C102.27 72.0905 100.63 67.0605 100.13 65.0105C100.04 64.6305 100 64.2205 100.01 63.8105L104.07 64.7605C104.07 64.7605 102.93 69.4805 104.07 73.6905L104.06 73.6805Z" fill="#C2481D"/>
</g>
<path d="M111.23 92.8505C111.23 92.8505 109.88 92.0105 109.04 92.1605C108.2 92.3105 107.72 92.7405 107.97 93.4105C108.21 94.0805 108.32 95.0205 108.74 95.3305C109.15 95.6505 110.08 95.9605 110.3 96.4705C110.52 96.9805 111.08 98.9805 111.72 99.3205C112.37 99.6605 113.351 100.001 113.74 98.6705C114.13 97.3405 113.52 94.8605 113.52 94.8205C113.52 94.7805 111.23 92.8405 111.23 92.8405V92.8505Z" fill="#3F396B"/>
<path d="M95.3905 93.2298C94.9005 93.8098 94.0505 94.0598 93.2805 93.8098C92.6805 93.5098 92.0405 93.9698 91.6705 93.4898C91.7905 93.5298 92.0105 92.7998 92.0105 92.7998C92.0105 92.7998 89.1405 88.9498 86.9705 85.5398C86.0305 84.0598 85.2205 82.6698 84.8305 81.6998C83.5305 78.4898 85.8405 76.7998 85.8405 76.7998C87.2105 75.8598 88.7305 75.1098 90.2805 74.5098C90.2805 74.9598 90.2805 75.4198 90.3205 75.8798C90.4705 77.6098 90.9905 79.3398 92.0305 80.6898C90.8005 80.7798 89.9705 80.8298 89.9705 80.8298C91.2705 81.5798 92.9305 87.4198 93.0905 87.8798C93.2505 88.3298 95.3605 93.2098 95.3605 93.2098C95.3605 93.2098 95.3605 93.2298 95.3905 93.2498V93.2298Z" fill="#FFB08D"/>
<g style="mix-blend-mode:multiply" opacity="0.5">
<path d="M86.9705 85.5398C86.0305 84.0598 85.2205 82.6698 84.8305 81.6998C83.5305 78.4898 85.8405 76.7998 85.8405 76.7998C87.2105 75.8598 88.7305 75.1098 90.2805 74.5098C90.2805 74.9598 90.2805 75.4198 90.3205 75.8798C86.2605 77.7098 85.5005 78.2398 85.1605 79.6598C84.7405 81.3698 86.9105 85.4298 86.9805 85.5498L86.9705 85.5398Z" fill="#FFB08D"/>
</g>
<path d="M113.51 95.0099C113.48 95.8899 113.12 96.3399 112.57 96.3399C112.02 96.3399 110.85 95.6599 110.88 94.6199C110.89 94.2099 110.52 93.1699 110.05 91.9799C109.32 90.1299 108.35 87.9499 108.25 87.3799C108.09 86.4399 107.63 84.2299 107.11 83.4199C106.87 83.0399 106.69 82.3099 106.56 81.6399C107.01 81.8299 107.47 81.9499 107.93 81.9999C109.1 82.1599 110.26 81.9199 111.32 81.4199C111.34 81.8299 111.46 82.1499 111.46 82.1499C113.44 84.4599 113.6 88.3899 113.51 89.5899C113.41 90.7899 113.54 94.1399 113.51 95.0099Z" fill="#FFB08D"/>
<g style="mix-blend-mode:multiply" opacity="0.5">
<path d="M110.05 91.9797C109.32 90.1297 108.35 87.9496 108.25 87.3796C108.09 86.4396 107.63 84.2296 107.11 83.4196C106.87 83.0396 106.69 82.3096 106.56 81.6396C107.01 81.8296 107.47 81.9496 107.93 81.9996C107.93 81.9996 108.6 84.1297 108.92 85.7896C109.24 87.4197 110.02 91.8697 110.04 91.9797H110.05Z" fill="#FFB08D"/>
</g>
<path d="M111.46 80.56C111.33 80.84 111.31 81.15 111.32 81.42C110.26 81.92 109.1 82.16 107.93 82C107.47 81.94 107.01 81.82 106.56 81.64C106.42 80.88 106.36 80.2 106.36 80.2C104.44 80.95 101.33 79.84 101.33 79.84C100.07 80.09 94.95 80.47 92.03 80.68C90.99 79.33 90.47 77.6 90.32 75.87C90.28 75.41 90.27 74.95 90.28 74.5C96.08 72.24 102.27 72.08 102.27 72.08C102.59 72.75 103.24 73.28 104.06 73.68C107.29 75.23 113.3 74.61 113.53 71.04C113.53 74.9 113.42 76.24 111.46 80.55V80.56Z" fill="#3F396B"/>
<g style="mix-blend-mode:multiply" opacity="0.5">
<path d="M108.41 79.0996L107.93 81.9996C107.47 81.9396 107.01 81.8196 106.56 81.6396C106.42 80.8796 106.36 80.1996 106.36 80.1996C106.36 80.1996 107.85 79.5196 108.41 79.0996Z" fill="#3F396B"/>
</g>
<g style="mix-blend-mode:multiply" opacity="0.5">
<path d="M104.06 73.6801C104.06 73.6801 94.38 74.0401 90.32 75.8701C90.28 75.4101 90.27 74.9501 90.28 74.5001C96.08 72.2401 102.27 72.0801 102.27 72.0801C102.59 72.7501 103.24 73.2801 104.06 73.6801Z" fill="#3F396B"/>
</g>
<path d="M93.2797 93.8103C92.6797 93.5103 92.3797 93.2803 92.0097 92.8003C91.5097 92.6103 89.9597 92.0303 89.2497 92.0503C87.5197 92.1103 86.1197 93.0203 87.2697 94.3903C87.7897 95.0103 88.4097 95.6903 89.1897 95.8503C89.9697 96.0103 92.3397 96.2103 92.7597 96.3703C93.1797 96.5303 95.9397 97.6003 96.3997 96.3703C96.8197 95.2403 95.5997 93.5103 95.3897 93.2303C94.8997 93.8103 94.0497 94.0603 93.2797 93.8103Z" fill="#3F396B"/>
<path d="M104.32 64.1304C104.32 64.1304 104.26 64.4004 104.06 64.7604C103.61 65.5704 102.42 66.7904 99.5103 65.8604C95.3503 64.5304 89.9603 62.7104 88.9503 61.4804C88.2203 60.5904 87.8303 56.9004 87.8003 53.4104C87.7903 52.0904 87.8303 50.8004 87.9103 49.6904H89.5703C89.5703 49.6904 90.1203 52.9104 90.3503 53.9104C90.5803 54.9204 91.8103 57.9004 91.7103 58.8804C91.7103 58.8804 96.0603 58.6504 98.2703 60.4704C98.2703 60.4704 101.48 59.5804 102.98 60.5904C104.48 61.6004 104.31 64.1404 104.31 64.1404L104.32 64.1304Z" fill="#FFB08D"/>
<path d="M111.45 54.84C111.01 56.98 109.25 57.3 109.25 57.3C109.25 57.3 109.53 58.32 108.48 59.07C107.2 59.99 105.35 59.91 104.64 59.84C104.45 59.82 104.34 59.8 104.34 59.8L104.17 56.95C104.17 56.95 102.29 55.73 102.61 54.34C102.93 52.95 103.88 51.49 105.02 50.86C106.16 50.23 107.8 50.11 108.48 50.5C109.16 50.89 112.04 51.94 111.45 54.84Z" fill="#FFB08D"/>
<g style="mix-blend-mode:multiply" opacity="0.5">
<path d="M105.09 57.93L104.64 59.85C104.45 59.83 104.34 59.81 104.34 59.81L104.17 56.96L105.09 57.93Z" fill="#FFB08D"/>
</g>
<path d="M104.12 53.0104C104.25 53.8104 105.58 55.2004 105.53 55.5704C105.48 55.9404 105.53 56.4504 105.53 56.4504L105.44 57.6804C105.44 57.6804 105.67 58.5604 107.66 58.3704C108.43 58.3004 110.28 57.9104 111.19 56.2504C112.1 54.5904 111.62 52.2004 109.8 50.9704C106.13 48.4904 103.67 50.3404 104.12 53.0104Z" fill="#1A1A1A"/>
<path d="M105.51 56.2301C105.64 56.1601 105.76 56.0901 105.9 56.0601C106.04 56.0301 106.2 56.0501 106.31 56.1301C106.42 56.2101 106.48 56.3401 106.49 56.4801C106.5 56.6101 106.47 56.7501 106.43 56.8801C106.29 57.2801 105.96 57.6401 105.54 57.6801C105.42 57.6901 105.29 57.6801 105.2 57.5901C105.1 57.5001 105.07 57.3601 105.09 57.2301C105.1 57.1001 105.15 56.9701 105.2 56.8501C105.28 56.5901 105.27 56.3801 105.52 56.2401L105.51 56.2301Z" fill="#FFB08D"/>
<path d="M88.3597 51.1402C88.3397 51.0702 87.9197 49.6802 87.9197 49.6802C87.9197 49.6802 87.3597 49.1402 87.9197 48.1202V47.5602L87.0397 46.7002C86.7797 46.4602 87.1597 46.2302 87.4597 46.3702C87.5097 46.1102 87.8497 46.1202 88.2597 46.1802C88.0397 45.8802 88.5797 45.6502 89.0497 45.6002C88.8997 45.3302 89.3997 45.1602 89.8297 45.1502C89.8297 45.1502 90.4097 45.1102 90.5397 45.2202C90.6697 45.3302 90.8197 45.8102 90.8197 45.8102L91.0597 45.3202C91.3397 44.8602 91.6397 45.0202 91.5797 45.5502L91.4797 46.6102C91.4797 46.6102 91.1497 47.6802 90.7997 47.9502C90.4597 48.2302 89.5797 49.6902 89.5797 49.6902L89.4797 51.1502H88.3597V51.1402Z" fill="#FFB08D"/>
<path d="M114.09 35.8498L113.83 34.3098C113.83 34.3098 113.34 33.2998 113.43 32.8598C113.52 32.4198 113.62 32.2498 114 31.8598C114.38 31.4698 114.44 31.1898 114.44 31.1898L113.77 30.9298C113.48 30.6898 113.47 30.5098 113.78 30.4098L114.44 30.2998L114.72 30.1698H115.32C115.38 29.8698 115.92 29.8098 116.08 29.9398C116.3 29.8798 116.53 29.9198 116.71 30.0498C117 30.2498 117.4 30.5398 117.41 30.5598C117.42 30.5998 117.67 31.8798 117.67 31.8798C117.67 31.8798 117.04 32.9798 116.79 33.2798C116.55 33.5798 115.73 34.4098 115.73 34.4098L115.33 35.8498H114.1H114.09Z" fill="#FFB08D"/>
<g style="mix-blend-mode:multiply" opacity="0.5">
<path d="M104.06 64.7504C103.61 65.5604 102.42 66.7804 99.5098 65.8504C95.3498 64.5204 89.9598 62.7004 88.9498 61.4704C88.2198 60.5804 87.8298 56.8904 87.7998 53.4004C87.8498 53.7404 88.6198 59.2704 89.2598 60.4904C89.5898 61.1204 98.3398 65.6004 104.06 64.7504Z" fill="#FFB08D"/>
</g>
<path d="M106.37 80.2001C106.37 80.2001 110.14 81.0501 112.2 78.8701L112.59 77.8701C111.45 79.0901 109.58 79.4801 108.42 79.0901L106.37 80.1901V80.2001Z" fill="#999999"/>
<path d="M97.1704 72.6504C97.1704 72.6504 95.6804 77.0804 98.3904 80.1904L100 80.0304C100 80.0304 97.4804 75.8304 98.8204 72.4004L97.1704 72.6504Z" fill="#999999"/>
<path d="M102.27 72.08L102.03 71.34C106.19 74.68 112.25 72.98 113.49 70.54L113.53 72.02C112.72 75.69 103.19 76.52 102.27 72.08Z" fill="#999999"/>
<path d="M97.9902 77.2503L97.9502 76.6603C100.39 76.4903 102.78 75.5603 104.68 74.0303L105.05 74.4903C103.05 76.1003 100.55 77.0803 97.9902 77.2503Z" fill="#999999"/>
<path d="M110.96 79.5L110.45 79.2C111.47 77.5 111.95 75.47 111.81 73.5L112.4 73.46C112.55 75.56 112.04 77.71 110.96 79.51V79.5Z" fill="#999999"/>
</svg>
