<svg width="200" height="150" fill="none" xmlns="http://www.w3.org/2000/svg"><path d="m15.38 72.974-1.45-.97c-.28-.19-.45-.56-.46-1.08l-.09-35.92c0-1.05.7-2.3 1.55-2.78l50.58-28.45c.43-.24.82-.25 1.11-.06l1.45.97c-.28-.19-.68-.19-1.11.06l-50.57 28.45c-.86.48-1.56 1.73-1.55 2.78l.09 35.92c0 .52.18.9.46 1.08h-.01Z" fill="#B4B4B5"/><path d="M16.49 72.915c-.86.48-1.56.02-1.56-1.03l-.09-35.92c0-1.05.7-2.3 1.55-2.78l50.58-28.44c.86-.48 1.56-.02 1.56 1.03l.09 35.92c0 1.05-.7 2.3-1.55 2.78l-50.58 28.44Z" fill="#DBDCDC"/><path d="m17.39 35.864 49.24-27.69.09 34.03-49.25 27.7-.08-34.04Z" fill="#E4C37B"/><path d="m16.81 71.084 50.58-28.44-.09-35.66-50.58 28.44.09 35.66Zm.58-35.22 49.24-27.69.09 34.03-49.24 27.69-.09-34.03Z" fill="#AD7F46"/><path d="m20.6 44.244 22.42-12.34v16.5L20.6 60.744v-16.5Z" fill="#FBD6A0"/><path d="m20.6 41.824 22.42-12.33v2.41L20.6 44.244v-2.42Z" fill="#EE835C"/><path d="m20.77 44.324 22.42-12.33v16.5l-22.42 12.34v-16.51Z" fill="#A586BC"/><path d="m20.77 41.914 22.42-12.34v2.42l-22.42 12.33v-2.41Z" fill="#664497"/><path d="m20.94 44.464 22.41-12.33v16.5l-22.41 12.33v-16.5Z" fill="#87C796"/><path d="m20.94 42.054 22.41-12.34v2.42l-22.41 12.33v-2.41Z" fill="#00A971"/><path d="m21.12 44.584 22.41-12.34v16.5l-22.41 12.34v-16.5Z" fill="#F09CB4"/><path d="m21.12 42.164 22.41-12.34v2.42l-22.41 12.34v-2.42Z" fill="#E7373C"/><path d="m21.32 44.714 22.41-12.33v16.5l-22.41 12.33v-16.5Z" fill="#85B1DF"/><path d="m21.32 42.294 22.41-12.33v2.42l-22.41 12.33v-2.42Z" fill="#4593D0"/><path d="m21.48 44.864 22.41-12.33v16.5l-22.41 12.34v-16.51Z" fill="#F2984F"/><path d="M42.22 35.313v2.72l-2.73 1.5v-2.72l2.73-1.5Z" fill="#fff"/><path d="M39.45 36.784v2.82l2.82-1.55v-2.82l-2.82 1.55Zm.09.05 2.63-1.45v2.63l-2.63 1.45v-2.63Z" fill="#7F1083"/><path d="M39.49 36.813v2.72l-2.72 1.5v-2.73l2.72-1.49Z" fill="#fff"/><path d="M36.72 38.284v2.82l2.82-1.55v-2.82l-2.82 1.55Zm.1.05 2.63-1.45v2.63l-2.63 1.45v-2.63Z" fill="#7F1083"/><path d="m34.05 39.804 2.72-1.5v2.73l-2.72 1.5v-2.73Z" fill="#fff"/><path d="m34 42.604 2.82-1.55v-2.82L34 39.784v2.82Zm.1-2.78 2.63-1.45v2.63l-2.63 1.45v-2.63Z" fill="#7F1083"/><path d="M34.05 39.804v2.73l-2.72 1.49v-2.72l2.72-1.5Z" fill="#fff"/><path d="M31.28 41.284v2.82l2.82-1.55v-2.82l-2.82 1.55Zm.09.04 2.63-1.45v2.63l-2.63 1.45v-2.63Z" fill="#7F1083"/><path d="M31.33 41.304v2.72l-2.73 1.5v-2.72l2.73-1.5Z" fill="#fff"/><path d="M28.56 42.784v2.82l2.82-1.55v-2.82l-2.82 1.55Zm.09.04 2.63-1.45v2.63l-2.63 1.45v-2.63Z" fill="#7F1083"/><path d="M28.6 42.804v2.72l-2.72 1.5v-2.72l2.72-1.5Z" fill="#fff"/><path d="M25.83 44.284v2.82l2.82-1.55v-2.82l-2.82 1.55Zm.1.04 2.63-1.45v2.63l-2.63 1.45v-2.63Z" fill="#7F1083"/><path d="M25.88 44.304v2.72l-2.72 1.5v-2.72l2.72-1.5Z" fill="#fff"/><path d="M23.11 45.784v2.82l2.82-1.55v-2.82l-2.82 1.55Zm.1.04 2.63-1.45v2.63l-2.63 1.45v-2.63Z" fill="#7F1083"/><path d="M42.22 38.034v2.72l-2.73 1.5v-2.72l2.73-1.5Z" fill="#fff"/><path d="M39.45 39.514v2.82l2.82-1.55v-2.82l-2.82 1.55Zm.09.04 2.63-1.45v2.63l-2.63 1.45v-2.63Z" fill="#7F1083"/><path d="M39.49 39.534v2.72l-2.72 1.5v-2.72l2.72-1.5Z" fill="#fff"/><path d="M36.72 41.014v2.82l2.82-1.55v-2.82l-2.82 1.55Zm.1.04 2.63-1.45v2.63l-2.63 1.45v-2.63Z" fill="#7F1083"/><path d="m34.05 42.534 2.72-1.5v2.72l-2.72 1.5v-2.72Z" fill="#fff"/><path d="m34 45.324 2.82-1.55v-2.82L34 42.504v2.82Zm.1-2.77 2.63-1.45v2.63l-2.63 1.45v-2.63Z" fill="#7F1083"/><path d="M34.05 42.534v2.72l-2.72 1.5v-2.73l2.72-1.49Z" fill="#fff"/><path d="M31.28 44.004v2.82l2.82-1.55v-2.82l-2.82 1.55Zm.09.05 2.63-1.45v2.63l-2.63 1.45v-2.63Z" fill="#7F1083"/><path d="M31.33 44.023v2.73l-2.73 1.5v-2.73l2.73-1.5Z" fill="#fff"/><path d="M28.56 45.504v2.82l2.82-1.55v-2.82l-2.82 1.55Zm.09.04 2.63-1.45v2.63l-2.63 1.45v-2.63Z" fill="#7F1083"/><path d="M28.6 45.523v2.73l-2.72 1.49v-2.72l2.72-1.5Z" fill="#fff"/><path d="M25.83 47.004v2.82l2.82-1.55v-2.82l-2.82 1.55Zm.1.04 2.63-1.45v2.63l-2.63 1.45v-2.63Z" fill="#7F1083"/><path d="M25.88 47.023v2.72l-2.72 1.5v-2.72l2.72-1.5Z" fill="#fff"/><path d="M23.11 48.504v2.82l2.82-1.55v-2.82l-2.82 1.55Zm.1.04 2.63-1.45v2.63l-2.63 1.45v-2.63Z" fill="#7F1083"/><path d="M42.22 40.754v2.73l-2.73 1.49v-2.72l2.73-1.5Z" fill="#fff"/><path d="M39.45 42.234v2.82l2.82-1.55v-2.82l-2.82 1.55Zm.09.04 2.63-1.45v2.63l-2.63 1.45v-2.63Z" fill="#7F1083"/><path d="M39.49 42.254v2.72l-2.72 1.5v-2.72l2.72-1.5Z" fill="#fff"/><path d="M36.72 43.734v2.82l2.82-1.55v-2.82l-2.82 1.55Zm.1.04 2.63-1.45v2.63l-2.63 1.45v-2.63Z" fill="#7F1083"/><path d="m34.05 45.254 2.72-1.5v2.72l-2.72 1.5v-2.72Z" fill="#fff"/><path d="m34 48.054 2.82-1.55v-2.82L34 45.234v2.82Zm.1-2.78 2.63-1.45v2.63l-2.63 1.45v-2.63Z" fill="#7F1083"/><path d="M34.05 45.254v2.72l-2.72 1.5v-2.72l2.72-1.5Z" fill="#fff"/><path d="M31.28 46.734v2.82l2.82-1.55v-2.82l-2.82 1.55Zm.09.04 2.63-1.45v2.63l-2.63 1.45v-2.63Z" fill="#7F1083"/><path d="M31.33 46.754v2.72l-2.73 1.5v-2.72l2.73-1.5Z" fill="#fff"/><path d="M28.56 48.224v2.82l2.82-1.55v-2.82l-2.82 1.55Zm.09.05 2.63-1.45v2.63l-2.63 1.45v-2.63Z" fill="#7F1083"/><path d="M28.6 48.254v2.72l-2.72 1.5v-2.73l2.72-1.49Z" fill="#fff"/><path d="M25.83 49.724v2.82l2.82-1.55v-2.82l-2.82 1.55Zm.1.05 2.63-1.45v2.63l-2.63 1.45v-2.63Z" fill="#7F1083"/><path d="M25.88 49.744v2.73l-2.72 1.49v-2.72l2.72-1.5Z" fill="#fff"/><path d="M23.11 51.224v2.82l2.82-1.55v-2.82l-2.82 1.55Zm.1.04 2.63-1.45v2.63l-2.63 1.45v-2.63Z" fill="#7F1083"/><path d="M42.22 43.484v2.72l-2.73 1.5v-2.73l2.73-1.49Z" fill="#fff"/><path d="M39.45 44.954v2.82l2.82-1.55v-2.82l-2.82 1.55Zm.09.05 2.63-1.45v2.63l-2.63 1.45v-2.63Z" fill="#7F1083"/><path d="M39.49 44.974v2.73l-2.72 1.5v-2.73l2.72-1.5Z" fill="#fff"/><path d="M36.72 46.454v2.82l2.82-1.55v-2.82l-2.82 1.55Zm.1.04 2.63-1.45v2.63l-2.63 1.45v-2.63Z" fill="#7F1083"/><path d="m34.05 47.974 2.72-1.5v2.73l-2.72 1.49v-2.72Z" fill="#fff"/><path d="m34 50.774 2.82-1.55v-2.82L34 47.954v2.82Zm.1-2.78 2.63-1.45v2.63l-2.63 1.45v-2.63Z" fill="#7F1083"/><path d="M34.05 47.974v2.72l-2.72 1.5v-2.72l2.72-1.5Z" fill="#fff"/><path d="M31.28 49.454v2.82l2.82-1.55v-2.82l-2.82 1.55Zm.09.04 2.63-1.45v2.63l-2.63 1.45v-2.63Z" fill="#7F1083"/><path d="M31.33 49.474v2.72l-2.73 1.5v-2.72l2.73-1.5Z" fill="#fff"/><path d="M28.56 50.954v2.82l2.82-1.55v-2.82l-2.82 1.55Zm.09.04 2.63-1.45v2.63l-2.63 1.45v-2.63Z" fill="#7F1083"/><path d="M28.6 50.974v2.72l-2.72 1.5v-2.72l2.72-1.5Z" fill="#fff"/><path d="M25.83 52.444v2.82l2.82-1.55v-2.82l-2.82 1.55Zm.1.05 2.63-1.45v2.63l-2.63 1.45v-2.63Z" fill="#7F1083"/><path d="M25.88 52.474v2.72l-2.72 1.5v-2.73l2.72-1.49Z" fill="#fff"/><path d="M23.11 53.944v2.82l2.82-1.55v-2.82l-2.82 1.55Zm.1.05 2.63-1.45v2.63l-2.63 1.45v-2.63Z" fill="#7F1083"/><path d="M42.22 46.204v2.72l-2.73 1.5v-2.72l2.73-1.5Z" fill="#fff"/><path d="M39.45 47.684v2.82l2.82-1.55v-2.82l-2.82 1.55Zm.09.04 2.63-1.45v2.63l-2.63 1.45v-2.63Z" fill="#7F1083"/><path d="M39.49 47.704v2.72l-2.72 1.5v-2.72l2.72-1.5Z" fill="#fff"/><path d="M36.72 49.174v2.82l2.82-1.55v-2.82l-2.82 1.55Zm.1.05 2.63-1.45v2.63l-2.63 1.45v-2.63Z" fill="#7F1083"/><path d="m34.05 50.694 2.72-1.49v2.72l-2.72 1.5v-2.73Z" fill="#fff"/><path d="m34 53.494 2.82-1.55v-2.82L34 50.674v2.82Zm.1-2.77 2.63-1.45v2.63l-2.63 1.45v-2.63Z" fill="#7F1083"/><path d="M34.05 50.694v2.73l-2.72 1.49v-2.72l2.72-1.5Z" fill="#fff"/><path d="M31.28 52.174v2.82l2.82-1.55v-2.82l-2.82 1.55Zm.09.04 2.63-1.45v2.63l-2.63 1.45v-2.63Z" fill="#7F1083"/><path d="M31.33 52.194v2.72l-2.73 1.5v-2.72l2.73-1.5Z" fill="#fff"/><path d="M28.56 53.674v2.82l2.82-1.55v-2.82l-2.82 1.55Zm.09.04 2.63-1.45v2.63l-2.63 1.45v-2.63Z" fill="#7F1083"/><path d="M28.6 53.694v2.72l-2.72 1.5v-2.72l2.72-1.5Z" fill="#fff"/><path d="M25.83 55.174v2.82l2.82-1.55v-2.82l-2.82 1.55Zm.1.04 2.63-1.45v2.63l-2.63 1.45v-2.63Z" fill="#7F1083"/><path d="M25.88 55.194v2.72l-2.72 1.5v-2.72l2.72-1.5Z" fill="#fff"/><path d="M23.11 56.674v2.82l2.82-1.55v-2.82l-2.82 1.55Zm.1.04 2.63-1.45v2.63l-2.63 1.45v-2.63Z" fill="#7F1083"/><path d="m21.48 42.454 22.41-12.34v2.42l-22.41 12.33v-2.41Z" fill="#EC6C1F"/><path d="M41.84 32.584c0-.21.17-.47.38-.59s.38-.04.38.17c0 .21-.17.47-.38.59s-.38.04-.38-.17Z" fill="#3E3A39"/><path d="M41.01 29.854c-.99-.09-1.23 1.42-1.23 1.42l-.3.16s.3-1.97 1.55-1.86c1.4.12 1.33 2.7 1.33 2.81 0 .08-.06.13-.14.13-.08 0-.14-.07-.13-.14 0-.02.07-2.42-1.07-2.52h-.01Z" fill="#F4AE7D"/><path d="M39.76 33.724c0-.21.17-.47.38-.59s.38-.04.38.17c0 .21-.17.47-.38.59s-.38.04-.38-.17Z" fill="#3E3A39"/><path d="M38.93 30.984c-.99-.09-1.22 1.42-1.22 1.42l-.3.17s.3-1.98 1.55-1.87c1.4.12 1.33 2.7 1.33 2.81 0 .08-.06.13-.14.13-.08 0-.14-.07-.13-.14 0-.02.07-2.42-1.07-2.52h-.02Z" fill="#F4AE7D"/><path d="M37.68 34.854c0-.21.17-.47.38-.59s.38-.04.38.17c0 .21-.17.47-.38.59s-.38.04-.38-.17Z" fill="#3E3A39"/><path d="M36.85 32.114c-.99-.09-1.22 1.43-1.22 1.43l-.3.18s.3-2 1.55-1.89c1.4.12 1.33 2.7 1.33 2.81 0 .08-.06.13-.14.13-.08 0-.14-.07-.13-.14 0-.02.07-2.42-1.07-2.52h-.02Z" fill="#F4AE7D"/><path d="M35.61 35.984c0-.21.17-.47.38-.59s.38-.04.38.17c0 .21-.17.47-.38.59s-.38.04-.38-.17Z" fill="#3E3A39"/><path d="M34.78 33.244c-.99-.09-1.22 1.44-1.22 1.44l-.31.18s.3-2.01 1.55-1.9c1.4.12 1.33 2.7 1.33 2.81 0 .08-.06.13-.14.13-.08 0-.14-.07-.13-.14 0-.02.07-2.42-1.07-2.52h-.01Z" fill="#F4AE7D"/><path d="M33.53 37.114c0-.21.17-.47.38-.59s.38-.04.38.17c0 .21-.17.47-.38.59s-.38.04-.38-.17Z" fill="#3E3A39"/><path d="M32.7 34.374c-.99-.09-1.23 1.46-1.23 1.46l-.3.17s.3-2.02 1.55-1.91c1.4.12 1.33 2.7 1.33 2.81 0 .08-.06.13-.14.13-.08 0-.14-.07-.13-.14 0-.02.07-2.42-1.07-2.52h-.01Z" fill="#F4AE7D"/><path d="M31.45 38.244c0-.21.17-.47.38-.59s.38-.04.38.17c0 .21-.17.47-.38.59s-.38.04-.38-.17Z" fill="#3E3A39"/><path d="M30.62 35.504c-.99-.09-1.23 1.49-1.23 1.49l-.29.16s.3-2.03 1.55-1.92c1.4.12 1.33 2.7 1.33 2.81 0 .08-.06.13-.14.13-.08 0-.14-.07-.13-.14 0-.02.07-2.42-1.07-2.52l-.02-.01Z" fill="#F4AE7D"/><path d="M29.37 39.374c0-.21.17-.47.38-.59s.38-.04.38.17c0 .21-.17.47-.38.59s-.38.04-.38-.17Z" fill="#3E3A39"/><path d="M28.54 36.634c-.99-.09-1.24 1.5-1.24 1.5l-.28.16s.3-2.05 1.55-1.94c1.4.12 1.33 2.7 1.33 2.81 0 .08-.06.13-.14.13-.08 0-.14-.07-.13-.14 0-.02.07-2.42-1.07-2.52h-.02Z" fill="#F4AE7D"/><path d="M27.3 40.504c0-.21.17-.47.38-.59s.38-.04.38.17c0 .21-.17.47-.38.59s-.38.04-.38-.17Z" fill="#3E3A39"/><path d="M26.47 37.764c-.99-.09-1.23 1.51-1.23 1.51l-.31.17s.32-2.07 1.57-1.96c1.4.12 1.33 2.7 1.33 2.81 0 .08-.06.13-.14.13-.08 0-.14-.07-.13-.14 0-.02.07-2.42-1.07-2.52h-.02Z" fill="#F4AE7D"/><path d="M25.22 41.634c0-.21.17-.47.38-.59s.38-.04.38.17c0 .21-.17.47-.38.59s-.38.04-.38-.17Z" fill="#3E3A39"/><path d="M24.39 38.894c-.99-.09-1.23 1.51-1.23 1.51l-.31.18s.32-2.08 1.57-1.97c1.4.12 1.33 2.7 1.33 2.81 0 .08-.06.13-.14.13-.08 0-.14-.07-.13-.14 0-.02.07-2.42-1.07-2.52h-.02Z" fill="#F4AE7D"/><path d="M23.14 42.764c0-.21.17-.47.38-.59s.38-.04.38.17c0 .21-.17.47-.38.59s-.38.04-.38-.17Z" fill="#3E3A39"/><path d="M22.31 40.024c-.99-.09-1.15 1.49-1.15 1.49l-.3.17s.23-2.04 1.47-1.93c1.4.12 1.33 2.7 1.33 2.81 0 .08-.06.13-.14.13-.08 0-.14-.07-.13-.14 0-.02.07-2.42-1.07-2.52l-.01-.01Z" fill="#F4AE7D"/><path d="M22.61 50.184v1.41l-3.67 2.01v-1.4l3.67-2.02Z" fill="#EF834A"/><path d="M22.61 52.214v1.4l-3.67 2.02v-1.4l3.67-2.02Z" fill="#EC6D34"/><path d="M22.61 55.714v1.4l-3.67 2.02v-1.4l3.67-2.02Z" fill="#E95520"/><path d="M24.03 45.984v1.4l-3.67 2.02v-1.4l3.67-2.02Z" fill="#FFE57A"/><path d="M29.49 46.974c.19.08.4.13.63.15 0 0 .04.04.02.08s-.06.07-.09.07c-.23-.02-.45-.06-.66-.14-.2-.08-.39-.18-.52-.36a.65.65 0 0 1-.11-.37c0-.15.05-.34.14-.51.04-.09.09-.17.15-.25.06-.08.13-.17.2-.23a1.66 1.66 0 0 1 1.23-.41c.12.01.23.04.34.08.1.05.2.11.26.21.07.1.1.25.05.44-.04.19-.16.38-.28.54-.12.16-.26.29-.39.42-.14.12-.27.23-.42.33-.07.05-.13.04-.14-.03 0-.06.04-.16.11-.2.24-.17.51-.39.7-.63.1-.12.17-.25.2-.36a.43.43 0 0 0-.03-.3c-.1-.16-.3-.24-.51-.26-.21-.02-.46 0-.71.1-.12.05-.25.12-.36.22-.05.05-.1.1-.14.16-.05.07-.09.13-.13.2-.07.14-.11.27-.12.39 0 .12.03.22.09.31.11.17.29.27.48.35h.01Z" fill="#E73820"/><path d="M32.69 39.574s-.02-.03-.02-.05c0-.05.04-.11.08-.13.02-.01.04-.01.05 0l.38.22h-.05c-.04.02-.08.08-.08.13 0 .03 0 .04.02.05l-.38-.22Z" fill="#EEEEEF"/><path d="M33.41 40.544c.32-.18.59-.63.59-1s-.25-.53-.57-.35c-.32.18-.59.63-.59 1s.25.53.57.35Zm0-.16c-.24.14-.44.02-.43-.27 0-.28.2-.62.45-.76.24-.14.44-.02.43.27 0 .28-.2.62-.45.76Z" fill="#E7380D"/><path d="m33.01 40.584-.12-.07c-.11-.06-.17-.2-.17-.39 0-.37.27-.82.59-1 .16-.09.3-.1.4-.03l.12.07c-.1-.06-.25-.05-.4.03-.32.18-.59.63-.59 1 0 .19.06.32.17.39Z" fill="#D70C18"/><path d="m33.96 40.904-.86-.5c-.08-.05-.13-.15-.13-.29 0-.28.2-.62.45-.76.12-.07.23-.07.31-.03l.86.5c-.08-.05-.19-.04-.31.03a1 1 0 0 0-.45.76c0 .14.05.24.13.29Z" fill="#E95504"/><path d="m34.07 41.194-.12-.07c-.11-.06-.17-.2-.17-.39 0-.37.27-.82.59-1 .16-.09.3-.1.4-.03l.12.07c-.1-.06-.25-.05-.4.03-.32.18-.59.63-.59 1 0 .19.06.32.17.39Z" fill="#D70C18"/><path d="M33.9 40.814c0-.37.27-.82.59-1 .32-.18.58-.02.57.35 0 .37-.27.82-.59 1-.32.18-.58.02-.57-.35Z" fill="#E7380D"/><path d="m54.1 20.404.04 13.78-8.51 4.91-.04-13.78 8.51-4.91Z" fill="#fff"/><path d="m52.72 22.944.01 3.72-2.34 1.35-.01-3.72 2.34-1.35Z" fill="#9ED8F5"/><path d="M52.74 28.994v.12l-5.75 3.32v-.12l5.75-3.32ZM52.74 29.924v.12l-5.75 3.32v-.12l5.75-3.32ZM52.75 32.714v.13l-3.72 2.14v-.12l3.72-2.15ZM52.74 31.783v.12L47 35.223l-.01-.12 5.75-3.32ZM52.74 30.854v.12l-5.75 3.32v-.12l5.75-3.32ZM52.73 28.064v.12l-5.75 3.32v-.12l5.75-3.32Z" fill="#888"/><path d="M49.21 24.254s-.02-.03-.02-.05c0-.05.04-.11.08-.13.02-.01.04-.01.05 0l.38.22h-.05c-.04.02-.08.08-.08.13 0 .03 0 .04.02.05l-.38-.22Z" fill="#EEEEEF"/><path d="M49.93 25.214c.32-.18.59-.63.59-1s-.25-.53-.57-.35c-.32.18-.59.63-.59 1s.25.53.57.35Zm0-.16c-.24.14-.44.02-.43-.27 0-.28.2-.62.45-.76.24-.14.44-.02.43.27 0 .28-.2.62-.45.76Z" fill="#E7380D"/><path d="m49.52 25.254-.12-.07c-.11-.06-.17-.2-.17-.39 0-.37.27-.82.59-1 .16-.09.3-.1.4-.03l.12.07c-.1-.06-.25-.05-.4.03-.32.18-.59.63-.59 1 0 .19.06.32.17.39Z" fill="#D70C18"/><path d="m50.48 25.584-.86-.5c-.08-.05-.13-.15-.13-.29 0-.28.2-.62.45-.76.12-.07.23-.07.31-.03l.86.5c-.08-.05-.19-.04-.31.03a1 1 0 0 0-.45.76c0 .14.05.24.13.29Z" fill="#E95504"/><path d="m50.59 25.874-.12-.07c-.11-.06-.17-.2-.17-.39 0-.37.27-.82.59-1 .16-.09.3-.1.4-.03l.12.07c-.1-.06-.25-.05-.4.03-.32.18-.59.63-.59 1 0 .19.06.32.17.39Z" fill="#D70C18"/><path d="M50.42 25.484c0-.37.27-.82.59-1 .32-.18.58-.02.57.35-.01.37-.27.82-.59 1-.32.18-.58.02-.57-.35Z" fill="#E7380D"/><path d="m62.5 15.924.03 10.22-6.3 3.64-.03-10.22 6.3-3.64Z" fill="#EEEEEF"/><path d="M59.09 18.744s-.02-.03-.02-.05c0-.05.04-.11.08-.13.02-.01.04-.01.05 0l.38.22h-.05c-.04.02-.08.08-.08.13 0 .03 0 .04.02.05l-.38-.22Z" fill="#EEEEEF"/><path d="M59.81 19.704c.32-.18.59-.63.59-1s-.25-.53-.57-.35c-.32.18-.59.63-.59 1s.25.53.57.35Zm0-.16c-.24.14-.44.02-.43-.27 0-.28.2-.62.45-.76.24-.14.44-.02.43.27 0 .28-.2.62-.45.76Z" fill="#006CB6"/><path d="m59.4 19.744-.12-.07c-.11-.06-.17-.2-.17-.39 0-.37.27-.82.59-1 .16-.09.3-.1.4-.03l.12.07c-.1-.06-.25-.05-.4.03-.32.18-.59.63-.59 1 0 .19.06.32.17.39Z" fill="#1C50A1"/><path d="m60.36 20.064-.86-.5c-.08-.05-.13-.15-.13-.29 0-.28.2-.62.45-.76.12-.07.23-.07.31-.03l.86.5c-.08-.05-.19-.04-.31.03a1 1 0 0 0-.45.76c0 .14.05.24.13.29Z" fill="#4593D0"/><path d="m60.47 20.364-.12-.07c-.11-.06-.17-.2-.17-.39 0-.37.27-.82.59-1 .16-.09.3-.1.4-.03l.12.07c-.1-.06-.25-.05-.4.03-.32.18-.59.63-.59 1 0 .19.06.32.17.39Z" fill="#1C50A1"/><path d="M60.3 19.974c0-.37.27-.82.59-1 .32-.18.58-.02.57.35-.01.37-.27.82-.59 1-.32.18-.58.02-.57-.35Z" fill="#006CB6"/><path d="m13.03 77.654 99.37 57.83v11.52L13 89.114l.03-11.46Z" fill="#F7BC75"/><path d="M45.27 95.964v11.92l-.29-.15v-11.9l.29.13Z" fill="#4D554D"/><path d="m112.4 135.483 76.59-44.42.03 11.47-76.62 44.47v-11.52Z" fill="#F7BC75"/><path d="M34.96 95.714v3.41l-11.77-6.85v-3.39l11.77 6.83Z" fill="#DBDCDC"/><path d="M31.98 97.514s-.46.18-1.35-.29c-.32-.17-4.86-2.81-5.2-3.04-.34-.24-.6-.41-.67-.71-.12-.5.07-.96.39-1.08.76-.29 1.29.07 1.29.07l5.34 3.1s.99.7.76 1.44c-.14.44-.57.52-.57.52l.01-.01Z" fill="#9E9E9F"/><path d="m112.4 135.484 76.58-44.41.04 2.34-76.62 44.43v-2.36ZM13.03 77.644l99.37 57.84v2.27L13 79.864l.03-2.22Z" fill="#F5AD5D"/><path d="m13.03 77.644 76.61-44.43 99.34 57.85-76.58 44.42-99.37-57.84Z" fill="#FBD596"/><path d="m106.12 41.504-26.06 15.4-.01 5.04 26.05-15.4.02-5.04Z" fill="#C7161D"/><path d="m106.12 41.693-26.06 15.43-.01 4.7 26.05-15.42.02-4.71Z" fill="#fff"/><path d="M80.05 61.944v-5.04l-19.61-11.53c-.05.01-.9.27-.91 1.99 0 1.72.85 2.98.89 3.05l19.63 11.53Z" fill="#C7161D"/><path d="m80.09 57.124-19.65-11.58c-.2.03-.77.39-.77 1.79 0 1.55.71 2.73.84 2.97l19.54 11.51.04-4.7v.01Z" fill="#EEEEEF"/><path d="m86.49 29.974-26.06 15.4 19.63 11.53 26.061-15.4-19.63-11.53Z" fill="#E73820"/><path d="m102.27 41.634-16.52-9.7-3.92 2.31 16.52 9.7 3.92-2.31Z" fill="#F5AD6A"/><path d="m80.52 35.113-17.17 10.28 16.52 9.7 17.17-10.28-16.52-9.7Z" fill="#FFFDED"/><path d="m105.5 42.844-23.48 13.74.06.1 23.48-13.74-.06-.1ZM105.49 43.474l-14.88 8.71.05.1 14.89-8.7-.06-.11ZM105.43 45.164l-15.63 9.13.06.11 15.62-9.14-.05-.1ZM90.18 54.853l-8.17 4.77.06.11 8.17-4.78-.06-.1ZM104.07 46.964l-8.17 4.77.06.1 8.17-4.77-.06-.1ZM102.41 45.824l-16.47 9.63.06.1 16.47-9.63-.06-.1Z" fill="#B4B4B5"/><path d="m61.11 46.594-.06.1 13.9 8.21.06-.1-13.9-8.21ZM62.63 48.574l-.05.1 13.89 8.21.06-.1-13.9-8.21ZM60.83 48.574l-.06.1 8.32 4.91.06-.1-8.32-4.91ZM61.94 50.454l-.06.1 8.32 4.91.06-.1-8.32-4.91ZM70.77 54.334l-.06.1 8.32 4.92.06-.11-8.32-4.91ZM71.45 56.074l-.06.1 8.32 4.92.06-.11-8.32-4.91Z" fill="#717071"/><path d="m97.78 50.194-.88.47 2.24 1.3.87-.47-2.23-1.3Z" fill="#18B7CD"/><path d="m103.44 44.494-.87.47 2.24 1.3.87-.47-2.24-1.3Z" fill="#EC6C00"/><path d="m99.33 47.144-.87.47 2.23 1.29.88-.47-2.24-1.29Z" fill="#E63556"/><path d="m94.66 49.864-.87.47 2.24 1.3.87-.47-2.24-1.3Z" fill="#FCD13E"/><path d="m98.51 48.884-.87.47 2.24 1.29.87-.47-2.24-1.29Z" fill="#EB6D56"/><path d="m101.79 45.714-.88.47 2.24 1.29.87-.47-2.23-1.29Z" fill="#EC6C00"/><path d="m106.85 35.024-25.58 14.86-.01 4.86 25.57-14.86.02-4.86Z" fill="#003584"/><path d="m106.85 35.214-25.58 14.88-.01 4.56 25.57-14.88.02-4.56Z" fill="#fff"/><path d="m81.27 49.885-19.26-11.12s-.88.26-.89 1.92c0 1.66.83 2.88.87 2.94l19.26 11.12v-4.86h.02Z" fill="#003584"/><path d="m81.3 50.105-19.29-11.17c-.19.02-.75.38-.76 1.73 0 1.5.7 2.63.83 2.87l19.19 11.11.03-4.54Z" fill="#EEEEEF"/><path d="m87.58 23.904-25.57 14.86 19.26 11.12 25.58-14.86-19.27-11.12Z" fill="#004DA0"/><path d="m103.07 35.154-16.21-9.36-3.85 2.23 16.21 9.36 3.85-2.23Z" fill="#BFDDAD"/><path d="m81.73 28.864-16.86 9.91 16.22 9.36 16.85-9.91-16.21-9.36Z" fill="#FFFDED"/><path d="m106.248 36.328-23.042 13.25.055.095 23.042-13.25-.055-.095ZM106.228 36.93l-14.607 8.4.055.095 14.607-8.4-.055-.095ZM106.17 38.546l-15.335 8.818.055.096 15.335-8.819-.055-.095ZM91.202 47.903l-8.018 4.61.054.096 8.02-4.611-.056-.095ZM104.834 40.291l-8.019 4.611.055.096 8.019-4.611-.055-.096ZM103.215 39.194l-16.167 9.297.055.096 16.167-9.297-.055-.096Z" fill="#B4B4B5"/><path d="m62.669 39.947-.056.095 13.642 7.911.056-.095-13.643-7.911ZM64.168 41.856l-.056.095 13.642 7.911.055-.095-13.641-7.911ZM62.393 41.855l-.055.095 8.166 4.736.055-.095-8.166-4.736ZM63.49 43.676l-.055.096 8.165 4.737.055-.096-8.165-4.737ZM72.149 47.412l-.055.095 8.166 4.736.055-.096-8.166-4.735ZM72.819 49.084l-.055.096 8.166 4.735.055-.095-8.166-4.736Z" fill="#717071"/><path d="m96.14 43.664-.87.47 2.23 1.29.87-.47-2.23-1.29Z" fill="#FCD13E"/><path d="m100.83 41.764-.87.47 2.24 1.29.87-.47-2.24-1.29Z" fill="#18B7CD"/><path d="m104.85 37.614-.87.47 2.23 1.3.87-.47-2.23-1.3Z" fill="#EC6C00"/><path d="m101.33 39.734-.87.47 2.24 1.29.87-.47-2.24-1.29Z" fill="#E63556"/><path d="m103.59 39.404-.88.48 2.24 1.29.87-.47-2.23-1.3Z" fill="#FCD13E"/><path d="m97.85 41.764-.87.47 2.23 1.29.87-.47-2.23-1.29Z" fill="#EB6D56"/><path d="m103.62 27.984-25.57 14.87-.01 4.86 25.57-14.87.01-4.86Z" fill="#007538"/><path d="m103.62 28.174-25.57 14.88-.01 4.57 25.57-14.88.01-4.57Z" fill="#fff"/><path d="m78.05 42.854-19.26-11.12s-.88.26-.89 1.92c0 1.66.83 2.88.87 2.94l19.26 11.12v-4.86h.02Z" fill="#007538"/><path d="m78.07 43.065-19.29-11.17c-.19.02-.75.38-.76 1.73 0 1.5.7 2.63.83 2.87l19.19 11.11.03-4.54Z" fill="#EEEEEF"/><path d="m103.62 27.984-19.26-11.12-25.57 14.86 19.26 11.13 25.57-14.87Z" fill="#33B495"/><path d="m99.85 28.114-16.22-9.36-3.84 2.23L96 30.344l3.85-2.23Z" fill="#BFDDAD"/><path d="m78.5 21.824-16.85 9.92 16.21 9.36 16.86-9.92-16.22-9.36Z" fill="#D6E6AE"/><path d="m103.009 29.285-23.042 13.25.055.096 23.042-13.25-.055-.096ZM103.008 29.892 88.4 38.29l.055.095 14.607-8.4-.054-.095ZM102.941 31.513 87.606 40.33l.054.095 15.336-8.818-.055-.095ZM87.98 40.865l-8.018 4.61.055.096 8.019-4.611-.055-.095ZM101.614 33.253l-8.02 4.611.056.096 8.018-4.611-.054-.096ZM99.995 32.147l-16.168 9.296.055.096 16.168-9.297-.055-.095Z" fill="#B4B4B5"/><path d="m59.45 32.897-.056.095 13.638 7.919.056-.096-13.638-7.918ZM60.948 34.819l-.055.095 13.64 7.914.055-.096-13.64-7.913ZM59.181 34.811l-.055.095 8.164 4.74.055-.095-8.164-4.74ZM60.26 36.63l-.056.095 8.166 4.735.055-.095-8.166-4.736ZM68.928 40.37l-.055.096 8.165 4.737.056-.095-8.166-4.737ZM69.602 42.053l-.055.095 8.166 4.736.055-.095-8.166-4.736Z" fill="#717071"/><path d="m99.43 32.563-.87.47 2.24 1.29.87-.47-2.24-1.29Z" fill="#EC6C00"/><path d="m92.91 37.084-.87.47 2.24 1.29.87-.47-2.24-1.29Z" fill="#E63556"/><path d="m96.95 34.214-.87.47 2.23 1.29.88-.47-2.24-1.29Z" fill="#FCD13E"/><path d="m94.62 35.094-.87.47 2.24 1.29.87-.47-2.24-1.29Z" fill="#EB6D56"/><path d="m89.13 38.704-.87.47 2.24 1.3.87-.47-2.24-1.3Z" fill="#33B495"/><path d="M74.05 103.734a55.421 55.421 0 0 0-8.77-6.09c-4.44-2.48-9.53-4.16-9.58-4.18l33.19-19.29c.05.02 5.14 1.7 9.58 4.18.23.13.45.25.67.38 3.66 2.11 6.45 4.3 8.1 5.71.96.82 1.53 1.37 1.65 1.5l-33.19 19.29c-.13-.12-.69-.68-1.65-1.5Z" fill="#E73820"/><path d="M64.72 95.814c-5.9-3.4-9.26-4.25-9.44-4.29l33.19-19.29c.18.04 3.54.88 9.44 4.29 5.88 3.4 10.96 8.45 10.98 8.48l-33.19 19.29s-5.1-5.08-10.98-8.48Z" fill="#fff"/><path d="m75.73 104.324 33.19-19.29s.02-.02.02-.03c0-.01 0-.03-.01-.04-.21-.21-5.21-5.14-10.99-8.48-5.74-3.31-9.09-4.2-9.45-4.29h-.03l-33.19 19.29s-.02.03-.02.04c0 .02.02.03.03.04.36.09 3.7.98 9.43 4.28 5.77 3.33 10.76 8.26 10.97 8.47 0 0 .02.01.03.01h.02Zm33.1-19.33-33.11 19.24c-.42-.41-5.32-5.2-10.97-8.46-5.38-3.11-8.66-4.08-9.35-4.27l33.08-19.23c.44.11 3.76 1.02 9.41 4.28 5.57 3.21 10.41 7.92 10.94 8.43v.01Z" fill="#B4B4B5"/><path d="m95.72 116.563 33.18-19.29-.02.13-33.19 19.28.03-.12ZM85.47 109.434c-6.03-3.48-9.7-4.04-9.74-4.05-.08-.06-3.74-3.74-9.77-7.22-.22-.13-.45-.26-.67-.38-4.43-2.47-9.51-4.15-9.56-4.17l-.03-.15c.05.02 5.14 1.7 9.58 4.18.23.13.45.25.67.38 3.66 2.11 6.45 4.3 8.1 5.71.96.82 1.53 1.37 1.65 1.5.14.03.71.13 1.67.42 1.65.49 4.44 1.54 8.1 3.65.22.13.45.26.67.4 4.44 2.65 9.52 6.84 9.57 6.88l-.03.12c-.05-.04-5.12-4.22-9.55-6.86-.23-.14-.45-.27-.67-.4l.01-.01Z" fill="#E50012"/><path d="M86.14 109.684c-.23-.14-.45-.27-.67-.4-3.66-2.11-6.45-3.15-8.1-3.65-.96-.29-1.53-.39-1.67-.42l33.19-19.29c.14.03.71.13 1.67.42 1.65.49 4.44 1.54 8.1 3.65.22.13.45.26.67.4 4.44 2.65 9.52 6.84 9.57 6.88l-33.19 19.29c-.05-.04-5.13-4.23-9.57-6.88Z" fill="#E73820"/><path d="M86.7 108.504c-5.88-3.4-10.97-4.21-11-4.21l33.19-19.29s5.11.82 11 4.21c5.9 3.4 9.25 6.44 9.43 6.6l-33.19 19.29c-.18-.16-3.53-3.2-9.43-6.6Z" fill="#fff"/><path d="M129.34 95.854s.02-.02.02-.03c0-.01 0-.03-.01-.04-.36-.33-3.7-3.3-9.44-6.61-5.88-3.39-10.96-4.21-11.01-4.22h-.03l-33.19 19.29s-.02.03-.02.04c0 .02.02.03.04.03.05 0 5.12.83 10.98 4.21 5.72 3.3 9.06 6.27 9.42 6.6 0 0 .02.01.03.01h.02l33.19-19.29v.01Zm-.09-.04-33.11 19.24c-.46-.42-3.79-3.34-9.41-6.59-5.38-3.11-10.1-4.06-10.89-4.2l33.07-19.22c.31.05 5.26.91 10.97 4.21 5.55 3.2 8.85 6.08 9.38 6.56h-.01Z" fill="#B4B4B5"/><path d="M85.59 109.003c-3.39-1.96-6.44-2.92-8.22-3.36-.96-.29-1.53-.39-1.66-.41-.14-.13-.71-.69-1.66-1.5-1.78-1.62-4.82-4.17-8.22-6.14-.3-.17-.61-.34-.92-.51-6.03-3.22-9.13-4.04-9.29-4.08l-.34-1.48c.18.04 3.54.88 9.44 4.29 5.88 3.4 10.96 8.45 10.98 8.48.02 0 5.11.82 11 4.21 5.9 3.4 9.25 6.44 9.43 6.6l-.35 1.08c-.16-.15-3.26-2.9-9.28-6.64-.31-.19-.61-.37-.92-.55l.01.01Z" fill="#EEEEEF"/><path d="m95.83 116.204.35-1.08s0-.03-.01-.05c-.36-.33-3.71-3.3-9.44-6.61-5.73-3.31-10.7-4.17-11-4.22-.31-.31-5.26-5.17-10.98-8.47-5.74-3.31-9.09-4.2-9.45-4.29-.01 0-.03 0-.04.01-.01.01-.02.03-.01.04l.34 1.48s.02.03.03.03c.33.09 3.42.95 9.28 4.08.3.16.61.33.91.51 3.32 1.92 6.3 4.39 8.21 6.13.89.76 1.44 1.3 1.63 1.47l.03.03s.01 0 .02.01c.11.02.68.12 1.65.41 1.91.47 4.89 1.43 8.21 3.35.31.18.61.36.91.55 5.85 3.63 8.94 6.34 9.28 6.64 0 0 .02.01.03.01h.01c.01 0 .03-.01.03-.03h.01Zm.25-1.08-.32.99c-.52-.46-3.6-3.1-9.24-6.6-.3-.19-.61-.37-.92-.55-3.33-1.92-6.31-2.89-8.23-3.36-.92-.28-1.48-.38-1.65-.41l-.02-.02c-.18-.18-.74-.71-1.63-1.47-1.91-1.74-4.9-4.22-8.22-6.14-.31-.18-.62-.35-.92-.51-5.74-3.07-8.83-3.96-9.27-4.08l-.32-1.39c.6.16 3.89 1.11 9.36 4.27 5.77 3.33 10.76 8.26 10.97 8.47 0 0 .01.01.02.01.05 0 5.12.82 10.98 4.21 5.63 3.25 8.95 6.17 9.4 6.58h.01Z" fill="#B4B4B5"/><path d="m96.13 115.104 33.19-19.28-.35 1.08-33.18 19.29.34-1.09Z" fill="#EEEEEF"/><path d="m129.01 96.914.35-1.08s0-.04-.01-.05c-.01-.01-.03-.01-.05 0l-33.19 19.29s-.02.01-.02.02l-.35 1.08s0 .04.01.05h.05l33.19-19.29s.02-.01.02-.02Zm.24-1-.31.96-33.08 19.22.31-.96 33.08-19.22ZM102.68 85.544c-1.97-1.71-5.02-4.14-8.32-6.04-3.22-1.86-5.67-2.94-7.16-3.52-.07-.03-.1-.1-.07-.17s.1-.1.17-.07c1.5.58 3.96 1.67 7.2 3.54 3.31 1.91 6.37 4.36 8.36 6.07.05.05.06.13.01.18-.03.03-.06.04-.1.04-.03 0-.06-.01-.08-.03h-.01ZM101.02 86.523c-1.97-1.71-5.02-4.14-8.32-6.04-3.22-1.86-5.67-2.94-7.16-3.52-.07-.03-.1-.1-.07-.17s.1-.1.17-.07c1.5.58 3.96 1.67 7.2 3.54 3.31 1.91 6.37 4.36 8.36 6.07.05.05.06.13.01.18-.03.03-.06.04-.1.04-.03 0-.06-.01-.08-.03h-.01ZM99.36 87.494c-1.97-1.71-5.02-4.14-8.32-6.04-3.22-1.86-5.67-2.94-7.16-3.52-.07-.03-.1-.1-.07-.17s.1-.1.17-.07c1.5.58 3.96 1.67 7.2 3.54 3.31 1.91 6.37 4.36 8.36 6.07.05.05.06.13.01.18-.03.03-.06.04-.1.04-.03 0-.06-.01-.08-.03h-.01ZM97.71 88.474c-1.97-1.71-5.02-4.14-8.32-6.04-3.22-1.86-5.67-2.94-7.16-3.52-.07-.03-.1-.1-.07-.17s.1-.1.17-.07c1.5.58 3.96 1.67 7.2 3.54 3.31 1.91 6.37 4.36 8.36 6.07.05.05.06.13.01.18-.03.03-.06.04-.1.04-.03 0-.06-.01-.08-.03h-.01ZM96.05 89.454c-1.97-1.71-5.02-4.14-8.32-6.04-3.22-1.86-5.67-2.94-7.16-3.52-.07-.03-.1-.1-.07-.17s.1-.1.17-.07c1.5.58 3.96 1.67 7.2 3.54 3.31 1.91 6.37 4.36 8.36 6.07.05.05.06.13.01.18-.03.03-.06.04-.1.04-.03 0-.06-.01-.08-.03h-.01ZM94.39 90.424c-1.97-1.71-5.02-4.14-8.32-6.04-3.22-1.86-5.67-2.94-7.16-3.52-.07-.03-.1-.1-.07-.17s.1-.1.17-.07c1.5.58 3.96 1.67 7.2 3.54 3.31 1.91 6.37 4.36 8.36 6.07.05.05.06.13.01.18-.03.03-.06.04-.1.04-.03 0-.06-.01-.08-.03h-.01ZM88.3 87.884c-1.33-.96-2.64-1.81-3.88-2.53-3.22-1.86-5.67-2.94-7.16-3.52-.07-.03-.1-.1-.07-.17s.1-.1.17-.07c1.5.58 3.96 1.67 7.2 3.54 1.25.72 2.57 1.58 3.9 2.54.06.04.07.12.03.18-.03.03-.06.05-.1.05-.03 0-.05 0-.07-.02h-.02ZM84.8 87.594c-.69-.45-1.38-.88-2.04-1.26-3.22-1.86-5.67-2.94-7.16-3.52-.07-.03-.1-.1-.07-.17s.1-.1.17-.07c1.5.58 3.96 1.67 7.2 3.54.67.39 1.36.81 2.05 1.27.06.04.08.12.04.18-.02.04-.07.06-.11.06-.02 0-.05 0-.07-.02l-.01-.01ZM89.42 93.354c-1.97-1.71-5.02-4.14-8.32-6.04-3.22-1.86-5.67-2.94-7.16-3.52-.07-.03-.1-.1-.07-.17s.1-.1.17-.07c1.5.58 3.96 1.67 7.2 3.54 3.31 1.91 6.37 4.36 8.36 6.07.05.05.06.13.01.18-.03.03-.06.04-.1.04-.03 0-.06-.01-.08-.03h-.01ZM87.77 94.334c-1.97-1.71-5.02-4.14-8.32-6.04-3.22-1.86-5.67-2.94-7.16-3.52-.07-.03-.1-.1-.07-.17s.1-.1.17-.07c1.5.58 3.96 1.67 7.2 3.54 3.31 1.91 6.37 4.36 8.36 6.07.05.05.06.13.01.18-.03.03-.06.04-.1.04-.03 0-.06-.01-.08-.03h-.01ZM86.11 95.314a64.184 64.184 0 0 0-4.44-3.51c-.06-.04-.07-.12-.03-.18.04-.06.12-.07.18-.03 1.48 1.06 2.97 2.25 4.45 3.53.05.05.06.13.01.18-.03.03-.06.04-.1.04-.03 0-.06-.01-.08-.03h.01Z" fill="#B4B4B5"/><path d="M81.67 91.794c-1.33-.96-2.64-1.81-3.88-2.53-3.22-1.86-5.67-2.94-7.16-3.52-.07-.03-.1-.1-.07-.17s.1-.1.17-.07c1.5.58 3.96 1.67 7.2 3.54 1.25.72 2.56 1.58 3.9 2.54.06.04.07.12.03.18-.03.03-.06.05-.1.05-.03 0-.05 0-.07-.02h-.02ZM81.15 93.604c-1.73-1.31-3.42-2.44-5.01-3.36-3.22-1.86-5.67-2.94-7.16-3.52-.07-.03-.1-.1-.07-.17s.1-.1.17-.07c1.5.58 3.96 1.67 7.2 3.54 1.61.93 3.3 2.06 5.04 3.38.06.04.07.12.02.18-.03.03-.06.05-.1.05-.03 0-.05 0-.08-.03h-.01ZM82.8 97.264c-1.97-1.71-5.02-4.14-8.32-6.04-3.22-1.86-5.67-2.94-7.16-3.52-.07-.03-.1-.1-.07-.17s.1-.1.17-.07c1.5.58 3.96 1.67 7.2 3.54 3.31 1.91 6.37 4.36 8.36 6.07.05.05.06.13.01.18-.03.03-.06.04-.1.04-.03 0-.06-.01-.08-.03h-.01ZM76.29 94.434c-1.19-.84-2.35-1.59-3.47-2.23-3.22-1.86-5.67-2.94-7.16-3.52-.07-.03-.1-.1-.07-.17s.1-.1.17-.07c1.5.58 3.96 1.67 7.2 3.54 1.12.65 2.3 1.4 3.49 2.25.06.04.07.12.03.18-.02.04-.06.05-.11.05-.03 0-.05 0-.07-.02l-.01-.01ZM79.49 99.214c-1.97-1.71-5.02-4.14-8.32-6.04-3.22-1.86-5.67-2.94-7.16-3.52-.07-.03-.1-.1-.07-.17s.1-.1.17-.07c1.5.58 3.96 1.67 7.2 3.54 3.31 1.91 6.37 4.36 8.36 6.07.05.05.06.13.01.18-.03.03-.06.04-.1.04-.03 0-.06-.01-.08-.03h-.01ZM122.23 95.714a66.547 66.547 0 0 0-6.85-4.51c-3.28-1.89-6.31-2.98-8.28-3.55a.128.128 0 0 1-.09-.16c.02-.07.09-.11.16-.09 1.98.58 5.03 1.67 8.33 3.58 2.46 1.42 4.78 2.95 6.87 4.53.06.04.07.12.03.18-.03.03-.06.05-.1.05-.03 0-.05 0-.08-.03h.01ZM120.5 96.644a66.547 66.547 0 0 0-6.85-4.51c-3.28-1.89-6.31-2.98-8.28-3.55a.129.129 0 0 1-.09-.16c.02-.07.09-.11.16-.09 1.98.58 5.03 1.67 8.33 3.58a66.41 66.41 0 0 1 6.87 4.53c.06.04.07.12.03.18-.03.03-.06.05-.1.05-.03 0-.05 0-.08-.03h.01ZM118.78 97.574a66.547 66.547 0 0 0-6.85-4.51c-3.28-1.89-6.31-2.98-8.28-3.55a.128.128 0 0 1-.09-.16c.02-.07.09-.11.16-.09 1.98.58 5.03 1.67 8.33 3.58 2.46 1.42 4.78 2.95 6.87 4.53.06.04.07.12.03.18-.03.03-.06.05-.1.05-.03 0-.05 0-.08-.03h.01ZM117.05 98.504a66.547 66.547 0 0 0-6.85-4.51c-3.28-1.89-6.31-2.98-8.28-3.55a.128.128 0 0 1-.09-.16c.02-.07.09-.11.16-.09 1.98.58 5.03 1.67 8.33 3.58a66.41 66.41 0 0 1 6.87 4.53c.06.04.07.12.03.18-.03.03-.06.05-.1.05-.03 0-.05 0-.08-.03h.01ZM110.16 95.924c-.55-.34-1.12-.68-1.68-1-3.28-1.89-6.31-2.98-8.28-3.55a.128.128 0 0 1-.09-.16c.02-.07.09-.11.16-.09 1.98.58 5.03 1.67 8.33 3.58.57.33 1.13.66 1.69 1.01.06.04.08.12.04.18-.02.04-.07.06-.11.06-.02 0-.05 0-.07-.02l.01-.01ZM113.6 100.364a66.547 66.547 0 0 0-6.85-4.51c-3.28-1.89-6.31-2.98-8.28-3.55a.128.128 0 0 1-.09-.16c.02-.07.09-.11.16-.09 1.98.58 5.03 1.67 8.33 3.58 2.46 1.42 4.78 2.95 6.87 4.53.06.04.07.12.03.18-.03.03-.06.05-.1.05-.03 0-.05 0-.08-.03h.01ZM111.88 101.294a66.499 66.499 0 0 0-6.85-4.51c-3.28-1.89-6.31-2.98-8.28-3.55a.128.128 0 0 1-.09-.16c.02-.07.09-.11.16-.09 1.98.58 5.03 1.67 8.33 3.58 2.46 1.42 4.77 2.94 6.87 4.53.06.04.07.12.03.18-.03.03-.06.05-.1.05-.03 0-.05 0-.08-.03h.01ZM108.42 103.154a66.547 66.547 0 0 0-6.85-4.51c-3.28-1.89-6.31-2.98-8.28-3.55a.128.128 0 0 1-.09-.16c.02-.07.09-.11.16-.09 1.98.58 5.03 1.67 8.33 3.58a66.41 66.41 0 0 1 6.87 4.53c.06.04.07.12.03.18-.03.03-.06.05-.1.05-.03 0-.05 0-.08-.03h.01ZM101.04 100.274c-.39-.24-.79-.47-1.19-.7-3.28-1.89-6.31-2.98-8.28-3.55a.128.128 0 0 1-.09-.16c.02-.07.09-.11.16-.09 1.98.58 5.03 1.67 8.33 3.58.39.23.79.46 1.19.7.06.04.08.12.04.18-.02.04-.07.06-.11.06-.02 0-.05 0-.07-.02h.02ZM101.53 102.594c-1.1-.72-2.24-1.42-3.4-2.09-3.28-1.89-6.31-2.98-8.28-3.55a.128.128 0 0 1-.09-.16c.02-.07.09-.11.16-.09 1.98.58 5.03 1.67 8.33 3.58 1.16.67 2.31 1.38 3.41 2.1.06.04.08.12.04.18-.02.04-.07.06-.11.06-.02 0-.05 0-.07-.02l.01-.01ZM103.25 105.944a66.553 66.553 0 0 0-6.85-4.51c-3.28-1.89-6.31-2.98-8.28-3.55a.128.128 0 0 1-.09-.16c.02-.07.09-.11.16-.09 1.98.58 5.03 1.67 8.33 3.58 2.46 1.42 4.77 2.94 6.87 4.53.06.04.07.12.03.18-.03.03-.06.05-.1.05-.03 0-.05 0-.08-.03h.01ZM101.52 106.874a66.534 66.534 0 0 0-6.85-4.51c-3.28-1.89-6.31-2.98-8.28-3.55a.128.128 0 0 1-.09-.16c.02-.07.09-.11.16-.09 1.98.58 5.03 1.67 8.33 3.58 2.46 1.42 4.77 2.94 6.87 4.53.06.04.07.12.03.18-.03.03-.06.05-.1.05-.03 0-.05 0-.08-.03h.01ZM99.8 107.803a66.547 66.547 0 0 0-6.85-4.51c-3.28-1.89-6.31-2.98-8.28-3.55a.128.128 0 0 1-.09-.16c.02-.07.09-.11.16-.09 1.98.58 5.03 1.67 8.33 3.58 2.46 1.42 4.78 2.95 6.87 4.53.06.04.07.12.03.18-.03.03-.06.05-.1.05-.03 0-.05 0-.08-.03h.01Z" fill="#B4B4B5"/><path d="m132.78 116.374 15.21-8.84v1.23l-15.21 8.84v-1.23Z" fill="#54C2F0"/><path d="m139.99 112.184 8-4.65v1.23l-8 4.65v-1.23Z" fill="#23ACE4"/><path d="m139.99 112.184 8-4.65-8 4.65Z" fill="#54C2F0"/><path d="M132.561 117.424c-.47.27-1.23.27-1.7 0l-9.6-5.54c-.47-.27-.47-.71 0-.99l17.29-10.05c.47-.27 1.23-.27 1.7 0l9.6 5.54c.47.27.47.71 0 .99l-17.29 10.05Z" fill="#B979B0"/><path d="M132.55 118.654c-.47.27-1.23.27-1.7 0l-9.6-5.54c-.35-.24-.43-.52-.43-1.05 0-.4.09-.76.09-.76 0 .18.11.45.34.58l9.6 5.54c.47.27 1.24.27 1.7 0l17.29-10.05a.68.68 0 0 0 .34-.56s.1.28.1.81-.16.79-.44.97l-17.29 10.05v.01Z" fill="#91308C"/><path d="m145.261 104.704-2.22-1.28c-.11-.06-.11-.17 0-.23s.28-.06.39 0l2.22 1.28c.11.06.11.16 0 .23-.11.06-.29.06-.39 0ZM146.19 105.304c-.15-.09-.16-.23 0-.32.15-.09.4-.09.56 0 .15.09.15.23 0 .32s-.4.09-.56 0Z" fill="#3E3A39"/><path d="m131.78 117.084-10.08-5.82 14.36-8.33 2.69-1.56 10.08 5.83-8.53 4.94-8.52 4.94Z" fill="#A3D5C0"/><path d="M127.12 115.694v.52l-2.56-1.52v-.51l2.56 1.51Z" fill="#7F1083"/><path d="M127.12 115.694v.3l-2.38-1.41v-.3l2.38 1.41Z" fill="#E2ADCD"/><path d="m130.07 106.404 8.68-5.03 10.08 5.82-3.59 2.14c-8.72-4.2-15.17-2.93-15.17-2.93Z" fill="#FFFDED"/><path d="M55.36 75.644v-1.85c0 .14-.09.27-.27.38l-1.11.64v1.85l1.1-.64c.18-.1.27-.24.27-.38h.01Z" fill="#C8C9CA"/><path d="m53.99 74.814-2.97-1.71-.01 1.85 2.97 1.71.01-1.85ZM55.1 74.174c.36-.21.36-.55 0-.76l-1.72-1c-.32-.19-.85-.19-1.17 0l-1.18.69 2.97 1.71 1.11-.64h-.01Z" fill="#fff"/><path d="m54.06 74.863-3.78 2.19v1.85l3.78-2.2v-1.84Z" fill="#1F8E85"/><path d="M47.16 75.254v1.85l3.12 1.8v-1.85l-3.12-1.8Z" fill="#137C74"/><path d="m47.23 75.363-.01 1.7 2.99 1.73.01-1.7-2.99-1.73Z" fill="#fff"/><path d="m53.99 74.814-2.97-1.71-.08-.04-3.78 2.19 3.12 1.8 3.78-2.19-.07-.05Z" fill="#30B5A9"/><path d="M155.72 104.774c2.95-.71 6.04-3.64 6.89-6.53.85-2.9-.86-4.68-3.81-3.97-2.95.71-6.05 3.64-6.9 6.53-.85 2.9.86 4.68 3.81 3.97h.01Z" fill="#595757"/><path d="M158.75 93.674c1.6-.38 2.86-.09 3.61.7l-.76-.81c-.74-.79-2-1.08-3.61-.7-3.18.76-6.52 3.92-7.44 7.05-.46 1.55-.23 2.81.5 3.58l.76.81c-.73-.78-.96-2.03-.5-3.58.92-3.12 4.26-6.29 7.44-7.05Z" fill="#4C4948"/><path d="M155.42 105.004c3.18-.76 6.52-3.92 7.44-7.05.92-3.12-.92-5.05-4.11-4.28l.05.6c2.95-.71 4.66 1.08 3.81 3.97-.85 2.9-3.95 5.83-6.89 6.53-2.95.71-4.66-1.08-3.81-3.97.85-2.9 3.95-5.83 6.9-6.53l-.05-.6c-3.18.76-6.52 3.92-7.44 7.05-.92 3.12.92 5.05 4.11 4.28h-.01ZM157.06 81.704v1.62l.19.9v-1.62l-.19-.9Z" fill="#3E3A39"/><path d="M168.809 90.874v-1.62c-.04-1.7-1.19-3.39-3.43-4.68-2.25-1.3-5.19-1.96-8.14-1.97v1.62c2.94.02 5.88.67 8.13 1.97 2.24 1.29 3.38 2.98 3.43 4.68h.01Z" fill="#4C4948"/><path d="m168.82 89.264-.01 1.61 1.56.11.01-1.62-1.56-.1Z" fill="#3E3A39"/><path d="m168.819 89.264 1.56.11c0-1.96-1.3-3.93-3.89-5.42-2.6-1.5-6.02-2.25-9.42-2.24l.19.9c2.95.02 5.89.67 8.14 1.97 2.24 1.29 3.38 2.98 3.43 4.68h-.01Z" fill="#595757"/><path d="M157.22 82.704c-3.13-.01-6.27.67-8.64 2.05l-6.37 3.7v1.08l6.36-3.7c2.38-1.38 5.51-2.06 8.64-2.05v-1.08h.01Z" fill="#3E3A39"/><path d="M141.74 88.174v1.08l.46.27.01-1.08-.47-.27Z" fill="#595757"/><path d="m157.22 82.704-.08-.38c-3.27 0-6.55.72-9.03 2.16l-6.37 3.7.47.27 6.37-3.7c2.38-1.38 5.51-2.06 8.64-2.05ZM159.37 98.355v1.08l.46.27.01-1.08-.47-.27Z" fill="#595757"/><path d="M169.9 90.814v-1.08c0 1.88-1.23 3.76-3.7 5.19l-6.37 3.7v1.08l6.36-3.7c2.46-1.43 3.7-3.31 3.7-5.19h.01Z" fill="#3E3A39"/><path d="m169.9 89.664-.66-.04c.05 1.82-1.12 3.65-3.51 5.04l-6.37 3.7.47.27 6.37-3.7c2.5-1.45 3.73-3.36 3.7-5.26v-.01Z" fill="#595757"/><path d="M157.01 104.904c2.46-.59 5.03-3.03 5.74-5.44.71-2.42-.71-3.9-3.17-3.31-2.46.59-5.03 3.03-5.74 5.44-.71 2.42.71 3.9 3.17 3.31Z" fill="#E7380D"/><path d="M159.53 95.564c1.36-.32 2.42-.08 3.05.59l-.76-.81c-.63-.66-1.69-.91-3.05-.59-2.69.64-5.51 3.31-6.28 5.96-.39 1.31-.2 2.37.42 3.03l.76.81c-.62-.66-.81-1.72-.42-3.03.78-2.64 3.59-5.31 6.28-5.96Z" fill="#E73820"/><path d="M156.72 105.133c2.69-.64 5.51-3.309 6.28-5.95.78-2.64-.78-4.26-3.47-3.62-2.69.64-5.51 3.31-6.28 5.96-.78 2.64.78 4.261 3.47 3.621v-.011Zm-2.88-3.529c.71-2.42 3.28-4.85 5.74-5.44 2.46-.59 3.88.89 3.17 3.31s-3.28 4.85-5.74 5.44c-2.46.59-3.88-.89-3.17-3.31Z" fill="#E50012"/><path d="M157.83 104.234h.04c.03 0 .82-.23 2.15-1.29.83-.66 1.51-1.55 2.02-2.64.04-.09 0-.19-.08-.23-.08-.04-.19 0-.23.08-.48 1.04-1.13 1.89-1.92 2.52-1.27 1.01-2.02 1.23-2.03 1.23-.09.02-.14.12-.12.21.02.08.09.13.16.13l.01-.01ZM162.21 99.594c.07 0 .14-.04.16-.11.15-.45.21-.74.21-.75a.17.17 0 0 0-.13-.2.17.17 0 0 0-.2.13s-.06.28-.2.71c-.03.09.02.19.11.22h.06-.01Z" fill="#fff"/><path d="M143.76 96.604c2.47-1.76 4.24-5.64 3.95-8.64-.29-3-2.55-4.02-5.02-2.26-2.47 1.76-4.24 5.64-3.95 8.64.29 3 2.55 4.02 5.02 2.26Z" fill="#3E3A39"/><path d="M142.42 85.164c1.34-.95 2.62-1.15 3.61-.7l-1.01-.46c-.98-.45-2.26-.25-3.61.7-2.67 1.9-4.58 6.08-4.26 9.32.16 1.61.84 2.69 1.81 3.14l1.01.46c-.97-.45-1.65-1.53-1.81-3.14-.32-3.24 1.59-7.42 4.26-9.32Z" fill="#4C4948"/><path d="M143.57 96.924c2.67-1.9 4.58-6.08 4.26-9.32-.32-3.24-2.75-4.33-5.41-2.44l.27.54c2.47-1.76 4.72-.74 5.02 2.26.29 3-1.48 6.88-3.95 8.64-2.47 1.76-4.72.75-5.02-2.26-.29-3 1.48-6.88 3.95-8.64l-.27-.54c-2.67 1.9-4.58 6.08-4.26 9.32.32 3.24 2.75 4.33 5.41 2.44Z" fill="#3E3A39"/><path d="m93.85 26.414-3.58 5.06.24.7 3.47-4.92-.13-.84Z" fill="#C8C9CA"/><path d="m81.86 19.514-3.58 5.07 11.99 6.89 3.58-5.06-11.99-6.9Z" fill="#fff"/><path d="m82.17 20.613-.5.71 10.49 6.04.51-.72-10.5-6.03Z" fill="#BAC3E3"/><path d="m81.25 21.914-1.92 2.71 10.5 6.04 1.92-2.71-10.5-6.04Z" fill="#B8DACC"/><path d="m78.39 25.384-1.8 1.04 1.81 1.04 1.79-1.04-1.8-1.04Z" fill="#DA776C"/><path d="m76.29 26.605-1.79 1.04 1.8 1.04 1.79-1.04-1.8-1.04Z" fill="#728C99"/><path d="m80.55 26.624-1.79 1.05 1.8 1.04 1.79-1.04-1.8-1.05Z" fill="#81BFBA"/><path d="m74.19 27.824-1.79 1.04 1.8 1.04 1.79-1.04-1.8-1.04Z" fill="#728C99"/><path d="m78.45 27.844-1.79 1.05 1.8 1.04 1.8-1.04-1.81-1.05Z" fill="#83A2B0"/><path d="m82.71 27.874-1.79 1.04 1.8 1.05 1.8-1.05-1.81-1.04Z" fill="#81BFBA"/><path d="m72.09 29.044-1.79 1.04 1.8 1.04 1.79-1.04-1.8-1.04Z" fill="#728C99"/><path d="m76.35 29.074-1.79 1.04 1.8 1.04 1.8-1.04-1.81-1.04Z" fill="#83A2B0"/><path d="m84.88 29.124-1.8 1.04 1.81 1.04 1.79-1.04-1.8-1.04Z" fill="#81BFBA"/><path d="m69.99 30.265-1.79 1.04 1.8 1.04 1.79-1.04-1.8-1.04Z" fill="#728C99"/><path d="m74.25 30.294-1.79 1.04 1.8 1.04 1.8-1.04-1.81-1.04ZM78.51 30.314l-1.79 1.05 1.81 1.04 1.79-1.04-1.81-1.05ZM82.78 30.344l-1.8 1.04 1.81 1.05 1.79-1.05-1.8-1.04Z" fill="#83A2B0"/><path d="m87.04 30.374-1.79 1.04 1.8 1.04 1.79-1.04-1.8-1.04Z" fill="#81BFBA"/><path d="m72.15 31.515-1.79 1.04 1.8 1.04 1.8-1.04-1.81-1.04ZM76.41 31.534l-1.79 1.05 1.81 1.04 1.79-1.04-1.81-1.05Z" fill="#83A2B0"/><path d="m84.94 31.594-1.79 1.04 1.8 1.04 1.79-1.04-1.8-1.04Z" fill="#728C99"/><path d="m74.31 32.754-1.79 1.05 1.81 1.04 1.79-1.04-1.81-1.05Z" fill="#83A2B0"/><path d="m78.29 24.544-11.63 6.76 12 6.92 11.63-6.76-12-6.93v.01Zm8.39 5.62-1.79 1.04-1.81-1.04 1.79-1.04 1.8 1.04h.01Zm-7.86-.03 1.79-1.04 1.8 1.04-1.79 1.04-1.8-1.04Zm1.5 1.23-1.79 1.04-1.8-1.04 1.79-1.04 1.8 1.04Zm-1.86-1.43-1.81-1.04 1.79-1.04 1.8 1.04-1.79 1.04h.01Zm-.3.18-1.79 1.04-1.81-1.04 1.79-1.04 1.81 1.04Zm-2.1 1.22-1.79 1.04-1.81-1.04 1.79-1.04 1.81 1.04Zm.35.2 1.8 1.04-1.79 1.04-1.81-1.04 1.79-1.04h.01Zm2.17 1.25 1.81 1.04-1.79 1.04-1.8-1.04 1.79-1.04h-.01Zm.3-.18 1.79-1.04 1.81 1.04-1.79 1.04-1.81-1.04Zm2.1-1.22 1.79-1.04 1.81 1.04-1.79 1.04-1.81-1.04Zm3.54-2.47-1.79 1.04-1.8-1.04 1.79-1.04 1.81 1.04h-.01Zm-2.17-1.24-1.79 1.04-1.81-1.04 1.79-1.04 1.8 1.04h.01Zm-3.96-2.29 1.81 1.04-1.79 1.04-1.8-1.04 1.79-1.04h-.01Zm-2.1 1.22 1.81 1.04-1.79 1.04-1.8-1.04 1.79-1.04h-.01Zm-2.1 1.22 1.8 1.04-1.79 1.04-1.8-1.04 1.79-1.04Zm-2.1 1.22 1.8 1.04-1.79 1.04-1.81-1.04 1.79-1.04h.01Zm-3.89 2.26 1.79-1.04 1.8 1.04-1.79 1.04-1.81-1.04h.01Zm2.16 1.25 1.79-1.04 1.81 1.04-1.79 1.04-1.8-1.04h-.01Zm2.16 1.25 1.79-1.04 1.81 1.04-1.79 1.04-1.81-1.04Zm2.16 1.24 1.79-1.04 1.8 1.04-1.79 1.04-1.81-1.04h.01Zm3.97 2.29-1.81-1.04 1.79-1.04 1.81 1.04-1.79 1.04Zm2.1-1.22-1.81-1.04 1.79-1.04 1.8 1.04-1.79 1.04h.01Zm2.1-1.22-1.81-1.04 1.79-1.04 1.8 1.04-1.79 1.04h.01Zm2.1-1.22-1.8-1.04 1.79-1.04 1.81 1.04-1.79 1.04h-.01Zm.3-2.26 1.79-1.04 1.8 1.04-1.79 1.04-1.8-1.04Z" fill="#fff"/><path d="m80.61 29.094-1.79 1.04 1.81 1.05 1.79-1.05-1.81-1.04ZM80.68 31.564l-1.8 1.04 1.81 1.05 1.79-1.05-1.8-1.04ZM78.58 32.784l-1.8 1.04 1.81 1.05 1.79-1.05-1.8-1.04Z" fill="#83A2B0"/><path d="m82.84 32.815-1.79 1.04 1.8 1.04 1.79-1.04-1.8-1.04Z" fill="#728C99"/><path d="m76.48 34.004-1.8 1.04 1.81 1.05 1.79-1.05-1.8-1.04Z" fill="#83A2B0"/><path d="m80.74 34.034-1.79 1.04 1.8 1.04 1.79-1.04-1.8-1.04ZM78.64 35.254l-1.79 1.04 1.8 1.04 1.8-1.04-1.81-1.04Z" fill="#728C99"/><path d="m78.66 38.225-.01.83 11.86-6.88-.23-.7-11.62 6.75ZM66.66 31.304v.83l11.99 6.92.01-.83-12-6.92Z" fill="#C8C9CA"/><path d="M67.04 72.844s.02-.04.02-.08c0-.1-.07-.22-.16-.27-.03-.01-.05-.02-.07-.02l-1.77.06c.11 0 .23.03.35.1.43.24.79.84.79 1.34 0 .16-.03.28-.09.38.31-.5.62-1.01.93-1.51Z" fill="#DBDCDC"/><path d="M66.05 74.433c.1-.1.16-.25.15-.46 0-.5-.36-1.1-.79-1.34-.17-.1-.33-.12-.46-.08h-.16c.13-.04.3-.01.48.09.45.25.82.88.83 1.4 0 .22-.06.38-.16.48.05-.05.1-.1.15-.14l-.04.05Z" fill="#80CCE3"/><path d="M60.73 77.534c.66-.36 4.42-2.53 5.08-2.89.16-.09.25-.28.25-.55 0-.52-.38-1.15-.83-1.4-.23-.13-.43-.13-.58-.04-.64.4-4.38 2.6-5.02 3 .14-.09.33-.08.55.04.43.24.78.84.79 1.33 0 .26-.09.44-.23.52l-.01-.01Z" fill="#3E3A39"/><path d="m47.25 85.344 13.49-7.81c.14-.08.23-.26.23-.51 0-.5-.36-1.09-.79-1.33-.21-.12-.4-.13-.54-.05l-13.49 7.81c.14-.08.33-.07.54.05.43.24.78.84.79 1.33 0 .25-.08.43-.23.51Z" fill="#80CCE3"/><path d="M47.48 84.834c0-.5-.36-1.09-.79-1.33-.43-.24-.77-.03-.77.47s.36 1.09.79 1.33c.43.24.77.03.77-.47Zm-1.32-.73c0-.34.23-.49.53-.32.3.17.54.58.55.92 0 .34-.23.49-.53.32-.3-.17-.54-.58-.55-.92Z" fill="#00A4E3"/><path d="M46.42 85.174c0-.34-.25-.76-.55-.92-.3-.16-.53-.02-.53.32s.25.76.55.92c.3.17.53.02.53-.32Z" fill="#9E9E9F"/><path d="m46.26 85.534.82-.48c.1-.06.16-.18.16-.36 0-.34-.25-.76-.55-.92-.15-.08-.28-.09-.37-.03l-.82.48c.1-.06.23-.05.37.03.3.17.54.58.55.92 0 .18-.06.3-.16.36Z" fill="#C8C9CA"/><path d="m157.801 25.193-39.58-22.28c-.37-.21-.73-.22-1-.08l1.39-.74c.27-.14.63-.13 1 .08l39.58 22.28c.74.42 1.27 1.44 1.19 2.28l-2.89 28.89c-.04.42-.23.72-.5.86l-1.39.74c.27-.14.45-.44.5-.86l2.89-28.89c.08-.84-.45-1.87-1.19-2.28Z" fill="#595757"/><path d="m154.6 57.143-39.58-22.28c-.74-.42-1.27-1.44-1.19-2.29l2.89-28.89c.08-.84.76-1.19 1.49-.77l39.58 22.28c.74.42 1.27 1.44 1.19 2.28l-2.89 28.89c-.08.84-.76 1.19-1.49.78Z" fill="#717171"/><path d="m118.25 5.684 38.44 21.63-2.74 27.38-38.44-21.64 2.74-27.37Z" fill="#5DC1CF"/><path d="m114.87 33.384 39.58 22.28 2.87-28.69-39.58-22.28-2.87 28.69Zm39.07 21.31-38.43-21.63 2.74-27.38 38.43 21.63-2.74 27.38Z" fill="#595757"/><path d="m119.23 8.754 35.66 20.05-2.3 23.03-35.66-20.04 2.3-23.04Z" fill="#006C3B"/><path d="m116.49 32.024 36.45 20.49 2.39-23.93-36.45-20.5-2.39 23.93v.01Zm35.75 19.14-34.88-19.6 2.21-22.14 34.88 19.6-2.21 22.14Z" fill="#C8C9CA"/><path d="M121.63 10.834c-.21-.23-.3-.53-.29-.64.02-.11.27.06.63.39.37.33 2.42 1.56 3.38 2.44.59.55.67 2.87.67 2.87l-1.58-.34-.11-1.07s-.73-.14-1.01-.31a2.58 2.58 0 0 0-.56-.25s-2.1-.74-2.3-.91c-.2-.17-.24-.41-.24-.41s-.37-.28-.52-.46c-.15-.18.03-.4.03-.4s-.47-.29-.47-.51c0-.22.3-.26.3-.26s-.19-.43.37-.38c.56.05 2.82 1.24 2.82 1.24s-.93-.77-1.14-1.01l.02.01Z" fill="#EFB19A"/><path d="M120.47 12.594c-.1-.01-.17.05-.17.05h-.04s-.02-.01-.03-.03c-.02-.03-.02-.07 0-.08 0 0 .09-.08.22-.06.12.01 1.76.59 1.94.65.03 0 .05.04.05.07 0 .03-.02.05-.05.04-.73-.26-1.84-.64-1.92-.65v.01ZM120.25 11.784c-.17-.04-.47.01-.47.01h-.03c-.02 0-.03-.03-.04-.05-.01-.03 0-.06.02-.07.01 0 .31-.06.5-.01.18.04 1.95.72 2.03.75.03.01.05.04.05.08 0 .03-.02.05-.05.04-.02 0-1.84-.71-2.01-.75ZM120.13 11.124c-.17-.04-.47-.07-.47-.07h-.02a.068.068 0 0 1-.04-.06c0-.03 0-.06.03-.06.01 0 .31.03.49.07.18.04 1.86.75 1.93.78.03 0 .05.05.05.08s-.02.05-.05.04c-.6-.25-1.77-.75-1.91-.78h-.01Z" fill="#ED8C68"/><path d="m122.7 13.374-.72-1.65s0-.06.02-.07c.02 0 .05.01.07.05l.72 1.65s0 .06-.02.07h-.03c-.01 0-.03-.02-.04-.04v-.01Z" fill="#ED8C68"/><path d="m126.55 25.534-1.7-1.72.68-1.72 6.63-3.43s1.71 2.34 1.75 2.97c.04.63-.63 1.74-.63 1.74s-.91.41-1.44.56c-.53.16-5.29 1.61-5.29 1.61v-.01Z" fill="#546686"/><path d="m126.3 15.424.16 1.22-2.1-.54-.13-1.19 2.07.51Z" fill="#BAE2F8"/><path d="m124.03 15.584 2.68.69 1.14 8.87-1.3.39-1.76-1.79-.76-8.16ZM138.86 46.194l-9.45-5.28 1.04-5.7.83-12.42.88-4.14 3.6.01 4.68 4.09-.05 4.61-1.33 13.02-.2 5.81Z" fill="#6A7FA5"/><path d="M133.99 18.384h1.9l2.21 1.99-.01 2.98-1.79-.37 1.18 1.96-4.85 3.34-.2-7.45.78.17-.6-1.17 1.38-1.45Z" fill="#546686"/><path d="m136.05 18.674 1.52 1.38-4.79 7.72 1.32-9.14 1.95.04Z" fill="#BAE2F8"/><path d="m134.18 20.523 1.06.72.32.79-.86.52-.45 2.86-1.47 2.36.44-3.04.88-2.52-.13-1.48.21-.21Z" fill="#1C50A1"/><path d="m133.74 21.034.36-2.4 2.04.09 1.43 1.33-1.62 2.61-1.33-1.81-.88.18Z" fill="#7DCCF3"/><path d="m134.39 19.224.51-3.43 2.44 1.12-.23 3.04-2.39.76-.33-1.49Z" fill="#EFB19A"/><path d="M148.86 32.964c-.26.09-1.25.05-1.25.05l-.49-2.82.46-1.41 1.73 1.79s.17 1.59.12 1.73c-.04.14-.31.58-.57.67v-.01Z" fill="#EE835C"/><path d="M149.28 32.174c-.2-.11-.43-.48-.43-.48l.56-.79.36-.81s.25.13.39.44.1 1.13-.05 1.29c-.15.15-.63.46-.83.34v.01Z" fill="#EFB19A"/><path d="M149.41 29.424c.21.23.36.71.36.71l-.21 1.18-.74.45-.37-.51.58-1.01-.43-1.1s.6.03.82.26l-.01.02Z" fill="#EFB19A"/><path d="m147.91 29.843-.03-1.14c0-.05.31.06.31.06s.22-.04.49.13.43.43.43.43l-.07 1.57-.54.47-.56-.27-.04-.73.53-.25-.08-.33-.44.07v-.01Z" fill="#EFB19A"/><path d="M148.84 31.804h-.03s-.01 0-.02-.02l-.29-.4s-.02-.05 0-.06c.01-.01.03 0 .05.01l.27.37.71-.43.21-1.17s.02-.03.04-.01c.02.01.03.04.03.06l-.21 1.18s0 .01-.01.02l-.74.45h-.01Z" fill="#EE835C"/><path d="M149.06 29.444v-.04h.03s.03.04.03.06l-.06 1.45v.02l-.54.47h-.03l-.56-.27s-.03-.03-.03-.06c0-.02.02-.03.04-.02l.54.26.52-.45.06-1.41v-.01ZM148.39 29.784s.01.02.02.03l.08.33s0 .03-.01.03l-.56.29h-.02s-.02-.01-.02-.02c-.01-.02 0-.04 0-.05l.54-.28-.06-.26-.32.04s-.03 0-.03-.02c0-.01-.01-.03 0-.04l.35-.91s.02-.02.04 0c.02.01.02.04.02.05l-.32.84.29-.03s.02 0 .03.01l-.03-.01Z" fill="#EE835C"/><path d="M146.95 29.574s1.09-1.84 1.56-3.87c.06-.24.61-.22.59.64 0 .37-.97 3.09-.97 3.09l-.33.85-.85-.72v.01Z" fill="#EFB19A"/><path d="M146.99 29.504c.4-.48 1.28.4 1.34.44.07.03 1.18.91 1.22 1.48 0 .14-.34.08-.52.04s-1.08-.55-1.08-.55l.29.48s.15.32.15.65c0 .34-.24.92-.32 1-.01.01-.08.06-.1.07-.22.18-.93.68-.93.68l-.99-1.65.88-.41s-.09-2.07.05-2.23h.01Z" fill="#EFB19A"/><path d="M148.33 29.974s-.03-.02-.09-.07c-.17-.14-.6-.51-.95-.5.02-.02.04-.05.05-.08.35.04.75.38.91.52.03.03.06.05.07.06.07.03 1.21.92 1.25 1.53.01.17-.29.13-.55.07-.15-.04-.76-.37-1-.5l.23.38s.16.33.16.68c0 .33-.25.86-.35.99v-.02c.09-.12.33-.63.34-.94 0-.32-.14-.62-.14-.62l-.35-.59.09.05s.9.5 1.07.55c.33.08.49.06.49 0-.04-.52-1.09-1.37-1.19-1.43l-.04-.08Z" fill="#EE835C"/><path d="m146.81 31.654.97 2.61-.84.34-1.25-2.63 1.12-.32Z" fill="#BAE2F8"/><path d="m140.44 22.754.73.81 2.06 10.65-2.45.85-1.75-9.02 1.41-3.29Z" fill="#546686"/><path d="m140.78 35.064-.5-2.6 3.63-.51 2.27-.34 1.2 3.47-1.43.26-3.79.71-1.38-.99Z" fill="#6A7FA5"/><path d="M132.44 8.994s.45-2.96 2.3-3.48c2.52-.18 3.72 2.21 3.72 2.21s.62.27 1.16 1.13c2.47 3.93-1.31 8.6-1.31 8.6l-4.41-2.46s-1.58-2.35-1.13-6.3c-.26.16-.34.3-.34.3h.01Z" fill="#3D3939"/><path d="M132.78 10.534c.3-.05.77.56.77.56l-.29 2.34s-.82-.85-.93-1.83c-.05-.44.15-1.01.46-1.07h-.01ZM138.7 16.334l.2-2.4s.53-.06.79.31.33 1.1.2 1.44c-.29.76-1.19.65-1.19.65Z" fill="#EFB19A"/><path d="M135.65 18.184s-1.57-1.17-2.28-2.9c-.24-1.73-.46-3.61.35-6.21.76-2.46 2.98-1.04 2.98-1.04s2.25 1.08 2.45 4.08c.21 3.17-.24 5.18-.68 5.92-1.11.72-2.83.16-2.83.16l.01-.01Z" fill="#EFB19A"/><path d="M137.89 9.773c-1.18.2-4.2-.48-4.2-.48l-.41 1.32s-.02-5.13 3.48-3.18c3.5 1.96 2.48 6.53 2.48 6.53l-.04-1.52s-1.11-1.49-1.31-2.67Z" fill="#3D3939"/><path d="m139.4 13.744-.23-.13v-.07c.03-.18-.09-.39-.25-.48l-2-1.12c-.16-.09-.3-.02-.32.16v.11c-.08-.06-.19-.14-.33-.21a1.55 1.55 0 0 0-.29-.13v-.1a.496.496 0 0 0-.24-.48l-2-1.12c-.16-.09-.3-.02-.32.16v.07l-.24-.13v.24l.21.16-.08.73c-.04.41.22.92.59 1.13l1.23.68c.37.21.71.04.75-.37l.09-.87c.06.02.16.06.29.13.14.08.26.16.32.22l-.09.86c-.04.41.22.92.59 1.12l1.23.68c.37.21.71.04.75-.37l.08-.73.22.08.04-.22Zm-3.57-2.07-.11 1.07c-.03.32-.29.44-.57.29l-1.23-.68c-.28-.16-.49-.55-.46-.86l.11-1.07c0-.08.07-.11.15-.07l2 1.12c.07.04.12.14.11.21v-.01Zm3.18 1.77-.11 1.07c-.03.32-.29.45-.58.29l-1.23-.68c-.28-.16-.49-.54-.45-.86l.11-1.07c0-.08.07-.11.14-.07l2 1.12c.07.04.12.14.11.22l.01-.02Z" fill="#595757"/><path d="m136.07 13.044-.21 2-.51-1.08.72-.92Z" fill="#EE835C"/><path d="m97.79 37.063 44.93 25.66.01 21.61-44.93-25.66-.01-21.61Z" fill="#EEEEEF"/><path d="m142.68 62.734 15.43-9.28.01 21.77-15.43 9.12-.01-21.61Z" fill="#C8C9CA"/><path d="m97.79 37.064 15.52-9.3 44.85 25.68-15.49 9.29-44.88-25.67Z" fill="#C8C9CA"/><path d="M144.8 64.994v2.73l11.79-7.16v-2.73l-11.79 7.16Z" fill="#65A9DC"/><mask id="a" style="mask-type:luminance" maskUnits="userSpaceOnUse" x="144" y="57" width="13" height="11"><path d="M144.8 64.994v2.73l11.79-7.16v-2.73l-11.79 7.16Z" fill="#fff"/></mask><g mask="url(#a)" fill="#fff"><path d="M153.14 58.174v5.75l-.34.01v-5.75l.34-.01ZM151.17 59.344v5.75l-.34.01v-5.75l.34-.01ZM149.151 60.414v5.75l-.34.01v-5.75l.34-.01ZM146.87 62.044v5.75l-.34.01v-5.75l.34-.01ZM155.01 56.994v5.75l-.34.01v-5.75l.34-.01Z"/></g><path d="M144.8 71.834v2.73l11.79-7.16v-2.73l-11.79 7.16Z" fill="#65A9DC"/><mask id="b" style="mask-type:luminance" maskUnits="userSpaceOnUse" x="144" y="64" width="13" height="11"><path d="M144.8 71.834v2.73l11.79-7.16v-2.73l-11.79 7.16Z" fill="#fff"/></mask><g mask="url(#b)" fill="#fff"><path d="M153.14 65.014v5.75l-.34.01v-5.75l.34-.01ZM151.17 66.184v5.76l-.34.01v-5.75l.34-.02ZM149.151 67.254v5.75l-.34.01v-5.75l.34-.01ZM146.87 68.884v5.75l-.34.01v-5.75l.34-.01ZM155.01 63.834v5.75l-.34.01v-5.75l.34-.01Z"/></g><path d="M144.8 77.894v2.73l11.79-7.16v-2.73l-11.79 7.16Z" fill="#65A9DC"/><mask id="c" style="mask-type:luminance" maskUnits="userSpaceOnUse" x="144" y="70" width="13" height="11"><path d="M144.8 77.894v2.73l11.79-7.16v-2.73l-11.79 7.16Z" fill="#fff"/></mask><g mask="url(#c)" fill="#fff"><path d="M153.14 71.074v5.75l-.34.01v-5.75l.34-.01ZM151.17 72.244v5.75l-.34.02v-5.76l.34-.01ZM149.151 73.314v5.75l-.34.01v-5.75l.34-.01ZM146.87 74.944v5.75l-.34.01v-5.75l.34-.01ZM155.01 69.894v5.75l-.34.01v-5.75l.34-.01Z"/></g><path d="m115.39 50.564-.01 2.73-15.76-8.9.01-2.73 15.76 8.9Z" fill="#65A9DC"/><mask id="d" style="mask-type:luminance" maskUnits="userSpaceOnUse" x="99" y="41" width="17" height="13"><path d="m115.39 50.564-.01 2.73-15.76-8.9.01-2.73 15.76 8.9Z" fill="#fff"/></mask><g mask="url(#d)" fill="#fff"><path d="M107.38 44.084v5.75h-.34v-5.74l.34-.01ZM109.35 45.174v5.75l-.34.01v-5.75l.34-.01ZM111.37 46.153v5.75l-.34.01v-5.75l.34-.01ZM113.651 47.693v5.75l-.34.01v-5.75l.34-.01ZM105.51 42.974v5.75h-.34v-5.74l.34-.01ZM103.611 42.264v5.75h-.34v-5.75h.34ZM101.7 41.554v5.75h-.33v-5.75h.33Z"/></g><path d="m115.39 57.604-.01 2.73-15.76-8.9.01-2.73 15.76 8.9Z" fill="#65A9DC"/><mask id="e" style="mask-type:luminance" maskUnits="userSpaceOnUse" x="99" y="48" width="17" height="13"><path d="m115.39 57.604-.01 2.73-15.76-8.9.01-2.73 15.76 8.9Z" fill="#fff"/></mask><g mask="url(#e)" fill="#fff"><path d="M107.38 51.124v5.75h-.34v-5.75h.34ZM109.35 52.214v5.75h-.34v-5.75h.34ZM111.37 53.193v5.75h-.34v-5.75h.34ZM113.651 54.733v5.75h-.34v-5.75h.34ZM105.51 50.014v5.75h-.34v-5.75h.34ZM103.611 49.304v5.75h-.34v-5.75h.34ZM101.7 48.594v5.75h-.33v-5.75h.33Z"/></g><path d="m115.39 63.814-.01 2.73-15.76-8.9.01-2.73 15.76 8.9Z" fill="#65A9DC"/><mask id="f" style="mask-type:luminance" maskUnits="userSpaceOnUse" x="99" y="54" width="17" height="13"><path d="m115.39 63.814-.01 2.73-15.76-8.9.01-2.73 15.76 8.9Z" fill="#fff"/></mask><g mask="url(#f)" fill="#fff"><path d="M107.38 57.334v5.75h-.34v-5.75h.34ZM109.35 58.424v5.75h-.34v-5.75h.34ZM111.37 59.403v5.75h-.34v-5.75h.34ZM113.651 60.943v5.75h-.34v-5.75h.34ZM105.51 56.224v5.75h-.34v-5.75h.34ZM103.611 55.514v5.75h-.34v-5.75h.34ZM101.7 54.804v5.75h-.33v-5.75h.33Z"/></g><path d="m140.62 64.774-.01 2.73-15.76-8.9.01-2.73 15.76 8.9Z" fill="#65A9DC"/><mask id="g" style="mask-type:luminance" maskUnits="userSpaceOnUse" x="124" y="55" width="17" height="13"><path d="m140.62 64.774-.01 2.73-15.76-8.9.01-2.73 15.76 8.9Z" fill="#fff"/></mask><g mask="url(#g)" fill="#fff"><path d="M132.609 58.294v5.75h-.33v-5.75h.33ZM134.579 59.384v5.75l-.34.01v-5.75l.34-.01ZM136.6 60.363v5.75l-.34.01v-5.75l.34-.01ZM138.88 61.903v5.75l-.33.01v-5.75l.33-.01ZM130.739 57.184v5.75h-.33v-5.75h.33ZM128.84 56.474v5.75h-.34v-5.75h.34ZM126.94 55.764v5.75h-.34v-5.75h.34Z"/></g><path d="m140.62 71.814-.01 2.73-15.76-8.9.01-2.73 15.76 8.9Z" fill="#65A9DC"/><mask id="h" style="mask-type:luminance" maskUnits="userSpaceOnUse" x="124" y="62" width="17" height="13"><path d="m140.62 71.814-.01 2.73-15.76-8.9.01-2.73 15.76 8.9Z" fill="#fff"/></mask><g mask="url(#h)" fill="#fff"><path d="M132.609 65.334v5.75h-.33v-5.75h.33ZM134.579 66.424v5.75h-.34v-5.75h.34ZM136.6 67.403v5.75h-.34v-5.75h.34ZM138.88 68.943v5.75h-.33v-5.75h.33ZM130.739 64.224v5.75h-.33v-5.75h.33ZM128.84 63.514v5.75h-.34v-5.75h.34ZM126.94 62.804v5.75h-.34v-5.75h.34Z"/></g><path d="m140.62 78.024-.01 2.73-15.76-8.9.01-2.73 15.76 8.9Z" fill="#65A9DC"/><mask id="i" style="mask-type:luminance" maskUnits="userSpaceOnUse" x="124" y="69" width="17" height="12"><path d="m140.62 78.024-.01 2.73-15.76-8.9.01-2.73 15.76 8.9Z" fill="#fff"/></mask><g mask="url(#i)" fill="#fff"><path d="M132.609 71.544v5.75h-.33v-5.75h.33ZM134.579 72.634v5.75h-.34v-5.75h.34ZM136.6 73.613v5.75h-.34v-5.75h.34ZM138.88 75.153v5.75h-.33v-5.75h.33ZM130.739 70.434v5.75h-.33v-5.75h.33ZM128.84 69.724v5.75h-.34v-5.75h.34ZM126.94 69.014v5.75h-.34v-5.75h.34Z"/></g><path d="m100.23 37.124 13.68-8.26 42.38 24.14-13.67 8.26-42.39-24.14Z" fill="#DBDCDC"/><path d="m113.9 28.864.01.67-13.1 7.92-.58-.33 13.67-8.26Z" fill="#9E9E9F"/><path d="m113.9 28.864 42.39 24.14-.58.36-41.8-23.81-.01-.69Z" fill="#9E9E9F"/><path d="m119.52 65.103 2.7 1.53v5.93l-2.7-1.53v-5.93ZM116.68 63.504l2.7 1.53v5.93l-2.7-1.53v-5.93Z" fill="#65A9DC"/><path d="m119.87 68.034 2.93-1.7v.46l-2.93 1.7v-.46Z" fill="#A18978"/><path d="m114.07 64.684 5.8 3.35v.46l-5.8-3.34v-.47Z" fill="#E1D7BC"/><path d="m116.99 62.984 5.81 3.35-2.93 1.7-5.8-3.35 2.92-1.7Z" fill="#C5B99A"/><path d="m146.6 53.964 2.4 1.32v1.06l-2.4-1.32v-1.06Z" fill="#9E9F9F"/><path d="M153.75 52.394v1.06l-4.75 2.89v-1.06l4.75-2.89Z" fill="#EEEEEF"/><path d="m151.35 51.063 2.4 1.33-4.75 2.89-2.4-1.32 4.75-2.9Z" fill="#fff"/><path d="M145.17 53.104v1.06l-2.39-1.32-.01-1.06 2.4 1.32Z" fill="#9E9F9F"/><path d="m145.17 53.104 4.75-2.89v1.06l-4.75 2.89v-1.06Z" fill="#EEEEEF"/><path d="m142.77 51.784 4.76-2.89 2.39 1.32-4.75 2.89-2.4-1.32Z" fill="#fff"/><path d="M124.75 43.034v7.9l-6.73-3.7v-7.9l6.73 3.7Z" fill="#C8C9CA"/><path d="m133.88 37.414.01 7.9-9.14 5.62v-7.9l9.13-5.62Z" fill="#EEEEEF"/><path d="m127.16 33.704 6.72 3.71-9.13 5.62-6.73-3.7 9.14-5.63Z" fill="#9E9E9F"/><path d="M121.38 48.434c-1.48-.81-2.68-2.85-2.68-4.56 0-1.7 1.21-2.43 2.7-1.62 1.49.81 2.68 2.85 2.68 4.56 0 1.71-1.21 2.44-2.7 1.62Z" fill="#fff"/><path d="M95.98 68.053c-.61-.1-1.23-.41-1.23-.41l-.21-.16-.1.05-.37-.15.21-1.07 1.55.18.15.17s1.49.44 1.52.68c.04.25.22.36-.11.53-.33.17-.81.27-1.41.17v.01ZM92.25 70.194c-.11.3-.17.62-.81.62s-1.05-.31-1.31-.54c-.26-.24-.61-1.5-.61-1.5v-.1h-.02s-.07-.23-.07-.29c0-.06.19-.74.19-.74l1.74.4-.05.29.19.51s.87 1.05.76 1.35h-.01Z" fill="#804C2E"/><path d="m94.13 66.754-.27-6.98-1.28-5.55 3.06-.69.26 6.18.07 6.62s.13.56-.71.64c-.84.08-1.14-.21-1.14-.21l.01-.01Z" fill="#41467E"/><path d="M90.77 53.233s1.89.05 2.59-.03 2.28-.39 2.28-.39l.05 1.82-2.08 1.13-.79 5.95-1.35 6.57s-.19.31-1.14.17c-.91-.13-.75-.81-.75-.81s1.17-5.55 1.16-6.19c0-.18-.03-2.61-.03-5.04-.12-.85.07-3.17.07-3.17l-.01-.01Z" fill="#4A508B"/><path d="M90.52 43.284c.03-.29.19-.5.19-.5s1.61-.93 1.97-1.04c.36-.11 1.8-.31 1.8-.31s.51.17.66.37c.15.2.44 1.75.56 2.45.12.69.16 4.64.2 5.1.04.46-.05 3.64-.05 3.64s.15.46-.09.74c-.24.28-.76.42-.76.42l-.18-.34-.14.45s-.08 0-.98.21c-1.04.23-3.21-.4-3.21-.4s.08-3.65.03-4.25c-.05-.6-.03-6.26 0-6.55v.01Z" fill="#555C9D"/><path d="m93.88 41.614.6.76-.2 4.32-2.14-4.67 1.74-.41Z" fill="#fff"/><path d="m93.59 43.564.36-.07.47 2.1-.14 1.1-.8-1.08.11-2.05Z" fill="#5876B8"/><path d="m93.12 42.784.87-.15s.18.69 0 .94l-.42.08-.45-.87Z" fill="#3D62AC"/><path d="m92.04 42.264-.03-.19s.68-.45.96-.57c.29-.12 1.21.02 1.21.02l.2.31.04 1.41-.69-.5-1 .91-.69-1.39Z" fill="#F8F6E7"/><path d="m92.69 40.023 1.3.8v1.18l-.29.63-1.15-.41.14-2.2Z" fill="#EFB19A"/><path d="m91.69 42.224.49-.3 2.1 4.77-1.96-2.06.34-.48h-.45l-.52-1.93ZM94.28 46.654s.07-1.9.06-2.98c-.02-1.51-.32-2.2-.32-2.2l.35-.03.56 1.84-.42.4.42.24-.65 2.72v.01ZM97.87 38.144c-.29.16-.49.18-.49.18s-.54-.33-.65-.42c-.11-.09-.17-.65-.17-.65l.96-3.25s.4-.93 1.21-.58c.57.25.47.85.47.85s-1.04 3.72-1.33 3.88v-.01Z" fill="#4A508B"/><path d="M98.48 34.134c-.41-.06-.69-.34-.69-.34l.06-.42s.33-.26.72-.15c.39.1.58.4.58.4l-.14.4s-.13.16-.53.1v.01Z" fill="#fff"/><path d="m94.37 41.004-.56-.21-.77-.32-1.16-.87-.17-1.42-.12-.56s.17-.44.24-.51c.46-.46 1.31-.71 1.31-.71s.91 0 1.25.08c.52.13.9.52 1.11.96.21.43.01 1.24-.02 1.61-.03.37-.66 1.6-.66 1.6l-.45.34v.01Z" fill="#6B3B30"/><path d="M94.53 40.194s-.09.84-.3 1.06c-.21.22-.57.4-1.03.36-.46-.04-.85-.24-1.04-.42-.19-.18-.26-.74-.29-1.15-.03-.41.07-1.35.07-1.35l.14-.73.16-.13.53.48 1.75.66.03.35s.1-.05.2-.08.17.06.22.23c.04.17-.06.6-.12.68-.06.08-.32.03-.32.03v.01Z" fill="#EFB19A"/><path d="m92.66 39.204-.01.96-.28-.26.29-.7Z" fill="#E9825D"/><path d="m93.45 49.214-.12-.15 1.67-3.56 3.36-.61.12.12-1.62 3.52-3.41.68Z" fill="#717071"/><path d="m93.55 49.004-.05-.03 1.6-3.33.01-.01 3.22-.62.01.06-3.19.61-1.6 3.32Z" fill="#595757"/><path d="M94.76 48.033s.45-.07.48 0c.03.07-.15.22-.15.22s.07.13 0 .17c-.07.04-.2.12-.2.12s.09.07.03.11c-.06.04-.24.12-.24.12s.01.13-.04.15c-.05.02-.53.12-.62.13-.09 0-.53.04-.59 0-.06-.04-.39-.17-.39-.17l-.34.1-.21-.88.71-.23.63-.35h.24l-.22.46s.18.1.35.12c.18.02.52-.05.56-.05v-.02Z" fill="#EFB19A"/><path d="m89.57 49.044-1.54.4s-.18-1.18-.18-1.38c0-.81 1.37-3.29 1.64-3.86.57-1.21 1.3-1.47 1.3-1.47s.39.22.69.75c.17.3.1 1.15.04 1.46-.06.31-.5 1.04-.5 1.04l-1.44 3.05-.01.01Z" fill="#4A508B"/><path d="m92.05 47.834.54-.21s.4.09.39.54c-.01.45-.36 1-.36 1l-.55.24-.02-1.57Z" fill="#fff"/><path d="m92.09 49.554-3.18.48-.88-.59.21-1.03 3.67-.72s.52-.02.66.28c.14.29-.06.98-.15 1.18-.09.2-.33.41-.33.41v-.01ZM95.05 42.904l-.58-1.46 2.1-4.19.65.01.5.33.22.47-2.29 5.91-.6-1.07Z" fill="#4A508B"/><path d="m98.9 19.604.79.96-.09 10.11h-.7v-11.07Z" fill="#C2DEEE"/><path d="M98.9 19.604v11.07h-.7l-.1-10.11.8-.96Z" fill="#96B8CA"/><path d="M98.97 33.624s-.15.14-.51.06c-.36-.08-.48-.25-.48-.25l.04-.49.28-1 .5-.61.52.07-.05 1.34-.25.27-.05.61Z" fill="#EFB19A"/><path d="M100.26 30.554h-2.72v.38h2.72v-.38Z" fill="#DAB641"/><path d="M99.18 30.934h-.56v2.79h.56v-2.79Z" fill="#595757"/><path d="M99.18 30.934h-.56v.36h.56v-.36ZM99.18 31.334h-.56v.36h.56v-.36ZM99.18 31.744h-.56v.36h.56v-.36ZM99.18 32.144h-.56v.36h.56v-.36ZM99.18 32.554h-.56v.36h.56v-.36ZM99.18 32.954h-.56v.36h.56v-.36ZM99.18 33.353h-.56v.36h.56v-.36Z" fill="#21438E"/><path d="M98.62 33.894v-.17h.56v.17l-.07.17h-.44l-.05-.17Z" fill="#578FCC"/><path d="M98.1 31.824c.07-.21.13-.29.37-.45.24-.16.34-.36.39-.24.05.12.05.21-.05.31s-.24.28-.24.28.03 0 .05.29c.01.28-.13.52-.13.52l-.08.38h-.39l.07-.54s-.06-.35 0-.55h.01Z" fill="#EFB19A"/><path d="M99.51 31.954s.05.16.02.26c-.03.08-.04.22-.06.36.02.19-.16.22-.22.28-.07.06-.3 0-.4-.03-.09-.04-.29-.14-.27-.27.01-.14.22-.26.22-.26s-.15-.15-.13-.25c.02-.1.17-.18.17-.18s-.14-.12-.12-.23c.02-.11.2-.19.2-.19s-.13-.26-.06-.33.36-.02.47 0c.11.02.25.14.25.14l-.05.25s.07.12.07.19-.09.25-.09.25v.01Z" fill="#EC9875"/><path d="M54.57 44.434c.16 2.46 2.77 1.54 2.77 1.54s.49-2.09.65-3.71c.17-1.62.29-3.01.27-3.46-.02-.45.26-1.25.33-1.47.07-.22.25-.59.23-1.09-.02-.5-.17-.8-.17-.8s-.48-1.15-1.55-1.26c-1.07-.11-1.93.46-2.29 1.04-.36.58 0 2.55-.02 3.55-.02 1.17-.28 4.62-.22 5.65v.01Z" fill="#3E3A39"/><path d="M60.09 45.714c.3.22.64-.21.73-.51.09-.3-1.19-3.27-1.53-4.26-.34-1-1.45-1.5-1.45-1.5s-.21.49-.09.8c.12.31 1.56 4.6 1.78 5.12.22.52.26.12.57.35h-.01Z" fill="#fff"/><path d="M59.07 64.824c.21-.27-1.55-1.08-1.55-1.08l-.5-.05-.18.29-.02.3s.56.36.98.52c.42.15.98.38 1.26.02h.01Z" fill="#533C32"/><path d="m57.04 63.434-.05.5s.97.56 1.21.39c.24-.16-.63-.5-.63-.5l.1-.37-.63-.02Z" fill="#585757"/><path d="m57.67 63.454.75-2.24.8-3.55v-6l-1.98.3.47 5.62-.68 5.85c.23.07.36.15.63.02h.01Z" fill="#585757"/><path d="M56.08 66.574c.28-.23-1.27-1.45-1.27-1.45l-.49-.12s-.17.09-.24.18c-.07.09-.12.21-.12.21l-.04.27s.56.49.93.75c.44.31.76.54 1.22.17l.01-.01Z" fill="#533C32"/><path d="M54.34 64.844c.18.14.39.17.63.09l1.91-6.05.34-6.01 2-.72.08-1.79-4.08.56s-.22 1.03.16 1.97c.04.74-.11 6.09-.11 6.09l-.94 5.86h.01Z" fill="#585757"/><path d="m54.34 64.844-.13.47s.85.86 1.14.66c.24-.16-.48-.82-.48-.82l.1-.22-.63-.09Z" fill="#585757"/><path d="M54.94 58.624c.06.48.6 1.11 1.21.97.61-.14 1.26-.33 2.1-.6.84-.27 1.09-.24 1.23-3.48.11-2.56-.09-5.14-.09-5.14h-3.88s-.45.57-.52 1.16.2 1.25.27 1.64c.07.39-.13 3.17-.18 3.63-.07.74-.2 1.34-.14 1.83v-.01Z" fill="#031F6F"/><path d="M59.64 43.884c-.02-.54-.8-2.8-.8-2.8s-.46-1.1-.55-1.22c-.09-.13-.46-.42-.46-.42l-2.08.56-1.06.58-.11 2.89.56 5.21-.24 2.46s.49.47 1.52.63c.7.11 2.3-.17 2.68-.52.38-.35.56-1.07.56-1.07l-.3-4.22s.29-1.54.27-2.08h.01Z" fill="#1E2D75"/><path d="m56.5 40.523-.29.36.66.4.24-.45-.61-.31ZM57.6 40.434l-.43.35.28.34.33-.55-.18-.14Z" fill="#E73820"/><path d="m57.34 41.144-.39.09s-.23.53-.25.58c-.03.05-.19.71-.19.71l.25.49.72-.5-.13-1.37h-.01Z" fill="#B81C22"/><path d="M58.17 42.274v-.55l-.82-.68-.22.1.25.79.55.52.24-.18Z" fill="#B81C22"/><path d="m57.51 40.934-.25-.23-.25.08-.14.5h.18l.36-.06.1-.29Z" fill="#D70C18"/><path d="m57.74 41.004.32-.77-.68-.94-1.47.4-.18.27-.05.66.8.82.64-.68.62.24Z" fill="#fff"/><path d="M56.1 38.464c.1.29.68.83 1.16.75.48-.09.87-.56 1.04-.96.17-.4.3-2.09.3-2.09s-.47-.84-1.06-.69c-.58.15-1.42.72-1.42.72l-.07 1.15s-.2-.16-.34-.04c-.16.14-.07.64 0 .71.12.12.3.02.3.02s-.02.14.09.43Z" fill="#EFB19A"/><path d="m57.9 37.953.28-.22-.24-.67-.04.89Z" fill="#E9825D"/><path d="M58.06 35.864c.18.56.51 1.04.51 1.04s.17-.73.15-.83c-.02-.1-.4-1.03-1.08-.98-.68.05-1.3.25-1.7.76-.14.18-.02 1.28-.02 1.28s1.55-.41 2.16-1.27h-.02Z" fill="#3E3A39"/><path d="m57.51 38.854-1.21-.74-.13 2.05.88.6.46-.34v-1.57Z" fill="#EFB19A"/><path d="M60.33 45.964c.48-.02.42-.39.51-.81.09-.42-1.08-1.65-1.38-1.86-.3-.21-.56-.02-.56-.02s-.41.22-.37.63c.02.23.25.57.76 1.62.21.42.56.47 1.04.45v-.01Z" fill="#fff"/><path d="M58.75 40.334c-.26-.14-.41-.05-.41-.05s-.24.65-.47 1.39c-.23.74.31 1.3.31 1.3s.3.6.38.7c.08.1.14.23.44.18.31-.05.26-.41.26-.41s-.39-.44-.37-.56c.03-.19.16-.86.21-1.1.06-.23-.1-1.31-.36-1.45h.01Z" fill="#EB8F6F"/><path d="M56.82 47.184c.05-.18-1.23-5.74-2.04-6.61-.16-.17-.27.13-.58.47-.61.67-.34 1.64-.34 1.64s.72 3.7 1.73 4.69c.42.42 1.17-.02 1.22-.2l.01.01Z" fill="#fff"/><path d="M56.66 47.473c.81-.29 1.35-3.03 1.39-3.15.04-.12-.09-.79-.25-1.01-.16-.23-.4-.39-.75-.22s-1.26 2.69-1.26 2.69-.35 1.23-.32 1.45c.03.22.38.53 1.19.24Z" fill="#fff"/><path d="M58.53 40.334c-.14-.16-.19-.19-.26-.17-.07.02-.09.06-.24.22s-.18.48-.22.64c-.04.15-.24 1.51-.24 1.51l-.38.66.08.42.49.24.42-.79s.36-.24.53-1.04c.14-.66.12-1.15.02-1.2-.1-.05-.09-.11-.09-.11s.04-.21-.11-.37v-.01ZM43.5 41.803c-.48.03-.68-.24-.95-.85-.13-.38-.15-.66-.1-.75.02-.04.06-.1.15-.16.12-.08.23-.08.23-.08s.09-.12.19-.14c.09-.02.22 0 .22 0s.11-.1.22-.15c.11-.05.25.05.25.05s.09-.11.31-.06c.23.04.46.72.53.89.07.17 0 .87 0 .87l.2.45-.87.39-.21-.42s-.02-.05-.17-.04Z" fill="#EFB19A"/><path d="M44.16 40.174s.11.06.13.09c.02.03.03.17.01.24 0 .03-.02.05-.04.06 0 0-.02.01-.03.02-.05.04-.11.07-.17.1-.05.02-.1.04-.14.03-.1-.02-.26-.39-.32-.55v-.02l.09-.32s.02-.03.04-.02c.02 0 .03.02.02.04l-.08.31c.1.26.22.48.26.49.07.01.2-.08.26-.11.02-.01.03-.02.04-.02.02-.02.01-.17 0-.2 0 0-.04-.03-.08-.05l-.1.1s-.02.01-.03 0c-.01 0-.02-.01-.02-.02l-.03-.14s0-.04.03-.04c.02 0 .04 0 .04.03l.02.08.08-.07s.03-.01.04 0l-.02-.03Z" fill="#ED8A64"/><path d="M43.68 40.694s.11-.09.14-.13c.01-.01.03-.02.05 0 .01.01.02.03 0 .05-.02.02-.11.13-.17.15-.06.03-.22 0-.28-.04-.05-.04-.17-.36-.22-.49v-.02l.04-.29s.02-.03.04-.03.03.02.03.04l-.04.29c.07.2.17.43.2.45.04.03.18.05.21.03v-.01Z" fill="#ED8A64"/><path d="M43.33 40.844c.06-.02.14-.11.17-.15.01-.01.03-.02.05 0 .02.01.02.03 0 .05 0 0-.1.12-.19.16h-.01c-.1.03-.25-.02-.31-.05-.06-.03-.18-.35-.24-.53v-.02l.03-.28s.02-.03.04-.03.03.02.03.04l-.03.27c.08.22.18.46.21.49.05.03.18.07.25.05Z" fill="#ED8A64"/><path d="M42.57 40.984s-.02-.03 0-.05c.01-.01.03-.02.05 0 .05.04.19.14.29.1.12-.05.19-.16.19-.16.01-.02.03-.02.05-.01.02.01.02.03.01.05 0 0-.08.13-.22.19-.15.07-.35-.1-.36-.11l-.01-.01Z" fill="#ED8A64"/><path d="M43.6 41.164c.16.1.32.52.32.52s-.71.41-1.15-.2c-.31-.42-.18-.54-.18-.54s.08-.19.09-.23c.02-.04.33-.42.44-.42.11 0 .25.06.25.24 0 .13-.13.25-.17.34-.06.15-.03.22-.03.22s.33.02.42.07h.01Z" fill="#EFB19A"/><path d="M43.13 40.334c-.09 0-.39.36-.41.4-.01.03-.07.16-.09.23 0 .02-.03.03-.05.02-.02 0-.03-.03-.02-.05 0 0 .08-.19.1-.23.02-.03.33-.44.47-.44.08 0 .16.03.21.08.05.05.07.11.07.2 0 .09-.06.18-.11.25-.02.04-.05.07-.06.1-.03.09-.04.14-.03.17.09 0 .33.03.41.08.17.1.27.4.28.41 0 .02 0 .04-.02.04s-.04 0-.04-.02c0 0-.1-.29-.25-.37-.06-.03-.27-.06-.4-.07-.01 0-.02 0-.03-.02 0 0-.03-.08.03-.24.01-.03.04-.07.07-.11.05-.07.1-.14.1-.21 0-.06-.02-.11-.05-.15a.227.227 0 0 0-.16-.06l-.02-.01Z" fill="#ED8A64"/><path d="M41.16 48.274s-.34-.41-.56-.63c-.21-.21-.16-1.58-.16-1.58s.4-.06.85-.15c.79-.15 3.97-.88 3.97-.88l1.38.48-.26 1.06s-3.48 1.07-3.82 1.18c-.34.11-1.4.5-1.4.5v.02Z" fill="#3E3A39"/><path d="m43.48 42.164 1.31-.59.24.5-1.31.61-.24-.52Z" fill="#fff"/><path d="M46.38 46.594s-.57.27-.88.02c-.31-.25-2.02-4.03-2.02-4.03l1.64-.78s1.74 3.27 1.82 3.8c.08.53-.56.99-.56.99Z" fill="#3E3A39"/><path d="M40.71 73.924s.59.39 1.2.56c.61.17 1.1.12 1.46-.02.36-.14.18-.27.17-.53 0-.26-1.47-.87-1.47-.87l-.13-.19-1.55-.36-.34 1.07.36.2.11-.03.19.18v-.01ZM37.02 73.984s-.19.62-.19.67c0 .05.06.27.06.27h.02v.09s.31 1.16.54 1.38c.23.22.62.51 1.19.51.58 0 .64-.29.74-.56.11-.27-.67-1.24-.67-1.24l-.16-.47.05-.26-1.58-.39Z" fill="#804C2E"/><path d="M41.34 73.314c.86-.08.73-.65.73-.65l-.29-6.03-.05-8.09-3.14.71 1.09 7.45.5 6.4s.3.3 1.17.22l-.01-.01Z" fill="#2E2624"/><path d="M37.59 74.834c.97.14 1.17-.18 1.17-.18l.27-6.69.61-7.15 2.09-1.13v-1.89s-1.63.32-2.35.4c-.71.08-2.65.03-2.65.03s-.19 2.38-.07 3.25c0 2.49.23 6.04.24 6.22.01.66-.08 6.3-.08 6.3s-.17.7.77.83v.01Z" fill="#3E3A39"/><path d="M39.66 59.364c1.06-.24 1.02-.31 1.02-.31l.16-.82.16.68s.43-.19.67-.48c.24-.29.28-.95.28-.95s.07-2.76.03-3.23c-.04-.47-.09-4.51-.21-5.22s-.41-2.3-.57-2.51c-.16-.2-.68-.38-.68-.38s-1.47.2-1.84.31c-.37.11-2.02 1.06-2.02 1.06s-.16.21-.19.51c-.03.3-.05 6.1 0 6.71.05.61-.03 4.36-.03 4.36s2.16.51 3.22.27Z" fill="#4C4948"/><path d="M40.32 50.964c.11-.06.2-.22.2-.35 0-.13-.09-.18-.2-.12a.44.44 0 0 0-.2.35c0 .13.09.18.2.12ZM40.53 53.084c.11-.06.2-.22.2-.35 0-.13-.09-.18-.2-.12a.44.44 0 0 0-.2.35c0 .13.09.18.2.12ZM40.62 55.294c.11-.06.2-.22.2-.35 0-.13-.09-.18-.2-.12a.44.44 0 0 0-.2.35c0 .13.09.18.2.12ZM40.73 57.644c.11-.06.2-.22.2-.35 0-.13-.09-.18-.2-.12a.44.44 0 0 0-.2.35c0 .13.09.18.2.12ZM40.03 48.594c.11-.06.2-.22.2-.35 0-.13-.09-.18-.2-.12a.44.44 0 0 0-.2.35c0 .13.09.18.2.12Z" fill="#EAD273"/><path d="M36.98 50.804s.4-.98.38-1.29c-.13-1.81-.67-2-.67-2s-.99 1.04-1.34 1.57c-.36.53-2.52 3.23-2.52 4.06 0 .2.44.8.44.8h1.4l2.32-3.13-.01-.01Z" fill="#3E3A39"/><path d="M35.97 59.054s-.1-.03-.16-.08-.16-.03-.22 0c-.06.04.03.13.17.23s.12.06.29.07c.16 0 .17-.04.28-.13.11-.09.23-.34.23-.34s-.1.38-.18.44c-.08.07-.2.15-.29.14-.09-.01-.16-.07-.21-.09-.05-.01-.04.12-.05.17 0 .04.08.13.14.15.06.02.21.08.4 0 .19-.08.4-.28.4-.28s-.25.28-.3.32c-.05.03-.24.09-.34.11-.1.02-.1.07-.11.15 0 .08.1.09.32.12s.46-.12.57-.19c.11-.07.35-.3.41-.42.05-.12-.03-1.1-.03-1.1l-1.1-.35s-.03.24-.04.28c0 .04-.18.39-.18.39l-.15.03s-.01-.11 0-.15c0-.04-.05-.12-.13-.09-.05.02-.05.24-.05.3 0 .07.08.16.22.16.13 0 .22-.03.29-.09.06-.06.14-.26.14-.26s-.05.31-.13.41c-.07.1-.16.1-.19.1Z" fill="#F08F71"/><path d="M36.54 59.034c-.2-.08-.25.1-.3.2-.04.1.36.27.74.31.39.04.52-.2.58-.57.06-.36-.06-.77-.14-.94-.08-.17-.54-.55-.54-.55l-1.13.19s.09.42.16.57c.07.14.25.25.63.41.37.16.3.17.37.25.07.08.04.2 0 .24-.04.03-.17-.03-.37-.11Z" fill="#EFB19A"/><path d="M36.82 58.074c.45-.11.43-.53.43-.53l-.36-.48-1.55.43.39.48s.63.2 1.09.1Z" fill="#fff"/><path d="M36.9 57.614c.25-.22.1-.72.1-.72l-2.31-4.04-1.08.06-.36 1.03 1.94 3.62s.27.18.49.22c.23.04.95.05 1.21-.16l.01-.01ZM38.52 45.254l.6-.18.83-.29 1.27-.85.26-1.49.16-.58s-.15-.47-.22-.55c-.46-.51-1.33-.82-1.33-.82s-.96-.05-1.32.02c-.55.11-.98.5-1.22.95-.24.45-.09 1.31-.08 1.7.01.39.61 1.72.61 1.72l.45.39-.01-.02Z" fill="#3E3A39"/><path d="m39.92 45.364-1.25-.77-.14 2.13 1.12.4.27-.62v-1.14Z" fill="#EFB19A"/><path d="M38.39 44.394s.04.89.25 1.14c.21.24.58.45 1.06.44.48-.01.91-.2 1.12-.38.21-.18.31-.77.37-1.2.06-.43 0-1.43 0-1.43l-.1-.77-.16-.15-.2.32-.25-.36-.12.44-.49-.39-1.32.46-.14.99s-.11-.06-.21-.1c-.1-.04-.18.06-.24.23-.06.18.03.64.09.72.06.08.33.05.33.05l.01-.01Z" fill="#EFB19A"/><path d="m40.39 44.514.35-.28-.32-.78-.03 1.06Z" fill="#E9825D"/><path d="m40.04 46.544.04-.34v-.06h-.05s-.1.15-.29.18c-.19.03-.5 0-.77-.1-.27-.11-.44-.26-.44-.26v.18l1.09 1.17.23-.04.19-.74v.01Z" fill="#fff"/><path d="M39.05 46.344c-.38-.1-.58-.3-.58-.3l-.27.74s.72.8 1.48.62c.46-.11.45-.64.45-.64l-.04-.6-.17.14c-.06.04-.14.06-.14.06v.88h-.08v-.85s-.35.03-.65-.05Z" fill="#3E3A39"/><path d="m135.48 87.104.02-8.81c0-.25-.13-.49-.35-.62l-.03-.02c-1.13-.69-4.01-2.61-6.43-5.39l-.02-.02a.709.709 0 0 0-.54-.25h-.03c-2.46-.04-5.18-1.4-6.24-1.98l-.09-.05a.726.726 0 0 0-1.08.64l-.03 8.87c0 .24.11 5.78 6.8 13.07l.02.02c.12.13.29.22.47.23h.02c.36.04.72.05 1.06.05 5.04 0 6.41-3.75 6.43-5.73l.02-.01Zm-3.8-8.43v1.2l-6.95-4.01v-1.2l6.95 4.01Z" fill="#EEEEEF"/><path d="m134.68 87.094.02-8.77c-1.21-.74-4.12-2.69-6.61-5.54-2.63-.04-5.46-1.45-6.61-2.08l-.02 8.76c0 .22.1 5.46 6.59 12.53 6.5.6 6.63-4.67 6.63-4.9Zm-3-8.42v1.2l-6.95-4.01v-1.2l6.95 4.01Z" fill="#23B6BC"/><path d="M125.16 74.914v.79l-.44.16.01-1.2.43.25Z" fill="#595757"/><path d="m125.16 75.704 6.51 3.71v.46l-6.95-4.01.44-.16Z" fill="#595757"/><path d="M125.04 79.624s-2.7-1.37-3.1-1.58c-.4-.21-.45-.83-.27-1.09.18-.26.82-.32.82-.32l3.24 1.64s-.08.37-.2.69c-.12.32-.48.66-.48.66h-.01Z" fill="#3E3A39"/><path d="M124.99 79.424s-.05-.19.05-.54c.1-.35.49-.53.49-.53l.32.14s-.02.31-.2.68c-.09.18-.31.4-.31.4l-.35-.15Z" fill="#fff"/><path d="M126.19 80.384c-.36-.07-.42-.22-.49-.4a6.69 6.69 0 0 0-.24-.46l-.21-.14-.03-.3.72-.41h.47l.87.17.1.05-.28.69-.33.97s-.22-.11-.58-.18v.01Z" fill="#F0906B"/><path d="m127.249 80.654.42.25-.47.27-.42-.25.47-.27Z" fill="#595757"/><path d="M126.91 81.344v.31l-.43-.24v-3.13l-.01-.31.3-.17.47-.27.43.24-.48.28-.29.17v.31l.01 2.81Z" fill="#595757"/><path d="m127.669 80.904.01.31-.48.27-.29.17v-.31l-.01-2.81v-.31l.29-.17.48-.28v.32l-.47.27v2.81l.47-.27Z" fill="#727172"/><path d="M126.38 79.434c-.03-.15.11-.26.3-.25.19.02.36.08.36.08l.35-.37.17.4s-.24.37-.39.44c-.15.07-.75-.15-.78-.31l-.01.01Z" fill="#EFB19A"/><path d="M126.35 79.824c-.03-.15.11-.26.3-.25.19.01.36.08.36.08l.35-.37.23.28s-.3.5-.45.57c-.15.07-.75-.15-.78-.31h-.01Z" fill="#EFB19A"/><path d="M126.32 80.214c-.03-.15.11-.26.3-.25.19.02.36.08.36.08l.35-.37.23.28s-.3.5-.45.57c-.15.07-.75-.15-.78-.31h-.01Z" fill="#EFB19A"/><path d="M126.37 80.414c0-.13.14-.19.29-.14.15.05.27.13.27.13l.35-.23.14.27s-.34.35-.47.38c-.13.03-.58-.27-.58-.4v-.01Z" fill="#EFB19A"/><path d="M126.35 79.924c-.05-.23-.09-.48-.09-.48s-.17.09-.28.08c-.11-.01-.2-.06-.24-.14-.04-.08-.52-.3-.52-.3.09-.28.45-.54.45-.54l.44.21.31.05s.18.24.27.34c.09.1.15.78.02.87-.13.09-.3.14-.36-.09Z" fill="#F3A481"/><path d="M119.86 79.254c.17-.28.44-.54.44-.54l1.38-1.76 1.02.37.08 1.03-1.3 1.46-2.2.84s.41-1.13.58-1.4Z" fill="#3E3A39"/><path d="M124.2 79.194s-.17-.28-.06-.76c.11-.48.8-.88.8-.88l.08-.6.39.23-.06.49s-.76.47-.83 1c-.07.53.15.76.15.76l-.48-.24h.01Z" fill="#595757"/><path d="m122.79 74.384 1.6.9s.01 1.36.02 1.52c.03.45.21 1.06-.17 1.7-.28.48-.83.35-.83.35l-.33.88-2.06-.52.48-1.23-.33-2.9 1.63-.69-.01-.01Z" fill="#EFB19A"/><path d="m123.5 77.603-.26.52-.79.43-.75-.13-.29-.12s-1.17-1.33-.97-2.93c.19-1.5 1.13-1.83 1.76-1.83.35 0 .84-.09 1.12.02l.23.21.44.15.35.5.14.49c.07.37-.09.71-.09.71l-.21-.11-.44.08.1.36-.12.97s-.34-.18-.48-.1c-.14.08-.25.51-.18.62.07.12.43.15.43.15l.01.01Z" fill="#3E3A39"/><path d="M122.07 97.044c-.28.04-.5.13-.76.07-.27-.06-.46-.43-.46-.43l.11-.73.7-.13s1.15-.29 1.41-.29.87.07.92.44c.05.37-.07.45-.07.45s-1.57.58-1.85.62Z" fill="#595757"/><path d="M121.73 96.514c-.86-.12-.85-.75-.85-.75l-.09-3.2-3.97-1.57-.48-1.28 1.53-.68 5 2.27-.05 4.87s-.32.45-1.08.34h-.01Z" fill="#2E2624"/><path d="M115.88 89.934c-.31-.9.09-1.92.09-1.92l5.04 1.92-.33.55-2.05 4.96-4.39 3.89s-.43.27-1.1-.3c-.59-.5-.66-.79-.58-1.02.08-.23 3.57-3.52 3.57-3.52l.91-3.3s-.9-.52-1.15-1.25l-.01-.01Z" fill="#3E3A39"/><path d="m112.11 98.834.73-.63s.41.06.69.27c.28.21.42.64.42.64l-.68.5-.78-.19-.39-.59h.01Z" fill="#9E9E9F"/><path d="M112.4 100.924c-.3-.19-.44-.53-.52-.87-.08-.34-.05-1.03 0-1.2.05-.17.42-.29.42-.29s.32-.22.82.1c.37.24.46.92.46.92s.03.7.12.87c.09.16.32.07.48.21.17.15.08.42 0 .49s-.33.13-.65.13-.83-.17-1.13-.37v.01Z" fill="#595757"/><path d="M111.92 100.514c-.12-.25-.09-1.63-.09-1.63s.16-.22.43-.13.64.4.69.77c.05.37.04.76.09 1.05.05.29.56.71.56.71s-.58.03-.91-.07c-.33-.09-.64-.46-.76-.71l-.01.01Z" fill="#888"/><path d="m120.53 79.444.27-.48s.28-.07.75 0c.42.06 1.64.64 1.64.64l.16.69s-1.74-.79-2.07-.86c-.36-.08-.76 0-.76 0l.01.01Z" fill="#3E3A39"/><path d="M116.55 89.094c-.16-.1-.95-1.15-.95-1.15s2.15-3.73 2.42-4.08c.27-.35.78-2.15 1.13-2.95.35-.81 1.03-1.62 1.03-1.62s.52-.11 1.18.03c1.32.27 2.6 1.23 2.6 1.23l.13 1.02-.48 1.64s-.53 1.48-.99 2.97c-.46 1.49-1.16 3.85-1.16 3.85s-.26.24-.32.26c-.06.02-1.15.12-1.89 0s-1.87-.64-1.87-.64l.04-.76-.44.52s-.26-.2-.42-.3l-.01-.02Z" fill="#4C4948"/><path d="M131.63 84.133c.06.15-.06.22-.25.26-.19.04-.69.02-.85-.04-.16-.06-.45-.18-.45-.18s.2.3.33.38c.16.1.5.19.46.27-.04.08-.19.16-.66-.06-.16-.07-.44-.3-.55-.38-.11-.08-.39-.27-.39-.27l-.5.17-.39-.92.45-.22s.02-.64.03-.9c.01-.26.03-.64.2-.58.2.07.16.5.22.7.03.09.23.36.23.36s.86 0 1.1-.04c.42-.07.75-.32.83 0 .05.18-.44.33-.67.4-.17.05-.73.13-.73.13s.58.14.8.14c.22 0 .7-.09.76 0 .07.09-.03.25-.22.28-.19.03-.86.08-.95.07-.09-.01-.29-.01-.29-.01s.66.34.86.36c.2.02.57-.05.62.09l.01-.01Z" fill="#EFB19A"/><path d="m128.08 83.344.43-.21s.33 0 .57.38c.22.35.08.65.08.65l-.41.18-.68-1h.01Z" fill="#fff"/><path d="M123.12 82.614s-.22-.93 0-1.35c.22-.42.85-.71.85-.71l2.8 3.68v.53l-.4.68-.81.04-2.44-2.87Z" fill="#3E3A39"/><path d="M125.56 85.484v-1.03l.62-.48 2-.78s.46.03.69.42c.16.27.14.75.14.75l-2.65 1.37-.81-.25h.01Z" fill="#3E3A39"/><path d="M90.44 81.144c0 .09-.12.31-.12.31s-.38.06-.47.05c-.09-.01-.65-.19-.65-.19s-.13-.16-.13-.23.01-.27.01-.27l.34-.86.17-.54.95.22-.15.77s.05.64.04.74h.01Z" fill="#EFB19A"/><path d="M90.27 79.884c-.44-.02-.77-.32-.77-.32l.11-.62 1.28.23-.15.63s-.03.1-.47.08Z" fill="#fff"/><path d="M90.96 79.424s-.18.17-.57.15c-.72-.04-.95-.39-.95-.39l.57-3.68 5.06-.16.11.8-.48 1.02-3.31-.12-.44 2.38h.01Z" fill="#3E3A39"/><path d="m91 81.184 11.07 2.63-1.15.56-10.09-2.49.17-.7Z" fill="#9FD0ED"/><path d="m91.16 80.484 10.13 2.3.78 1.03L91 81.184l.16-.7Z" fill="#84BBD9"/><path d="m91.064 79.758-.645 2.715.38.09.644-2.715-.38-.09Z" fill="#DAB641"/><path d="m88.026 80.173-.134.564 2.782.661.134-.564-2.782-.661Z" fill="#595757"/><path d="m90.444 80.75-.134.564.36.086.134-.564-.36-.086ZM90.044 80.646l-.134.564.36.086.134-.565-.36-.085ZM89.644 80.554l-.134.564.36.086.134-.565-.36-.085ZM89.232 80.47l-.134.564.36.086.134-.565-.36-.085ZM88.832 80.366l-.134.565.36.085.134-.564-.36-.086ZM88.432 80.265l-.134.564.36.086.134-.565-.36-.085ZM88.02 80.18l-.133.564.36.086.134-.565-.36-.085Z" fill="#21438E"/><path d="m87.56 80.594.11-.44.18-.02.18.04-.14.57-.17-.04-.16-.11Z" fill="#578FCC"/><path d="M90.05 81.574c-.06 0-.15 0-.25-.01-.1 0-.15-.03-.19-.07-.04-.04-.12-.04-.3-.09-.18-.05-.2-.14-.22-.2-.02-.06 0-.22 0-.22l.12.05.09-.02.07-.16.03-.07s.02-.07.07-.1c.04-.02.08 0 .15.03.06.03.07.08.07.08s.07-.09.15-.07c.09.02.11.11.11.11s.07-.08.15-.06c.08.02.1.09.1.09s.03-.06.05-.07c.02-.01.12-.01.18.03s.05.29.05.37c0 .08-.15.31-.15.31s-.21.09-.27.08l-.01-.01Z" fill="#EC9875"/><path d="M89.96 81.064c-.18.02-.22-.04-.18-.15.04-.09.27-.2.33-.23h.01-.01c-.02 0-.08.01-.14-.06-.09-.11-.05-.44-.05-.44l.58-.3-.07.37s.18.31.18.51-.47.29-.65.31v-.01ZM97.42 70.294l1.64.81.1 1.52c.05.45.27 1.05-.08 1.71-.25.49-.81.39-.81.39l-.29.9-2.09-.41.41-1.25-.48-2.88 1.59-.78.01-.01Z" fill="#EFB19A"/><path d="m98.3 73.474-.23.53-.76.48-.76-.09-.3-.1s-1.24-1.27-1.13-2.87c.11-1.5.89-1.76 1.51-1.79.35-.02.71-.46 1-.36l.61-.1.56.16.54.68.14.73c.09.36-.39.71-.39.71l-.22-.1-.43.1.12.35-.07.97s-.35-.17-.49-.08c-.14.09-.22.52-.14.63.08.11.44.13.44.13v.02Z" fill="#804C2E"/><path d="M97.44 94.554s-1.68.06-1.95 0c-.28-.05-.51-.03-.75-.18-.23-.14-.3-.55-.3-.55l.34-.66.71.1s1.18.09 1.43.17c.25.08.8.35.73.71-.07.36-.21.4-.21.4v.01Z" fill="#595757"/><path d="m92.71 85.474 1.67-.17 4.15 3.03-2.04 5.55s-.44.34-1.13 0c-.77-.39-.67-.66-.67-.66l1.42-4.17-3.34-2.22-.06-1.36Z" fill="#2E2624"/><path d="M91.35 86.193c-.36-.88-.01-1.92-.01-1.92l5.14 1.64-.3.56-2.19 5.03-3.76 2.7s-.42.29-1.11-.24c-.62-.47-.7-.76-.63-.99.07-.23 3.29-2.68 3.29-2.68l.81-2.92s-.93-.47-1.22-1.19l-.02.01Z" fill="#3E3A39"/><path d="m88.07 93.834.7-.67s.42.04.71.23c.29.2.46.62.46.62l-.66.54-.78-.15-.42-.57h-.01Z" fill="#9E9E9F"/><path d="M87.84 93.864c.04-.18.4-.31.4-.31s.3-.24.82.06c.39.22.5.89.5.89s.17 1.15.21 1.37c.08.5-.27.76-.59.77-.32.01-1.39-2.61-1.35-2.79l.01.01Z" fill="#595757"/><path d="M88.62 96.414c-.42-.36-.45-.69-.58-.93-.13-.24-.23-1.58-.23-1.58s.15-.22.42-.15.66.36.73.73c.07.37.08.76.15 1.05.03.14.18.38.24.51.09.18.03.58-.17.62-.11.02-.42-.14-.54-.23l-.02-.02Z" fill="#888"/><path d="m95.43 75.474.25-.49s.28-.08.75-.04c.42.04 1.67.55 1.67.55l.19.68s-1.78-.7-2.11-.75c-.37-.06-.75.04-.75.04v.01Z" fill="#3E3A39"/><path d="M96.93 85.984s-.25.26-.31.28c-.06.02-1.14.18-1.89.1-.75-.08-1.9-.54-1.9-.54v-.77l-.41.55s-.27-.19-.44-.28c-.17-.09-1.01-1.1-1.01-1.1s1.95-3.84 2.2-4.2c.25-.36.66-2.19.97-3.01.31-.82.95-1.68.95-1.68s.51-.13 1.18-.04c1.33.2 2.67 1.09 2.67 1.09l.19 1.01-.4 1.66s-.45 1.5-.83 3.01c-.38 1.51-.96 3.9-.96 3.9l-.01.02Z" fill="#4C4948"/><path d="m103.11 69.054.14-.07s.06-.5.2-.51c.14-.01.37.06.37.06s.2 0 .26.02.18.11.18.11.13-.04.19 0 .09.13.09.13.16.01.2.04c.04.03.18.19.19.26.01.07 0 .45-.06.71-.06.26-.47.97-.47.97l-.14 1.41-1.14-.14.12-1.37s-.35-.91-.36-1.11c0-.2.23-.53.23-.53v.02Z" fill="#EFB19A"/><path d="M103.04 70.974s.36-.18.76-.14c.41.05.64.3.64.3l-.08.74-1.41-.2.08-.7h.01Z" fill="#fff"/><path d="m98.41 78.374-.09-1.07.27-1.11 4.07-.62.49.08.53.61-.18 1.39-4.71 1.12-.38-.4Z" fill="#4C4948"/><path d="m103.15 76.634-.78-.97.48-4.32s.6-.24 1.1-.08c.5.16.62.54.62.54l-.55 4.67-.52 1.17-.35-1.01Z" fill="#4C4948"/><path d="m84.87 77.564.02-8.81c0-.25-.13-.49-.35-.62l-.03-.02c-1.13-.69-4.01-2.61-6.43-5.39l-.02-.02a.709.709 0 0 0-.54-.25h-.03c-2.46-.04-5.18-1.4-6.24-1.98l-.09-.05a.726.726 0 0 0-1.08.64l-.03 8.87c0 .24.11 5.78 6.8 13.07l.02.02c.12.13.29.22.47.23h.02c.36.04.72.05 1.06.05 5.04 0 6.41-3.75 6.43-5.73l.02-.01Zm-3.8-8.43v1.2l-6.95-4.01v-1.2l6.95 4.01Z" fill="#DBDCDC"/><path d="m84.07 77.554.02-8.77c-1.21-.74-4.12-2.69-6.61-5.54-2.63-.04-5.46-1.45-6.61-2.08l-.02 8.76c0 .22.1 5.46 6.59 12.53 6.5.6 6.63-4.67 6.63-4.9Zm-3-8.42v1.2l-6.95-4.01v-1.2l6.95 4.01Z" fill="#E95504"/><path d="M74.56 65.374v.79l-.44.16v-1.2l.44.25Z" fill="#595757"/><path d="m74.56 66.164 6.51 3.71-.01.46-6.94-4.01.44-.16Z" fill="#595757"/><path d="M74.43 70.084s-2.7-1.37-3.1-1.58c-.4-.21-.45-.83-.27-1.09.18-.26.82-.32.82-.32l3.24 1.64s-.08.37-.2.69c-.12.32-.48.66-.48.66h-.01Z" fill="#3E3A39"/><path d="M74.38 69.883s-.05-.19.05-.54c.1-.35.49-.53.49-.53l.32.14s-.02.31-.2.68c-.09.18-.31.4-.31.4l-.35-.15Z" fill="#fff"/><path d="M75.59 70.844c-.36-.07-.42-.22-.49-.4-.08-.18-.24-.46-.24-.46l-.21-.14-.03-.3.72-.41h.47l.87.17.1.05-.28.69-.33.97s-.22-.11-.58-.18v.01Z" fill="#F0906B"/><path d="m76.64 71.114.43.25-.47.27-.43-.25.47-.27Z" fill="#595757"/><path d="M76.3 71.804v.31l-.42-.24v-.32l-.01-2.81v-.31l.29-.17.47-.27.43.24-.47.28-.3.17v.31l.01 2.81Z" fill="#595757"/><path d="M77.07 71.364v.31l-.47.27-.3.17v-.31l-.01-2.81v-.31l.3-.17.47-.28v.32l-.47.27.01 2.81.47-.27Z" fill="#727172"/><path d="M75.77 69.894c-.03-.15.11-.26.3-.25.19.02.36.08.36.08l.35-.37.17.4s-.24.37-.39.44c-.15.07-.75-.15-.78-.31l-.01.01Z" fill="#EFB19A"/><path d="M75.74 70.284c-.03-.15.11-.26.3-.25.19.02.36.08.36.08l.35-.37.23.28s-.3.5-.45.57c-.15.07-.75-.15-.78-.31h-.01Z" fill="#EFB19A"/><path d="M75.71 70.674c-.03-.15.11-.26.3-.25.19.02.36.08.36.08l.35-.37.23.28s-.3.5-.45.57c-.15.07-.75-.15-.78-.31h-.01Z" fill="#EFB19A"/><path d="M75.76 70.874c0-.13.14-.19.29-.14.15.05.27.13.27.13l.35-.23.14.27s-.34.35-.47.38c-.13.03-.58-.27-.58-.4v-.01Z" fill="#EFB19A"/><path d="M75.74 70.384c-.05-.23-.09-.48-.09-.48s-.17.09-.28.08c-.11-.01-.2-.06-.24-.14-.04-.08-.52-.3-.52-.3.09-.28.45-.54.45-.54l.44.21.31.05s.18.24.27.34c.09.1.15.78.02.87-.13.09-.3.14-.36-.09Z" fill="#F3A481"/><path d="M69.25 69.714c.17-.28.44-.54.44-.54l1.38-1.76 1.02.37.08 1.03-1.3 1.46-2.2.84s.41-1.13.58-1.4Z" fill="#3E3A39"/><path d="M73.6 69.654s-.17-.28-.06-.76c.11-.48.8-.88.8-.88l.08-.6.39.23-.06.49s-.76.47-.83 1c-.07.53.15.76.15.76l-.48-.24h.01Z" fill="#595757"/><path d="m72.18 64.844 1.6.9s.01 1.36.02 1.52c.03.45.21 1.06-.17 1.7-.28.48-.83.35-.83.35l-.33.88-2.06-.52.48-1.23-.33-2.9 1.63-.69-.01-.01Z" fill="#EFB19A"/><path d="m72.89 68.053-.26.52-.52.38-.96-.11-.35-.08s-1.17-1.33-.97-2.93c.19-1.5 1.13-1.83 1.76-1.83.35 0 .84-.09 1.12.02l.56.23.5.44.44.49.05.26c-.06.37-.21.74-.21.74l-.45-.23-.44.08.1.36-.12.97s-.34-.18-.48-.1c-.14.08-.25.51-.18.62.07.12.43.15.43.15l-.02.02Z" fill="#694A31"/><path d="M71.46 87.504c-.28.04-.5.13-.76.07-.27-.06-.46-.43-.46-.43l.11-.73.7-.13s1.15-.29 1.41-.29.87.07.92.44c.05.37-.07.45-.07.45s-1.57.58-1.85.62Z" fill="#595757"/><path d="M71.12 86.974c-.86-.12-.85-.75-.85-.75l-.09-3.2-3.97-1.57-.48-1.28 1.53-.68 5 2.27-.05 4.87s-.32.45-1.08.34h-.01Z" fill="#2E2624"/><path d="M65.27 80.394c-.31-.9.09-1.92.09-1.92l5.04 1.92-.33.55-2.05 4.96-4.39 3.89s-.43.27-1.1-.3c-.59-.5-.66-.79-.58-1.02.08-.23 3.57-3.52 3.57-3.52l.91-3.3s-.9-.52-1.15-1.25l-.01-.01Z" fill="#3E3A39"/><path d="m61.51 89.294.73-.63s.41.06.69.27c.28.21.42.64.42.64l-.68.5-.78-.19-.39-.59h.01Z" fill="#9E9E9F"/><path d="M61.79 91.384c-.3-.19-.44-.53-.52-.87-.08-.34-.05-1.03 0-1.2.05-.17.42-.29.42-.29s.32-.22.82.1c.37.24.46.92.46.92s.03.7.12.87c.09.16.32.07.48.21.17.15.08.42 0 .49s-.33.13-.65.13-.83-.17-1.13-.37v.01Z" fill="#595757"/><path d="M61.32 90.974c-.12-.25-.09-1.63-.09-1.63s.16-.22.43-.13.64.4.69.77c.05.37.04.77.09 1.05.05.29.56.71.56.71s-.58.03-.91-.07c-.33-.09-.64-.46-.77-.71v.01Z" fill="#888"/><path d="m69.92 69.904.27-.48s.28-.07.75 0c.42.06 1.64.64 1.64.64l.16.69s-1.74-.79-2.07-.86c-.36-.08-.76 0-.76 0l.01.01Z" fill="#3E3A39"/><path d="M65.95 79.554c-.16-.1-.95-1.15-.95-1.15s2.15-3.73 2.42-4.08c.27-.35.78-2.15 1.13-2.95.35-.81 1.03-1.62 1.03-1.62s.52-.11 1.18.03c1.32.27 2.6 1.23 2.6 1.23l.13 1.02-.48 1.64s-.53 1.48-.99 2.97c-.46 1.49-1.16 3.85-1.16 3.85s-.26.24-.32.26c-.06.02-1.15.12-1.89 0s-1.87-.64-1.87-.64l.04-.77-.44.52s-.26-.2-.42-.3l-.01-.01Z" fill="#4C4948"/><path d="M81.02 74.594c.06.15-.06.22-.25.26-.19.04-.69.02-.85-.04-.16-.06-.45-.18-.45-.18s.2.3.33.38c.16.1.5.19.46.27-.04.08-.19.16-.66-.06-.16-.07-.44-.3-.55-.38-.11-.08-.39-.27-.39-.27l-.5.17-.39-.92.45-.22s.02-.64.03-.9c.01-.26.03-.64.2-.58.2.07.16.5.22.7.03.09.23.36.23.36s.86 0 1.1-.04c.42-.07.75-.32.83 0 .05.18-.44.33-.67.4-.17.05-.73.13-.73.13s.58.14.8.14c.22 0 .7-.09.76 0 .07.09-.03.25-.22.28-.19.03-.86.08-.95.07-.09-.01-.29-.01-.29-.01s.66.34.86.36c.2.02.57-.05.62.09l.01-.01Z" fill="#EFB19A"/><path d="m77.47 73.804.43-.21s.33 0 .57.38c.22.35.08.65.08.65l-.41.18-.68-1h.01Z" fill="#fff"/><path d="M72.51 73.074s-.22-.93 0-1.35c.22-.42.85-.71.85-.71l2.8 3.68v.53l-.4.68-.81.04-2.44-2.87Z" fill="#3E3A39"/><path d="M74.95 75.944v-1.03l.62-.48 2-.78s.46.03.69.42c.16.27.14.75.14.75l-2.65 1.37-.81-.25h.01Z" fill="#3E3A39"/><path d="m104.01 95.834.15-.31s.11-.11.32-.19c.2-.08.24-.17.48-.59.23-.41.13-.32.18-.41.05-.08.12-.27.16-.39.05-.12-.01-.19 0-.27 0-.09 0-.22-.02-.33 0-.1-.14-.19-.34-.03s-.17.12-.29.32l-.33.55s.01-.17.07-.28c.07-.14.17-.31.15-.41-.02-.11-.17 0-.3.19-.12.16-.24.44-.42.66-.18.22-.11.62-.11.62l-.2.48.52.38-.02.01Z" fill="#EFB19A"/><path d="M104.13 96.223s-.05-.46-.29-.64c-.24-.19-.66-.14-.66-.14l-1.3 2.13-4.19 2.08 1.12 1.37s4.04-2.07 4.16-2.12c.12-.05 1.17-2.67 1.17-2.67l-.01-.01Z" fill="#252A36"/><path d="m110.721 90.924-13.44 7.79-.48.68 13.44-7.79.48-.68Z" fill="#E73820"/><path d="m110.241 89.684-13.44 7.8.48 1.23 13.44-7.79-.48-1.24Z" fill="#E95532"/><path d="m109.281 89.124-13.44 7.8.96.56 13.44-7.8-.96-.56Z" fill="#EC6D45"/><path d="m97.28 98.714-.48-1.23-.96-.56-.48.68.48 1.24.96.55.48-.68Z" fill="#E0A45F"/><path d="M96.56 98.354c.01-.19-.12-.43-.3-.54-.18-.11-.34-.04-.36.15-.01.19.12.43.3.54.18.11.34.04.36-.15Z" fill="#E73820"/><path d="m110.41 91.354.31-.44.47-.87.22-.72-.64-.15-1.49-.06-.17.1s.31 0 .47.15c.14.12-.12.35.12.64.23.28.52.14.73.46.18.26.05.59.05.59l-.07.29v.01Z" fill="#E0A45F"/><path d="m111.64 89.224-.87-.03s.28.12.37.33c.09.21.05.53.05.53l.45-.83Z" fill="#E73820"/><path d="M102.07 124.734c.33-.04 2.18-.73 2.18-.73s.14-.1.08-.53c-.06-.43-.78-.52-1.08-.52-.3 0-1.66.34-1.66.34l-.83.15-.13.86s.23.43.54.51c.32.07.57-.04.9-.08ZM98.64 123.064c.29-.04 1.94-.65 1.94-.65s.12-.08.07-.47c-.05-.38-.69-.46-.97-.46s-1.48.3-1.48.3l-.74.13-.12.77s.2.38.48.45c.28.07.51-.03.8-.07h.02Z" fill="#694A31"/><path d="m99.1 122.354.95-12.44-2.53-.37-.1 12.42s0 .42.53.65c.57.25 1.15-.26 1.15-.26Z" fill="#595757"/><path d="M101.31 124.244c.24.1.64.16.96-.01.35-.19.58-.45.58-.45l-.05-15.98-5.28-.58v2.33l2.13 1.15 1.1 12.87s0 .43.55.68l.01-.01Z" fill="#717071"/><path d="m101.44 97.924.07-.97s.56-.33.67-.84c.11-.51-.07-1.2-.13-1.34-.06-.14-.26-1.27-.26-1.27l-1.64-.56-1.4.93.8 2.65.09 1.15 1.8.26v-.01Z" fill="#EFB19A"/><path d="M101.98 98.214c-.27-.12-1.2-.67-2.09-.76-.88-.09-1.15.16-1.39.38s-.6 1.07-.8 1.7c-.19.63-.28 8.98-.28 8.98s.11.33.57.61c.31.19 1.36.78 2.8.69.87-.05 2.42-.61 2.42-.61s-.1-6.24-.15-6.83c-.05-.59 0-3.52 0-3.52s-.81-.52-1.09-.63l.01-.01Z" fill="#333C49"/><path d="M102.21 93.514s-.45-.57-.88-.8c-.61-.33-1.01-.38-1.59-.27-.58.11-1.63.6-1.55 2.03.09 1.52 1.35 2.36 1.35 2.36l.34.02.92-.07.42-.44.15-.53s-.35.03-.43-.07c-.09-.1-.06-.51.06-.61.12-.1.47.01.47.01l-.06-.92-.15-.32.39-.15.57-.24h-.01Z" fill="#3E3A39"/><path d="M102.21 100.654s1.09-.32 1.81-.52c1.4-.38 2.9-1.41 2.9-1.41s0-.46-.41-.8c-.48-.39-.98-.54-.98-.54l-4.22.49s-.31.61-.11 1.57c.26 1.24 1.01 1.21 1.01 1.21Z" fill="#333C49"/><path d="M106.64 91.574c0-.15-.14-.17-.23-.09-.1.08-.05.65-.07.69-.02.04-.27.91-.27.91s-.2-.21-.36-.3c-.15-.09-.38-.29-.43-.32-.05-.04-.23.04-.21.2.02.16.58.47.55.58-.03.11.22.74.22.74l.04.51.87-.04v-.42s.09-.09.2-.23c.11-.14.2-.55.26-.72.05-.17.14-.58.17-.71s.07-.25.07-.31c0-.05-.12-.1-.12-.1v-.25c0-.04-.06-.08-.11-.08s-.06.24-.08.33c-.01.09-.2.47-.2.47s.03-.14.05-.2c.02-.05 0-.27 0-.35 0-.08-.03-.24-.07-.33-.04-.09-.11-.06-.14-.05-.03.01-.02.46-.02.52s-.14.43-.14.43 0-.23.04-.31c.04-.08 0-.43 0-.58l-.02.01Z" fill="#EFB19A"/><path d="M106.92 98.724s.23-2.21.23-2.89c0-.78-.24-1.58-.24-1.58s-.28-.21-.61-.12c-.22.06-.6.21-.6.21l-.42 4.01s.34.46.62.52c.27.06 1.03-.15 1.03-.15h-.01Z" fill="#333C49"/><path d="m101.45 97.904-.03-.19s-.85-.62-1.63-.64c-.39-.01-.57.08-.57.08l-.22.37s.44-.01.71 0c.27 0 1.75.39 1.75.39l-.01-.01Z" fill="#272D39"/></svg>