<svg width="200" height="150" viewBox="0 0 200 150" fill="none" xmlns="http://www.w3.org/2000/svg">
<path opacity="0.3" d="M83.7904 137.38L45.9404 115.53L87.2004 91.71L125.06 113.57L83.7904 137.38Z" fill="black"/>
<path d="M83.7904 137.02L45.9404 115.16L87.2004 91.3398L125.06 113.19L83.7904 137.02Z" fill="white"/>
<path d="M101.32 123.96L68.5596 105.05L86.6496 94.6104L119.4 113.51L101.32 123.96Z" fill="#F4EFE9"/>
<path d="M75.2103 104.83H73.0703V106.07H75.2103V104.83Z" fill="#FA5C52"/>
<path d="M86.4798 104.83H84.3398V106.07H86.4798V104.83Z" fill="#FA5C52"/>
<path d="M86.4798 107.48H84.3398V108.71H86.4798V107.48Z" fill="#FA5C52"/>
<path d="M98.2501 107.48H96.1201V108.71H98.2501V107.48Z" fill="#FA5C52"/>
<path d="M98.2501 112.5H96.1201V113.74H98.2501V112.5Z" fill="#FA5C52"/>
<path d="M115.95 113.141L112.27 112.061V114.191L115.95 113.141Z" fill="#FA5C52"/>
<path d="M96.9102 113.28V108.24L85.1302 108.26V105.6H74.1602V105.3H85.6802V107.93H97.4602V112.97H114.19V113.28H96.9102Z" fill="#FA5C52"/>
<path d="M80.4004 109.82L76.9404 107.82L77.5904 107.45L81.0504 109.44L80.4004 109.82Z" fill="#A39C95"/>
<path d="M84.7099 113.531L75.8799 108.441L76.5299 108.061L85.3599 113.161L84.7099 113.531Z" fill="#A39C95"/>
<path d="M71.1396 110.86H67.8096V112.79H71.1396V110.86Z" fill="#FFC654"/>
<path d="M76.1505 113.38H67.7305V118.23H76.1505V113.38Z" fill="#FA5C52"/>
<path d="M66.6499 113.45H60.9199V116.76H66.6499V113.45Z" fill="#CFDB77"/>
<path d="M62.3203 112.83V110.26H66.7803L66.7703 112.83H62.3203Z" fill="#7DD2E3"/>
<path d="M52.6803 114.2L55.6903 115.94L54.5703 116.58L51.5703 114.85L52.6803 114.2Z" fill="#FFC654"/>
<path d="M51.0399 115.15L54.0499 116.88L52.9199 117.52L49.9199 115.8L51.0399 115.15Z" fill="#CFDB77"/>
<path d="M56.3202 116.29L59.3102 118.03L58.2002 118.68L55.2002 116.94L56.3202 116.29Z" fill="#FA5C52"/>
<path d="M54.6698 117.25L57.6598 118.98L56.5498 119.62L53.5498 117.89L54.6698 117.25Z" fill="#7DD2E3"/>
<path d="M94.4303 128.1L79.3203 119.39L80.3003 118.82L95.4003 127.54L94.4303 128.1Z" fill="#E0DEDC"/>
<path d="M82.6302 123.78L77.1602 120.63L78.1302 120.07L83.5902 123.23L82.6302 123.78Z" fill="#E0DEDC"/>
<path d="M83.5104 134.21L81.2504 132.9L80.4004 133.39L82.6704 134.7L83.5104 134.21Z" fill="#FFC654"/>
<path d="M81.0597 130.749L78.7897 129.439L76.1797 130.949L78.4497 132.259L81.0597 130.749Z" fill="#7DD2E3"/>
<path d="M78.05 127.61L75.79 126.29L71.96 128.52L74.22 129.82L78.05 127.61Z" fill="#CFDB77"/>
<path d="M76.7797 123.46L74.5197 122.15L67.7197 126.07L69.9897 127.38L76.7797 123.46Z" fill="#FA5C52"/>
<path d="M40.3501 108.5L38.1201 107.22V106.34L40.7101 107.09L40.3501 108.5Z" fill="#FFD46A"/>
<path d="M43.5102 108.5L45.7502 107.22V106.34L43.2002 107.18L43.5102 108.5Z" fill="#CC934C"/>
<path d="M43.5096 108.5H40.3496V107.63L41.8396 107.09L43.5096 107.63V108.5Z" fill="#E3BD5E"/>
<path d="M45.7501 104.51L43.5101 103.22H40.3501L38.1201 104.51V106.34L40.3501 107.63H43.5101L45.7501 106.34V104.51Z" fill="#FBE979"/>
<path d="M43.3605 103.64H40.5005L38.4805 104.81V106.25L40.5005 107.42H43.3605L45.3805 106.25V104.81L43.3605 103.64Z" fill="#E3BD5E"/>
<path d="M45.3805 104.6V104.81L43.3605 103.64H40.5005L38.4805 104.81V104.6L40.5005 103.43H43.3605L45.3805 104.6Z" fill="#CC934C"/>
<path d="M40.6304 107.45L38.4004 106.16V105.29L40.9904 106.03L40.6304 107.45Z" fill="#FFD46A"/>
<path d="M43.8005 107.45L46.0305 106.16V105.29L43.4805 106.12L43.8005 107.45Z" fill="#CC934C"/>
<path d="M43.7999 107.45H40.6299V106.58L42.1299 106.03L43.7999 106.58V107.45Z" fill="#E3BD5E"/>
<path d="M46.0302 103.46L43.8002 102.17H40.6402L38.4102 103.46V105.29L40.6402 106.58H43.8002L46.0302 105.29V103.46Z" fill="#FBE979"/>
<path d="M43.6495 102.59H40.7895L38.7695 103.76V105.2L40.7995 106.37H43.6595L45.6795 105.21V103.77L43.6595 102.6L43.6495 102.59Z" fill="#E3BD5E"/>
<path d="M45.6698 103.55V103.76L43.6498 102.59H40.7798L38.7598 103.76V103.55L40.7798 102.38H43.6498L45.6698 103.55Z" fill="#CC934C"/>
<path d="M39.9597 106.33L37.7197 105.04V104.16L40.3197 104.91L39.9597 106.33Z" fill="#FFD46A"/>
<path d="M43.1198 106.33L45.3598 105.04V104.16L42.7998 105L43.1198 106.33Z" fill="#CC934C"/>
<path d="M43.12 106.33H39.96V105.45L41.45 104.91L43.12 105.45V106.33Z" fill="#E3BD5E"/>
<path d="M45.3605 102.34L43.1205 101.05H39.9605L37.7305 102.34V104.16L39.9605 105.45H43.1205L45.3605 104.16V102.34Z" fill="#FBE979"/>
<path d="M42.9698 101.46H40.1098L38.0898 102.63V104.07L40.1098 105.24H42.9698L44.9898 104.07V102.63L42.9698 101.46Z" fill="#E3BD5E"/>
<path d="M44.9898 102.42V102.63L42.9698 101.46H40.1098L38.0898 102.63V102.42L40.1098 101.26H42.9698L44.9898 102.42Z" fill="#CC934C"/>
<path d="M37.2703 116.6L35.0303 115.31V114.43L37.6303 115.18L37.2703 116.6Z" fill="#FFD46A"/>
<path d="M40.4304 116.6L42.6604 115.31V114.43L40.1104 115.27L40.4304 116.6Z" fill="#CC934C"/>
<path d="M40.4295 116.6H37.2695V115.73L38.7595 115.18L40.4295 115.73V116.6Z" fill="#E3BD5E"/>
<path d="M42.66 112.61L40.43 111.32H37.27L35.04 112.61V114.44L37.27 115.73H40.43L42.66 114.44V112.61Z" fill="#FBE979"/>
<path d="M40.2804 111.74H37.4204L35.4004 112.91V114.35L37.4204 115.52H40.2804L42.3004 114.35V112.91L40.2804 111.74Z" fill="#E3BD5E"/>
<path d="M42.2996 112.69V112.9L40.2796 111.74H37.4196L35.3896 112.9V112.69L37.4196 111.53H40.2796L42.2996 112.69Z" fill="#CC934C"/>
<path opacity="0.3" d="M42.5596 110.91L54.0196 104.3L54.7596 104.34L60.0296 101.19L60.1696 100.75L71.6296 94.1201L85.3996 102.07L56.3296 118.85L42.5696 110.9L42.5596 110.91Z" fill="black"/>
<path d="M42.5598 110.68L71.6198 93.9004L85.3898 101.85L73.9298 108.46H73.6398L68.2898 111.46L67.7698 112L56.3098 118.62L42.5498 110.67L42.5598 110.68Z" fill="#CCCBB0"/>
<path d="M42.5596 110.25L71.6196 93.4697L85.3896 101.42L56.3196 118.19L42.5596 110.24V110.25Z" fill="#EDECCC"/>
<path d="M42.5596 109.83L71.6196 93.0498L85.3896 101L56.3196 117.77L42.5596 109.83Z" fill="#CCCBB0"/>
<path d="M42.5596 109.4L71.6196 92.6201L85.3896 100.57L56.3196 117.35L42.5596 109.4Z" fill="#EDECCC"/>
<path d="M42.5596 108.98L71.6196 92.2002L85.3896 100.14L56.3196 116.92L42.5596 108.97V108.98Z" fill="#CCCBB0"/>
<path d="M42.5596 108.55L71.6196 91.7695L85.3896 99.7095L56.3196 116.5L42.5596 108.55Z" fill="#EDECCC"/>
<path d="M42.5596 108.13L71.6196 91.3496L85.3896 99.2996L56.3196 116.08L42.5596 108.14V108.13Z" fill="#CCCBB0"/>
<path d="M42.5596 107.71L71.6196 90.9297L85.3896 98.8697L56.3196 115.65L42.5596 107.71Z" fill="#EDECCC"/>
<path d="M42.5596 107.29L71.6196 90.5098L85.3896 98.4598L56.3196 115.24L42.5596 107.29Z" fill="#CCCBB0"/>
<path d="M42.5596 106.86L71.6196 90.0801L85.3896 98.0301L56.3196 114.81L42.5596 106.86Z" fill="#EDECCC"/>
<path d="M42.5596 106.44L71.6196 89.6602L85.3896 97.6002L56.3196 114.38L42.5596 106.44Z" fill="#CCCBB0"/>
<path d="M42.5596 106.01L71.6196 89.2305L85.3896 97.1805L56.3196 113.96L42.5596 106.01Z" fill="#EDECCC"/>
<path d="M42.5596 105.59L71.6196 88.7998L85.3896 96.7498L56.3196 113.53L42.5596 105.59Z" fill="#CCCBB0"/>
<path d="M42.5596 105.16L54.0196 98.5499L54.7596 98.5799L60.0296 95.4399L60.1696 94.9999L71.6296 88.3799L85.3996 96.3199L56.3296 113.1L42.5696 105.15L42.5596 105.16Z" fill="#EDECCC"/>
<path d="M54.8197 104.16H56.7197L58.0597 104.94V106.03L56.7197 106.81H54.8197L53.4697 106.03V104.94L54.8197 104.16Z" fill="#C3C270"/>
<path d="M73.1396 97.3297H71.2296L69.8896 96.5497V95.4497L71.2296 94.6797H73.1396L74.4796 95.4497V96.5497L73.1396 97.3297Z" fill="#C3C270"/>
<path d="M44.0801 105.16L56.3301 112.24L83.8801 96.33L71.6301 89.25L44.0801 105.16ZM55.6901 110.1L54.9501 110.53L47.0101 105.95L47.7401 105.53V104.8L47.0101 104.37L57.0901 98.55V100.81L63.8501 104.72H67.7701L57.6801 110.54L56.9401 110.11H55.6801L55.6901 110.1ZM80.2001 96.69L80.9301 97.12L70.8501 102.94V100.67L64.0901 96.77H60.1701L70.2601 90.95L71.0001 91.38H72.2601L73.0001 90.95L80.9401 95.54L80.2101 95.96V96.69H80.2001Z" fill="#C3C270"/>
<path d="M67.7803 106.499L69.7303 104.139L73.9403 102.939V108.449L67.7803 111.999V106.499Z" fill="#F4EFE9"/>
<path d="M67.7803 106.5L67.8903 106.05H68.5503V111.57L67.7803 112V106.5Z" fill="#E3BD5E"/>
<path d="M73.1602 103.38L73.2702 102.87L73.9402 102.94V108.45L73.1602 108.9V103.38Z" fill="#E3BD5E"/>
<path d="M67.7795 106.5L73.9395 102.94L60.1695 95L54.0195 98.55L67.7795 106.5Z" fill="white"/>
<path d="M67.7795 106.5L68.5495 106.05L54.7895 98.0996L54.0195 98.5496L67.7795 106.5Z" fill="#FBE979"/>
<path d="M73.1602 103.38L73.9402 102.94L60.1702 95L59.4102 95.44L73.1602 103.38Z" fill="#FBE979"/>
<path d="M42.5598 104.52L71.6198 87.75L85.3898 95.69L73.9298 102.3L73.6398 102.32L68.2898 105.31L67.7698 105.85L56.3098 112.47L42.5498 104.52H42.5598Z" fill="#CCCBB0"/>
<path d="M42.5596 104.1L71.6196 87.3203L85.3896 95.2703L56.3196 112.05L42.5596 104.1Z" fill="#EDECCC"/>
<path d="M42.5596 103.67L71.6196 86.8896L85.3896 94.8396L56.3196 111.62L42.5596 103.67Z" fill="#CCCBB0"/>
<path d="M42.5596 103.26L71.6196 86.4697L85.3896 94.4197L56.3196 111.2L42.5596 103.26Z" fill="#EDECCC"/>
<path d="M42.5596 102.83L71.6196 86.04L85.3896 93.99L56.3196 110.77L42.5596 102.83Z" fill="#CCCBB0"/>
<path d="M42.5596 102.4L71.6196 85.6299L85.3896 93.5699L56.3196 110.35L42.5596 102.4Z" fill="#EDECCC"/>
<path d="M42.5596 101.98L71.6196 85.2002L85.3896 93.1502L56.3196 109.92L42.5596 101.98Z" fill="#CCCBB0"/>
<path d="M42.5596 101.56L71.6196 84.7803L85.3896 92.7303L56.3196 109.51L42.5596 101.56Z" fill="#EDECCC"/>
<path d="M42.5596 101.13L71.6196 84.3496L85.3896 92.2996L56.3196 109.07L42.5596 101.13Z" fill="#CCCBB0"/>
<path d="M42.5596 100.71L71.6196 83.9297L85.3896 91.8697L56.3196 108.65L42.5596 100.71Z" fill="#EDECCC"/>
<path d="M42.5596 100.28L71.6196 83.5L85.3896 91.44L56.3196 108.22L42.5596 100.27V100.28Z" fill="#CCCBB0"/>
<path d="M42.5596 99.8601L71.6196 83.0801L85.3896 91.0301L56.3196 107.81L42.5596 99.8601Z" fill="#EDECCC"/>
<path d="M42.5596 99.4304L71.6196 82.6504L85.3896 90.6004L56.3196 107.39L42.5596 99.4404V99.4304Z" fill="#CCCBB0"/>
<path d="M42.5596 99.0102L54.0196 92.3902L54.7596 92.4402L60.0296 89.2902L60.1696 88.8502L71.6296 82.2402L85.3996 90.1802L56.3296 106.96L42.5696 99.0202L42.5596 99.0102Z" fill="#EDECCC"/>
<path d="M54.8197 98H56.7197L58.0597 98.78V99.88L56.7197 100.65H54.8197L53.4697 99.88V98.78L54.8197 98Z" fill="#C3C270"/>
<path d="M73.1396 91.1803H71.2296L69.8896 90.4003V89.3003L71.2296 88.5303H73.1396L74.4796 89.3003V90.4003L73.1396 91.1803Z" fill="#C3C270"/>
<path d="M44.0801 99.0096L56.3301 106.08L83.8801 90.1696L71.6301 83.0996L44.0801 99.0096ZM55.6901 103.96L54.9501 104.38L47.0101 99.7996L47.7401 99.3796V98.6496L47.0101 98.2296L57.0901 92.3996V94.6696L63.8501 98.5696H67.7701L57.6801 104.4L56.9401 103.98H55.6801L55.6901 103.96ZM80.2001 90.5396L80.9301 90.9596L70.8501 96.7896V94.5296L64.0901 90.6296H60.1701L70.2601 84.7996L71.0001 85.2296H72.2601L73.0001 84.7996L80.9401 89.3796L80.2101 89.8096V90.5396H80.2001Z" fill="#C3C270"/>
<path d="M67.7803 100.34L69.7303 97.99L73.9403 96.79V102.3L67.7803 105.85V100.34Z" fill="#F4EFE9"/>
<path d="M67.7803 100.34L67.8903 99.9004H68.5503V105.42L67.7803 105.85V100.34Z" fill="#E3BD5E"/>
<path d="M73.1602 97.23L73.2702 96.71L73.9402 96.79V102.3L73.1602 102.75V97.23Z" fill="#E3BD5E"/>
<path d="M67.7795 100.34L73.9395 96.7896L60.1695 88.8496L54.0195 92.3896L67.7795 100.34Z" fill="white"/>
<path d="M67.7795 100.34L68.5495 99.9002L54.7895 91.9502L54.0195 92.3902L67.7795 100.34Z" fill="#FBE979"/>
<path d="M73.1602 97.2396L73.9402 96.7896L60.1702 88.8496L59.4102 89.2796L73.1602 97.2396Z" fill="#FBE979"/>
<path opacity="0.3" d="M68.9297 79.1703L141.64 121.13L143.51 120.07L70.7897 78.1104L68.9297 79.1703Z" fill="black"/>
<path d="M68.9297 9.05L141.64 51.01L143.51 49.96L70.7897 8L68.9297 9.05Z" fill="#FFEC7A"/>
<path d="M141.64 57.61L143.51 56.53V49.96L141.64 51.01V57.61Z" fill="#E09D38"/>
<path d="M141.64 114.99L143.51 113.9V56.5303L141.64 57.6103V114.99Z" fill="#0A0808"/>
<path d="M68.9297 15.6398L141.64 57.6098V51.0098L68.9297 9.0498V15.6398Z" fill="#FFC654"/>
<path d="M68.9297 73.0196L141.64 114.99V57.6096L68.9297 15.6396V73.0196Z" fill="#362C29"/>
<path d="M41.05 61.3903L39.18 60.3103V51.7403L38.89 51.5703L36.87 52.7303L37.02 53.5403V59.0603L35 60.2203L37.02 65.9403L37.04 77.4403L37.16 78.6803L39.18 77.5203V68.2403L41.05 67.1703V61.3903Z" fill="#AB281F"/>
<path d="M37.17 61.4805L37.16 52.9005L36.87 52.7305V61.3105L35 60.2205V66.0005L36.87 67.0805V78.5105L37.16 78.6805L37.17 67.2505L39.03 68.3305V62.5505L37.17 61.4805Z" fill="#FA5C52"/>
<path d="M46.2202 65.5501L44.3502 64.4801V58.7901L44.0502 58.6201L42.0302 59.7801L42.1802 63.2201L40.1602 64.3901L42.1802 80.3401V84.6801L42.3302 86.4801L44.3502 85.3201V81.7901L46.2202 80.7201V65.5501Z" fill="#AB281F"/>
<path d="M42.3302 65.6403V59.9503L42.0302 59.7803V65.4703L40.1602 64.3903V79.5403L42.0302 80.6203V86.3103L42.3302 86.4803V80.7903L44.2002 81.8703V66.7203L42.3302 65.6403Z" fill="#FA5C52"/>
<path d="M51.3801 63.0898L49.5101 62.0098V58.9298L49.2201 58.7598L47.2001 59.9198L47.3501 60.7498L45.3301 61.9198L47.3501 69.6298V73.9498L47.4901 74.8198L49.5101 73.6498V71.7598L51.3801 70.6798V63.0898Z" fill="#79995A"/>
<path d="M47.4901 63.1699V60.0899L47.2001 59.9199V62.9999L45.3301 61.9199V69.5099L47.2001 70.5899V74.6399L47.4901 74.8199V70.7599L49.3601 71.8399V64.2499L47.4901 63.1699Z" fill="#CFDB77"/>
<path d="M54.6802 52.5199V51.2999L54.3802 51.1299L53.3302 51.7399L52.5102 51.2699L50.4902 52.4299L54.5302 67.2299L56.5502 66.0699V53.5999L54.6802 52.5199Z" fill="#79995A"/>
<path d="M52.6602 53.6798V52.4698L52.3602 52.2998V53.5098L50.4902 52.4298V64.8998L54.5302 67.2298V54.7598L52.6602 53.6798Z" fill="#CFDB77"/>
<path d="M61.7102 59.2801L59.8402 58.2001V54.2901L59.5402 54.1201L57.5302 55.2801L57.6702 56.9501L55.6602 58.1201L57.6702 73.1901V75.7701L57.8202 76.6901L59.8402 75.5301V75.1101L61.7102 74.0401V59.2801Z" fill="#AB281F"/>
<path d="M57.8202 59.3603V55.4503L57.5302 55.2803V59.1903L55.6602 58.1203V72.8603L57.5302 73.9403V76.5203L57.8202 76.6903V74.1203L59.6902 75.2003V60.4403L57.8202 59.3603Z" fill="#FA5C52"/>
<path d="M65.0003 65.6504V62.5704L64.7103 62.4004L62.6903 63.5604L62.8403 64.4004L60.8203 65.5604L62.8403 75.5704V77.3204L62.9803 77.9404L64.4603 77.0904L64.8603 78.0204L66.8703 76.8604V66.7304L65.0003 65.6504Z" fill="#79995A"/>
<path d="M62.9803 66.8105V63.7305L62.6903 63.5605V66.6405L60.8203 65.5605V75.6905L62.6903 76.7705V77.7705L62.9803 77.9405V76.9405L64.8603 78.0205V67.8905L62.9803 66.8105Z" fill="#CFDB77"/>
<path d="M70.1702 63.0398V62.2098L69.8702 62.0398L69.1502 62.4598L68.0002 61.7998L65.9902 62.9598L68.0002 68.7198V71.9098L68.1502 72.8398L70.1702 71.6798V70.7798L72.0402 69.7098V64.1298L70.1702 63.0398Z" fill="#79995A"/>
<path d="M68.1502 64.21V63.38L67.8502 63.2V64.04L65.9902 62.96V68.54L67.8502 69.62V72.67L68.1502 72.84V69.79L70.0202 70.87V65.29L68.1502 64.21Z" fill="#CFDB77"/>
<path d="M77.2004 67.1102L75.3304 66.0302V61.3702L75.0404 61.2002L73.0204 62.3602L73.1704 64.7802L71.1504 65.9402L73.1704 77.4202V83.8202L73.3204 85.6402L75.3304 84.4802V79.4902L77.2004 78.4102V67.1102Z" fill="#AB281F"/>
<path d="M73.3204 67.1903V62.5303L73.0204 62.3604V67.0204L71.1504 65.9403V77.2504L73.0204 78.3304V85.4704L73.3204 85.6404V78.4903L75.1804 79.5804V68.2704L73.3204 67.1903Z" fill="#FA5C52"/>
<path d="M80.5003 59.9305V57.6505L80.2003 57.4805L78.1803 58.6405L78.2303 58.7405L76.3203 59.8405L80.3503 71.2505L82.3703 70.0905V61.0105L80.5003 59.9305Z" fill="#79995A"/>
<path d="M78.4803 61.0996V58.8097L78.1803 58.6396V60.9196L76.3203 59.8396V68.9196L80.3503 71.2496V62.1796L78.4803 61.0996Z" fill="#CFDB77"/>
<path d="M87.5305 57.9804L85.6605 56.8904V48.3204L85.3705 48.1504L83.3505 49.3104L83.5005 50.1204V55.6504L81.4805 56.8104L83.5005 62.5204L83.5205 74.0204L83.6405 75.2604L85.6605 74.1004V64.8304L87.5305 63.7504V57.9804Z" fill="#AB281F"/>
<path d="M83.6405 58.0596V49.4796L83.3505 49.3096V57.8896L81.4805 56.8096V62.5796L83.3505 63.6596V75.0896L83.6405 75.2596V63.8296L85.5205 64.9096V59.1396L83.6405 58.0596Z" fill="#FA5C52"/>
<path d="M92.6996 62.1402L90.8297 61.0602V55.3702L90.5296 55.2002L88.5096 56.3702L88.6596 59.8102L86.6396 60.9702L88.6596 76.9202V81.2602L88.8097 83.0602L90.8297 81.9002V78.3702L92.6996 77.2902V62.1402Z" fill="#AB281F"/>
<path d="M88.8097 62.2201V56.5401L88.5096 56.3701V62.0501L86.6396 60.9701V76.1301L88.5096 77.2001V82.8901L88.8097 83.0601V77.3801L90.6796 78.4601V63.3001L88.8097 62.2201Z" fill="#FA5C52"/>
<path d="M97.8596 59.6698L95.9896 58.5898V55.5098L95.6996 55.3398L93.6796 56.4998L93.8296 57.3398L91.8096 58.4998L93.8296 66.2098V70.5398L93.9696 71.3998L95.9896 70.2398V68.3398L97.8596 67.2598V59.6698Z" fill="#79995A"/>
<path d="M93.9696 59.75V56.67L93.6796 56.5V59.58L91.8096 58.5V66.09L93.6796 67.17V71.22L93.9696 71.4V67.34L95.8396 68.43V60.83L93.9696 59.75Z" fill="#CFDB77"/>
<path d="M101.15 49.1V47.89L100.86 47.71L99.8097 48.32L98.9897 47.85L96.9697 49.01L101.01 63.81L103.02 62.65V50.18L101.15 49.1Z" fill="#79995A"/>
<path d="M99.1397 50.2599V49.0499L98.8397 48.8799V50.0899L96.9697 49.0099V61.4799L101.01 63.8099V51.3399L99.1397 50.2599Z" fill="#CFDB77"/>
<path d="M108.19 55.8602L106.32 54.7802V50.8702L106.02 50.7002L104.01 51.8602L104.15 53.5402L102.14 54.7002L104.15 69.7702V72.3602L104.3 73.2802L106.32 72.1102V71.7002L108.19 70.6202V55.8602Z" fill="#AB281F"/>
<path d="M104.3 55.9504V52.0303L104.01 51.8604V55.7704L102.14 54.7004V69.4504L104.01 70.5303V73.1104L104.3 73.2803V70.7004L106.17 71.7803V57.0303L104.3 55.9504Z" fill="#FA5C52"/>
<path d="M111.48 62.2305V59.1505L111.19 58.9805L109.17 60.1405L109.32 60.9805L107.3 62.1405L109.32 72.1605V73.9105L109.47 74.5205L110.94 73.6705L111.34 74.6105L113.35 73.4405V63.3105L111.48 62.2305Z" fill="#79995A"/>
<path d="M109.47 63.3896V60.3196L109.17 60.1396V63.2197L107.3 62.1396V72.2696L109.17 73.3496V74.3496L109.47 74.5196V73.5296L111.34 74.6096V64.4697L109.47 63.3896Z" fill="#CFDB77"/>
<path d="M116.65 59.6299V58.7999L116.35 58.6299L115.63 59.0399L114.48 58.3799L112.47 59.5399L114.48 65.2999V68.4899L114.63 69.4199L116.65 68.2599V67.3699L118.52 66.2899V60.7099L116.65 59.6299Z" fill="#79995A"/>
<path d="M114.63 60.79V59.96L114.34 59.79V60.62L112.47 59.54V65.12L114.34 66.2V69.25L114.63 69.42V66.37L116.5 67.45V61.87L114.63 60.79Z" fill="#CFDB77"/>
<path d="M123.68 63.6903L121.81 62.6103V57.9503L121.52 57.7803L119.5 58.9403L119.65 61.3603L117.63 62.5203L119.65 74.0003V80.4003L119.79 82.2203L121.81 81.0603V76.0703L123.68 75.0003V63.6903Z" fill="#AB281F"/>
<path d="M119.79 63.7695V59.1095L119.5 58.9395V63.5995L117.63 62.5195V73.8295L119.5 74.9095V82.0495L119.79 82.2195V75.0795L121.66 76.1595L121.67 64.8495L119.79 63.7695Z" fill="#FA5C52"/>
<path d="M126.98 56.5205V54.2405L126.68 54.0605L124.67 55.2205L124.71 55.3205L122.8 56.4305L126.83 67.8305L128.85 66.6705V57.6005L126.98 56.5205Z" fill="#79995A"/>
<path d="M124.96 57.6797V55.3897L124.67 55.2197V57.4997L122.8 56.4297V65.4997L126.83 67.8297V58.7597L124.96 57.6797Z" fill="#CFDB77"/>
<path d="M134.01 60.58L129.98 58.25L127.96 59.41L129.98 75.66V78.49L130.12 79.1L132.14 77.95V77.63L134.01 76.55V60.58Z" fill="#AB281F"/>
<path d="M127.96 59.4102V75.3802L129.83 76.4602V78.9402L130.12 79.1002L130.13 76.6302L131.99 77.7102V61.7402L127.96 59.4102Z" fill="#FA5C52"/>
<path d="M137.31 70.0201V67.5001L137.01 67.3301L134.99 68.4901L135.11 68.7901L133.13 69.9301L135.14 75.3101V77.2001L136.05 77.7201L137.16 80.6901L139.18 79.5301V71.1001L137.31 70.0201Z" fill="#79995A"/>
<path d="M135.29 71.1802V68.6602L134.99 68.4902V71.0102L133.13 69.9302V78.3602L137.16 80.6902V72.2602L135.29 71.1802Z" fill="#CFDB77"/>
<path d="M142.47 61.09V59.88L142.17 59.71L141.13 60.31L140.31 59.84L138.29 61L142.32 75.8L144.34 74.64V62.17L142.47 61.09Z" fill="#79995A"/>
<path d="M140.45 62.2501V61.0401L140.16 60.8701V62.0801L138.29 61.0001V73.4701L142.32 75.8001V63.3301L140.45 62.2501Z" fill="#CFDB77"/>
<path d="M149.51 67.8495L147.64 66.7695V62.8595L147.34 62.6895L145.32 63.8495L145.47 65.5195L143.45 66.6795L145.47 81.7595V84.3495L145.62 85.2695L147.64 84.0995V83.6795L149.51 82.6095V67.8495Z" fill="#AB281F"/>
<path d="M145.62 67.9296V64.0196L145.32 63.8496V67.7596L143.45 66.6796L143.46 81.4396L145.32 82.5196V85.0896L145.62 85.2696V82.6896L147.49 83.7696V69.0096L145.62 67.9296Z" fill="#FA5C52"/>
<path d="M152.8 74.2197V71.1497L152.51 70.9697L150.49 72.1297L150.64 72.9697L148.62 74.1297L150.63 84.1497L150.64 85.8997L150.78 86.5097L152.26 85.6597L152.65 86.5897L154.67 85.4297V75.2997L152.8 74.2197Z" fill="#79995A"/>
<path d="M150.78 75.3799V72.3099L150.49 72.1299V75.2099L148.62 74.1299V84.2599L150.49 85.3399V86.3399L150.78 86.5099V85.5099L152.65 86.5899V76.4599L150.78 75.3799Z" fill="#CFDB77"/>
<path d="M157.96 71.6201V70.7901L157.67 70.6201L156.95 71.0301L155.8 70.3701L153.78 71.5301L155.8 77.2901V80.4801L155.95 81.4101L157.96 80.2501V79.3601L159.84 78.2801V72.7001L157.96 71.6201Z" fill="#79995A"/>
<path d="M155.95 72.7803V71.9503L155.65 71.7803V72.6103L153.78 71.5303V77.1103L155.65 78.1903V81.2403L155.95 81.4103V78.3603L157.82 79.4403V73.8603L155.95 72.7803Z" fill="#CFDB77"/>
<path d="M165 75.6795L163.13 74.5995V69.9395L162.83 69.7695L160.82 70.9295L160.97 73.3495L158.95 74.5095L160.97 85.9895V92.3895L161.11 94.2095L163.13 93.0495V88.0595L165 86.9895V75.6795Z" fill="#AB281F"/>
<path d="M161.11 75.7597V71.0997L160.82 70.9297V75.5897L158.95 74.5097V85.8197L160.82 86.8897V94.0397L161.11 94.2097V87.0697L162.98 88.1497V76.8397L161.11 75.7597Z" fill="#FA5C52"/>
<path d="M138 103.33L123.21 94.79L121.89 95.55V96.33L136.75 104.52L138 103.33Z" fill="#FFEC7A"/>
<path d="M137.16 104.85L138.63 104.41V106.79L137.31 107.55L137.1 106.16L137.16 104.85Z" fill="#DE822B"/>
<path d="M136.68 104.09L138 103.33L138.63 104.41L137.31 105.18L136.61 104.84L136.68 104.09Z" fill="#FF9F3D"/>
<path d="M136.68 104.09L121.89 95.5498L121.26 95.9098V98.2898L121.89 99.3698L136.68 107.91L137.31 107.55V105.18L136.68 104.09Z" fill="#FFC654"/>
<path d="M138 96.3801L123.21 87.8301L121.89 88.6001V89.3801L136.75 97.5701L138 96.3801Z" fill="#FA5C52"/>
<path d="M137.16 97.9L138.63 97.46V99.84L137.31 100.6L137.1 99.21L137.16 97.9Z" fill="#8A1C14"/>
<path d="M136.68 97.1399L138 96.3799L138.63 97.4599L137.31 98.2299L136.61 97.8899L136.68 97.1399Z" fill="#AB281F"/>
<path d="M136.68 97.1396L121.89 88.5996L121.26 88.9596V91.3296L121.89 92.4196L136.68 100.96L137.31 100.6V98.2296L136.68 97.1396Z" fill="#C84030"/>
<path opacity="0.3" d="M90.2197 130.05L101.68 123.44L102.42 123.48L107.69 120.33L107.83 119.89L119.29 113.27L133.06 121.22L103.99 138L90.2297 130.05H90.2197Z" fill="black"/>
<path d="M90.2197 129.82L119.28 113.04L133.05 120.99L121.59 127.6H121.3L115.95 130.6L115.44 131.15L103.98 137.77L90.2197 129.82Z" fill="#CCCBB0"/>
<path d="M90.2197 129.39L119.28 112.62L133.05 120.56L103.98 137.34L90.2197 129.39Z" fill="#EDECCC"/>
<path d="M90.2197 128.96L119.28 112.18L133.05 120.13L103.98 136.91L90.2197 128.97V128.96Z" fill="#CCCBB0"/>
<path d="M90.2197 128.54L119.28 111.77L133.05 119.71L103.98 136.49L90.2197 128.54Z" fill="#EDECCC"/>
<path d="M90.2197 128.12L119.28 111.34L133.05 119.28L103.98 136.06L90.2197 128.11V128.12Z" fill="#CCCBB0"/>
<path d="M90.2197 127.69L119.28 110.91L133.05 118.85L103.98 135.64L90.2197 127.69Z" fill="#EDECCC"/>
<path d="M90.2197 127.27L119.28 110.49L133.05 118.44L103.98 135.22L90.2197 127.28V127.27Z" fill="#CCCBB0"/>
<path d="M90.2197 126.85L119.28 110.07L133.05 118.01L103.98 134.79L90.2197 126.85Z" fill="#EDECCC"/>
<path d="M90.2197 126.42L119.28 109.64L133.05 117.59L103.98 134.37L90.2197 126.42Z" fill="#CCCBB0"/>
<path d="M90.2197 126L119.28 109.22L133.05 117.17L103.98 133.95L90.2197 126Z" fill="#EDECCC"/>
<path d="M90.2197 125.57L119.28 108.79L133.05 116.74L103.98 133.52L90.2197 125.58V125.57Z" fill="#CCCBB0"/>
<path d="M90.2197 125.15L119.28 108.37L133.05 116.32L103.98 133.1L90.2197 125.15Z" fill="#EDECCC"/>
<path d="M90.2197 124.729L119.28 107.939L133.05 115.889L103.98 132.669L90.2197 124.729Z" fill="#CCCBB0"/>
<path d="M90.2197 124.3L101.68 117.69L102.42 117.72L107.69 114.58L107.83 114.14L119.29 107.52L133.06 115.46L103.99 132.24L90.2297 124.29L90.2197 124.3Z" fill="#EDECCC"/>
<path d="M102.48 123.29H104.38L105.72 124.07V125.16L104.38 125.95H102.48L101.13 125.16V124.07L102.48 123.29Z" fill="#C3C270"/>
<path d="M120.8 116.46H118.89L117.55 115.69V114.59L118.89 113.82H120.8L122.14 114.59V115.69L120.8 116.46Z" fill="#C3C270"/>
<path d="M91.7305 124.3L103.98 131.38L131.54 115.47L119.29 108.39L91.7405 124.3H91.7305ZM103.35 129.24L102.61 129.67L94.6705 125.09L95.4005 124.66V123.93L94.6705 123.51L104.75 117.69V119.95L111.51 123.86H115.43L105.34 129.68L104.61 129.25H103.34L103.35 129.24ZM127.86 115.83L128.59 116.26L118.51 122.08V119.82L111.75 115.92H107.82L117.91 110.1L118.65 110.53H119.92L120.66 110.1L128.6 114.69L127.87 115.11V115.84L127.86 115.83Z" fill="#C3C270"/>
<path d="M115.44 125.63L117.39 123.28L121.59 122.08V127.59L115.44 131.14V125.63Z" fill="#F4EFE9"/>
<path d="M115.44 125.629L115.55 125.189H116.21V130.709L115.44 131.139V125.629Z" fill="#E3BD5E"/>
<path d="M120.82 122.52L120.93 122L121.59 122.08V127.59L120.82 128.04V122.52Z" fill="#E3BD5E"/>
<path d="M115.44 125.63L121.59 122.08L107.83 114.14L101.68 117.69L115.44 125.63Z" fill="white"/>
<path d="M115.44 125.63L116.21 125.19L102.45 117.24L101.68 117.69L115.44 125.63Z" fill="#FBE979"/>
<path d="M120.82 122.52L121.59 122.08L107.83 114.14L107.07 114.58L120.82 122.52Z" fill="#FBE979"/>
<path d="M99.6101 125.81L97.3701 124.52V123.64L99.9701 124.39L99.6101 125.81Z" fill="#FFD46A"/>
<path d="M102.77 125.81L105.01 124.52V123.64L102.45 124.48L102.77 125.81Z" fill="#CC934C"/>
<path d="M102.77 125.81H99.6104V124.94L101.1 124.39L102.77 124.94V125.81Z" fill="#E3BD5E"/>
<path d="M105.01 121.82L102.77 120.53H99.6099L97.3799 121.82V123.65L99.6099 124.94H102.77L105.01 123.65V121.82Z" fill="#FBE979"/>
<path d="M102.62 120.95H99.7602L97.7402 122.12V123.56L99.7602 124.73H102.62L104.64 123.56V122.12L102.62 120.95Z" fill="#E3BD5E"/>
<path d="M104.64 121.91V122.12L102.62 120.95H99.7605L97.7305 122.12V121.91L99.7605 120.74H102.62L104.64 121.91Z" fill="#CC934C"/>
<path d="M99.8902 124.76L97.6602 123.47V122.59L100.25 123.34L99.8902 124.76Z" fill="#FFD46A"/>
<path d="M103.05 124.76L105.29 123.47V122.59L102.74 123.43L103.05 124.76Z" fill="#CC934C"/>
<path d="M103.05 124.76H99.8896V123.88L101.38 123.34L103.05 123.88V124.76Z" fill="#E3BD5E"/>
<path d="M105.29 120.77L103.06 119.48H99.8999L97.6699 120.77V122.59L99.8999 123.88H103.06L105.29 122.59V120.77Z" fill="#FBE979"/>
<path d="M102.9 119.9H100.04L98.0195 121.07V122.51L100.04 123.68H102.9L104.92 122.51V121.07L102.9 119.9Z" fill="#E3BD5E"/>
<path d="M104.92 120.859V121.059L102.9 119.899H100.04L98.0195 121.059V120.859L100.04 119.689H102.9L104.92 120.859Z" fill="#CC934C"/>
<path d="M99.2205 123.63L96.9805 122.34V121.46L99.5805 122.21L99.2205 123.63Z" fill="#FFD46A"/>
<path d="M102.38 123.63L104.61 122.34V121.46L102.06 122.3L102.38 123.63Z" fill="#CC934C"/>
<path d="M102.38 123.63H99.2197V122.76L100.71 122.21L102.38 122.76V123.63Z" fill="#E3BD5E"/>
<path d="M104.61 119.64L102.37 118.35H99.2105L96.9805 119.64V121.46L99.2105 122.75H102.37L104.61 121.46V119.64Z" fill="#FBE979"/>
<path d="M102.23 118.77H99.3696L97.3496 119.94V121.38L99.3696 122.55H102.23L104.25 121.38V119.94L102.23 118.77Z" fill="#E3BD5E"/>
<path d="M104.25 119.731V119.931L102.23 118.771H99.3698L97.3398 119.931V119.731L99.3698 118.561H102.23L104.25 119.731Z" fill="#CC934C"/>
<path d="M126.46 131.09L124.22 129.8V128.92L126.82 129.67L126.46 131.09Z" fill="#FFD46A"/>
<path d="M129.62 131.09L131.85 129.8V128.92L129.31 129.76L129.62 131.09Z" fill="#CC934C"/>
<path d="M129.62 131.09H126.46V130.21L127.95 129.67L129.62 130.21V131.09Z" fill="#E3BD5E"/>
<path d="M131.85 127.09L129.62 125.8H126.46L124.23 127.09V128.92L126.46 130.21H129.62L131.85 128.92V127.09Z" fill="#FBE979"/>
<path d="M129.47 126.23H126.61L124.59 127.4V128.84L126.61 130.01H129.47L131.49 128.85V127.4L129.47 126.23Z" fill="#E3BD5E"/>
<path d="M131.49 127.18V127.39L129.47 126.23H126.61L124.59 127.39V127.18L126.61 126.02H129.47L131.49 127.18Z" fill="#CC934C"/>
<path d="M125.97 129.9L123.73 128.61V127.74L126.33 128.49L125.97 129.9Z" fill="#FFD46A"/>
<path d="M129.13 129.9L131.37 128.61V127.74L128.82 128.57L129.13 129.9Z" fill="#CC934C"/>
<path d="M129.13 129.9H125.97V129.03L127.46 128.49L129.13 129.03V129.9Z" fill="#E3BD5E"/>
<path d="M131.37 125.92L129.14 124.62H125.98L123.75 125.92V127.74L125.98 129.03H129.14L131.37 127.74V125.92Z" fill="#FBE979"/>
<path d="M128.98 125.04H126.12L124.09 126.21V127.65L126.12 128.82H128.98L131 127.65V126.21L128.98 125.04Z" fill="#E3BD5E"/>
<path d="M131 126V126.21L128.98 125.04H126.12L124.1 126.21V126L126.12 124.83H128.98L131 126Z" fill="#CC934C"/>
<path d="M126.46 128.39L124.22 127.1V126.23L126.82 126.98L126.46 128.39Z" fill="#FFD46A"/>
<path d="M129.62 128.39L131.85 127.1V126.23L129.31 127.06L129.62 128.39Z" fill="#CC934C"/>
<path d="M129.62 128.39H126.46V127.52L127.95 126.98L129.62 127.52V128.39Z" fill="#E3BD5E"/>
<path d="M131.85 124.4L129.62 123.11H126.46L124.23 124.4V126.23L126.46 127.52H129.62L131.85 126.23V124.4Z" fill="#FBE979"/>
<path d="M129.47 123.53H126.61L124.59 124.7V126.14L126.61 127.31H129.47L131.49 126.14V124.7L129.47 123.53Z" fill="#E3BD5E"/>
<path d="M131.49 124.49V124.7L129.47 123.53H126.61L124.59 124.7V124.49L126.61 123.32H129.47L131.49 124.49Z" fill="#CC934C"/>
<path d="M126.99 127.16L124.75 125.87V124.99L127.34 125.74L126.99 127.16Z" fill="#FFD46A"/>
<path d="M130.15 127.16L132.38 125.87V124.99L129.83 125.83L130.15 127.16Z" fill="#CC934C"/>
<path d="M130.15 127.16H126.99V126.28L128.48 125.74L130.15 126.28V127.16Z" fill="#E3BD5E"/>
<path d="M132.38 123.17L130.15 121.88H126.99L124.75 123.17V124.99L126.99 126.28H130.15L132.38 124.99V123.17Z" fill="#FBE979"/>
<path d="M130 122.29H127.14L125.12 123.46V124.9L127.15 126.07H130.01L132.03 124.9V123.46L130.01 122.29H130Z" fill="#E3BD5E"/>
<path d="M132.02 123.26V123.46L130 122.29H127.13L125.11 123.46V123.26L127.13 122.09H130L132.02 123.26Z" fill="#CC934C"/>
<path d="M126.26 125.92L124.02 124.62V123.75L126.62 124.5L126.26 125.92Z" fill="#FFD46A"/>
<path d="M129.42 125.92L131.65 124.62V123.75L129.1 124.58L129.42 125.92Z" fill="#CC934C"/>
<path d="M129.42 125.92H126.26V125.04L127.74 124.5L129.42 125.04V125.92Z" fill="#E3BD5E"/>
<path d="M131.65 121.92L129.41 120.63H126.25L124.02 121.92V123.74L126.25 125.03H129.41L131.65 123.74V121.92Z" fill="#FBE979"/>
<path d="M129.27 121.05H126.41L124.39 122.22V123.66L126.42 124.83H129.28L131.3 123.66V122.22L129.28 121.05H129.27Z" fill="#E3BD5E"/>
<path d="M131.29 122.01V122.22L129.27 121.05H126.41L124.39 122.22V122.01L126.41 120.85H129.27L131.29 122.01Z" fill="#CC934C"/>
<path d="M126.46 124.94L124.22 123.64V122.77L126.82 123.52L126.46 124.94Z" fill="#FFD46A"/>
<path d="M129.62 124.94L131.86 123.64V122.77L129.31 123.61L129.62 124.94Z" fill="#CC934C"/>
<path d="M129.62 124.94H126.46V124.06L127.95 123.52L129.62 124.06V124.94Z" fill="#E3BD5E"/>
<path d="M131.86 120.95L129.62 119.66H126.46L124.23 120.95V122.77L126.46 124.06H129.62L131.86 122.77V120.95Z" fill="#FBE979"/>
<path d="M129.47 120.07H126.61L124.59 121.24V122.68L126.61 123.85H129.47L131.49 122.68V121.24L129.47 120.07Z" fill="#E3BD5E"/>
<path d="M131.49 121.03V121.24L129.47 120.07H126.61L124.59 121.24V121.03L126.61 119.87H129.47L131.49 121.03Z" fill="#CC934C"/>
<path d="M126.82 123.71L124.59 122.42V121.54L127.18 122.29L126.82 123.71Z" fill="#FFD46A"/>
<path d="M129.98 123.71L132.22 122.42V121.54L129.67 122.38L129.98 123.71Z" fill="#CC934C"/>
<path d="M129.98 123.71H126.82V122.83L128.31 122.29L129.98 122.83V123.71Z" fill="#E3BD5E"/>
<path d="M132.22 119.72L129.99 118.43H126.83L124.6 119.72V121.54L126.83 122.83H129.99L132.22 121.54V119.72Z" fill="#FBE979"/>
<path d="M129.83 118.84H126.97L124.95 120.01V121.45L126.97 122.62H129.83L131.86 121.45V120.01L129.83 118.84Z" fill="#E3BD5E"/>
<path d="M131.86 119.8V120.02L129.83 118.84H126.97L124.95 120.02V119.8L126.97 118.64H129.83L131.86 119.8Z" fill="#CC934C"/>
<path d="M118.42 136.99L116.19 135.7V134.83L118.78 135.58L118.42 136.99Z" fill="#FFD46A"/>
<path d="M121.59 136.99L123.82 135.7V134.83L121.27 135.66L121.59 136.99Z" fill="#CC934C"/>
<path d="M121.59 136.99H118.42V136.12L119.91 135.58L121.59 136.12V136.99Z" fill="#E3BD5E"/>
<path d="M123.82 133.01L121.59 131.72H118.43L116.19 133.01V134.83L118.43 136.12H121.59L123.82 134.83V133.01Z" fill="#FBE979"/>
<path d="M121.43 132.13H118.57L116.55 133.3V134.74L118.57 135.91H121.43L123.45 134.74V133.3L121.43 132.13Z" fill="#E3BD5E"/>
<path d="M123.46 133.09V133.3L121.43 132.13H118.57L116.55 133.3V133.09L118.57 131.92H121.43L123.46 133.09Z" fill="#CC934C"/>
<path d="M117.86 135.51L115.62 134.22V133.34L118.22 134.09L117.86 135.51Z" fill="#FFD46A"/>
<path d="M121.02 135.51L123.26 134.22V133.34L120.7 134.17L121.02 135.51Z" fill="#CC934C"/>
<path d="M121.02 135.51H117.86V134.63L119.35 134.09L121.02 134.63V135.51Z" fill="#E3BD5E"/>
<path d="M123.26 131.51L121.02 130.22H117.86L115.62 131.51V133.33L117.86 134.63H121.02L123.26 133.33V131.51Z" fill="#FBE979"/>
<path d="M120.87 130.64H118.01L115.99 131.81V133.25L118.01 134.42H120.86L122.89 133.25V131.8L120.86 130.63L120.87 130.64Z" fill="#E3BD5E"/>
<path d="M122.89 131.6V131.81L120.87 130.64H118.01L115.99 131.81V131.6L118.01 130.43H120.87L122.89 131.6Z" fill="#CC934C"/>
<path d="M118.06 134.25L115.82 132.96V132.08L118.42 132.83L118.06 134.25Z" fill="#FFD46A"/>
<path d="M121.22 134.25L123.46 132.96V132.08L120.9 132.92L121.22 134.25Z" fill="#CC934C"/>
<path d="M121.22 134.25H118.06V133.38L119.55 132.83L121.22 133.38V134.25Z" fill="#E3BD5E"/>
<path d="M123.46 130.26L121.23 128.97H118.07L115.84 130.26V132.09L118.07 133.38H121.23L123.46 132.09V130.26Z" fill="#FBE979"/>
<path d="M121.07 129.39H118.21L116.19 130.56V132L118.21 133.17H121.07L123.09 132V130.56L121.07 129.39Z" fill="#E3BD5E"/>
<path d="M123.09 130.35V130.55L121.07 129.39H118.21L116.19 130.55V130.35L118.21 129.18H121.07L123.09 130.35Z" fill="#CC934C"/>
<path d="M118.59 133.08L116.35 131.78V130.91L118.95 131.66L118.59 133.08Z" fill="#FFD46A"/>
<path d="M121.75 133.08L123.98 131.78V130.91L121.43 131.75L121.75 133.08Z" fill="#CC934C"/>
<path d="M121.75 133.08H118.59V132.2L120.08 131.66L121.75 132.2V133.08Z" fill="#E3BD5E"/>
<path d="M123.98 129.09L121.74 127.8H118.58L116.34 129.09V130.91L118.58 132.2H121.74L123.98 130.91V129.09Z" fill="#FBE979"/>
<path d="M121.6 128.21H118.74L116.72 129.38V130.82L118.74 131.99H121.6L123.62 130.82V129.38L121.6 128.21Z" fill="#E3BD5E"/>
<path d="M123.62 129.17V129.38L121.6 128.21H118.73L116.72 129.38V129.17L118.73 128.01H121.6L123.62 129.17Z" fill="#CC934C"/>
<path d="M118.22 131.82L115.99 130.53V129.66L118.58 130.4L118.22 131.82Z" fill="#FFD46A"/>
<path d="M121.39 131.82L123.62 130.53V129.66L121.07 130.49L121.39 131.82Z" fill="#CC934C"/>
<path d="M121.39 131.82H118.22V130.95L119.71 130.4L121.39 130.95V131.82Z" fill="#E3BD5E"/>
<path d="M123.62 127.83L121.39 126.54H118.23L116 127.83V129.66L118.23 130.95H121.39L123.62 129.66V127.83Z" fill="#FBE979"/>
<path d="M121.24 126.96H118.38L116.35 128.13V129.57L118.38 130.74H121.24L123.26 129.58V128.13L121.24 126.96Z" fill="#E3BD5E"/>
<path d="M123.26 127.92V128.13L121.24 126.96H118.37L116.35 128.13V127.92L118.37 126.75H121.24L123.26 127.92Z" fill="#CC934C"/>
<path d="M118.22 130.51L115.99 129.22V128.35L118.58 129.1L118.22 130.51Z" fill="#FFD46A"/>
<path d="M121.39 130.51L123.62 129.22V128.35L121.07 129.19L121.39 130.51Z" fill="#CC934C"/>
<path d="M121.39 130.51H118.22V129.64L119.71 129.1L121.39 129.64V130.51Z" fill="#E3BD5E"/>
<path d="M123.62 126.52L121.39 125.23H118.23L116 126.52V128.34L118.23 129.63H121.39L123.62 128.34V126.52Z" fill="#FBE979"/>
<path d="M121.24 125.65H118.38L116.35 126.82V128.26L118.38 129.43H121.24L123.26 128.26V126.82L121.24 125.65Z" fill="#E3BD5E"/>
<path d="M123.26 126.609V126.819L121.24 125.649H118.38L116.35 126.819V126.609L118.38 125.439H121.24L123.26 126.609Z" fill="#CC934C"/>
<path d="M118.06 129.46L115.82 128.17V127.29L118.42 128.04L118.06 129.46Z" fill="#FFD46A"/>
<path d="M121.22 129.46L123.46 128.17V127.29L120.9 128.13L121.22 129.46Z" fill="#CC934C"/>
<path d="M121.22 129.46H118.06V128.59L119.55 128.04L121.22 128.59V129.46Z" fill="#E3BD5E"/>
<path d="M123.46 125.47L121.23 124.18H118.07L115.84 125.47V127.29L118.07 128.58H121.23L123.46 127.29V125.47Z" fill="#FBE979"/>
<path d="M121.07 124.6H118.21L116.19 125.77V127.21L118.21 128.38H121.07L123.09 127.21V125.77L121.07 124.6Z" fill="#E3BD5E"/>
<path d="M123.09 125.55V125.76L121.07 124.6H118.21L116.19 125.76V125.55L118.21 124.39H121.07L123.09 125.55Z" fill="#CC934C"/>
<path d="M118.22 128.29L115.99 127V126.12L118.58 126.87L118.22 128.29Z" fill="#FFD46A"/>
<path d="M121.39 128.29L123.62 127V126.12L121.07 126.96L121.39 128.29Z" fill="#CC934C"/>
<path d="M121.39 128.29H118.22V127.42L119.71 126.87L121.39 127.42V128.29Z" fill="#E3BD5E"/>
<path d="M123.62 124.3L121.39 123.01H118.23L116 124.3V126.13L118.23 127.42H121.39L123.62 126.13V124.3Z" fill="#FBE979"/>
<path d="M121.24 123.43H118.38L116.35 124.6V126.04L118.38 127.21H121.24L123.26 126.04V124.6L121.24 123.43Z" fill="#E3BD5E"/>
<path d="M123.26 124.39V124.6L121.24 123.43H118.37L116.35 124.6V124.39L118.37 123.22H121.24L123.26 124.39Z" fill="#CC934C"/>
<path d="M118.42 127.14L116.19 125.85V124.98L118.78 125.73L118.42 127.14Z" fill="#FFD46A"/>
<path d="M121.59 127.14L123.82 125.85V124.98L121.27 125.81L121.59 127.14Z" fill="#CC934C"/>
<path d="M121.59 127.14H118.42V126.27L119.91 125.73L121.59 126.27V127.14Z" fill="#E3BD5E"/>
<path d="M123.82 123.16L121.59 121.87H118.43L116.19 123.16V124.98L118.43 126.27H121.59L123.82 124.98V123.16Z" fill="#FBE979"/>
<path d="M121.43 122.28H118.57L116.55 123.45V124.89L118.57 126.06H121.43L123.45 124.89V123.45L121.43 122.28Z" fill="#E3BD5E"/>
<path d="M123.46 123.24V123.45L121.43 122.28H118.57L116.55 123.45V123.24L118.57 122.07H121.43L123.46 123.24Z" fill="#CC934C"/>
<path d="M118.06 125.86L115.83 124.57V123.7L118.42 124.44L118.06 125.86Z" fill="#FFD46A"/>
<path d="M121.22 125.86L123.46 124.57V123.7L120.91 124.53L121.22 125.86Z" fill="#CC934C"/>
<path d="M121.22 125.859H118.06V124.989L119.55 124.439L121.22 124.989V125.859Z" fill="#E3BD5E"/>
<path d="M123.46 121.87L121.23 120.58H118.07L115.84 121.87V123.7L118.07 124.99H121.23L123.46 123.7V121.87Z" fill="#FBE979"/>
<path d="M121.07 121H118.21L116.19 122.17V123.61L118.21 124.78H121.07L123.09 123.61V122.17L121.07 121Z" fill="#E3BD5E"/>
<path d="M123.09 121.96V122.17L121.07 121H118.21L116.19 122.17V121.96L118.21 120.79H121.07L123.09 121.96Z" fill="#CC934C"/>
<path d="M87.6101 134.89L85.3701 133.6V132.72L87.9701 133.47L87.6101 134.89Z" fill="#FFD46A"/>
<path d="M90.77 134.89L93.01 133.6V132.72L90.46 133.56L90.77 134.89Z" fill="#CC934C"/>
<path d="M90.7704 134.89H87.6104V134.02L89.1003 133.47L90.7704 134.02V134.89Z" fill="#E3BD5E"/>
<path d="M93.0096 130.9L90.7796 129.61H87.6196L85.3896 130.9V132.73L87.6196 134.02H90.7796L93.0096 132.73V130.9Z" fill="#FBE979"/>
<path d="M90.6202 130.03H87.7602L85.7402 131.2V132.64L87.7602 133.81H90.6202L92.6402 132.64V131.2L90.6202 130.03Z" fill="#E3BD5E"/>
<path d="M92.6402 130.99V131.2L90.6202 130.03H87.7602L85.7402 131.2V130.99L87.7602 129.82H90.6202L92.6402 130.99Z" fill="#CC934C"/>
<path d="M150.06 124.52L147.83 123.22V122.35L150.42 123.1L150.06 124.52Z" fill="#FFD46A"/>
<path d="M153.23 124.52L155.46 123.22V122.35L152.91 123.19L153.23 124.52Z" fill="#CC934C"/>
<path d="M153.23 124.52H150.06V123.65L151.55 123.1L153.23 123.65V124.52Z" fill="#E3BD5E"/>
<path d="M155.46 120.53L153.23 119.24H150.07L147.84 120.53V122.36L150.07 123.65H153.23L155.46 122.36V120.53Z" fill="#FBE979"/>
<path d="M153.07 119.66H150.21L148.19 120.83V122.27L150.21 123.44H153.07L155.09 122.27V120.82L153.07 119.65V119.66Z" fill="#E3BD5E"/>
<path d="M155.1 120.61V120.82L153.07 119.66H150.21L148.19 120.82V120.61L150.21 119.45H153.07L155.1 120.61Z" fill="#CC934C"/>
<path d="M142.52 131.84L140.29 130.55V129.67L142.88 130.42L142.52 131.84Z" fill="#FFD46A"/>
<path d="M145.69 131.84L147.92 130.55V129.67L145.37 130.51L145.69 131.84Z" fill="#CC934C"/>
<path d="M145.69 131.84H142.52V130.96L144.01 130.42L145.69 130.96V131.84Z" fill="#E3BD5E"/>
<path d="M147.92 127.851L145.68 126.561H142.52L140.29 127.851V129.671L142.52 130.961H145.68L147.92 129.671V127.851Z" fill="#FBE979"/>
<path d="M145.53 126.97H142.67L140.65 128.14V129.58L142.68 130.75H145.54L147.56 129.59V128.15L145.54 126.98L145.53 126.97Z" fill="#E3BD5E"/>
<path d="M147.55 127.93V128.14L145.53 126.97H142.67L140.65 128.14V127.93L142.67 126.77H145.53L147.55 127.93Z" fill="#CC934C"/>
</svg>
