<svg width="200" height="150" viewBox="0 0 200 150" fill="none" xmlns="http://www.w3.org/2000/svg">
<g style="mix-blend-mode:multiply" opacity="0.7">
<path d="M187.96 76.8403L76.0104 141.4C74.3304 142.37 72.2704 142.37 70.5904 141.4L15.1904 109.51C12.5904 108.01 12.5804 104.26 15.1804 102.75L128.25 37.0503C129.29 36.4403 130.58 36.4403 131.63 37.0503L187.97 69.7503C190.69 71.3303 190.69 75.2703 187.96 76.8403Z" fill="#F0F0F0"/>
</g>
<path d="M178.42 67.8297C178.42 67.8297 178.42 67.8997 178.42 67.9397C178.42 67.9697 178.42 67.9997 178.41 68.0297C178.41 68.0697 178.4 68.0997 178.39 68.1397C178.39 68.1697 178.38 68.1997 178.37 68.2297C178.37 68.2597 178.35 68.2997 178.35 68.3297C178.35 68.3597 178.33 68.3897 178.32 68.4197C178.31 68.4497 178.3 68.4897 178.29 68.5197C178.28 68.5497 178.27 68.5797 178.26 68.6097C178.25 68.6497 178.23 68.6797 178.22 68.7197C178.21 68.7497 178.19 68.7797 178.18 68.8097C178.16 68.8497 178.14 68.8797 178.13 68.9097C178.11 68.9397 178.1 68.9697 178.08 68.9897C178.06 69.0297 178.03 69.0697 178 69.1097C177.98 69.1297 177.97 69.1597 177.95 69.1797C177.92 69.2297 177.88 69.2697 177.85 69.3197C177.83 69.3397 177.82 69.3597 177.8 69.3797C177.8 69.3797 177.79 69.3997 177.78 69.4097C177.74 69.4597 177.71 69.4997 177.67 69.5397C177.66 69.5497 177.65 69.5597 177.64 69.5797C177.59 69.6297 177.54 69.6797 177.49 69.7297C177.49 69.7297 177.47 69.7497 177.46 69.7597C177.42 69.7997 177.38 69.8397 177.34 69.8697C177.31 69.8997 177.27 69.9297 177.24 69.9597C177.21 69.9897 177.18 70.0097 177.14 70.0397C177.1 70.0697 177.07 70.0997 177.03 70.1297C177 70.1597 176.96 70.1797 176.93 70.2097C176.89 70.2397 176.85 70.2697 176.81 70.2897C176.77 70.3197 176.74 70.3397 176.7 70.3697C176.66 70.3997 176.62 70.4197 176.57 70.4497C176.52 70.4797 176.46 70.5197 176.41 70.5497L72.1499 131.14L72.1299 136.61L176.39 76.0197C176.39 76.0197 176.45 75.9897 176.47 75.9697C176.5 75.9497 176.52 75.9397 176.55 75.9197C176.59 75.8897 176.63 75.8697 176.68 75.8397C176.72 75.8097 176.76 75.7897 176.79 75.7597C176.83 75.7297 176.87 75.7097 176.91 75.6797C176.95 75.6497 176.98 75.6297 177.01 75.5997C177.05 75.5697 177.08 75.5397 177.12 75.5197C177.15 75.4897 177.19 75.4697 177.22 75.4397C177.25 75.4097 177.29 75.3797 177.32 75.3497C177.33 75.3397 177.35 75.3297 177.36 75.3097C177.39 75.2797 177.41 75.2597 177.44 75.2297C177.44 75.2297 177.46 75.2097 177.47 75.1997C177.52 75.1497 177.57 75.0997 177.62 75.0497C177.63 75.0397 177.64 75.0297 177.65 75.0097C177.69 74.9697 177.73 74.9197 177.76 74.8797C177.76 74.8797 177.78 74.8597 177.78 74.8497C177.78 74.8497 177.78 74.8497 177.78 74.8397C177.79 74.8197 177.8 74.8097 177.82 74.7897C177.85 74.7397 177.89 74.6997 177.92 74.6497C177.94 74.6297 177.95 74.5997 177.97 74.5797C178 74.5397 178.02 74.4997 178.05 74.4597C178.05 74.4497 178.06 74.4397 178.07 74.4297C178.07 74.4097 178.09 74.3997 178.1 74.3797C178.12 74.3497 178.14 74.3097 178.15 74.2797C178.16 74.2497 178.18 74.2197 178.19 74.1897C178.21 74.1497 178.22 74.1197 178.23 74.0797C178.23 74.0597 178.24 74.0497 178.25 74.0297C178.25 74.0197 178.25 73.9997 178.26 73.9897C178.27 73.9597 178.28 73.9197 178.29 73.8897C178.29 73.8597 178.31 73.8297 178.32 73.7997C178.32 73.7697 178.34 73.7297 178.34 73.6997C178.34 73.6797 178.34 73.6597 178.35 73.6497C178.35 73.6397 178.35 73.6197 178.35 73.6097C178.35 73.5797 178.36 73.5397 178.37 73.5097C178.37 73.4797 178.37 73.4497 178.38 73.4197C178.38 73.3797 178.38 73.3497 178.38 73.3097C178.38 73.2897 178.38 73.2697 178.38 73.2497C178.38 73.2297 178.38 73.2097 178.38 73.1897L178.4 67.7197C178.4 67.7197 178.4 67.7997 178.4 67.8397L178.42 67.8297Z" fill="#DFDFE1"/>
<path d="M12.08 102.17C11.22 101.67 10.63 101.08 10.31 100.45C10.25 100.32 10.19 100.2 10.15 100.07C10.13 100.01 10.11 99.94 10.09 99.88C10.04 99.69 10.02 99.49 10.02 99.29L10 104.76C10 105.8 10.68 106.85 12.06 107.64L62.23 136.6L62.25 131.13L12.08 102.17Z" fill="#EFEFF0"/>
<path d="M176.36 64.8198C179.09 66.3998 179.11 68.9698 176.39 70.5498L72.1303 131.14C69.4103 132.72 64.9803 132.72 62.2503 131.14L12.0803 102.18C9.35028 100.6 9.33028 98.0298 12.0503 96.4498L116.31 35.8598C119.03 34.2798 123.46 34.2798 126.19 35.8598L176.36 64.8198Z" fill="#313A44"/>
<path d="M71.01 137.12C71.13 137.08 71.24 137.03 71.36 136.98C71.39 136.97 71.42 136.95 71.45 136.94C71.54 136.9 71.62 136.86 71.71 136.82C71.74 136.8 71.77 136.79 71.81 136.77C71.92 136.71 72.03 136.66 72.13 136.6L72.15 131.13C72.05 131.19 71.94 131.25 71.83 131.3C71.8 131.32 71.77 131.33 71.73 131.35C71.65 131.39 71.56 131.43 71.47 131.47C71.44 131.48 71.41 131.5 71.38 131.51C71.27 131.56 71.15 131.61 71.03 131.65C71.01 131.65 70.99 131.66 70.97 131.67C70.87 131.71 70.77 131.74 70.66 131.78C70.62 131.79 70.58 131.81 70.53 131.82C70.47 131.84 70.42 131.86 70.36 131.87C70.31 131.88 70.26 131.9 70.22 131.91C70.16 131.93 70.1 131.94 70.05 131.96C70 131.97 69.95 131.98 69.9 132C69.84 132.01 69.78 132.03 69.72 132.04C69.67 132.05 69.62 132.06 69.57 132.07C69.51 132.08 69.45 132.09 69.39 132.11C69.34 132.11 69.3 132.13 69.25 132.14C69.12 132.16 68.99 132.18 68.85 132.2C68.83 132.2 68.82 132.2 68.8 132.2C68.68 132.22 68.56 132.23 68.45 132.24C68.41 132.24 68.36 132.24 68.32 132.25C68.24 132.25 68.17 132.26 68.09 132.27C68.04 132.27 68 132.27 67.95 132.27C67.87 132.27 67.79 132.27 67.71 132.28C67.67 132.28 67.62 132.28 67.58 132.28C67.51 132.28 67.44 132.28 67.37 132.28C67.32 132.28 67.28 132.28 67.23 132.28C67.16 132.28 67.08 132.28 67.01 132.28C66.97 132.28 66.93 132.28 66.88 132.28C66.81 132.28 66.74 132.28 66.68 132.28C66.63 132.28 66.59 132.28 66.54 132.28C66.46 132.28 66.39 132.28 66.31 132.26C66.27 132.26 66.23 132.26 66.2 132.26C66.09 132.26 65.98 132.24 65.88 132.23C65.88 132.23 65.88 132.23 65.87 132.23C65.76 132.22 65.65 132.2 65.54 132.19C65.52 132.19 65.49 132.19 65.47 132.18C65.38 132.17 65.29 132.15 65.2 132.14C65.16 132.14 65.12 132.12 65.08 132.12C65.01 132.11 64.94 132.09 64.87 132.08C64.83 132.08 64.79 132.06 64.76 132.06C64.68 132.04 64.6 132.03 64.53 132.01C64.49 132 64.44 131.99 64.4 131.98C64.33 131.96 64.26 131.94 64.19 131.92C64.15 131.91 64.11 131.9 64.07 131.89C63.96 131.86 63.85 131.82 63.74 131.79C63.72 131.79 63.7 131.78 63.69 131.77C63.56 131.73 63.44 131.68 63.32 131.64C63.27 131.62 63.22 131.6 63.17 131.58C63.13 131.56 63.09 131.55 63.05 131.53C63 131.51 62.94 131.48 62.89 131.46C62.85 131.44 62.82 131.43 62.78 131.41C62.72 131.38 62.66 131.35 62.61 131.32C62.58 131.31 62.55 131.29 62.52 131.28C62.43 131.24 62.35 131.19 62.27 131.14L62.25 136.61C62.33 136.66 62.42 136.7 62.5 136.75C62.53 136.76 62.56 136.78 62.59 136.79C62.65 136.82 62.7 136.85 62.76 136.88C62.79 136.9 62.83 136.91 62.87 136.93C62.92 136.95 62.98 136.98 63.03 137C63.07 137.02 63.11 137.03 63.15 137.05C63.19 137.07 63.22 137.08 63.26 137.1C63.27 137.1 63.28 137.1 63.3 137.11C63.42 137.16 63.54 137.2 63.67 137.24C63.69 137.24 63.71 137.25 63.72 137.26C63.83 137.3 63.94 137.33 64.05 137.36C64.07 137.36 64.09 137.37 64.1 137.38C64.12 137.38 64.14 137.39 64.17 137.4C64.24 137.42 64.31 137.44 64.38 137.46C64.42 137.47 64.47 137.48 64.51 137.49C64.59 137.51 64.66 137.53 64.74 137.54C64.77 137.54 64.8 137.55 64.83 137.56C64.83 137.56 64.85 137.56 64.86 137.56C64.93 137.57 65 137.59 65.07 137.6C65.11 137.6 65.15 137.62 65.19 137.62C65.28 137.64 65.37 137.65 65.46 137.66C65.48 137.66 65.5 137.66 65.53 137.67C65.64 137.69 65.75 137.7 65.86 137.71C65.86 137.71 65.86 137.71 65.87 137.71C65.98 137.72 66.08 137.73 66.19 137.74C66.23 137.74 66.26 137.74 66.3 137.74C66.38 137.74 66.45 137.75 66.53 137.76C66.58 137.76 66.62 137.76 66.67 137.76C66.74 137.76 66.81 137.76 66.87 137.76C66.87 137.76 66.88 137.76 66.89 137.76C66.93 137.76 66.96 137.76 67 137.76C67.07 137.76 67.15 137.76 67.22 137.76C67.27 137.76 67.31 137.76 67.36 137.76C67.43 137.76 67.5 137.76 67.57 137.76C67.58 137.76 67.6 137.76 67.61 137.76C67.64 137.76 67.67 137.76 67.7 137.76C67.78 137.76 67.86 137.76 67.94 137.75C67.99 137.75 68.03 137.75 68.08 137.75C68.16 137.75 68.23 137.74 68.31 137.73C68.34 137.73 68.36 137.73 68.39 137.73C68.41 137.73 68.43 137.73 68.44 137.73C68.56 137.72 68.68 137.7 68.79 137.69C68.81 137.69 68.83 137.69 68.84 137.69C68.97 137.67 69.1 137.65 69.24 137.63C69.25 137.63 69.27 137.63 69.28 137.63C69.31 137.63 69.35 137.62 69.38 137.61C69.44 137.6 69.5 137.59 69.56 137.57C69.61 137.56 69.66 137.55 69.71 137.54C69.77 137.53 69.83 137.51 69.89 137.5C69.94 137.49 69.99 137.48 70.04 137.46C70.1 137.44 70.16 137.43 70.21 137.41C70.26 137.4 70.31 137.38 70.35 137.37C70.41 137.35 70.46 137.34 70.52 137.32C70.55 137.32 70.57 137.31 70.6 137.3C70.62 137.3 70.63 137.29 70.65 137.28C70.75 137.25 70.85 137.21 70.95 137.17C70.97 137.17 70.99 137.16 71.01 137.15V137.12Z" fill="url(#paint0_linear_1624_18519)"/>
<path d="M174.09 69.27L153.2 81.41L106.8 108.37L69.8298 129.86C68.3698 130.71 65.9998 130.71 64.5298 129.86L14.3598 100.9C12.8898 100.05 12.8798 98.68 14.3398 97.83L118.6 37.24C120.06 36.39 122.43 36.39 123.9 37.24L174.07 66.2C175.54 67.05 175.55 68.42 174.09 69.27Z" fill="white"/>
<path d="M39.0995 119.88C39.3095 120 39.4695 120.29 39.4695 120.53C39.4695 120.77 39.2995 120.86 39.0895 120.74L35.4495 118.64C35.2395 118.52 35.0695 118.23 35.0795 117.99C35.0895 117.75 35.2495 117.66 35.4595 117.78L39.0995 119.88Z" fill="#59595A"/>
<path d="M33.5904 116.67C33.8104 116.8 33.9804 117.1 33.9804 117.35C33.9804 117.6 33.8004 117.7 33.5804 117.58C33.3604 117.45 33.1904 117.15 33.1904 116.9C33.1904 116.65 33.3704 116.55 33.5904 116.67Z" fill="#59595A"/>
<path d="M32.0899 115.81C32.3099 115.94 32.4799 116.24 32.4799 116.49C32.4799 116.74 32.2998 116.84 32.0799 116.72C31.8599 116.59 31.6799 116.29 31.6899 116.04C31.6899 115.79 31.8699 115.69 32.0899 115.81Z" fill="#59595A"/>
<path d="M30.5904 114.94C30.8104 115.07 30.9804 115.37 30.9804 115.62C30.9804 115.87 30.8004 115.97 30.5804 115.85C30.3604 115.72 30.1904 115.42 30.1904 115.17C30.1904 114.92 30.3704 114.82 30.5904 114.94Z" fill="#59595A"/>
<path d="M40.9805 120.94C41.2005 121.07 41.3705 121.37 41.3705 121.62C41.3705 121.87 41.1905 121.97 40.9705 121.85C40.7505 121.72 40.5705 121.42 40.5805 121.17C40.5805 120.92 40.7605 120.82 40.9805 120.94Z" fill="#59595A"/>
<path d="M42.4801 121.81C42.7001 121.94 42.8701 122.24 42.8701 122.49C42.8701 122.74 42.6901 122.84 42.4701 122.72C42.2501 122.59 42.0801 122.29 42.0801 122.04C42.0801 121.79 42.2601 121.69 42.4801 121.81Z" fill="#59595A"/>
<path d="M43.9898 122.68C44.2098 122.81 44.3798 123.11 44.3798 123.36C44.3798 123.61 44.1998 123.71 43.9798 123.59C43.7598 123.46 43.5898 123.16 43.5898 122.91C43.5898 122.66 43.7698 122.56 43.9898 122.68Z" fill="#59595A"/>
<path d="M163.48 80.83C163.48 80.83 163.51 80.82 163.52 80.81C163.52 80.81 163.54 80.81 163.55 80.81C163.55 80.81 163.57 80.81 163.58 80.81C163.59 80.81 163.6 80.81 163.61 80.81C163.61 80.81 163.62 80.81 163.63 80.81C163.64 80.81 163.66 80.81 163.67 80.81C163.69 80.81 163.7 80.81 163.72 80.81C163.72 80.81 163.72 80.81 163.73 80.81C163.74 80.81 163.75 80.81 163.76 80.82C163.76 80.82 163.76 80.82 163.77 80.82C163.78 80.82 163.8 80.83 163.81 80.84L163.26 80.52C163.25 80.52 163.24 80.51 163.23 80.5C163.23 80.5 163.23 80.5 163.22 80.5C163.22 80.5 163.21 80.5 163.2 80.5C163.2 80.5 163.19 80.5 163.18 80.5C163.18 80.5 163.18 80.5 163.17 80.5C163.16 80.5 163.14 80.5 163.13 80.5C163.13 80.5 163.11 80.5 163.1 80.5C163.1 80.5 163.1 80.5 163.09 80.5C163.09 80.5 163.08 80.5 163.07 80.5C163.07 80.5 163.06 80.5 163.05 80.5C163.05 80.5 163.04 80.5 163.03 80.5C163.03 80.5 163.01 80.5 163 80.5C163 80.5 163 80.5 162.99 80.5C162.99 80.5 162.99 80.5 162.98 80.5C162.97 80.5 162.95 80.5 162.94 80.52C162.94 80.52 162.93 80.52 162.92 80.52C162.89 80.53 162.87 80.54 162.84 80.56L151.11 87.33C151.11 87.33 151.04 87.37 151.01 87.4C151.01 87.4 151 87.4 150.99 87.41C150.96 87.43 150.93 87.46 150.9 87.49C150.9 87.49 150.9 87.49 150.89 87.5C150.88 87.51 150.86 87.53 150.85 87.54C150.85 87.54 150.85 87.54 150.84 87.55C150.84 87.55 150.84 87.55 150.83 87.56C150.83 87.56 150.81 87.58 150.81 87.59C150.81 87.59 150.8 87.6 150.79 87.61C150.79 87.61 150.79 87.62 150.78 87.63C150.78 87.63 150.77 87.65 150.76 87.65C150.76 87.65 150.76 87.66 150.75 87.67C150.75 87.67 150.74 87.69 150.73 87.7C150.73 87.7 150.73 87.71 150.72 87.72C150.71 87.74 150.7 87.76 150.69 87.77C150.69 87.77 150.69 87.77 150.69 87.78C150.69 87.79 150.68 87.81 150.67 87.82C150.67 87.82 150.67 87.83 150.67 87.84C150.67 87.84 150.67 87.85 150.67 87.86C150.67 87.86 150.67 87.87 150.67 87.88C150.67 87.89 150.66 87.91 150.65 87.92C150.65 87.94 150.63 87.96 150.63 87.98C150.63 87.98 150.63 87.98 150.63 87.99C150.63 87.99 150.63 88 150.63 88.01C150.63 88.01 150.63 88.03 150.62 88.04C150.62 88.04 150.62 88.05 150.62 88.06C150.62 88.06 150.62 88.08 150.62 88.09C150.62 88.09 150.62 88.1 150.62 88.11C150.62 88.11 150.62 88.13 150.62 88.14C150.62 88.15 150.62 88.16 150.62 88.17C150.62 88.17 150.62 88.17 150.62 88.18V88.2C150.62 88.22 150.62 88.23 150.62 88.25C150.62 88.25 150.62 88.25 150.62 88.26C150.62 88.26 150.62 88.26 150.62 88.27C150.62 88.31 150.62 88.34 150.62 88.38C150.62 88.58 150.69 88.72 150.81 88.79L151.36 89.11C151.25 89.04 151.18 88.9 151.18 88.7C151.18 88.66 151.18 88.63 151.18 88.59C151.18 88.59 151.18 88.57 151.18 88.56C151.18 88.54 151.18 88.53 151.18 88.51C151.18 88.5 151.18 88.49 151.18 88.48C151.18 88.47 151.18 88.46 151.18 88.45C151.18 88.43 151.18 88.42 151.19 88.4C151.19 88.4 151.19 88.38 151.19 88.37C151.19 88.35 151.2 88.34 151.21 88.32C151.21 88.32 151.21 88.31 151.21 88.3C151.21 88.28 151.23 88.25 151.24 88.23C151.24 88.21 151.26 88.19 151.27 88.17C151.27 88.17 151.27 88.16 151.27 88.15C151.27 88.13 151.29 88.11 151.3 88.09C151.3 88.09 151.3 88.09 151.3 88.08C151.31 88.06 151.33 88.04 151.34 88.02C151.34 88.02 151.34 88.01 151.35 88C151.36 87.98 151.37 87.97 151.38 87.95C151.38 87.95 151.39 87.93 151.4 87.93C151.4 87.92 151.42 87.91 151.43 87.89C151.43 87.88 151.45 87.87 151.45 87.86C151.45 87.86 151.47 87.84 151.47 87.83C151.48 87.81 151.5 87.8 151.51 87.78C151.51 87.78 151.52 87.77 151.53 87.76C151.56 87.73 151.59 87.71 151.62 87.68C151.62 87.68 151.63 87.68 151.64 87.67C151.67 87.65 151.71 87.62 151.74 87.6L163.47 80.83C163.47 80.83 163.52 80.8 163.55 80.79H163.57L163.48 80.83Z" fill="#F6F6F8"/>
<path d="M163.37 80.88C163.72 80.68 164.01 80.84 164.01 81.24C164.01 81.64 163.73 82.13 163.38 82.33L151.65 89.1C151.3 89.3 151.01 89.14 151.01 88.74C151.01 88.34 151.29 87.85 151.64 87.65L163.37 80.88Z" fill="#EBEBED"/>
<g style="mix-blend-mode:multiply" opacity="0.2">
<g style="mix-blend-mode:multiply">
<path d="M77.1103 121.04C77.4103 121.22 77.4103 121.5 77.1103 121.68L69.2903 126.22C68.9903 126.4 68.5003 126.4 68.1903 126.22L21.9203 99.4996C21.6203 99.3196 21.6203 99.0396 21.9203 98.8596L29.7403 94.3196C30.0403 94.1396 30.5303 94.1396 30.8403 94.3196L77.1103 121.04Z" fill="#A4A4A7"/>
</g>
</g>
<path d="M75.5996 119.51V119.53C75.5996 119.53 75.5996 119.54 75.5996 119.55C75.5996 119.55 75.5996 119.56 75.5996 119.57C75.5996 119.57 75.5996 119.58 75.5996 119.59C75.5996 119.59 75.5996 119.61 75.5896 119.61C75.5896 119.61 75.5896 119.62 75.5796 119.63C75.5796 119.63 75.5696 119.65 75.5596 119.66C75.5596 119.66 75.5596 119.67 75.5496 119.68C75.5496 119.69 75.5296 119.7 75.5196 119.71C75.5196 119.71 75.5196 119.71 75.5096 119.72C75.5096 119.72 75.4896 119.73 75.4896 119.74C75.4896 119.74 75.4796 119.75 75.4696 119.76C75.4696 119.76 75.4496 119.77 75.4396 119.78C75.4396 119.78 75.4196 119.79 75.4096 119.8L67.8496 124.19V125.45L75.3996 121.06C75.3996 121.06 75.4096 121.06 75.4196 121.05C75.4196 121.05 75.4396 121.04 75.4496 121.03C75.4496 121.03 75.4596 121.02 75.4696 121.01C75.4696 121.01 75.4896 121 75.4896 120.99C75.4996 120.98 75.5096 120.97 75.5196 120.96C75.5196 120.96 75.5296 120.94 75.5396 120.93C75.5396 120.93 75.5396 120.93 75.5396 120.92C75.5396 120.92 75.5396 120.9 75.5496 120.9C75.5496 120.9 75.5496 120.9 75.5496 120.89C75.5496 120.89 75.5496 120.88 75.5496 120.87C75.5496 120.87 75.5496 120.86 75.5496 120.85V120.83C75.5496 120.83 75.5496 120.82 75.5496 120.81V119.55C75.5496 119.55 75.5496 119.56 75.5496 119.57L75.5996 119.51Z" fill="url(#paint1_linear_1624_18519)"/>
<path d="M75.38 119.18C75.67 119.35 75.67 119.62 75.38 119.79L67.82 124.18C67.53 124.35 67.05 124.35 66.76 124.18L22.03 98.3599C21.74 98.1899 21.74 97.9199 22.03 97.7499L29.59 93.3599C29.88 93.1899 30.36 93.1899 30.65 93.3599L75.38 119.18Z" fill="#F6F6F8"/>
<path d="M67.7203 124.23C67.7203 124.23 67.7003 124.23 67.6903 124.24C67.6703 124.24 67.6403 124.25 67.6203 124.26C67.6003 124.26 67.5703 124.27 67.5403 124.28C67.5103 124.28 67.4803 124.29 67.4503 124.3C67.4503 124.3 67.4403 124.3 67.4303 124.3C67.3903 124.3 67.3503 124.3 67.3003 124.3C67.3003 124.3 67.2903 124.3 67.2803 124.3C67.2403 124.3 67.2003 124.3 67.1603 124.3C67.1603 124.3 67.1503 124.3 67.1403 124.3C67.1003 124.3 67.0603 124.29 67.0203 124.28C67.0203 124.28 67.0103 124.28 67.0003 124.28C66.9603 124.28 66.9303 124.26 66.9003 124.25C66.9003 124.25 66.8903 124.25 66.8803 124.25C66.8403 124.23 66.8003 124.22 66.7703 124.2L22.0403 98.3803C21.8903 98.2903 21.8203 98.1803 21.8203 98.0703V99.3303C21.8203 99.4403 21.8903 99.5503 22.0403 99.6403L66.7703 125.46C66.7703 125.46 66.8403 125.5 66.8803 125.51C66.8803 125.51 66.8903 125.51 66.9003 125.51C66.9203 125.51 66.9403 125.53 66.9703 125.53C66.9803 125.53 67.0003 125.53 67.0103 125.53C67.0103 125.53 67.0203 125.53 67.0303 125.53C67.0303 125.53 67.0403 125.53 67.0503 125.53C67.0703 125.53 67.1003 125.53 67.1203 125.54C67.1203 125.54 67.1403 125.54 67.1503 125.54C67.1503 125.54 67.1603 125.54 67.1703 125.54C67.1703 125.54 67.1903 125.54 67.2003 125.54C67.2203 125.54 67.2503 125.54 67.2703 125.54H67.2903C67.2903 125.54 67.3003 125.54 67.3103 125.54C67.3203 125.54 67.3303 125.54 67.3403 125.54C67.3703 125.54 67.4003 125.54 67.4203 125.54C67.4203 125.54 67.4303 125.54 67.4403 125.54C67.4603 125.54 67.4803 125.54 67.5003 125.54C67.5003 125.54 67.5203 125.54 67.5303 125.54C67.5603 125.54 67.5803 125.53 67.6103 125.52C67.6203 125.52 67.6403 125.52 67.6503 125.52C67.6603 125.52 67.6703 125.52 67.6803 125.51C67.6803 125.51 67.7003 125.51 67.7103 125.5C67.7503 125.49 67.7803 125.47 67.8103 125.45V124.19C67.8103 124.19 67.7503 124.22 67.7103 124.24L67.7203 124.23Z" fill="#EFEFF0"/>
<path d="M34.3398 98.5895C34.3398 98.5895 34.3898 98.6295 34.3898 98.6595L34.4998 99.8895C34.4998 99.8895 34.4798 99.9495 34.4498 99.9695L32.7898 100.94C32.7198 100.98 32.6098 100.98 32.5498 100.94L30.3298 99.6595C30.2598 99.6195 30.2598 99.5595 30.3298 99.5195L31.9898 98.5495C31.9898 98.5495 32.0698 98.5195 32.1198 98.5195L34.2398 98.5795C34.2398 98.5795 34.3198 98.5895 34.3498 98.6095L34.3398 98.5895Z" fill="#5A6169"/>
<path d="M43.7603 105.56C43.9203 105.66 44.0403 105.78 44.1203 105.91C44.2003 106.04 44.2203 106.17 44.2203 106.3C44.2203 106.34 44.2203 106.38 44.1803 106.42C44.1203 106.49 44.0203 106.52 43.8903 106.52C43.8003 106.52 43.7203 106.5 43.6703 106.47C43.6403 106.45 43.6103 106.43 43.6003 106.4C43.5703 106.35 43.5803 106.3 43.5703 106.24C43.5703 106.07 43.4603 105.92 43.2703 105.81C43.2303 105.78 43.1803 105.76 43.1203 105.74C42.9203 105.66 42.6903 105.63 42.4503 105.63C42.3603 105.63 42.2703 105.63 42.1903 105.63C42.1403 105.63 42.0903 105.61 42.0603 105.59C42.0003 105.55 41.9603 105.5 41.9703 105.45C41.9803 105.36 42.0903 105.29 42.2403 105.28C42.3403 105.28 42.4403 105.28 42.5403 105.28C42.6803 105.28 42.8103 105.29 42.9503 105.31C43.1703 105.34 43.3703 105.4 43.5503 105.48C43.6303 105.51 43.7003 105.55 43.7703 105.59L43.7603 105.56Z" fill="#5A6169"/>
<path d="M44.4304 105.07C44.7104 105.23 44.9104 105.4 45.0504 105.59C45.1804 105.76 45.2604 105.93 45.2804 106.12C45.2804 106.19 45.2904 106.26 45.2804 106.34C45.2804 106.43 45.1504 106.5 44.9904 106.5C44.9104 106.5 44.8304 106.48 44.7804 106.45C44.7304 106.42 44.7004 106.39 44.7004 106.34C44.7004 106.27 44.7004 106.21 44.6904 106.14C44.6704 105.97 44.5804 105.8 44.4404 105.65C44.3304 105.53 44.2004 105.43 44.0404 105.34C43.9004 105.26 43.7304 105.19 43.5504 105.13C43.3204 105.06 43.0704 105.01 42.8104 104.98C42.6304 104.96 42.4504 104.96 42.2604 104.96C42.1604 104.96 42.0904 104.95 42.0304 104.91C42.0104 104.9 41.9904 104.88 41.9704 104.86C41.8804 104.76 41.9704 104.62 42.2304 104.62C42.6004 104.62 42.9604 104.62 43.3204 104.7C43.7504 104.78 44.1304 104.91 44.4204 105.08L44.4304 105.07Z" fill="#5A6169"/>
<path d="M42.8398 106.03C43.0198 106.13 43.0498 106.32 42.8398 106.44C42.6598 106.55 42.3398 106.57 42.1198 106.45C42.1198 106.45 42.1198 106.45 42.1098 106.45C41.9298 106.34 41.8998 106.16 42.0998 106.04C42.2798 105.92 42.5998 105.9 42.8298 106.03C42.8298 106.03 42.8298 106.03 42.8398 106.03Z" fill="#5A6169"/>
<path d="M56.8497 112.51C56.9597 112.57 56.9597 112.67 56.8497 112.73L55.1196 113.73C55.0096 113.79 54.8397 113.79 54.7397 113.73L51.6596 111.95C51.5496 111.89 51.5496 111.79 51.6596 111.73L53.3896 110.73C53.4996 110.67 53.6697 110.67 53.7797 110.73L55.8497 111.93L56.0796 111.79C56.0796 111.79 56.1497 111.77 56.1697 111.79L56.9296 112.23C56.9296 112.23 56.9596 112.27 56.9296 112.29L56.6996 112.43L56.8596 112.52L56.8497 112.51ZM53.4496 112.75C53.8796 113 54.5796 113 54.9996 112.75C55.4296 112.5 55.4296 112.1 54.9996 111.85C54.5696 111.6 53.8796 111.6 53.4496 111.85C53.0196 112.1 53.0196 112.5 53.4496 112.75Z" fill="#5A6169"/>
<path d="M54.8203 111.95C55.1503 112.14 55.1503 112.45 54.8203 112.64C54.4903 112.83 53.9603 112.83 53.6303 112.64C53.3003 112.45 53.3003 112.14 53.6303 111.95C53.9603 111.76 54.4903 111.76 54.8203 111.95Z" fill="#5A6169"/>
<path d="M66.7105 118.25C66.8805 118.35 66.8805 118.5 66.7105 118.6L65.7105 119.18C65.5005 119.3 65.1505 119.3 64.9405 119.18C64.7305 119.06 64.7305 118.86 64.9405 118.73C65.1505 118.61 65.5005 118.61 65.7105 118.73C65.7405 118.75 65.7605 118.76 65.7805 118.78L66.4005 118.42L65.3505 117.82L63.9705 118.62C63.7605 118.74 63.4105 118.74 63.2005 118.62C62.9905 118.5 62.9905 118.3 63.2005 118.17C63.4105 118.05 63.7605 118.05 63.9705 118.17C64.0005 118.19 64.0205 118.2 64.0405 118.22L65.0505 117.63C65.2205 117.53 65.4905 117.53 65.6505 117.63L66.7105 118.24V118.25Z" fill="#5A6169"/>
<g style="mix-blend-mode:multiply" opacity="0.25">
<path d="M153.2 81.4103L106.8 108.37L100.31 107.12L81.5501 117.95C80.2401 118.71 78.6201 118.71 77.3101 117.95L46.3401 100.07C45.1301 99.3703 45.1301 97.6203 46.3401 96.9103L113.15 58.3203L153.19 81.4003L153.2 81.4103Z" fill="#A4A4A7"/>
</g>
<g style="mix-blend-mode:multiply" opacity="0.2">
<path d="M164.05 65.2401L136.22 81.3101L122.71 73.4901L115.7 69.4401L106.62 59.0201L129.63 45.3301L164.05 65.2401Z" fill="#A4A4A7"/>
</g>
<path d="M134.78 50.5396V55.4696L128.38 51.7696V46.8496L130.78 48.2296L132.39 49.1596L134.78 50.5396Z" fill="#F3CDBC"/>
<path d="M134.78 50.5396L141.18 46.8496V51.7696L134.78 55.4696V50.5396Z" fill="#F0B79D"/>
<path d="M141.18 46.8504L134.78 50.5404L132.39 49.1604L130.77 48.2304L128.38 46.8504L134.78 43.1504L137.17 44.5304L138.79 45.4704L141.18 46.8504Z" fill="#F5D8CC"/>
<path d="M132.39 49.1605V51.3205L130.78 50.3905V48.2305L132.39 49.1605Z" fill="#F8E8DF"/>
<path d="M134.27 48.0796L132.39 49.1596L130.77 48.2296L132.65 47.1396L134.27 48.0796Z" fill="#FAEEE8"/>
<path d="M138.79 45.4703L136.91 46.5503L135.29 45.6203L137.17 44.5303L138.79 45.4703Z" fill="#FAEEE8"/>
<path d="M132.52 52.3896V53.5196L134.15 54.4596V53.3296L132.52 52.3896Z" fill="#EAEAEA"/>
<path d="M123.4 51.3505V64.9705L114.54 59.8505V46.2305L117.85 48.1405L120.09 49.4405L123.4 51.3505Z" fill="#F3CDBC"/>
<path d="M123.4 64.9704L129.31 61.5804V47.9004L123.4 51.3504V64.9704Z" fill="#F0B79D"/>
<path d="M129.31 47.9003L123.4 51.3503L120.08 49.4303L117.84 48.1303L114.54 46.2303L120.45 42.8203L123.76 44.7203L126.01 46.0103L129.31 47.9003Z" fill="#F5D8CC"/>
<path d="M120.09 49.4396V52.4396L117.85 51.1396V48.1396L120.09 49.4396Z" fill="#F8E8DF"/>
<path d="M126.01 46.0097L120.08 49.4297L117.84 48.1297L123.76 44.7197L126.01 46.0097Z" fill="#FAEEE8"/>
<path d="M119.67 59.5996V61.1596L121.92 62.4596V60.8996L119.67 59.5996Z" fill="#EAEAEA"/>
<path d="M146.64 55.9296V69.5496L137.78 64.4396V50.8096L141.09 52.7196L143.33 54.0196L146.64 55.9296Z" fill="#F3CDBC"/>
<path d="M146.64 69.5502L152.55 66.1602V52.4902L146.64 55.9302V69.5502Z" fill="#F0B79D"/>
<path d="M152.55 52.4904L146.64 55.9304L143.32 54.0104L141.08 52.7104L137.78 50.8104L143.69 47.4004L147 49.3004L149.25 50.5904L152.55 52.4904Z" fill="#F5D8CC"/>
<path d="M143.33 54.0197V57.0197L141.09 55.7197V52.7197L143.33 54.0197Z" fill="#F8E8DF"/>
<path d="M149.25 50.5898L143.32 54.0098L141.08 52.7098L147 49.2998L149.25 50.5898Z" fill="#FAEEE8"/>
<path d="M138.33 52.5596V54.1196L140.58 55.4296V53.8596L138.33 52.5596Z" fill="#EAEAEA"/>
<path d="M126.81 64.3802L139.09 71.4702V60.8302L126.81 53.7402V64.3802Z" fill="#F3CDBC"/>
<path d="M142.17 59.0596V69.6996L139.09 71.4696V60.8296L140.03 60.2896L141.23 59.5996L142.17 59.0596Z" fill="#F0B79D"/>
<path d="M142.17 59.0597L141.23 59.5997L140.03 60.2897L139.09 60.8297L126.81 53.7397L129.88 51.9697L142.17 59.0597Z" fill="#F5D8CC"/>
<path d="M141.23 59.6003L140.03 60.2903L137.75 58.9703L138.94 58.2803L141.23 59.6003Z" fill="#FAEEE8"/>
<path d="M131.37 53.7604L130.17 54.4504L127.88 53.1304L129.08 52.4404L131.37 53.7604Z" fill="#FAEEE8"/>
<path d="M141.23 59.5996V62.1596L140.03 62.8496V60.2896L141.23 59.5996Z" fill="#F8E8DF"/>
<path d="M127.54 63.6604L127.56 61.6904L131.49 63.9604V65.9404L127.54 63.6604Z" fill="#EAEAEA"/>
<path d="M106.6 59.0905L115.11 64.0005V56.6405L106.6 51.7305V59.0905Z" fill="#F3CDBC"/>
<path d="M117.23 55.4102V62.7702L115.11 64.0002V56.6402L115.76 56.2602L116.58 55.7802L117.23 55.4102Z" fill="#F0B79D"/>
<path d="M117.23 55.41L116.59 55.78L115.76 56.26L115.11 56.64L106.6 51.73L108.73 50.5L117.23 55.41Z" fill="#F5D8CC"/>
<path d="M116.59 55.7801L115.76 56.2601L114.17 55.3501L115 54.8701L116.59 55.7801Z" fill="#FAEEE8"/>
<path d="M109.76 51.7403L108.93 52.2203L107.35 51.3003L108.17 50.8203L109.76 51.7403Z" fill="#FAEEE8"/>
<path d="M116.58 55.7803V57.5503L115.76 58.0303V56.2603L116.58 55.7803Z" fill="#F8E8DF"/>
<path d="M107.11 58.5905L107.12 57.2305L109.84 58.8005V60.1705L107.11 58.5905Z" fill="#EAEAEA"/>
<path d="M122.6 68.09V73.5L115.58 69.44V64.04L118.21 65.56L119.98 66.58L122.6 68.09Z" fill="#F3CDBC"/>
<path d="M122.6 68.09L129.62 64.04V69.44L122.6 73.5V68.09Z" fill="#F0B79D"/>
<path d="M129.62 64.0402L122.6 68.0902L119.98 66.5802L118.2 65.5502L115.58 64.0402L122.6 59.9902L125.22 61.5002L127 62.5302L129.62 64.0402Z" fill="#F5D8CC"/>
<path d="M119.98 66.5796V68.9496L118.21 67.9296V65.5596L119.98 66.5796Z" fill="#F8E8DF"/>
<path d="M122.04 65.3901L119.98 66.5801L118.2 65.5501L120.26 64.3701L122.04 65.3901Z" fill="#FAEEE8"/>
<path d="M127 62.53L124.94 63.72L123.16 62.69L125.22 61.5L127 62.53Z" fill="#FAEEE8"/>
<path d="M120.13 70.1201V71.3601L121.91 72.3901V71.1501L120.13 70.1201Z" fill="#EAEAEA"/>
<path d="M132.38 72.2204V76.0504L127.41 73.1804V69.3604L129.27 70.4304L130.52 71.1504L132.38 72.2204Z" fill="#F3CDBC"/>
<path d="M132.38 72.2204L137.35 69.3604V73.1804L132.38 76.0504V72.2204Z" fill="#F0B79D"/>
<path d="M137.35 69.3602L132.38 72.2202L130.52 71.1502L129.27 70.4302L127.41 69.3602L132.38 66.4902L134.23 67.5602L135.49 68.2802L137.35 69.3602Z" fill="#F5D8CC"/>
<path d="M130.52 71.1497V72.8297L129.27 72.1097V70.4297L130.52 71.1497Z" fill="#F8E8DF"/>
<path d="M131.98 70.3098L130.52 71.1498L129.27 70.4298L130.72 69.5898L131.98 70.3098Z" fill="#FAEEE8"/>
<path d="M135.49 68.2796L134.03 69.1296L132.78 68.3996L134.23 67.5596L135.49 68.2796Z" fill="#FAEEE8"/>
<path d="M118.23 79.2099L97.8799 67.3799C98.3899 67.6799 98.7899 68.1899 99.0099 68.8799C99.1099 69.1899 99.1799 69.5499 99.2099 69.9299L119.56 81.7599C119.47 80.5199 118.98 79.6399 118.23 79.2099Z" fill="#232525"/>
<path d="M114.96 81.5899C116.52 80.6899 117.78 81.4099 117.79 83.1999C117.79 84.9899 116.54 87.1599 114.98 88.0599C113.42 88.9599 112.16 88.2399 112.15 86.4499C112.15 84.6599 113.4 82.4899 114.96 81.5899Z" fill="url(#paint2_linear_1624_18519)"/>
<path d="M115.33 80.2797C115.33 80.2797 115.34 80.2797 115.35 80.2797C115.41 80.2497 115.46 80.2297 115.52 80.2097C115.53 80.2097 115.54 80.2097 115.55 80.1997C115.61 80.1797 115.66 80.1597 115.72 80.1397C115.72 80.1397 115.73 80.1397 115.74 80.1397C115.79 80.1197 115.84 80.1097 115.9 80.0897C115.9 80.0897 115.92 80.0897 115.93 80.0897C115.97 80.0797 116.01 80.0697 116.05 80.0597C116.07 80.0597 116.09 80.0597 116.11 80.0497C116.17 80.0397 116.22 80.0297 116.28 80.0197C116.33 80.0197 116.38 80.0097 116.43 79.9997C116.45 79.9997 116.46 79.9997 116.48 79.9997C116.52 79.9997 116.55 79.9997 116.59 79.9997C116.61 79.9997 116.62 79.9997 116.64 79.9997C116.68 79.9997 116.71 79.9997 116.75 79.9997C116.76 79.9997 116.78 79.9997 116.79 79.9997C116.84 79.9997 116.89 79.9997 116.93 80.0097C116.93 80.0097 116.95 80.0097 116.96 80.0097C117 80.0097 117.04 80.0197 117.07 80.0297C117.08 80.0297 117.1 80.0297 117.11 80.0297C117.15 80.0297 117.19 80.0497 117.24 80.0597C117.28 80.0697 117.33 80.0897 117.37 80.0997C117.38 80.0997 117.39 80.0997 117.4 80.1097C117.43 80.1197 117.47 80.1397 117.5 80.1497C117.5 80.1497 117.52 80.1497 117.53 80.1597C117.57 80.1797 117.61 80.1997 117.66 80.2297L97.3099 68.3997C97.3099 68.3997 97.2999 68.3997 97.2899 68.3897C97.2599 68.3697 97.2199 68.3497 97.1899 68.3397C97.1899 68.3397 97.1699 68.3397 97.1599 68.3297C97.1399 68.3297 97.1199 68.3097 97.0999 68.2997C97.0899 68.2997 97.0699 68.2897 97.0599 68.2797C97.0499 68.2797 97.0399 68.2797 97.0299 68.2697C96.9899 68.2497 96.9499 68.2397 96.8999 68.2297C96.8599 68.2197 96.8199 68.2097 96.7699 68.1997C96.7599 68.1997 96.7399 68.1997 96.7299 68.1997C96.7199 68.1997 96.6999 68.1997 96.6899 68.1997C96.6699 68.1997 96.6399 68.1997 96.6199 68.1897C96.6199 68.1897 96.5999 68.1897 96.5899 68.1897C96.5499 68.1897 96.5099 68.1897 96.4599 68.1797C96.4599 68.1797 96.4599 68.1797 96.4499 68.1797C96.4399 68.1797 96.4199 68.1797 96.4099 68.1797C96.3699 68.1797 96.3399 68.1797 96.2999 68.1797C96.2799 68.1797 96.2699 68.1797 96.2499 68.1797C96.2399 68.1797 96.2299 68.1797 96.2099 68.1797C96.1899 68.1797 96.1599 68.1797 96.1399 68.1797C96.1199 68.1797 96.1099 68.1797 96.0899 68.1797C96.0399 68.1797 95.9899 68.1897 95.9399 68.1997C95.8799 68.1997 95.8299 68.2197 95.7699 68.2297C95.7499 68.2297 95.7299 68.2297 95.7099 68.2397C95.6699 68.2397 95.6399 68.2597 95.5999 68.2697C95.5999 68.2697 95.5899 68.2697 95.5799 68.2697H95.5599C95.5099 68.2797 95.4599 68.2997 95.3999 68.3197C95.3999 68.3197 95.3899 68.3197 95.3799 68.3197C95.3299 68.3397 95.2699 68.3597 95.2099 68.3797C95.1999 68.3797 95.1899 68.3797 95.1799 68.3897C95.1699 68.3897 95.1599 68.3897 95.1499 68.3997C95.0999 68.4197 95.0599 68.4397 95.0099 68.4597C95.0099 68.4597 94.9999 68.4597 94.9899 68.4597C94.9399 68.4797 94.8899 68.5097 94.8399 68.5397C94.8199 68.5397 94.8099 68.5597 94.7899 68.5597C94.7299 68.5897 94.6699 68.6197 94.6199 68.6597C94.5599 68.6997 94.4999 68.7297 94.4399 68.7697C94.4199 68.7797 94.3999 68.7997 94.3799 68.8097C94.3399 68.8397 94.2999 68.8597 94.2599 68.8897C94.2399 68.9097 94.2199 68.9197 94.1899 68.9397C94.1499 68.9697 94.1199 68.9897 94.0799 69.0197C94.0599 69.0397 94.0299 69.0497 94.0099 69.0697C93.9699 69.0997 93.9399 69.1297 93.8999 69.1597C93.8799 69.1797 93.8599 69.1897 93.8399 69.2097C93.7999 69.2397 93.7599 69.2797 93.7099 69.3197C93.6899 69.3297 93.6799 69.3497 93.6599 69.3597C93.5999 69.4097 93.5499 69.4597 93.4899 69.5097C93.4799 69.5197 93.4699 69.5297 93.4599 69.5397C93.4199 69.5797 93.3899 69.6097 93.3499 69.6497C93.3499 69.6497 93.3399 69.6597 93.3299 69.6697C93.2599 69.7297 93.1999 69.7997 93.1399 69.8697C93.1399 69.8697 93.1399 69.8697 93.1299 69.8797C93.0699 69.9397 93.0099 70.0097 92.9499 70.0797C92.9499 70.0797 92.9399 70.0897 92.9299 70.0997C92.9099 70.1297 92.8799 70.1497 92.8599 70.1797C92.8399 70.2097 92.8099 70.2397 92.7899 70.2697C92.7599 70.3097 92.7299 70.3397 92.6999 70.3797C92.6799 70.4097 92.6499 70.4397 92.6299 70.4697C92.6299 70.4697 92.6299 70.4797 92.6199 70.4897C92.6199 70.4897 92.6099 70.5097 92.5999 70.5197C92.5299 70.6097 92.4599 70.7097 92.3899 70.8097C92.3899 70.8097 92.3799 70.8297 92.3699 70.8397C92.3699 70.8397 92.3699 70.8397 92.3699 70.8497C92.2999 70.9397 92.2399 71.0397 92.1799 71.1397C92.1799 71.1397 92.1699 71.1597 92.1599 71.1697C92.1599 71.1797 92.1399 71.1997 92.1299 71.2097C92.0799 71.2897 92.0299 71.3697 91.9799 71.4497C91.9799 71.4597 91.9599 71.4697 91.9599 71.4897C91.9599 71.4897 91.9599 71.4897 91.9599 71.4997C91.9099 71.5897 91.8499 71.6897 91.7999 71.7797C91.7999 71.7797 91.7999 71.7997 91.7899 71.7997C91.7899 71.8197 91.7699 71.8297 91.7699 71.8497C91.7299 71.9297 91.6899 71.9997 91.6499 72.0797C91.6499 72.0997 91.6299 72.1097 91.6299 72.1297C91.6299 72.1297 91.6299 72.1497 91.6199 72.1597C91.5699 72.2597 91.5299 72.3497 91.4899 72.4497C91.4899 72.4597 91.4899 72.4697 91.4799 72.4797C91.4399 72.5697 91.4099 72.6597 91.3699 72.7497C91.3699 72.7597 91.3599 72.7797 91.3499 72.7897C91.3499 72.8097 91.3299 72.8397 91.3199 72.8597C91.3199 72.8797 91.2999 72.8997 91.2999 72.9297C91.2799 72.9897 91.2599 73.0497 91.2399 73.1097C91.2399 73.1197 91.2399 73.1297 91.2299 73.1497C91.2099 73.2197 91.1799 73.2897 91.1599 73.3597C91.1599 73.3797 91.1499 73.3997 91.1399 73.4197C91.1299 73.4597 91.1199 73.4997 91.1099 73.5397C91.1099 73.5497 91.1099 73.5697 91.1099 73.5797C91.1099 73.6097 91.0899 73.6497 91.0799 73.6797C91.0699 73.7197 91.0599 73.7697 91.0499 73.8097C91.0499 73.8397 91.0299 73.8797 91.0299 73.9097C91.0299 73.9297 91.0199 73.9597 91.0099 73.9797C91.0099 73.9997 91.0099 74.0097 91.0099 74.0297C90.9999 74.0797 90.9899 74.1297 90.9799 74.1797C90.9799 74.2097 90.9699 74.2497 90.9599 74.2797C90.9599 74.3297 90.9399 74.3797 90.9399 74.4297C90.9399 74.4497 90.9399 74.4797 90.9299 74.4997C90.9299 74.5097 90.9299 74.5197 90.9299 74.5297C90.9299 74.5497 90.9299 74.5797 90.9299 74.5997C90.9299 74.6497 90.9199 74.6997 90.9199 74.7497C90.9199 74.7797 90.9199 74.7997 90.9199 74.8297C90.9199 74.8797 90.9199 74.9297 90.9199 74.9797C90.9199 74.9997 90.9199 75.0197 90.9199 75.0497C90.9199 75.1197 90.9199 75.1897 90.9199 75.2597C90.9199 76.2297 91.1999 76.9697 91.6699 77.4197C91.7799 77.5197 91.8999 77.6097 92.0199 77.6897L112.37 89.5197C111.69 89.1197 111.27 88.2797 111.26 87.0897C111.26 87.0197 111.26 86.9497 111.26 86.8797C111.26 86.8597 111.26 86.8397 111.26 86.8097C111.26 86.7597 111.26 86.7097 111.26 86.6597C111.26 86.6297 111.26 86.6097 111.26 86.5797C111.26 86.5297 111.26 86.4797 111.27 86.4297C111.27 86.4097 111.27 86.3797 111.27 86.3597C111.27 86.3297 111.27 86.2897 111.28 86.2597C111.28 86.2097 111.29 86.1597 111.3 86.1097C111.3 86.0797 111.31 86.0397 111.32 86.0097C111.32 85.9597 111.34 85.9097 111.35 85.8597C111.35 85.8197 111.37 85.7797 111.38 85.7397C111.38 85.7097 111.39 85.6697 111.4 85.6397C111.41 85.5997 111.42 85.5497 111.43 85.5097C111.43 85.4797 111.45 85.4397 111.46 85.4097C111.47 85.3597 111.49 85.3097 111.5 85.2497C111.5 85.2297 111.51 85.2097 111.52 85.1897C111.54 85.1197 111.57 85.0397 111.59 84.9697C111.59 84.9597 111.59 84.9497 111.6 84.9297C111.62 84.8697 111.64 84.8097 111.66 84.7497C111.66 84.7297 111.68 84.7097 111.68 84.6797C111.69 84.6397 111.71 84.6097 111.72 84.5697C111.75 84.4797 111.79 84.3897 111.83 84.2997C111.83 84.2897 111.84 84.2697 111.85 84.2597C111.89 84.1597 111.94 84.0697 111.98 83.9697C111.99 83.9397 112 83.9197 112.02 83.8897C112.06 83.8097 112.1 83.7397 112.14 83.6597C112.15 83.6397 112.16 83.6097 112.18 83.5897C112.23 83.4997 112.28 83.3997 112.34 83.3097C112.35 83.2897 112.36 83.2797 112.37 83.2597C112.42 83.1797 112.47 83.0997 112.52 83.0197C112.53 82.9997 112.55 82.9697 112.56 82.9497C112.62 82.8497 112.69 82.7597 112.75 82.6597C112.75 82.6497 112.77 82.6297 112.78 82.6197C112.85 82.5197 112.92 82.4297 112.99 82.3297C113 82.3197 113.01 82.2997 113.02 82.2897C113.04 82.2597 113.07 82.2297 113.09 82.1997C113.12 82.1597 113.15 82.1297 113.18 82.0897C113.2 82.0597 113.23 82.0297 113.25 81.9997C113.28 81.9697 113.31 81.9297 113.33 81.8997C113.39 81.8297 113.45 81.7697 113.51 81.6997C113.57 81.6297 113.64 81.5697 113.7 81.4997C113.74 81.4597 113.78 81.4197 113.83 81.3797C113.84 81.3697 113.85 81.3597 113.86 81.3497C113.92 81.2997 113.97 81.2497 114.03 81.1997C114.05 81.1897 114.06 81.1697 114.08 81.1597C114.12 81.1197 114.16 81.0897 114.2 81.0597C114.22 81.0397 114.24 81.0297 114.26 81.0097C114.3 80.9797 114.33 80.9497 114.37 80.9197C114.39 80.8997 114.42 80.8897 114.44 80.8697C114.48 80.8397 114.51 80.8197 114.55 80.7897C114.57 80.7697 114.59 80.7597 114.62 80.7397C114.66 80.7097 114.7 80.6897 114.74 80.6597C114.76 80.6497 114.78 80.6297 114.8 80.6197C114.86 80.5797 114.92 80.5397 114.98 80.5097C115.04 80.4797 115.1 80.4397 115.15 80.4097C115.17 80.4097 115.18 80.3897 115.2 80.3897C115.25 80.3597 115.3 80.3397 115.35 80.3097L115.33 80.2797Z" fill="#353C41"/>
<path d="M114.96 80.4797C117.05 79.2697 118.76 80.2397 118.76 82.6497C118.76 85.0497 117.08 87.9797 114.98 89.1897C112.89 90.3997 111.19 89.4297 111.18 87.0197C111.18 84.6197 112.86 81.6897 114.96 80.4797ZM114.98 88.0697C116.54 87.1697 117.79 84.9897 117.79 83.2097C117.79 81.4197 116.52 80.6997 114.96 81.5997C113.4 82.4997 112.15 84.6797 112.15 86.4597C112.15 88.2497 113.42 88.9697 114.98 88.0697Z" fill="#464949"/>
<path d="M125.04 73.2998V77.6798C125.05 78.1798 124.7 78.7998 124.26 79.0498L119.56 81.7598C119.37 79.1298 117.38 78.1298 114.95 79.5298C112.52 80.9298 110.54 84.2298 110.37 87.0698L91.31 98.0798L91.29 92.7798L125.04 73.2998Z" fill="#313A44"/>
<path d="M91.2899 92.7795L70.9399 80.9595L70.8799 57.5195L91.2299 69.3395L91.2899 92.7795Z" fill="#5EA8FF"/>
<path d="M123.34 48.7696C123.34 48.7696 123.4 48.7396 123.42 48.7296C123.42 48.7296 123.44 48.7296 123.45 48.7196C123.48 48.7096 123.5 48.6996 123.53 48.6896C123.53 48.6896 123.54 48.6896 123.55 48.6896C123.58 48.6796 123.61 48.6696 123.65 48.6596C123.67 48.6596 123.69 48.6596 123.71 48.6496C123.71 48.6496 123.73 48.6496 123.74 48.6496C123.77 48.6496 123.79 48.6396 123.82 48.6396C123.86 48.6396 123.9 48.6396 123.94 48.6296H123.96C123.99 48.6296 124.03 48.6296 124.06 48.6296C124.06 48.6296 124.07 48.6296 124.08 48.6296C124.11 48.6296 124.13 48.6296 124.16 48.6296H124.18C124.21 48.6296 124.24 48.6396 124.27 48.6496C124.3 48.6496 124.32 48.6696 124.35 48.6796H124.37C124.39 48.6796 124.41 48.6996 124.44 48.7096C124.44 48.7096 124.45 48.7096 124.46 48.7196L104.11 36.8896C104.11 36.8896 104.11 36.8896 104.1 36.8896C104.08 36.8796 104.06 36.8696 104.03 36.8596C104.03 36.8596 104.03 36.8596 104.02 36.8596C104.02 36.8596 104.02 36.8596 104.01 36.8596C103.98 36.8496 103.96 36.8396 103.93 36.8296C103.9 36.8296 103.87 36.8196 103.84 36.8096C103.84 36.8096 103.84 36.8096 103.83 36.8096C103.83 36.8096 103.83 36.8096 103.82 36.8096C103.79 36.8096 103.77 36.8096 103.74 36.8096C103.74 36.8096 103.74 36.8096 103.73 36.8096C103.7 36.8096 103.66 36.8096 103.63 36.8096C103.63 36.8096 103.63 36.8096 103.62 36.8096C103.62 36.8096 103.62 36.8096 103.61 36.8096C103.57 36.8096 103.53 36.8096 103.49 36.8196C103.46 36.8196 103.44 36.8196 103.41 36.8296C103.41 36.8296 103.39 36.8296 103.38 36.8296C103.36 36.8296 103.35 36.8296 103.33 36.8396C103.3 36.8396 103.27 36.8596 103.23 36.8696C103.23 36.8696 103.22 36.8696 103.21 36.8696C103.18 36.8696 103.16 36.8896 103.13 36.8996C103.13 36.8996 103.13 36.8996 103.12 36.8996C103.12 36.8996 103.11 36.8996 103.1 36.8996C103.07 36.9096 103.04 36.9196 103.02 36.9396C103.01 36.9396 103 36.9496 102.99 36.9596C102.95 36.9796 102.92 36.9996 102.88 37.0196L72.6797 54.4496L93.0297 66.2796L123.23 48.8496C123.23 48.8496 123.31 48.8096 123.34 48.7896C123.35 48.7896 123.36 48.7796 123.37 48.7696H123.34Z" fill="#7FBAFF"/>
<path d="M123.19 48.8395C124.17 48.2695 124.97 48.7295 124.97 49.8595L125.04 73.2995L91.2897 92.7795L91.2197 69.3395C91.2197 68.2095 92.0097 66.8395 92.9897 66.2695L123.19 48.8395Z" fill="#458BE9"/>
<path d="M91.2405 69.1605C91.2405 69.1105 91.2405 69.0605 91.2505 69.0105C91.2505 69.0005 91.2505 68.9805 91.2505 68.9705C91.2505 68.9505 91.2505 68.9205 91.2605 68.9005C91.2605 68.8805 91.2605 68.8705 91.2605 68.8505C91.2605 68.8305 91.2605 68.8005 91.2705 68.7805C91.2705 68.7705 91.2705 68.7505 91.2705 68.7405C91.2805 68.6805 91.3005 68.6205 91.3105 68.5605C91.3105 68.5605 91.3105 68.5405 91.3105 68.5305C91.3205 68.4805 91.3405 68.4305 91.3605 68.3805C91.3605 68.3805 91.3605 68.3805 91.3605 68.3705C91.3805 68.3205 91.3905 68.2705 91.4105 68.2205C91.4105 68.2105 91.4105 68.2005 91.4205 68.1805C91.4405 68.1405 91.4505 68.1005 91.4705 68.0605C91.4705 68.0605 91.4705 68.0505 91.4705 68.0405C91.4905 67.9905 91.5105 67.9505 91.5305 67.9005C91.5305 67.8905 91.5405 67.8805 91.5505 67.8605C91.5705 67.8205 91.5905 67.7905 91.6005 67.7505C91.6005 67.7405 91.6105 67.7305 91.6205 67.7205C91.6405 67.6805 91.6705 67.6305 91.6905 67.5905C91.6905 67.5905 91.6905 67.5705 91.7005 67.5705C91.7205 67.5305 91.7505 67.4905 91.7705 67.4605C91.7705 67.4505 91.7805 67.4405 91.7905 67.4305C91.8205 67.3805 91.8505 67.3405 91.8805 67.3005C91.8805 67.3005 91.8805 67.2905 91.8905 67.2805C91.9205 67.2305 91.9505 67.1905 91.9905 67.1505C91.9905 67.1505 91.9905 67.1405 92.0005 67.1305C92.0405 67.0805 92.0905 67.0205 92.1305 66.9705C92.1305 66.9705 92.1405 66.9605 92.1505 66.9505C92.1805 66.9205 92.2105 66.8905 92.2305 66.8605C92.2605 66.8305 92.2905 66.8005 92.3205 66.7705C92.3205 66.7705 92.3305 66.7605 92.3405 66.7505C92.3805 66.7105 92.4205 66.6705 92.4605 66.6405C92.4605 66.6405 92.4605 66.6405 92.4705 66.6405C92.5105 66.6005 92.5605 66.5705 92.6005 66.5305C92.6005 66.5305 92.6205 66.5205 92.6205 66.5105C92.6605 66.4805 92.7105 66.4505 92.7505 66.4205C92.7505 66.4205 92.7705 66.4105 92.7705 66.4005C92.8205 66.3705 92.8605 66.3405 92.9105 66.3105L72.5605 54.4805C72.5605 54.4805 72.4705 54.5405 72.4205 54.5705C72.4205 54.5705 72.4005 54.5805 72.4005 54.5905C72.3605 54.6205 72.3105 54.6505 72.2705 54.6805C72.2705 54.6805 72.2505 54.6905 72.2505 54.7005C72.2105 54.7305 72.1605 54.7705 72.1205 54.8105C72.1205 54.8105 72.1205 54.8105 72.1105 54.8205C72.0705 54.8605 72.0305 54.8905 71.9905 54.9305C71.9905 54.9305 71.9905 54.9305 71.9805 54.9405C71.9505 54.9705 71.9205 55.0005 71.8905 55.0305C71.8605 55.0605 71.8305 55.0905 71.8105 55.1205C71.8105 55.1205 71.8105 55.1205 71.8105 55.1305C71.7705 55.1805 71.7205 55.2305 71.6805 55.2905C71.6805 55.2905 71.6805 55.2905 71.6805 55.3005C71.6505 55.3405 71.6105 55.3905 71.5805 55.4305C71.5805 55.4305 71.5805 55.4305 71.5805 55.4405C71.5505 55.4805 71.5205 55.5305 71.4905 55.5705C71.4905 55.5705 71.4905 55.5705 71.4905 55.5805C71.4905 55.5805 71.4905 55.5905 71.4805 55.6005C71.4605 55.6405 71.4305 55.6705 71.4105 55.7105C71.4105 55.7105 71.4105 55.7205 71.4005 55.7305C71.3705 55.7705 71.3505 55.8205 71.3305 55.8605C71.3305 55.8605 71.3305 55.8605 71.3305 55.8705C71.3305 55.8705 71.3305 55.8805 71.3205 55.8905C71.3005 55.9305 71.2805 55.9605 71.2705 56.0005C71.2705 56.0005 71.2705 56.0105 71.2605 56.0205C71.2605 56.0205 71.2605 56.0205 71.2605 56.0305C71.2405 56.0805 71.2205 56.1205 71.2005 56.1705C71.2005 56.1705 71.2005 56.1705 71.2005 56.1805C71.1805 56.2205 71.1705 56.2605 71.1505 56.3005C71.1505 56.3005 71.1505 56.3105 71.1505 56.3205C71.1505 56.3205 71.1505 56.3305 71.1505 56.3405C71.1305 56.3905 71.1105 56.4405 71.1005 56.4905C71.0805 56.5405 71.0705 56.5905 71.0505 56.6405C71.0505 56.6405 71.0505 56.6505 71.0505 56.6605C71.0505 56.6605 71.0505 56.6605 71.0505 56.6705C71.0305 56.7305 71.0205 56.7905 71.0105 56.8505C71.0105 56.8505 71.0105 56.8605 71.0105 56.8705V56.8905C71.0105 56.9105 71.0105 56.9405 71.0005 56.9605C71.0005 56.9805 71.0005 56.9905 71.0005 57.0105C71.0005 57.0305 71.0005 57.0605 70.9905 57.0805C70.9905 57.0905 70.9905 57.1005 70.9905 57.1105C70.9905 57.1605 70.9805 57.2105 70.9805 57.2605C70.9805 57.2705 70.9805 57.2805 70.9805 57.2905C70.9805 57.3405 70.9805 57.3905 70.9805 57.4405L91.3305 69.2705C91.3305 69.2205 91.3305 69.1705 91.3305 69.1205C91.3305 69.1105 91.3305 69.1005 91.3305 69.0905L91.2405 69.1605Z" fill="url(#paint3_linear_1624_18519)"/>
<path d="M80.8497 102.09C80.6997 101.84 80.5097 101.63 80.2997 101.46C80.2597 101.43 80.2097 101.39 80.1697 101.36C80.1297 101.33 80.0797 101.3 80.0297 101.27L59.6797 89.4404C60.4297 89.8704 60.9197 90.7504 61.0097 91.9904L81.3597 103.82C81.3097 103.12 81.1297 102.54 80.8497 102.09Z" fill="#6A7880"/>
<path d="M76.7602 103.65C78.3202 102.75 79.5802 103.47 79.5902 105.26C79.5902 107.05 78.3402 109.22 76.7802 110.12C75.2202 111.02 73.9602 110.3 73.9502 108.51C73.9502 106.72 75.2002 104.55 76.7602 103.65Z" fill="url(#paint4_linear_1624_18519)"/>
<path d="M72.9804 108.8C72.9804 108.8 72.9804 108.7 72.9804 108.65C72.9804 108.63 72.9804 108.6 72.9804 108.58C72.9804 108.53 72.9804 108.48 72.9904 108.43C72.9904 108.41 72.9904 108.38 72.9904 108.36C72.9904 108.33 72.9904 108.29 73.0004 108.26C73.0004 108.21 73.0104 108.16 73.0204 108.11C73.0204 108.08 73.0304 108.04 73.0404 108.01C73.0404 107.96 73.0604 107.91 73.0704 107.86C73.0704 107.82 73.0904 107.78 73.1004 107.74C73.1004 107.71 73.1104 107.67 73.1204 107.64C73.1304 107.6 73.1404 107.55 73.1504 107.51C73.1504 107.48 73.1704 107.44 73.1804 107.41C73.1904 107.36 73.2104 107.31 73.2204 107.25C73.2204 107.23 73.2304 107.21 73.2404 107.19C73.2604 107.12 73.2904 107.04 73.3104 106.97C73.3104 106.96 73.3104 106.95 73.3204 106.93C73.3404 106.87 73.3604 106.81 73.3804 106.75C73.3804 106.73 73.4004 106.71 73.4004 106.68C73.4104 106.64 73.4304 106.61 73.4404 106.57C73.4704 106.48 73.5104 106.39 73.5504 106.3C73.5504 106.29 73.5604 106.27 73.5704 106.26C73.6104 106.16 73.6604 106.07 73.7004 105.97C73.7104 105.94 73.7204 105.92 73.7404 105.89C73.7804 105.81 73.8204 105.74 73.8604 105.66C73.8704 105.64 73.8804 105.61 73.9004 105.59C73.9504 105.5 74.0004 105.4 74.0604 105.31C74.0704 105.29 74.0804 105.28 74.0904 105.26C74.1404 105.18 74.1904 105.1 74.2404 105.02C74.2504 105 74.2704 104.97 74.2804 104.95C74.3404 104.85 74.4104 104.76 74.4704 104.66C74.4704 104.65 74.4904 104.63 74.5004 104.62C74.5704 104.52 74.6404 104.43 74.7104 104.33C74.7204 104.32 74.7304 104.3 74.7404 104.29C74.7604 104.26 74.7904 104.23 74.8104 104.2C74.8404 104.16 74.8704 104.13 74.9004 104.09C74.9204 104.06 74.9504 104.03 74.9704 104C75.0004 103.97 75.0304 103.93 75.0504 103.9C75.1104 103.83 75.1704 103.77 75.2304 103.7C75.2304 103.7 75.2304 103.7 75.2304 103.69C75.2904 103.62 75.3604 103.56 75.4204 103.49C75.4604 103.45 75.5004 103.41 75.5504 103.37C75.5604 103.36 75.5704 103.35 75.5804 103.34C75.6404 103.29 75.6904 103.24 75.7504 103.19C75.7704 103.18 75.7804 103.16 75.8004 103.15C75.8404 103.11 75.8804 103.08 75.9204 103.04C75.9404 103.02 75.9604 103.01 75.9804 102.99C76.0204 102.96 76.0504 102.93 76.0904 102.9C76.1104 102.88 76.1404 102.87 76.1604 102.85C76.2004 102.82 76.2304 102.8 76.2704 102.77C76.2904 102.75 76.3104 102.74 76.3404 102.72C76.3804 102.69 76.4204 102.67 76.4604 102.64C76.4804 102.63 76.5004 102.61 76.5204 102.6C76.5804 102.56 76.6404 102.52 76.7004 102.49C76.7604 102.46 76.8204 102.42 76.8704 102.39C76.8904 102.39 76.9004 102.37 76.9204 102.37C76.9704 102.34 77.0204 102.32 77.0704 102.29C77.0704 102.29 77.0804 102.29 77.0904 102.29C77.1504 102.26 77.2004 102.24 77.2604 102.22C77.2704 102.22 77.2804 102.22 77.2904 102.21C77.3504 102.19 77.4004 102.17 77.4604 102.15C77.4604 102.15 77.4704 102.15 77.4804 102.15C77.5304 102.13 77.5804 102.12 77.6404 102.1C77.6404 102.1 77.6604 102.1 77.6704 102.1C77.7104 102.09 77.7504 102.08 77.7904 102.07C77.8104 102.07 77.8304 102.07 77.8504 102.06C77.9104 102.05 77.9604 102.04 78.0204 102.03C78.0704 102.03 78.1204 102.02 78.1704 102.01C78.1904 102.01 78.2004 102.01 78.2204 102.01C78.2604 102.01 78.2904 102.01 78.3304 102.01C78.3504 102.01 78.3604 102.01 78.3804 102.01C78.4204 102.01 78.4504 102.01 78.4904 102.01C78.5004 102.01 78.5204 102.01 78.5304 102.01C78.5804 102.01 78.6304 102.01 78.6704 102.02C78.6704 102.02 78.6904 102.02 78.7004 102.02C78.7404 102.02 78.7804 102.03 78.8104 102.04C78.8204 102.04 78.8404 102.04 78.8504 102.04C78.8904 102.04 78.9304 102.06 78.9804 102.07C79.0204 102.08 79.0704 102.1 79.1104 102.11C79.1204 102.11 79.1304 102.11 79.1404 102.12C79.1704 102.13 79.2104 102.15 79.2404 102.16C79.2404 102.16 79.2604 102.16 79.2704 102.17C79.3104 102.19 79.3504 102.21 79.4004 102.24L59.0504 90.4104C59.0504 90.4104 59.0404 90.4104 59.0304 90.4004C59.0004 90.3804 58.9604 90.3604 58.9304 90.3504C58.9304 90.3504 58.9104 90.3504 58.9004 90.3404C58.8804 90.3404 58.8604 90.3204 58.8404 90.3104C58.8304 90.3104 58.8104 90.3004 58.8004 90.2904C58.7904 90.2904 58.7804 90.2904 58.7704 90.2804C58.7304 90.2604 58.6904 90.2504 58.6404 90.2404C58.6004 90.2304 58.5604 90.2204 58.5104 90.2104C58.5004 90.2104 58.4804 90.2104 58.4704 90.2104C58.4604 90.2104 58.4404 90.2104 58.4304 90.2104C58.4104 90.2104 58.3804 90.2104 58.3604 90.2004C58.3604 90.2004 58.3404 90.2004 58.3304 90.2004C58.2904 90.2004 58.2504 90.2004 58.2004 90.1904C58.2004 90.1904 58.1904 90.1904 58.1804 90.1904C58.1704 90.1904 58.1504 90.1904 58.1404 90.1904C58.1004 90.1904 58.0704 90.1904 58.0304 90.1904C58.0104 90.1904 58.0004 90.1904 57.9804 90.1904C57.9704 90.1904 57.9604 90.1904 57.9404 90.1904C57.9204 90.1904 57.8904 90.1904 57.8704 90.1904C57.8504 90.1904 57.8404 90.1904 57.8204 90.1904C57.7704 90.1904 57.7204 90.2004 57.6704 90.2104C57.6104 90.2104 57.5604 90.2304 57.5004 90.2404C57.4804 90.2404 57.4604 90.2404 57.4404 90.2504C57.4004 90.2504 57.3704 90.2704 57.3304 90.2804C57.3304 90.2804 57.3204 90.2804 57.3104 90.2804C57.3104 90.2804 57.2904 90.2804 57.2804 90.2804C57.2304 90.2904 57.1804 90.3104 57.1204 90.3304C57.1204 90.3304 57.1104 90.3304 57.1004 90.3304C57.0504 90.3504 56.9904 90.3704 56.9304 90.3904C56.9204 90.3904 56.9104 90.3904 56.9004 90.4004C56.8904 90.4004 56.8804 90.4004 56.8704 90.4104C56.8204 90.4304 56.7804 90.4504 56.7304 90.4704C56.7304 90.4704 56.7204 90.4704 56.7104 90.4704C56.6604 90.4904 56.6104 90.5204 56.5604 90.5504C56.5404 90.5504 56.5304 90.5704 56.5104 90.5704C56.4504 90.6004 56.3904 90.6304 56.3404 90.6704C56.2804 90.7104 56.2204 90.7404 56.1604 90.7804C56.1404 90.7904 56.1204 90.8104 56.1004 90.8204C56.0604 90.8504 56.0204 90.8704 55.9804 90.9004C55.9604 90.9204 55.9404 90.9304 55.9104 90.9504C55.8704 90.9804 55.8404 91.0004 55.8004 91.0304C55.7804 91.0504 55.7504 91.0604 55.7304 91.0804C55.6904 91.1104 55.6604 91.1404 55.6204 91.1704C55.6004 91.1904 55.5804 91.2004 55.5604 91.2204C55.5204 91.2504 55.4804 91.2904 55.4404 91.3304C55.4204 91.3404 55.4104 91.3604 55.3904 91.3704C55.3304 91.4204 55.2804 91.4704 55.2204 91.5204C55.2104 91.5304 55.2004 91.5404 55.1904 91.5504C55.1504 91.5804 55.1204 91.6204 55.0804 91.6604C55.0804 91.6604 55.0704 91.6704 55.0604 91.6804C54.9904 91.7404 54.9304 91.8104 54.8704 91.8804C54.8704 91.8804 54.8704 91.8804 54.8604 91.8904C54.8004 91.9504 54.7404 92.0204 54.6804 92.0904C54.6804 92.0904 54.6704 92.1004 54.6604 92.1104C54.6404 92.1404 54.6104 92.1604 54.5904 92.1904C54.5704 92.2204 54.5404 92.2504 54.5204 92.2804C54.4904 92.3204 54.4604 92.3504 54.4304 92.3904C54.4104 92.4204 54.3804 92.4504 54.3604 92.4804C54.3604 92.4804 54.3604 92.4904 54.3504 92.5004C54.3504 92.5004 54.3404 92.5204 54.3304 92.5304C54.2604 92.6204 54.1904 92.7204 54.1204 92.8204C54.1204 92.8204 54.1104 92.8404 54.1004 92.8504C54.1004 92.8504 54.1004 92.8504 54.1004 92.8604C54.0304 92.9504 53.9704 93.0504 53.9104 93.1504C53.9104 93.1504 53.9004 93.1704 53.8904 93.1804C53.8904 93.1904 53.8704 93.2104 53.8604 93.2204C53.8104 93.3004 53.7604 93.3804 53.7104 93.4604C53.7104 93.4704 53.6904 93.4804 53.6904 93.5004C53.6904 93.5004 53.6904 93.5004 53.6904 93.5104C53.6404 93.6004 53.5804 93.7004 53.5304 93.7904C53.5304 93.7904 53.5304 93.8104 53.5204 93.8104C53.5204 93.8304 53.5004 93.8404 53.5004 93.8604C53.4604 93.9404 53.4204 94.0104 53.3804 94.0904C53.3804 94.1104 53.3604 94.1204 53.3604 94.1404C53.3604 94.1404 53.3604 94.1604 53.3504 94.1704C53.3004 94.2704 53.2604 94.3604 53.2204 94.4604C53.2204 94.4704 53.2204 94.4804 53.2104 94.4904C53.1704 94.5804 53.1404 94.6704 53.1004 94.7604C53.1004 94.7704 53.0904 94.7904 53.0804 94.8004C53.0804 94.8204 53.0604 94.8504 53.0504 94.8704C53.0504 94.8904 53.0304 94.9104 53.0304 94.9404C53.0104 95.0004 52.9904 95.0604 52.9704 95.1204C52.9704 95.1304 52.9704 95.1404 52.9604 95.1604C52.9404 95.2304 52.9104 95.3004 52.8904 95.3704C52.8904 95.3904 52.8804 95.4104 52.8704 95.4304C52.8604 95.4704 52.8504 95.5104 52.8404 95.5504C52.8404 95.5604 52.8404 95.5804 52.8404 95.5904C52.8404 95.6204 52.8204 95.6604 52.8104 95.6904C52.8004 95.7304 52.7904 95.7804 52.7804 95.8204C52.7804 95.8504 52.7604 95.8904 52.7604 95.9204C52.7604 95.9404 52.7504 95.9704 52.7404 95.9904C52.7404 96.0104 52.7404 96.0204 52.7404 96.0404C52.7304 96.0904 52.7204 96.1404 52.7104 96.1904C52.7104 96.2204 52.7004 96.2604 52.6904 96.2904C52.6904 96.3404 52.6704 96.3904 52.6704 96.4404C52.6704 96.4604 52.6704 96.4904 52.6604 96.5104C52.6604 96.5204 52.6604 96.5304 52.6604 96.5404C52.6604 96.5604 52.6604 96.5904 52.6604 96.6104C52.6604 96.6604 52.6504 96.7104 52.6504 96.7604C52.6504 96.7904 52.6504 96.8104 52.6504 96.8404C52.6504 96.8904 52.6504 96.9404 52.6504 96.9904C52.6504 97.0104 52.6504 97.0304 52.6504 97.0604C52.6504 97.1304 52.6504 97.2004 52.6504 97.2704C52.6504 98.4604 53.0804 99.3104 53.7604 99.7004L74.1104 111.53C73.4304 111.13 73.0104 110.29 73.0004 109.1C73.0004 109.03 73.0004 108.96 73.0004 108.89C73.0004 108.87 73.0004 108.85 73.0004 108.82L72.9804 108.8Z" fill="#353C41"/>
<path d="M76.7605 102.53C78.8505 101.32 80.5505 102.29 80.5605 104.7C80.5605 107.1 78.8805 110.03 76.7805 111.24C74.6805 112.45 72.9805 111.48 72.9805 109.07C72.9805 106.67 74.6605 103.74 76.7605 102.53ZM76.7805 110.12C78.3405 109.22 79.5905 107.04 79.5905 105.26C79.5905 103.48 78.3205 102.75 76.7605 103.65C75.2005 104.55 73.9505 106.73 73.9505 108.51C73.9505 110.3 75.2205 111.02 76.7805 110.12Z" fill="#464949"/>
<path d="M88.9103 78.1303C89.2703 77.9203 89.5603 78.0903 89.5603 78.5003L89.5803 86.4803C89.5803 86.8903 89.2903 87.4003 88.9303 87.6103L84.5203 90.1503C84.1103 90.3803 83.8103 90.1403 83.8803 89.6403L85.1103 80.9403C85.1703 80.5503 85.4303 80.1403 85.7503 79.9503L88.9103 78.1303Z" fill="#252C33"/>
<path d="M78.06 93.8797L57.71 82.0597L58.74 71.9697L79.09 83.7897L78.06 93.8797Z" fill="#313A44"/>
<path d="M82.9498 81.5697C83.4298 81.2897 83.7898 81.5897 83.6998 82.1797L82.5298 89.9498C82.3998 90.8098 81.8098 91.7197 81.1098 92.1197L78.0498 93.8897L79.0898 83.7997L82.9498 81.5697Z" fill="#252C33"/>
<path d="M70.5404 63.5803C70.5304 63.5803 70.5104 63.5603 70.4904 63.5603C70.4704 63.5603 70.4504 63.5503 70.4304 63.5403C70.4104 63.5403 70.3904 63.5303 70.3704 63.5303C70.3504 63.5303 70.3304 63.5303 70.3104 63.5303C70.2904 63.5303 70.2604 63.5303 70.2404 63.5303C70.2104 63.5303 70.1904 63.5303 70.1604 63.5303C70.1304 63.5303 70.0904 63.5403 70.0604 63.5503C70.0404 63.5503 70.0204 63.5603 69.9904 63.5703C69.9904 63.5703 69.9904 63.5703 69.9804 63.5703C69.9604 63.5703 69.9404 63.5803 69.9304 63.5903C69.9304 63.5903 69.9304 63.5903 69.9204 63.5903C69.9004 63.5903 69.8804 63.6103 69.8604 63.6203C69.8604 63.6203 69.8504 63.6203 69.8404 63.6303C69.8104 63.6403 69.7904 63.6603 69.7604 63.6703L60.1504 69.2203L80.5004 81.0503L90.1104 75.5003C90.1104 75.5003 90.1604 75.4703 90.1904 75.4603C90.1904 75.4603 90.2004 75.4603 90.2104 75.4503C90.2304 75.4503 90.2504 75.4303 90.2704 75.4203C90.2704 75.4203 90.2804 75.4203 90.2904 75.4203C90.3104 75.4203 90.3304 75.4103 90.3404 75.4003C90.3404 75.4003 90.3404 75.4003 90.3504 75.4003C90.3704 75.4003 90.3904 75.3903 90.4204 75.3803C90.4504 75.3803 90.4904 75.3603 90.5204 75.3603C90.5504 75.3603 90.5804 75.3603 90.6004 75.3603C90.6004 75.3603 90.6104 75.3603 90.6204 75.3603C90.6404 75.3603 90.6704 75.3603 90.6904 75.3603C90.6904 75.3603 90.6904 75.3603 90.7004 75.3603C90.7204 75.3603 90.7404 75.3603 90.7604 75.3603C90.7604 75.3603 90.7704 75.3603 90.7804 75.3603C90.8004 75.3603 90.8204 75.3603 90.8404 75.3703C90.8604 75.3703 90.8804 75.3803 90.9004 75.3903C90.9004 75.3903 90.9104 75.3903 90.9204 75.3903C90.9404 75.3903 90.9504 75.4003 90.9704 75.4103H90.9804L70.6304 63.5803H70.5404Z" fill="#F6F6F8"/>
<path d="M68.6202 109.76L68.5902 100.77L48.2402 88.9404L48.2702 97.9304C48.2702 98.3204 48.4102 98.5904 48.6302 98.7204L68.9802 110.55C68.7602 110.42 68.6202 110.15 68.6202 109.76Z" fill="#EFEFF0"/>
<path d="M69.8197 98.6396L49.4697 86.8096L57.7097 82.0596L78.0597 93.8796L69.8197 98.6396Z" fill="#F6F6F8"/>
<path d="M79.2098 82.7897C79.2098 82.7897 79.2098 82.7497 79.2198 82.7297C79.2198 82.7097 79.2298 82.6797 79.2398 82.6597C79.2398 82.6297 79.2498 82.6097 79.2598 82.5797C79.2598 82.5597 79.2698 82.5397 79.2798 82.5297C79.2798 82.4997 79.2998 82.4697 79.3098 82.4397C79.3098 82.4197 79.3198 82.4097 79.3298 82.3897C79.3398 82.3497 79.3598 82.3197 79.3698 82.2797C79.3698 82.2797 79.3698 82.2697 79.3698 82.2597C79.3898 82.2197 79.4098 82.1797 79.4298 82.1297C79.4298 82.1197 79.4398 82.1097 79.4498 82.0997C79.4698 82.0697 79.4798 82.0397 79.4998 82.0097C79.4998 81.9997 79.5098 81.9797 79.5198 81.9697C79.5398 81.9397 79.5498 81.9097 79.5698 81.8797C79.5698 81.8697 79.5798 81.8597 79.5898 81.8497C79.6198 81.8097 79.6398 81.7697 79.6698 81.7297C79.6998 81.6897 79.7198 81.6597 79.7498 81.6197C79.7698 81.5897 79.7898 81.5697 79.8098 81.5397C79.8198 81.5297 79.8298 81.5097 79.8398 81.4997C79.8798 81.4497 79.9198 81.4097 79.9598 81.3697C79.9798 81.3497 79.9998 81.3297 80.0198 81.3197C80.0298 81.3097 80.0498 81.2897 80.0598 81.2797C80.0798 81.2597 80.0998 81.2397 80.1198 81.2297C80.1298 81.2197 80.1498 81.2097 80.1598 81.1997C80.1798 81.1797 80.2098 81.1597 80.2298 81.1497C80.2398 81.1497 80.2498 81.1297 80.2698 81.1197C80.3098 81.0997 80.3398 81.0697 80.3798 81.0497L60.0298 69.2197C60.0298 69.2197 59.9598 69.2697 59.9198 69.2897C59.9098 69.2897 59.8998 69.3097 59.8798 69.3197C59.8598 69.3397 59.8298 69.3497 59.8098 69.3697C59.7998 69.3797 59.7798 69.3897 59.7698 69.3997C59.7498 69.4197 59.7298 69.4397 59.7098 69.4497C59.6998 69.4597 59.6798 69.4797 59.6698 69.4897C59.6598 69.4997 59.6398 69.5197 59.6298 69.5297C59.6298 69.5297 59.6298 69.5297 59.6198 69.5397C59.5798 69.5797 59.5398 69.6197 59.4998 69.6697C59.4898 69.6797 59.4798 69.6997 59.4698 69.7097C59.4498 69.7397 59.4298 69.7597 59.4098 69.7897C59.3798 69.8197 59.3598 69.8597 59.3298 69.8997C59.3098 69.9397 59.2798 69.9697 59.2598 70.0097C59.2598 70.0097 59.2598 70.0097 59.2598 70.0197C59.2598 70.0297 59.2498 70.0397 59.2398 70.0497C59.2298 70.0697 59.2198 70.0897 59.1998 70.1097C59.1998 70.1097 59.1898 70.1297 59.1798 70.1397C59.1798 70.1497 59.1598 70.1697 59.1598 70.1797C59.1598 70.1897 59.1498 70.1997 59.1398 70.2097C59.1398 70.2297 59.1198 70.2497 59.1098 70.2697C59.1098 70.2797 59.0998 70.2897 59.0898 70.2997C59.0898 70.2997 59.0898 70.2997 59.0898 70.3097C59.0698 70.3497 59.0598 70.3797 59.0398 70.4197C59.0398 70.4197 59.0398 70.4297 59.0398 70.4397C59.0298 70.4697 59.0198 70.4997 59.0098 70.5197V70.5397C59.0098 70.5597 58.9998 70.5697 58.9898 70.5897C58.9898 70.6097 58.9798 70.6197 58.9698 70.6397C58.9698 70.6497 58.9698 70.6597 58.9598 70.6797C58.9598 70.6997 58.9498 70.7197 58.9398 70.7397C58.9398 70.7497 58.9398 70.7597 58.9298 70.7697C58.9298 70.7797 58.9298 70.7997 58.9198 70.8097C58.9198 70.8297 58.9098 70.8597 58.8998 70.8797C58.8998 70.8797 58.8998 70.8997 58.8998 70.9097C58.8998 70.9197 58.8998 70.9297 58.8998 70.9397C58.8998 70.9797 58.8898 71.0097 58.8798 71.0497C58.8798 71.0597 58.8798 71.0697 58.8798 71.0797C58.8798 71.0997 58.8798 71.1097 58.8798 71.1297L58.7998 71.9397L79.1498 83.7697L79.2298 82.9597C79.2298 82.9597 79.2298 82.8997 79.2398 82.8797C79.2398 82.8397 79.2498 82.8097 79.2598 82.7697L79.2098 82.7897Z" fill="url(#paint5_linear_1624_18519)"/>
<path d="M68.5998 100.59C68.5998 100.59 68.5998 100.53 68.6098 100.5C68.6098 100.47 68.6198 100.43 68.6298 100.4C68.6298 100.38 68.6298 100.36 68.6398 100.33C68.6398 100.31 68.6498 100.29 68.6598 100.27C68.6598 100.24 68.6698 100.21 68.6798 100.18C68.6798 100.16 68.6898 100.15 68.6998 100.13C68.7098 100.1 68.7198 100.06 68.7298 100.03C68.7298 100.02 68.7298 100 68.7398 99.99C68.7598 99.94 68.7798 99.9 68.7898 99.85C68.7898 99.85 68.7898 99.84 68.7898 99.83C68.8098 99.79 68.8298 99.75 68.8498 99.71C68.8498 99.7 68.8598 99.69 68.8698 99.67C68.8898 99.63 68.9098 99.6 68.9298 99.56C68.9298 99.56 68.9298 99.55 68.9398 99.54C68.9598 99.5 68.9898 99.46 69.0198 99.41C69.0198 99.4 69.0398 99.39 69.0398 99.37C69.0598 99.34 69.0798 99.31 69.0998 99.28C69.1098 99.26 69.1198 99.25 69.1298 99.23C69.1498 99.21 69.1698 99.18 69.1898 99.16C69.2098 99.14 69.2198 99.12 69.2398 99.1C69.2598 99.08 69.2698 99.06 69.2898 99.05C69.3198 99.02 69.3398 98.99 69.3698 98.96C69.3898 98.94 69.3998 98.92 69.4198 98.91C69.4298 98.9 69.4498 98.88 69.4598 98.87C69.4798 98.85 69.5098 98.83 69.5298 98.81C69.5398 98.8 69.5598 98.79 69.5698 98.78C69.5998 98.76 69.6198 98.74 69.6498 98.72C69.6598 98.72 69.6698 98.7 69.6898 98.69C69.7298 98.66 69.7698 98.64 69.8098 98.62L49.4598 86.79C49.4598 86.79 49.3798 86.84 49.3398 86.86C49.3298 86.86 49.3198 86.88 49.2998 86.89C49.2698 86.91 49.2498 86.93 49.2198 86.95C49.2098 86.96 49.1898 86.97 49.1798 86.99C49.1598 87.01 49.1298 87.03 49.1098 87.05C49.0998 87.06 49.0798 87.08 49.0698 87.09C49.0698 87.09 49.0498 87.11 49.0398 87.11C49.0398 87.11 49.0198 87.13 49.0098 87.14C48.9798 87.17 48.9498 87.2 48.9298 87.23C48.9298 87.23 48.9098 87.25 48.8998 87.26C48.8998 87.26 48.8898 87.28 48.8798 87.29C48.8598 87.31 48.8498 87.33 48.8298 87.35C48.8198 87.36 48.8098 87.38 48.7998 87.39C48.7998 87.4 48.7798 87.41 48.7798 87.42C48.7698 87.44 48.7598 87.45 48.7498 87.47C48.7498 87.48 48.7298 87.49 48.7298 87.5C48.7198 87.52 48.6998 87.54 48.6898 87.56C48.6898 87.57 48.6698 87.58 48.6698 87.6C48.6698 87.6 48.6698 87.6 48.6698 87.61C48.6498 87.64 48.6298 87.68 48.6098 87.71C48.6098 87.71 48.6098 87.72 48.5998 87.73C48.5898 87.75 48.5698 87.78 48.5598 87.81C48.5598 87.82 48.5498 87.83 48.5398 87.85C48.5398 87.86 48.5298 87.87 48.5198 87.89C48.5198 87.9 48.5098 87.91 48.4998 87.92C48.4898 87.95 48.4698 87.98 48.4598 88.01C48.4598 88.01 48.4598 88.02 48.4598 88.03C48.4398 88.07 48.4298 88.1 48.4098 88.14C48.4098 88.14 48.4098 88.15 48.4098 88.16C48.4098 88.17 48.4098 88.19 48.3998 88.2C48.3998 88.22 48.3898 88.24 48.3798 88.26C48.3798 88.27 48.3798 88.29 48.3698 88.3C48.3698 88.32 48.3598 88.33 48.3498 88.35C48.3498 88.36 48.3498 88.37 48.3498 88.38C48.3498 88.4 48.3498 88.42 48.3398 88.44C48.3398 88.46 48.3298 88.48 48.3198 88.5C48.3198 88.5 48.3198 88.51 48.3198 88.52C48.3198 88.54 48.3198 88.55 48.3198 88.57C48.3198 88.6 48.3098 88.64 48.2998 88.67C48.2998 88.67 48.2998 88.69 48.2998 88.7C48.2998 88.72 48.2998 88.74 48.2998 88.76C48.2998 88.77 48.2998 88.79 48.2998 88.8C48.2998 88.85 48.2998 88.89 48.2998 88.94L68.6498 100.77C68.6498 100.77 68.6498 100.68 68.6498 100.63C68.6498 100.62 68.6498 100.6 68.6498 100.59H68.5998Z" fill="url(#paint6_linear_1624_18519)"/>
<path d="M91.2898 92.7897V91.4297L91.2398 76.1897C91.2398 75.4097 90.6798 75.0897 89.9998 75.4797L80.3898 81.0297C79.7698 81.3897 79.2498 82.2197 79.1698 82.9697L79.0898 83.7797L82.9498 81.5497C83.4298 81.2697 83.7898 81.5697 83.6998 82.1597L82.5298 89.9297C82.3998 90.7897 81.8098 91.6997 81.1098 92.0997L78.0498 93.8697L69.8198 98.6197C69.1398 99.0097 68.5898 99.9697 68.5898 100.75V104.51L68.5998 105.87V108.08L68.6098 109.74C68.6098 110.52 69.1698 110.84 69.8498 110.45L72.1598 109.11C72.2298 107.89 72.6398 106.58 73.2798 105.38C74.1198 103.78 75.3598 102.37 76.7398 101.57C78.1198 100.77 79.3598 100.75 80.2098 101.37C80.8498 101.84 81.2598 102.67 81.3498 103.8L91.2798 98.0697H91.2998L91.2798 92.7797L91.2898 92.7897ZM83.8798 89.6397L85.1098 80.9397C85.1598 80.5497 85.4298 80.1397 85.7498 79.9497L88.9098 78.1297C89.2698 77.9197 89.5598 78.0897 89.5598 78.4997L89.5798 86.4797C89.5798 86.8897 89.2898 87.3997 88.9298 87.6097L84.5198 90.1497C84.1098 90.3797 83.8098 90.1397 83.8798 89.6397Z" fill="#DBDBDF"/>
<path d="M51.5998 92.7699C52.3798 93.2199 53.0198 94.3199 53.0098 95.2199C53.0098 96.1199 52.3698 96.4799 51.5898 96.0299C50.8098 95.5799 50.1698 94.4799 50.1798 93.5799C50.1798 92.6799 50.8198 92.3199 51.5998 92.7699Z" fill="url(#paint7_linear_1624_18519)"/>
<path d="M65.0002 100.51C65.7802 100.96 66.4202 102.06 66.4102 102.96C66.4102 103.86 65.7702 104.22 64.9902 103.77C64.2102 103.32 63.5702 102.22 63.5802 101.32C63.5802 100.42 64.2202 100.06 65.0002 100.51Z" fill="url(#paint8_linear_1624_18519)"/>
<path d="M61.6002 98.8399C61.8802 98.9999 62.1102 99.3899 62.1102 99.7199C62.1102 100.04 61.8802 100.17 61.6002 100.01L61.5602 99.9899L55.0402 96.2299L55.0002 96.2099C54.7202 96.0499 54.4902 95.6599 54.4902 95.3399C54.4902 95.0199 54.7202 94.8899 55.0002 95.0499L61.5902 98.8599L61.6002 98.8399Z" fill="#44494F"/>
<path d="M61.3201 100.36C61.4101 100.41 61.4901 100.55 61.4701 100.65L61.2801 102.17C61.2301 102.58 60.9001 102.72 60.5201 102.5L58.8801 101.55L57.7001 100.87L56.0601 99.9202C55.6801 99.7002 55.3501 99.1802 55.3001 98.7202L55.1201 96.9902C55.1101 96.8802 55.1801 96.8202 55.2701 96.8802L61.3101 100.37L61.3201 100.36Z" fill="#44494F"/>
<path d="M68.6201 108.1L73.3001 105.4C72.6701 106.6 72.2601 107.91 72.1801 109.13L69.8701 110.47C69.1901 110.86 68.6301 110.55 68.6301 109.76V108.1H68.6201Z" fill="#B6B6B8"/>
<path d="M91.2897 98.09L81.3597 103.82C81.2797 102.69 80.8597 101.86 80.2197 101.39L91.2897 95V98.08V98.09Z" fill="#B6B6B8"/>
<path d="M129.4 13.1896C133.09 15.3196 136.08 20.4896 136.07 24.7396C136.07 27.4796 133.26 31.3196 131.28 33.7096C130.83 34.2596 130.09 34.2296 129.35 33.8096C128.61 33.3796 127.87 32.5496 127.42 31.4896C125.45 26.8196 122.69 19.7696 122.69 17.0296C122.7 12.7796 125.71 11.0696 129.4 13.2096V13.1896Z" fill="#EB7357"/>
<path d="M140.13 22.06C140.13 22.06 140.13 22.02 140.13 22C140.13 21.96 140.13 21.92 140.13 21.88C140.13 21.83 140.13 21.78 140.13 21.74C140.13 21.7 140.13 21.67 140.13 21.63C140.13 21.59 140.13 21.54 140.12 21.5C140.12 21.47 140.12 21.44 140.12 21.41C140.12 21.35 140.11 21.29 140.1 21.23C140.1 21.19 140.1 21.16 140.09 21.12C140.09 21.11 140.09 21.1 140.09 21.08C140.08 20.97 140.06 20.86 140.04 20.74C140.04 20.72 140.04 20.71 140.04 20.69C140.02 20.6 140.01 20.5 139.99 20.41C139.99 20.39 139.99 20.38 139.98 20.36C139.98 20.32 139.96 20.27 139.95 20.23C139.94 20.18 139.93 20.12 139.92 20.07C139.92 20.04 139.91 20.01 139.9 19.98C139.89 19.93 139.88 19.88 139.87 19.83C139.87 19.79 139.85 19.75 139.84 19.72C139.83 19.67 139.82 19.63 139.8 19.58C139.79 19.53 139.77 19.48 139.76 19.43C139.76 19.41 139.75 19.38 139.74 19.36C139.72 19.3 139.7 19.23 139.68 19.17C139.67 19.13 139.66 19.09 139.64 19.05C139.64 19.04 139.64 19.03 139.63 19.01C139.59 18.89 139.56 18.78 139.52 18.66C139.52 18.66 139.52 18.64 139.51 18.63C139.48 18.53 139.44 18.42 139.4 18.32C139.4 18.3 139.39 18.29 139.38 18.27C139.37 18.23 139.35 18.19 139.34 18.16C139.32 18.11 139.3 18.05 139.28 18C139.27 17.97 139.25 17.93 139.24 17.9C139.22 17.86 139.21 17.82 139.19 17.77C139.18 17.74 139.17 17.71 139.15 17.68C139.12 17.62 139.1 17.56 139.07 17.5C139.06 17.47 139.04 17.43 139.03 17.4C139.03 17.39 139.03 17.38 139.01 17.36C138.96 17.25 138.91 17.14 138.86 17.04C138.86 17.04 138.86 17.04 138.86 17.03C138.85 17 138.83 16.97 138.82 16.94C138.78 16.86 138.74 16.77 138.7 16.69C138.7 16.68 138.69 16.66 138.68 16.65C138.65 16.58 138.61 16.52 138.58 16.45C138.55 16.4 138.53 16.34 138.5 16.29C138.5 16.27 138.48 16.26 138.48 16.25C138.46 16.22 138.44 16.19 138.43 16.15C138.38 16.06 138.33 15.97 138.28 15.88C138.26 15.84 138.24 15.81 138.22 15.77C138.21 15.75 138.19 15.72 138.18 15.7C138.15 15.66 138.13 15.61 138.1 15.57C138.06 15.5 138.02 15.43 137.97 15.36C137.93 15.3 137.89 15.24 137.85 15.18C137.81 15.11 137.76 15.04 137.72 14.98C137.71 14.96 137.69 14.93 137.68 14.91C137.64 14.86 137.61 14.81 137.57 14.75C137.55 14.71 137.52 14.68 137.5 14.64C137.42 14.53 137.34 14.42 137.26 14.31C137.17 14.18 137.07 14.06 136.98 13.94C136.98 13.94 136.98 13.93 136.97 13.92C136.9 13.83 136.83 13.74 136.76 13.66C136.75 13.64 136.73 13.63 136.72 13.61C136.63 13.51 136.55 13.41 136.46 13.31C136.46 13.31 136.46 13.31 136.45 13.3C136.42 13.27 136.4 13.24 136.37 13.21C136.31 13.15 136.26 13.09 136.2 13.03C136.19 13.02 136.18 13.01 136.17 13C136.13 12.96 136.09 12.92 136.06 12.88C136.02 12.84 135.98 12.79 135.93 12.75C135.91 12.73 135.9 12.72 135.88 12.7C135.84 12.66 135.8 12.62 135.75 12.58C135.71 12.54 135.68 12.51 135.64 12.47C135.62 12.45 135.6 12.43 135.58 12.41C135.53 12.37 135.49 12.32 135.44 12.28C135.41 12.25 135.38 12.22 135.35 12.19C135.33 12.17 135.3 12.15 135.27 12.12C135.22 12.08 135.18 12.04 135.13 12C135.1 11.98 135.07 11.95 135.05 11.93C135.02 11.9 134.99 11.88 134.96 11.86C134.91 11.82 134.87 11.79 134.82 11.75C134.8 11.73 134.77 11.71 134.75 11.69C134.71 11.66 134.67 11.63 134.63 11.6C134.59 11.57 134.55 11.54 134.5 11.5C134.48 11.49 134.47 11.47 134.45 11.46C134.4 11.42 134.35 11.39 134.29 11.35C134.25 11.32 134.22 11.3 134.18 11.27C134.18 11.27 134.16 11.26 134.15 11.25C134.06 11.19 133.96 11.12 133.87 11.06C133.87 11.06 133.86 11.06 133.85 11.05C133.76 11 133.68 10.94 133.59 10.89C133.57 10.88 133.55 10.86 133.52 10.85C133.45 10.81 133.39 10.78 133.32 10.74C133.32 10.74 133.31 10.74 133.3 10.74C133.3 10.74 133.28 10.74 133.27 10.73C133.2 10.69 133.12 10.65 133.05 10.62C133.05 10.62 133.03 10.62 133.02 10.61C133.02 10.61 133.02 10.61 133.01 10.61C132.93 10.57 132.85 10.53 132.77 10.5C132.77 10.5 132.75 10.5 132.75 10.49C132.75 10.49 132.73 10.49 132.72 10.48C132.56 10.41 132.4 10.34 132.24 10.29C132.24 10.29 132.22 10.29 132.21 10.28C132.21 10.28 132.2 10.28 132.19 10.28C132.11 10.25 132.03 10.23 131.96 10.2C131.96 10.2 131.96 10.2 131.95 10.2C131.95 10.2 131.93 10.2 131.92 10.2C131.84 10.18 131.75 10.15 131.67 10.13C131.59 10.11 131.5 10.09 131.42 10.07H131.4C131.4 10.07 131.4 10.07 131.39 10.07C131.3 10.05 131.22 10.04 131.13 10.03C131.13 10.03 131.12 10.03 131.11 10.03C131.11 10.03 131.1 10.03 131.09 10.03C131 10.02 130.92 10.01 130.83 10C130.83 10 130.82 10 130.81 10C130.8 10 130.79 10 130.78 10C130.75 10 130.72 10 130.7 10C130.68 10 130.65 10 130.63 10C130.6 10 130.57 10 130.55 10C130.53 10 130.52 10 130.5 10C130.5 10 130.49 10 130.48 10C130.44 10 130.4 10 130.36 10C130.35 10 130.33 10 130.32 10C130.27 10 130.21 10 130.16 10.01C130.16 10.01 130.15 10.01 130.14 10.01C130.09 10.01 130.04 10.02 129.99 10.03C129.97 10.03 129.96 10.03 129.94 10.03C129.89 10.03 129.84 10.05 129.79 10.06C129.79 10.06 129.78 10.06 129.77 10.06C129.7 10.07 129.63 10.09 129.56 10.11C129.55 10.11 129.54 10.11 129.53 10.11C129.46 10.13 129.4 10.15 129.33 10.17C129.33 10.17 129.32 10.17 129.31 10.17C129.31 10.17 129.29 10.17 129.28 10.18C129.25 10.18 129.23 10.2 129.2 10.21C129.18 10.21 129.16 10.22 129.15 10.23C129.12 10.24 129.1 10.25 129.07 10.26C129.05 10.26 129.04 10.27 129.02 10.28C128.99 10.29 128.96 10.31 128.93 10.32C128.92 10.32 128.9 10.33 128.89 10.34C128.85 10.36 128.81 10.38 128.77 10.41L124.69 12.78C124.69 12.78 124.77 12.73 124.81 12.71C124.82 12.71 124.84 12.7 124.85 12.69C124.88 12.68 124.91 12.66 124.94 12.65C124.96 12.65 124.97 12.64 124.99 12.63C125.02 12.62 125.04 12.61 125.07 12.6C125.09 12.6 125.11 12.59 125.12 12.58C125.15 12.57 125.17 12.56 125.2 12.55C125.22 12.55 125.23 12.54 125.25 12.53C125.32 12.51 125.38 12.49 125.45 12.47C125.46 12.47 125.47 12.47 125.48 12.47C125.55 12.45 125.62 12.43 125.69 12.42H125.71C125.76 12.42 125.81 12.4 125.86 12.39C125.88 12.39 125.89 12.39 125.91 12.39C125.96 12.39 126.01 12.38 126.06 12.37C126.06 12.37 126.08 12.37 126.09 12.37C126.14 12.37 126.2 12.37 126.25 12.36C126.26 12.36 126.28 12.36 126.29 12.36C126.33 12.36 126.37 12.36 126.41 12.36C126.43 12.36 126.45 12.36 126.48 12.36C126.51 12.36 126.54 12.36 126.56 12.36C126.58 12.36 126.61 12.36 126.63 12.36C126.66 12.36 126.69 12.36 126.71 12.36C126.73 12.36 126.76 12.36 126.78 12.36C126.8 12.36 126.83 12.36 126.85 12.36C126.88 12.36 126.9 12.36 126.93 12.36C126.95 12.36 126.98 12.36 127 12.36C127.02 12.36 127.04 12.36 127.05 12.36C127.13 12.37 127.22 12.39 127.31 12.4C127.32 12.4 127.34 12.4 127.35 12.4C127.43 12.42 127.51 12.43 127.6 12.46C127.68 12.48 127.76 12.5 127.85 12.53C127.86 12.53 127.88 12.53 127.89 12.54C127.97 12.56 128.04 12.59 128.12 12.62C128.14 12.62 128.15 12.63 128.17 12.64C128.25 12.67 128.33 12.7 128.41 12.73C128.49 12.76 128.57 12.8 128.65 12.83C128.67 12.83 128.68 12.85 128.7 12.85C128.78 12.89 128.86 12.92 128.94 12.96C128.95 12.96 128.97 12.97 128.98 12.98C129.05 13.02 129.13 13.05 129.2 13.09C129.22 13.09 129.23 13.11 129.25 13.11C129.32 13.15 129.38 13.18 129.45 13.22C129.56 13.28 129.67 13.35 129.78 13.42C129.78 13.42 129.79 13.42 129.8 13.43C129.91 13.5 130.01 13.57 130.11 13.64C130.15 13.66 130.18 13.69 130.22 13.72C130.29 13.77 130.36 13.82 130.43 13.87C130.47 13.9 130.51 13.93 130.56 13.97C130.62 14.02 130.68 14.07 130.75 14.12C130.8 14.16 130.84 14.19 130.89 14.23C130.95 14.28 131.01 14.33 131.07 14.38C131.12 14.42 131.16 14.46 131.21 14.5C131.27 14.55 131.32 14.6 131.38 14.65C131.43 14.69 131.47 14.73 131.52 14.78C131.58 14.83 131.63 14.89 131.69 14.95C131.73 14.99 131.77 15.03 131.82 15.07C131.88 15.13 131.94 15.19 131.99 15.25C132.03 15.29 132.07 15.33 132.11 15.37C132.18 15.44 132.24 15.51 132.31 15.59C132.34 15.62 132.36 15.65 132.39 15.68C132.48 15.79 132.57 15.89 132.66 16C132.67 16.02 132.69 16.04 132.7 16.05C132.78 16.14 132.85 16.23 132.92 16.33C133.02 16.45 133.11 16.57 133.2 16.7C133.28 16.81 133.36 16.92 133.44 17.03C133.47 17.07 133.49 17.1 133.51 17.14C133.56 17.21 133.61 17.29 133.66 17.36C133.7 17.43 133.75 17.49 133.79 17.56C133.83 17.62 133.87 17.68 133.91 17.74C133.95 17.81 133.99 17.88 134.04 17.95C134.08 18.02 134.12 18.08 134.16 18.15C134.18 18.19 134.2 18.22 134.22 18.26C134.27 18.35 134.32 18.44 134.37 18.53C134.39 18.56 134.41 18.59 134.42 18.63C134.46 18.7 134.49 18.77 134.53 18.84C134.56 18.91 134.6 18.97 134.63 19.04C134.68 19.13 134.72 19.23 134.77 19.33C134.78 19.36 134.8 19.39 134.81 19.42C134.87 19.54 134.92 19.67 134.98 19.79C134.99 19.82 135.01 19.86 135.02 19.89C135.06 19.98 135.1 20.07 135.14 20.17C135.16 20.21 135.17 20.26 135.19 20.3C135.23 20.39 135.26 20.48 135.29 20.57C135.3 20.61 135.32 20.65 135.33 20.69C135.37 20.81 135.42 20.93 135.46 21.05C135.46 21.05 135.46 21.07 135.47 21.08C135.51 21.21 135.55 21.34 135.59 21.47C135.6 21.51 135.61 21.55 135.63 21.6C135.66 21.69 135.68 21.78 135.71 21.87C135.72 21.92 135.74 21.97 135.75 22.02C135.77 22.1 135.79 22.19 135.81 22.27C135.82 22.32 135.83 22.37 135.84 22.42C135.86 22.51 135.88 22.59 135.89 22.68C135.89 22.72 135.91 22.77 135.92 22.81C135.94 22.92 135.96 23.03 135.98 23.14C135.98 23.16 135.98 23.17 135.98 23.19C136 23.32 136.02 23.44 136.03 23.57C136.03 23.61 136.03 23.64 136.04 23.68C136.05 23.77 136.06 23.86 136.07 23.95C136.07 23.99 136.07 24.04 136.08 24.08C136.08 24.17 136.09 24.25 136.1 24.33C136.1 24.37 136.1 24.41 136.1 24.45C136.1 24.57 136.1 24.69 136.1 24.81C136.1 24.89 136.1 24.97 136.1 25.04C136.1 25.06 136.1 25.08 136.1 25.1C136.1 25.16 136.09 25.22 136.08 25.28C136.08 25.3 136.08 25.33 136.08 25.35C136.08 25.41 136.06 25.47 136.05 25.54C136.05 25.57 136.05 25.59 136.04 25.62C136.03 25.7 136.01 25.78 135.99 25.86C135.99 25.88 135.99 25.89 135.98 25.91C135.96 25.99 135.94 26.07 135.92 26.15C135.92 26.15 135.92 26.16 135.92 26.17C135.9 26.25 135.87 26.34 135.85 26.42C135.83 26.47 135.82 26.53 135.8 26.58C135.79 26.62 135.77 26.67 135.76 26.71C135.74 26.77 135.72 26.82 135.7 26.88C135.68 26.92 135.67 26.97 135.65 27.01C135.64 27.04 135.63 27.07 135.62 27.09C135.6 27.15 135.57 27.22 135.55 27.28C135.54 27.31 135.52 27.35 135.51 27.38C135.49 27.44 135.46 27.5 135.43 27.56C135.42 27.59 135.4 27.63 135.39 27.66C135.36 27.72 135.33 27.79 135.3 27.85C135.29 27.88 135.27 27.91 135.26 27.94C135.22 28.02 135.18 28.1 135.15 28.18C135.15 28.19 135.14 28.21 135.13 28.22C135.08 28.31 135.04 28.41 134.99 28.5C134.98 28.53 134.96 28.56 134.95 28.58C134.91 28.65 134.88 28.71 134.84 28.78C134.82 28.82 134.8 28.85 134.78 28.89C134.75 28.95 134.71 29.01 134.68 29.07C134.66 29.11 134.64 29.14 134.62 29.18C134.59 29.24 134.55 29.3 134.52 29.35C134.5 29.39 134.48 29.42 134.46 29.46C134.42 29.52 134.39 29.58 134.35 29.64C134.33 29.67 134.31 29.71 134.29 29.74C134.24 29.81 134.2 29.89 134.15 29.96C134.14 29.98 134.13 30 134.11 30.02C134.05 30.11 133.99 30.21 133.93 30.3C133.91 30.32 133.9 30.35 133.88 30.37C133.83 30.44 133.79 30.51 133.74 30.58C133.72 30.61 133.69 30.65 133.67 30.68C133.63 30.74 133.59 30.8 133.55 30.85C133.53 30.89 133.5 30.92 133.48 30.96C133.44 31.02 133.4 31.07 133.37 31.13C133.34 31.17 133.32 31.2 133.29 31.24C133.25 31.3 133.21 31.35 133.17 31.41C133.15 31.44 133.12 31.48 133.1 31.51C133.06 31.57 133.02 31.63 132.97 31.69C132.95 31.72 132.93 31.75 132.91 31.78C132.86 31.85 132.8 31.93 132.75 32C132.75 32.01 132.73 32.03 132.72 32.04C132.66 32.13 132.59 32.21 132.53 32.29C132.51 32.32 132.49 32.34 132.47 32.37C132.43 32.43 132.38 32.49 132.34 32.54C132.32 32.57 132.29 32.6 132.27 32.63C132.23 32.68 132.19 32.73 132.15 32.78C132.12 32.81 132.1 32.84 132.07 32.88C132.03 32.93 131.99 32.98 131.96 33.02C131.93 33.05 131.91 33.08 131.89 33.11C131.85 33.16 131.81 33.21 131.78 33.25C131.76 33.28 131.73 33.31 131.71 33.34C131.67 33.39 131.63 33.44 131.59 33.49C131.57 33.51 131.55 33.54 131.53 33.56C131.47 33.63 131.41 33.7 131.35 33.77C131.26 33.88 131.16 33.97 131.04 34.03L135.12 31.66C135.23 31.59 135.33 31.51 135.43 31.4C135.49 31.33 135.55 31.26 135.61 31.19C135.63 31.17 135.65 31.14 135.67 31.12C135.71 31.07 135.75 31.02 135.79 30.97C135.81 30.94 135.84 30.91 135.86 30.88C135.9 30.83 135.94 30.79 135.97 30.74C135.99 30.71 136.02 30.68 136.04 30.65C136.08 30.6 136.12 30.55 136.15 30.51C136.18 30.48 136.2 30.45 136.23 30.41C136.27 30.36 136.31 30.31 136.35 30.26C136.37 30.23 136.4 30.2 136.42 30.17C136.46 30.11 136.51 30.06 136.55 30C136.57 29.97 136.59 29.95 136.61 29.92C136.67 29.84 136.74 29.75 136.8 29.67C136.8 29.66 136.82 29.64 136.83 29.63C136.88 29.56 136.94 29.48 136.99 29.41C137.01 29.38 137.03 29.35 137.06 29.32C137.1 29.26 137.14 29.21 137.19 29.15C137.21 29.12 137.24 29.08 137.26 29.05C137.3 29 137.34 28.94 137.38 28.89C137.41 28.85 137.43 28.82 137.46 28.78C137.5 28.73 137.54 28.67 137.57 28.61C137.59 28.57 137.62 28.54 137.64 28.5C137.68 28.44 137.72 28.38 137.76 28.33C137.78 28.3 137.81 28.26 137.83 28.23C137.87 28.16 137.92 28.1 137.96 28.03C137.98 28.01 137.99 27.98 138.01 27.96C138.07 27.87 138.13 27.78 138.18 27.69C138.19 27.67 138.21 27.65 138.22 27.63C138.27 27.56 138.31 27.49 138.35 27.41C138.37 27.38 138.39 27.34 138.41 27.31C138.45 27.25 138.48 27.19 138.52 27.13C138.54 27.09 138.56 27.06 138.58 27.02C138.61 26.96 138.65 26.9 138.68 26.84C138.7 26.8 138.72 26.77 138.74 26.73C138.77 26.67 138.81 26.61 138.84 26.55C138.86 26.51 138.88 26.48 138.9 26.44C138.94 26.37 138.97 26.31 139.01 26.24C139.02 26.21 139.04 26.18 139.05 26.16C139.1 26.07 139.15 25.97 139.19 25.88C139.19 25.86 139.2 25.85 139.21 25.83C139.24 25.76 139.28 25.69 139.31 25.62C139.31 25.62 139.31 25.6 139.32 25.59C139.33 25.56 139.35 25.53 139.36 25.5C139.39 25.44 139.42 25.37 139.45 25.31C139.46 25.28 139.48 25.24 139.49 25.21C139.52 25.15 139.54 25.09 139.57 25.03C139.58 25 139.6 24.96 139.61 24.93C139.64 24.87 139.66 24.8 139.68 24.74C139.69 24.71 139.7 24.68 139.71 24.66V24.64C139.72 24.6 139.74 24.57 139.75 24.53C139.77 24.47 139.79 24.42 139.81 24.36C139.82 24.32 139.84 24.27 139.85 24.23C139.87 24.18 139.88 24.12 139.9 24.07C139.9 24.06 139.9 24.05 139.9 24.04C139.92 23.97 139.94 23.89 139.96 23.82C139.96 23.82 139.96 23.81 139.96 23.8C139.98 23.74 139.99 23.67 140.01 23.61C140.01 23.59 140.01 23.58 140.02 23.56C140.02 23.54 140.02 23.53 140.03 23.51C140.05 23.43 140.06 23.35 140.08 23.28C140.08 23.25 140.08 23.23 140.09 23.2C140.09 23.15 140.11 23.09 140.11 23.04V23.02C140.11 23 140.11 22.97 140.11 22.95C140.11 22.91 140.11 22.87 140.12 22.83C140.12 22.81 140.12 22.79 140.12 22.77C140.12 22.75 140.12 22.73 140.12 22.71C140.12 22.69 140.12 22.67 140.12 22.66C140.12 22.6 140.12 22.55 140.12 22.49C140.12 22.39 140.12 22.29 140.12 22.19L140.13 22.06Z" fill="url(#paint9_linear_1624_18519)"/>
<path d="M129.37 16.0102C131.5 17.2402 133.21 20.2102 133.21 22.6602C133.21 25.1002 131.47 26.0902 129.35 24.8602C127.22 23.6302 125.51 20.6602 125.51 18.2102C125.51 15.7702 127.25 14.7802 129.37 16.0102Z" fill="white"/>
<defs>
<linearGradient id="paint0_linear_1624_18519" x1="62.24" y1="134.46" x2="72.14" y2="134.46" gradientUnits="userSpaceOnUse">
<stop stop-color="#EFEFF0"/>
<stop offset="0.51" stop-color="#F6F6F8"/>
<stop offset="1" stop-color="#DFDFE1"/>
</linearGradient>
<linearGradient id="paint1_linear_1624_18519" x1="76.2696" y1="119.84" x2="66.9096" y2="125.24" gradientUnits="userSpaceOnUse">
<stop stop-color="#DFDFE1"/>
<stop offset="1" stop-color="#EFEFF0"/>
</linearGradient>
<linearGradient id="paint2_linear_1624_18519" x1="117.48" y1="80.5199" x2="111.62" y2="90.5899" gradientUnits="userSpaceOnUse">
<stop stop-color="#FFB451"/>
<stop offset="1" stop-color="#F98663"/>
</linearGradient>
<linearGradient id="paint3_linear_1624_18519" x1="82.6505" y1="60.2305" x2="81.1905" y2="62.7905" gradientUnits="userSpaceOnUse">
<stop stop-color="#7FBAFF"/>
<stop offset="1" stop-color="#5EA8FF"/>
</linearGradient>
<linearGradient id="paint4_linear_1624_18519" x1="79.4702" y1="101.47" x2="73.9802" y2="112.46" gradientUnits="userSpaceOnUse">
<stop stop-color="#FFB451"/>
<stop offset="1" stop-color="#F98663"/>
</linearGradient>
<linearGradient id="paint5_linear_1624_18519" x1="70.2198" y1="74.9997" x2="68.8498" y2="77.4797" gradientUnits="userSpaceOnUse">
<stop stop-color="#F6F6F8"/>
<stop offset="1" stop-color="#EFEFF0"/>
</linearGradient>
<linearGradient id="paint6_linear_1624_18519" x1="59.5398" y1="92.68" x2="58.4398" y2="94.51" gradientUnits="userSpaceOnUse">
<stop stop-color="#F6F6F8"/>
<stop offset="0.51" stop-color="#F6F6F8"/>
<stop offset="1" stop-color="#EFEFF0"/>
</linearGradient>
<linearGradient id="paint7_linear_1624_18519" x1="53.1898" y1="92.7699" x2="50.0998" y2="95.9299" gradientUnits="userSpaceOnUse">
<stop stop-color="#FFB451"/>
<stop offset="1" stop-color="#F98663"/>
</linearGradient>
<linearGradient id="paint8_linear_1624_18519" x1="66.3602" y1="100.58" x2="63.4702" y2="103.88" gradientUnits="userSpaceOnUse">
<stop stop-color="#FFB451"/>
<stop offset="1" stop-color="#F98663"/>
</linearGradient>
<linearGradient id="paint9_linear_1624_18519" x1="132.72" y1="13.71" x2="131.11" y2="32.76" gradientUnits="userSpaceOnUse">
<stop stop-color="#EF8E79"/>
<stop offset="1" stop-color="#E56B53"/>
</linearGradient>
</defs>
</svg>
