<svg width="200" height="150" viewBox="0 0 200 150" fill="none" xmlns="http://www.w3.org/2000/svg">
<path d="M157.77 21.4114C157.77 21.4114 156.489 24.7214 155.679 25.9314C154.869 27.1514 153.86 28.2914 153.86 28.2914C153.86 28.2914 147.649 35.0414 147.039 35.9214C146.429 36.8014 148.529 37.6114 149.199 37.6114C149.869 37.6114 156.43 33.0214 157.64 32.0714C158.86 31.1214 160.61 27.2114 161.22 26.1314C161.83 25.0514 160.609 22.5514 157.78 21.4014L157.77 21.4114Z" fill="#FDD7C7"/>
<path d="M146.81 36.0912C146.81 36.0912 145.82 36.2012 145.55 37.5512C145.28 38.9012 145.69 39.6112 146.18 40.1512C146.67 40.6912 148.88 38.2912 149.38 37.5712C149.88 36.8512 149.2 34.2412 146.81 36.0812V36.0912Z" fill="#FDD7C7"/>
<path d="M170.81 19.0011C169.57 19.3311 168.19 19.5411 167.28 18.7511C168.11 18.3511 168.92 17.7011 169.51 16.7511C170.49 15.1611 171.26 13.3611 171.48 11.6611C171.54 12.0811 171.68 12.6311 172.03 13.0511C172.66 13.8211 173.47 14.4011 173.88 14.9411C174.28 15.4811 172.35 18.5911 170.82 18.9911L170.81 19.0011Z" fill="#FDD7C7"/>
<path d="M160.5 30.8211C160.5 30.8211 161.04 36.2211 161.04 37.3911C161.04 38.5611 160.86 42.2511 160.59 43.6011C160.32 44.9511 162.66 45.7611 165.18 46.2111C167.7 46.6611 170.13 47.1111 172.83 46.9311C175.53 46.7511 176.34 45.9411 177.42 45.0411C178.5 44.1411 177.06 31.3511 178.05 29.1911C179.04 27.0311 180.03 23.2511 179.58 21.2711C179.13 19.2911 173.73 14.7911 173.73 14.7911C173.73 14.7911 171.94 19.9811 167.53 18.8111C163.12 17.6411 166.71 13.0811 166.71 13.0811C166.71 13.0811 163.02 12.7211 160.95 14.6111C158.88 16.5011 157.08 21.4511 157.08 21.4511C157.08 21.4511 157.62 22.9811 159.51 23.9711C161.4 24.9611 160.41 27.8411 160.5 30.8111V30.8211Z" fill="#00A9A7"/>
<g style="mix-blend-mode:multiply">
<path d="M171.48 12.551C171.27 14.251 170.56 16.041 169.66 17.641C169.12 18.591 168.37 19.241 167.61 19.641C166.49 20.231 165.32 20.311 164.68 20.071C163.6 19.671 163.31 18.721 162.35 15.931C161.4 13.141 161.73 9.09099 161.73 9.09099C163.1 3.82099 167.5 4.86099 169.04 5.58099C170.58 6.30099 170.91 8.01099 171.41 10.261C171.57 10.981 171.58 11.761 171.49 12.561L171.48 12.551Z" fill="#CCCCCC"/>
</g>
<path d="M171.48 11.9611C171.26 13.6611 170.49 15.4511 169.51 17.0511C168.93 18.0011 168.12 18.6511 167.28 19.0511C166.06 19.6411 164.8 19.7211 164.1 19.4811C162.93 19.0811 162.61 18.1311 161.58 15.3411C160.55 12.5511 160.9 8.50114 160.9 8.50114C162.39 3.23114 167.16 4.27114 168.82 4.99114C170.49 5.71114 170.85 7.42114 171.39 9.67114C171.56 10.3911 171.58 11.1711 171.47 11.9711L171.48 11.9611Z" fill="#FDD7C7"/>
<path d="M159.87 7.37097C159.87 7.37097 159.51 8.63097 159.96 9.40097C160.41 10.171 160.14 9.76097 160.82 10.571C161.5 11.381 162.67 10.301 163.66 10.841C164.65 11.381 165.15 11.611 166.27 11.521C167.4 11.431 168.25 11.931 168.25 11.931C168.25 11.931 168.79 12.971 168.75 13.871C168.7 14.771 170.1 13.511 170.1 13.511C170.1 13.511 169.38 11.261 170.05 10.811C170.73 10.361 171.04 12.611 171.13 13.151C171.22 13.691 171.54 14.011 172.03 12.651C172.53 11.301 172.3 10.351 172.39 9.41096C172.48 8.46097 171.85 8.06097 171.71 6.44096C171.57 4.82096 170.54 4.41096 169.68 3.56097C168.82 2.70096 166.53 3.11097 164.95 3.02097C163.37 2.93096 162.25 5.54097 161.26 5.86097C160.27 6.18096 159.86 7.39096 159.86 7.39096L159.87 7.37097Z" fill="#471F10"/>
<path d="M170.74 85.4009C170.74 85.4009 171.08 82.5309 170.81 81.6909C170.54 80.8509 173.78 81.6209 174.25 81.5209C174.72 81.4209 174.22 82.8709 174.82 84.1509C175.43 85.4309 174.11 86.2809 173.44 86.2409C172.76 86.2109 170.91 85.9709 170.74 85.4009Z" fill="#FDD7C7"/>
<path d="M160.64 76.6208C160.64 76.6208 161.18 74.0508 160.84 72.9708C160.5 71.8908 163.95 72.8008 164.42 73.0008C164.89 73.2008 164.62 75.6008 164.76 76.0408C164.9 76.4808 162.06 79.6508 160.64 76.6108V76.6208Z" fill="#FDD7C7"/>
<path d="M166.89 45.861C166.89 45.861 166.53 52.341 166.44 54.861C166.35 57.381 167.07 62.511 167.16 64.401C167.25 66.291 168.15 68.181 168.6 69.981C169.05 71.781 170.13 75.561 170.22 77.181C170.31 78.801 170.49 79.431 170.13 80.871C169.77 82.311 173.91 82.671 174.99 81.321C176.07 79.971 175.89 73.221 174.99 69.521C174.09 65.821 174.45 65.831 174.9 63.761C175.35 61.691 176.7 52.861 177.06 51.061C177.42 49.261 177.06 44.041 177.06 44.041C177.06 44.041 174.36 46.201 166.89 45.841V45.861Z" fill="#003B4F"/>
<path d="M160.86 43.8809C160.86 43.8809 159.06 54.6009 159.24 56.3109C159.42 58.0209 159.69 61.7109 159.69 61.7109C159.69 61.7109 160.32 70.8009 160.14 72.3409C159.96 73.8709 162.48 76.1209 164.91 73.5109C164.91 73.5109 166.08 67.2109 165.9 63.3409C165.72 59.4709 168.87 52.5309 169.32 50.4609C169.77 48.3909 169.86 46.5909 169.86 46.5909C169.86 46.5909 161.49 45.5109 160.86 43.8909V43.8809Z" fill="#003B4F"/>
<path d="M175.54 87.0513C175.14 87.8613 173.75 91.2713 172.43 92.4513C171.11 93.6313 167.97 93.5013 167.6 92.8513C167.53 92.7313 167.47 92.6213 167.43 92.5213C167.24 92.0613 167.32 91.7013 167.73 90.9613C167.94 90.5913 168.31 90.0213 168.69 89.4813C169.44 88.4113 169.97 87.2013 170.25 85.9213C170.36 85.4113 170.45 84.9713 170.46 84.8413C170.48 84.5713 171.96 84.5513 172.8 84.7613C173.1 84.8313 173.29 85.1113 173.29 85.4213C173.29 85.6513 173.35 85.8713 173.6 85.8213C174.11 85.7213 174.61 84.7713 174.61 84.2713C174.61 83.7713 174.71 83.5613 175.08 84.0313C175.23 84.2213 175.39 84.6013 175.51 85.0413C175.69 85.7213 175.77 86.5513 175.52 87.0413L175.54 87.0513Z" fill="#003B4F"/>
<path d="M175.54 87.0508C175.14 87.8608 173.75 91.2708 172.43 92.4508C171.11 93.6308 167.97 93.5008 167.6 92.8508C167.53 92.7308 167.47 92.6208 167.43 92.5208C168.18 92.6608 170 92.9008 171.31 92.1108C172.97 91.1108 175.22 87.1408 175.52 85.0508C175.7 85.7308 175.78 86.5608 175.53 87.0508H175.54Z" fill="#00A9A7"/>
<path d="M165.05 77.4305C165.05 77.8005 165.02 78.1605 164.93 78.4405C164.63 79.4205 162.03 80.2305 161.08 81.0105C160.13 81.7905 159.22 83.0005 157.87 83.4105C156.52 83.8105 155.27 83.9505 155.07 82.7005C155.06 82.6205 155.05 82.5505 155.04 82.4905C154.91 81.4505 155.26 81.3805 155.61 80.7405C155.98 80.0605 158.62 78.2405 159.16 77.7005C159.7 77.1605 160.58 76.2505 160.58 76.2505C161.86 76.1505 161.8 76.9605 162.34 77.3005C162.88 77.6405 163.79 76.5905 164.03 76.0905C164.27 75.5805 164.87 75.4805 164.87 75.4805C164.87 75.4805 165.06 76.5005 165.06 77.4405L165.05 77.4305Z" fill="#003B4F"/>
<path d="M165.05 77.4307C165.05 77.8007 165.02 78.1607 164.93 78.4407C164.63 79.4207 162.03 80.2307 161.08 81.0107C160.13 81.7907 159.22 83.0007 157.87 83.4107C156.52 83.8107 155.27 83.9507 155.07 82.7007C155.06 82.6207 155.05 82.5507 155.04 82.4907C155.27 82.7607 155.69 83.0307 156.45 82.9407C157.83 82.7707 159.08 81.7307 160.1 80.8807C161.11 80.0407 162.43 79.2607 163.27 78.7907C163.85 78.4607 164.53 77.9407 165.04 77.4407L165.05 77.4307Z" fill="#00A9A7"/>
<path d="M174.68 29.1807C174.68 29.1807 174.37 35.1807 174.37 36.4907C174.37 37.8007 174.62 38.1107 174.31 38.9907C174 39.8607 163.06 43.3607 163.06 43.3607C163.06 43.3607 162.94 45.3007 163.56 46.1707C164.18 47.0407 167.43 45.9207 169.12 45.8007C170.81 45.6807 177.56 44.1107 178.49 43.6807C179.43 43.2407 179.74 39.5607 179.8 38.2407C179.86 36.9207 180.05 29.5607 180.05 29.5607C180.05 29.5607 176.61 29.9307 174.68 29.1907V29.1807Z" fill="#FDD7C7"/>
<path d="M177.72 19.8306C178.48 19.8006 179.19 20.2106 179.53 20.8906C180.14 22.0906 181 24.6706 180.76 29.4706C180.76 29.4706 180.9 31.1406 175.99 30.4606C172.1 29.9206 174.24 22.3506 175.09 21.2806C175.97 20.1706 176.96 19.8706 177.72 19.8406V19.8306Z" fill="#00938F"/>
<path d="M148.25 45.6812L143.75 27.4912L156 34.0612L159.42 50.9912L148.25 45.9512V45.6812Z" fill="#005179"/>
<path d="M163.05 43.3613C163.05 43.3613 160.28 43.6113 159.53 43.5713C158.78 43.5313 157.53 42.9513 157.28 44.3213C157.03 45.6913 156.86 46.9013 157.82 47.3213C158.78 47.7413 161.32 47.2413 162.24 47.0313C163.16 46.8213 164.61 46.4913 164.61 46.4913L163.05 43.3713V43.3613Z" fill="#FDD7C7"/>
<path d="M158.96 43.6011L156.56 43.3611L154.8 42.8911C154.8 42.8911 154.46 42.8611 154.7 43.3011C154.94 43.7411 155.39 43.8911 156.15 44.1411C156.91 44.3911 158.85 44.4811 158.85 44.4811C158.85 44.4811 159.26 44.5111 158.95 43.6011H158.96Z" fill="#FDD7C7"/>
<path d="M158.58 44.4807L156.15 44.0407L154.39 43.5707C154.39 43.5707 154.05 43.5407 154.29 43.9807C154.53 44.4207 154.98 44.5707 155.74 44.8207C156.5 45.0707 158.31 45.4307 158.31 45.4307C158.31 45.4307 158.88 45.4007 158.58 44.4807Z" fill="#FDD7C7"/>
<path d="M159.09 45.3911L156.69 45.1511L154.93 44.6811C154.93 44.6811 154.59 44.6511 154.83 45.0911C155.07 45.5311 155.52 45.6811 156.28 45.9311C157.04 46.1811 158.61 46.5011 158.61 46.5011C158.61 46.5011 159.39 46.3011 159.08 45.3911H159.09Z" fill="#FDD7C7"/>
<path d="M159.73 46.5708L157.33 46.3308L155.57 45.8608C155.57 45.8608 155.23 45.8308 155.47 46.2708C155.71 46.7108 156.16 46.8608 156.92 47.1108C157.68 47.3608 159.62 47.4508 159.62 47.4508C159.62 47.4508 160.03 47.4808 159.72 46.5708H159.73Z" fill="#FDD7C7"/>
<path d="M160.59 43.6112C160.59 43.6112 159.7 42.8912 159.06 42.6912C158.42 42.4912 157.68 42.4512 157.68 42.4512L157.85 43.1312C157.85 43.1312 158.12 42.9312 158.46 43.4712C158.8 44.0112 160.6 43.6212 160.6 43.6212L160.59 43.6112Z" fill="#FDD7C7"/>
<path d="M145.93 36.6514C145.93 36.6514 146.27 37.2114 146.76 37.4814C147.26 37.7514 147.86 37.8914 147.98 38.1114C148.09 38.3414 147.87 38.3814 147.42 38.3614C146.97 38.3414 145.73 37.7314 145.57 37.4414C145.41 37.1514 145.43 36.8114 145.93 36.6514Z" fill="#FDD7C7"/>
<path d="M145.68 37.2207C145.68 37.2207 146.05 37.8307 146.59 38.1307C147.13 38.4207 147.79 38.5707 147.91 38.8207C148.03 39.0707 147.79 39.1107 147.3 39.0907C146.81 39.0707 145.46 38.4007 145.29 38.0907C145.12 37.7707 145.14 37.4007 145.68 37.2307V37.2207Z" fill="#FDD7C7"/>
<path d="M145.75 38.3213C145.75 38.3213 146.06 38.6413 146.54 38.8413C147.02 39.0413 147.66 39.2613 147.78 39.4613C147.91 39.6613 147.7 39.7213 147.29 39.7413C146.88 39.7613 145.67 39.3313 145.5 39.0813C145.33 38.8313 145.31 38.5113 145.75 38.3213Z" fill="#FDD7C7"/>
<path d="M145.84 39.1309C145.84 39.1309 146.23 39.5009 146.71 39.7009C147.19 39.9009 147.75 40.0809 147.87 40.2709C148 40.4709 147.79 40.5309 147.38 40.5509C146.96 40.5709 145.76 40.1409 145.59 39.8909C145.42 39.6409 145.4 39.3209 145.84 39.1309Z" fill="#FDD7C7"/>
<path d="M147.08 30.1507L146.45 27.7207L152.89 30.9607L153.25 33.2107L147.08 30.1507Z" fill="#FFAB31"/>
<g style="mix-blend-mode:multiply">
<path d="M139.19 124.811V131.351H128.48L90.75 110.341L72.92 113.221L30.75 88.9712C30.85 88.6212 30.97 88.2812 31.13 87.9312C31.5 87.1312 32.03 86.3412 32.72 85.6012C32.99 85.3112 33.27 85.0312 33.59 84.7612C34.15 84.3412 34.76 83.9412 35.44 83.5612L39.58 81.2512L40.94 80.4912L45.74 77.8212L48.29 76.4012L49.65 75.6413L52.09 74.2812L53.13 74.8913L55.28 76.1413L55.57 76.3112L58.11 77.7812L59.71 78.7113L60.56 79.2012L62.94 80.5812L64.68 81.5912L65.38 82.0012L68.47 83.7912L68.9 84.0412L69.43 84.3512L70.16 84.7712L70.92 85.2113L73.35 86.6212L73.7 86.8212L74.57 87.3312L75.1 87.6413L75.78 88.0412L79.32 90.0912L82.31 91.8212L91.7 97.2712L93.99 98.6012L96.31 99.9512L97.82 100.831L102.44 103.511H102.47L116.15 111.461L118.57 112.861L126.3 117.341L134.22 121.931L135.23 122.511L135.46 122.641L139.18 124.801L139.19 124.811Z" fill="#CED1D2"/>
</g>
<path d="M143 80.1413V53.2013L91.6501 23.5713L40.3301 53.2013L91.6201 82.8613L91.8001 109.661L143 80.1413Z" fill="#DEF1F0"/>
<path d="M96.3301 90.9209V107.091L105.18 101.981L138.33 82.8409V66.6709L124.85 74.4509L96.3301 90.9209Z" fill="#5D6385"/>
<path d="M91.8001 109.661L40.3301 80.1412V53.2012L91.6201 82.8612L91.8001 109.661Z" fill="#AAC5C3"/>
<path d="M170.35 102.211L170.02 102.411L167.4 103.941L166.15 104.671L156.13 110.551L134.23 123.381L133.13 124.031L132.95 124.141L117.65 115.191L96.2305 102.661L96.3305 101.701L98.1005 100.691L132.13 81.1707L133.71 80.2607L158.06 94.8507L170.35 102.211Z" fill="#B4C5C4"/>
<path d="M49.62 76.8311L40.29 82.2211L40.36 85.8511L49.7 80.4611L49.62 76.8311Z" fill="#C3D9D7"/>
<path d="M140.5 81.771V67.421C140.5 65.201 138.09 63.821 136.18 64.951L97.1803 87.871C95.2003 89.031 93.9803 91.161 93.9903 93.461L94.0303 108.601L96.3303 107.271V91.101L138.33 66.851V83.021L140.49 81.771H140.5Z" fill="#C1E0DE"/>
<path d="M143 53.2013L91.6201 82.8613L40.3301 53.2013L91.6501 23.5713L143 53.2013Z" fill="#D3EAE9"/>
<path d="M110.33 39.7311L88.36 22.1611L44.75 47.7411L68.33 63.9811L110.33 39.7311Z" fill="#D9F6F3"/>
<path d="M133.67 47.8105L82.7401 77.6905L68.3301 69.3605L119.67 39.7305L133.67 47.8105Z" fill="#5D6385"/>
<path d="M82.3302 82.8405V99.0005L49.6602 80.1405V63.9805L82.3302 82.8405Z" fill="#B1CAC8"/>
<path d="M82.3301 99.0006L73.0001 104.391L40.3301 85.5306L49.6601 80.1406L82.3301 99.0006Z" fill="#AEC4C2"/>
<path d="M174.94 105.251L138.84 125.921L134.23 123.381L134.12 123.321L124.82 118.201L129.25 115.691L137.88 120.681L138.23 120.881L156.13 110.551L166.23 104.721L166.15 104.671L165.86 104.521L156.6 99.5011L160.79 97.0811L170.02 102.411L170.45 102.661L174.94 105.251Z" fill="#D3EAE9"/>
<path d="M174.94 105.251V110.571L139.05 131.191L138.84 125.921L174.94 105.251Z" fill="#DEF1F0"/>
<path d="M139.05 131.191L134.42 128.401L133.37 129.041L129.41 126.731L116.04 118.931L96.04 107.261L96.23 102.661L117.65 115.191L132.95 124.141L134.26 123.261L134.27 123.271L138.84 125.921L139.05 131.191Z" fill="#C1E0DE"/>
<path d="M68.33 63.9812L45 50.5012L47.26 49.2012L68.33 63.9812Z" fill="#B1CAC8"/>
<path d="M101.05 75.4806L95.5204 72.3506L86.1504 77.7406L91.4704 81.0206L101.05 75.4806Z" fill="#3BA2C3"/>
<path d="M100.18 75.6213L95.2895 72.8613L87.0195 77.6213L91.7195 80.5113L100.18 75.6213Z" fill="white"/>
<path d="M134.21 61.2412V64.9512L98.1396 85.2812V81.4612L134.21 61.2412Z" fill="#B1CAC8"/>
<path d="M135.81 51.1806L133.6 49.8506L130.65 51.4606L132.91 52.7606L135.81 51.1806Z" fill="#E71A40"/>
<path d="M138.87 53.0009L136.66 51.6709L133.71 53.2809L135.97 54.5809L138.87 53.0009Z" fill="#FDA931"/>
<path d="M174.1 106.701V110.201L165.76 115.081L165.5 111.731L174.1 106.701Z" fill="#5D6385"/>
<path d="M174.1 106.701V110.201L165.48 115.191L165.5 111.731L174.1 106.701Z" fill="#5D6385"/>
<path d="M148.69 121.461V124.961L140.18 129.841L140.09 126.491L148.69 121.461Z" fill="#5D6385"/>
<path d="M124.72 119.291L136.36 125.611C136.94 125.921 137.31 126.521 137.35 127.181V127.261C137.4 128.181 136.43 128.791 135.62 128.351L124.89 122.561L124.73 119.281L124.72 119.291Z" fill="#DEF1F0"/>
<path d="M134.26 123.261L134.42 128.401L133.37 129.041L133.26 123.931L134.26 123.261Z" fill="#B3CCCA"/>
<g style="mix-blend-mode:multiply">
<path d="M170.45 102.661C169.5 103.091 168.47 103.531 167.39 103.951C166.89 104.151 166.38 104.341 165.86 104.521C165.42 104.681 164.97 104.831 164.52 104.981C162.37 105.681 159.9 106.801 157.56 107.991C152.75 110.431 148.46 113.171 148.46 113.171C148.46 113.171 145.3 115.421 141.33 118.251C140.35 118.941 139.14 119.801 137.88 120.681C136.59 121.581 135.27 122.511 134.12 123.321C133.82 123.531 133.53 123.741 133.26 123.931C133.22 123.961 133.17 123.991 133.13 124.031C132.9 124.241 132.4 126.281 132.45 128.501L116.05 118.931C116.78 117.771 117.43 116.441 117.66 115.191C117.81 114.391 117.78 113.621 117.48 112.951C116.61 111.021 109.9 107.031 104.3 103.961C101.81 102.601 99.5398 101.421 98.0998 100.681C97.9498 100.601 97.8198 100.531 97.6898 100.471C97.4898 100.371 97.4498 100.371 96.3398 99.5814V92.3914L101.76 89.2614L123.97 76.4414C126.42 77.8114 129.63 79.6714 129.76 79.7514C130.18 80.0014 131.02 80.5014 132.13 81.1614C133.54 82.0014 135.4 83.1114 137.45 84.3314C143.64 88.0114 151.56 92.7214 154.03 94.1514C155.2 94.8214 156.62 94.9814 158.06 94.8414L170.35 102.201L170.02 102.401L170.45 102.651V102.661Z" fill="#CED1D2"/>
</g>
<path d="M96.3301 90.9209V96.9809C97.4401 97.7709 98.3701 98.3909 98.5701 98.4909C99.9601 99.2009 102.44 100.481 105.18 101.981C110.78 105.051 117.49 109.031 118.36 110.971C119.55 113.601 116.53 117.731 115.11 119.461C114.75 119.901 114.84 120.561 115.31 120.881C115.34 120.901 115.36 120.921 115.39 120.931C122.37 125.731 125.69 126.691 126.78 126.871C127.03 126.911 127.29 126.861 127.51 126.711C130.01 124.951 136.85 120.081 142.22 116.261C146.19 113.431 149.35 111.181 149.35 111.181C149.35 111.181 153.65 108.441 158.46 106.001C160.81 104.811 163.27 103.681 165.42 102.991C170.41 101.371 174.92 98.9909 176.8 97.9409C177.32 97.6509 177.46 96.9609 177.09 96.4909C174.35 92.9409 168.82 90.8309 167.26 90.2909C167 90.2009 166.72 90.2209 166.48 90.3509C164.91 91.1909 158.64 94.3109 154.93 92.1709C152.45 90.7409 144.53 86.0409 138.35 82.3509C134.68 80.1709 131.62 78.3409 130.66 77.7709C130.53 77.6909 127.31 75.8309 124.87 74.4609L102.66 87.2809L96.3501 90.9209H96.3301Z" fill="#FDA931"/>
<path d="M126.6 126.271C125.32 125.891 119.33 123.971 115.84 120.651C115.72 120.541 115.75 120.341 115.9 120.271C116.53 119.971 118.29 119.541 121.85 121.301C123.63 122.181 127.2 123.941 126.9 126.081C126.88 126.221 126.74 126.321 126.6 126.281V126.271Z" fill="#E78629"/>
<path d="M140.46 117.691C145.38 114.181 149.3 111.391 149.3 111.391C149.3 111.391 154.63 107.991 160.6 104.961C158.93 104.361 144.72 99.561 139.88 107.591C137.21 112.021 138.55 115.441 140.46 117.691Z" fill="#FDC088"/>
<path d="M142.22 116.261C146.19 113.431 149.35 111.181 149.35 111.181C149.35 111.181 153.65 108.441 158.46 106.001C157.11 105.521 145.67 101.651 141.76 108.121C139.6 111.691 140.69 114.441 142.23 116.261H142.22Z" fill="#E78629"/>
<path d="M55.2898 83.8115V71.0215L48.2998 75.1715V87.8015L55.2898 83.8115Z" fill="#D9F6F3"/>
<path d="M48.2997 87.801L45.6797 86.281L45.7897 73.751L48.2997 75.171V87.801Z" fill="#D7F1EE"/>
<path d="M54.4203 77.4714L54.5303 83.5914L48.4603 86.9814L46.3303 85.7214L46.2803 80.3614L52.8403 76.6514L54.4203 77.4714Z" fill="#0DA9EB"/>
<path d="M55.29 71.0209L48.3 75.1709L45.79 73.7509L52.89 69.6309L55.29 71.0209Z" fill="#ECFFFA"/>
<path d="M49.6201 72.1112C49.6201 72.4712 50.1101 72.7712 50.7101 72.7712C51.3101 72.7712 51.8001 72.4812 51.8001 72.1112C51.8001 71.7412 51.3101 71.4512 50.7101 71.4512C50.1101 71.4512 49.6201 71.7412 49.6201 72.1112Z" fill="#D9F6F3"/>
<path d="M59.7205 86.6513V73.8613L52.7305 78.0113V90.6413L59.7205 86.6513Z" fill="#D9F6F3"/>
<path d="M52.7296 90.6408L50.0996 89.1308L50.2096 76.5908L52.7296 78.0108V90.6408Z" fill="#D7F1EE"/>
<path d="M58.8502 80.3112L58.9602 86.4312L52.8902 89.8212L50.7602 88.5612L50.7002 83.2112L57.2602 79.4912L58.8502 80.3112Z" fill="#EA008A"/>
<path d="M59.72 73.8605L52.73 78.0105L50.21 76.5905L57.32 72.4805L59.72 73.8605Z" fill="#ECFFFA"/>
<path d="M54.04 74.951C54.04 75.311 54.53 75.611 55.13 75.611C55.73 75.611 56.22 75.321 56.22 74.951C56.22 74.581 55.73 74.291 55.13 74.291C54.53 74.291 54.04 74.581 54.04 74.951Z" fill="#D9F6F3"/>
<path d="M79.3401 85.9408L76.9401 84.5508L69.8301 88.6708L72.3401 90.0908L79.3401 85.9408Z" fill="#D9F6F3"/>
<path d="M64.6902 89.5407V76.7607L57.7002 80.9107V93.5307L64.6902 89.5407Z" fill="#D9F6F3"/>
<path d="M57.7001 93.5312L55.0801 92.0212L55.1901 79.4912L57.7001 80.9112V93.5312Z" fill="#D7F1EE"/>
<path d="M63.8197 83.2106L63.9297 89.3306L57.8597 92.7106L55.7297 91.4606L55.6797 86.1006L62.2297 82.3906L63.8197 83.2106Z" fill="#FDF002"/>
<path d="M64.6904 76.7611L57.7004 80.9111L55.1904 79.4911L62.2904 75.3711L64.6904 76.7611Z" fill="#ECFFFA"/>
<path d="M60.1095 78.5007C60.7115 78.5007 61.1995 78.2052 61.1995 77.8407C61.1995 77.4762 60.7115 77.1807 60.1095 77.1807C59.5075 77.1807 59.0195 77.4762 59.0195 77.8407C59.0195 78.2052 59.5075 78.5007 60.1095 78.5007Z" fill="#D9F6F3"/>
<path d="M69.4502 92.3906V79.6006L62.4502 83.7506V96.3806L69.4502 92.3906Z" fill="#D9F6F3"/>
<path d="M62.4501 96.3811L59.8301 94.8611L59.9401 82.3311L62.4501 83.7511V96.3811Z" fill="#D7F1EE"/>
<path d="M68.5697 86.0505L68.6797 92.1705L62.6197 95.5605L60.4897 94.3005L60.4297 88.9405L66.9897 85.2305L68.5697 86.0505Z" fill="#231F20"/>
<path d="M69.4504 79.6009L62.4504 83.7509L59.9404 82.3309L67.0404 78.2109L69.4504 79.6009Z" fill="#ECFFFA"/>
<path d="M63.7695 80.6912C63.7695 81.0512 64.2595 81.3512 64.8595 81.3512C65.4595 81.3512 65.9495 81.0612 65.9495 80.6912C65.9495 80.3212 65.4595 80.0312 64.8595 80.0312C64.2595 80.0312 63.7695 80.3212 63.7695 80.6912Z" fill="#D9F6F3"/>
<path d="M74.5898 95.831V83.041L67.5898 87.191V99.821L74.5898 95.831Z" fill="#D9F6F3"/>
<path d="M67.5897 99.8215L64.9697 98.3115L65.0797 85.7715L67.5897 87.1915V99.8215Z" fill="#D7F1EE"/>
<path d="M73.7103 89.4909L73.8203 95.6109L67.7503 99.0009L65.6203 97.7409L65.5703 92.3909L72.1303 88.6709L73.7103 89.4909Z" fill="#0ACEC8"/>
<path d="M74.5901 83.0411L67.5901 87.1911L65.0801 85.7711L72.1801 81.6611L74.5901 83.0411Z" fill="#ECFFFA"/>
<path d="M68.9102 84.1307C68.9102 84.4907 69.4002 84.7907 70.0002 84.7907C70.6002 84.7907 71.0902 84.5007 71.0902 84.1307C71.0902 83.7607 70.6002 83.4707 70.0002 83.4707C69.4002 83.4707 68.9102 83.7607 68.9102 84.1307Z" fill="#D9F6F3"/>
<path d="M79.3398 98.7314V85.9414L72.3398 90.0914V102.711L79.3398 98.7314Z" fill="#D9F6F3"/>
<path d="M72.3397 102.711L69.7197 101.201L69.8297 88.6709L72.3397 90.0909V102.711Z" fill="#D7F1EE"/>
<path d="M78.4703 92.3913L78.5703 98.5113L72.5103 101.891L70.3803 100.641L70.3203 95.2813L76.8803 91.5713L78.4703 92.3913Z" fill="#0EA7A5"/>
<path d="M79.3401 85.9408L72.3401 90.0908L69.8301 88.6708L76.9401 84.5508L79.3401 85.9408Z" fill="#ECFFFA"/>
<path d="M73.6602 87.0213C73.6602 87.3813 74.1502 87.6813 74.7502 87.6813C75.3502 87.6813 75.8402 87.3913 75.8402 87.0213C75.8402 86.6513 75.3502 86.3613 74.7502 86.3613C74.1502 86.3613 73.6602 86.6513 73.6602 87.0213Z" fill="#D9F6F3"/>
<path d="M82.2497 95.3711L72.9297 100.771L72.9997 104.391L82.3297 99.0011L82.2497 95.3711Z" fill="#D7F1EE"/>
<path d="M72.9301 100.771L40.3601 82.041L40.3301 85.531L73.0001 104.391L72.9301 100.771Z" fill="#D7F1EE"/>
<path d="M81.3099 82.9905L53.4399 66.8105L53.3799 68.7205L81.2499 84.6305L81.3099 82.9905Z" fill="#A5BAB8"/>
<path d="M75.34 86.8715C75.75 86.1515 76.93 84.6215 79.79 83.6015C80.06 83.5115 80.2 83.2215 80.11 82.9515V82.9315C80.01 82.6415 79.7 82.4915 79.42 82.5915C76.28 83.7115 74.92 85.4515 74.41 86.3415C74.24 86.6315 74.38 86.9915 74.69 87.1015H74.71C74.95 87.1915 75.22 87.1015 75.34 86.8715Z" fill="#005178"/>
<path d="M70.59 84.1908C71 83.4708 72.18 81.9408 75.04 80.9208C75.31 80.8308 75.45 80.5408 75.36 80.2708V80.2508C75.26 79.9608 74.95 79.8108 74.67 79.9108C71.53 81.0308 70.17 82.7708 69.66 83.6608C69.49 83.9508 69.63 84.3108 69.94 84.4208H69.96C70.2 84.5108 70.47 84.4208 70.59 84.1908Z" fill="#005178"/>
<path d="M65.2902 80.7514C65.7002 80.0314 66.8802 78.5014 69.7402 77.4814C70.0102 77.3914 70.1502 77.1014 70.0602 76.8314V76.8114C69.9602 76.5214 69.6502 76.3714 69.3702 76.4714C66.2302 77.5914 64.8702 79.3314 64.3602 80.2214C64.1902 80.5114 64.3302 80.8714 64.6402 80.9814H64.6602C64.9002 81.0714 65.1702 80.9814 65.2902 80.7514Z" fill="#005178"/>
<path d="M60.3195 78.0111C60.7295 77.2911 61.9095 75.7611 64.7695 74.7411C65.0395 74.6511 65.1795 74.3611 65.0895 74.0911V74.0711C64.9895 73.7811 64.6795 73.6311 64.3995 73.7311C61.2595 74.8511 59.8995 76.5911 59.3895 77.4811C59.2195 77.7711 59.3595 78.1311 59.6695 78.2411H59.6895C59.9295 78.3311 60.1995 78.2411 60.3195 78.0111Z" fill="#005178"/>
<path d="M55.4504 75.3012C55.8604 74.5812 57.0404 73.0512 59.9004 72.0312C60.1704 71.9412 60.3104 71.6512 60.2204 71.3812V71.3612C60.1204 71.0712 59.8104 70.9212 59.5304 71.0212C56.3904 72.1412 55.0304 73.8812 54.5204 74.7712C54.3504 75.0612 54.4904 75.4212 54.8004 75.5312H54.8204C55.0604 75.6212 55.3304 75.5312 55.4504 75.3012Z" fill="#005178"/>
<path d="M50.9201 72.351C51.3301 71.631 52.5101 70.101 55.3701 69.081C55.6401 68.991 55.7801 68.701 55.6901 68.431V68.411C55.5901 68.121 55.2801 67.971 55.0001 68.071C51.8601 69.191 50.5001 70.931 49.9901 71.821C49.8201 72.111 49.9601 72.471 50.2701 72.581H50.2901C50.5301 72.671 50.8001 72.581 50.9201 72.351Z" fill="#005178"/>
<path d="M89.29 84.391C89.29 84.881 89.57 85.281 89.91 85.281C90.25 85.281 90.53 84.881 90.53 84.391C90.53 83.901 90.25 83.501 89.91 83.501C89.57 83.501 89.29 83.901 89.29 84.391Z" fill="#5D6385"/>
<path d="M89.5098 105.62C89.5098 106.11 89.7898 106.51 90.1298 106.51C90.4698 106.51 90.7498 106.11 90.7498 105.62C90.7498 105.13 90.4698 104.73 90.1298 104.73C89.7898 104.73 89.5098 105.13 89.5098 105.62Z" fill="#5D6385"/>
<path d="M118.82 86.8911L121.6 85.2911L123.58 82.0811L124.41 82.5611L123.4 84.0611C123.12 84.4711 122.89 84.8011 122.61 85.1611H122.63C123.22 85.0211 123.84 84.8811 124.55 84.7211L127.17 84.1511L128 84.6311L122.34 85.7011L119.55 87.3111L118.81 86.8811L118.82 86.8911Z" fill="white"/>
<path d="M129.99 89.4813C127.74 90.7813 125.36 90.7913 123.91 89.9513C122.41 89.0913 122.7 87.7013 124.68 86.5613C126.76 85.3613 129.24 85.2213 130.75 86.0913C132.3 86.9813 131.93 88.3513 129.99 89.4713V89.4813ZM125.48 87.0013C124.08 87.8113 123.48 88.9113 124.64 89.5813C125.8 90.2513 127.69 89.9213 129.18 89.0613C130.48 88.3113 131.25 87.1813 130.03 86.4813C128.82 85.7813 126.92 86.1813 125.48 87.0113V87.0013Z" fill="white"/>
<path d="M134.88 88.6009L131 90.8409C129.53 91.6909 129.48 92.3709 130.23 92.8109C131.07 93.3009 132.25 93.2409 133.7 92.4009L137.58 90.1609L138.32 90.5909L134.5 92.7909C132.49 93.9509 130.75 93.9009 129.52 93.1909C128.36 92.5209 128.25 91.5709 130.28 90.4009L134.14 88.1709L134.88 88.6009Z" fill="white"/>
<path d="M139.5 91.3711C139.96 91.5311 140.54 91.8111 141.04 92.1011C141.82 92.5511 142.16 92.9411 142.15 93.3611C142.15 93.6911 141.86 94.0411 141.35 94.3411C140.49 94.8411 139.44 94.9011 138.61 94.6911L138.58 94.7111C138.84 95.0611 138.64 95.4811 138.09 95.9511C137.36 96.5811 136.87 97.0311 136.73 97.2411L135.97 96.8011C136.06 96.6411 136.5 96.2411 137.16 95.6811C137.9 95.0611 137.93 94.6911 137.3 94.2911L136.61 93.8911L133.77 95.5311L133.04 95.1111L139.5 91.3811V91.3711ZM137.25 93.5111L138 93.9411C138.78 94.3911 139.77 94.3911 140.52 93.9611C141.37 93.4711 141.2 92.9511 140.44 92.5011C140.09 92.3011 139.8 92.1711 139.64 92.1311L137.25 93.5111Z" fill="white"/>
<path d="M108.93 87.1807C109.45 87.3907 110.04 87.6607 110.62 88.0007C111.67 88.6107 112.14 89.2007 112.1 89.8007C112.07 90.4007 111.61 91.0107 110.55 91.6207C109.48 92.2407 108.32 92.5807 107.19 92.6207C106.05 92.6707 104.84 92.3507 103.74 91.7207C103.22 91.4207 102.81 91.1507 102.49 90.9107L108.93 87.1907V87.1807ZM103.87 90.9407C104.02 91.0707 104.28 91.2307 104.56 91.4007C106.12 92.3007 107.98 92.2107 109.75 91.1907C111.3 90.3007 111.53 89.3007 109.98 88.4107C109.6 88.1907 109.28 88.0507 109.03 87.9707L103.86 90.9507L103.87 90.9407Z" fill="white"/>
<path d="M114.08 94.0711L111.88 92.8011L109.52 94.1611L111.98 95.5811L111.27 95.9911L108.08 94.1511L114.63 90.3711L117.69 92.1411L116.98 92.5511L114.65 91.2011L112.58 92.3911L114.78 93.6611L114.08 94.0611V94.0711Z" fill="white"/>
<path d="M113.14 95.8805C113.23 96.2005 113.52 96.5905 114.03 96.8805C114.78 97.3105 115.67 97.3005 116.33 96.9205C116.94 96.5705 116.99 96.1905 116.56 95.5505C116.01 94.8005 116 94.1505 116.92 93.6105C117.94 93.0205 119.43 93.0105 120.53 93.6405C121.11 93.9805 121.38 94.3105 121.46 94.5505L120.57 94.8305C120.5 94.6605 120.32 94.3305 119.8 94.0305C119.03 93.5805 118.2 93.7205 117.75 93.9805C117.14 94.3305 117.18 94.7105 117.61 95.3605C118.14 96.1605 118.1 96.7505 117.13 97.3105C116.12 97.8905 114.6 98.0205 113.26 97.2505C112.71 96.9305 112.3 96.4805 112.23 96.1705L113.12 95.8705L113.14 95.8805Z" fill="white"/>
<path d="M123.64 95.5714L117.09 99.3514L116.36 98.9314L122.91 95.1514L123.64 95.5714Z" fill="white"/>
<path d="M122.98 102.411C122.52 102.301 121.64 102.051 120.88 101.611C120.02 101.111 119.57 100.561 119.62 99.8909C119.68 99.2909 120.25 98.6109 121.27 98.0309C123.23 96.9109 125.82 96.7509 127.72 97.8509C128.38 98.2309 128.72 98.6209 128.83 98.8409L127.96 99.1409C127.81 98.8809 127.56 98.5809 126.99 98.2509C125.61 97.4509 123.72 97.5109 122.08 98.4509C120.42 99.4109 120.3 100.481 121.62 101.241C122.1 101.521 122.51 101.661 122.77 101.701L124.72 100.571L123.57 99.9009L124.25 99.5109L126.12 100.591L122.97 102.411H122.98Z" fill="white"/>
<path d="M123.8 103.231L130.35 99.4512L131.15 99.9112L129.65 102.871C129.3 103.561 128.94 104.141 128.54 104.691H128.57C129.38 104.151 130.16 103.681 131.18 103.091L133.92 101.511L134.61 101.911L128.06 105.691L127.32 105.261L128.84 102.301C129.17 101.651 129.54 101.001 129.97 100.431H129.94C129.16 100.921 128.39 101.391 127.3 102.011L124.5 103.631L123.81 103.231H123.8Z" fill="white"/>
<g style="mix-blend-mode:multiply">
<path d="M130.64 77.7814L97.6896 97.9214L96.3496 96.7714V90.8814L124.9 74.4014L130.64 77.7814Z" fill="#CACACA"/>
</g>
<path d="M63.6696 124.361C63.4696 122.471 60.7996 120.971 57.5296 120.971C54.2596 120.971 51.3796 122.591 51.3796 124.591V134.481C51.3296 134.661 51.3096 134.841 51.3096 135.031C51.3096 137.031 54.0596 138.651 57.4596 138.651C60.8596 138.651 63.6096 137.031 63.6096 135.031L63.6796 124.361H63.6596H63.6696Z" fill="#7A86AF"/>
<path d="M57.4997 128.301C60.9681 128.301 63.7797 126.645 63.7797 124.601C63.7797 122.558 60.9681 120.901 57.4997 120.901C54.0314 120.901 51.2197 122.558 51.2197 124.601C51.2197 126.645 54.0314 128.301 57.4997 128.301Z" fill="#D0F4F8"/>
<path d="M57.5001 127.791C60.4935 127.791 62.9201 126.363 62.9201 124.601C62.9201 122.839 60.4935 121.411 57.5001 121.411C54.5067 121.411 52.0801 122.839 52.0801 124.601C52.0801 126.363 54.5067 127.791 57.5001 127.791Z" fill="#FDED00"/>
<path d="M57.4702 130.231V133.991C57.4702 133.991 52.7802 134.321 51.2102 131.061L51.1602 126.821C51.1602 126.821 51.8802 129.421 57.2702 130.351L57.4702 130.231Z" fill="white"/>
<path d="M60.6403 127.221C60.6403 127.221 59.2303 127.711 59.0103 128.741C58.7903 129.771 59.7203 130.641 59.3403 131.511C58.9603 132.381 57.9803 132.111 58.1503 131.081C58.3103 130.051 58.3103 128.531 57.3903 128.911C56.4703 129.291 57.2303 129.671 56.4103 129.941C55.5903 130.211 56.3003 128.481 54.8403 128.371C53.3803 128.261 52.4503 125.981 52.2903 124.791C52.1303 123.601 60.6403 127.231 60.6403 127.231V127.221Z" fill="#FDED00"/>
<path d="M63.23 127.051C63.23 127.051 63.78 124.901 63.59 122.521C63.34 119.331 61.93 117.131 59.49 116.151C58.01 115.551 56.7 115.581 55.61 116.231C53.07 117.751 52.56 122.061 52.54 122.241L52.83 122.271C52.83 122.271 53.34 117.921 55.76 116.471C56.77 115.871 57.99 115.851 59.38 116.411C61.74 117.361 63.06 119.421 63.3 122.531C63.48 124.871 62.95 126.951 62.94 126.971L63.22 127.041L63.23 127.051Z" fill="#004664"/>
<path d="M79.6403 133.691C79.4403 131.801 76.7703 130.301 73.5003 130.301C70.2303 130.301 67.3503 131.921 67.3503 133.921V143.811C67.3003 143.991 67.2803 144.171 67.2803 144.361C67.2803 146.361 70.0303 147.981 73.4303 147.981C76.8303 147.981 79.5803 146.361 79.5803 144.361L79.6503 133.691H79.6303H79.6403Z" fill="#7A86AF"/>
<path d="M73.4802 137.641C76.9485 137.641 79.7602 135.985 79.7602 133.941C79.7602 131.898 76.9485 130.241 73.4802 130.241C70.0118 130.241 67.2002 131.898 67.2002 133.941C67.2002 135.985 70.0118 137.641 73.4802 137.641Z" fill="#D0F4F8"/>
<path d="M73.4796 137.131C76.473 137.131 78.8996 135.703 78.8996 133.941C78.8996 132.179 76.473 130.751 73.4796 130.751C70.4862 130.751 68.0596 132.179 68.0596 133.941C68.0596 135.703 70.4862 137.131 73.4796 137.131Z" fill="#232020"/>
<path d="M73.4399 139.571V143.331C73.4399 143.331 68.7499 143.661 67.1799 140.401L67.1299 136.161C67.1299 136.161 67.8499 138.761 73.2399 139.691L73.4399 139.571Z" fill="white"/>
<path d="M76.61 136.55C76.61 136.55 75.2 137.04 74.98 138.07C74.76 139.1 75.69 139.97 75.31 140.84C74.93 141.71 73.95 141.44 74.12 140.41C74.28 139.38 74.28 137.86 73.36 138.24C72.44 138.62 73.2 139 72.38 139.27C71.57 139.54 72.27 137.81 70.81 137.7C69.35 137.59 68.42 135.31 68.26 134.12C68.1 132.93 76.61 136.56 76.61 136.56V136.55Z" fill="#232020"/>
<path d="M79.2095 136.391C79.2095 136.391 79.7595 134.241 79.5695 131.861C79.3195 128.671 77.9095 126.471 75.4695 125.491C73.9895 124.891 72.6795 124.921 71.5895 125.571C69.0495 127.091 68.5395 131.401 68.5195 131.581L68.8095 131.611C68.8095 131.611 69.3195 127.261 71.7395 125.811C72.7495 125.211 73.9695 125.191 75.3595 125.751C77.7195 126.701 79.0395 128.761 79.2795 131.871C79.4595 134.211 78.9295 136.291 78.9195 136.311L79.1995 136.381L79.2095 136.391Z" fill="#004664"/>
<path d="M31.5104 106.721C31.3104 104.831 28.6404 103.331 25.3704 103.331C22.1004 103.331 19.2204 104.951 19.2204 106.951V116.841C19.1704 117.021 19.1504 117.201 19.1504 117.391C19.1504 119.391 21.9004 121.011 25.3004 121.011C28.7004 121.011 31.4504 119.391 31.4504 117.391L31.5204 106.721H31.5004H31.5104Z" fill="#7A86AF"/>
<path d="M25.3503 110.671C28.8187 110.671 31.6303 109.015 31.6303 106.971C31.6303 104.928 28.8187 103.271 25.3503 103.271C21.882 103.271 19.0703 104.928 19.0703 106.971C19.0703 109.015 21.882 110.671 25.3503 110.671Z" fill="#D0F4F8"/>
<path d="M25.3497 110.161C28.3431 110.161 30.7697 108.733 30.7697 106.971C30.7697 105.209 28.3431 103.781 25.3497 103.781C22.3563 103.781 19.9297 105.209 19.9297 106.971C19.9297 108.733 22.3563 110.161 25.3497 110.161Z" fill="#00ADEE"/>
<path d="M25.31 112.601V116.361C25.31 116.361 20.62 116.691 19.05 113.431L19 109.191C19 109.191 19.72 111.791 25.11 112.721L25.31 112.601Z" fill="white"/>
<path d="M28.4802 109.581C28.4802 109.581 27.0702 110.071 26.8502 111.101C26.6302 112.131 27.5602 113.001 27.1802 113.871C26.8002 114.741 25.8202 114.471 25.9902 113.441C26.1502 112.411 26.1502 110.891 25.2302 111.271C24.3102 111.651 25.0702 112.031 24.2502 112.301C23.4402 112.571 24.1402 110.841 22.6802 110.731C21.2202 110.621 20.2902 108.341 20.1302 107.151C19.9702 105.961 28.4802 109.591 28.4802 109.591V109.581Z" fill="#00ADEE"/>
<path d="M31.0796 109.421C31.0796 109.421 31.6296 107.271 31.4396 104.891C31.1896 101.701 29.7796 99.5015 27.3396 98.5215C25.8596 97.9215 24.5496 97.9515 23.4596 98.6015C20.9196 100.121 20.4096 104.431 20.3896 104.611L20.6796 104.641C20.6796 104.641 21.1896 100.291 23.6096 98.8415C24.6196 98.2415 25.8396 98.2215 27.2296 98.7815C29.5896 99.7315 30.9096 101.791 31.1496 104.901C31.3296 107.241 30.7996 109.321 30.7896 109.341L31.0696 109.411L31.0796 109.421Z" fill="#004664"/>
<path d="M47.4801 116.061C47.2801 114.171 44.6101 112.671 41.3401 112.671C38.0701 112.671 35.1901 114.291 35.1901 116.291V126.181C35.1401 126.361 35.1201 126.541 35.1201 126.731C35.1201 128.731 37.8701 130.351 41.2701 130.351C44.6701 130.351 47.4201 128.731 47.4201 126.731L47.4901 116.061H47.4701H47.4801Z" fill="#7A86AF"/>
<path d="M41.32 120.001C44.7884 120.001 47.6 118.344 47.6 116.301C47.6 114.257 44.7884 112.601 41.32 112.601C37.8517 112.601 35.04 114.257 35.04 116.301C35.04 118.344 37.8517 120.001 41.32 120.001Z" fill="#D0F4F8"/>
<path d="M41.3204 119.491C44.3138 119.491 46.7404 118.063 46.7404 116.301C46.7404 114.54 44.3138 113.111 41.3204 113.111C38.327 113.111 35.9004 114.54 35.9004 116.301C35.9004 118.063 38.327 119.491 41.3204 119.491Z" fill="#EB008B"/>
<path d="M41.2905 121.931V125.691C41.2905 125.691 36.6005 126.021 35.0305 122.761L34.9805 118.521C34.9805 118.521 35.7005 121.121 41.0905 122.051L41.2905 121.931Z" fill="white"/>
<path d="M44.4499 118.921C44.4499 118.921 43.0399 119.411 42.8199 120.441C42.5999 121.471 43.5299 122.341 43.1499 123.211C42.7699 124.081 41.7899 123.811 41.9599 122.781C42.1299 121.751 42.1199 120.231 41.1999 120.611C40.2799 120.991 41.0399 121.371 40.2199 121.641C39.4099 121.911 40.1099 120.181 38.6499 120.071C37.1899 119.961 36.2599 117.681 36.0999 116.491C35.9399 115.301 44.4499 118.931 44.4499 118.931V118.921Z" fill="#EB008B"/>
<path d="M47.0504 118.751C47.0504 118.751 47.6004 116.601 47.4104 114.221C47.1604 111.031 45.7504 108.831 43.3104 107.851C41.8304 107.251 40.5204 107.281 39.4304 107.931C36.8904 109.451 36.3804 113.761 36.3604 113.941L36.6504 113.971C36.6504 113.971 37.1604 109.621 39.5804 108.171C40.5904 107.571 41.8104 107.551 43.2004 108.111C45.5604 109.061 46.8804 111.121 47.1204 114.231C47.3004 116.571 46.7704 118.651 46.7604 118.671L47.0404 118.741L47.0504 118.751Z" fill="#004664"/>
</svg>
