<svg width="234" height="298" viewBox="0 0 234 298" fill="none" xmlns="http://www.w3.org/2000/svg"><path d="M129.276 125.526h-22.645v28.308h22.645v-28.308z" fill="#B2B2B2"/><path d="M129.278 156.665h-22.645c-1.566 0-2.83-1.264-2.83-2.831v-28.308c0-1.567 1.264-2.831 2.83-2.831h22.645c1.566 0 2.831 1.264 2.831 2.831v28.308c0 1.567-1.265 2.831-2.831 2.831zm-19.814-5.662h16.984v-22.647h-16.984v22.647z" fill="#3B3C3D"/><path d="M46.2441 38.7127L74.5504 6.62971V40.6L102.857 4.74248V40.6l28.306-35.85752V40.6l26.419-37.74476V40.6l24.532-37.74476V40.6L46.2441 38.7127z" fill="#16B670"/><path d="M157.584 43.4308c-.264 0-.547-.0378-.812-.1133-.207-.0566-.396-.1509-.585-.2453l-23.192-.3208c-.736.6228-1.755.8492-2.698.5473-.397-.1321-.755-.3397-1.057-.6039l-24.192-.3397c-.755.9436-2.02 1.3021-3.152.9058-.547-.1887-1-.5284-1.34-.9813l-23.5128-.3209-.3019.3775c-.7548.9436-2.0192 1.321-3.1514.9247-.6983-.2453-1.2644-.736-1.5852-1.3777l-25.8341-.3585c-1.1134 0-2.0947-.6794-2.5476-1.6797-.4529-1.0002-.2642-2.1892.4718-3.0195L72.401 4.74245c.7737-.887 2.0192-1.18896 3.1326-.77376 1.0945.41519 1.8304 1.47204 1.8304 2.64212V32.4282l23.249-29.45975c.755-.94362 2.019-1.32106 3.151-.92474 1.133.39631 1.906 1.47204 1.906 2.67987V32.4282l23.249-29.45975c.755-.94362 2.019-1.32106 3.152-.92474 1.132.39631 1.906 1.47204 1.906 2.67987V31.5978l21.267-30.38448c.717-1.019106 1.981-1.45317 3.17-1.075723 1.17.377447 1.982 1.472043 1.982 2.698743V31.0316l19.323-29.74279c.68-1.056851 1.963-1.52866 3.171-1.170085 1.207.358575 2.019 1.453175 2.019 2.717615V40.5811c0 .7548-.302 1.4909-.849 2.0193-.548.5284-1.246.7738-2.019.8115l-23.174-.3208c-.396.2076-.849.3208-1.321.3208l.038.0189zm5.397-5.9259l16.304.2264V12.4046l-16.304 25.1003zm-25.929-.3586l17.72.2453V11.8385l-17.72 25.3078zm-27.551-.3775l18.833.2643V12.9142l-18.833 23.8735v-.0189zm-28.0043-.3963l18.5313.2642V12.8953L81.4967 36.3725zm-29.061-.3963l19.286.2642V14.122l-19.286 21.8542z" fill="#3B3C3D"/><path d="M211.787 211.98c-2.547 0-4.699-1.982-4.887-4.548-.868-12.343-7.133-40.953-46.498-39.953-2.736.056-4.944-2.076-5.019-4.775-.076-2.699 2.076-4.945 4.774-5.02 49.158-1.246 55.669 37.235 56.499 49.049.189 2.699-1.85 5.039-4.548 5.228h-.34l.019.019z" fill="#DBDCDC"/><path d="M205.388 197.958l9.586-1.907c-.811-3.321-2-6.963-3.717-10.662l-9.794 2.264c1.849 3.454 3.095 7.002 3.944 10.305h-.019zM197.104 167.686l-7.397 6.945c3.246 2.171 5.888 4.681 8.039 7.398l7.416-6.53c-2.227-2.793-4.887-5.454-8.058-7.813zM174.613 168.592c3.906.774 7.34 1.925 10.36 3.359l3.359-9.36c-3.19-1.416-6.737-2.586-10.681-3.416l-3.057 9.417h.019z" fill="#C8C9CA"/><path d="M211.784 214.075c-3.661 0-6.718-2.85-6.963-6.493-.83-11.738-6.812-38.971-44.346-38.008-3.85.075-7.076-2.963-7.171-6.813-.038-1.869.642-3.643 1.925-5.002 1.283-1.358 3.019-2.132 4.888-2.17 11.699-.302 21.927 1.623 30.419 5.681 7.152 3.434 13.115 8.417 17.72 14.815 8.076 11.21 10.058 23.93 10.511 30.497.264 3.85-2.642 7.191-6.492 7.474h-.491v.019zm-49.346-48.729c16.7 0 29.249 5.322 37.326 15.815 6.737 8.757 8.737 19.024 9.246 26.12.114 1.528 1.435 2.698 2.982 2.604 1.547-.113 2.717-1.453 2.604-2.982-.792-11.361-7.076-48.313-54.366-47.105-.755 0-1.453.321-1.963.868-.509.547-.792 1.245-.773 2 .037 1.567 1.302 2.756 2.868 2.737.698 0 1.377-.019 2.057-.019l.019-.038z" fill="#3B3C3D"/><path d="M206.243 242.949v-10.738c-2.623-1.831-4.359-4.869-4.359-8.304 0-5.567 4.529-10.097 10.096-10.097 5.566 0 10.095 4.53 10.095 10.097 0 3.435-1.736 6.473-4.359 8.304v10.738c8.171-2.472 14.153-10.078 14.153-19.042 0-10.965-8.926-19.891-19.889-19.891-10.964 0-19.89 8.926-19.89 19.891 0 8.964 5.963 16.57 14.153 19.042z" fill="#B4B4B5"/><path d="M217.75 245.044c-.453 0-.887-.132-1.245-.415-.529-.396-.849-1.019-.849-1.68v-10.738c0-.679.339-1.321.905-1.717 2.171-1.51 3.454-3.964 3.454-6.568 0-4.416-3.586-8.002-8.001-8.002-4.416 0-8.002 3.586-8.002 8.002 0 2.623 1.284 5.077 3.454 6.568.566.396.906 1.038.906 1.717v10.738c0 .661-.321 1.284-.85 1.68-.528.396-1.226.509-1.849.321-4.416-1.34-8.397-4.114-11.209-7.832-2.906-3.831-4.435-8.417-4.435-13.23 0-12.135 9.87-21.986 21.985-21.986s21.984 9.87 21.984 21.986c0 4.813-1.529 9.38-4.435 13.23-2.793 3.718-6.774 6.492-11.209 7.832-.207.056-.396.094-.604.094zm-5.755-38.934c-9.813 0-17.795 7.983-17.795 17.797 0 6.794 3.981 13.003 9.945 15.966v-6.643c-2.737-2.302-4.36-5.718-4.36-9.323 0-6.718 5.473-12.21 12.21-12.21 6.737 0 12.19 5.473 12.19 12.21 0 3.605-1.604 7.021-4.359 9.323v6.643c5.982-2.963 9.945-9.172 9.945-15.966 0-9.814-7.982-17.797-17.795-17.797h.019z" fill="#3B3C3D"/><path d="M22.2108 212.992c2.5476 0 4.6988-1.982 4.8875-4.548.8681-12.343 7.1331-40.953 46.4973-39.953 2.7363.056 4.9441-2.076 5.0196-4.775.0755-2.699-2.0758-4.944-4.7743-5.02-49.158-1.246-55.6684 37.235-56.4987 49.049-.1887 2.699 1.8493 5.039 4.5478 5.228h.3397l-.0189.019z" fill="#DBDCDC"/><path d="M28.6117 198.989l-9.5863-1.907c.8114-3.321 2.0003-6.963 3.7175-10.662l9.7939 2.264c-1.8493 3.454-3.0948 7.002-3.944 10.305h.0189zM36.8898 168.698l7.3973 6.945c-3.2458 2.171-5.8876 4.681-8.0389 7.398l-7.4162-6.529c2.2268-2.794 4.8875-5.455 8.0578-7.814zM59.3869 169.604c-3.9062.774-7.3406 1.925-10.3599 3.36l-3.359-9.361c3.1891-1.416 6.7368-2.586 10.6808-3.416l3.057 9.417h-.0189z" fill="#C8C9CA"/><path d="M22.2098 215.087c3.6609 0 6.7179-2.85 6.9632-6.492.8303-11.739 6.8123-38.972 44.3461-38.009 3.8496.075 7.0765-2.963 7.1708-6.813.0378-1.869-.6416-3.643-1.9248-5.001-1.2832-1.359-3.0193-2.133-4.8875-2.171-11.6998-.302-21.9277 1.623-30.4195 5.681-7.152 3.435-13.1151 8.417-17.7195 14.815-8.0767 11.21-10.0581 23.93-10.511 30.497-.2642 3.85 2.6419 7.191 6.4915 7.474h.4907v.019zm49.3467-48.729c-16.7005 0-29.2495 5.322-37.3261 15.815-6.7369 8.757-8.7372 19.024-9.2467 26.12-.1132 1.528-1.4341 2.698-2.9815 2.604-1.5474-.113-2.7174-1.453-2.6042-2.982.7926-11.361 7.0765-48.313 54.3664-47.105.7548 0 1.453.321 1.9625.868.5096.547.7926 1.245.7737 2-.0377 1.567-1.302 2.756-2.8683 2.737-.6982 0-1.3776-.019-2.0569-.019l-.0189-.038z" fill="#3B3C3D"/><path d="M27.7416 243.98v-10.738c2.623-1.831 4.3591-4.869 4.3591-8.304 0-5.567-4.5289-10.097-10.0958-10.097-5.5668 0-10.0958 4.53-10.0958 10.097 0 3.435 1.7361 6.473 4.3591 8.304v10.738c-8.17097-2.472-14.15297-10.078-14.15297-19.042 0-10.965 8.92587-19.892 19.88967-19.892 10.9639 0 19.8897 8.927 19.8897 19.892 0 8.964-5.9632 16.57-14.153 19.042z" fill="#B4B4B5"/><path d="M16.2476 246.075c.4529 0 .887-.132 1.2455-.415.5284-.396.8492-1.019.8492-1.68v-10.738c0-.679-.3397-1.321-.9058-1.717-2.1701-1.51-3.4533-3.964-3.4533-6.568 0-4.416 3.5854-8.002 8.0011-8.002 4.4157 0 8.0012 3.586 8.0012 8.002 0 2.623-1.2832 5.077-3.4534 6.568-.5661.396-.9058 1.038-.9058 1.717v10.738c0 .661.3209 1.284.8492 1.68.5284.396 1.2266.51 1.8494.321 4.4157-1.34 8.3974-4.114 11.2091-7.832 2.9061-3.831 4.4346-8.417 4.4346-13.23 0-12.135-9.8693-21.986-21.9843-21.986C9.85048 202.933 0 212.803 0 224.919c0 4.813 1.52852 9.38 4.4346 13.23 2.79286 3.718 6.7746 6.492 11.2092 7.832.2075.056.3963.094.6038.094zm5.7556-38.933c9.8127 0 17.795 7.983 17.795 17.796 0 6.794-3.9817 13.003-9.9448 15.966v-6.643c2.7362-2.302 4.3591-5.718 4.3591-9.323 0-6.718-5.4725-12.21-12.2093-12.21-6.7368 0-12.19046 5.473-12.19046 12.21 0 3.605 1.60396 7.021 4.35916 9.323v6.643c-5.98204-2.963-9.94488-9.172-9.94488-15.966 0-9.813 7.98228-17.796 17.79508-17.796h-.0189z" fill="#3B3C3D"/><path d="M110.706 246.328H80.7012v49.596h30.0048v-49.596z" fill="#B2B2B2"/><path opacity=".2" d="M110.706 256.745H80.7012v9.587h30.0048v-9.587zM110.706 275.9H80.7012v9.588h30.0048V275.9z" fill="#fff"/><path d="M110.708 298H80.704c-1.1511 0-2.0946-.944-2.0946-2.095v-49.596c0-1.152.9435-2.095 2.0946-2.095h30.004c1.151 0 2.095.943 2.095 2.095v49.596c0 1.151-.944 2.095-2.095 2.095zm-27.9093-4.19h25.8153v-45.388H82.7987v45.388z" fill="#3B3C3D"/><path d="M158.206 246.328h-30.005v49.596h30.005v-49.596z" fill="#B2B2B2"/><path opacity=".2" d="M158.206 256.745h-30.005v9.587h30.005v-9.587zM158.206 275.9h-30.005v9.588h30.005V275.9z" fill="#fff"/><path d="M158.208 298h-30.004c-1.151 0-2.095-.944-2.095-2.095v-49.596c0-1.152.944-2.095 2.095-2.095h30.004c1.151 0 2.095.943 2.095 2.095v49.596c0 1.151-.944 2.095-2.095 2.095zm-27.909-4.19h25.815v-45.388h-25.815v45.388z" fill="#3B3C3D"/><path d="M184.944 33.9946H50.9612c-6.2533 0-11.3225 5.0697-11.3225 11.3234v79.264c0 6.254 5.0692 11.323 11.3225 11.323H184.944c6.253 0 11.323-5.069 11.323-11.323V45.318c0-6.2537-5.07-11.3234-11.323-11.3234z" fill="#F1F1F1"/><path d="M184.947 138.736H50.9637c-7.8126 0-14.1532-6.341-14.1532-14.154V45.318c0-7.8132 6.3406-14.1543 14.1532-14.1543H184.947c7.812 0 14.153 6.3411 14.153 14.1543v79.264c0 7.813-6.341 14.154-14.153 14.154zM50.9637 36.8254c-4.68 0-8.4919 3.8122-8.4919 8.4926v79.264c0 4.68 3.8119 8.492 8.4919 8.492H184.947c4.68 0 8.491-3.812 8.491-8.492V45.318c0-4.6804-3.811-8.4926-8.491-8.4926H50.9637z" fill="#3B3C3D"/><path d="M165.128 146.285H70.7737c-6.2533 0-11.3225 5.07-11.3225 11.323v79.264c0 6.254 5.0692 11.324 11.3225 11.324h94.3543c6.253 0 11.322-5.07 11.322-11.324v-79.264c0-6.253-5.069-11.323-11.322-11.323z" fill="#F1F1F1"/><path d="M165.13 251.027H70.7762c-7.8126 0-14.1532-6.341-14.1532-14.155v-79.263c0-7.814 6.3406-14.155 14.1532-14.155H165.13c7.813 0 14.153 6.341 14.153 14.155v79.263c0 7.814-6.34 14.155-14.153 14.155zM70.7762 149.116c-4.68 0-8.4919 3.812-8.4919 8.493v79.263c0 4.681 3.8119 8.493 8.4919 8.493H165.13c4.68 0 8.492-3.812 8.492-8.493v-79.263c0-4.681-3.812-8.493-8.492-8.493H70.7762z" fill="#3B3C3D"/><path d="M85.8723 192.522c3.6477 0 6.6047-2.957 6.6047-6.605 0-3.648-2.957-6.605-6.6047-6.605-3.6477 0-6.6047 2.957-6.6047 6.605 0 3.648 2.957 6.605 6.6047 6.605z" fill="#0073BE"/><path d="M107.251 192.522c3.648 0 6.605-2.957 6.605-6.605 0-3.648-2.957-6.605-6.605-6.605-3.647 0-6.605 2.957-6.605 6.605 0 3.648 2.958 6.605 6.605 6.605z" fill="red"/><path d="M128.656 192.522c3.647 0 6.604-2.957 6.604-6.605 0-3.648-2.957-6.605-6.604-6.605-3.648 0-6.605 2.957-6.605 6.605 0 3.648 2.957 6.605 6.605 6.605z" fill="#FDAC24"/><path d="M150.034 192.522c3.648 0 6.605-2.957 6.605-6.605 0-3.648-2.957-6.605-6.605-6.605-3.647 0-6.604 2.957-6.604 6.605 0 3.648 2.957 6.605 6.604 6.605z" fill="#00AA9D"/><path d="M93.551 83.8341c1.0523.9731 1.0523 2.676 0 3.6491-.4857.4865-1.1333.7298-1.7809.7298-.7285 0-1.3761-.2433-1.8618-.7298l-8.4995-8.5145-8.5804 8.5145c-.4857.4865-1.1333.7298-1.7809.7298-.7285 0-1.3761-.2433-1.8618-.7298-1.0523-.9731-1.0523-2.676 0-3.6491l8.4995-8.5956-8.4995-8.5145c-1.0523-.9731-1.0523-2.676 0-3.6491.9714-1.0542 2.6713-1.0542 3.6427 0l8.5804 8.5145 8.4995-8.5145c.9714-1.0542 2.6713-1.0542 3.6427 0 1.0523.9731 1.0523 2.676 0 3.6491l-8.4995 8.5956 8.4995 8.5145zM164.309 83.8341c1.052.9731 1.052 2.676 0 3.6491-.486.4865-1.133.7298-1.781.7298-.729 0-1.376-.2433-1.862-.7298l-8.499-8.5145-8.581 8.5145c-.486.4865-1.133.7298-1.781.7298-.728 0-1.376-.2433-1.861-.7298-1.053-.9731-1.053-2.676 0-3.6491l8.499-8.5956-8.499-8.5145c-1.053-.9731-1.053-2.676 0-3.6491.971-1.0542 2.671-1.0542 3.642 0l8.581 8.5145 8.499-8.5145c.972-1.0542 2.671-1.0542 3.643 0 1.052.9731 1.052 2.676 0 3.6491l-8.5 8.5956 8.5 8.5145zM93.0771 120.302c-1.5662.276-3.1324-.737-3.4088-2.394-.2764-1.566.737-3.131 2.3954-3.407 2.856-.553 4.3301-1.842 4.3301-1.934 1.1977-1.013 3.0402-1.105 4.1462.092.092 0 2.303 2.026 6.817 2.026 4.422 0 6.634-2.026 6.726-2.118 1.197-1.013 3.04-1.105 4.146.092.092 0 2.303 2.026 6.817 2.026 4.422 0 6.633-2.026 6.726-2.118 1.197-1.013 3.04-1.105 4.145.092 0 0 1.474 1.289 4.331 1.842 1.658.276 2.671 1.841 2.395 3.407-.277 1.657-1.843 2.67-3.409 2.394-2.395-.461-4.146-1.197-5.343-1.934-1.843 1.013-4.791 2.21-8.845 2.21-4.146 0-7.094-1.197-8.844-2.21-1.843 1.013-4.791 2.21-8.845 2.21-4.146 0-7.094-1.197-8.9364-2.21-1.1977.737-2.9481 1.473-5.3435 1.934z" fill="gray"/></svg>