<?xml version="1.0" encoding="UTF-8"?>
<svg id="_レイヤー_1" data-name="レイヤー 1" xmlns="http://www.w3.org/2000/svg" viewBox="0 0 128 85">
  <defs>
    <style>
      .cls-1 {
        fill: #008a5e;
      }

      .cls-2 {
        fill: #fff;
      }
    </style>
  </defs>
  <rect class="cls-1" width="128" height="85"/>
  <g>
    <g>
      <path class="cls-2" d="M29.27,29.61h-2.47l-6.34-10.09v10.09h-2.47v-14.22h2.47l6.36,10.13v-10.13h2.45v14.22Z"/>
      <path class="cls-2" d="M43.54,22.87c0,1.39-.24,2.62-.72,3.67-.48,1.05-1.17,1.86-2.07,2.42-.9.56-1.93.84-3.09.84s-2.18-.28-3.08-.84c-.9-.56-1.6-1.37-2.09-2.41-.49-1.04-.74-2.24-.75-3.6v-.8c0-1.39.25-2.61.74-3.67.49-1.06,1.18-1.87,2.08-2.44.89-.56,1.92-.84,3.08-.84s2.19.28,3.08.83c.89.56,1.59,1.36,2.08,2.4s.74,2.26.74,3.65v.79ZM41.06,22.13c0-1.58-.3-2.78-.89-3.62s-1.44-1.26-2.53-1.26-1.9.42-2.5,1.25c-.6.84-.91,2.02-.92,3.55v.82c0,1.56.3,2.77.91,3.62.61.85,1.45,1.28,2.53,1.28s1.93-.42,2.52-1.25c.59-.83.88-2.05.88-3.65v-.74Z"/>
      <path class="cls-2" d="M53.58,29.61h-2.46v-14.22h2.46v14.22Z"/>
      <path class="cls-2" d="M59.82,15.39l4.1,10.9,4.09-10.9h3.19v14.22h-2.46v-4.69l.24-6.27-4.2,10.96h-1.77l-4.19-10.95.24,6.26v4.69h-2.46v-14.22h3.2Z"/>
      <path class="cls-2" d="M82.22,26.3h-5.51l-1.15,3.31h-2.57l5.37-14.22h2.22l5.38,14.22h-2.58l-1.16-3.31ZM77.4,24.31h4.12l-2.06-5.9-2.06,5.9Z"/>
      <path class="cls-2" d="M97.95,27.76c-.51.67-1.23,1.18-2.14,1.52s-1.95.52-3.11.52-2.25-.27-3.16-.81-1.63-1.31-2.12-2.32-.76-2.18-.78-3.52v-1.11c0-2.15.51-3.83,1.54-5.03s2.46-1.81,4.31-1.81c1.58,0,2.84.39,3.77,1.18s1.49,1.91,1.68,3.38h-2.42c-.27-1.71-1.27-2.57-2.98-2.57-1.11,0-1.95.4-2.52,1.2s-.87,1.97-.89,3.51v1.09c0,1.54.32,2.73.97,3.58.65.85,1.55,1.27,2.7,1.27,1.26,0,2.16-.29,2.7-.86v-2.78h-2.93v-1.88h5.39v5.45Z"/>
      <path class="cls-2" d="M109.03,23.26h-5.84v4.38h6.83v1.97h-9.3v-14.22h9.23v1.99h-6.76v3.93h5.84v1.95Z"/>
    </g>
    <g>
      <path class="cls-2" d="M58.94,52.73c-.39.77-.61,1.64-.6,2.56,0,1.57.63,3,1.66,4.04,1.02,1.03,2.44,1.67,4.01,1.67.93,0,1.81-.23,2.58-.63l-1.23-1.23c-.42.16-.88.24-1.35.24-1.12,0-2.12-.45-2.86-1.2-.73-.74-1.19-1.76-1.19-2.9,0-.46.08-.91.22-1.32l-1.24-1.24Z"/>
      <path class="cls-2" d="M69.17,57.63c.32-.71.5-1.5.5-2.34,0-1.57-.64-3-1.66-4.03-1.02-1.03-2.44-1.67-4.01-1.67-.84,0-1.64.19-2.36.52l1.26,1.26c.35-.1.72-.16,1.11-.16,1.12,0,2.13.45,2.86,1.2.74.74,1.19,1.76,1.19,2.89,0,.37-.05.73-.15,1.08l1.26,1.26Z"/>
      <path class="cls-2" d="M52.11,65.05c-.61,0-1.17-.25-1.57-.66-.4-.4-.65-.97-.65-1.59v-14.15c0-.62.25-1.18.65-1.59.4-.4.97-.66,1.58-.66h.51l-1.49-1.49c-.67.17-1.28.53-1.75,1.01-.69.7-1.12,1.67-1.12,2.72v14.15c0,1.06.43,2.03,1.12,2.72.68.69,1.63,1.12,2.67,1.13h0s20.82,0,20.82,0l-1.62-1.62h-19.15Z"/>
      <path class="cls-2" d="M78.61,45.94h0c-.69-.7-1.66-1.14-2.72-1.14h-3.2l-.96-2.14c-.61-1.38-1.98-2.28-3.51-2.28h-8.43c-1.53,0-2.9.9-3.51,2.28l-.64,1.44,1.22,1.22.89-2.01c.36-.8,1.15-1.32,2.03-1.32h8.43c.88,0,1.68.52,2.03,1.32l.99,2.21c.24.53.76.89,1.35.9h3.31c.61,0,1.18.25,1.57.66h0c.4.4.65.97.65,1.59v14.15c0,.62-.25,1.18-.65,1.59h0c-.26.26-.59.46-.96.57l1.24,1.24c.32-.18.62-.4.87-.66h0c.69-.71,1.12-1.67,1.12-2.73v-14.15c0-1.06-.43-2.02-1.12-2.72Z"/>
      <path class="cls-2" d="M75.86,49.98h-3.95v3.95h3.95v-3.95ZM74.78,52.85h-1.79v-1.79h1.79v1.79Z"/>
      <rect class="cls-2" x="62.87" y="34.4" width="1.62" height="40.81" transform="translate(-20.1 61.08) rotate(-45)"/>
    </g>
  </g>
</svg>