<svg width="350" height="197" viewBox="0 0 350 197" fill="none" xmlns="http://www.w3.org/2000/svg">
<rect width="350" height="197" fill="url(#paint0_linear_264_127)"/>
<mask id="path-2-outside-1_264_127" maskUnits="userSpaceOnUse" x="21.8477" y="37.9678" width="307" height="119" fill="black">
<rect fill="white" x="21.8477" y="37.9678" width="307" height="119"/>
<path d="M317.593 124.76C316.867 124.163 315.822 123.587 314.457 123.032C313.091 122.477 311.598 122.2 309.977 122.2C308.27 122.2 306.798 122.52 305.561 123.16C304.366 123.757 303.385 124.611 302.617 125.72C301.849 126.787 301.294 128.067 300.953 129.56C300.611 131.053 300.441 132.653 300.441 134.36C300.441 138.243 301.401 141.251 303.321 143.384C305.241 145.475 307.801 146.52 311.001 146.52C312.622 146.52 313.966 146.456 315.033 146.328C316.142 146.157 316.995 145.987 317.593 145.816V124.76ZM317.593 102.36L323.545 101.336V150.04C322.179 150.424 320.43 150.808 318.297 151.192C316.163 151.576 313.71 151.768 310.937 151.768C308.377 151.768 306.073 151.363 304.025 150.552C301.977 149.741 300.227 148.589 298.777 147.096C297.326 145.603 296.195 143.789 295.385 141.656C294.617 139.48 294.233 137.048 294.233 134.36C294.233 131.8 294.553 129.453 295.193 127.32C295.875 125.187 296.857 123.352 298.137 121.816C299.417 120.28 300.974 119.085 302.809 118.232C304.686 117.379 306.819 116.952 309.209 116.952C311.129 116.952 312.814 117.208 314.265 117.72C315.758 118.232 316.867 118.723 317.593 119.192V102.36Z"/>
<path d="M259.339 118.68C260.704 118.339 262.518 117.976 264.779 117.592C267.04 117.208 269.643 117.016 272.587 117.016C275.232 117.016 277.43 117.4 279.179 118.168C280.928 118.893 282.315 119.939 283.339 121.304C284.406 122.627 285.152 124.227 285.579 126.104C286.006 127.981 286.219 130.051 286.219 132.312V151H280.267V133.592C280.267 131.544 280.118 129.795 279.819 128.344C279.563 126.893 279.115 125.72 278.475 124.824C277.835 123.928 276.982 123.288 275.915 122.904C274.848 122.477 273.526 122.264 271.947 122.264C271.307 122.264 270.646 122.285 269.963 122.328C269.28 122.371 268.619 122.435 267.979 122.52C267.382 122.563 266.827 122.627 266.315 122.712C265.846 122.797 265.504 122.861 265.291 122.904V151H259.339V118.68Z"/>
<path d="M249.085 150.04C247.72 150.382 245.906 150.744 243.645 151.128C241.426 151.512 238.845 151.704 235.901 151.704C233.341 151.704 231.186 151.342 229.437 150.616C227.688 149.848 226.28 148.782 225.213 147.416C224.146 146.051 223.378 144.451 222.909 142.616C222.44 140.739 222.205 138.67 222.205 136.408V117.72H228.157V135.128C228.157 139.182 228.797 142.083 230.077 143.832C231.357 145.582 233.512 146.456 236.541 146.456C237.181 146.456 237.842 146.435 238.525 146.392C239.208 146.35 239.848 146.307 240.445 146.264C241.042 146.179 241.576 146.115 242.045 146.072C242.557 145.987 242.92 145.902 243.133 145.816V117.72H249.085V150.04Z"/>
<path d="M214.215 134.36C214.215 137.006 213.831 139.395 213.063 141.528C212.295 143.662 211.207 145.496 209.799 147.032C208.433 148.568 206.791 149.763 204.871 150.616C202.951 151.427 200.86 151.832 198.599 151.832C196.337 151.832 194.247 151.427 192.327 150.616C190.407 149.763 188.743 148.568 187.335 147.032C185.969 145.496 184.903 143.662 184.135 141.528C183.367 139.395 182.983 137.006 182.983 134.36C182.983 131.758 183.367 129.39 184.135 127.256C184.903 125.08 185.969 123.224 187.335 121.688C188.743 120.152 190.407 118.979 192.327 118.168C194.247 117.315 196.337 116.888 198.599 116.888C200.86 116.888 202.951 117.315 204.871 118.168C206.791 118.979 208.433 120.152 209.799 121.688C211.207 123.224 212.295 125.08 213.063 127.256C213.831 129.39 214.215 131.758 214.215 134.36ZM208.007 134.36C208.007 130.606 207.153 127.64 205.447 125.464C203.783 123.246 201.5 122.136 198.599 122.136C195.697 122.136 193.393 123.246 191.687 125.464C190.023 127.64 189.191 130.606 189.191 134.36C189.191 138.115 190.023 141.102 191.687 143.32C193.393 145.496 195.697 146.584 198.599 146.584C201.5 146.584 203.783 145.496 205.447 143.32C207.153 141.102 208.007 138.115 208.007 134.36Z"/>
<path d="M151.723 151V106.648H178.475V111.96H157.931V125.336H176.171V130.584H157.931V151H151.723Z"/>
<path d="M116.344 117.72H128.952V122.712H116.344V138.072C116.344 139.736 116.472 141.123 116.728 142.232C116.984 143.299 117.368 144.152 117.88 144.792C118.392 145.389 119.032 145.816 119.8 146.072C120.568 146.328 121.464 146.456 122.488 146.456C124.28 146.456 125.71 146.264 126.776 145.88C127.886 145.453 128.654 145.155 129.08 144.984L130.232 149.912C129.635 150.211 128.59 150.573 127.096 151C125.603 151.469 123.896 151.704 121.976 151.704C119.715 151.704 117.838 151.427 116.344 150.872C114.894 150.275 113.72 149.4 112.824 148.248C111.928 147.096 111.288 145.688 110.904 144.024C110.563 142.317 110.392 140.355 110.392 138.136V108.44L116.344 107.416V117.72Z"/>
<path d="M102.402 134.36C102.402 137.006 102.018 139.395 101.25 141.528C100.482 143.662 99.3942 145.496 97.9862 147.032C96.6208 148.568 94.9782 149.763 93.0582 150.616C91.1382 151.427 89.0475 151.832 86.7862 151.832C84.5248 151.832 82.4342 151.427 80.5142 150.616C78.5942 149.763 76.9302 148.568 75.5222 147.032C74.1568 145.496 73.0902 143.662 72.3222 141.528C71.5542 139.395 71.1702 137.006 71.1702 134.36C71.1702 131.758 71.5542 129.39 72.3222 127.256C73.0902 125.08 74.1568 123.224 75.5222 121.688C76.9302 120.152 78.5942 118.979 80.5142 118.168C82.4342 117.315 84.5248 116.888 86.7862 116.888C89.0475 116.888 91.1382 117.315 93.0582 118.168C94.9782 118.979 96.6208 120.152 97.9862 121.688C99.3942 123.224 100.482 125.08 101.25 127.256C102.018 129.39 102.402 131.758 102.402 134.36ZM96.1942 134.36C96.1942 130.606 95.3408 127.64 93.6342 125.464C91.9702 123.246 89.6875 122.136 86.7862 122.136C83.8848 122.136 81.5808 123.246 79.8742 125.464C78.2102 127.64 77.3782 130.606 77.3782 134.36C77.3782 138.115 78.2102 141.102 79.8742 143.32C81.5808 145.496 83.8848 146.584 86.7862 146.584C89.6875 146.584 91.9702 145.496 93.6342 143.32C95.3408 141.102 96.1942 138.115 96.1942 134.36Z"/>
<path d="M57.2477 151C56.309 149.421 55.221 147.651 53.9837 145.688C52.789 143.725 51.4877 141.699 50.0797 139.608C48.6717 137.475 47.1997 135.32 45.6637 133.144C44.1703 130.968 42.677 128.877 41.1837 126.872C39.6903 124.824 38.2397 122.904 36.8317 121.112C35.4237 119.32 34.1223 117.741 32.9277 116.376V151H26.8477V106.648H31.7757C33.781 108.781 35.9143 111.277 38.1757 114.136C40.4797 116.952 42.741 119.875 44.9597 122.904C47.221 125.891 49.333 128.835 51.2957 131.736C53.301 134.637 54.9863 137.219 56.3517 139.48V106.648H62.4317V151H57.2477Z"/>
<path d="M247.917 74.4079C247.917 75.2719 247.629 76.0239 247.053 76.6639C246.477 77.3039 245.693 77.6239 244.701 77.6239C243.709 77.6239 242.925 77.3039 242.349 76.6639C241.773 76.0239 241.485 75.2719 241.485 74.4079C241.485 73.5439 241.773 72.7919 242.349 72.1519C242.925 71.5119 243.709 71.1919 244.701 71.1919C245.693 71.1919 246.477 71.5119 247.053 72.1519C247.629 72.7919 247.917 73.5439 247.917 74.4079Z"/>
<path d="M236.104 74.4079C236.104 75.2719 235.816 76.0239 235.24 76.6639C234.664 77.3039 233.88 77.6239 232.888 77.6239C231.896 77.6239 231.112 77.3039 230.536 76.6639C229.96 76.0239 229.672 75.2719 229.672 74.4079C229.672 73.5439 229.96 72.7919 230.536 72.1519C231.112 71.5119 231.896 71.1919 232.888 71.1919C233.88 71.1919 234.664 71.5119 235.24 72.1519C235.816 72.7919 236.104 73.5439 236.104 74.4079Z"/>
<path d="M224.292 74.4079C224.292 75.2719 224.004 76.0239 223.428 76.6639C222.852 77.3039 222.068 77.6239 221.076 77.6239C220.084 77.6239 219.3 77.3039 218.724 76.6639C218.148 76.0239 217.86 75.2719 217.86 74.4079C217.86 73.5439 218.148 72.7919 218.724 72.1519C219.3 71.5119 220.084 71.1919 221.076 71.1919C222.068 71.1919 222.852 71.5119 223.428 72.1519C224.004 72.7919 224.292 73.5439 224.292 74.4079Z"/>
<path d="M192.224 81.656C192.576 81.816 193.024 81.96 193.568 82.088C194.144 82.248 194.704 82.328 195.248 82.328C197.008 82.328 198.384 81.928 199.376 81.128C200.368 80.36 201.264 79.096 202.064 77.336C200.048 73.496 198.16 69.432 196.4 65.144C194.672 60.824 193.232 56.456 192.08 52.04H196.88C197.232 53.48 197.648 55.032 198.128 56.696C198.64 58.36 199.2 60.072 199.808 61.832C200.416 63.592 201.072 65.352 201.776 67.112C202.48 68.872 203.216 70.568 203.984 72.2C205.2 68.84 206.256 65.512 207.152 62.216C208.048 58.92 208.896 55.528 209.696 52.04H214.304C213.152 56.744 211.872 61.272 210.464 65.624C209.056 69.944 207.536 73.992 205.904 77.768C205.264 79.208 204.592 80.44 203.888 81.464C203.216 82.52 202.464 83.384 201.632 84.056C200.8 84.728 199.856 85.224 198.8 85.544C197.776 85.864 196.608 86.024 195.296 86.024C194.944 86.024 194.576 85.992 194.192 85.928C193.808 85.896 193.424 85.832 193.04 85.736C192.688 85.672 192.352 85.592 192.032 85.496C191.744 85.4 191.536 85.32 191.408 85.256L192.224 81.656Z"/>
<path d="M184.822 51.5122C185.206 51.5122 185.638 51.5442 186.118 51.6082C186.63 51.6402 187.126 51.7042 187.606 51.8002C188.086 51.8642 188.518 51.9442 188.902 52.0402C189.318 52.1042 189.622 52.1682 189.814 52.2322L189.046 56.1202C188.694 55.9922 188.102 55.8482 187.27 55.6882C186.47 55.4962 185.43 55.4002 184.15 55.4002C183.318 55.4002 182.486 55.4962 181.654 55.6882C180.854 55.8482 180.326 55.9602 180.07 56.0242V77.0002H175.606V53.0962C176.662 52.7122 177.974 52.3602 179.542 52.0402C181.11 51.6882 182.87 51.5122 184.822 51.5122Z"/>
<path d="M166.306 51.5122C166.69 51.5122 167.122 51.5442 167.602 51.6082C168.114 51.6402 168.61 51.7042 169.09 51.8002C169.57 51.8642 170.002 51.9442 170.386 52.0402C170.802 52.1042 171.106 52.1682 171.298 52.2322L170.53 56.1202C170.178 55.9922 169.586 55.8482 168.754 55.6882C167.954 55.4962 166.914 55.4002 165.634 55.4002C164.802 55.4002 163.97 55.4962 163.138 55.6882C162.338 55.8482 161.81 55.9602 161.554 56.0242V77.0002H157.09V53.0962C158.146 52.7122 159.458 52.3602 161.026 52.0402C162.594 51.6882 164.354 51.5122 166.306 51.5122Z"/>
<path d="M150.81 64.52C150.81 66.504 150.521 68.296 149.945 69.896C149.369 71.496 148.553 72.872 147.497 74.024C146.473 75.176 145.241 76.072 143.801 76.712C142.361 77.32 140.794 77.624 139.098 77.624C137.402 77.624 135.834 77.32 134.394 76.712C132.954 76.072 131.705 75.176 130.649 74.024C129.625 72.872 128.825 71.496 128.249 69.896C127.673 68.296 127.385 66.504 127.385 64.52C127.385 62.568 127.673 60.792 128.249 59.192C128.825 57.56 129.625 56.168 130.649 55.016C131.705 53.864 132.954 52.984 134.394 52.376C135.834 51.736 137.402 51.416 139.098 51.416C140.794 51.416 142.361 51.736 143.801 52.376C145.241 52.984 146.473 53.864 147.497 55.016C148.553 56.168 149.369 57.56 149.945 59.192C150.521 60.792 150.81 62.568 150.81 64.52ZM146.154 64.52C146.154 61.704 145.513 59.48 144.233 57.848C142.985 56.184 141.274 55.352 139.098 55.352C136.922 55.352 135.193 56.184 133.913 57.848C132.665 59.48 132.042 61.704 132.042 64.52C132.042 67.336 132.665 69.576 133.913 71.24C135.193 72.872 136.922 73.688 139.098 73.688C141.274 73.688 142.985 72.872 144.233 71.24C145.513 69.576 146.154 67.336 146.154 64.52Z"/>
<path d="M111.247 73.6878C116.111 73.6878 118.543 72.0238 118.543 68.6958C118.543 67.6718 118.319 66.8078 117.871 66.1038C117.455 65.3678 116.879 64.7438 116.143 64.2318C115.407 63.6878 114.559 63.2238 113.599 62.8398C112.671 62.4558 111.679 62.0718 110.623 61.6878C109.407 61.2718 108.255 60.8078 107.167 60.2958C106.079 59.7518 105.135 59.1278 104.335 58.4238C103.535 57.6878 102.895 56.8238 102.415 55.8318C101.967 54.8398 101.743 53.6398 101.743 52.2318C101.743 49.3198 102.735 47.0478 104.719 45.4158C106.703 43.7838 109.439 42.9678 112.927 42.9678C114.943 42.9678 116.767 43.1918 118.399 43.6398C120.063 44.0558 121.279 44.5198 122.047 45.0318L120.559 48.8238C119.887 48.4078 118.879 48.0078 117.535 47.6238C116.223 47.2078 114.687 46.9998 112.927 46.9998C112.031 46.9998 111.199 47.0958 110.431 47.2878C109.663 47.4798 108.991 47.7678 108.415 48.1518C107.839 48.5358 107.375 49.0318 107.023 49.6398C106.703 50.2158 106.543 50.9038 106.543 51.7038C106.543 52.5998 106.719 53.3518 107.071 53.9598C107.423 54.5678 107.919 55.1118 108.559 55.5918C109.199 56.0398 109.935 56.4558 110.767 56.8398C111.631 57.2238 112.575 57.6078 113.599 57.9918C115.039 58.5678 116.351 59.1438 117.535 59.7198C118.751 60.2958 119.791 60.9838 120.655 61.7838C121.551 62.5838 122.239 63.5438 122.719 64.6638C123.199 65.7518 123.439 67.0798 123.439 68.6478C123.439 71.5598 122.367 73.7998 120.223 75.3678C118.111 76.9358 115.119 77.7198 111.247 77.7198C109.935 77.7198 108.719 77.6238 107.599 77.4318C106.511 77.2718 105.535 77.0798 104.671 76.8558C103.807 76.5998 103.055 76.3438 102.415 76.0878C101.807 75.7998 101.327 75.5598 100.975 75.3678L102.367 71.5278C103.103 71.9438 104.223 72.4078 105.727 72.9198C107.231 73.4318 109.071 73.6878 111.247 73.6878Z"/>
</mask>
<path d="M317.593 124.76C316.867 124.163 315.822 123.587 314.457 123.032C313.091 122.477 311.598 122.2 309.977 122.2C308.27 122.2 306.798 122.52 305.561 123.16C304.366 123.757 303.385 124.611 302.617 125.72C301.849 126.787 301.294 128.067 300.953 129.56C300.611 131.053 300.441 132.653 300.441 134.36C300.441 138.243 301.401 141.251 303.321 143.384C305.241 145.475 307.801 146.52 311.001 146.52C312.622 146.52 313.966 146.456 315.033 146.328C316.142 146.157 316.995 145.987 317.593 145.816V124.76ZM317.593 102.36L323.545 101.336V150.04C322.179 150.424 320.43 150.808 318.297 151.192C316.163 151.576 313.71 151.768 310.937 151.768C308.377 151.768 306.073 151.363 304.025 150.552C301.977 149.741 300.227 148.589 298.777 147.096C297.326 145.603 296.195 143.789 295.385 141.656C294.617 139.48 294.233 137.048 294.233 134.36C294.233 131.8 294.553 129.453 295.193 127.32C295.875 125.187 296.857 123.352 298.137 121.816C299.417 120.28 300.974 119.085 302.809 118.232C304.686 117.379 306.819 116.952 309.209 116.952C311.129 116.952 312.814 117.208 314.265 117.72C315.758 118.232 316.867 118.723 317.593 119.192V102.36Z" fill="white"/>
<path d="M259.339 118.68C260.704 118.339 262.518 117.976 264.779 117.592C267.04 117.208 269.643 117.016 272.587 117.016C275.232 117.016 277.43 117.4 279.179 118.168C280.928 118.893 282.315 119.939 283.339 121.304C284.406 122.627 285.152 124.227 285.579 126.104C286.006 127.981 286.219 130.051 286.219 132.312V151H280.267V133.592C280.267 131.544 280.118 129.795 279.819 128.344C279.563 126.893 279.115 125.72 278.475 124.824C277.835 123.928 276.982 123.288 275.915 122.904C274.848 122.477 273.526 122.264 271.947 122.264C271.307 122.264 270.646 122.285 269.963 122.328C269.28 122.371 268.619 122.435 267.979 122.52C267.382 122.563 266.827 122.627 266.315 122.712C265.846 122.797 265.504 122.861 265.291 122.904V151H259.339V118.68Z" fill="white"/>
<path d="M249.085 150.04C247.72 150.382 245.906 150.744 243.645 151.128C241.426 151.512 238.845 151.704 235.901 151.704C233.341 151.704 231.186 151.342 229.437 150.616C227.688 149.848 226.28 148.782 225.213 147.416C224.146 146.051 223.378 144.451 222.909 142.616C222.44 140.739 222.205 138.67 222.205 136.408V117.72H228.157V135.128C228.157 139.182 228.797 142.083 230.077 143.832C231.357 145.582 233.512 146.456 236.541 146.456C237.181 146.456 237.842 146.435 238.525 146.392C239.208 146.35 239.848 146.307 240.445 146.264C241.042 146.179 241.576 146.115 242.045 146.072C242.557 145.987 242.92 145.902 243.133 145.816V117.72H249.085V150.04Z" fill="white"/>
<path d="M214.215 134.36C214.215 137.006 213.831 139.395 213.063 141.528C212.295 143.662 211.207 145.496 209.799 147.032C208.433 148.568 206.791 149.763 204.871 150.616C202.951 151.427 200.86 151.832 198.599 151.832C196.337 151.832 194.247 151.427 192.327 150.616C190.407 149.763 188.743 148.568 187.335 147.032C185.969 145.496 184.903 143.662 184.135 141.528C183.367 139.395 182.983 137.006 182.983 134.36C182.983 131.758 183.367 129.39 184.135 127.256C184.903 125.08 185.969 123.224 187.335 121.688C188.743 120.152 190.407 118.979 192.327 118.168C194.247 117.315 196.337 116.888 198.599 116.888C200.86 116.888 202.951 117.315 204.871 118.168C206.791 118.979 208.433 120.152 209.799 121.688C211.207 123.224 212.295 125.08 213.063 127.256C213.831 129.39 214.215 131.758 214.215 134.36ZM208.007 134.36C208.007 130.606 207.153 127.64 205.447 125.464C203.783 123.246 201.5 122.136 198.599 122.136C195.697 122.136 193.393 123.246 191.687 125.464C190.023 127.64 189.191 130.606 189.191 134.36C189.191 138.115 190.023 141.102 191.687 143.32C193.393 145.496 195.697 146.584 198.599 146.584C201.5 146.584 203.783 145.496 205.447 143.32C207.153 141.102 208.007 138.115 208.007 134.36Z" fill="white"/>
<path d="M151.723 151V106.648H178.475V111.96H157.931V125.336H176.171V130.584H157.931V151H151.723Z" fill="white"/>
<path d="M116.344 117.72H128.952V122.712H116.344V138.072C116.344 139.736 116.472 141.123 116.728 142.232C116.984 143.299 117.368 144.152 117.88 144.792C118.392 145.389 119.032 145.816 119.8 146.072C120.568 146.328 121.464 146.456 122.488 146.456C124.28 146.456 125.71 146.264 126.776 145.88C127.886 145.453 128.654 145.155 129.08 144.984L130.232 149.912C129.635 150.211 128.59 150.573 127.096 151C125.603 151.469 123.896 151.704 121.976 151.704C119.715 151.704 117.838 151.427 116.344 150.872C114.894 150.275 113.72 149.4 112.824 148.248C111.928 147.096 111.288 145.688 110.904 144.024C110.563 142.317 110.392 140.355 110.392 138.136V108.44L116.344 107.416V117.72Z" fill="white"/>
<path d="M102.402 134.36C102.402 137.006 102.018 139.395 101.25 141.528C100.482 143.662 99.3942 145.496 97.9862 147.032C96.6208 148.568 94.9782 149.763 93.0582 150.616C91.1382 151.427 89.0475 151.832 86.7862 151.832C84.5248 151.832 82.4342 151.427 80.5142 150.616C78.5942 149.763 76.9302 148.568 75.5222 147.032C74.1568 145.496 73.0902 143.662 72.3222 141.528C71.5542 139.395 71.1702 137.006 71.1702 134.36C71.1702 131.758 71.5542 129.39 72.3222 127.256C73.0902 125.08 74.1568 123.224 75.5222 121.688C76.9302 120.152 78.5942 118.979 80.5142 118.168C82.4342 117.315 84.5248 116.888 86.7862 116.888C89.0475 116.888 91.1382 117.315 93.0582 118.168C94.9782 118.979 96.6208 120.152 97.9862 121.688C99.3942 123.224 100.482 125.08 101.25 127.256C102.018 129.39 102.402 131.758 102.402 134.36ZM96.1942 134.36C96.1942 130.606 95.3408 127.64 93.6342 125.464C91.9702 123.246 89.6875 122.136 86.7862 122.136C83.8848 122.136 81.5808 123.246 79.8742 125.464C78.2102 127.64 77.3782 130.606 77.3782 134.36C77.3782 138.115 78.2102 141.102 79.8742 143.32C81.5808 145.496 83.8848 146.584 86.7862 146.584C89.6875 146.584 91.9702 145.496 93.6342 143.32C95.3408 141.102 96.1942 138.115 96.1942 134.36Z" fill="white"/>
<path d="M57.2477 151C56.309 149.421 55.221 147.651 53.9837 145.688C52.789 143.725 51.4877 141.699 50.0797 139.608C48.6717 137.475 47.1997 135.32 45.6637 133.144C44.1703 130.968 42.677 128.877 41.1837 126.872C39.6903 124.824 38.2397 122.904 36.8317 121.112C35.4237 119.32 34.1223 117.741 32.9277 116.376V151H26.8477V106.648H31.7757C33.781 108.781 35.9143 111.277 38.1757 114.136C40.4797 116.952 42.741 119.875 44.9597 122.904C47.221 125.891 49.333 128.835 51.2957 131.736C53.301 134.637 54.9863 137.219 56.3517 139.48V106.648H62.4317V151H57.2477Z" fill="white"/>
<path d="M247.917 74.4079C247.917 75.2719 247.629 76.0239 247.053 76.6639C246.477 77.3039 245.693 77.6239 244.701 77.6239C243.709 77.6239 242.925 77.3039 242.349 76.6639C241.773 76.0239 241.485 75.2719 241.485 74.4079C241.485 73.5439 241.773 72.7919 242.349 72.1519C242.925 71.5119 243.709 71.1919 244.701 71.1919C245.693 71.1919 246.477 71.5119 247.053 72.1519C247.629 72.7919 247.917 73.5439 247.917 74.4079Z" fill="white"/>
<path d="M236.104 74.4079C236.104 75.2719 235.816 76.0239 235.24 76.6639C234.664 77.3039 233.88 77.6239 232.888 77.6239C231.896 77.6239 231.112 77.3039 230.536 76.6639C229.96 76.0239 229.672 75.2719 229.672 74.4079C229.672 73.5439 229.96 72.7919 230.536 72.1519C231.112 71.5119 231.896 71.1919 232.888 71.1919C233.88 71.1919 234.664 71.5119 235.24 72.1519C235.816 72.7919 236.104 73.5439 236.104 74.4079Z" fill="white"/>
<path d="M224.292 74.4079C224.292 75.2719 224.004 76.0239 223.428 76.6639C222.852 77.3039 222.068 77.6239 221.076 77.6239C220.084 77.6239 219.3 77.3039 218.724 76.6639C218.148 76.0239 217.86 75.2719 217.86 74.4079C217.86 73.5439 218.148 72.7919 218.724 72.1519C219.3 71.5119 220.084 71.1919 221.076 71.1919C222.068 71.1919 222.852 71.5119 223.428 72.1519C224.004 72.7919 224.292 73.5439 224.292 74.4079Z" fill="white"/>
<path d="M192.224 81.656C192.576 81.816 193.024 81.96 193.568 82.088C194.144 82.248 194.704 82.328 195.248 82.328C197.008 82.328 198.384 81.928 199.376 81.128C200.368 80.36 201.264 79.096 202.064 77.336C200.048 73.496 198.16 69.432 196.4 65.144C194.672 60.824 193.232 56.456 192.08 52.04H196.88C197.232 53.48 197.648 55.032 198.128 56.696C198.64 58.36 199.2 60.072 199.808 61.832C200.416 63.592 201.072 65.352 201.776 67.112C202.48 68.872 203.216 70.568 203.984 72.2C205.2 68.84 206.256 65.512 207.152 62.216C208.048 58.92 208.896 55.528 209.696 52.04H214.304C213.152 56.744 211.872 61.272 210.464 65.624C209.056 69.944 207.536 73.992 205.904 77.768C205.264 79.208 204.592 80.44 203.888 81.464C203.216 82.52 202.464 83.384 201.632 84.056C200.8 84.728 199.856 85.224 198.8 85.544C197.776 85.864 196.608 86.024 195.296 86.024C194.944 86.024 194.576 85.992 194.192 85.928C193.808 85.896 193.424 85.832 193.04 85.736C192.688 85.672 192.352 85.592 192.032 85.496C191.744 85.4 191.536 85.32 191.408 85.256L192.224 81.656Z" fill="white"/>
<path d="M184.822 51.5122C185.206 51.5122 185.638 51.5442 186.118 51.6082C186.63 51.6402 187.126 51.7042 187.606 51.8002C188.086 51.8642 188.518 51.9442 188.902 52.0402C189.318 52.1042 189.622 52.1682 189.814 52.2322L189.046 56.1202C188.694 55.9922 188.102 55.8482 187.27 55.6882C186.47 55.4962 185.43 55.4002 184.15 55.4002C183.318 55.4002 182.486 55.4962 181.654 55.6882C180.854 55.8482 180.326 55.9602 180.07 56.0242V77.0002H175.606V53.0962C176.662 52.7122 177.974 52.3602 179.542 52.0402C181.11 51.6882 182.87 51.5122 184.822 51.5122Z" fill="white"/>
<path d="M166.306 51.5122C166.69 51.5122 167.122 51.5442 167.602 51.6082C168.114 51.6402 168.61 51.7042 169.09 51.8002C169.57 51.8642 170.002 51.9442 170.386 52.0402C170.802 52.1042 171.106 52.1682 171.298 52.2322L170.53 56.1202C170.178 55.9922 169.586 55.8482 168.754 55.6882C167.954 55.4962 166.914 55.4002 165.634 55.4002C164.802 55.4002 163.97 55.4962 163.138 55.6882C162.338 55.8482 161.81 55.9602 161.554 56.0242V77.0002H157.09V53.0962C158.146 52.7122 159.458 52.3602 161.026 52.0402C162.594 51.6882 164.354 51.5122 166.306 51.5122Z" fill="white"/>
<path d="M150.81 64.52C150.81 66.504 150.521 68.296 149.945 69.896C149.369 71.496 148.553 72.872 147.497 74.024C146.473 75.176 145.241 76.072 143.801 76.712C142.361 77.32 140.794 77.624 139.098 77.624C137.402 77.624 135.834 77.32 134.394 76.712C132.954 76.072 131.705 75.176 130.649 74.024C129.625 72.872 128.825 71.496 128.249 69.896C127.673 68.296 127.385 66.504 127.385 64.52C127.385 62.568 127.673 60.792 128.249 59.192C128.825 57.56 129.625 56.168 130.649 55.016C131.705 53.864 132.954 52.984 134.394 52.376C135.834 51.736 137.402 51.416 139.098 51.416C140.794 51.416 142.361 51.736 143.801 52.376C145.241 52.984 146.473 53.864 147.497 55.016C148.553 56.168 149.369 57.56 149.945 59.192C150.521 60.792 150.81 62.568 150.81 64.52ZM146.154 64.52C146.154 61.704 145.513 59.48 144.233 57.848C142.985 56.184 141.274 55.352 139.098 55.352C136.922 55.352 135.193 56.184 133.913 57.848C132.665 59.48 132.042 61.704 132.042 64.52C132.042 67.336 132.665 69.576 133.913 71.24C135.193 72.872 136.922 73.688 139.098 73.688C141.274 73.688 142.985 72.872 144.233 71.24C145.513 69.576 146.154 67.336 146.154 64.52Z" fill="white"/>
<path d="M111.247 73.6878C116.111 73.6878 118.543 72.0238 118.543 68.6958C118.543 67.6718 118.319 66.8078 117.871 66.1038C117.455 65.3678 116.879 64.7438 116.143 64.2318C115.407 63.6878 114.559 63.2238 113.599 62.8398C112.671 62.4558 111.679 62.0718 110.623 61.6878C109.407 61.2718 108.255 60.8078 107.167 60.2958C106.079 59.7518 105.135 59.1278 104.335 58.4238C103.535 57.6878 102.895 56.8238 102.415 55.8318C101.967 54.8398 101.743 53.6398 101.743 52.2318C101.743 49.3198 102.735 47.0478 104.719 45.4158C106.703 43.7838 109.439 42.9678 112.927 42.9678C114.943 42.9678 116.767 43.1918 118.399 43.6398C120.063 44.0558 121.279 44.5198 122.047 45.0318L120.559 48.8238C119.887 48.4078 118.879 48.0078 117.535 47.6238C116.223 47.2078 114.687 46.9998 112.927 46.9998C112.031 46.9998 111.199 47.0958 110.431 47.2878C109.663 47.4798 108.991 47.7678 108.415 48.1518C107.839 48.5358 107.375 49.0318 107.023 49.6398C106.703 50.2158 106.543 50.9038 106.543 51.7038C106.543 52.5998 106.719 53.3518 107.071 53.9598C107.423 54.5678 107.919 55.1118 108.559 55.5918C109.199 56.0398 109.935 56.4558 110.767 56.8398C111.631 57.2238 112.575 57.6078 113.599 57.9918C115.039 58.5678 116.351 59.1438 117.535 59.7198C118.751 60.2958 119.791 60.9838 120.655 61.7838C121.551 62.5838 122.239 63.5438 122.719 64.6638C123.199 65.7518 123.439 67.0798 123.439 68.6478C123.439 71.5598 122.367 73.7998 120.223 75.3678C118.111 76.9358 115.119 77.7198 111.247 77.7198C109.935 77.7198 108.719 77.6238 107.599 77.4318C106.511 77.2718 105.535 77.0798 104.671 76.8558C103.807 76.5998 103.055 76.3438 102.415 76.0878C101.807 75.7998 101.327 75.5598 100.975 75.3678L102.367 71.5278C103.103 71.9438 104.223 72.4078 105.727 72.9198C107.231 73.4318 109.071 73.6878 111.247 73.6878Z" fill="white"/>
<path d="M317.593 124.76C316.867 124.163 315.822 123.587 314.457 123.032C313.091 122.477 311.598 122.2 309.977 122.2C308.27 122.2 306.798 122.52 305.561 123.16C304.366 123.757 303.385 124.611 302.617 125.72C301.849 126.787 301.294 128.067 300.953 129.56C300.611 131.053 300.441 132.653 300.441 134.36C300.441 138.243 301.401 141.251 303.321 143.384C305.241 145.475 307.801 146.52 311.001 146.52C312.622 146.52 313.966 146.456 315.033 146.328C316.142 146.157 316.995 145.987 317.593 145.816V124.76ZM317.593 102.36L323.545 101.336V150.04C322.179 150.424 320.43 150.808 318.297 151.192C316.163 151.576 313.71 151.768 310.937 151.768C308.377 151.768 306.073 151.363 304.025 150.552C301.977 149.741 300.227 148.589 298.777 147.096C297.326 145.603 296.195 143.789 295.385 141.656C294.617 139.48 294.233 137.048 294.233 134.36C294.233 131.8 294.553 129.453 295.193 127.32C295.875 125.187 296.857 123.352 298.137 121.816C299.417 120.28 300.974 119.085 302.809 118.232C304.686 117.379 306.819 116.952 309.209 116.952C311.129 116.952 312.814 117.208 314.265 117.72C315.758 118.232 316.867 118.723 317.593 119.192V102.36Z" stroke="url(#paint1_linear_264_127)" stroke-width="10" stroke-linejoin="round" mask="url(#path-2-outside-1_264_127)"/>
<path d="M259.339 118.68C260.704 118.339 262.518 117.976 264.779 117.592C267.04 117.208 269.643 117.016 272.587 117.016C275.232 117.016 277.43 117.4 279.179 118.168C280.928 118.893 282.315 119.939 283.339 121.304C284.406 122.627 285.152 124.227 285.579 126.104C286.006 127.981 286.219 130.051 286.219 132.312V151H280.267V133.592C280.267 131.544 280.118 129.795 279.819 128.344C279.563 126.893 279.115 125.72 278.475 124.824C277.835 123.928 276.982 123.288 275.915 122.904C274.848 122.477 273.526 122.264 271.947 122.264C271.307 122.264 270.646 122.285 269.963 122.328C269.28 122.371 268.619 122.435 267.979 122.52C267.382 122.563 266.827 122.627 266.315 122.712C265.846 122.797 265.504 122.861 265.291 122.904V151H259.339V118.68Z" stroke="url(#paint2_linear_264_127)" stroke-width="10" stroke-linejoin="round" mask="url(#path-2-outside-1_264_127)"/>
<path d="M249.085 150.04C247.72 150.382 245.906 150.744 243.645 151.128C241.426 151.512 238.845 151.704 235.901 151.704C233.341 151.704 231.186 151.342 229.437 150.616C227.688 149.848 226.28 148.782 225.213 147.416C224.146 146.051 223.378 144.451 222.909 142.616C222.44 140.739 222.205 138.67 222.205 136.408V117.72H228.157V135.128C228.157 139.182 228.797 142.083 230.077 143.832C231.357 145.582 233.512 146.456 236.541 146.456C237.181 146.456 237.842 146.435 238.525 146.392C239.208 146.35 239.848 146.307 240.445 146.264C241.042 146.179 241.576 146.115 242.045 146.072C242.557 145.987 242.92 145.902 243.133 145.816V117.72H249.085V150.04Z" stroke="url(#paint3_linear_264_127)" stroke-width="10" stroke-linejoin="round" mask="url(#path-2-outside-1_264_127)"/>
<path d="M214.215 134.36C214.215 137.006 213.831 139.395 213.063 141.528C212.295 143.662 211.207 145.496 209.799 147.032C208.433 148.568 206.791 149.763 204.871 150.616C202.951 151.427 200.86 151.832 198.599 151.832C196.337 151.832 194.247 151.427 192.327 150.616C190.407 149.763 188.743 148.568 187.335 147.032C185.969 145.496 184.903 143.662 184.135 141.528C183.367 139.395 182.983 137.006 182.983 134.36C182.983 131.758 183.367 129.39 184.135 127.256C184.903 125.08 185.969 123.224 187.335 121.688C188.743 120.152 190.407 118.979 192.327 118.168C194.247 117.315 196.337 116.888 198.599 116.888C200.86 116.888 202.951 117.315 204.871 118.168C206.791 118.979 208.433 120.152 209.799 121.688C211.207 123.224 212.295 125.08 213.063 127.256C213.831 129.39 214.215 131.758 214.215 134.36ZM208.007 134.36C208.007 130.606 207.153 127.64 205.447 125.464C203.783 123.246 201.5 122.136 198.599 122.136C195.697 122.136 193.393 123.246 191.687 125.464C190.023 127.64 189.191 130.606 189.191 134.36C189.191 138.115 190.023 141.102 191.687 143.32C193.393 145.496 195.697 146.584 198.599 146.584C201.5 146.584 203.783 145.496 205.447 143.32C207.153 141.102 208.007 138.115 208.007 134.36Z" stroke="url(#paint4_linear_264_127)" stroke-width="10" stroke-linejoin="round" mask="url(#path-2-outside-1_264_127)"/>
<path d="M151.723 151V106.648H178.475V111.96H157.931V125.336H176.171V130.584H157.931V151H151.723Z" stroke="url(#paint5_linear_264_127)" stroke-width="10" stroke-linejoin="round" mask="url(#path-2-outside-1_264_127)"/>
<path d="M116.344 117.72H128.952V122.712H116.344V138.072C116.344 139.736 116.472 141.123 116.728 142.232C116.984 143.299 117.368 144.152 117.88 144.792C118.392 145.389 119.032 145.816 119.8 146.072C120.568 146.328 121.464 146.456 122.488 146.456C124.28 146.456 125.71 146.264 126.776 145.88C127.886 145.453 128.654 145.155 129.08 144.984L130.232 149.912C129.635 150.211 128.59 150.573 127.096 151C125.603 151.469 123.896 151.704 121.976 151.704C119.715 151.704 117.838 151.427 116.344 150.872C114.894 150.275 113.72 149.4 112.824 148.248C111.928 147.096 111.288 145.688 110.904 144.024C110.563 142.317 110.392 140.355 110.392 138.136V108.44L116.344 107.416V117.72Z" stroke="url(#paint6_linear_264_127)" stroke-width="10" stroke-linejoin="round" mask="url(#path-2-outside-1_264_127)"/>
<path d="M102.402 134.36C102.402 137.006 102.018 139.395 101.25 141.528C100.482 143.662 99.3942 145.496 97.9862 147.032C96.6208 148.568 94.9782 149.763 93.0582 150.616C91.1382 151.427 89.0475 151.832 86.7862 151.832C84.5248 151.832 82.4342 151.427 80.5142 150.616C78.5942 149.763 76.9302 148.568 75.5222 147.032C74.1568 145.496 73.0902 143.662 72.3222 141.528C71.5542 139.395 71.1702 137.006 71.1702 134.36C71.1702 131.758 71.5542 129.39 72.3222 127.256C73.0902 125.08 74.1568 123.224 75.5222 121.688C76.9302 120.152 78.5942 118.979 80.5142 118.168C82.4342 117.315 84.5248 116.888 86.7862 116.888C89.0475 116.888 91.1382 117.315 93.0582 118.168C94.9782 118.979 96.6208 120.152 97.9862 121.688C99.3942 123.224 100.482 125.08 101.25 127.256C102.018 129.39 102.402 131.758 102.402 134.36ZM96.1942 134.36C96.1942 130.606 95.3408 127.64 93.6342 125.464C91.9702 123.246 89.6875 122.136 86.7862 122.136C83.8848 122.136 81.5808 123.246 79.8742 125.464C78.2102 127.64 77.3782 130.606 77.3782 134.36C77.3782 138.115 78.2102 141.102 79.8742 143.32C81.5808 145.496 83.8848 146.584 86.7862 146.584C89.6875 146.584 91.9702 145.496 93.6342 143.32C95.3408 141.102 96.1942 138.115 96.1942 134.36Z" stroke="url(#paint7_linear_264_127)" stroke-width="10" stroke-linejoin="round" mask="url(#path-2-outside-1_264_127)"/>
<path d="M57.2477 151C56.309 149.421 55.221 147.651 53.9837 145.688C52.789 143.725 51.4877 141.699 50.0797 139.608C48.6717 137.475 47.1997 135.32 45.6637 133.144C44.1703 130.968 42.677 128.877 41.1837 126.872C39.6903 124.824 38.2397 122.904 36.8317 121.112C35.4237 119.32 34.1223 117.741 32.9277 116.376V151H26.8477V106.648H31.7757C33.781 108.781 35.9143 111.277 38.1757 114.136C40.4797 116.952 42.741 119.875 44.9597 122.904C47.221 125.891 49.333 128.835 51.2957 131.736C53.301 134.637 54.9863 137.219 56.3517 139.48V106.648H62.4317V151H57.2477Z" stroke="url(#paint8_linear_264_127)" stroke-width="10" stroke-linejoin="round" mask="url(#path-2-outside-1_264_127)"/>
<path d="M247.917 74.4079C247.917 75.2719 247.629 76.0239 247.053 76.6639C246.477 77.3039 245.693 77.6239 244.701 77.6239C243.709 77.6239 242.925 77.3039 242.349 76.6639C241.773 76.0239 241.485 75.2719 241.485 74.4079C241.485 73.5439 241.773 72.7919 242.349 72.1519C242.925 71.5119 243.709 71.1919 244.701 71.1919C245.693 71.1919 246.477 71.5119 247.053 72.1519C247.629 72.7919 247.917 73.5439 247.917 74.4079Z" stroke="url(#paint9_linear_264_127)" stroke-width="10" stroke-linejoin="round" mask="url(#path-2-outside-1_264_127)"/>
<path d="M236.104 74.4079C236.104 75.2719 235.816 76.0239 235.24 76.6639C234.664 77.3039 233.88 77.6239 232.888 77.6239C231.896 77.6239 231.112 77.3039 230.536 76.6639C229.96 76.0239 229.672 75.2719 229.672 74.4079C229.672 73.5439 229.96 72.7919 230.536 72.1519C231.112 71.5119 231.896 71.1919 232.888 71.1919C233.88 71.1919 234.664 71.5119 235.24 72.1519C235.816 72.7919 236.104 73.5439 236.104 74.4079Z" stroke="url(#paint10_linear_264_127)" stroke-width="10" stroke-linejoin="round" mask="url(#path-2-outside-1_264_127)"/>
<path d="M224.292 74.4079C224.292 75.2719 224.004 76.0239 223.428 76.6639C222.852 77.3039 222.068 77.6239 221.076 77.6239C220.084 77.6239 219.3 77.3039 218.724 76.6639C218.148 76.0239 217.86 75.2719 217.86 74.4079C217.86 73.5439 218.148 72.7919 218.724 72.1519C219.3 71.5119 220.084 71.1919 221.076 71.1919C222.068 71.1919 222.852 71.5119 223.428 72.1519C224.004 72.7919 224.292 73.5439 224.292 74.4079Z" stroke="url(#paint11_linear_264_127)" stroke-width="10" stroke-linejoin="round" mask="url(#path-2-outside-1_264_127)"/>
<path d="M192.224 81.656C192.576 81.816 193.024 81.96 193.568 82.088C194.144 82.248 194.704 82.328 195.248 82.328C197.008 82.328 198.384 81.928 199.376 81.128C200.368 80.36 201.264 79.096 202.064 77.336C200.048 73.496 198.16 69.432 196.4 65.144C194.672 60.824 193.232 56.456 192.08 52.04H196.88C197.232 53.48 197.648 55.032 198.128 56.696C198.64 58.36 199.2 60.072 199.808 61.832C200.416 63.592 201.072 65.352 201.776 67.112C202.48 68.872 203.216 70.568 203.984 72.2C205.2 68.84 206.256 65.512 207.152 62.216C208.048 58.92 208.896 55.528 209.696 52.04H214.304C213.152 56.744 211.872 61.272 210.464 65.624C209.056 69.944 207.536 73.992 205.904 77.768C205.264 79.208 204.592 80.44 203.888 81.464C203.216 82.52 202.464 83.384 201.632 84.056C200.8 84.728 199.856 85.224 198.8 85.544C197.776 85.864 196.608 86.024 195.296 86.024C194.944 86.024 194.576 85.992 194.192 85.928C193.808 85.896 193.424 85.832 193.04 85.736C192.688 85.672 192.352 85.592 192.032 85.496C191.744 85.4 191.536 85.32 191.408 85.256L192.224 81.656Z" stroke="url(#paint12_linear_264_127)" stroke-width="10" stroke-linejoin="round" mask="url(#path-2-outside-1_264_127)"/>
<path d="M184.822 51.5122C185.206 51.5122 185.638 51.5442 186.118 51.6082C186.63 51.6402 187.126 51.7042 187.606 51.8002C188.086 51.8642 188.518 51.9442 188.902 52.0402C189.318 52.1042 189.622 52.1682 189.814 52.2322L189.046 56.1202C188.694 55.9922 188.102 55.8482 187.27 55.6882C186.47 55.4962 185.43 55.4002 184.15 55.4002C183.318 55.4002 182.486 55.4962 181.654 55.6882C180.854 55.8482 180.326 55.9602 180.07 56.0242V77.0002H175.606V53.0962C176.662 52.7122 177.974 52.3602 179.542 52.0402C181.11 51.6882 182.87 51.5122 184.822 51.5122Z" stroke="url(#paint13_linear_264_127)" stroke-width="10" stroke-linejoin="round" mask="url(#path-2-outside-1_264_127)"/>
<path d="M166.306 51.5122C166.69 51.5122 167.122 51.5442 167.602 51.6082C168.114 51.6402 168.61 51.7042 169.09 51.8002C169.57 51.8642 170.002 51.9442 170.386 52.0402C170.802 52.1042 171.106 52.1682 171.298 52.2322L170.53 56.1202C170.178 55.9922 169.586 55.8482 168.754 55.6882C167.954 55.4962 166.914 55.4002 165.634 55.4002C164.802 55.4002 163.97 55.4962 163.138 55.6882C162.338 55.8482 161.81 55.9602 161.554 56.0242V77.0002H157.09V53.0962C158.146 52.7122 159.458 52.3602 161.026 52.0402C162.594 51.6882 164.354 51.5122 166.306 51.5122Z" stroke="url(#paint14_linear_264_127)" stroke-width="10" stroke-linejoin="round" mask="url(#path-2-outside-1_264_127)"/>
<path d="M150.81 64.52C150.81 66.504 150.521 68.296 149.945 69.896C149.369 71.496 148.553 72.872 147.497 74.024C146.473 75.176 145.241 76.072 143.801 76.712C142.361 77.32 140.794 77.624 139.098 77.624C137.402 77.624 135.834 77.32 134.394 76.712C132.954 76.072 131.705 75.176 130.649 74.024C129.625 72.872 128.825 71.496 128.249 69.896C127.673 68.296 127.385 66.504 127.385 64.52C127.385 62.568 127.673 60.792 128.249 59.192C128.825 57.56 129.625 56.168 130.649 55.016C131.705 53.864 132.954 52.984 134.394 52.376C135.834 51.736 137.402 51.416 139.098 51.416C140.794 51.416 142.361 51.736 143.801 52.376C145.241 52.984 146.473 53.864 147.497 55.016C148.553 56.168 149.369 57.56 149.945 59.192C150.521 60.792 150.81 62.568 150.81 64.52ZM146.154 64.52C146.154 61.704 145.513 59.48 144.233 57.848C142.985 56.184 141.274 55.352 139.098 55.352C136.922 55.352 135.193 56.184 133.913 57.848C132.665 59.48 132.042 61.704 132.042 64.52C132.042 67.336 132.665 69.576 133.913 71.24C135.193 72.872 136.922 73.688 139.098 73.688C141.274 73.688 142.985 72.872 144.233 71.24C145.513 69.576 146.154 67.336 146.154 64.52Z" stroke="url(#paint15_linear_264_127)" stroke-width="10" stroke-linejoin="round" mask="url(#path-2-outside-1_264_127)"/>
<path d="M111.247 73.6878C116.111 73.6878 118.543 72.0238 118.543 68.6958C118.543 67.6718 118.319 66.8078 117.871 66.1038C117.455 65.3678 116.879 64.7438 116.143 64.2318C115.407 63.6878 114.559 63.2238 113.599 62.8398C112.671 62.4558 111.679 62.0718 110.623 61.6878C109.407 61.2718 108.255 60.8078 107.167 60.2958C106.079 59.7518 105.135 59.1278 104.335 58.4238C103.535 57.6878 102.895 56.8238 102.415 55.8318C101.967 54.8398 101.743 53.6398 101.743 52.2318C101.743 49.3198 102.735 47.0478 104.719 45.4158C106.703 43.7838 109.439 42.9678 112.927 42.9678C114.943 42.9678 116.767 43.1918 118.399 43.6398C120.063 44.0558 121.279 44.5198 122.047 45.0318L120.559 48.8238C119.887 48.4078 118.879 48.0078 117.535 47.6238C116.223 47.2078 114.687 46.9998 112.927 46.9998C112.031 46.9998 111.199 47.0958 110.431 47.2878C109.663 47.4798 108.991 47.7678 108.415 48.1518C107.839 48.5358 107.375 49.0318 107.023 49.6398C106.703 50.2158 106.543 50.9038 106.543 51.7038C106.543 52.5998 106.719 53.3518 107.071 53.9598C107.423 54.5678 107.919 55.1118 108.559 55.5918C109.199 56.0398 109.935 56.4558 110.767 56.8398C111.631 57.2238 112.575 57.6078 113.599 57.9918C115.039 58.5678 116.351 59.1438 117.535 59.7198C118.751 60.2958 119.791 60.9838 120.655 61.7838C121.551 62.5838 122.239 63.5438 122.719 64.6638C123.199 65.7518 123.439 67.0798 123.439 68.6478C123.439 71.5598 122.367 73.7998 120.223 75.3678C118.111 76.9358 115.119 77.7198 111.247 77.7198C109.935 77.7198 108.719 77.6238 107.599 77.4318C106.511 77.2718 105.535 77.0798 104.671 76.8558C103.807 76.5998 103.055 76.3438 102.415 76.0878C101.807 75.7998 101.327 75.5598 100.975 75.3678L102.367 71.5278C103.103 71.9438 104.223 72.4078 105.727 72.9198C107.231 73.4318 109.071 73.6878 111.247 73.6878Z" stroke="url(#paint16_linear_264_127)" stroke-width="10" stroke-linejoin="round" mask="url(#path-2-outside-1_264_127)"/>
<defs>
<linearGradient id="paint0_linear_264_127" x1="0" y1="0" x2="350" y2="197" gradientUnits="userSpaceOnUse">
<stop offset="0.1" stop-color="#F4E1A4"/>
<stop offset="0.2" stop-color="#F1C9A0"/>
<stop offset="0.3" stop-color="#F1A3B5"/>
<stop offset="0.4" stop-color="#E88BCA"/>
<stop offset="0.5" stop-color="#D57BFF"/>
<stop offset="0.6" stop-color="#9B79FF"/>
<stop offset="0.7" stop-color="#5D62D5"/>
<stop offset="0.8" stop-color="#4F4CA1"/>
<stop offset="0.9" stop-color="#3A3A7A"/>
<stop offset="1" stop-color="#2A2A2A"/>
</linearGradient>
<linearGradient id="paint1_linear_264_127" x1="26.8477" y1="97.4" x2="323.545" y2="97.4" gradientUnits="userSpaceOnUse">
<stop offset="0.1" stop-color="#F4E1A4"/>
<stop offset="0.2" stop-color="#F1C9A0"/>
<stop offset="0.3" stop-color="#F1A3B5"/>
<stop offset="0.4" stop-color="#E88BCA"/>
<stop offset="0.5" stop-color="#D57BFF"/>
<stop offset="0.6" stop-color="#9B79FF"/>
<stop offset="0.7" stop-color="#5D62D5"/>
<stop offset="0.8" stop-color="#4F4CA1"/>
<stop offset="0.9" stop-color="#3A3A7A"/>
<stop offset="1" stop-color="#2A2A2A"/>
</linearGradient>
<linearGradient id="paint2_linear_264_127" x1="26.8477" y1="97.4" x2="323.545" y2="97.4" gradientUnits="userSpaceOnUse">
<stop offset="0.1" stop-color="#F4E1A4"/>
<stop offset="0.2" stop-color="#F1C9A0"/>
<stop offset="0.3" stop-color="#F1A3B5"/>
<stop offset="0.4" stop-color="#E88BCA"/>
<stop offset="0.5" stop-color="#D57BFF"/>
<stop offset="0.6" stop-color="#9B79FF"/>
<stop offset="0.7" stop-color="#5D62D5"/>
<stop offset="0.8" stop-color="#4F4CA1"/>
<stop offset="0.9" stop-color="#3A3A7A"/>
<stop offset="1" stop-color="#2A2A2A"/>
</linearGradient>
<linearGradient id="paint3_linear_264_127" x1="26.8477" y1="97.4" x2="323.545" y2="97.4" gradientUnits="userSpaceOnUse">
<stop offset="0.1" stop-color="#F4E1A4"/>
<stop offset="0.2" stop-color="#F1C9A0"/>
<stop offset="0.3" stop-color="#F1A3B5"/>
<stop offset="0.4" stop-color="#E88BCA"/>
<stop offset="0.5" stop-color="#D57BFF"/>
<stop offset="0.6" stop-color="#9B79FF"/>
<stop offset="0.7" stop-color="#5D62D5"/>
<stop offset="0.8" stop-color="#4F4CA1"/>
<stop offset="0.9" stop-color="#3A3A7A"/>
<stop offset="1" stop-color="#2A2A2A"/>
</linearGradient>
<linearGradient id="paint4_linear_264_127" x1="26.8477" y1="97.4" x2="323.545" y2="97.4" gradientUnits="userSpaceOnUse">
<stop offset="0.1" stop-color="#F4E1A4"/>
<stop offset="0.2" stop-color="#F1C9A0"/>
<stop offset="0.3" stop-color="#F1A3B5"/>
<stop offset="0.4" stop-color="#E88BCA"/>
<stop offset="0.5" stop-color="#D57BFF"/>
<stop offset="0.6" stop-color="#9B79FF"/>
<stop offset="0.7" stop-color="#5D62D5"/>
<stop offset="0.8" stop-color="#4F4CA1"/>
<stop offset="0.9" stop-color="#3A3A7A"/>
<stop offset="1" stop-color="#2A2A2A"/>
</linearGradient>
<linearGradient id="paint5_linear_264_127" x1="26.8477" y1="97.4" x2="323.545" y2="97.4" gradientUnits="userSpaceOnUse">
<stop offset="0.1" stop-color="#F4E1A4"/>
<stop offset="0.2" stop-color="#F1C9A0"/>
<stop offset="0.3" stop-color="#F1A3B5"/>
<stop offset="0.4" stop-color="#E88BCA"/>
<stop offset="0.5" stop-color="#D57BFF"/>
<stop offset="0.6" stop-color="#9B79FF"/>
<stop offset="0.7" stop-color="#5D62D5"/>
<stop offset="0.8" stop-color="#4F4CA1"/>
<stop offset="0.9" stop-color="#3A3A7A"/>
<stop offset="1" stop-color="#2A2A2A"/>
</linearGradient>
<linearGradient id="paint6_linear_264_127" x1="26.8477" y1="97.4" x2="323.545" y2="97.4" gradientUnits="userSpaceOnUse">
<stop offset="0.1" stop-color="#F4E1A4"/>
<stop offset="0.2" stop-color="#F1C9A0"/>
<stop offset="0.3" stop-color="#F1A3B5"/>
<stop offset="0.4" stop-color="#E88BCA"/>
<stop offset="0.5" stop-color="#D57BFF"/>
<stop offset="0.6" stop-color="#9B79FF"/>
<stop offset="0.7" stop-color="#5D62D5"/>
<stop offset="0.8" stop-color="#4F4CA1"/>
<stop offset="0.9" stop-color="#3A3A7A"/>
<stop offset="1" stop-color="#2A2A2A"/>
</linearGradient>
<linearGradient id="paint7_linear_264_127" x1="26.8477" y1="97.4" x2="323.545" y2="97.4" gradientUnits="userSpaceOnUse">
<stop offset="0.1" stop-color="#F4E1A4"/>
<stop offset="0.2" stop-color="#F1C9A0"/>
<stop offset="0.3" stop-color="#F1A3B5"/>
<stop offset="0.4" stop-color="#E88BCA"/>
<stop offset="0.5" stop-color="#D57BFF"/>
<stop offset="0.6" stop-color="#9B79FF"/>
<stop offset="0.7" stop-color="#5D62D5"/>
<stop offset="0.8" stop-color="#4F4CA1"/>
<stop offset="0.9" stop-color="#3A3A7A"/>
<stop offset="1" stop-color="#2A2A2A"/>
</linearGradient>
<linearGradient id="paint8_linear_264_127" x1="26.8477" y1="97.4" x2="323.545" y2="97.4" gradientUnits="userSpaceOnUse">
<stop offset="0.1" stop-color="#F4E1A4"/>
<stop offset="0.2" stop-color="#F1C9A0"/>
<stop offset="0.3" stop-color="#F1A3B5"/>
<stop offset="0.4" stop-color="#E88BCA"/>
<stop offset="0.5" stop-color="#D57BFF"/>
<stop offset="0.6" stop-color="#9B79FF"/>
<stop offset="0.7" stop-color="#5D62D5"/>
<stop offset="0.8" stop-color="#4F4CA1"/>
<stop offset="0.9" stop-color="#3A3A7A"/>
<stop offset="1" stop-color="#2A2A2A"/>
</linearGradient>
<linearGradient id="paint9_linear_264_127" x1="26.8477" y1="97.4" x2="323.545" y2="97.4" gradientUnits="userSpaceOnUse">
<stop offset="0.1" stop-color="#F4E1A4"/>
<stop offset="0.2" stop-color="#F1C9A0"/>
<stop offset="0.3" stop-color="#F1A3B5"/>
<stop offset="0.4" stop-color="#E88BCA"/>
<stop offset="0.5" stop-color="#D57BFF"/>
<stop offset="0.6" stop-color="#9B79FF"/>
<stop offset="0.7" stop-color="#5D62D5"/>
<stop offset="0.8" stop-color="#4F4CA1"/>
<stop offset="0.9" stop-color="#3A3A7A"/>
<stop offset="1" stop-color="#2A2A2A"/>
</linearGradient>
<linearGradient id="paint10_linear_264_127" x1="26.8477" y1="97.4" x2="323.545" y2="97.4" gradientUnits="userSpaceOnUse">
<stop offset="0.1" stop-color="#F4E1A4"/>
<stop offset="0.2" stop-color="#F1C9A0"/>
<stop offset="0.3" stop-color="#F1A3B5"/>
<stop offset="0.4" stop-color="#E88BCA"/>
<stop offset="0.5" stop-color="#D57BFF"/>
<stop offset="0.6" stop-color="#9B79FF"/>
<stop offset="0.7" stop-color="#5D62D5"/>
<stop offset="0.8" stop-color="#4F4CA1"/>
<stop offset="0.9" stop-color="#3A3A7A"/>
<stop offset="1" stop-color="#2A2A2A"/>
</linearGradient>
<linearGradient id="paint11_linear_264_127" x1="26.8477" y1="97.4" x2="323.545" y2="97.4" gradientUnits="userSpaceOnUse">
<stop offset="0.1" stop-color="#F4E1A4"/>
<stop offset="0.2" stop-color="#F1C9A0"/>
<stop offset="0.3" stop-color="#F1A3B5"/>
<stop offset="0.4" stop-color="#E88BCA"/>
<stop offset="0.5" stop-color="#D57BFF"/>
<stop offset="0.6" stop-color="#9B79FF"/>
<stop offset="0.7" stop-color="#5D62D5"/>
<stop offset="0.8" stop-color="#4F4CA1"/>
<stop offset="0.9" stop-color="#3A3A7A"/>
<stop offset="1" stop-color="#2A2A2A"/>
</linearGradient>
<linearGradient id="paint12_linear_264_127" x1="26.8477" y1="97.4" x2="323.545" y2="97.4" gradientUnits="userSpaceOnUse">
<stop offset="0.1" stop-color="#F4E1A4"/>
<stop offset="0.2" stop-color="#F1C9A0"/>
<stop offset="0.3" stop-color="#F1A3B5"/>
<stop offset="0.4" stop-color="#E88BCA"/>
<stop offset="0.5" stop-color="#D57BFF"/>
<stop offset="0.6" stop-color="#9B79FF"/>
<stop offset="0.7" stop-color="#5D62D5"/>
<stop offset="0.8" stop-color="#4F4CA1"/>
<stop offset="0.9" stop-color="#3A3A7A"/>
<stop offset="1" stop-color="#2A2A2A"/>
</linearGradient>
<linearGradient id="paint13_linear_264_127" x1="26.8477" y1="97.4" x2="323.545" y2="97.4" gradientUnits="userSpaceOnUse">
<stop offset="0.1" stop-color="#F4E1A4"/>
<stop offset="0.2" stop-color="#F1C9A0"/>
<stop offset="0.3" stop-color="#F1A3B5"/>
<stop offset="0.4" stop-color="#E88BCA"/>
<stop offset="0.5" stop-color="#D57BFF"/>
<stop offset="0.6" stop-color="#9B79FF"/>
<stop offset="0.7" stop-color="#5D62D5"/>
<stop offset="0.8" stop-color="#4F4CA1"/>
<stop offset="0.9" stop-color="#3A3A7A"/>
<stop offset="1" stop-color="#2A2A2A"/>
</linearGradient>
<linearGradient id="paint14_linear_264_127" x1="26.8477" y1="97.4" x2="323.545" y2="97.4" gradientUnits="userSpaceOnUse">
<stop offset="0.1" stop-color="#F4E1A4"/>
<stop offset="0.2" stop-color="#F1C9A0"/>
<stop offset="0.3" stop-color="#F1A3B5"/>
<stop offset="0.4" stop-color="#E88BCA"/>
<stop offset="0.5" stop-color="#D57BFF"/>
<stop offset="0.6" stop-color="#9B79FF"/>
<stop offset="0.7" stop-color="#5D62D5"/>
<stop offset="0.8" stop-color="#4F4CA1"/>
<stop offset="0.9" stop-color="#3A3A7A"/>
<stop offset="1" stop-color="#2A2A2A"/>
</linearGradient>
<linearGradient id="paint15_linear_264_127" x1="26.8477" y1="97.4" x2="323.545" y2="97.4" gradientUnits="userSpaceOnUse">
<stop offset="0.1" stop-color="#F4E1A4"/>
<stop offset="0.2" stop-color="#F1C9A0"/>
<stop offset="0.3" stop-color="#F1A3B5"/>
<stop offset="0.4" stop-color="#E88BCA"/>
<stop offset="0.5" stop-color="#D57BFF"/>
<stop offset="0.6" stop-color="#9B79FF"/>
<stop offset="0.7" stop-color="#5D62D5"/>
<stop offset="0.8" stop-color="#4F4CA1"/>
<stop offset="0.9" stop-color="#3A3A7A"/>
<stop offset="1" stop-color="#2A2A2A"/>
</linearGradient>
<linearGradient id="paint16_linear_264_127" x1="26.8477" y1="97.4" x2="323.545" y2="97.4" gradientUnits="userSpaceOnUse">
<stop offset="0.1" stop-color="#F4E1A4"/>
<stop offset="0.2" stop-color="#F1C9A0"/>
<stop offset="0.3" stop-color="#F1A3B5"/>
<stop offset="0.4" stop-color="#E88BCA"/>
<stop offset="0.5" stop-color="#D57BFF"/>
<stop offset="0.6" stop-color="#9B79FF"/>
<stop offset="0.7" stop-color="#5D62D5"/>
<stop offset="0.8" stop-color="#4F4CA1"/>
<stop offset="0.9" stop-color="#3A3A7A"/>
<stop offset="1" stop-color="#2A2A2A"/>
</linearGradient>
</defs>
</svg>
