<svg width="32" height="32" viewBox="0 0 32 32" fill="none" xmlns="http://www.w3.org/2000/svg">
<path d="M16.3295 13.9409H14.7341V23.056H16.3295V13.9409Z" fill="#221715"/>
<path d="M20.9933 23.0559V19.1319H19.3569V23.0559H17.7614V12.4285C17.7614 11.8971 18.0887 11.4066 18.3751 11.1205C18.5796 10.9161 19.1932 10.5482 19.766 10.5482H20.666C21.2387 10.5482 21.6887 10.7935 21.9751 11.1205C22.3433 11.4475 22.6296 11.8971 22.6296 12.5102V23.0559H20.9933ZM20.9933 11.6518H19.3569V18.0691H20.9933V11.6518Z" fill="#221715"/>
<path d="M26.1887 9.3629C26.8024 10.63 21.9341 14.3905 15.2659 17.7422C8.59769 21.1348 2.70673 22.8107 2.05218 21.5435C1.43854 20.2764 6.30676 16.516 12.975 13.1642C19.6432 9.77165 25.5751 8.09579 26.1887 9.3629ZM14.775 12.1832C8.10677 15.5758 3.19765 19.2954 3.81129 20.6034C4.42493 21.8705 10.3568 20.1947 16.9841 16.843C23.6932 13.4912 28.5615 9.73077 27.9478 8.42278C27.3342 7.15567 21.4432 8.83153 14.775 12.1832Z" fill="#00579C"/>
<path d="M10.1522 20.1538V23.0967H8.55678V20.7669C8.51587 20.7669 9.82497 20.2764 10.1522 20.1538ZM8.51587 20.399V12.4285C8.51587 11.8971 8.84314 11.4066 9.12951 11.1205C9.33406 10.9161 9.9477 10.5482 10.5204 10.5482H11.4204C11.9932 10.5482 12.4432 10.7935 12.7295 11.1205C13.0977 11.4475 13.3841 11.8971 13.3841 12.5102V17.2925C13.3841 17.8648 13.0568 18.3553 12.7704 18.6005C12.5659 18.8049 11.9932 19.1728 11.3795 19.1728H10.1113V19.8676C9.86588 19.9903 8.51587 20.399 8.51587 20.399ZM11.7477 11.6518H10.1113V18.0691H11.7477V11.6518Z" fill="#221715"/>
<path d="M16.9023 11.7746C16.9023 12.4694 16.3296 13.0417 15.6341 13.0417C14.9386 13.0417 14.3659 12.4694 14.3659 11.7746C14.3659 11.0797 14.9386 10.5074 15.6341 10.5074C16.3296 10.5074 16.9023 11.0797 16.9023 11.7746Z" fill="url(#paint0_radial_253_1884)"/>
<defs>
<radialGradient id="paint0_radial_253_1884" cx="0" cy="0" r="1" gradientUnits="userSpaceOnUse" gradientTransform="translate(15.5627 11.771) scale(1.27078 1.2697)">
<stop stop-color="white"/>
<stop offset="0.1526" stop-color="#D2CFCF"/>
<stop offset="0.3801" stop-color="#948E8E"/>
<stop offset="0.587" stop-color="#635B5A"/>
<stop offset="0.7657" stop-color="#403634"/>
<stop offset="0.9094" stop-color="#2A1F1D"/>
<stop offset="1" stop-color="#221715"/>
</radialGradient>
</defs>
</svg>
