<svg width="180" height="128" viewBox="0 0 180 128" fill="none" xmlns="http://www.w3.org/2000/svg">
<rect width="180" height="128" fill="white"/>
<path d="M111.727 33.6168C111.727 24.627 108.221 16.1778 101.868 9.84084C95.5057 3.48389 87.0291 -0.0199365 78.0115 8.53359e-05C69.034 0.0201072 60.5975 3.52394 54.2651 9.84084C41.1495 22.9552 41.1495 44.2985 54.2752 57.4028C60.6476 63.7598 69.1242 67.2536 78.1518 67.2436C87.1293 67.2236 95.5558 63.7297 101.878 57.4028C108.221 51.0559 111.717 42.6067 111.717 33.6168H111.727ZM78.1518 60.9567C70.7974 60.9667 63.914 58.1336 58.7239 52.958C48.043 42.2963 48.043 24.9474 58.7239 14.2857C63.8739 9.14007 70.7273 6.29697 78.0316 6.28696C85.3759 6.26693 92.2594 9.11004 97.4395 14.2757C102.6 19.4413 105.455 26.2988 105.445 33.6268C105.445 40.9348 102.61 47.8123 97.4495 52.968C92.2994 58.1036 85.4561 60.9467 78.1518 60.9567Z" fill="#30363D"/>
<path opacity="0.2" d="M78.0318 6.38707C70.7475 6.39708 63.9242 9.23018 58.7842 14.3558C48.1434 24.9774 48.1534 42.2663 58.7942 52.8879C63.9543 58.0435 70.8177 60.8766 78.152 60.8566C85.4262 60.8466 92.2495 58.0135 97.3796 52.8879C102.52 47.7523 105.345 40.8948 105.345 33.6068C105.345 26.3088 102.51 19.4714 97.3595 14.3257C92.1994 9.18012 85.336 6.34703 78.0217 6.36705L78.0318 6.38707Z" fill="white"/>
<path opacity="0.2" d="M54.0648 40.0839C54.0648 33.0362 56.8001 26.419 61.7699 21.4636C66.7295 16.5081 73.3324 13.7651 80.3662 13.7551C87.4199 13.7451 94.0529 16.4681 99.0326 21.4235L99.0627 21.4536C100.996 23.3857 102.59 25.568 103.822 27.9206C102.75 23.0553 100.325 18.5904 96.7181 14.9965L96.688 14.9765C91.7083 10.011 85.0754 7.28807 78.0116 7.30809C70.9879 7.3181 64.385 10.0611 59.4153 15.0165C54.4455 19.9819 51.7102 26.5992 51.7102 33.6369C51.7102 37.9416 52.7422 42.0961 54.676 45.8002C54.2752 43.9481 54.0548 42.0461 54.0548 40.0939L54.0648 40.0839Z" fill="#3B3C3D"/>
<path d="M57.6217 54.0592C46.3396 42.7969 46.3296 24.4568 57.6217 13.1945C63.0723 7.74858 70.3165 4.75531 78.0215 4.73529C85.7767 4.71526 93.0609 7.71855 98.5316 13.1745L100.525 11.1823C100.525 11.1823 100.485 11.1523 100.485 11.1423C94.4837 5.17577 86.5081 1.89218 78.0215 1.9122C69.555 1.93222 61.5994 5.22582 55.6178 11.1923C43.2436 23.5659 43.2436 43.6879 55.6278 56.0614L57.6217 54.0692V54.0592Z" fill="#474F59"/>
<path d="M82.34 73.0299C82.37 70.4771 82.4101 67.9244 82.4402 65.3616C82.4402 64.1803 81.9793 63.1091 81.2078 62.3483C80.2158 62.4484 79.2039 62.4984 78.1919 62.4984C77.1799 62.4984 76.0978 62.4484 75.0558 62.3383C74.3043 63.0891 73.8234 64.1703 73.8234 65.3415C73.7833 67.9043 73.7532 70.4671 73.7131 73.05C73.7131 75.5026 75.5768 76.5238 78.0115 76.4937H78.0316C80.4763 76.4937 82.35 75.4526 82.34 73.0299Z" fill="#30363D"/>
<path d="M84.9551 72.5895H71.2083V115.456H84.9551V72.5895Z" fill="#484F59"/>
<path d="M83.853 72.5895H78.1719V115.456H83.853V72.5895Z" fill="#30363D"/>
<path d="M84.9551 72.5895H71.2083V75.8831H84.9551V72.5895Z" fill="#3B3C3D"/>
<path d="M83.6727 73.3503H77.6008V75.6228H83.6727V73.3503Z" fill="#CDD5D7"/>
<path d="M84.9551 118.75C81.1577 122.544 75.0057 122.544 71.2083 118.75C71.2083 117.649 71.2083 116.558 71.2083 115.456C75.7972 115.456 80.3762 115.456 84.9551 115.456C84.9551 116.558 84.9551 117.649 84.9551 118.75Z" fill="black"/>
<path d="M83.6727 115.867H77.6008V118.7H83.6727V115.867Z" fill="#CDD5D7"/>
<path d="M60.9383 39.223L58.7941 41.1551L61.5395 45.9103L64.385 44.9893C64.9261 45.5899 65.4972 46.1605 66.1184 46.6911L65.2367 49.4341L67.6414 50.8256L72.4107 42.3264C69.2545 40.5444 67.1204 37.1807 67.1204 33.2965C67.1204 30.2131 68.483 27.4501 70.6272 25.558L65.7076 20.002L65.7778 20.2122C65.1766 20.7528 64.6055 21.3234 64.0744 21.9441L61.3291 21.0631L58.5837 25.8183L60.788 27.8105C60.5375 28.5713 60.3371 29.3622 60.1969 30.1731L57.3713 30.7737V36.2597L60.267 36.8804C60.4373 37.6913 60.6678 38.4621 60.9483 39.223H60.9383Z" fill="#FFD102"/>
<path d="M77.4706 22.9451V13.2045H74.5048L73.8836 16.0976C73.082 16.2678 72.3005 16.4981 71.539 16.7784L69.6052 14.636L64.8459 17.379L65.6976 20.0019L70.6172 25.558C72.4408 23.9362 74.8355 22.9451 77.4706 22.9451Z" fill="#01C6DA"/>
<path d="M77.4705 22.9452C83.1916 22.9452 87.8307 27.5803 87.8307 33.2965H97.5797V30.3333L94.6841 29.7126C94.5238 28.9118 94.2833 28.1309 94.0128 27.3701L96.157 25.438L93.4116 20.6828L90.566 21.5938C90.025 20.9931 89.4539 20.4225 88.8326 19.8919L89.7244 17.1489L84.9651 14.4059L82.9712 16.6083C82.2097 16.358 81.4182 16.1578 80.6166 16.0177L80.0154 13.1946H77.4905V22.9352L77.4705 22.9452Z" fill="#484F59"/>
<path d="M77.4706 43.6478C75.627 43.6478 73.9036 43.1573 72.4107 42.3264L67.6414 50.8257L69.9859 52.1872L71.9798 49.9847C72.7513 50.235 73.5329 50.4352 74.3444 50.5754L74.9456 53.3985H80.4363L81.0576 50.5053C81.8591 50.3351 82.6407 50.1049 83.3921 49.8246L85.3259 51.9669L90.0852 49.2239L89.1634 46.3808C89.7646 45.8402 90.3457 45.2696 90.8667 44.6489L93.6121 45.5399L96.3574 40.7847L94.1531 38.7925C94.4036 38.0317 94.604 37.2408 94.7443 36.4299L97.5598 35.8293V33.3065H87.8107C87.8107 39.0228 83.1717 43.6578 77.4505 43.6578L77.4706 43.6478Z" fill="#FF876C"/>
<path d="M112.589 81.4792C112.429 81.4792 112.278 81.4091 112.188 81.269L100.866 65.7019C100.786 65.5918 100.756 65.4617 100.776 65.3315C100.796 65.2014 100.866 65.0813 100.976 65.0012C104.523 62.4284 108.211 61.2371 112.599 61.2371C112.88 61.2371 113.1 61.4573 113.1 61.7376V80.9786C113.1 81.1989 112.96 81.3891 112.749 81.4592C112.699 81.4792 112.649 81.4792 112.599 81.4792H112.589ZM101.968 65.5217L112.088 79.437V62.2382C108.311 62.3182 105.074 63.3694 101.968 65.5217Z" fill="#3B3C3D"/>
<path d="M112.589 100.73C101.688 100.73 92.8206 91.8705 92.8206 80.9786C92.8206 74.3914 95.6361 68.8754 100.966 65.0012C101.187 64.841 101.508 64.8911 101.668 65.1113L112.088 79.437V61.7276C112.088 61.4473 112.309 61.2271 112.589 61.2271C123.49 61.2271 132.358 70.0867 132.358 80.9686C132.358 91.8505 123.49 100.72 112.589 100.72V100.73ZM101.157 66.1124C96.3575 69.7664 93.8225 74.902 93.8225 80.9786C93.8225 91.3199 102.239 99.7291 112.589 99.7291C122.939 99.7291 131.356 91.3199 131.356 80.9786C131.356 70.6373 123.21 62.5084 113.09 62.2382V80.9786C113.09 81.1989 112.95 81.3891 112.739 81.4592C112.539 81.5292 112.309 81.4592 112.178 81.279L101.147 66.1124H101.157Z" fill="#3B3C3D"/>
<path d="M130.915 87.4257C130.865 87.4257 130.815 87.4257 130.765 87.4057L112.449 81.4592C112.238 81.3891 112.098 81.1989 112.098 80.9786V61.7376C112.098 61.4573 112.319 61.2371 112.599 61.2371C114.763 61.2371 116.647 61.5374 118.701 62.2081C123.721 63.8399 127.809 67.3237 130.204 72.0289C132.598 76.734 133.019 82.0798 131.386 87.0953C131.346 87.2255 131.256 87.3256 131.135 87.3856C131.065 87.4257 130.985 87.4357 130.905 87.4357L130.915 87.4257ZM113.09 80.6182L130.584 86.3045C131.957 81.6794 131.506 76.7941 129.312 72.4794C127.037 68.0145 123.16 64.7109 118.39 63.1592C116.567 62.5685 114.964 62.2882 113.09 62.2482V80.6283V80.6182Z" fill="#3B3C3D"/>
<path d="M118.711 109.75H91.9888V111.752H118.711V109.75Z" fill="#484F59"/>
<path d="M129.763 117.318H91.9888V118.319H129.763V117.318Z" fill="#484F59"/>
<path d="M129.763 122.154H91.9888V123.155H129.763V122.154Z" fill="#484F59"/>
<path d="M115.405 126.999H91.9888V128H115.405V126.999Z" fill="#484F59"/>
<path d="M142.938 30.4834H116.216V32.4856H142.938V30.4834Z" fill="#484F59"/>
<path d="M154 38.0417H116.216V39.0428H154V38.0417Z" fill="#484F59"/>
<path d="M154 42.887H116.216V43.8881H154V42.887Z" fill="#484F59"/>
<path d="M139.632 47.7223H116.216V48.7234H139.632V47.7223Z" fill="#484F59"/>
<path d="M53.3032 72.2391H26.5811V74.2413H53.3032V72.2391Z" fill="#484F59"/>
<path d="M64.3648 79.7972H26.5811V80.7983H64.3648V79.7972Z" fill="#484F59"/>
<path d="M64.3648 84.6427H26.5811V85.6438H64.3648V84.6427Z" fill="#484F59"/>
<path d="M49.9968 89.4779H26.5811V90.479H49.9968V89.4779Z" fill="#484F59"/>
<path d="M107.74 104.654H91.9888V103.653H107.329L113.441 97.5466L114.142 98.2574L107.74 104.654Z" fill="#484F59"/>
<path d="M31.9516 67.8042H26.501C26.2204 67.8042 26 67.5839 26 67.3036V58.0235C26 57.7432 26.2204 57.5229 26.501 57.5229H31.9516C32.2322 57.5229 32.4526 57.7432 32.4526 58.0235V67.3036C32.4526 67.5839 32.2322 67.8042 31.9516 67.8042ZM27.002 66.8031H31.4506V58.524H27.002V66.8031Z" fill="#3B3C3D"/>
<path d="M48.9047 67.8042H43.4541C43.1736 67.8042 42.9531 67.5839 42.9531 67.3036V61.257C42.9531 60.9767 43.1736 60.7565 43.4541 60.7565H48.9047C49.1853 60.7565 49.4057 60.9767 49.4057 61.257V67.3036C49.4057 67.5839 49.1853 67.8042 48.9047 67.8042ZM43.9551 66.8031H48.4038V61.7576H43.9551V66.8031Z" fill="#3B3C3D"/>
<path d="M40.4282 67.8042H34.9775C34.697 67.8042 34.4766 67.584 34.4766 67.3036V52.7778C34.4766 52.4975 34.697 52.2772 34.9775 52.2772H40.4282C40.7087 52.2772 40.9292 52.4975 40.9292 52.7778V67.3036C40.9292 67.584 40.7087 67.8042 40.4282 67.8042ZM35.4785 66.8031H39.9272V53.2783H35.4785V66.8031Z" fill="#3B3C3D"/>
<path d="M131.867 27.7905H120.064C119.903 27.7905 119.763 27.7204 119.663 27.5903C119.573 27.4701 119.533 27.31 119.583 27.1498L125.474 5.5662C125.595 5.12572 126.326 5.12572 126.436 5.5662L132.288 27.0196C132.338 27.0997 132.358 27.1798 132.358 27.2799C132.358 27.5602 132.137 27.7805 131.857 27.7805L131.867 27.7905ZM120.725 26.7894H131.196L125.955 7.60843L120.725 26.7894Z" fill="#3B3C3D"/>
<path d="M136.576 27.7905H127.528C127.368 27.7905 127.228 27.7204 127.127 27.5903C127.037 27.4702 126.997 27.31 127.047 27.1498L131.556 10.6117C131.616 10.3915 131.817 10.2413 132.037 10.2413C132.267 10.2413 132.458 10.3915 132.518 10.6117L136.997 27.0197C137.047 27.0998 137.067 27.1798 137.067 27.28C137.067 27.5603 136.846 27.7805 136.566 27.7805L136.576 27.7905ZM128.189 26.7894H135.905L132.047 12.654L128.189 26.7894Z" fill="#3B3C3D"/>
<path d="M122.579 27.7905H116.837C116.677 27.7905 116.537 27.7205 116.437 27.5903C116.347 27.4702 116.306 27.3 116.357 27.1498L119.222 16.6584C119.342 16.2179 120.074 16.2179 120.184 16.6584L123.01 27.0197C123.06 27.0998 123.08 27.1799 123.08 27.28C123.08 27.5603 122.859 27.7805 122.579 27.7805V27.7905ZM117.489 26.7894H121.907L119.703 18.7006L117.499 26.7894H117.489Z" fill="#3B3C3D"/>
</svg>
