<svg width="180" height="128" viewBox="0 0 180 128" fill="none" xmlns="http://www.w3.org/2000/svg">
<rect width="180" height="128" fill="white"/>
<path d="M109.245 122.392H71.8237L77.1696 95.6625H103.899L109.245 122.392Z" fill="#BEBEBE"/>
<path d="M161.814 17.2558C161.814 13.3194 158.622 10.1279 154.686 10.1279H26.3837C22.4474 10.1279 19.2559 13.3194 19.2559 17.2558V95.6625H161.814V17.2558Z" fill="#383C43"/>
<path d="M19.2559 95.6625V102.79C19.2559 105.743 21.649 108.136 24.6018 108.136H156.468C159.42 108.136 161.814 105.743 161.814 102.79V95.6625H19.2559Z" fill="#E1E1E1"/>
<path d="M114.769 122.392H66.2997C65.906 122.392 65.5869 122.711 65.5869 123.105V127.025C65.5869 127.419 65.906 127.738 66.2997 127.738H114.769C115.163 127.738 115.482 127.419 115.482 127.025V123.105C115.482 122.711 115.163 122.392 114.769 122.392Z" fill="#E1E1E1"/>
<path d="M154.686 17.2558H26.3838V88.5346H154.686V17.2558Z" fill="#599EE2"/>
<mask id="mask0_2293_951" style="mask-type:luminance" maskUnits="userSpaceOnUse" x="47" y="22" width="87" height="62">
<path d="M133.302 22.6017H47.7671V83.1887H133.302V22.6017Z" fill="white"/>
</mask>
<g mask="url(#mask0_2293_951)">
<path d="M133.302 22.6017H47.7671V83.1887H133.302V22.6017Z" fill="white"/>
<path d="M126.174 74.457H54.895V75.1698H126.174V74.457Z" fill="#949D9F"/>
<path d="M126.161 66.9728H54.8823V67.6856H126.161V66.9728Z" fill="#949D9F"/>
<path d="M126.161 59.8448H54.8823V60.5576H126.161V59.8448Z" fill="#949D9F"/>
<path d="M126.161 52.5388H54.8823V53.2515H126.161V52.5388Z" fill="#949D9F"/>
<path d="M116.373 39.5304C116.865 39.5304 117.264 39.1315 117.264 38.6394C117.264 38.1473 116.865 37.7484 116.373 37.7484C115.881 37.7484 115.482 38.1473 115.482 38.6394C115.482 39.1315 115.881 39.5304 116.373 39.5304Z" fill="#7686F0"/>
<path d="M133.302 22.6017H47.7671V27.2348H133.302V22.6017Z" fill="#383C43"/>
<path d="M50.618 25.9874C51.2085 25.9874 51.6872 25.5087 51.6872 24.9182C51.6872 24.3277 51.2085 23.8491 50.618 23.8491C50.0275 23.8491 49.5488 24.3277 49.5488 24.9182C49.5488 25.5087 50.0275 25.9874 50.618 25.9874Z" fill="#FD6E73"/>
<path d="M53.9789 25.9874C54.5693 25.9874 55.048 25.5087 55.048 24.9182C55.048 24.3277 54.5693 23.8491 53.9789 23.8491C53.3884 23.8491 52.9097 24.3277 52.9097 24.9182C52.9097 25.5087 53.3884 25.9874 53.9789 25.9874Z" fill="#EDE500"/>
<path d="M57.3382 25.9874C57.9287 25.9874 58.4074 25.5087 58.4074 24.9182C58.4074 24.3277 57.9287 23.8491 57.3382 23.8491C56.7477 23.8491 56.269 24.3277 56.269 24.9182C56.269 25.5087 56.7477 25.9874 57.3382 25.9874Z" fill="#4AEE67"/>
</g>
<mask id="mask1_2293_951" style="mask-type:luminance" maskUnits="userSpaceOnUse" x="5" y="58" width="65" height="44">
<path d="M69.1509 58.2411H5V101.008H69.1509V58.2411Z" fill="white"/>
</mask>
<g mask="url(#mask1_2293_951)">
<path d="M69.1509 58.2411H5V101.008H69.1509V58.2411Z" fill="#EEEEEE"/>
<path d="M69.1509 58.2411H5V62.8742H69.1509V58.2411Z" fill="#383C43"/>
<path d="M7.85092 61.6268C8.44141 61.6268 8.9201 61.1481 8.9201 60.5576C8.9201 59.9672 8.44141 59.4885 7.85092 59.4885C7.26043 59.4885 6.78174 59.9672 6.78174 60.5576C6.78174 61.1481 7.26043 61.6268 7.85092 61.6268Z" fill="#FD6E73"/>
<path d="M11.2118 61.6268C11.8023 61.6268 12.2809 61.1481 12.2809 60.5576C12.2809 59.9672 11.8023 59.4885 11.2118 59.4885C10.6213 59.4885 10.1426 59.9672 10.1426 60.5576C10.1426 61.1481 10.6213 61.6268 11.2118 61.6268Z" fill="#EDE500"/>
<path d="M14.5706 61.6268C15.1611 61.6268 15.6398 61.1481 15.6398 60.5576C15.6398 59.9672 15.1611 59.4885 14.5706 59.4885C13.9802 59.4885 13.5015 59.9672 13.5015 60.5576C13.5015 61.1481 13.9802 61.6268 14.5706 61.6268Z" fill="#4AEE67"/>
</g>
<path d="M16.2141 74.8134C17.0999 74.8134 17.8179 74.0954 17.8179 73.2097C17.8179 72.3239 17.0999 71.6059 16.2141 71.6059C15.3284 71.6059 14.6104 72.3239 14.6104 73.2097C14.6104 74.0954 15.3284 74.8134 16.2141 74.8134Z" fill="#FD6E73"/>
<path d="M40.4488 73.7442C40.7441 73.7442 40.9834 73.5049 40.9834 73.2096C40.9834 72.9144 40.7441 72.675 40.4488 72.675H21.2035C20.9083 72.675 20.6689 72.9144 20.6689 73.2096C20.6689 73.5049 20.9083 73.7442 21.2035 73.7442H40.4488Z" fill="#383C43"/>
<path d="M16.2141 80.5157C17.0999 80.5157 17.8179 79.7977 17.8179 78.9119C17.8179 78.0262 17.0999 77.3082 16.2141 77.3082C15.3284 77.3082 14.6104 78.0262 14.6104 78.9119C14.6104 79.7977 15.3284 80.5157 16.2141 80.5157Z" fill="#B7EEFD"/>
<path d="M42.2305 79.4466C42.5258 79.4466 42.7651 79.2072 42.7651 78.912C42.7651 78.6167 42.5258 78.3774 42.2305 78.3774H21.2033C20.908 78.3774 20.6687 78.6167 20.6687 78.912C20.6687 79.2072 20.908 79.4466 21.2033 79.4466H42.2305Z" fill="#383C43"/>
<path d="M16.2141 86.218C17.0999 86.218 17.8179 85.5 17.8179 84.6143C17.8179 83.7285 17.0999 83.0105 16.2141 83.0105C15.3284 83.0105 14.6104 83.7285 14.6104 84.6143C14.6104 85.5 15.3284 86.218 16.2141 86.218Z" fill="#FFE800"/>
<path d="M36.8848 85.1488C37.1801 85.1488 37.4194 84.9095 37.4194 84.6142C37.4194 84.319 37.1801 84.0797 36.8848 84.0797H21.2035C20.9083 84.0797 20.6689 84.319 20.6689 84.6142C20.6689 84.9095 20.9083 85.1488 21.2035 85.1488H36.8848Z" fill="#383C43"/>
<path d="M16.2141 91.9203C17.0999 91.9203 17.8179 91.2023 17.8179 90.3165C17.8179 89.4308 17.0999 88.7128 16.2141 88.7128C15.3284 88.7128 14.6104 89.4308 14.6104 90.3165C14.6104 91.2023 15.3284 91.9203 16.2141 91.9203Z" fill="#EEEEEE"/>
<path d="M31.5387 90.8512C31.8339 90.8512 32.0732 90.6118 32.0732 90.3166C32.0732 90.0213 31.8339 89.782 31.5387 89.782H21.2032C20.908 89.782 20.6686 90.0213 20.6686 90.3166C20.6686 90.6118 20.908 90.8512 21.2032 90.8512H31.5387Z" fill="#383C43"/>
<path d="M127.231 31.1552H54.8828V47.0147H127.231V31.1552Z" fill="#E1E1E1"/>
<mask id="mask2_2293_951" style="mask-type:luminance" maskUnits="userSpaceOnUse" x="110" y="3" width="65" height="43">
<path d="M175 3H110.849V45.7673H175V3Z" fill="white"/>
</mask>
<g mask="url(#mask2_2293_951)">
<path d="M175 3H110.849V45.7673H175V3Z" fill="#EEEEEE"/>
<path d="M175 3H110.849V7.63312H175V3Z" fill="#383C43"/>
<path d="M113.7 6.38574C114.291 6.38574 114.769 5.90705 114.769 5.31656C114.769 4.72606 114.291 4.24738 113.7 4.24738C113.11 4.24738 112.631 4.72606 112.631 5.31656C112.631 5.90705 113.11 6.38574 113.7 6.38574Z" fill="#FD6E73"/>
<path d="M117.061 6.38574C117.651 6.38574 118.13 5.90705 118.13 5.31656C118.13 4.72606 117.651 4.24738 117.061 4.24738C116.47 4.24738 115.992 4.72606 115.992 5.31656C115.992 5.90705 116.47 6.38574 117.061 6.38574Z" fill="#EDE500"/>
<path d="M120.42 6.38574C121.01 6.38574 121.489 5.90705 121.489 5.31656C121.489 4.72606 121.01 4.24738 120.42 4.24738C119.829 4.24738 119.351 4.72606 119.351 5.31656C119.351 5.90705 119.829 6.38574 120.42 6.38574Z" fill="#4AEE67"/>
</g>
<path d="M158.237 17.7903C158.532 17.7903 158.771 17.551 158.771 17.2558C158.771 16.9605 158.532 16.7212 158.237 16.7212H138.992C138.696 16.7212 138.457 16.9605 138.457 17.2558C138.457 17.551 138.696 17.7903 138.992 17.7903H158.237Z" fill="#383C43"/>
<path d="M160.019 23.4926C160.314 23.4926 160.554 23.2533 160.554 22.9581C160.554 22.6628 160.314 22.4235 160.019 22.4235H138.992C138.697 22.4235 138.457 22.6628 138.457 22.9581C138.457 23.2533 138.697 23.4926 138.992 23.4926H160.019Z" fill="#383C43"/>
<path d="M154.673 29.195C154.968 29.195 155.208 28.9556 155.208 28.6604C155.208 28.3651 154.968 28.1258 154.673 28.1258H138.992C138.696 28.1258 138.457 28.3651 138.457 28.6604C138.457 28.9556 138.696 29.195 138.992 29.195H154.673Z" fill="#383C43"/>
<path d="M149.327 34.8972C149.622 34.8972 149.862 34.6579 149.862 34.3627C149.862 34.0674 149.622 33.8281 149.327 33.8281H138.992C138.697 33.8281 138.457 34.0674 138.457 34.3627C138.457 34.6579 138.697 34.8972 138.992 34.8972H149.327Z" fill="#383C43"/>
<path d="M123.216 35.0434C123.027 34.0686 122.551 33.1278 121.799 32.3793C121.299 31.8768 120.714 31.4973 120.092 31.2442C119.159 30.8664 118.141 30.772 117.164 30.9591C116.192 31.148 115.252 31.6256 114.5 32.3775L110.496 36.3834C110.475 36.403 110.457 36.4244 110.438 36.4458C110.445 36.4458 110.45 36.4422 110.457 36.4422C111.633 36.207 112.843 36.3157 113.955 36.7594C113.961 36.7594 113.968 36.7648 113.973 36.7665L116.432 34.3074C116.673 34.0686 116.944 33.8922 117.236 33.7746C117.671 33.5964 118.153 33.5519 118.613 33.6427C119.075 33.7318 119.506 33.951 119.864 34.3074C120.105 34.548 120.279 34.8188 120.399 35.1111C120.577 35.5459 120.622 36.0306 120.531 36.4903C120.44 36.9519 120.222 37.3831 119.864 37.7413L115.858 41.7471C115.62 41.9877 115.349 42.1623 115.056 42.2817C114.62 42.4582 114.135 42.5027 113.675 42.4136C113.216 42.3227 112.784 42.1053 112.424 41.7471C112.23 41.5529 112.081 41.3373 111.965 41.1074C111.954 41.1056 111.942 41.1003 111.929 41.0985C111.662 41.0486 111.375 41.0771 111.125 41.1805C110.953 41.2535 110.794 41.3569 110.659 41.4941L110.58 41.5743C110.174 42.0661 109.853 42.7629 110.495 43.6806C110.995 44.1795 111.578 44.5609 112.202 44.8121C113.135 45.1917 114.151 45.2844 115.126 45.0955C116.099 44.9084 117.038 44.4326 117.79 43.6788L121.796 39.6729C122.297 39.1722 122.676 38.5877 122.929 37.964C123.307 37.0321 123.401 36.0145 123.213 35.0398L123.216 35.0434Z" fill="#F99B46"/>
<path d="M111.865 45.7744C111.865 45.7744 111.852 45.7691 111.845 45.7673L109.386 48.2264C109.147 48.467 108.876 48.6416 108.584 48.761C108.147 48.9392 107.664 48.982 107.205 48.8929C106.745 48.802 106.312 48.5846 105.954 48.2264C105.713 47.9859 105.539 47.7168 105.419 47.4228C105.243 46.988 105.198 46.5051 105.287 46.0435C105.376 45.5838 105.596 45.1525 105.954 44.7926L109.96 40.7849C110.198 40.5461 110.469 40.3715 110.762 40.2521C111.198 40.0739 111.679 40.0294 112.141 40.1185C112.601 40.2094 113.032 40.4268 113.392 40.7849C113.586 40.9792 113.737 41.1948 113.853 41.4264C113.864 41.43 113.876 41.4318 113.889 41.4353C114.156 41.4835 114.443 41.455 114.693 41.3516C114.867 41.2785 115.024 41.1734 115.161 41.0362L115.24 40.9578C115.646 40.466 115.965 39.7674 115.325 38.8515C114.826 38.3508 114.242 37.973 113.62 37.7199C112.686 37.3422 111.67 37.2477 110.694 37.4366C109.721 37.6237 108.782 38.1031 108.03 38.8551L104.026 42.8609C103.525 43.3599 103.144 43.9461 102.892 44.5681C102.513 45.5 102.42 46.5175 102.609 47.4905C102.798 48.467 103.274 49.4043 104.026 50.1545C104.526 50.657 105.111 51.0366 105.733 51.2896C106.667 51.6674 107.682 51.7601 108.657 51.573C109.632 51.3859 110.569 50.9101 111.321 50.1563L115.327 46.1487C115.348 46.1308 115.366 46.1077 115.386 46.0899C115.379 46.0899 115.371 46.0916 115.366 46.0916C114.188 46.3251 112.98 46.2164 111.868 45.7727L111.865 45.7744Z" fill="#F99B46"/>
<path d="M78.4885 53.9323C78.2996 52.9576 77.8239 52.0167 77.0719 51.2682C76.5711 50.7657 75.9866 50.3862 75.3647 50.1331C74.431 49.7554 73.4135 49.6609 72.437 49.848C71.464 50.0369 70.5249 50.5145 69.7729 51.2665L65.7688 55.2723C65.7474 55.2919 65.7296 55.3133 65.71 55.3347C65.7171 55.3347 65.7225 55.3311 65.7296 55.3311C66.9057 55.0959 68.1157 55.2046 69.2276 55.6483C69.233 55.6483 69.2401 55.6537 69.2455 55.6555L71.7046 53.1963C71.9451 52.9576 72.216 52.7811 72.5082 52.6635C72.943 52.4853 73.426 52.4408 73.8857 52.5317C74.3472 52.6208 74.7785 52.8399 75.1366 53.1963C75.3772 53.4369 75.5518 53.7078 75.6712 54C75.8494 54.4348 75.894 54.9195 75.8031 55.3793C75.7122 55.8408 75.4948 56.272 75.1366 56.6302L71.1308 60.6361C70.892 60.8766 70.6211 61.0513 70.3289 61.1707C69.8923 61.3471 69.4076 61.3916 68.9479 61.3025C68.4881 61.2116 68.0569 60.9942 67.6969 60.6361C67.5027 60.4418 67.353 60.2262 67.2372 59.9963C67.2265 59.9946 67.214 59.9892 67.2015 59.9874C66.9342 59.9375 66.6473 59.966 66.3979 60.0694C66.225 60.1425 66.0664 60.2458 65.931 60.383L65.8526 60.4632C65.4463 60.955 65.1255 61.6518 65.767 62.5695C66.2678 63.0685 66.8505 63.4498 67.4742 63.7011C68.4079 64.0806 69.4236 64.1733 70.3984 63.9844C71.3713 63.7973 72.3104 63.3215 73.0624 62.5677L77.0683 58.5618C77.569 58.0611 77.9486 57.4766 78.2016 56.8529C78.5794 55.921 78.6739 54.9035 78.485 53.9287L78.4885 53.9323Z" fill="#F99B46"/>
<path d="M67.1375 64.6633C67.1375 64.6633 67.125 64.658 67.1179 64.6562L64.6588 67.1153C64.42 67.3559 64.1491 67.5305 63.8569 67.6499C63.4203 67.8281 62.9374 67.8709 62.4776 67.7818C62.0179 67.6909 61.5849 67.4735 61.2267 67.1153C60.9861 66.8747 60.8115 66.6057 60.6921 66.3116C60.5157 65.8768 60.4712 65.3939 60.5603 64.9324C60.6494 64.4726 60.8685 64.0414 61.2267 63.6814L65.2326 59.6738C65.4714 59.435 65.7422 59.2604 66.0345 59.141C66.471 58.9628 66.9522 58.9182 67.4137 59.0073C67.8735 59.0982 68.3047 59.3156 68.6647 59.6738C68.8589 59.868 69.0104 60.0836 69.1262 60.3153C69.1369 60.3189 69.1493 60.3206 69.1618 60.3242C69.4291 60.3723 69.716 60.3438 69.9655 60.2405C70.1401 60.1674 70.2969 60.0623 70.4342 59.925L70.5126 59.8466C70.9188 59.3548 71.2378 58.6563 70.5981 57.7403C70.0991 57.2396 69.5147 56.8618 68.8927 56.6088C67.959 56.231 66.9433 56.1366 65.9668 56.3255C64.9938 56.5126 64.0547 56.9919 63.3027 57.7439L59.2986 61.7498C58.7979 62.2487 58.4165 62.835 58.1653 63.4569C57.7857 64.3889 57.6931 65.4064 57.882 66.3793C58.0708 67.3559 58.5466 68.2932 59.2986 69.0434C59.7993 69.5459 60.3838 69.9255 61.0057 70.1785C61.9395 70.5563 62.9552 70.6489 63.93 70.4618C64.9047 70.2747 65.842 69.7989 66.594 69.0452L70.5999 65.0375C70.6213 65.0197 70.6391 64.9965 70.6587 64.9787C70.6515 64.9787 70.6444 64.9805 70.6391 64.9805C69.4612 65.2139 68.253 65.1052 67.1411 64.6615L67.1375 64.6633Z" fill="#F99B46"/>
</svg>
