<svg width="180" height="128" viewBox="0 0 180 128" fill="none" xmlns="http://www.w3.org/2000/svg">
<rect width="180" height="128" fill="white"/>
<path d="M37.25 108.734V8.25H171.184V108.734H37.25Z" fill="#F7F8FC" stroke="black" stroke-width="0.5"/>
<path d="M171.434 8H37V17.6496H171.434V8Z" fill="#3E3A39"/>
<path d="M165.639 10.4124H85.8813V15.2372H165.639V10.4124Z" fill="white"/>
<path d="M44.0756 12.8248C44.0756 13.8895 43.2131 14.7521 42.1484 14.7521C41.0837 14.7521 40.2212 13.8895 40.2212 12.8248C40.2212 11.7601 41.0837 10.8976 42.1484 10.8976C43.2131 10.8976 44.0756 11.7601 44.0756 12.8248Z" fill="#424953"/>
<path d="M50.1938 12.8248C50.1938 13.8895 49.3313 14.7521 48.2666 14.7521C47.2019 14.7521 46.3394 13.8895 46.3394 12.8248C46.3394 11.7601 47.2019 10.8976 48.2666 10.8976C49.3313 10.8976 50.1938 11.7601 50.1938 12.8248Z" fill="#FF876C"/>
<path d="M56.2993 12.8248C56.2993 13.8895 55.4367 14.7521 54.372 14.7521C53.3074 14.7521 52.4448 13.8895 52.4448 12.8248C52.4448 11.7601 53.3074 10.8976 54.372 10.8976C55.4367 10.8976 56.2993 11.7601 56.2993 12.8248Z" fill="#01BACC"/>
<path d="M169.183 27.5822H40.3018V54.3342H169.183V27.5822Z" fill="#CDD5D7"/>
<path d="M169 18H39V24H169V18Z" fill="#B7BEC0"/>
<path d="M77.6198 62.0161H40.3018V81.3287H77.6198V62.0161Z" fill="#CDD5D7"/>
<path d="M64.0484 86.248H40.3018V87.7844H64.0484V86.248Z" fill="#CDD5D7"/>
<path d="M74.8435 90.5605H40.3018V91.3287H74.8435V90.5605Z" fill="#CDD5D7"/>
<path d="M74.8435 98.4042H40.3018V99.1724H74.8435V98.4042Z" fill="#CDD5D7"/>
<path d="M77.9163 94.4824H40.3018V95.2506H77.9163V94.4824Z" fill="#CDD5D7"/>
<path d="M123.254 62.0161H85.9355V81.3287H123.254V62.0161Z" fill="#CDD5D7"/>
<path d="M109.682 86.248H85.9355V87.7844H109.682V86.248Z" fill="#CDD5D7"/>
<path d="M120.464 90.5605H85.9355V91.3287H120.464V90.5605Z" fill="#CDD5D7"/>
<path d="M120.464 98.4042H85.9355V99.1724H120.464V98.4042Z" fill="#CDD5D7"/>
<path d="M123.537 94.4824H85.9355V95.2506H123.537V94.4824Z" fill="#CDD5D7"/>
<path d="M168.886 62.0161H131.568V81.3287H168.886V62.0161Z" fill="#CDD5D7"/>
<path d="M155.315 86.248H131.568V87.7844H155.315V86.248Z" fill="#CDD5D7"/>
<path d="M166.097 90.5605H131.568V91.3287H166.097V90.5605Z" fill="#CDD5D7"/>
<path d="M166.097 98.4042H131.568V99.1724H166.097V98.4042Z" fill="#CDD5D7"/>
<path d="M169.169 94.4824H131.568V95.2506H169.169V94.4824Z" fill="#CDD5D7"/>
<path d="M65.2749 20.4933H41.5283V22.0297H65.2749V20.4933Z" fill="#E5E8EC"/>
<path d="M167.943 20.8842H158.806V21.6523H167.943V20.8842Z" fill="#E5E8EC"/>
<path d="M155.666 20.8842H146.528V21.6523H155.666V20.8842Z" fill="#E5E8EC"/>
<path d="M143.388 20.8842H134.251V21.6523H143.388V20.8842Z" fill="#E5E8EC"/>
<path d="M131.111 20.8842H121.973V21.6523H131.111V20.8842Z" fill="#E5E8EC"/>
<path d="M118.819 20.8842H109.682V21.6523H118.819V20.8842Z" fill="#E5E8EC"/>
<path d="M106.542 20.8842H97.4043V21.6523H106.542V20.8842Z" fill="#E5E8EC"/>
<path d="M109.83 34.9003C108.739 34.9947 107.768 35.965 107.687 37.0432L106.367 53.0674C106.272 54.1591 106.838 55.682 107.607 56.4636L135.935 84.7925C136.717 85.5741 137.984 85.5606 138.752 84.7925L157.566 65.9785C158.334 65.1968 158.334 63.9299 157.566 63.1618L129.237 34.8329C128.456 34.0647 126.933 33.4987 125.841 33.593L109.817 34.9138L109.83 34.9003ZM116.057 43.2831C115.181 44.1591 113.766 44.1591 112.89 43.2831C112.014 42.4071 112.014 40.992 112.89 40.116C113.766 39.2399 115.181 39.2399 116.057 40.116C116.933 40.992 116.933 42.4071 116.057 43.2831Z" fill="#FF876C"/>
<path d="M118.321 59.0242C117.957 58.8625 117.418 58.5525 116.73 57.8652C115.477 56.6118 115.261 55.4528 115.288 54.7654C115.288 53.4716 116.003 52.6765 116.825 51.8679L119.143 49.5498L121.043 51.4501L118.496 53.9973C117.822 54.6711 117.633 55.0754 117.768 55.601C117.795 55.7493 117.876 56.0727 118.213 56.3962C119.251 57.3935 120.221 56.3827 120.854 55.7493C121.865 54.7385 122.242 54.0107 122.539 52.5687C122.876 51.0862 122.984 49.5633 123.28 48.0808C123.428 47.2722 123.752 45.2237 125.369 43.6064C126.919 42.0566 128.469 42.0027 129.453 42.3126C129.965 42.4609 130.706 42.8248 131.596 43.7008C132.013 44.1186 133.604 45.6684 132.728 47.5148C132.566 47.8652 132.391 48.1617 131.838 48.7142L129.358 51.194L127.485 49.3207L129.951 46.8409C130.086 46.6657 130.949 45.938 130.086 45.0754C129.089 44.0781 128.294 44.8328 127.647 45.4797C126.474 46.6522 126.178 47.6495 125.895 49.3072C125.76 50.008 125.679 50.7088 125.571 51.4366C125.517 51.9757 125.437 52.5013 125.342 53.0269C124.897 55.628 123.981 56.814 123.172 57.6226C122.876 57.9191 120.8 60.035 118.348 59.0107L118.321 59.0242Z" fill="white"/>
<path d="M122.337 62.9596L136.313 48.9838L141.461 54.1321L139.722 55.8706L136.65 52.7978L132.553 56.8949L135.288 59.6307L133.55 61.3693L130.841 58.6469L126.205 63.283L129.251 66.3288L127.485 68.0943L122.337 62.9461V62.9596Z" fill="white"/>
<path d="M137.216 74.8733C134.911 75.8572 132.903 73.7952 132.431 73.337C132.256 73.1618 131.663 72.5688 131.313 71.8545C131.03 71.3019 130.585 69.9003 131.34 68.4717C131.623 67.9192 131.852 67.6496 132.647 66.8545L139.615 59.8868C140.868 58.6469 142.067 57.434 144.116 57.8114C144.749 57.9327 145.76 58.2426 146.865 59.3343C147.202 59.6712 148.119 60.5876 148.348 61.9219C148.469 62.5957 148.375 63.1348 148.307 63.3774C148.051 64.5095 147.35 65.2642 145.787 66.8275L139.143 73.4852C138.604 74.0243 137.984 74.5499 137.229 74.8599L137.216 74.8733ZM144.278 64.2399C145.127 63.3909 145.666 62.8518 145.76 62.2723C145.8 61.9623 145.774 61.4636 145.221 60.9111C145.113 60.8033 144.736 60.4663 144.278 60.3585C143.415 60.1294 142.876 60.7359 141.825 61.7871L134.345 69.2669C133.59 70.0216 133.011 70.8572 134.075 71.9219C135.396 73.2426 136.407 72.1105 137.229 71.275L144.278 64.2265V64.2399Z" fill="white"/>
<path d="M113.631 41.1941C113.455 41.3693 113.159 41.3693 112.984 41.1941L95.3692 23.7278C95.194 23.5526 95.194 23.2561 95.3692 23.0809C95.5444 22.9057 95.8409 22.9057 96.0161 23.0809L113.631 40.5472C113.806 40.7224 113.806 41.0189 113.631 41.1941Z" fill="#DCE4E7"/>
<path d="M114.318 40.655C114.318 40.655 114.277 40.682 114.264 40.6954C114.062 40.8437 113.765 40.8033 113.617 40.6011L109.507 35.062C109.358 34.8599 109.399 34.5634 109.601 34.4151C109.803 34.2669 110.086 34.3073 110.248 34.5095L114.358 40.0485C114.493 40.2372 114.466 40.4933 114.318 40.6415V40.655Z" fill="#DCE4E7"/>
<path d="M113.227 41.3693C113.227 41.3693 113.2 41.4098 113.186 41.4232C113.024 41.6254 112.741 41.6524 112.539 41.4906L107.175 37.1645C106.973 37.0028 106.946 36.7197 107.108 36.5176C107.27 36.3154 107.553 36.2885 107.755 36.4502L113.119 40.7763C113.294 40.9246 113.334 41.1807 113.227 41.3693Z" fill="#DCE4E7"/>
<path d="M99.0648 87H2V124.45H99.0648V87Z" fill="#3D3A39"/>
<path d="M10.0339 90.2043H5.19092V95.034H10.0339V90.2043Z" fill="white"/>
<path d="M89.5116 96.5598H84.6753V101.383H89.5116V96.5598Z" fill="white"/>
<path d="M83.1625 96.5598H78.3262V101.383H83.1625V96.5598Z" fill="white"/>
<path d="M76.7938 96.5598H71.9707V101.383H76.7938V96.5598Z" fill="white"/>
<path d="M70.445 96.5598H65.6021V101.383H70.445V96.5598Z" fill="white"/>
<path d="M64.0763 96.5598H59.2466V101.383H64.0763V96.5598Z" fill="white"/>
<path d="M57.7269 96.5598H52.8906V101.383H57.7269V96.5598Z" fill="white"/>
<path d="M51.3651 96.5598H46.5288V101.383H51.3651V96.5598Z" fill="white"/>
<path d="M45.0095 96.5598H40.1665V101.383H45.0095V96.5598Z" fill="white"/>
<path d="M38.6471 96.5598H33.8174V101.383H38.6471V96.5598Z" fill="white"/>
<path d="M32.2917 96.5598H27.4487V101.383H32.2917V96.5598Z" fill="white"/>
<path d="M25.9362 96.5598H21.0933V101.383H25.9362V96.5598Z" fill="white"/>
<path d="M19.5741 96.5598H14.7378V101.383H19.5741V96.5598Z" fill="white"/>
<path d="M21.1 102.902H16.2637V107.738H21.1V102.902Z" fill="white"/>
<path d="M17.9952 109.271H13.1655V114.101H17.9952V109.271Z" fill="white"/>
<path d="M24.3508 109.271H19.5078V114.101H24.3508V109.271Z" fill="white"/>
<path d="M30.7062 109.271H25.8765V114.101H30.7062V109.271Z" fill="white"/>
<path d="M37.0616 109.271H32.2319V114.101H37.0616V109.271Z" fill="white"/>
<path d="M43.4237 109.271H38.5874V114.101H43.4237V109.271Z" fill="white"/>
<path d="M49.7726 109.271H44.9429V114.101H49.7726V109.271Z" fill="white"/>
<path d="M56.1282 109.271H51.3052V114.101H56.1282V109.271Z" fill="white"/>
<path d="M62.4973 109.271H57.6543V114.101H62.4973V109.271Z" fill="white"/>
<path d="M68.8529 109.271H64.0166V114.101H68.8529V109.271Z" fill="white"/>
<path d="M75.2147 109.271H70.3784V114.101H75.2147V109.271Z" fill="white"/>
<path d="M81.5639 109.271H76.7275V114.101H81.5639V109.271Z" fill="white"/>
<path d="M95.8669 109.271H83.0762V114.101H95.8669V109.271Z" fill="white"/>
<path d="M27.462 102.902H22.6323V107.738H27.462V102.902Z" fill="white"/>
<path d="M33.8176 102.902H28.9746V107.738H33.8176V102.902Z" fill="white"/>
<path d="M40.1663 102.902H35.3433V107.738H40.1663V102.902Z" fill="white"/>
<path d="M46.5355 102.902H41.6992V107.738H46.5355V102.902Z" fill="white"/>
<path d="M52.8842 102.902H48.0479V107.738H52.8842V102.902Z" fill="white"/>
<path d="M59.2396 102.902H54.4033V107.738H59.2396V102.902Z" fill="white"/>
<path d="M65.5953 102.902H60.7656V107.738H65.5953V102.902Z" fill="white"/>
<path d="M71.964 102.902H67.1211V107.738H71.964V102.902Z" fill="white"/>
<path d="M78.3195 102.902H73.4766V107.738H78.3195V102.902Z" fill="white"/>
<path d="M84.6686 102.902H79.8389V107.738H84.6686V102.902Z" fill="white"/>
<path d="M91.0311 102.902H86.1948V107.738H91.0311V102.902Z" fill="white"/>
<path d="M16.3895 90.2043H11.5532V95.034H16.3895V90.2043Z" fill="white"/>
<path d="M22.745 90.2043H17.9087V95.034H22.745V90.2043Z" fill="white"/>
<path d="M29.1075 90.2043H24.2778V95.034H29.1075V90.2043Z" fill="white"/>
<path d="M35.4631 90.2043H30.6201V95.034H35.4631V90.2043Z" fill="white"/>
<path d="M41.8118 90.2043H36.9888V95.034H41.8118V90.2043Z" fill="white"/>
<path d="M48.1741 90.2043H43.3511V95.034H48.1741V90.2043Z" fill="white"/>
<path d="M54.536 90.2043H49.6997V95.034H54.536V90.2043Z" fill="white"/>
<path d="M60.8983 90.2043H56.062V95.034H60.8983V90.2043Z" fill="white"/>
<path d="M67.2538 90.2043H62.4175V95.034H67.2538V90.2043Z" fill="white"/>
<path d="M73.6093 90.2043H68.7729V95.034H73.6093V90.2043Z" fill="white"/>
<path d="M79.9716 90.2043H75.1353V95.034H79.9716V90.2043Z" fill="white"/>
<path d="M86.3272 90.2043H81.4976V95.034H86.3272V90.2043Z" fill="white"/>
<path d="M95.8606 90.2043H87.8398V95.034H95.8606V90.2043Z" fill="white"/>
<path d="M13.2117 96.5598H5.19092V101.383H13.2117V96.5598Z" fill="white"/>
<path d="M14.7508 102.902H5.19092V107.738H14.7508V102.902Z" fill="white"/>
<path d="M11.6393 109.271H5.19092V114.101H11.6393V109.271Z" fill="white"/>
<path d="M10.0339 115.62H5.19092V121.259H10.0339V115.62Z" fill="white"/>
<path d="M16.3697 115.62H11.54V121.259H16.3697V115.62Z" fill="white"/>
<path d="M22.7121 115.62H17.8691V121.259H22.7121V115.62Z" fill="white"/>
<path d="M30.7063 115.62H24.2114V121.259H30.7063V115.62Z" fill="white"/>
<path d="M62.4971 115.62H32.2319V121.259H62.4971V115.62Z" fill="white"/>
<path d="M70.5115 115.62H64.0166V121.259H70.5115V115.62Z" fill="white"/>
<path d="M76.8534 115.62H72.0171V121.259H76.8534V115.62Z" fill="white"/>
<path d="M83.2094 118.632H78.373V121.259H83.2094V118.632Z" fill="white"/>
<path d="M89.5385 118.791H84.7021V121.259H89.5385V118.791Z" fill="white"/>
<path d="M89.5385 115.607H84.7021V118.088H89.5385V115.607Z" fill="white"/>
<path d="M95.8673 118.632H91.0376V121.259H95.8673V118.632Z" fill="white"/>
<path d="M92.5433 107.738V101.383H91.0439V96.5598H95.867V107.738H92.5433Z" fill="white"/>
</svg>
