<svg width="180" height="128" viewBox="0 0 180 128" fill="none" xmlns="http://www.w3.org/2000/svg">
<rect width="180" height="128" fill="white"/>
<path d="M3.25 9.62671H135.47V108.483H3.25V9.62671Z" fill="#F7F8FC" stroke="black" stroke-width="0.5"/>
<path d="M135.72 9.37671H3V18.8748H135.72V9.37671Z" fill="#3B3C3D"/>
<path d="M130.009 11.7513H51.2629V16.5004H130.009V11.7513Z" fill="white"/>
<path d="M9.99271 14.1127C9.99271 15.1581 9.13804 16.0098 8.08913 16.0098C7.04022 16.0098 6.18555 15.1581 6.18555 14.1127C6.18555 13.0674 7.04022 12.2157 8.08913 12.2157C9.13804 12.2157 9.99271 13.0674 9.99271 14.1127Z" fill="white"/>
<path d="M16.0142 14.1127C16.0142 15.1581 15.1595 16.0098 14.1106 16.0098C13.0617 16.0098 12.207 15.1581 12.207 14.1127C12.207 13.0674 13.0617 12.2157 14.1106 12.2157C15.1595 12.2157 16.0142 13.0674 16.0142 14.1127Z" fill="#FF876C"/>
<path d="M22.0489 14.1127C22.0489 15.1581 21.1942 16.0098 20.1453 16.0098C19.0964 16.0098 18.2417 15.1581 18.2417 14.1127C18.2417 13.0674 19.0964 12.2157 20.1453 12.2157C21.1942 12.2157 22.0489 13.0674 22.0489 14.1127Z" fill="#01BACC"/>
<path d="M133.505 28.6438H6.26318V54.9701H133.505V28.6438Z" fill="#CDD5D7"/>
<path d="M135.3 19H3.5V25H135.3V19Z" fill="#FF876C"/>
<path d="M43.1046 62.5197H6.26318V81.5288H43.1046V62.5197Z" fill="#CDD5D7"/>
<path d="M29.7148 86.3553H6.26318V87.8652H29.7148V86.3553Z" fill="#CDD5D7"/>
<path d="M40.3593 90.6011H6.26318V91.3496H40.3593V90.6011Z" fill="#CDD5D7"/>
<path d="M40.3593 98.3313H6.26318V99.0798H40.3593V98.3313Z" fill="#CDD5D7"/>
<path d="M43.3895 94.4597H6.26318V95.2082H43.3895V94.4597Z" fill="#CDD5D7"/>
<path d="M88.1561 62.5197H51.3147V81.5288H88.1561V62.5197Z" fill="#CDD5D7"/>
<path d="M74.7534 86.3553H51.3147V87.8652H74.7534V86.3553Z" fill="#CDD5D7"/>
<path d="M85.4108 90.6011H51.3147V91.3496H85.4108V90.6011Z" fill="#CDD5D7"/>
<path d="M85.4108 98.3313H51.3147V99.0798H85.4108V98.3313Z" fill="#CDD5D7"/>
<path d="M88.441 94.4597H51.3147V95.2082H88.441V94.4597Z" fill="#CDD5D7"/>
<path d="M133.208 62.5197H96.3662V81.5288H133.208V62.5197Z" fill="#CDD5D7"/>
<path d="M119.805 86.3553H96.3662V87.8652H119.805V86.3553Z" fill="#CDD5D7"/>
<path d="M130.462 90.6011H96.3662V91.3496H130.462V90.6011Z" fill="#CDD5D7"/>
<path d="M130.462 98.3313H96.3662V99.0798H130.462V98.3313Z" fill="#CDD5D7"/>
<path d="M133.493 94.4597H96.3662V95.2082H133.493V94.4597Z" fill="#CDD5D7"/>
<path d="M30.9062 21.6752H7.46753V23.1851H30.9062V21.6752Z" fill="#E5E8EC"/>
<path d="M132.288 22.0496H123.262V22.7981H132.288V22.0496Z" fill="#E5E8EC"/>
<path d="M120.167 22.0496H111.142V22.7981H120.167V22.0496Z" fill="#E5E8EC"/>
<path d="M108.034 22.0496H99.0078V22.7981H108.034V22.0496Z" fill="#E5E8EC"/>
<path d="M95.9128 22.0496H86.887V22.7981H95.9128V22.0496Z" fill="#E5E8EC"/>
<path d="M83.7922 22.0496H74.7664V22.7981H83.7922V22.0496Z" fill="#E5E8EC"/>
<path d="M71.6713 22.0496H62.6455V22.7981H71.6713V22.0496Z" fill="#E5E8EC"/>
<path d="M110.17 79.3478L119.468 75.4118L128.766 71.4757L148.605 118.05L137.468 117.663L130.009 125.922L110.17 79.3478Z" fill="#FF876C"/>
<path d="M131.434 124.335L133.104 122.49L114.029 77.709L111.958 78.5994L131.434 124.335Z" fill="#FFA38F"/>
<path d="M143.982 117.895L146.468 117.973L126.992 72.2372L124.907 73.1147L143.982 117.895Z" fill="#FFA38F"/>
<path d="M114.288 73.5406L123.651 77.3089L133.026 81.0901L114.016 128L106.402 119.87L95.2654 120.451L114.288 73.5406Z" fill="#FF876C"/>
<path d="M97.4021 120.335L99.9014 120.205L118.186 75.1023L116.088 74.2634L97.4021 120.335Z" fill="#FFA38F"/>
<path d="M110.857 124.619L112.553 126.439L131.226 80.3547L129.141 79.5159L110.857 124.619Z" fill="#FFA38F"/>
<path d="M157.747 68.8432C157.747 71.1274 154.587 73.076 154.16 75.2312C153.72 77.4509 155.882 80.4577 155.028 82.4967C154.16 84.5745 150.495 85.1681 149.252 87.0264C147.996 88.8977 148.838 92.4853 147.258 94.0726C145.665 95.6599 142.065 94.8082 140.187 96.06C138.336 97.2989 137.74 100.951 135.642 101.816C133.583 102.667 130.579 100.512 128.351 100.951C126.189 101.377 124.234 104.526 121.941 104.526C119.649 104.526 117.694 101.377 115.531 100.951C113.304 100.512 110.287 102.667 108.241 101.816C106.156 100.951 105.56 97.2989 103.696 96.06C101.818 94.8082 98.2179 95.647 96.6251 94.0726C95.0323 92.4853 95.887 88.8977 94.6309 87.0264C93.3877 85.1681 89.723 84.5874 88.8554 82.4967C88.0007 80.4448 90.1633 77.4509 89.723 75.2312C89.2957 73.076 86.136 71.1274 86.136 68.8432C86.136 66.559 89.2957 64.6103 89.723 62.4552C90.1633 60.2355 88.0007 57.2286 88.8554 55.1896C89.723 53.1119 93.3877 52.5183 94.6309 50.6599C95.887 48.7887 95.0453 45.2011 96.6251 43.6138C98.2179 42.0264 101.818 42.8653 103.696 41.6264C105.547 40.3875 106.156 36.7354 108.241 35.8707C110.3 35.019 113.304 37.1741 115.531 36.7353C117.694 36.3095 119.649 33.1606 121.941 33.1606C124.234 33.1606 126.189 36.3095 128.351 36.7353C130.579 37.1741 133.596 35.019 135.642 35.8707C137.727 36.7354 138.323 40.3875 140.187 41.6264C142.065 42.8782 145.665 42.0393 147.258 43.6138C148.851 45.1882 147.996 48.7887 149.252 50.6599C150.495 52.5053 154.16 53.1119 155.028 55.1896C155.882 57.2415 153.72 60.2355 154.16 62.4552C154.587 64.6103 157.747 66.559 157.747 68.8432Z" fill="#F0CA67"/>
<path d="M148.643 68.8432C148.643 83.542 136.691 95.4534 121.941 95.4534C107.192 95.4534 95.2395 83.5291 95.2395 68.8432C95.2395 54.1572 107.192 42.2329 121.941 42.2329C136.691 42.2329 148.643 54.1443 148.643 68.8432Z" fill="#F3B840"/>
<path d="M145.782 68.8431C145.782 81.9675 135.111 92.6013 121.941 92.6013C108.772 92.6013 98.1013 81.9675 98.1013 68.8431C98.1013 55.7186 108.772 45.0848 121.941 45.0848C135.111 45.0848 145.782 55.7315 145.782 68.8431Z" fill="#F4DA80"/>
<path d="M145.781 69.4755C145.781 82.2515 135.383 92.6014 122.576 92.6014C109.769 92.6014 99.3704 82.2386 99.3704 69.4755C99.3704 56.7124 109.756 46.3496 122.576 46.3496C135.396 46.3496 145.781 56.7124 145.781 69.4755Z" fill="#F0CA67"/>
<path d="M121.307 53.6927L126.034 63.2425L136.6 64.7782L128.947 72.1986L130.76 82.7034L121.307 77.7478L111.841 82.7034L113.654 72.1986L106.001 64.7782L116.58 63.2425L121.307 53.6927Z" fill="#484F59"/>
<path d="M71.9692 127.6L72.7202 123.251L69.5605 120.18L73.9375 119.547L75.8929 115.598L77.8482 119.547L82.2252 120.18L79.0655 123.251L79.8166 127.6L75.9058 125.548L71.9951 127.6H71.9692ZM75.8799 124.09L78.0684 125.238L77.654 122.799L79.4281 121.07L76.9806 120.722L75.8799 118.502L74.7792 120.722L72.3317 121.07L74.1058 122.799L73.6914 125.238L75.8799 124.09Z" fill="#F2971B"/>
<path d="M174.75 72.8049L169.492 70.0432L164.235 72.8049L165.245 66.9718L160.984 62.8422L166.863 61.9905L169.492 56.6736L172.121 61.9905L178 62.8422L173.74 66.9718L174.75 72.8049ZM163.756 63.7327L166.617 66.5072L165.944 70.4433L169.479 68.585L173.014 70.4433L172.341 66.5072L175.203 63.7327L171.24 63.1648L169.466 59.5901L167.692 63.1648L163.73 63.7327H163.756Z" fill="#FF876C"/>
<path d="M146.274 33.3799L147.672 25.2239L141.728 19.4553L149.938 18.2681L153.616 10.8477L157.294 18.2681L165.504 19.4553L159.56 25.2368L160.958 33.3928L153.616 29.5471L146.274 33.3928V33.3799ZM153.616 28.0759L159.249 31.0312L158.174 24.7851L162.732 20.3587L156.439 19.4424L153.629 13.7642L150.819 19.4424L144.525 20.3587L149.084 24.7851L148.009 31.0312L153.642 28.0759H153.616Z" fill="#F4DA80"/>
<path d="M168.195 0.0128712L167.279 0.924927L168.935 2.57746L169.851 1.66541L168.195 0.0128712Z" fill="#B7BEC0"/>
<path d="M172.418 4.21875L171.503 5.13159L173.161 6.78269L174.076 5.86984L172.418 4.21875Z" fill="#B7BEC0"/>
<path d="M173.155 6.26617e-05L171.498 1.65173L172.413 2.56426L174.071 0.912589L173.155 6.26617e-05Z" fill="#B7BEC0"/>
<path d="M168.947 4.22052L167.289 5.87219L168.205 6.78472L169.862 5.13305L168.947 4.22052Z" fill="#B7BEC0"/>
</svg>
