<svg width="180" height="128" viewBox="0 0 180 128" fill="none" xmlns="http://www.w3.org/2000/svg">
<rect width="180" height="128" fill="white"/>
<path d="M56.5822 38.3092H155.485C157.494 38.3092 159.134 39.938 159.134 41.9578V109.641C159.134 111.65 157.494 113.29 155.485 113.29H56.5822C54.5733 113.29 52.9336 111.661 52.9336 109.641V41.9578C52.9336 39.9489 54.5624 38.3092 56.5822 38.3092Z" fill="#CDD5D7"/>
<path d="M158.786 109.642C158.786 111.466 157.309 112.954 155.485 112.954H56.5819C54.7576 112.954 53.2808 111.466 53.2808 109.642V41.9579C53.2808 40.1336 54.7576 38.6567 56.5819 38.6567H155.485C157.309 38.6567 158.786 40.1336 158.786 41.9579V109.642Z" fill="#30363D"/>
<path d="M153.606 43.3912H58.4497V104.136H153.606V43.3912Z" fill="#484F59"/>
<path d="M105.914 40.948C105.914 41.1869 105.719 41.3932 105.469 41.3932C105.219 41.3932 105.024 41.1977 105.024 40.948C105.024 40.6982 105.219 40.5027 105.469 40.5027C105.719 40.5027 105.914 40.6982 105.914 40.948Z" fill="#E5E8EC"/>
<path d="M63.4883 104.136H78.6256L102.168 43.3912H87.0304L63.4883 104.136Z" fill="#596273"/>
<path d="M88.3659 104.136L111.908 43.3912H107.032L83.4902 104.136H88.3659Z" fill="#596273"/>
<path d="M102.168 43.3912L104.003 38.6567H88.8654L87.0303 43.3912H102.168Z" fill="#484F59"/>
<path d="M63.4879 104.136L60.0674 112.953H75.2156L78.6253 104.136H63.4879Z" fill="#484F59"/>
<path d="M111.908 43.3912L113.744 38.6567H108.879L107.033 43.3912H111.908Z" fill="#484F59"/>
<path d="M83.4908 104.136L80.0811 112.953H84.9458L88.3664 104.136H83.4908Z" fill="#484F59"/>
<path d="M176.91 109.207H35.1465V113.355H176.91V109.207Z" fill="#E5E8EC"/>
<path d="M35.353 113.355C37.0362 115.125 40.1092 115.82 42.2376 115.82H169.819C171.947 115.82 175.031 115.125 176.704 113.355H35.353Z" fill="#CDD5D7"/>
<path d="M96.402 109.207V109.652C96.402 110.467 97.0644 111.14 97.8788 111.14H114.178C114.992 111.14 115.655 110.478 115.655 109.652V109.207H96.3911H96.402Z" fill="#CDD5D7"/>
<path d="M170.688 50.5038L169.515 45.1938L164.194 44.021L169.515 42.8482L170.688 37.5382L171.872 42.8482L177.182 44.021L171.872 45.1938L170.688 50.5038ZM169.222 44.0101L170.427 44.2816L170.699 45.4869L170.97 44.2816L172.176 44.0101L170.97 43.7387L170.699 42.5333L170.427 43.7387L169.222 44.0101Z" fill="#CFCFCF"/>
<path d="M150.881 26.8748H149.795L149.187 19.5884L141.912 18.9695V17.8836L149.187 17.2646L149.795 10H150.881L151.5 17.2755L158.776 17.8944V18.9803L151.5 19.5993L150.881 26.8856V26.8748ZM148.394 18.4374L150.197 18.5894L150.349 20.3811L150.501 18.5894L152.304 18.4374L150.501 18.2854L150.349 16.4936L150.197 18.2854L148.394 18.4374Z" fill="#FCD13E"/>
<path d="M132.648 46.2906L130.944 36.1809L120.834 34.4761L130.944 32.7712L132.648 22.6616L134.353 32.7712L144.463 34.4761L134.353 36.1809L132.648 46.2906ZM127.36 34.4761L131.888 35.2362L132.648 39.7535L133.409 35.2362L137.937 34.4761L133.409 33.7159L132.648 29.1986L131.888 33.7159L127.36 34.4761Z" fill="#F5AA00"/>
<path d="M9.26985 39.0911H39.5663C42.3679 39.0911 44.6374 41.3606 44.6374 44.1622V115.929C44.6374 118.73 42.3679 121 39.5663 121H9.26985C6.46825 121 4.19873 118.73 4.19873 115.929V44.1622C4.19873 41.3606 6.46825 39.0911 9.26985 39.0911Z" fill="#474F59"/>
<path d="M10.0516 39.8729H38.7843C41.5859 39.8729 43.8554 42.1424 43.8554 44.944V115.158C43.8554 117.959 41.5859 120.229 38.7843 120.229H10.0516C7.24998 120.229 4.98047 117.959 4.98047 115.158V44.944C4.98047 42.1424 7.24998 39.8729 10.0516 39.8729Z" fill="#30363D"/>
<path d="M19.6075 44.0971C19.6075 44.4771 19.3034 44.7812 18.9234 44.7812C18.5433 44.7812 18.2393 44.4771 18.2393 44.0971C18.2393 43.717 18.5433 43.413 18.9234 43.413C19.3034 43.413 19.6075 43.717 19.6075 44.0971Z" fill="#596273"/>
<path d="M24.7984 41.719C24.7984 41.9579 24.6029 42.1533 24.364 42.1533C24.1251 42.1533 23.9297 41.9579 23.9297 41.719C23.9297 41.4801 24.1251 41.2846 24.364 41.2846C24.6029 41.2846 24.7984 41.4801 24.7984 41.719Z" fill="#596273"/>
<path d="M27.0568 44.0319C27.0568 44.2165 26.9048 44.3576 26.7311 44.3576H22.0509C21.8771 44.3576 21.7251 44.2165 21.7251 44.0319C21.7251 43.8473 21.8771 43.7061 22.0509 43.7061H26.7311C26.9048 43.7061 27.0568 43.8473 27.0568 44.0319Z" fill="#596273"/>
<path d="M22.3437 114.897H26.633C26.9587 114.897 27.2194 115.158 27.2194 115.484V116.656C27.2194 116.982 26.9587 117.243 26.633 117.243H22.3437C22.0179 117.243 21.7573 116.982 21.7573 116.656V115.484C21.7573 115.158 22.0179 114.897 22.3437 114.897Z" fill="#596273"/>
<path d="M4.92617 51.8503H3.98145V48.723H4.92617V51.8503Z" fill="#30363D"/>
<path d="M4.92617 60.0379H3.98145V54.7713H4.92617V60.0379Z" fill="#30363D"/>
<path d="M4.92617 66.2818H3.98145V61.2542H4.92617V66.2818Z" fill="#30363D"/>
<path d="M42.1394 48.3864H6.6416V111.379H42.1394V48.3864Z" fill="#01BACC"/>
<path d="M6.6416 68.6383V88.977L31.6171 48.3864H19.0968L6.6416 68.6383Z" fill="#01C6DA"/>
<path d="M6.6416 100.259L38.556 48.3864H33.7998L6.6416 92.517V100.259Z" fill="#01C6DA"/>
</svg>
