<svg width="180" height="128" viewBox="0 0 180 128" fill="none" xmlns="http://www.w3.org/2000/svg">
<rect width="180" height="128" fill="white"/>
<path d="M164.707 91.6455V4.11906C164.707 1.84163 162.877 0 160.614 0H19.386C17.1372 0 15.2935 1.84163 15.2935 4.11906V91.6455H164.707Z" fill="#30363D"/>
<path d="M15 91.8142V104.467C15 106.899 16.9555 108.881 19.3859 108.881H160.614C163.031 108.881 165 106.899 165 104.467V91.8142H15Z" fill="#E5E8EC"/>
<path d="M115.833 127.522C115.833 127.522 114.744 126.988 113.501 126.51C112.174 126.004 110.568 125.371 109.618 124.921C107.97 124.12 107.83 123.6 107.201 120.873C106.531 117.892 105.888 111.622 105.637 108.881H74.3491C74.0977 111.622 73.4552 117.906 72.7847 120.873C72.1702 123.6 72.0305 124.12 70.3683 124.921C69.4325 125.371 67.8541 125.99 66.5412 126.496C65.2701 126.974 64.2365 127.339 64.2365 127.339C64.2365 127.339 63.2308 127.902 64.851 127.986H115.149C116.672 128.014 115.833 127.522 115.833 127.522Z" fill="#E5E8EC"/>
<path d="M105.972 112.199C105.833 110.891 105.721 109.724 105.637 108.895H74.3491C74.2793 109.724 74.1536 110.905 74.0139 112.199H105.958H105.972Z" fill="#CDD5D7"/>
<path d="M42.1255 91.6455H73.2317L130.067 0H98.9744L42.1255 91.6455Z" fill="#484F59"/>
<path d="M82.1152 91.6455H93.4571L150.306 0H138.95L82.1152 91.6455Z" fill="#484F59"/>
<path d="M157.765 7.05713H22.2354V83.8712H157.765V7.05713Z" fill="#FF876C"/>
<path d="M46.9583 83.8712H78.0505L125.681 7.05713H94.5884L46.9583 83.8712Z" fill="#FFA38F"/>
<path d="M98.2899 83.8712L145.92 7.05713H134.564L86.9341 83.8712H98.2899Z" fill="#FFA38F"/>
<path d="M101.028 67.1278H139.383C140.64 67.1278 141.66 68.1541 141.66 69.4193V125.694C141.66 126.96 140.64 127.986 139.383 127.986H101.028C99.7704 127.986 98.7368 126.96 98.7368 125.68V69.4053C98.7368 68.14 99.7565 67.1138 101.014 67.1138L101.028 67.1278Z" fill="#596273"/>
<path d="M101.028 67.4653H139.383C140.445 67.4653 141.311 68.3369 141.311 69.4054V125.68C141.311 126.763 140.445 127.634 139.369 127.634H101.014C99.9522 127.634 99.0862 126.763 99.0862 125.694V69.4194C99.0862 68.351 99.9522 67.4653 101.028 67.4653Z" fill="#30363D"/>
<path d="M120.582 69.8411C120.582 70.052 120.415 70.2207 120.191 70.2207C119.968 70.2207 119.814 70.052 119.814 69.8411C119.814 69.6303 119.982 69.4475 120.191 69.4475C120.401 69.4475 120.582 69.6162 120.582 69.8411Z" fill="#596273"/>
<path d="M122.203 125.47C122.203 125.709 122.007 125.905 121.77 125.905H118.613C118.375 125.905 118.194 125.709 118.194 125.47V124.612C118.194 124.373 118.389 124.176 118.613 124.176H121.77C122.007 124.176 122.203 124.373 122.203 124.612V125.47Z" fill="#596273"/>
<path d="M138.866 72.1328H101.531V122.278H138.866V72.1328Z" fill="#01BACC"/>
<path d="M101.531 88.1029V104.157L121.113 72.1328H111.294L101.531 88.1029Z" fill="#01C6DA"/>
<path d="M101.531 113.056L126.547 72.1328H122.817L101.531 106.955V113.056Z" fill="#01C6DA"/>
<path d="M129.285 84.6304H145.222C146.688 84.6304 147.89 85.8394 147.89 87.3155V125.315C147.89 126.791 146.688 128 145.222 128H129.285C127.818 128 126.617 126.791 126.617 125.315V87.3155C126.617 85.8394 127.818 84.6304 129.285 84.6304Z" fill="#474F59"/>
<path d="M129.69 85.0381H144.803C146.269 85.0381 147.471 86.2471 147.471 87.7232V124.893C147.471 126.369 146.269 127.578 144.803 127.578H129.69C128.223 127.578 127.022 126.369 127.022 124.893V87.7232C127.022 86.2471 128.223 85.0381 129.69 85.0381Z" fill="#30363D"/>
<path d="M134.718 87.2735C134.718 87.4703 134.55 87.639 134.355 87.639C134.159 87.639 133.991 87.4703 133.991 87.2735C133.991 87.0767 134.159 86.908 134.355 86.908C134.55 86.908 134.718 87.0767 134.718 87.2735Z" fill="#596273"/>
<path d="M137.442 86.0222C137.442 86.1487 137.344 86.2471 137.204 86.2471C137.078 86.2471 136.981 86.1487 136.981 86.0222C136.981 85.8957 137.092 85.7832 137.204 85.7832C137.33 85.7832 137.442 85.8957 137.442 86.0222Z" fill="#596273"/>
<path d="M138.629 87.2454C138.629 87.3438 138.545 87.4141 138.461 87.4141H136.003C135.905 87.4141 135.835 87.3438 135.835 87.2454C135.835 87.147 135.905 87.0767 136.003 87.0767H138.461C138.545 87.0767 138.629 87.147 138.629 87.2454Z" fill="#596273"/>
<path d="M136.142 124.752H138.405C138.573 124.752 138.713 124.893 138.713 125.062V125.68C138.713 125.849 138.573 125.99 138.405 125.99H136.142C135.975 125.99 135.835 125.849 135.835 125.68V125.062C135.835 124.893 135.975 124.752 136.142 124.752Z" fill="#596273"/>
<path d="M126.994 91.3785H126.491V89.7336H126.994V91.3785Z" fill="#30363D"/>
<path d="M126.994 95.7224H126.491V92.9248H126.994V95.7224Z" fill="#30363D"/>
<path d="M126.994 99.0261H126.491V96.3691H126.994V99.0261Z" fill="#30363D"/>
<path d="M146.563 89.5508H127.888V122.897H146.563V89.5508Z" fill="#F0CA67"/>
<path d="M127.888 100.263V111.046L141.031 89.5508H134.439L127.888 100.263Z" fill="#F4DA80"/>
<path d="M127.888 117.006L144.677 89.5508H142.177L127.888 112.916V117.006Z" fill="#F4DA80"/>
</svg>
